0
SECTION
2
HEADER
9
$ACADVER
1
AC1009
0
ENDSEC
0
SECTION
2
ENTITIES
0
LINE
8
0
10
1306.74
20
1822.5
30
0
11
1302.98
21
1816
31
0
0
LINE
8
0
10
1302.98
20
1816
30
0
11
1295.48
21
1816
31
0
0
LINE
8
0
10
1295.48
20
1816
30
0
11
1291.72
21
1822.5
31
0
0
LINE
8
0
10
1291.72
20
1822.5
30
0
11
1295.48
21
1829
31
0
0
LINE
8
0
10
1295.48
20
1829
30
0
11
1302.98
21
1829
31
0
0
LINE
8
0
10
1302.98
20
1829
30
0
11
1306.74
21
1822.5
31
0
0
LINE
8
0
10
1272.98
20
1876
30
0
11
1265.48
21
1876
31
0
0
LINE
8
0
10
1265.48
20
1876
30
0
11
1261.72
21
1882.5
31
0
0
LINE
8
0
10
1261.72
20
1882.5
30
0
11
1265.48
21
1889
31
0
0
LINE
8
0
10
1265.48
20
1889
30
0
11
1272.98
21
1889
31
0
0
LINE
8
0
10
1272.98
20
1889
30
0
11
1276.74
21
1882.5
31
0
0
LINE
8
0
10
1276.74
20
1882.5
30
0
11
1272.98
21
1876
31
0
0
LINE
8
0
10
1268.95
20
1882.57
30
0
11
1265.52
21
1886
31
0
0
ARC
8
0
10
1269.23
20
1882.5
30
0
40
5.100402
50
136.668337
51
135
0
LINE
8
0
10
1283.35
20
1850.81
30
0
11
1279.8
21
1852.32
31
0
0
LINE
8
0
10
1279.8
20
1852.32
30
0
11
1280.31
21
1853.52
31
0
0
LINE
8
0
10
1280.31
20
1853.52
30
0
11
1289.43
21
1849.65
31
0
0
LINE
8
0
10
1289.43
20
1849.65
30
0
11
1288.29
21
1846.98
31
0
0
LINE
8
0
10
1288.29
20
1846.98
30
0
11
1279.18
21
1850.85
31
0
0
LINE
8
0
10
1279.18
20
1850.85
30
0
11
1279.75
21
1852.18
31
0
0
LINE
8
0
10
1298.95
20
1822.57
30
0
11
1295.52
21
1826
31
0
0
ARC
8
0
10
1299.23
20
1822.5
30
0
40
5.100402
50
136.668337
51
135
0
LINE
8
0
10
1291.04
20
1953.5
30
0
11
1291.04
21
1948.65
31
0
0
LINE
8
0
10
1291.04
20
1948.65
30
0
11
1289.08
21
1948.65
31
0
0
LINE
8
0
10
1289.08
20
1948.65
30
0
11
1289.08
21
1947.65
31
0
0
LINE
8
0
10
1289.08
20
1947.65
30
0
11
1263.67
21
1947.65
31
0
0
LINE
8
0
10
1263.67
20
1947.65
30
0
11
1242.94
21
1898.82
31
0
0
LINE
8
0
10
1242.94
20
1898.82
30
0
11
1245.8
21
1897.61
31
0
0
LINE
8
0
10
1245.8
20
1897.61
30
0
11
1241.81
21
1888.22
31
0
0
LINE
8
0
10
1241.81
20
1888.22
30
0
11
1238.96
21
1889.43
31
0
0
LINE
8
0
10
1238.96
20
1889.43
30
0
11
1233.92
21
1877.56
31
0
0
ARC
8
0
10
1240.5
20
1874.76
30
0
40
7.150972
50
156.948699
51
218.584732
0
LINE
8
0
10
1234.91
20
1870.3
30
0
11
1289.16
21
1802.35
31
0
0
LINE
8
0
10
1289.16
20
1802.35
30
0
11
1319.38
21
1802.35
31
0
0
LINE
8
0
10
1319.38
20
1802.35
30
0
11
1319.38
21
1822.5
31
0
0
ARC
8
0
10
1324.23
20
1822.5
30
0
40
4.85
50
90
51
180
0
LINE
8
0
10
1324.23
20
1827.35
30
0
11
1334.38
21
1827.35
31
0
0
LINE
8
0
10
1334.38
20
1827.35
30
0
11
1334.38
21
1922.65
31
0
0
LINE
8
0
10
1334.38
20
1922.65
30
0
11
1314.23
21
1922.65
31
0
0
ARC
8
0
10
1314.23
20
1927.5
30
0
40
4.85
50
180
51
270
0
LINE
8
0
10
1309.38
20
1927.5
30
0
11
1309.38
21
1947.65
31
0
0
LINE
8
0
10
1309.38
20
1947.65
30
0
11
1294.38
21
1947.65
31
0
0
LINE
8
0
10
1294.38
20
1947.65
30
0
11
1294.38
21
1948.65
31
0
0
LINE
8
0
10
1294.38
20
1948.65
30
0
11
1291.94
21
1948.65
31
0
0
ENDSEC
0
EOF
