0
SECTION
2
HEADER
9
$ACADVER
1
AC1009
0
ENDSEC
0
SECTION
2
ENTITIES
0
LINE
8
0
10
36.55
20
1797.35
30
0
11
28.5
21
1792.7
31
0
0
LINE
8
0
10
28.5
20
1792.7
30
0
11
20.45
21
1797.35
31
0
0
LINE
8
0
10
20.45
20
1797.35
30
0
11
20.45
21
1806.65
31
0
0
LINE
8
0
10
20.45
20
1806.65
30
0
11
28.5
21
1811.3
31
0
0
LINE
8
0
10
28.5
20
1811.3
30
0
11
36.55
21
1806.65
31
0
0
LINE
8
0
10
36.55
20
1806.65
30
0
11
36.55
21
1797.35
31
0
0
LINE
8
0
10
45
20
1897.7
30
0
11
36.95
21
1902.35
31
0
0
LINE
8
0
10
36.95
20
1902.35
30
0
11
36.95
21
1911.65
31
0
0
LINE
8
0
10
36.95
20
1911.65
30
0
11
45
21
1916.3
31
0
0
LINE
8
0
10
45
20
1916.3
30
0
11
53.05
21
1911.65
31
0
0
LINE
8
0
10
53.05
20
1911.65
30
0
11
53.05
21
1902.35
31
0
0
LINE
8
0
10
53.05
20
1902.35
30
0
11
45
21
1897.7
31
0
0
LINE
8
0
10
42.67
20
1909.26
30
0
11
40.58
21
1911.35
31
0
0
ARC
8
0
10
45
20
1907
30
0
40
6.201524
50
135.457311
51
135
0
LINE
8
0
10
58.5
20
1847.25
30
0
11
53.55
21
1847.35
31
0
0
ARC
8
0
10
73.5
20
1847
30
0
40
19.95307
50
178.994914
51
270
0
LINE
8
0
10
73.5
20
1827.05
30
0
11
173.5
21
1827.05
31
0
0
ARC
8
0
10
173.5
20
1847
30
0
40
19.95
50
270
51
90
0
LINE
8
0
10
173.5
20
1866.95
30
0
11
73.5
21
1866.95
31
0
0
ARC
8
0
10
73.5
20
1847
30
0
40
19.95
50
90
51
177.011368
0
LINE
8
0
10
26.17
20
1804.26
30
0
11
24.08
21
1806.35
31
0
0
ARC
8
0
10
28.5
20
1802
30
0
40
6.201524
50
135.457311
51
135
0
LINE
8
0
10
250
20
1770.99
30
0
11
245.05
21
1770.99
31
0
0
LINE
8
0
10
245.05
20
1770.99
30
0
11
245.05
21
1777.05
31
0
0
LINE
8
0
10
245.05
20
1777.05
30
0
11
242.05
21
1777.05
31
0
0
LINE
8
0
10
242.05
20
1777.05
30
0
11
242.05
21
1916.95
31
0
0
LINE
8
0
10
242.05
20
1916.95
30
0
11
245.05
21
1916.95
31
0
0
LINE
8
0
10
245.05
20
1916.95
30
0
11
245.05
21
1927.05
31
0
0
LINE
8
0
10
245.05
20
1927.05
30
0
11
4.95
21
1927.05
31
0
0
LINE
8
0
10
4.95
20
1927.05
30
0
11
4.95
21
1766.95
31
0
0
LINE
8
0
10
4.95
20
1766.95
30
0
11
245.05
21
1766.95
31
0
0
LINE
8
0
10
245.05
20
1766.95
30
0
11
245.05
21
1770.29
31
0
0
ENDSEC
0
EOF
