0
SECTION
2
HEADER
9
$ACADVER
1
AC1009
0
ENDSEC
0
SECTION
2
ENTITIES
0
LINE
8
0
10
957.5
20
2264.02
30
0
11
964.5
21
2268.06
31
0
0
LINE
8
0
10
964.5
20
2268.06
30
0
11
964.5
21
2276.14
31
0
0
LINE
8
0
10
964.5
20
2276.14
30
0
11
957.5
21
2280.18
31
0
0
LINE
8
0
10
957.5
20
2280.18
30
0
11
950.5
21
2276.14
31
0
0
LINE
8
0
10
950.5
20
2276.14
30
0
11
950.5
21
2268.06
31
0
0
LINE
8
0
10
950.5
20
2268.06
30
0
11
957.5
21
2264.02
31
0
0
LINE
8
0
10
943.5
20
2300.52
30
0
11
950.5
21
2304.56
31
0
0
LINE
8
0
10
950.5
20
2304.56
30
0
11
950.5
21
2312.64
31
0
0
LINE
8
0
10
950.5
20
2312.64
30
0
11
943.5
21
2316.68
31
0
0
LINE
8
0
10
943.5
20
2316.68
30
0
11
936.5
21
2312.64
31
0
0
LINE
8
0
10
936.5
20
2312.64
30
0
11
936.5
21
2304.56
31
0
0
LINE
8
0
10
936.5
20
2304.56
30
0
11
943.5
21
2300.52
31
0
0
LINE
8
0
10
973.5
20
2360.52
30
0
11
980.5
21
2364.56
31
0
0
LINE
8
0
10
980.5
20
2364.56
30
0
11
980.5
21
2372.64
31
0
0
LINE
8
0
10
980.5
20
2372.64
30
0
11
973.5
21
2376.68
31
0
0
LINE
8
0
10
973.5
20
2376.68
30
0
11
966.5
21
2372.64
31
0
0
LINE
8
0
10
966.5
20
2372.64
30
0
11
966.5
21
2364.56
31
0
0
LINE
8
0
10
966.5
20
2364.56
30
0
11
973.5
21
2360.52
31
0
0
LINE
8
0
10
973.64
20
2368.81
30
0
11
977.14
21
2372.31
31
0
0
ARC
8
0
10
973.5
20
2368.6
30
0
40
5.197471
50
45.545658
51
45
0
LINE
8
0
10
943.64
20
2308.81
30
0
11
947.14
21
2312.31
31
0
0
ARC
8
0
10
943.5
20
2308.6
30
0
40
5.197471
50
45.545658
51
45
0
LINE
8
0
10
959.6
20
2290.65
30
0
11
963.55
21
2290.65
31
0
0
LINE
8
0
10
963.55
20
2290.65
30
0
11
963.55
21
2292.65
31
0
0
LINE
8
0
10
963.55
20
2292.65
30
0
11
953.45
21
2292.65
31
0
0
LINE
8
0
10
953.45
20
2292.65
30
0
11
953.45
21
2288.55
31
0
0
LINE
8
0
10
953.45
20
2288.55
30
0
11
963.55
21
2288.55
31
0
0
LINE
8
0
10
963.55
20
2288.55
30
0
11
963.55
21
2290.6
31
0
0
LINE
8
0
10
957.64
20
2272.31
30
0
11
961.14
21
2275.81
31
0
0
ARC
8
0
10
957.5
20
2272.1
30
0
40
5.197471
50
45.545658
51
45
0
LINE
8
0
10
979.5
20
2150.55
30
0
11
983.5
21
2150.55
31
0
0
LINE
8
0
10
983.5
20
2150.55
30
0
11
993.55
21
2150.55
31
0
0
LINE
8
0
10
993.55
20
2150.55
30
0
11
993.55
21
2162.6
31
0
0
ARC
8
0
10
998.5
20
2162.6
30
0
40
4.95
50
90
51
180
0
LINE
8
0
10
998.5
20
2167.55
30
0
11
1008.55
21
2167.55
31
0
0
LINE
8
0
10
1008.55
20
2167.55
30
0
11
1008.55
21
2373.65
31
0
0
LINE
8
0
10
1008.55
20
2373.65
30
0
11
998.5
21
2373.65
31
0
0
ARC
8
0
10
998.5
20
2378.6
30
0
40
4.95
50
180
51
270
0
LINE
8
0
10
993.55
20
2378.6
30
0
11
993.55
21
2388.65
31
0
0
LINE
8
0
10
993.55
20
2388.65
30
0
11
944.24
21
2388.65
31
0
0
ARC
8
0
10
944.24
20
2378.6
30
0
40
10.05
50
90
51
149.759982
0
LINE
8
0
10
935.56
20
2383.66
30
0
11
906.18
21
2333.3
31
0
0
ARC
8
0
10
923.5
20
2323.19
30
0
40
20.054787
50
149.727111
51
180
0
LINE
8
0
10
903.45
20
2323.19
30
0
11
903.45
21
2195.88
31
0
0
ARC
8
0
10
923.5
20
2195.88
30
0
40
20.05
50
180
51
224.97979
0
LINE
8
0
10
909.32
20
2181.71
30
0
11
932.61
21
2158.42
31
0
0
ARC
8
0
10
946.78
20
2172.6
30
0
40
20.046478
50
225.02021
51
270
0
LINE
8
0
10
946.78
20
2152.55
30
0
11
983.45
21
2152.55
31
0
0
LINE
8
0
10
983.45
20
2152.55
30
0
11
983.45
21
2150.6
31
0
0
ENDSEC
0
EOF
