0
SECTION
2
HEADER
9
$ACADVER
1
AC1009
0
ENDSEC
0
SECTION
2
ENTITIES
0
LINE
8
0
10
790.1
20
219.11
30
0
11
790.1
21
227.89
31
0
0
LINE
8
0
10
790.1
20
227.89
30
0
11
782.5
21
232.28
31
0
0
LINE
8
0
10
782.5
20
232.28
30
0
11
774.9
21
227.89
31
0
0
LINE
8
0
10
774.9
20
227.89
30
0
11
774.9
21
219.11
31
0
0
LINE
8
0
10
774.9
20
219.11
30
0
11
782.5
21
214.72
31
0
0
LINE
8
0
10
782.5
20
214.72
30
0
11
790.1
21
219.11
31
0
0
LINE
8
0
10
799
20
319.72
30
0
11
806.6
21
324.11
31
0
0
LINE
8
0
10
806.6
20
324.11
30
0
11
806.6
21
332.89
31
0
0
LINE
8
0
10
806.6
20
332.89
30
0
11
799
21
337.28
31
0
0
LINE
8
0
10
799
20
337.28
30
0
11
791.4
21
332.89
31
0
0
LINE
8
0
10
791.4
20
332.89
30
0
11
791.4
21
324.11
31
0
0
LINE
8
0
10
791.4
20
324.11
30
0
11
799
21
319.72
31
0
0
LINE
8
0
10
798.01
20
329.28
30
0
11
794.58
21
332.71
31
0
0
ARC
8
0
10
799
20
328.5
30
0
40
6.104138
50
136.393944
51
135
0
ARC
8
0
10
802.5
20
268.5
30
0
40
19.85
50
180
51
270
0
LINE
8
0
10
802.5
20
248.65
30
0
11
862.5
21
248.65
31
0
0
ARC
8
0
10
862.5
20
268.5
30
0
40
19.85
50
270
51
90
0
LINE
8
0
10
862.5
20
288.35
30
0
11
802.5
21
288.35
31
0
0
ARC
8
0
10
802.5
20
268.5
30
0
40
19.85
50
90
51
180
0
LINE
8
0
10
781.51
20
224.28
30
0
11
778.08
21
227.71
31
0
0
ARC
8
0
10
782.5
20
223.5
30
0
40
6.104138
50
136.393944
51
135
0
LINE
8
0
10
913
20
188.35
30
0
11
909
21
188.35
31
0
0
LINE
8
0
10
909
20
188.35
30
0
11
759.35
21
188.35
31
0
0
LINE
8
0
10
759.35
20
188.35
30
0
11
759.35
21
348.65
31
0
0
LINE
8
0
10
759.35
20
348.65
30
0
11
909.15
21
348.65
31
0
0
LINE
8
0
10
909.15
20
348.65
30
0
11
909.15
21
343.6
31
0
0
LINE
8
0
10
909.15
20
343.6
30
0
11
906.15
21
343.6
31
0
0
LINE
8
0
10
906.15
20
343.6
30
0
11
906.15
21
193.4
31
0
0
LINE
8
0
10
906.15
20
193.4
30
0
11
909.15
21
193.4
31
0
0
LINE
8
0
10
909.15
20
193.4
30
0
11
909.15
21
188.5
31
0
0
ENDSEC
0
EOF
