0
SECTION
2
HEADER
9
$ACADVER
1
AC1009
0
ENDSEC
0
SECTION
2
ENTITIES
0
LINE
8
0
10
660.74
20
235.75
30
0
11
662.32
21
238.5
31
0
0
LINE
8
0
10
662.32
20
238.5
30
0
11
668.68
21
238.5
31
0
0
LINE
8
0
10
668.68
20
238.5
30
0
11
671.85
21
233
31
0
0
LINE
8
0
10
671.85
20
233
30
0
11
668.68
21
227.5
31
0
0
LINE
8
0
10
668.68
20
227.5
30
0
11
662.32
21
227.5
31
0
0
LINE
8
0
10
662.32
20
227.5
30
0
11
659.15
21
233
31
0
0
LINE
8
0
10
659.15
20
233
30
0
11
660.74
21
235.75
31
0
0
LINE
8
0
10
630.74
20
235.75
30
0
11
632.32
21
238.5
31
0
0
LINE
8
0
10
632.32
20
238.5
30
0
11
638.68
21
238.5
31
0
0
LINE
8
0
10
638.68
20
238.5
30
0
11
641.85
21
233
31
0
0
LINE
8
0
10
641.85
20
233
30
0
11
638.68
21
227.5
31
0
0
LINE
8
0
10
638.68
20
227.5
30
0
11
632.32
21
227.5
31
0
0
LINE
8
0
10
632.32
20
227.5
30
0
11
629.15
21
233
31
0
0
LINE
8
0
10
629.15
20
233
30
0
11
630.74
21
235.75
31
0
0
ARC
8
0
10
645.5
20
190.5
30
0
40
14.85
50
90
51
180
0
LINE
8
0
10
630.65
20
190.5
30
0
11
630.65
21
90.5
31
0
0
ARC
8
0
10
645.5
20
90.5
30
0
40
14.85
50
180
51
0
0
LINE
8
0
10
660.35
20
90.5
30
0
11
660.35
21
190.5
31
0
0
ARC
8
0
10
645.5
20
190.5
30
0
40
14.85
50
0
51
90
0
LINE
8
0
10
630.74
20
35.75
30
0
11
632.32
21
38.5
31
0
0
LINE
8
0
10
632.32
20
38.5
30
0
11
638.68
21
38.5
31
0
0
LINE
8
0
10
638.68
20
38.5
30
0
11
641.85
21
33
31
0
0
LINE
8
0
10
641.85
20
33
30
0
11
638.68
21
27.5
31
0
0
LINE
8
0
10
638.68
20
27.5
30
0
11
632.32
21
27.5
31
0
0
LINE
8
0
10
632.32
20
27.5
30
0
11
629.15
21
33
31
0
0
LINE
8
0
10
629.15
20
33
30
0
11
630.74
21
35.75
31
0
0
LINE
8
0
10
660.74
20
35.75
30
0
11
662.32
21
38.5
31
0
0
LINE
8
0
10
662.32
20
38.5
30
0
11
668.68
21
38.5
31
0
0
LINE
8
0
10
668.68
20
38.5
30
0
11
671.85
21
33
31
0
0
LINE
8
0
10
671.85
20
33
30
0
11
668.68
21
27.5
31
0
0
LINE
8
0
10
668.68
20
27.5
30
0
11
662.32
21
27.5
31
0
0
LINE
8
0
10
662.32
20
27.5
30
0
11
659.15
21
33
31
0
0
LINE
8
0
10
659.15
20
33
30
0
11
660.74
21
35.75
31
0
0
LINE
8
0
10
714.7
20
15.35
30
0
11
710.7
21
15.35
31
0
0
LINE
8
0
10
710.7
20
15.35
30
0
11
629.5
21
15.35
31
0
0
ARC
8
0
10
629.5
20
20.5
30
0
40
5.15
50
180
51
270
0
LINE
8
0
10
624.35
20
20.5
30
0
11
624.35
21
43.5
31
0
0
ARC
8
0
10
619.5
20
43.5
30
0
40
4.85
50
0
51
90
0
LINE
8
0
10
619.5
20
48.35
30
0
11
603.35
21
48.35
31
0
0
LINE
8
0
10
603.35
20
48.35
30
0
11
603.35
21
52.55
31
0
0
LINE
8
0
10
603.35
20
52.55
30
0
11
606.18
21
52.55
31
0
0
ARC
8
0
10
606.5
20
52.4
30
0
40
0.353412
50
154.885165
51
115.114835
0
LINE
8
0
10
606.35
20
52.72
30
0
11
606.35
21
246.28
31
0
0
ARC
8
0
10
606.5
20
246.6
30
0
40
0.353412
50
244.885165
51
205.114835
0
LINE
8
0
10
606.18
20
246.45
30
0
11
603.35
21
246.45
31
0
0
LINE
8
0
10
603.35
20
246.45
30
0
11
603.35
21
250.65
31
0
0
LINE
8
0
10
603.35
20
250.65
30
0
11
710.85
21
250.65
31
0
0
LINE
8
0
10
710.85
20
250.65
30
0
11
710.85
21
15.5
31
0
0
ENDSEC
0
EOF
