0
SECTION
2
HEADER
9
$ACADVER
1
AC1009
0
ENDSEC
0
SECTION
2
ENTITIES
0
LINE
8
0
10
626
20
867.16
30
0
11
620.5
21
867.16
31
0
0
ARC
8
0
10
620.5
20
870.1
30
0
40
2.94
50
180
51
270
0
LINE
8
0
10
617.56
20
870.1
30
0
11
617.56
21
889.1
31
0
0
ARC
8
0
10
620.5
20
889.1
30
0
40
2.94
50
90
51
180
0
LINE
8
0
10
620.5
20
892.04
30
0
11
631.5
21
892.04
31
0
0
ARC
8
0
10
631.5
20
889.1
30
0
40
2.94
50
0
51
90
0
LINE
8
0
10
634.44
20
889.1
30
0
11
634.44
21
870.1
31
0
0
ARC
8
0
10
631.5
20
870.1
30
0
40
2.94
50
270
51
0
0
LINE
8
0
10
631.5
20
867.16
30
0
11
626
21
867.16
31
0
0
LINE
8
0
10
631.51
20
958.1
30
0
11
631.51
21
953.16
31
0
0
LINE
8
0
10
631.51
20
953.16
30
0
11
634.56
21
953.16
31
0
0
LINE
8
0
10
634.56
20
953.16
30
0
11
634.56
21
950.66
31
0
0
LINE
8
0
10
634.56
20
950.66
30
0
11
641.52
21
950.66
31
0
0
LINE
8
0
10
641.52
20
950.66
30
0
11
649.56
21
942.62
31
0
0
LINE
8
0
10
649.56
20
942.62
30
0
11
649.56
21
771.58
31
0
0
LINE
8
0
10
649.56
20
771.58
30
0
11
641.52
21
763.54
31
0
0
LINE
8
0
10
641.52
20
763.54
30
0
11
604.45
21
763.54
31
0
0
LINE
8
0
10
604.45
20
763.54
30
0
11
597.19
21
802.99
31
0
0
ARC
8
0
10
592.34
20
802.1
30
0
40
4.930984
50
10.398382
51
90
0
LINE
8
0
10
592.34
20
807.04
30
0
11
584.44
21
807.04
31
0
0
LINE
8
0
10
584.44
20
807.04
30
0
11
584.44
21
850.54
31
0
0
LINE
8
0
10
584.44
20
850.54
30
0
11
581.94
21
850.54
31
0
0
LINE
8
0
10
581.94
20
850.54
30
0
11
581.94
21
860.66
31
0
0
LINE
8
0
10
581.94
20
860.66
30
0
11
584.44
21
860.66
31
0
0
LINE
8
0
10
584.44
20
860.66
30
0
11
584.44
21
907.16
31
0
0
LINE
8
0
10
584.44
20
907.16
30
0
11
592.34
21
907.16
31
0
0
ARC
8
0
10
592.34
20
912.1
30
0
40
4.94
50
270
51
349.601618
0
LINE
8
0
10
597.19
20
911.21
30
0
11
604.45
21
950.66
31
0
0
LINE
8
0
10
604.45
20
950.66
30
0
11
624.44
21
950.66
31
0
0
LINE
8
0
10
624.44
20
950.66
30
0
11
624.44
21
953.16
31
0
0
LINE
8
0
10
624.44
20
953.16
30
0
11
630.7
21
953.16
31
0
0
ENDSEC
0
EOF
