0
SECTION
2
HEADER
9
$ACADVER
1
AC1009
0
ENDSEC
0
SECTION
2
ENTITIES
0
LINE
8
0
10
1162.41
20
897.5
30
0
11
1163.13
21
896.79
31
0
0
LINE
8
0
10
1163.13
20
896.79
30
0
11
1163.13
21
893.93
31
0
0
LINE
8
0
10
1163.13
20
893.93
30
0
11
1161.7
21
893.93
31
0
0
LINE
8
0
10
1161.7
20
893.93
30
0
11
1160.98
21
894.65
31
0
0
LINE
8
0
10
1160.98
20
894.65
30
0
11
1160.98
21
896.79
31
0
0
LINE
8
0
10
1160.98
20
896.79
30
0
11
1160.27
21
897.5
31
0
0
LINE
8
0
10
1160.27
20
897.5
30
0
11
1158.84
21
897.5
31
0
0
LINE
8
0
10
1158.84
20
897.5
30
0
11
1158.13
21
896.79
31
0
0
LINE
8
0
10
1158.13
20
896.79
30
0
11
1158.13
21
894.65
31
0
0
LINE
8
0
10
1158.13
20
894.65
30
0
11
1158.84
21
893.93
31
0
0
LINE
8
0
10
1158.13
20
897.95
30
0
11
1158.13
21
901.52
31
0
0
LINE
8
0
10
1158.13
20
901.52
30
0
11
1163.13
21
898.66
31
0
0
LINE
8
0
10
1160.98
20
898.66
30
0
11
1160.98
21
900.81
31
0
0
LINE
8
0
10
1160.98
20
901.97
30
0
11
1160.98
21
904.82
31
0
0
LINE
8
0
10
1160.98
20
904.82
30
0
11
1161.7
21
905.54
31
0
0
LINE
8
0
10
1161.7
20
905.54
30
0
11
1162.41
21
905.54
31
0
0
LINE
8
0
10
1162.41
20
905.54
30
0
11
1163.13
21
904.82
31
0
0
LINE
8
0
10
1163.13
20
904.82
30
0
11
1163.13
21
902.68
31
0
0
LINE
8
0
10
1163.13
20
902.68
30
0
11
1162.41
21
901.97
31
0
0
LINE
8
0
10
1162.41
20
901.97
30
0
11
1158.84
21
901.97
31
0
0
LINE
8
0
10
1158.84
20
901.97
30
0
11
1158.13
21
902.68
31
0
0
LINE
8
0
10
1158.13
20
902.68
30
0
11
1158.13
21
904.82
31
0
0
LINE
8
0
10
1158.64
20
905.99
30
0
11
1158.13
21
906.5
31
0
0
LINE
8
0
10
1158.13
20
906.5
30
0
11
1163.13
21
906.5
31
0
0
LINE
8
0
10
1163.13
20
905.99
30
0
11
1163.13
21
907.01
31
0
0
LINE
8
0
10
1160.98
20
907.46
30
0
11
1160.98
21
910.31
31
0
0
LINE
8
0
10
1160.98
20
910.31
30
0
11
1161.7
21
911.03
31
0
0
LINE
8
0
10
1161.7
20
911.03
30
0
11
1162.41
21
911.03
31
0
0
LINE
8
0
10
1162.41
20
911.03
30
0
11
1163.13
21
910.31
31
0
0
LINE
8
0
10
1163.13
20
910.31
30
0
11
1163.13
21
908.17
31
0
0
LINE
8
0
10
1163.13
20
908.17
30
0
11
1162.41
21
907.46
31
0
0
LINE
8
0
10
1162.41
20
907.46
30
0
11
1158.84
21
907.46
31
0
0
LINE
8
0
10
1158.84
20
907.46
30
0
11
1158.13
21
908.17
31
0
0
LINE
8
0
10
1158.13
20
908.17
30
0
11
1158.13
21
910.31
31
0
0
LINE
8
0
10
1197.16
20
889.38
30
0
11
1195.07
21
891.47
31
0
0
ARC
8
0
10
1198.61
20
888
30
0
40
4.957066
50
135.572121
51
135
0
LINE
8
0
10
1179.65
20
1000.08
30
0
11
1177.57
21
1002.17
31
0
0
ARC
8
0
10
1180.8
20
999
30
0
40
4.525682
50
135.537132
51
135
0
LINE
8
0
10
1161.8
20
875.43
30
0
11
1166.75
21
875.43
31
0
0
LINE
8
0
10
1166.75
20
875.43
30
0
11
1166.75
21
877.45
31
0
0
LINE
8
0
10
1166.75
20
877.45
30
0
11
1161.8
21
877.45
31
0
0
ARC
8
0
10
1161.8
20
882.5
30
0
40
5.05
50
180
51
270
0
LINE
8
0
10
1156.75
20
882.5
30
0
11
1156.75
21
926.5
31
0
0
ARC
8
0
10
1161.8
20
926.5
30
0
40
5.05
50
90
51
180
0
LINE
8
0
10
1161.8
20
931.55
30
0
11
1171.25
21
931.55
31
0
0
LINE
8
0
10
1171.25
20
931.55
30
0
11
1171.25
21
933.45
31
0
0
LINE
8
0
10
1171.25
20
933.45
30
0
11
1154
21
933.45
31
0
0
ARC
8
0
10
1154
20
938.5
30
0
40
5.05
50
180
51
270
0
LINE
8
0
10
1148.95
20
938.5
30
0
11
1148.95
21
1017
31
0
0
ARC
8
0
10
1154
20
1017
30
0
40
5.05
50
90
51
180
0
LINE
8
0
10
1154
20
1022.05
30
0
11
1170.75
21
1022.05
31
0
0
LINE
8
0
10
1170.75
20
1022.05
30
0
11
1170.75
21
1038.31
31
0
0
ARC
8
0
10
1175.8
20
1038.31
30
0
40
5.05
50
90
51
180
0
LINE
8
0
10
1175.8
20
1043.36
30
0
11
1183.8
21
1043.36
31
0
0
ARC
8
0
10
1183.8
20
1038.31
30
0
40
5.05
50
0
51
90
0
LINE
8
0
10
1188.85
20
1038.31
30
0
11
1188.85
21
903.95
31
0
0
LINE
8
0
10
1188.85
20
903.95
30
0
11
1184.85
21
903.95
31
0
0
LINE
8
0
10
1184.85
20
903.95
30
0
11
1184.85
21
902.05
31
0
0
LINE
8
0
10
1184.85
20
902.05
30
0
11
1202.11
21
902.05
31
0
0
ARC
8
0
10
1202.11
20
897
30
0
40
5.05
50
0
51
90
0
LINE
8
0
10
1207.16
20
897
30
0
11
1207.16
21
873.45
31
0
0
LINE
8
0
10
1207.16
20
873.45
30
0
11
1191.06
21
873.45
31
0
0
LINE
8
0
10
1191.06
20
873.45
30
0
11
1191.06
21
876.45
31
0
0
LINE
8
0
10
1191.06
20
876.45
30
0
11
1186.85
21
876.45
31
0
0
LINE
8
0
10
1186.85
20
876.45
30
0
11
1186.85
21
873.25
31
0
0
LINE
8
0
10
1186.85
20
873.25
30
0
11
1188.6
21
873.25
31
0
0
LINE
8
0
10
1188.6
20
873.25
30
0
11
1188.6
21
857.15
31
0
0
LINE
8
0
10
1188.6
20
857.15
30
0
11
1165.25
21
857.15
31
0
0
LINE
8
0
10
1165.25
20
857.15
30
0
11
1165.25
21
873.25
31
0
0
LINE
8
0
10
1165.25
20
873.25
30
0
11
1166.75
21
873.25
31
0
0
LINE
8
0
10
1166.75
20
873.25
30
0
11
1166.75
21
874.73
31
0
0
ENDSEC
0
EOF
