0
SECTION
2
HEADER
9
$ACADVER
1
AC1009
0
ENDSEC
0
SECTION
2
ENTITIES
0
LINE
8
0
10
1399.99
20
960.5
30
0
11
1403.75
21
967
31
0
0
LINE
8
0
10
1403.75
20
967
30
0
11
1411.25
21
967
31
0
0
LINE
8
0
10
1411.25
20
967
30
0
11
1415.01
21
960.5
31
0
0
LINE
8
0
10
1415.01
20
960.5
30
0
11
1411.25
21
954
31
0
0
LINE
8
0
10
1411.25
20
954
30
0
11
1403.75
21
954
31
0
0
LINE
8
0
10
1403.75
20
954
30
0
11
1399.99
21
960.5
31
0
0
LINE
8
0
10
1433.75
20
907
30
0
11
1441.25
21
907
31
0
0
LINE
8
0
10
1441.25
20
907
30
0
11
1445.01
21
900.5
31
0
0
LINE
8
0
10
1445.01
20
900.5
30
0
11
1441.25
21
894
31
0
0
LINE
8
0
10
1441.25
20
894
30
0
11
1433.75
21
894
31
0
0
LINE
8
0
10
1433.75
20
894
30
0
11
1429.99
21
900.5
31
0
0
LINE
8
0
10
1429.99
20
900.5
30
0
11
1433.75
21
907
31
0
0
LINE
8
0
10
1437.72
20
900.37
30
0
11
1441.21
21
896.87
31
0
0
ARC
8
0
10
1437.5
20
900.5
30
0
40
5.190472
50
315.624452
51
315
0
LINE
8
0
10
1423.42
20
932.27
30
0
11
1427.04
21
930.73
31
0
0
LINE
8
0
10
1427.04
20
930.73
30
0
11
1426.47
21
929.37
31
0
0
LINE
8
0
10
1426.47
20
929.37
30
0
11
1417.19
21
933.31
31
0
0
LINE
8
0
10
1417.19
20
933.31
30
0
11
1418.39
21
936.14
31
0
0
LINE
8
0
10
1418.39
20
936.14
30
0
11
1427.67
21
932.2
31
0
0
LINE
8
0
10
1427.67
20
932.2
30
0
11
1427.07
21
930.78
31
0
0
LINE
8
0
10
1407.72
20
960.37
30
0
11
1411.21
21
956.87
31
0
0
ARC
8
0
10
1407.5
20
960.5
30
0
40
5.190472
50
315.624452
51
315
0
LINE
8
0
10
1415.6
20
829.5
30
0
11
1415.6
21
834.44
31
0
0
LINE
8
0
10
1415.6
20
834.44
30
0
11
1417.56
21
834.44
31
0
0
LINE
8
0
10
1417.56
20
834.44
30
0
11
1417.56
21
835.44
31
0
0
LINE
8
0
10
1417.56
20
835.44
30
0
11
1443
21
835.44
31
0
0
LINE
8
0
10
1443
20
835.44
30
0
11
1463.67
21
884.13
31
0
0
LINE
8
0
10
1463.67
20
884.13
30
0
11
1460.82
21
885.35
31
0
0
LINE
8
0
10
1460.82
20
885.35
30
0
11
1464.87
21
894.9
31
0
0
LINE
8
0
10
1464.87
20
894.9
30
0
11
1467.72
21
893.69
31
0
0
LINE
8
0
10
1467.72
20
893.69
30
0
11
1472.73
21
905.48
31
0
0
ARC
8
0
10
1466.23
20
908.24
30
0
40
7.0617
50
336.993176
51
38.5584
0
LINE
8
0
10
1471.75
20
912.64
30
0
11
1417.53
21
980.56
31
0
0
LINE
8
0
10
1417.53
20
980.56
30
0
11
1387.44
21
980.56
31
0
0
LINE
8
0
10
1387.44
20
980.56
30
0
11
1387.44
21
960.5
31
0
0
ARC
8
0
10
1382.5
20
960.5
30
0
40
4.94
50
270
51
0
0
LINE
8
0
10
1382.5
20
955.56
30
0
11
1372.44
21
955.56
31
0
0
LINE
8
0
10
1372.44
20
955.56
30
0
11
1372.44
21
860.44
31
0
0
LINE
8
0
10
1372.44
20
860.44
30
0
11
1392.5
21
860.44
31
0
0
ARC
8
0
10
1392.5
20
855.5
30
0
40
4.94
50
0
51
90
0
LINE
8
0
10
1397.44
20
855.5
30
0
11
1397.44
21
835.44
31
0
0
LINE
8
0
10
1397.44
20
835.44
30
0
11
1412.44
21
835.44
31
0
0
LINE
8
0
10
1412.44
20
835.44
30
0
11
1412.44
21
834.44
31
0
0
LINE
8
0
10
1412.44
20
834.44
30
0
11
1414.79
21
834.44
31
0
0
ENDSEC
0
EOF
