0
SECTION
2
HEADER
9
$ACADVER
1
AC1009
0
ENDSEC
0
SECTION
2
ENTITIES
0
LINE
8
0
10
29
20
927.57
30
0
11
34.5
21
927.57
31
0
0
ARC
8
0
10
34.5
20
924.63
30
0
40
2.94
50
0
51
90
0
LINE
8
0
10
37.44
20
924.63
30
0
11
37.44
21
905.63
31
0
0
ARC
8
0
10
34.5
20
905.63
30
0
40
2.94
50
270
51
0
0
LINE
8
0
10
34.5
20
902.69
30
0
11
23.5
21
902.69
31
0
0
ARC
8
0
10
23.5
20
905.63
30
0
40
2.94
50
180
51
270
0
LINE
8
0
10
20.56
20
905.63
30
0
11
20.56
21
924.63
31
0
0
ARC
8
0
10
23.5
20
924.63
30
0
40
2.94
50
90
51
180
0
LINE
8
0
10
23.5
20
927.57
30
0
11
29
21
927.57
31
0
0
LINE
8
0
10
23.49
20
836.63
30
0
11
23.49
21
841.57
31
0
0
LINE
8
0
10
23.49
20
841.57
30
0
11
20.44
21
841.57
31
0
0
LINE
8
0
10
20.44
20
841.57
30
0
11
20.44
21
844.07
31
0
0
LINE
8
0
10
20.44
20
844.07
30
0
11
13.48
21
844.07
31
0
0
LINE
8
0
10
13.48
20
844.07
30
0
11
5.44
21
852.1
31
0
0
LINE
8
0
10
5.44
20
852.1
30
0
11
5.44
21
1023.15
31
0
0
LINE
8
0
10
5.44
20
1023.15
30
0
11
13.48
21
1031.19
31
0
0
LINE
8
0
10
13.48
20
1031.19
30
0
11
50.55
21
1031.19
31
0
0
LINE
8
0
10
50.55
20
1031.19
30
0
11
57.81
21
991.73
31
0
0
ARC
8
0
10
62.66
20
992.63
30
0
40
4.932798
50
190.512627
51
270
0
LINE
8
0
10
62.66
20
987.69
30
0
11
70.56
21
987.69
31
0
0
LINE
8
0
10
70.56
20
987.69
30
0
11
70.56
21
944.19
31
0
0
LINE
8
0
10
70.56
20
944.19
30
0
11
73.06
21
944.19
31
0
0
LINE
8
0
10
73.06
20
944.19
30
0
11
73.06
21
934.07
31
0
0
LINE
8
0
10
73.06
20
934.07
30
0
11
70.56
21
934.07
31
0
0
LINE
8
0
10
70.56
20
934.07
30
0
11
70.56
21
887.57
31
0
0
LINE
8
0
10
70.56
20
887.57
30
0
11
62.66
21
887.57
31
0
0
ARC
8
0
10
62.66
20
882.63
30
0
40
4.94
50
90
51
169.601618
0
LINE
8
0
10
57.81
20
883.52
30
0
11
50.55
21
844.07
31
0
0
LINE
8
0
10
50.55
20
844.07
30
0
11
30.56
21
844.07
31
0
0
LINE
8
0
10
30.56
20
844.07
30
0
11
30.56
21
841.57
31
0
0
LINE
8
0
10
30.56
20
841.57
30
0
11
24.3
21
841.57
31
0
0
ENDSEC
0
EOF
