0
SECTION
2
HEADER
9
$ACADVER
1
AC1009
0
ENDSEC
0
SECTION
2
ENTITIES
0
LINE
8
0
10
612.5
20
340.69
30
0
11
606
21
344.45
31
0
0
LINE
8
0
10
606
20
344.45
30
0
11
606
21
351.95
31
0
0
LINE
8
0
10
606
20
351.95
30
0
11
612.5
21
355.71
31
0
0
LINE
8
0
10
612.5
20
355.71
30
0
11
619
21
351.95
31
0
0
LINE
8
0
10
619
20
351.95
30
0
11
619
21
344.45
31
0
0
LINE
8
0
10
619
20
344.45
30
0
11
612.5
21
340.69
31
0
0
LINE
8
0
10
716
20
344.45
30
0
11
716
21
351.95
31
0
0
LINE
8
0
10
716
20
351.95
30
0
11
722.5
21
355.71
31
0
0
LINE
8
0
10
722.5
20
355.71
30
0
11
729
21
351.95
31
0
0
LINE
8
0
10
729
20
351.95
30
0
11
729
21
344.45
31
0
0
LINE
8
0
10
729
20
344.45
30
0
11
722.5
21
340.69
31
0
0
LINE
8
0
10
722.5
20
340.69
30
0
11
716
21
344.45
31
0
0
LINE
8
0
10
722.57
20
348.48
30
0
11
726
21
351.91
31
0
0
ARC
8
0
10
722.5
20
348.2
30
0
40
5.100402
50
46.668337
51
45
0
LINE
8
0
10
683.5
20
348.35
30
0
11
687.35
21
348.35
31
0
0
ARC
8
0
10
667.5
20
348.2
30
0
40
19.850567
50
0.432957
51
360
0
LINE
8
0
10
612.57
20
348.48
30
0
11
616
21
351.91
31
0
0
ARC
8
0
10
612.5
20
348.2
30
0
40
5.100402
50
46.668337
51
45
0
LINE
8
0
10
592.35
20
259.5
30
0
11
592.35
21
263.5
31
0
0
LINE
8
0
10
592.35
20
263.5
30
0
11
592.35
21
278.35
31
0
0
LINE
8
0
10
592.35
20
278.35
30
0
11
589.35
21
278.35
31
0
0
LINE
8
0
10
589.35
20
278.35
30
0
11
589.35
21
288.65
31
0
0
LINE
8
0
10
589.35
20
288.65
30
0
11
592.35
21
288.65
31
0
0
LINE
8
0
10
592.35
20
288.65
30
0
11
592.35
21
293.65
31
0
0
LINE
8
0
10
592.35
20
293.65
30
0
11
595.5
21
293.65
31
0
0
ARC
8
0
10
595.5
20
295.5
30
0
40
1.85
50
270
51
0
0
LINE
8
0
10
597.35
20
295.5
30
0
11
597.35
21
315.7
31
0
0
ARC
8
0
10
595.5
20
315.7
30
0
40
1.85
50
0
51
90
0
LINE
8
0
10
595.5
20
317.55
30
0
11
592.35
21
317.55
31
0
0
LINE
8
0
10
592.35
20
317.55
30
0
11
592.35
21
354.55
31
0
0
LINE
8
0
10
592.35
20
354.55
30
0
11
589.35
21
354.55
31
0
0
LINE
8
0
10
589.35
20
354.55
30
0
11
589.35
21
364.85
31
0
0
LINE
8
0
10
589.35
20
364.85
30
0
11
592.35
21
364.85
31
0
0
LINE
8
0
10
592.35
20
364.85
30
0
11
592.35
21
402.76
31
0
0
LINE
8
0
10
592.35
20
402.76
30
0
11
602.44
21
412.85
31
0
0
LINE
8
0
10
602.44
20
412.85
30
0
11
732.56
21
412.85
31
0
0
LINE
8
0
10
732.56
20
412.85
30
0
11
742.65
21
402.76
31
0
0
LINE
8
0
10
742.65
20
402.76
30
0
11
742.65
21
364.85
31
0
0
LINE
8
0
10
742.65
20
364.85
30
0
11
745.65
21
364.85
31
0
0
LINE
8
0
10
745.65
20
364.85
30
0
11
745.65
21
354.55
31
0
0
LINE
8
0
10
745.65
20
354.55
30
0
11
742.65
21
354.55
31
0
0
LINE
8
0
10
742.65
20
354.55
30
0
11
742.65
21
317.55
31
0
0
LINE
8
0
10
742.65
20
317.55
30
0
11
739.5
21
317.55
31
0
0
ARC
8
0
10
739.5
20
315.7
30
0
40
1.85
50
90
51
180
0
LINE
8
0
10
737.65
20
315.7
30
0
11
737.65
21
295.5
31
0
0
ARC
8
0
10
739.5
20
295.5
30
0
40
1.85
50
180
51
270
0
LINE
8
0
10
739.5
20
293.65
30
0
11
742.65
21
293.65
31
0
0
LINE
8
0
10
742.65
20
293.65
30
0
11
742.65
21
288.65
31
0
0
LINE
8
0
10
742.65
20
288.65
30
0
11
745.65
21
288.65
31
0
0
LINE
8
0
10
745.65
20
288.65
30
0
11
745.65
21
278.35
31
0
0
LINE
8
0
10
745.65
20
278.35
30
0
11
742.65
21
278.35
31
0
0
LINE
8
0
10
742.65
20
278.35
30
0
11
742.65
21
263.35
31
0
0
LINE
8
0
10
742.65
20
263.35
30
0
11
592.5
21
263.35
31
0
0
ENDSEC
0
EOF
