0
SECTION
2
HEADER
9
$ACADVER
1
AC1009
0
ENDSEC
0
SECTION
2
ENTITIES
0
LINE
8
0
10
1486
20
15.95
30
0
11
1482
21
15.95
31
0
0
LINE
8
0
10
1482
20
15.95
30
0
11
1477.05
21
15.95
31
0
0
LINE
8
0
10
1477.05
20
15.95
30
0
11
1477.05
21
13.5
31
0
0
ARC
8
0
10
1476.5
20
13.5
30
0
40
0.55
50
270
51
0
0
LINE
8
0
10
1476.5
20
12.95
30
0
11
1467.5
21
12.95
31
0
0
ARC
8
0
10
1467.5
20
13.5
30
0
40
0.55
50
180
51
270
0
LINE
8
0
10
1466.95
20
13.5
30
0
11
1466.95
21
15.95
31
0
0
LINE
8
0
10
1466.95
20
15.95
30
0
11
1456.95
21
15.95
31
0
0
ARC
8
0
10
1432
20
16
30
0
40
24.95005
50
359.885179
51
90.114821
0
LINE
8
0
10
1431.95
20
40.95
30
0
11
1431.95
21
86.05
31
0
0
LINE
8
0
10
1431.95
20
86.05
30
0
11
1442
21
86.05
31
0
0
ARC
8
0
10
1442
20
96
30
0
40
9.95
50
270
51
0
0
LINE
8
0
10
1451.95
20
96
30
0
11
1451.95
21
157.5
31
0
0
ARC
8
0
10
1442
20
157.5
30
0
40
9.95
50
0
51
90
0
LINE
8
0
10
1442
20
167.45
30
0
11
1431.95
21
167.45
31
0
0
LINE
8
0
10
1431.95
20
167.45
30
0
11
1431.95
21
212.55
31
0
0
LINE
8
0
10
1431.95
20
212.55
30
0
11
1442
21
212.55
31
0
0
ARC
8
0
10
1442
20
222.5
30
0
40
9.95
50
270
51
0
0
LINE
8
0
10
1451.95
20
222.5
30
0
11
1451.95
21
284
31
0
0
ARC
8
0
10
1442
20
284
30
0
40
9.95
50
0
51
90
0
LINE
8
0
10
1442
20
293.95
30
0
11
1431.95
21
293.95
31
0
0
LINE
8
0
10
1431.95
20
293.95
30
0
11
1431.95
21
298.95
31
0
0
LINE
8
0
10
1431.95
20
298.95
30
0
11
1430
21
298.95
31
0
0
ARC
8
0
10
1430
20
300
30
0
40
1.05
50
180
51
270
0
LINE
8
0
10
1428.95
20
300
30
0
11
1428.95
21
308
31
0
0
ARC
8
0
10
1430
20
308
30
0
40
1.05
50
90
51
180
0
LINE
8
0
10
1430
20
309.05
30
0
11
1431.95
21
309.05
31
0
0
LINE
8
0
10
1431.95
20
309.05
30
0
11
1431.95
21
339.05
31
0
0
ARC
8
0
10
1432
20
364
30
0
40
24.95005
50
269.885179
51
0.114821
0
LINE
8
0
10
1456.95
20
364.05
30
0
11
1482.02
21
364.05
31
0
0
LINE
8
0
10
1482.02
20
364.05
30
0
11
1487.05
21
359.02
31
0
0
LINE
8
0
10
1487.05
20
359.02
30
0
11
1487.05
21
20.98
31
0
0
LINE
8
0
10
1487.05
20
20.98
30
0
11
1482.04
21
15.96
31
0
0
ENDSEC
0
EOF
