0
SECTION
2
HEADER
9
$ACADVER
1
AC1009
0
ENDSEC
0
SECTION
2
ENTITIES
0
LINE
8
0
10
637.5
20
1659.75
30
0
11
644
21
1655.99
31
0
0
LINE
8
0
10
644
20
1655.99
30
0
11
650.5
21
1659.75
31
0
0
LINE
8
0
10
650.5
20
1659.75
30
0
11
650.5
21
1667.25
31
0
0
LINE
8
0
10
650.5
20
1667.25
30
0
11
644
21
1671.01
31
0
0
LINE
8
0
10
644
20
1671.01
30
0
11
637.5
21
1667.25
31
0
0
LINE
8
0
10
637.5
20
1667.25
30
0
11
637.5
21
1659.75
31
0
0
LINE
8
0
10
697.5
20
1637.25
30
0
11
697.5
21
1629.75
31
0
0
LINE
8
0
10
697.5
20
1629.75
30
0
11
704
21
1625.99
31
0
0
LINE
8
0
10
704
20
1625.99
30
0
11
710.5
21
1629.75
31
0
0
LINE
8
0
10
710.5
20
1629.75
30
0
11
710.5
21
1637.25
31
0
0
LINE
8
0
10
710.5
20
1637.25
30
0
11
704
21
1641.01
31
0
0
LINE
8
0
10
704
20
1641.01
30
0
11
697.5
21
1637.25
31
0
0
LINE
8
0
10
704.13
20
1633.72
30
0
11
707.63
21
1637.21
31
0
0
ARC
8
0
10
704
20
1633.5
30
0
40
5.190472
50
45.624452
51
45
0
LINE
8
0
10
676.23
20
1648.48
30
0
11
677.65
21
1649.08
31
0
0
LINE
8
0
10
677.65
20
1649.08
30
0
11
675.7
21
1653.67
31
0
0
LINE
8
0
10
675.7
20
1653.67
30
0
11
672.87
21
1652.47
31
0
0
LINE
8
0
10
672.87
20
1652.47
30
0
11
676.81
21
1643.19
31
0
0
LINE
8
0
10
676.81
20
1643.19
30
0
11
679.64
21
1644.39
31
0
0
LINE
8
0
10
679.64
20
1644.39
30
0
11
677.67
21
1649.03
31
0
0
LINE
8
0
10
644.13
20
1663.72
30
0
11
647.63
21
1667.21
31
0
0
ARC
8
0
10
644
20
1663.5
30
0
40
5.190472
50
45.624452
51
45
0
LINE
8
0
10
573
20
1641.8
30
0
11
577.94
21
1641.8
31
0
0
LINE
8
0
10
577.94
20
1641.8
30
0
11
577.94
21
1643.56
31
0
0
LINE
8
0
10
577.94
20
1643.56
30
0
11
578.94
21
1643.56
31
0
0
LINE
8
0
10
578.94
20
1643.56
30
0
11
578.94
21
1669
31
0
0
LINE
8
0
10
578.94
20
1669
30
0
11
627.63
21
1689.67
31
0
0
LINE
8
0
10
627.63
20
1689.67
30
0
11
628.85
21
1686.82
31
0
0
LINE
8
0
10
628.85
20
1686.82
30
0
11
638.4
21
1690.87
31
0
0
LINE
8
0
10
638.4
20
1690.87
30
0
11
637.19
21
1693.72
31
0
0
LINE
8
0
10
637.19
20
1693.72
30
0
11
648.98
21
1698.73
31
0
0
ARC
8
0
10
651.74
20
1692.23
30
0
40
7.0617
50
51.4416
51
113.006824
0
LINE
8
0
10
656.14
20
1697.75
30
0
11
724.06
21
1643.53
31
0
0
LINE
8
0
10
724.06
20
1643.53
30
0
11
724.06
21
1613.44
31
0
0
LINE
8
0
10
724.06
20
1613.44
30
0
11
704
21
1613.44
31
0
0
ARC
8
0
10
704
20
1608.5
30
0
40
4.94
50
90
51
180
0
LINE
8
0
10
699.06
20
1608.5
30
0
11
699.06
21
1598.44
31
0
0
LINE
8
0
10
699.06
20
1598.44
30
0
11
603.94
21
1598.44
31
0
0
LINE
8
0
10
603.94
20
1598.44
30
0
11
603.94
21
1618.5
31
0
0
ARC
8
0
10
599
20
1618.5
30
0
40
4.94
50
0
51
90
0
LINE
8
0
10
599
20
1623.44
30
0
11
578.94
21
1623.44
31
0
0
LINE
8
0
10
578.94
20
1623.44
30
0
11
578.94
21
1638.44
31
0
0
LINE
8
0
10
578.94
20
1638.44
30
0
11
577.94
21
1638.44
31
0
0
LINE
8
0
10
577.94
20
1638.44
30
0
11
577.94
21
1640.99
31
0
0
ENDSEC
0
EOF
