0
SECTION
2
HEADER
9
$ACADVER
1
AC1009
0
ENDSEC
0
SECTION
2
ENTITIES
0
LINE
8
0
10
914.51
20
811.5
30
0
11
910.75
21
805
31
0
0
LINE
8
0
10
910.75
20
805
30
0
11
903.25
21
805
31
0
0
LINE
8
0
10
903.25
20
805
30
0
11
899.49
21
811.5
31
0
0
LINE
8
0
10
899.49
20
811.5
30
0
11
903.25
21
818
31
0
0
LINE
8
0
10
903.25
20
818
30
0
11
910.75
21
818
31
0
0
LINE
8
0
10
910.75
20
818
30
0
11
914.51
21
811.5
31
0
0
LINE
8
0
10
910.75
20
915
30
0
11
903.25
21
915
31
0
0
LINE
8
0
10
903.25
20
915
30
0
11
899.49
21
921.5
31
0
0
LINE
8
0
10
899.49
20
921.5
30
0
11
903.25
21
928
31
0
0
LINE
8
0
10
903.25
20
928
30
0
11
910.75
21
928
31
0
0
LINE
8
0
10
910.75
20
928
30
0
11
914.51
21
921.5
31
0
0
LINE
8
0
10
914.51
20
921.5
30
0
11
910.75
21
915
31
0
0
LINE
8
0
10
906.78
20
921.63
30
0
11
903.29
21
925.13
31
0
0
ARC
8
0
10
907
20
921.5
30
0
40
5.190472
50
135.624452
51
135
0
LINE
8
0
10
906.94
20
882.5
30
0
11
906.94
21
886.44
31
0
0
ARC
8
0
10
907
20
866.5
30
0
40
19.94009
50
90.172404
51
90
0
LINE
8
0
10
906.78
20
811.63
30
0
11
903.29
21
815.13
31
0
0
ARC
8
0
10
907
20
811.5
30
0
40
5.190472
50
135.624452
51
135
0
LINE
8
0
10
995.7
20
791.44
30
0
11
991.7
21
791.44
31
0
0
LINE
8
0
10
991.7
20
791.44
30
0
11
976.76
21
791.44
31
0
0
LINE
8
0
10
976.76
20
791.44
30
0
11
976.76
21
788.44
31
0
0
LINE
8
0
10
976.76
20
788.44
30
0
11
966.64
21
788.44
31
0
0
LINE
8
0
10
966.64
20
788.44
30
0
11
966.64
21
791.44
31
0
0
LINE
8
0
10
966.64
20
791.44
30
0
11
961.64
21
791.44
31
0
0
LINE
8
0
10
961.64
20
791.44
30
0
11
961.64
21
794.5
31
0
0
ARC
8
0
10
959.7
20
794.5
30
0
40
1.94
50
0
51
90
0
LINE
8
0
10
959.7
20
796.44
30
0
11
939.5
21
796.44
31
0
0
ARC
8
0
10
939.5
20
794.5
30
0
40
1.94
50
90
51
180
0
LINE
8
0
10
937.56
20
794.5
30
0
11
937.56
21
791.44
31
0
0
LINE
8
0
10
937.56
20
791.44
30
0
11
900.56
21
791.44
31
0
0
LINE
8
0
10
900.56
20
791.44
30
0
11
900.56
21
788.44
31
0
0
LINE
8
0
10
900.56
20
788.44
30
0
11
890.44
21
788.44
31
0
0
LINE
8
0
10
890.44
20
788.44
30
0
11
890.44
21
791.44
31
0
0
LINE
8
0
10
890.44
20
791.44
30
0
11
852.48
21
791.44
31
0
0
LINE
8
0
10
852.48
20
791.44
30
0
11
842.44
21
801.48
31
0
0
LINE
8
0
10
842.44
20
801.48
30
0
11
842.44
21
931.52
31
0
0
LINE
8
0
10
842.44
20
931.52
30
0
11
852.48
21
941.56
31
0
0
LINE
8
0
10
852.48
20
941.56
30
0
11
890.44
21
941.56
31
0
0
LINE
8
0
10
890.44
20
941.56
30
0
11
890.44
21
944.56
31
0
0
LINE
8
0
10
890.44
20
944.56
30
0
11
900.56
21
944.56
31
0
0
LINE
8
0
10
900.56
20
944.56
30
0
11
900.56
21
941.56
31
0
0
LINE
8
0
10
900.56
20
941.56
30
0
11
937.56
21
941.56
31
0
0
LINE
8
0
10
937.56
20
941.56
30
0
11
937.56
21
938.5
31
0
0
ARC
8
0
10
939.5
20
938.5
30
0
40
1.94
50
180
51
270
0
LINE
8
0
10
939.5
20
936.56
30
0
11
959.7
21
936.56
31
0
0
ARC
8
0
10
959.7
20
938.5
30
0
40
1.94
50
270
51
0
0
LINE
8
0
10
961.64
20
938.5
30
0
11
961.64
21
941.56
31
0
0
LINE
8
0
10
961.64
20
941.56
30
0
11
966.64
21
941.56
31
0
0
LINE
8
0
10
966.64
20
941.56
30
0
11
966.64
21
944.56
31
0
0
LINE
8
0
10
966.64
20
944.56
30
0
11
976.76
21
944.56
31
0
0
LINE
8
0
10
976.76
20
944.56
30
0
11
976.76
21
941.56
31
0
0
LINE
8
0
10
976.76
20
941.56
30
0
11
991.76
21
941.56
31
0
0
LINE
8
0
10
991.76
20
941.56
30
0
11
991.76
21
791.5
31
0
0
ENDSEC
0
EOF
