0
SECTION
2
HEADER
9
$ACADVER
1
AC1009
0
ENDSEC
0
SECTION
2
ENTITIES
0
LINE
8
0
10
614.98
20
1698.03
30
0
11
618.74
21
1704.53
31
0
0
LINE
8
0
10
618.74
20
1704.53
30
0
11
614.98
21
1711.03
31
0
0
LINE
8
0
10
614.98
20
1711.03
30
0
11
607.48
21
1711.03
31
0
0
LINE
8
0
10
607.48
20
1711.03
30
0
11
603.72
21
1704.53
31
0
0
LINE
8
0
10
603.72
20
1704.53
30
0
11
607.48
21
1698.03
31
0
0
LINE
8
0
10
607.48
20
1698.03
30
0
11
614.98
21
1698.03
31
0
0
LINE
8
0
10
637.48
20
1758.03
30
0
11
644.98
21
1758.03
31
0
0
LINE
8
0
10
644.98
20
1758.03
30
0
11
648.74
21
1764.53
31
0
0
LINE
8
0
10
648.74
20
1764.53
30
0
11
644.98
21
1771.03
31
0
0
LINE
8
0
10
644.98
20
1771.03
30
0
11
637.48
21
1771.03
31
0
0
LINE
8
0
10
637.48
20
1771.03
30
0
11
633.72
21
1764.53
31
0
0
LINE
8
0
10
633.72
20
1764.53
30
0
11
637.48
21
1758.03
31
0
0
LINE
8
0
10
641.01
20
1764.66
30
0
11
637.52
21
1768.16
31
0
0
ARC
8
0
10
641.23
20
1764.53
30
0
40
5.190472
50
135.624452
51
135
0
LINE
8
0
10
626.25
20
1736.76
30
0
11
625.65
21
1738.18
31
0
0
LINE
8
0
10
625.65
20
1738.18
30
0
11
621.06
21
1736.23
31
0
0
LINE
8
0
10
621.06
20
1736.23
30
0
11
622.26
21
1733.39
31
0
0
LINE
8
0
10
622.26
20
1733.39
30
0
11
631.54
21
1737.33
31
0
0
LINE
8
0
10
631.54
20
1737.33
30
0
11
630.34
21
1740.17
31
0
0
LINE
8
0
10
630.34
20
1740.17
30
0
11
625.7
21
1738.2
31
0
0
LINE
8
0
10
611.01
20
1704.66
30
0
11
607.52
21
1708.16
31
0
0
ARC
8
0
10
611.23
20
1704.53
30
0
40
5.190472
50
135.624452
51
135
0
LINE
8
0
10
632.93
20
1633.53
30
0
11
632.93
21
1638.47
31
0
0
LINE
8
0
10
632.93
20
1638.47
30
0
11
631.17
21
1638.47
31
0
0
LINE
8
0
10
631.17
20
1638.47
30
0
11
631.17
21
1639.47
31
0
0
LINE
8
0
10
631.17
20
1639.47
30
0
11
605.73
21
1639.47
31
0
0
LINE
8
0
10
605.73
20
1639.47
30
0
11
585.06
21
1688.16
31
0
0
LINE
8
0
10
585.06
20
1688.16
30
0
11
587.91
21
1689.37
31
0
0
LINE
8
0
10
587.91
20
1689.37
30
0
11
583.86
21
1698.93
31
0
0
LINE
8
0
10
583.86
20
1698.93
30
0
11
581.01
21
1697.72
31
0
0
LINE
8
0
10
581.01
20
1697.72
30
0
11
576
21
1709.51
31
0
0
ARC
8
0
10
582.5
20
1712.26
30
0
40
7.057797
50
141.378186
51
202.9321
0
LINE
8
0
10
576.98
20
1716.67
30
0
11
631.2
21
1784.59
31
0
0
LINE
8
0
10
631.2
20
1784.59
30
0
11
661.29
21
1784.59
31
0
0
LINE
8
0
10
661.29
20
1784.59
30
0
11
661.29
21
1764.53
31
0
0
ARC
8
0
10
666.23
20
1764.53
30
0
40
4.94
50
180
51
270
0
LINE
8
0
10
666.23
20
1759.59
30
0
11
676.29
21
1759.59
31
0
0
LINE
8
0
10
676.29
20
1759.59
30
0
11
676.29
21
1664.47
31
0
0
LINE
8
0
10
676.29
20
1664.47
30
0
11
656.23
21
1664.47
31
0
0
ARC
8
0
10
656.23
20
1659.53
30
0
40
4.94
50
90
51
180
0
LINE
8
0
10
651.29
20
1659.53
30
0
11
651.29
21
1639.47
31
0
0
LINE
8
0
10
651.29
20
1639.47
30
0
11
636.29
21
1639.47
31
0
0
LINE
8
0
10
636.29
20
1639.47
30
0
11
636.29
21
1638.47
31
0
0
LINE
8
0
10
636.29
20
1638.47
30
0
11
633.74
21
1638.47
31
0
0
ENDSEC
0
EOF
