0
SECTION
2
HEADER
9
$ACADVER
1
AC1009
0
ENDSEC
0
SECTION
2
ENTITIES
0
LINE
8
0
10
343.63
20
1292.02
30
0
11
345.71
21
1289.94
31
0
0
ARC
8
0
10
342
20
1293.58
30
0
40
5.197471
50
315.545658
51
315
0
LINE
8
0
10
393.63
20
1292.02
30
0
11
395.71
21
1289.94
31
0
0
ARC
8
0
10
392
20
1293.58
30
0
40
5.197471
50
315.545658
51
315
0
LINE
8
0
10
393.63
20
1424.02
30
0
11
395.71
21
1421.94
31
0
0
ARC
8
0
10
392
20
1425.58
30
0
40
5.197471
50
315.545658
51
315
0
LINE
8
0
10
343.63
20
1424.02
30
0
11
345.71
21
1421.94
31
0
0
ARC
8
0
10
342
20
1425.58
30
0
40
5.197471
50
315.545658
51
315
0
LINE
8
0
10
365.82
20
1486.18
30
0
11
365.82
21
1481.23
31
0
0
LINE
8
0
10
365.82
20
1481.23
30
0
11
365.1
21
1481.23
31
0
0
ARC
8
0
10
365.1
20
1480.18
30
0
40
1.05
50
90
51
180
0
LINE
8
0
10
364.05
20
1480.18
30
0
11
364.05
21
1478.13
31
0
0
LINE
8
0
10
364.05
20
1478.13
30
0
11
330
21
1478.13
31
0
0
ARC
8
0
10
330
20
1470.08
30
0
40
8.05
50
90
51
180
0
LINE
8
0
10
321.95
20
1470.08
30
0
11
321.95
21
1397.55
31
0
0
ARC
8
0
10
330
20
1397.55
30
0
40
8.05
50
180
51
266.441412
0
ARC
8
0
10
329
20
1381.58
30
0
40
7.945747
50
0
51
86.392179
0
LINE
8
0
10
336.95
20
1381.58
30
0
11
336.95
21
1337.55
31
0
0
ARC
8
0
10
329
20
1337.55
30
0
40
7.95
50
273.603289
51
0
0
ARC
8
0
10
330
20
1321.58
30
0
40
8.045552
50
93.563008
51
180
0
LINE
8
0
10
321.95
20
1321.58
30
0
11
321.95
21
1249.08
31
0
0
ARC
8
0
10
330
20
1249.08
30
0
40
8.05
50
180
51
270
0
LINE
8
0
10
330
20
1241.03
30
0
11
364.05
21
1241.03
31
0
0
LINE
8
0
10
364.05
20
1241.03
30
0
11
364.05
21
1238.98
31
0
0
ARC
8
0
10
365.1
20
1238.98
30
0
40
1.05
50
180
51
270
0
LINE
8
0
10
365.1
20
1237.93
30
0
11
368.9
21
1237.93
31
0
0
ARC
8
0
10
368.9
20
1238.98
30
0
40
1.05
50
270
51
0
0
LINE
8
0
10
369.95
20
1238.98
30
0
11
369.95
21
1241.03
31
0
0
LINE
8
0
10
369.95
20
1241.03
30
0
11
404
21
1241.03
31
0
0
ARC
8
0
10
404
20
1249.08
30
0
40
8.05
50
270
51
0
0
LINE
8
0
10
412.05
20
1249.08
30
0
11
412.05
21
1321.61
31
0
0
ARC
8
0
10
404
20
1321.61
30
0
40
8.05
50
0
51
86.436992
0
ARC
8
0
10
405
20
1337.58
30
0
40
7.955727
50
180
51
266.396711
0
LINE
8
0
10
397.05
20
1337.58
30
0
11
397.05
21
1381.58
31
0
0
ARC
8
0
10
405
20
1381.58
30
0
40
7.95
50
93.607821
51
180
0
ARC
8
0
10
404
20
1397.55
30
0
40
8.055532
50
273.558588
51
0
0
LINE
8
0
10
412.05
20
1397.55
30
0
11
412.05
21
1470.08
31
0
0
ARC
8
0
10
404
20
1470.08
30
0
40
8.05
50
0
51
90
0
LINE
8
0
10
404
20
1478.13
30
0
11
369.95
21
1478.13
31
0
0
LINE
8
0
10
369.95
20
1478.13
30
0
11
369.95
21
1480.18
31
0
0
ARC
8
0
10
368.9
20
1480.18
30
0
40
1.05
50
0
51
90
0
LINE
8
0
10
368.9
20
1481.23
30
0
11
366.52
21
1481.23
31
0
0
ENDSEC
0
EOF
