0
SECTION
2
HEADER
9
$ACADVER
1
AC1009
0
ENDSEC
0
SECTION
2
ENTITIES
0
LINE
8
0
10
125.9
20
939.89
30
0
11
125.9
21
931.11
31
0
0
LINE
8
0
10
125.9
20
931.11
30
0
11
133.5
21
926.72
31
0
0
LINE
8
0
10
133.5
20
926.72
30
0
11
141.1
21
931.11
31
0
0
LINE
8
0
10
141.1
20
931.11
30
0
11
141.1
21
939.89
31
0
0
LINE
8
0
10
141.1
20
939.89
30
0
11
133.5
21
944.28
31
0
0
LINE
8
0
10
133.5
20
944.28
30
0
11
125.9
21
939.89
31
0
0
LINE
8
0
10
117
20
839.28
30
0
11
109.4
21
834.89
31
0
0
LINE
8
0
10
109.4
20
834.89
30
0
11
109.4
21
826.11
31
0
0
LINE
8
0
10
109.4
20
826.11
30
0
11
117
21
821.72
31
0
0
LINE
8
0
10
117
20
821.72
30
0
11
124.6
21
826.11
31
0
0
LINE
8
0
10
124.6
20
826.11
30
0
11
124.6
21
834.89
31
0
0
LINE
8
0
10
124.6
20
834.89
30
0
11
117
21
839.28
31
0
0
LINE
8
0
10
117.93
20
829.66
30
0
11
121.42
21
826.17
31
0
0
ARC
8
0
10
117
20
830.5
30
0
40
6.187512
50
315.589307
51
315
0
ARC
8
0
10
113.5
20
890.5
30
0
40
19.94
50
0
51
90
0
LINE
8
0
10
113.5
20
910.44
30
0
11
53.5
21
910.44
31
0
0
ARC
8
0
10
53.5
20
890.5
30
0
40
19.94
50
90
51
270
0
LINE
8
0
10
53.5
20
870.56
30
0
11
113.5
21
870.56
31
0
0
ARC
8
0
10
113.5
20
890.5
30
0
40
19.94
50
270
51
0
0
LINE
8
0
10
134.43
20
934.66
30
0
11
137.92
21
931.17
31
0
0
ARC
8
0
10
133.5
20
935.5
30
0
40
6.187512
50
315.589307
51
315
0
LINE
8
0
10
3
20
970.56
30
0
11
7
21
970.56
31
0
0
LINE
8
0
10
7
20
970.56
30
0
11
156.56
21
970.56
31
0
0
LINE
8
0
10
156.56
20
970.56
30
0
11
156.56
21
810.44
31
0
0
LINE
8
0
10
156.56
20
810.44
30
0
11
6.94
21
810.44
31
0
0
LINE
8
0
10
6.94
20
810.44
30
0
11
6.94
21
815.31
31
0
0
LINE
8
0
10
6.94
20
815.31
30
0
11
9.94
21
815.31
31
0
0
LINE
8
0
10
9.94
20
815.31
30
0
11
9.94
21
965.69
31
0
0
LINE
8
0
10
9.94
20
965.69
30
0
11
6.94
21
965.69
31
0
0
LINE
8
0
10
6.94
20
965.69
30
0
11
6.94
21
970.5
31
0
0
ENDSEC
0
EOF
