0
SECTION
2
HEADER
9
$ACADVER
1
AC1009
0
ENDSEC
0
SECTION
2
ENTITIES
0
LINE
8
0
10
33
20
1871.19
30
0
11
26.5
21
1874.95
31
0
0
LINE
8
0
10
26.5
20
1874.95
30
0
11
26.5
21
1882.45
31
0
0
LINE
8
0
10
26.5
20
1882.45
30
0
11
33
21
1886.21
31
0
0
LINE
8
0
10
33
20
1886.21
30
0
11
39.5
21
1882.45
31
0
0
LINE
8
0
10
39.5
20
1882.45
30
0
11
39.5
21
1874.95
31
0
0
LINE
8
0
10
39.5
20
1874.95
30
0
11
33
21
1871.19
31
0
0
LINE
8
0
10
136.5
20
1874.95
30
0
11
136.5
21
1882.45
31
0
0
LINE
8
0
10
136.5
20
1882.45
30
0
11
143
21
1886.21
31
0
0
LINE
8
0
10
143
20
1886.21
30
0
11
149.5
21
1882.45
31
0
0
LINE
8
0
10
149.5
20
1882.45
30
0
11
149.5
21
1874.95
31
0
0
LINE
8
0
10
149.5
20
1874.95
30
0
11
143
21
1871.19
31
0
0
LINE
8
0
10
143
20
1871.19
30
0
11
136.5
21
1874.95
31
0
0
LINE
8
0
10
143.13
20
1878.92
30
0
11
146.63
21
1882.41
31
0
0
ARC
8
0
10
143
20
1878.7
30
0
40
5.190472
50
45.624452
51
45
0
LINE
8
0
10
104
20
1878.76
30
0
11
107.94
21
1878.76
31
0
0
ARC
8
0
10
88
20
1878.7
30
0
40
19.94009
50
0.172404
51
0
0
LINE
8
0
10
33.13
20
1878.92
30
0
11
36.63
21
1882.41
31
0
0
ARC
8
0
10
33
20
1878.7
30
0
40
5.190472
50
45.624452
51
45
0
LINE
8
0
10
12.94
20
1790
30
0
11
12.94
21
1794
31
0
0
LINE
8
0
10
12.94
20
1794
30
0
11
12.94
21
1808.94
31
0
0
LINE
8
0
10
12.94
20
1808.94
30
0
11
9.94
21
1808.94
31
0
0
LINE
8
0
10
9.94
20
1808.94
30
0
11
9.94
21
1819.06
31
0
0
LINE
8
0
10
9.94
20
1819.06
30
0
11
12.94
21
1819.06
31
0
0
LINE
8
0
10
12.94
20
1819.06
30
0
11
12.94
21
1824.06
31
0
0
LINE
8
0
10
12.94
20
1824.06
30
0
11
16
21
1824.06
31
0
0
ARC
8
0
10
16
20
1826
30
0
40
1.94
50
270
51
0
0
LINE
8
0
10
17.94
20
1826
30
0
11
17.94
21
1846.2
31
0
0
ARC
8
0
10
16
20
1846.2
30
0
40
1.94
50
0
51
90
0
LINE
8
0
10
16
20
1848.14
30
0
11
12.94
21
1848.14
31
0
0
LINE
8
0
10
12.94
20
1848.14
30
0
11
12.94
21
1885.14
31
0
0
LINE
8
0
10
12.94
20
1885.14
30
0
11
9.94
21
1885.14
31
0
0
LINE
8
0
10
9.94
20
1885.14
30
0
11
9.94
21
1895.26
31
0
0
LINE
8
0
10
9.94
20
1895.26
30
0
11
12.94
21
1895.26
31
0
0
LINE
8
0
10
12.94
20
1895.26
30
0
11
12.94
21
1933.22
31
0
0
LINE
8
0
10
12.94
20
1933.22
30
0
11
22.98
21
1943.26
31
0
0
LINE
8
0
10
22.98
20
1943.26
30
0
11
153.02
21
1943.26
31
0
0
LINE
8
0
10
153.02
20
1943.26
30
0
11
163.06
21
1933.22
31
0
0
LINE
8
0
10
163.06
20
1933.22
30
0
11
163.06
21
1895.26
31
0
0
LINE
8
0
10
163.06
20
1895.26
30
0
11
166.06
21
1895.26
31
0
0
LINE
8
0
10
166.06
20
1895.26
30
0
11
166.06
21
1885.14
31
0
0
LINE
8
0
10
166.06
20
1885.14
30
0
11
163.06
21
1885.14
31
0
0
LINE
8
0
10
163.06
20
1885.14
30
0
11
163.06
21
1848.14
31
0
0
LINE
8
0
10
163.06
20
1848.14
30
0
11
160
21
1848.14
31
0
0
ARC
8
0
10
160
20
1846.2
30
0
40
1.94
50
90
51
180
0
LINE
8
0
10
158.06
20
1846.2
30
0
11
158.06
21
1826
31
0
0
ARC
8
0
10
160
20
1826
30
0
40
1.94
50
180
51
270
0
LINE
8
0
10
160
20
1824.06
30
0
11
163.06
21
1824.06
31
0
0
LINE
8
0
10
163.06
20
1824.06
30
0
11
163.06
21
1819.06
31
0
0
LINE
8
0
10
163.06
20
1819.06
30
0
11
166.06
21
1819.06
31
0
0
LINE
8
0
10
166.06
20
1819.06
30
0
11
166.06
21
1808.94
31
0
0
LINE
8
0
10
166.06
20
1808.94
30
0
11
163.06
21
1808.94
31
0
0
LINE
8
0
10
163.06
20
1808.94
30
0
11
163.06
21
1793.94
31
0
0
LINE
8
0
10
163.06
20
1793.94
30
0
11
13
21
1793.94
31
0
0
ENDSEC
0
EOF
