0
SECTION
2
HEADER
9
$ACADVER
1
AC1009
0
ENDSEC
0
SECTION
2
ENTITIES
0
LINE
8
0
10
583.1
20
1789.3
30
0
11
584.53
21
1789.3
31
0
0
LINE
8
0
10
584.53
20
1792.88
30
0
11
588.1
21
1791.09
31
0
0
LINE
8
0
10
588.1
20
1791.09
30
0
11
584.53
21
1789.3
31
0
0
LINE
8
0
10
584.53
20
1789.3
30
0
11
584.53
21
1792.88
31
0
0
LINE
8
0
10
583.1
20
1792.88
30
0
11
584.53
21
1792.88
31
0
0
LINE
8
0
10
585.25
20
1794.04
30
0
11
585.25
21
1796.89
31
0
0
LINE
8
0
10
583.1
20
1796.89
30
0
11
588.1
21
1796.89
31
0
0
LINE
8
0
10
588.1
20
1796.89
30
0
11
588.1
21
1794.04
31
0
0
LINE
8
0
10
588.1
20
1794.04
30
0
11
587.39
21
1793.32
31
0
0
LINE
8
0
10
587.39
20
1793.32
30
0
11
585.96
21
1793.32
31
0
0
LINE
8
0
10
585.96
20
1793.32
30
0
11
585.25
21
1794.04
31
0
0
LINE
8
0
10
585.25
20
1794.04
30
0
11
584.53
21
1793.32
31
0
0
LINE
8
0
10
584.53
20
1793.32
30
0
11
583.82
21
1793.32
31
0
0
LINE
8
0
10
583.82
20
1793.32
30
0
11
583.1
21
1794.04
31
0
0
LINE
8
0
10
583.1
20
1794.04
30
0
11
583.1
21
1796.89
31
0
0
LINE
8
0
10
583.1
20
1797.34
30
0
11
583.1
21
1798.77
31
0
0
LINE
8
0
10
583.1
20
1799.21
30
0
11
585.25
21
1801.36
31
0
0
LINE
8
0
10
585.25
20
1802.79
30
0
11
585.25
21
1799.93
31
0
0
LINE
8
0
10
585.25
20
1799.93
30
0
11
585.96
21
1799.21
31
0
0
LINE
8
0
10
585.96
20
1799.21
30
0
11
587.39
21
1799.21
31
0
0
LINE
8
0
10
587.39
20
1799.21
30
0
11
588.1
21
1799.93
31
0
0
LINE
8
0
10
588.1
20
1799.93
30
0
11
588.1
21
1802.79
31
0
0
LINE
8
0
10
588.1
20
1802.79
30
0
11
583.1
21
1802.79
31
0
0
LINE
8
0
10
583.1
20
1803.23
30
0
11
585.25
21
1805.38
31
0
0
LINE
8
0
10
585.25
20
1806.8
30
0
11
585.25
21
1803.95
31
0
0
LINE
8
0
10
585.25
20
1803.95
30
0
11
585.96
21
1803.23
31
0
0
LINE
8
0
10
585.96
20
1803.23
30
0
11
587.39
21
1803.23
31
0
0
LINE
8
0
10
587.39
20
1803.23
30
0
11
588.1
21
1803.95
31
0
0
LINE
8
0
10
588.1
20
1803.95
30
0
11
588.1
21
1806.8
31
0
0
LINE
8
0
10
588.1
20
1806.8
30
0
11
583.1
21
1806.8
31
0
0
LINE
8
0
10
583.1
20
1807.25
30
0
11
584.53
21
1807.25
31
0
0
LINE
8
0
10
584.53
20
1810.82
30
0
11
588.1
21
1809.04
31
0
0
LINE
8
0
10
588.1
20
1809.04
30
0
11
584.53
21
1807.25
31
0
0
LINE
8
0
10
584.53
20
1807.25
30
0
11
584.53
21
1810.82
31
0
0
LINE
8
0
10
583.1
20
1810.82
30
0
11
584.53
21
1810.82
31
0
0
LINE
8
0
10
583.1
20
1798.05
30
0
11
588.1
21
1798.05
31
0
0
LINE
8
0
10
588.1
20
1797.34
30
0
11
588.1
21
1798.77
31
0
0
LINE
8
0
10
614.35
20
1768.46
30
0
11
616.14
21
1772.03
31
0
0
LINE
8
0
10
616.14
20
1772.03
30
0
11
617.92
21
1768.46
31
0
0
LINE
8
0
10
617.92
20
1768.46
30
0
11
614.35
21
1768.46
31
0
0
LINE
8
0
10
614.35
20
1768.46
30
0
11
614.35
21
1767.03
31
0
0
LINE
8
0
10
617.92
20
1767.03
30
0
11
617.92
21
1768.46
31
0
0
LINE
8
0
10
618.37
20
1768.46
30
0
11
620.16
21
1772.03
31
0
0
LINE
8
0
10
620.16
20
1772.03
30
0
11
621.94
21
1768.46
31
0
0
LINE
8
0
10
621.94
20
1768.46
30
0
11
618.37
21
1768.46
31
0
0
LINE
8
0
10
618.37
20
1768.46
30
0
11
618.37
21
1767.03
31
0
0
LINE
8
0
10
621.94
20
1767.03
30
0
11
621.94
21
1768.46
31
0
0
LINE
8
0
10
622.39
20
1771.31
30
0
11
623.1
21
1772.03
31
0
0
LINE
8
0
10
623.1
20
1772.03
30
0
11
625.24
21
1772.03
31
0
0
LINE
8
0
10
625.24
20
1772.03
30
0
11
625.96
21
1771.31
31
0
0
LINE
8
0
10
625.96
20
1771.31
30
0
11
625.96
21
1769.89
31
0
0
LINE
8
0
10
625.96
20
1769.89
30
0
11
625.24
21
1769.17
31
0
0
LINE
8
0
10
625.24
20
1769.17
30
0
11
623.1
21
1769.17
31
0
0
LINE
8
0
10
623.1
20
1769.17
30
0
11
622.39
21
1768.46
31
0
0
LINE
8
0
10
622.39
20
1768.46
30
0
11
622.39
21
1767.03
31
0
0
LINE
8
0
10
622.39
20
1767.03
30
0
11
625.24
21
1767.03
31
0
0
LINE
8
0
10
625.24
20
1767.03
30
0
11
625.96
21
1767.74
31
0
0
LINE
8
0
10
629.26
20
1767.03
30
0
11
629.26
21
1769.17
31
0
0
LINE
8
0
10
629.98
20
1768.46
30
0
11
626.41
21
1768.46
31
0
0
LINE
8
0
10
626.41
20
1768.46
30
0
11
629.26
21
1772.03
31
0
0
ARC
8
0
10
452.05
20
1788.48
30
0
40
7.45
50
180
51
270
0
LINE
8
0
10
444.6
20
1788.48
30
0
11
444.6
21
1813.48
31
0
0
ARC
8
0
10
452.05
20
1813.48
30
0
40
7.45
50
0
51
180
0
LINE
8
0
10
459.5
20
1813.48
30
0
11
459.5
21
1788.48
31
0
0
ARC
8
0
10
452.05
20
1788.48
30
0
40
7.45
50
270
51
0
0
LINE
8
0
10
265.55
20
1843.48
30
0
11
265.55
21
1838.48
31
0
0
LINE
8
0
10
265.55
20
1838.48
30
0
11
265.55
21
1763.43
31
0
0
LINE
8
0
10
265.55
20
1763.43
30
0
11
635.25
21
1763.43
31
0
0
LINE
8
0
10
635.25
20
1763.43
30
0
11
635.25
21
1838.53
31
0
0
LINE
8
0
10
635.25
20
1838.53
30
0
11
266.25
21
1838.53
31
0
0
ENDSEC
0
EOF
