0
SECTION
2
HEADER
9
$ACADVER
1
AC1009
0
ENDSEC
0
SECTION
2
ENTITIES
0
LINE
8
0
10
948
20
1034.97
30
0
11
953.5
21
1034.97
31
0
0
ARC
8
0
10
953.5
20
1032.03
30
0
40
2.94
50
0
51
90
0
LINE
8
0
10
956.44
20
1032.03
30
0
11
956.44
21
1013.03
31
0
0
ARC
8
0
10
953.5
20
1013.03
30
0
40
2.94
50
270
51
0
0
LINE
8
0
10
953.5
20
1010.09
30
0
11
942.5
21
1010.09
31
0
0
ARC
8
0
10
942.5
20
1013.03
30
0
40
2.94
50
180
51
270
0
LINE
8
0
10
939.56
20
1013.03
30
0
11
939.56
21
1032.03
31
0
0
ARC
8
0
10
942.5
20
1032.03
30
0
40
2.94
50
90
51
180
0
LINE
8
0
10
942.5
20
1034.97
30
0
11
948
21
1034.97
31
0
0
LINE
8
0
10
942.49
20
944.03
30
0
11
942.49
21
948.97
31
0
0
LINE
8
0
10
942.49
20
948.97
30
0
11
939.44
21
948.97
31
0
0
LINE
8
0
10
939.44
20
948.97
30
0
11
939.44
21
951.47
31
0
0
LINE
8
0
10
939.44
20
951.47
30
0
11
932.48
21
951.47
31
0
0
LINE
8
0
10
932.48
20
951.47
30
0
11
924.44
21
959.5
31
0
0
LINE
8
0
10
924.44
20
959.5
30
0
11
924.44
21
1130.55
31
0
0
LINE
8
0
10
924.44
20
1130.55
30
0
11
932.48
21
1138.59
31
0
0
LINE
8
0
10
932.48
20
1138.59
30
0
11
969.55
21
1138.59
31
0
0
LINE
8
0
10
969.55
20
1138.59
30
0
11
976.81
21
1099.13
31
0
0
ARC
8
0
10
981.66
20
1100.03
30
0
40
4.932798
50
190.512627
51
270
0
LINE
8
0
10
981.66
20
1095.09
30
0
11
989.56
21
1095.09
31
0
0
LINE
8
0
10
989.56
20
1095.09
30
0
11
989.56
21
1051.59
31
0
0
LINE
8
0
10
989.56
20
1051.59
30
0
11
992.06
21
1051.59
31
0
0
LINE
8
0
10
992.06
20
1051.59
30
0
11
992.06
21
1041.47
31
0
0
LINE
8
0
10
992.06
20
1041.47
30
0
11
989.56
21
1041.47
31
0
0
LINE
8
0
10
989.56
20
1041.47
30
0
11
989.56
21
994.97
31
0
0
LINE
8
0
10
989.56
20
994.97
30
0
11
981.66
21
994.97
31
0
0
ARC
8
0
10
981.66
20
990.03
30
0
40
4.94
50
90
51
169.601618
0
LINE
8
0
10
976.81
20
990.92
30
0
11
969.55
21
951.47
31
0
0
LINE
8
0
10
969.55
20
951.47
30
0
11
949.56
21
951.47
31
0
0
LINE
8
0
10
949.56
20
951.47
30
0
11
949.56
21
948.97
31
0
0
LINE
8
0
10
949.56
20
948.97
30
0
11
943.3
21
948.97
31
0
0
ENDSEC
0
EOF
