0
SECTION
2
HEADER
9
$ACADVER
1
AC1009
0
ENDSEC
0
SECTION
2
ENTITIES
0
LINE
8
0
10
202.07
20
1815.31
30
0
11
194.57
21
1815.31
31
0
0
LINE
8
0
10
194.57
20
1815.31
30
0
11
190.81
21
1821.81
31
0
0
LINE
8
0
10
190.81
20
1821.81
30
0
11
194.57
21
1828.31
31
0
0
LINE
8
0
10
194.57
20
1828.31
30
0
11
202.07
21
1828.31
31
0
0
LINE
8
0
10
202.07
20
1828.31
30
0
11
205.83
21
1821.81
31
0
0
LINE
8
0
10
205.83
20
1821.81
30
0
11
202.07
21
1815.31
31
0
0
LINE
8
0
10
231.53
20
1871.29
30
0
11
227.78
21
1877.79
31
0
0
LINE
8
0
10
227.78
20
1877.79
30
0
11
231.53
21
1884.29
31
0
0
LINE
8
0
10
231.53
20
1884.29
30
0
11
239.03
21
1884.29
31
0
0
LINE
8
0
10
239.03
20
1884.29
30
0
11
242.79
21
1877.79
31
0
0
LINE
8
0
10
242.79
20
1877.79
30
0
11
239.03
21
1871.29
31
0
0
LINE
8
0
10
239.03
20
1871.29
30
0
11
231.53
21
1871.29
31
0
0
LINE
8
0
10
235.29
20
1878.05
30
0
11
236.57
21
1882.82
31
0
0
ARC
8
0
10
235.28
20
1877.79
30
0
40
5.192783
50
75.615865
51
74.919209
0
LINE
8
0
10
214.81
20
1849.71
30
0
11
214.33
21
1853.62
31
0
0
LINE
8
0
10
214.33
20
1853.62
30
0
11
215.8
21
1853.8
31
0
0
LINE
8
0
10
215.8
20
1853.8
30
0
11
217.03
21
1843.8
31
0
0
LINE
8
0
10
217.03
20
1843.8
30
0
11
213.97
21
1843.42
31
0
0
LINE
8
0
10
213.97
20
1843.42
30
0
11
212.74
21
1853.43
31
0
0
LINE
8
0
10
212.74
20
1853.43
30
0
11
214.27
21
1853.61
31
0
0
LINE
8
0
10
198.33
20
1822.07
30
0
11
199.61
21
1826.84
31
0
0
ARC
8
0
10
198.32
20
1821.81
30
0
40
5.192783
50
75.615865
51
75.025883
0
LINE
8
0
10
307.72
20
1894.33
30
0
11
303.44
21
1891.86
31
0
0
LINE
8
0
10
303.44
20
1891.86
30
0
11
302.46
21
1893.55
31
0
0
LINE
8
0
10
302.46
20
1893.55
30
0
11
301.6
21
1893.05
31
0
0
LINE
8
0
10
301.6
20
1893.05
30
0
11
288.88
21
1915.08
31
0
0
LINE
8
0
10
288.88
20
1915.08
30
0
11
236.37
21
1908.64
31
0
0
LINE
8
0
10
236.37
20
1908.64
30
0
11
236.75
21
1905.56
31
0
0
LINE
8
0
10
236.75
20
1905.56
30
0
11
226.45
21
1904.3
31
0
0
LINE
8
0
10
226.45
20
1904.3
30
0
11
226.07
21
1907.37
31
0
0
LINE
8
0
10
226.07
20
1907.37
30
0
11
213.36
21
1905.81
31
0
0
ARC
8
0
10
214.22
20
1898.8
30
0
40
7.062556
50
96.994204
51
158.58999
0
LINE
8
0
10
207.64
20
1901.38
30
0
11
175.93
21
1820.47
31
0
0
LINE
8
0
10
175.93
20
1820.47
30
0
11
190.98
21
1794.41
31
0
0
LINE
8
0
10
190.98
20
1794.41
30
0
11
208.35
21
1804.44
31
0
0
ARC
8
0
10
210.82
20
1800.16
30
0
40
4.941589
50
29.989365
51
119.989365
0
LINE
8
0
10
215.1
20
1802.63
30
0
11
220.13
21
1793.92
31
0
0
LINE
8
0
10
220.13
20
1793.92
30
0
11
302.51
21
1841.48
31
0
0
LINE
8
0
10
302.51
20
1841.48
30
0
11
292.48
21
1858.85
31
0
0
ARC
8
0
10
296.75
20
1861.32
30
0
40
4.93293
50
119.989365
51
210.047421
0
LINE
8
0
10
294.28
20
1865.6
30
0
11
311.66
21
1875.63
31
0
0
LINE
8
0
10
311.66
20
1875.63
30
0
11
304.16
21
1888.62
31
0
0
LINE
8
0
10
304.16
20
1888.62
30
0
11
305.02
21
1889.12
31
0
0
LINE
8
0
10
305.02
20
1889.12
30
0
11
303.85
21
1891.15
31
0
0
ENDSEC
0
EOF
