0
SECTION
2
HEADER
9
$ACADVER
1
AC1009
0
ENDSEC
0
SECTION
2
ENTITIES
0
LINE
8
0
10
623.98
20
1007.03
30
0
11
627.74
21
1013.53
31
0
0
LINE
8
0
10
627.74
20
1013.53
30
0
11
623.98
21
1020.03
31
0
0
LINE
8
0
10
623.98
20
1020.03
30
0
11
616.48
21
1020.03
31
0
0
LINE
8
0
10
616.48
20
1020.03
30
0
11
612.72
21
1013.53
31
0
0
LINE
8
0
10
612.72
20
1013.53
30
0
11
616.48
21
1007.03
31
0
0
LINE
8
0
10
616.48
20
1007.03
30
0
11
623.98
21
1007.03
31
0
0
LINE
8
0
10
646.48
20
1067.03
30
0
11
653.98
21
1067.03
31
0
0
LINE
8
0
10
653.98
20
1067.03
30
0
11
657.74
21
1073.53
31
0
0
LINE
8
0
10
657.74
20
1073.53
30
0
11
653.98
21
1080.03
31
0
0
LINE
8
0
10
653.98
20
1080.03
30
0
11
646.48
21
1080.03
31
0
0
LINE
8
0
10
646.48
20
1080.03
30
0
11
642.72
21
1073.53
31
0
0
LINE
8
0
10
642.72
20
1073.53
30
0
11
646.48
21
1067.03
31
0
0
LINE
8
0
10
650.01
20
1073.66
30
0
11
646.52
21
1077.16
31
0
0
ARC
8
0
10
650.23
20
1073.53
30
0
40
5.190472
50
135.624452
51
135
0
LINE
8
0
10
635.25
20
1045.76
30
0
11
634.65
21
1047.18
31
0
0
LINE
8
0
10
634.65
20
1047.18
30
0
11
630.06
21
1045.23
31
0
0
LINE
8
0
10
630.06
20
1045.23
30
0
11
631.26
21
1042.39
31
0
0
LINE
8
0
10
631.26
20
1042.39
30
0
11
640.54
21
1046.33
31
0
0
LINE
8
0
10
640.54
20
1046.33
30
0
11
639.34
21
1049.17
31
0
0
LINE
8
0
10
639.34
20
1049.17
30
0
11
634.7
21
1047.2
31
0
0
LINE
8
0
10
620.01
20
1013.66
30
0
11
616.52
21
1017.16
31
0
0
ARC
8
0
10
620.23
20
1013.53
30
0
40
5.190472
50
135.624452
51
135
0
LINE
8
0
10
641.93
20
942.53
30
0
11
641.93
21
947.47
31
0
0
LINE
8
0
10
641.93
20
947.47
30
0
11
640.17
21
947.47
31
0
0
LINE
8
0
10
640.17
20
947.47
30
0
11
640.17
21
948.47
31
0
0
LINE
8
0
10
640.17
20
948.47
30
0
11
614.73
21
948.47
31
0
0
LINE
8
0
10
614.73
20
948.47
30
0
11
594.06
21
997.16
31
0
0
LINE
8
0
10
594.06
20
997.16
30
0
11
596.91
21
998.37
31
0
0
LINE
8
0
10
596.91
20
998.37
30
0
11
592.86
21
1007.93
31
0
0
LINE
8
0
10
592.86
20
1007.93
30
0
11
590.01
21
1006.72
31
0
0
LINE
8
0
10
590.01
20
1006.72
30
0
11
585
21
1018.51
31
0
0
ARC
8
0
10
591.5
20
1021.26
30
0
40
7.057797
50
141.378186
51
202.9321
0
LINE
8
0
10
585.98
20
1025.67
30
0
11
640.2
21
1093.59
31
0
0
LINE
8
0
10
640.2
20
1093.59
30
0
11
670.29
21
1093.59
31
0
0
LINE
8
0
10
670.29
20
1093.59
30
0
11
670.29
21
1073.53
31
0
0
ARC
8
0
10
675.23
20
1073.53
30
0
40
4.94
50
180
51
270
0
LINE
8
0
10
675.23
20
1068.59
30
0
11
685.29
21
1068.59
31
0
0
LINE
8
0
10
685.29
20
1068.59
30
0
11
685.29
21
973.47
31
0
0
LINE
8
0
10
685.29
20
973.47
30
0
11
665.23
21
973.47
31
0
0
ARC
8
0
10
665.23
20
968.53
30
0
40
4.94
50
90
51
180
0
LINE
8
0
10
660.29
20
968.53
30
0
11
660.29
21
948.47
31
0
0
LINE
8
0
10
660.29
20
948.47
30
0
11
645.29
21
948.47
31
0
0
LINE
8
0
10
645.29
20
948.47
30
0
11
645.29
21
947.47
31
0
0
LINE
8
0
10
645.29
20
947.47
30
0
11
642.74
21
947.47
31
0
0
ENDSEC
0
EOF
