0
SECTION
2
HEADER
9
$ACADVER
1
AC1009
0
ENDSEC
0
SECTION
2
ENTITIES
0
LINE
8
0
10
265.16
20
1956.9
30
0
11
266.77
21
1959.69
31
0
0
LINE
8
0
10
266.77
20
1959.69
30
0
11
273.23
21
1959.69
31
0
0
LINE
8
0
10
273.23
20
1959.69
30
0
11
276.45
21
1954.1
31
0
0
LINE
8
0
10
276.45
20
1954.1
30
0
11
273.23
21
1948.51
31
0
0
LINE
8
0
10
273.23
20
1948.51
30
0
11
266.77
21
1948.51
31
0
0
LINE
8
0
10
266.77
20
1948.51
30
0
11
263.55
21
1954.1
31
0
0
LINE
8
0
10
263.55
20
1954.1
30
0
11
265.16
21
1956.9
31
0
0
LINE
8
0
10
235.16
20
1956.9
30
0
11
236.77
21
1959.69
31
0
0
LINE
8
0
10
236.77
20
1959.69
30
0
11
243.23
21
1959.69
31
0
0
LINE
8
0
10
243.23
20
1959.69
30
0
11
246.45
21
1954.1
31
0
0
LINE
8
0
10
246.45
20
1954.1
30
0
11
243.23
21
1948.51
31
0
0
LINE
8
0
10
243.23
20
1948.51
30
0
11
236.77
21
1948.51
31
0
0
LINE
8
0
10
236.77
20
1948.51
30
0
11
233.55
21
1954.1
31
0
0
LINE
8
0
10
233.55
20
1954.1
30
0
11
235.16
21
1956.9
31
0
0
ARC
8
0
10
250
20
2111.6
30
0
40
14.94
50
90
51
180
0
LINE
8
0
10
235.06
20
2111.6
30
0
11
235.06
21
2011.6
31
0
0
ARC
8
0
10
250
20
2011.6
30
0
40
14.94
50
180
51
0
0
LINE
8
0
10
264.94
20
2011.6
30
0
11
264.94
21
2111.6
31
0
0
ARC
8
0
10
250
20
2111.6
30
0
40
14.94
50
0
51
90
0
LINE
8
0
10
235.16
20
2156.9
30
0
11
236.77
21
2159.69
31
0
0
LINE
8
0
10
236.77
20
2159.69
30
0
11
243.23
21
2159.69
31
0
0
LINE
8
0
10
243.23
20
2159.69
30
0
11
246.45
21
2154.1
31
0
0
LINE
8
0
10
246.45
20
2154.1
30
0
11
243.23
21
2148.51
31
0
0
LINE
8
0
10
243.23
20
2148.51
30
0
11
236.77
21
2148.51
31
0
0
LINE
8
0
10
236.77
20
2148.51
30
0
11
233.55
21
2154.1
31
0
0
LINE
8
0
10
233.55
20
2154.1
30
0
11
235.16
21
2156.9
31
0
0
LINE
8
0
10
265.16
20
2156.9
30
0
11
266.77
21
2159.69
31
0
0
LINE
8
0
10
266.77
20
2159.69
30
0
11
273.23
21
2159.69
31
0
0
LINE
8
0
10
273.23
20
2159.69
30
0
11
276.45
21
2154.1
31
0
0
LINE
8
0
10
276.45
20
2154.1
30
0
11
273.23
21
2148.51
31
0
0
LINE
8
0
10
273.23
20
2148.51
30
0
11
266.77
21
2148.51
31
0
0
LINE
8
0
10
266.77
20
2148.51
30
0
11
263.55
21
2154.1
31
0
0
LINE
8
0
10
263.55
20
2154.1
30
0
11
265.16
21
2156.9
31
0
0
LINE
8
0
10
319.2
20
1936.54
30
0
11
315.2
21
1936.54
31
0
0
LINE
8
0
10
315.2
20
1936.54
30
0
11
234
21
1936.54
31
0
0
ARC
8
0
10
234
20
1941.6
30
0
40
5.06
50
180
51
270
0
LINE
8
0
10
228.94
20
1941.6
30
0
11
228.94
21
1964.6
31
0
0
ARC
8
0
10
224
20
1964.6
30
0
40
4.94
50
0
51
90
0
LINE
8
0
10
224
20
1969.54
30
0
11
207.94
21
1969.54
31
0
0
LINE
8
0
10
207.94
20
1969.54
30
0
11
207.94
21
1973.56
31
0
0
LINE
8
0
10
207.94
20
1973.56
30
0
11
210.56
21
1973.56
31
0
0
ARC
8
0
10
211
20
1973.5
30
0
40
0.444072
50
172.234834
51
97.765166
0
LINE
8
0
10
210.94
20
1973.94
30
0
11
210.94
21
2167.26
31
0
0
ARC
8
0
10
211
20
2167.7
30
0
40
0.444072
50
262.234834
51
187.765166
0
LINE
8
0
10
210.56
20
2167.64
30
0
11
207.94
21
2167.64
31
0
0
LINE
8
0
10
207.94
20
2167.64
30
0
11
207.94
21
2171.66
31
0
0
LINE
8
0
10
207.94
20
2171.66
30
0
11
315.26
21
2171.66
31
0
0
LINE
8
0
10
315.26
20
2171.66
30
0
11
315.26
21
1936.6
31
0
0
ENDSEC
0
EOF
