0
SECTION
2
HEADER
9
$ACADVER
1
AC1009
0
ENDSEC
0
SECTION
2
ENTITIES
0
LINE
8
0
10
269.74
20
1044.5
30
0
11
265.98
21
1038
31
0
0
LINE
8
0
10
265.98
20
1038
30
0
11
258.48
21
1038
31
0
0
LINE
8
0
10
258.48
20
1038
30
0
11
254.72
21
1044.5
31
0
0
LINE
8
0
10
254.72
20
1044.5
30
0
11
258.48
21
1051
31
0
0
LINE
8
0
10
258.48
20
1051
30
0
11
265.98
21
1051
31
0
0
LINE
8
0
10
265.98
20
1051
30
0
11
269.74
21
1044.5
31
0
0
LINE
8
0
10
235.98
20
1098
30
0
11
228.48
21
1098
31
0
0
LINE
8
0
10
228.48
20
1098
30
0
11
224.72
21
1104.5
31
0
0
LINE
8
0
10
224.72
20
1104.5
30
0
11
228.48
21
1111
31
0
0
LINE
8
0
10
228.48
20
1111
30
0
11
235.98
21
1111
31
0
0
LINE
8
0
10
235.98
20
1111
30
0
11
239.74
21
1104.5
31
0
0
LINE
8
0
10
239.74
20
1104.5
30
0
11
235.98
21
1098
31
0
0
LINE
8
0
10
232.01
20
1104.63
30
0
11
228.52
21
1108.13
31
0
0
ARC
8
0
10
232.23
20
1104.5
30
0
40
5.190472
50
135.624452
51
135
0
LINE
8
0
10
246.31
20
1072.73
30
0
11
242.69
21
1074.27
31
0
0
LINE
8
0
10
242.69
20
1074.27
30
0
11
243.26
21
1075.63
31
0
0
LINE
8
0
10
243.26
20
1075.63
30
0
11
252.54
21
1071.69
31
0
0
LINE
8
0
10
252.54
20
1071.69
30
0
11
251.34
21
1068.86
31
0
0
LINE
8
0
10
251.34
20
1068.86
30
0
11
242.06
21
1072.8
31
0
0
LINE
8
0
10
242.06
20
1072.8
30
0
11
242.66
21
1074.22
31
0
0
LINE
8
0
10
262.01
20
1044.63
30
0
11
258.52
21
1048.13
31
0
0
ARC
8
0
10
262.23
20
1044.5
30
0
40
5.190472
50
135.624452
51
135
0
LINE
8
0
10
254.13
20
1175.5
30
0
11
254.13
21
1170.56
31
0
0
LINE
8
0
10
254.13
20
1170.56
30
0
11
252.17
21
1170.56
31
0
0
LINE
8
0
10
252.17
20
1170.56
30
0
11
252.17
21
1169.56
31
0
0
LINE
8
0
10
252.17
20
1169.56
30
0
11
226.73
21
1169.56
31
0
0
LINE
8
0
10
226.73
20
1169.56
30
0
11
206.06
21
1120.87
31
0
0
LINE
8
0
10
206.06
20
1120.87
30
0
11
208.91
21
1119.65
31
0
0
LINE
8
0
10
208.91
20
1119.65
30
0
11
204.86
21
1110.1
31
0
0
LINE
8
0
10
204.86
20
1110.1
30
0
11
202.01
21
1111.31
31
0
0
LINE
8
0
10
202.01
20
1111.31
30
0
11
197
21
1099.52
31
0
0
ARC
8
0
10
203.5
20
1096.76
30
0
40
7.0617
50
156.993176
51
218.5584
0
LINE
8
0
10
197.98
20
1092.36
30
0
11
252.2
21
1024.44
31
0
0
LINE
8
0
10
252.2
20
1024.44
30
0
11
282.29
21
1024.44
31
0
0
LINE
8
0
10
282.29
20
1024.44
30
0
11
282.29
21
1044.5
31
0
0
ARC
8
0
10
287.23
20
1044.5
30
0
40
4.94
50
90
51
180
0
LINE
8
0
10
287.23
20
1049.44
30
0
11
297.29
21
1049.44
31
0
0
LINE
8
0
10
297.29
20
1049.44
30
0
11
297.29
21
1144.56
31
0
0
LINE
8
0
10
297.29
20
1144.56
30
0
11
277.23
21
1144.56
31
0
0
ARC
8
0
10
277.23
20
1149.5
30
0
40
4.94
50
180
51
270
0
LINE
8
0
10
272.29
20
1149.5
30
0
11
272.29
21
1169.56
31
0
0
LINE
8
0
10
272.29
20
1169.56
30
0
11
257.29
21
1169.56
31
0
0
LINE
8
0
10
257.29
20
1169.56
30
0
11
257.29
21
1170.56
31
0
0
LINE
8
0
10
257.29
20
1170.56
30
0
11
254.94
21
1170.56
31
0
0
ENDSEC
0
EOF
