0
SECTION
2
HEADER
9
$ACADVER
1
AC1009
0
ENDSEC
0
SECTION
2
ENTITIES
0
LINE
8
0
10
945.91
20
2246.26
30
0
11
948.66
21
2247.85
31
0
0
LINE
8
0
10
948.66
20
2247.85
30
0
11
954.16
21
2244.68
31
0
0
LINE
8
0
10
954.16
20
2244.68
30
0
11
954.16
21
2238.32
31
0
0
LINE
8
0
10
954.16
20
2238.32
30
0
11
948.66
21
2235.15
31
0
0
LINE
8
0
10
948.66
20
2235.15
30
0
11
943.16
21
2238.32
31
0
0
LINE
8
0
10
943.16
20
2238.32
30
0
11
943.16
21
2244.68
31
0
0
LINE
8
0
10
943.16
20
2244.68
30
0
11
945.91
21
2246.26
31
0
0
LINE
8
0
10
1039.71
20
2751.39
30
0
11
1038.58
21
2752.52
31
0
0
ARC
8
0
10
1039.81
20
2751.5
30
0
40
1.597905
50
140.332159
51
135
0
LINE
8
0
10
1039.71
20
2842.39
30
0
11
1038.58
21
2843.52
31
0
0
ARC
8
0
10
1039.81
20
2842.5
30
0
40
1.597905
50
140.332159
51
135
0
LINE
8
0
10
945.91
20
2886.26
30
0
11
948.66
21
2887.85
31
0
0
LINE
8
0
10
948.66
20
2887.85
30
0
11
954.16
21
2884.68
31
0
0
LINE
8
0
10
954.16
20
2884.68
30
0
11
954.16
21
2878.32
31
0
0
LINE
8
0
10
954.16
20
2878.32
30
0
11
948.66
21
2875.15
31
0
0
LINE
8
0
10
948.66
20
2875.15
30
0
11
943.16
21
2878.32
31
0
0
LINE
8
0
10
943.16
20
2878.32
30
0
11
943.16
21
2884.68
31
0
0
LINE
8
0
10
943.16
20
2884.68
30
0
11
945.91
21
2886.26
31
0
0
LINE
8
0
10
945.02
20
2915.93
30
0
11
941.59
21
2919.36
31
0
0
ARC
8
0
10
948.66
20
2912.5
30
0
40
9.851117
50
135.86369
51
135
0
LINE
8
0
10
1140.71
20
2842.39
30
0
11
1139.58
21
2843.52
31
0
0
ARC
8
0
10
1140.81
20
2842.5
30
0
40
1.597905
50
140.332159
51
135
0
LINE
8
0
10
1140.71
20
2751.39
30
0
11
1139.58
21
2752.52
31
0
0
ARC
8
0
10
1140.81
20
2751.5
30
0
40
1.597905
50
140.332159
51
135
0
LINE
8
0
10
1486.4
20
2245.22
30
0
11
1483.58
21
2242.39
31
0
0
LINE
8
0
10
1483.58
20
2242.39
30
0
11
1453.53
21
2212.35
31
0
0
LINE
8
0
10
1453.53
20
2212.35
30
0
11
1123.31
21
2212.35
31
0
0
ARC
8
0
10
1123.31
20
2206.5
30
0
40
5.85
50
90
51
180
0
LINE
8
0
10
1117.46
20
2206.5
30
0
11
1117.46
21
2146.5
31
0
0
ARC
8
0
10
1111.31
20
2146.5
30
0
40
6.15
50
270
51
0
0
LINE
8
0
10
1111.31
20
2140.35
30
0
11
977.81
21
2140.35
31
0
0
ARC
8
0
10
977.81
20
2146.5
30
0
40
6.15
50
180
51
270
0
LINE
8
0
10
971.66
20
2146.5
30
0
11
971.66
21
2186.65
31
0
0
LINE
8
0
10
971.66
20
2186.65
30
0
11
974.66
21
2186.65
31
0
0
LINE
8
0
10
974.66
20
2186.65
30
0
11
974.66
21
2187.35
31
0
0
LINE
8
0
10
974.66
20
2187.35
30
0
11
964.66
21
2187.35
31
0
0
LINE
8
0
10
964.66
20
2187.35
30
0
11
964.66
21
2187.85
31
0
0
LINE
8
0
10
964.66
20
2187.85
30
0
11
934.96
21
2187.85
31
0
0
LINE
8
0
10
934.96
20
2187.85
30
0
11
934.96
21
2187.35
31
0
0
LINE
8
0
10
934.96
20
2187.35
30
0
11
889.35
21
2187.35
31
0
0
LINE
8
0
10
889.35
20
2187.35
30
0
11
889.35
21
2937.65
31
0
0
LINE
8
0
10
889.35
20
2937.65
30
0
11
934.96
21
2937.65
31
0
0
LINE
8
0
10
934.96
20
2937.65
30
0
11
934.96
21
2937.15
31
0
0
LINE
8
0
10
934.96
20
2937.15
30
0
11
964.66
21
2937.15
31
0
0
LINE
8
0
10
964.66
20
2937.15
30
0
11
964.66
21
2937.65
31
0
0
LINE
8
0
10
964.66
20
2937.65
30
0
11
974.66
21
2937.65
31
0
0
LINE
8
0
10
974.66
20
2937.65
30
0
11
974.66
21
2938.35
31
0
0
LINE
8
0
10
974.66
20
2938.35
30
0
11
971.66
21
2938.35
31
0
0
LINE
8
0
10
971.66
20
2938.35
30
0
11
971.66
21
2978.5
31
0
0
ARC
8
0
10
977.81
20
2978.5
30
0
40
6.15
50
90
51
180
0
LINE
8
0
10
977.81
20
2984.65
30
0
11
1111.31
21
2984.65
31
0
0
ARC
8
0
10
1111.31
20
2978.5
30
0
40
6.15
50
0
51
90
0
LINE
8
0
10
1117.46
20
2978.5
30
0
11
1117.46
21
2918.5
31
0
0
ARC
8
0
10
1123.31
20
2918.5
30
0
40
5.85
50
180
51
270
0
LINE
8
0
10
1123.31
20
2912.65
30
0
11
1453.53
21
2912.65
31
0
0
LINE
8
0
10
1453.53
20
2912.65
30
0
11
1483.62
21
2882.56
31
0
0
LINE
8
0
10
1483.62
20
2882.56
30
0
11
1483.62
21
2242.5
31
0
0
ENDSEC
0
EOF
