0
SECTION
2
HEADER
9
$ACADVER
1
AC1009
0
ENDSEC
0
SECTION
2
ENTITIES
0
LINE
8
0
10
1336
20
965.89
30
0
11
1336
21
1167.89
31
0
0
LINE
8
0
10
1251
20
1253.89
30
0
11
1171
21
1253.89
31
0
0
LINE
8
0
10
1086
20
1167.89
30
0
11
1086
21
965.89
31
0
0
LINE
8
0
10
1136
20
965.89
30
0
11
1286
21
965.89
31
0
0
LINE
8
0
10
1286
20
1411.9
30
0
11
1136
21
1411.9
31
0
0
LINE
8
0
10
1086
20
1411.9
30
0
11
1086
21
1613.9
31
0
0
LINE
8
0
10
1171
20
1703.9
30
0
11
1251
21
1703.9
31
0
0
LINE
8
0
10
1336
20
1613.9
30
0
11
1336
21
1411.9
31
0
0
LINE
8
0
10
1366
20
1998.79
30
0
11
1416
21
1998.79
31
0
0
LINE
8
0
10
1416
20
2001.79
30
0
11
1366
21
2001.79
31
0
0
LINE
8
0
10
1206
20
2001.79
30
0
11
1163
21
2001.79
31
0
0
ARC
8
0
10
1163
20
2005.79
30
0
40
4
50
180
51
270
0
LINE
8
0
10
1159
20
2005.79
30
0
11
1159
21
2048.79
31
0
0
LINE
8
0
10
1156
20
2048.79
30
0
11
1156
21
2005.79
31
0
0
ARC
8
0
10
1163
20
2005.79
30
0
40
7
50
180
51
270
0
LINE
8
0
10
1163
20
1998.79
30
0
11
1206
21
1998.79
31
0
0
LINE
8
0
10
1159
20
2359.3
30
0
11
1159
21
2459.3
31
0
0
LINE
8
0
10
1156
20
2459.3
30
0
11
1156
21
2359.3
31
0
0
LINE
8
0
10
1214.55
20
2364.08
30
0
11
1212.46
21
2366.16
31
0
0
ARC
8
0
10
1216
20
2362.7
30
0
40
4.950071
50
135.65478
51
135
0
LINE
8
0
10
1364.55
20
2364.08
30
0
11
1362.46
21
2366.16
31
0
0
ARC
8
0
10
1366
20
2362.7
30
0
40
4.950071
50
135.65478
51
135
0
LINE
8
0
10
1364.55
20
2044.08
30
0
11
1362.46
21
2046.16
31
0
0
ARC
8
0
10
1366
20
2042.7
30
0
40
4.950071
50
135.65478
51
135
0
LINE
8
0
10
1214.55
20
2044.08
30
0
11
1212.46
21
2046.16
31
0
0
ARC
8
0
10
1216
20
2042.7
30
0
40
4.950071
50
135.65478
51
135
0
LINE
8
0
10
1206.65
20
1338.92
30
0
11
1201.8
21
1339.93
31
0
0
ARC
8
0
10
1261
20
1327.7
30
0
40
60.450086
50
168.327594
51
167.667568
0
LINE
8
0
10
415.62
20
2963.52
30
0
11
414.93
21
2962.34
31
0
0
ARC
8
0
10
419.5
20
2959.1
30
0
40
5.602009
50
144.664444
51
155.403573
0
LINE
8
0
10
414.41
20
2961.43
30
0
11
413.06
21
2959.1
31
0
0
LINE
8
0
10
413.06
20
2959.1
30
0
11
414.41
21
2956.77
31
0
0
ARC
8
0
10
419.5
20
2959.1
30
0
40
5.597946
50
204.596427
51
215.418906
0
LINE
8
0
10
414.93
20
2955.85
30
0
11
416.28
21
2953.52
31
0
0
LINE
8
0
10
416.28
20
2953.52
30
0
11
418.97
21
2953.52
31
0
0
ARC
8
0
10
419.5
20
2959.1
30
0
40
5.605114
50
264.574205
51
275.425795
0
LINE
8
0
10
420.03
20
2953.52
30
0
11
422.72
21
2953.52
31
0
0
LINE
8
0
10
422.72
20
2953.52
30
0
11
424.07
21
2955.85
31
0
0
ARC
8
0
10
419.5
20
2959.1
30
0
40
5.607798
50
324.581094
51
335.403573
0
LINE
8
0
10
424.59
20
2956.77
30
0
11
425.94
21
2959.1
31
0
0
LINE
8
0
10
425.94
20
2959.1
30
0
11
424.59
21
2961.43
31
0
0
ARC
8
0
10
419.5
20
2959.1
30
0
40
5.597946
50
24.596427
51
35.335556
0
LINE
8
0
10
424.07
20
2962.34
30
0
11
422.72
21
2964.67
31
0
0
LINE
8
0
10
422.72
20
2964.67
30
0
11
420.03
21
2964.67
31
0
0
ARC
8
0
10
419.5
20
2959.1
30
0
40
5.595159
50
84.564522
51
95.435478
0
LINE
8
0
10
418.97
20
2964.67
30
0
11
416.28
21
2964.67
31
0
0
LINE
8
0
10
416.28
20
2964.67
30
0
11
415.62
21
2963.52
31
0
0
LINE
8
0
10
442.12
20
2901.32
30
0
11
441.43
21
2900.14
31
0
0
ARC
8
0
10
446
20
2896.9
30
0
40
5.602009
50
144.664444
51
155.403573
0
LINE
8
0
10
440.91
20
2899.23
30
0
11
439.56
21
2896.9
31
0
0
LINE
8
0
10
439.56
20
2896.9
30
0
11
440.91
21
2894.57
31
0
0
ARC
8
0
10
446
20
2896.9
30
0
40
5.597946
50
204.596427
51
215.335556
0
LINE
8
0
10
441.43
20
2893.66
30
0
11
442.78
21
2891.32
31
0
0
LINE
8
0
10
442.78
20
2891.32
30
0
11
445.47
21
2891.32
31
0
0
ARC
8
0
10
446
20
2896.9
30
0
40
5.605114
50
264.574205
51
275.425795
0
LINE
8
0
10
446.53
20
2891.32
30
0
11
449.22
21
2891.32
31
0
0
LINE
8
0
10
449.22
20
2891.32
30
0
11
450.57
21
2893.66
31
0
0
ARC
8
0
10
446
20
2896.9
30
0
40
5.602009
50
324.664444
51
335.403573
0
LINE
8
0
10
451.09
20
2894.57
30
0
11
452.44
21
2896.9
31
0
0
LINE
8
0
10
452.44
20
2896.9
30
0
11
451.09
21
2899.23
31
0
0
ARC
8
0
10
446
20
2896.9
30
0
40
5.597946
50
24.596427
51
35.335556
0
LINE
8
0
10
450.57
20
2900.14
30
0
11
449.22
21
2902.47
31
0
0
LINE
8
0
10
449.22
20
2902.47
30
0
11
446.53
21
2902.47
31
0
0
ARC
8
0
10
446
20
2896.9
30
0
40
5.595159
50
84.564522
51
95.435478
0
LINE
8
0
10
445.47
20
2902.47
30
0
11
442.78
21
2902.47
31
0
0
LINE
8
0
10
442.78
20
2902.47
30
0
11
442.12
21
2901.32
31
0
0
LINE
8
0
10
592.12
20
2963.52
30
0
11
591.43
21
2962.34
31
0
0
ARC
8
0
10
596
20
2959.1
30
0
40
5.602009
50
144.664444
51
155.403573
0
LINE
8
0
10
590.91
20
2961.43
30
0
11
589.56
21
2959.1
31
0
0
LINE
8
0
10
589.56
20
2959.1
30
0
11
590.91
21
2956.77
31
0
0
ARC
8
0
10
596
20
2959.1
30
0
40
5.597946
50
204.596427
51
215.418906
0
LINE
8
0
10
591.43
20
2955.85
30
0
11
592.78
21
2953.52
31
0
0
LINE
8
0
10
592.78
20
2953.52
30
0
11
595.47
21
2953.52
31
0
0
ARC
8
0
10
596
20
2959.1
30
0
40
5.605114
50
264.574205
51
275.425795
0
LINE
8
0
10
596.53
20
2953.52
30
0
11
599.22
21
2953.52
31
0
0
LINE
8
0
10
599.22
20
2953.52
30
0
11
600.57
21
2955.85
31
0
0
ARC
8
0
10
596
20
2959.1
30
0
40
5.607798
50
324.581094
51
335.403573
0
LINE
8
0
10
601.09
20
2956.77
30
0
11
602.44
21
2959.1
31
0
0
LINE
8
0
10
602.44
20
2959.1
30
0
11
601.09
21
2961.43
31
0
0
ARC
8
0
10
596
20
2959.1
30
0
40
5.597946
50
24.596427
51
35.335556
0
LINE
8
0
10
600.57
20
2962.34
30
0
11
599.22
21
2964.67
31
0
0
LINE
8
0
10
599.22
20
2964.67
30
0
11
596.53
21
2964.67
31
0
0
ARC
8
0
10
596
20
2959.1
30
0
40
5.595159
50
84.564522
51
95.435478
0
LINE
8
0
10
595.47
20
2964.67
30
0
11
592.78
21
2964.67
31
0
0
LINE
8
0
10
592.78
20
2964.67
30
0
11
592.12
21
2963.52
31
0
0
LINE
8
0
10
742.12
20
2901.32
30
0
11
741.43
21
2900.14
31
0
0
ARC
8
0
10
746
20
2896.9
30
0
40
5.602009
50
144.664444
51
155.403573
0
LINE
8
0
10
740.91
20
2899.23
30
0
11
739.56
21
2896.9
31
0
0
LINE
8
0
10
739.56
20
2896.9
30
0
11
740.91
21
2894.57
31
0
0
ARC
8
0
10
746
20
2896.9
30
0
40
5.597946
50
204.596427
51
215.335556
0
LINE
8
0
10
741.43
20
2893.66
30
0
11
742.78
21
2891.32
31
0
0
LINE
8
0
10
742.78
20
2891.32
30
0
11
745.47
21
2891.32
31
0
0
ARC
8
0
10
746
20
2896.9
30
0
40
5.605114
50
264.574205
51
275.425795
0
LINE
8
0
10
746.53
20
2891.32
30
0
11
749.22
21
2891.32
31
0
0
LINE
8
0
10
749.22
20
2891.32
30
0
11
750.57
21
2893.66
31
0
0
ARC
8
0
10
746
20
2896.9
30
0
40
5.602009
50
324.664444
51
335.403573
0
LINE
8
0
10
751.09
20
2894.57
30
0
11
752.44
21
2896.9
31
0
0
LINE
8
0
10
752.44
20
2896.9
30
0
11
751.09
21
2899.23
31
0
0
ARC
8
0
10
746
20
2896.9
30
0
40
5.597946
50
24.596427
51
35.335556
0
LINE
8
0
10
750.57
20
2900.14
30
0
11
749.22
21
2902.47
31
0
0
LINE
8
0
10
749.22
20
2902.47
30
0
11
746.53
21
2902.47
31
0
0
ARC
8
0
10
746
20
2896.9
30
0
40
5.595159
50
84.564522
51
95.435478
0
LINE
8
0
10
745.47
20
2902.47
30
0
11
742.78
21
2902.47
31
0
0
LINE
8
0
10
742.78
20
2902.47
30
0
11
742.12
21
2901.32
31
0
0
LINE
8
0
10
892.12
20
2963.52
30
0
11
891.43
21
2962.34
31
0
0
ARC
8
0
10
896
20
2959.1
30
0
40
5.602009
50
144.664444
51
155.403573
0
LINE
8
0
10
890.91
20
2961.43
30
0
11
889.56
21
2959.1
31
0
0
LINE
8
0
10
889.56
20
2959.1
30
0
11
890.91
21
2956.77
31
0
0
ARC
8
0
10
896
20
2959.1
30
0
40
5.597946
50
204.596427
51
215.418906
0
LINE
8
0
10
891.43
20
2955.85
30
0
11
892.78
21
2953.52
31
0
0
LINE
8
0
10
892.78
20
2953.52
30
0
11
895.47
21
2953.52
31
0
0
ARC
8
0
10
896
20
2959.1
30
0
40
5.605114
50
264.574205
51
275.425795
0
LINE
8
0
10
896.53
20
2953.52
30
0
11
899.22
21
2953.52
31
0
0
LINE
8
0
10
899.22
20
2953.52
30
0
11
900.57
21
2955.85
31
0
0
ARC
8
0
10
896
20
2959.1
30
0
40
5.607798
50
324.581094
51
335.403573
0
LINE
8
0
10
901.09
20
2956.77
30
0
11
902.44
21
2959.1
31
0
0
LINE
8
0
10
902.44
20
2959.1
30
0
11
901.09
21
2961.43
31
0
0
ARC
8
0
10
896
20
2959.1
30
0
40
5.597946
50
24.596427
51
35.335556
0
LINE
8
0
10
900.57
20
2962.34
30
0
11
899.22
21
2964.67
31
0
0
LINE
8
0
10
899.22
20
2964.67
30
0
11
896.53
21
2964.67
31
0
0
ARC
8
0
10
896
20
2959.1
30
0
40
5.595159
50
84.564522
51
95.435478
0
LINE
8
0
10
895.47
20
2964.67
30
0
11
892.78
21
2964.67
31
0
0
LINE
8
0
10
892.78
20
2964.67
30
0
11
892.12
21
2963.52
31
0
0
LINE
8
0
10
1042.12
20
2901.32
30
0
11
1041.43
21
2900.14
31
0
0
ARC
8
0
10
1046
20
2896.9
30
0
40
5.602009
50
144.664444
51
155.403573
0
LINE
8
0
10
1040.91
20
2899.23
30
0
11
1039.56
21
2896.9
31
0
0
LINE
8
0
10
1039.56
20
2896.9
30
0
11
1040.91
21
2894.57
31
0
0
ARC
8
0
10
1046
20
2896.9
30
0
40
5.597946
50
204.596427
51
215.335556
0
LINE
8
0
10
1041.43
20
2893.66
30
0
11
1042.78
21
2891.32
31
0
0
LINE
8
0
10
1042.78
20
2891.32
30
0
11
1045.47
21
2891.32
31
0
0
ARC
8
0
10
1046
20
2896.9
30
0
40
5.605114
50
264.574205
51
275.425795
0
LINE
8
0
10
1046.53
20
2891.32
30
0
11
1049.22
21
2891.32
31
0
0
LINE
8
0
10
1049.22
20
2891.32
30
0
11
1050.57
21
2893.66
31
0
0
ARC
8
0
10
1046
20
2896.9
30
0
40
5.602009
50
324.664444
51
335.403573
0
LINE
8
0
10
1051.09
20
2894.57
30
0
11
1052.44
21
2896.9
31
0
0
LINE
8
0
10
1052.44
20
2896.9
30
0
11
1051.09
21
2899.23
31
0
0
ARC
8
0
10
1046
20
2896.9
30
0
40
5.597946
50
24.596427
51
35.335556
0
LINE
8
0
10
1050.57
20
2900.14
30
0
11
1049.22
21
2902.47
31
0
0
LINE
8
0
10
1049.22
20
2902.47
30
0
11
1046.53
21
2902.47
31
0
0
ARC
8
0
10
1046
20
2896.9
30
0
40
5.595159
50
84.564522
51
95.435478
0
LINE
8
0
10
1045.47
20
2902.47
30
0
11
1042.78
21
2902.47
31
0
0
LINE
8
0
10
1042.78
20
2902.47
30
0
11
1042.12
21
2901.32
31
0
0
LINE
8
0
10
1157.5
20
2845.25
30
0
11
1159.45
21
2845.25
31
0
0
LINE
8
0
10
1159.45
20
2845.25
30
0
11
1159.45
21
2836.35
31
0
0
LINE
8
0
10
1159.45
20
2836.35
30
0
11
1155.55
21
2836.35
31
0
0
LINE
8
0
10
1155.55
20
2836.35
30
0
11
1155.55
21
2845.25
31
0
0
LINE
8
0
10
1155.55
20
2845.25
30
0
11
1157.5
21
2845.25
31
0
0
LINE
8
0
10
1180.35
20
2820.9
30
0
11
1175.42
21
2820.44
31
0
0
ARC
8
0
10
1260
20
2828.4
30
0
40
84.95374
50
185.376389
51
184.902548
0
LINE
8
0
10
1169.72
20
2764.12
30
0
11
1169.03
21
2762.94
31
0
0
ARC
8
0
10
1173.6
20
2759.7
30
0
40
5.602009
50
144.664444
51
155.403573
0
LINE
8
0
10
1168.51
20
2762.03
30
0
11
1167.16
21
2759.7
31
0
0
LINE
8
0
10
1167.16
20
2759.7
30
0
11
1168.51
21
2757.37
31
0
0
ARC
8
0
10
1173.6
20
2759.7
30
0
40
5.597946
50
204.596427
51
215.335556
0
LINE
8
0
10
1169.03
20
2756.46
30
0
11
1170.38
21
2754.12
31
0
0
LINE
8
0
10
1170.38
20
2754.12
30
0
11
1173.07
21
2754.12
31
0
0
ARC
8
0
10
1173.6
20
2759.7
30
0
40
5.605114
50
264.574205
51
275.425795
0
LINE
8
0
10
1174.13
20
2754.12
30
0
11
1176.82
21
2754.12
31
0
0
LINE
8
0
10
1176.82
20
2754.12
30
0
11
1178.17
21
2756.46
31
0
0
ARC
8
0
10
1173.6
20
2759.7
30
0
40
5.602009
50
324.664444
51
335.403573
0
LINE
8
0
10
1178.69
20
2757.37
30
0
11
1180.04
21
2759.7
31
0
0
LINE
8
0
10
1180.04
20
2759.7
30
0
11
1178.69
21
2762.03
31
0
0
ARC
8
0
10
1173.6
20
2759.7
30
0
40
5.597946
50
24.596427
51
35.335556
0
LINE
8
0
10
1178.17
20
2762.94
30
0
11
1176.82
21
2765.27
31
0
0
LINE
8
0
10
1176.82
20
2765.27
30
0
11
1174.13
21
2765.27
31
0
0
ARC
8
0
10
1173.6
20
2759.7
30
0
40
5.595159
50
84.564522
51
95.435478
0
LINE
8
0
10
1173.07
20
2765.27
30
0
11
1170.38
21
2765.27
31
0
0
LINE
8
0
10
1170.38
20
2765.27
30
0
11
1169.72
21
2764.12
31
0
0
LINE
8
0
10
1342.12
20
2764.12
30
0
11
1341.43
21
2762.94
31
0
0
ARC
8
0
10
1346
20
2759.7
30
0
40
5.602009
50
144.664444
51
155.403573
0
LINE
8
0
10
1340.91
20
2762.03
30
0
11
1339.56
21
2759.7
31
0
0
LINE
8
0
10
1339.56
20
2759.7
30
0
11
1340.91
21
2757.37
31
0
0
ARC
8
0
10
1346
20
2759.7
30
0
40
5.597946
50
204.596427
51
215.335556
0
LINE
8
0
10
1341.43
20
2756.46
30
0
11
1342.78
21
2754.12
31
0
0
LINE
8
0
10
1342.78
20
2754.12
30
0
11
1345.47
21
2754.12
31
0
0
ARC
8
0
10
1346
20
2759.7
30
0
40
5.605114
50
264.574205
51
275.425795
0
LINE
8
0
10
1346.53
20
2754.12
30
0
11
1349.22
21
2754.12
31
0
0
LINE
8
0
10
1349.22
20
2754.12
30
0
11
1350.57
21
2756.46
31
0
0
ARC
8
0
10
1346
20
2759.7
30
0
40
5.602009
50
324.664444
51
335.403573
0
LINE
8
0
10
1351.09
20
2757.37
30
0
11
1352.44
21
2759.7
31
0
0
LINE
8
0
10
1352.44
20
2759.7
30
0
11
1351.09
21
2762.03
31
0
0
ARC
8
0
10
1346
20
2759.7
30
0
40
5.597946
50
24.596427
51
35.335556
0
LINE
8
0
10
1350.57
20
2762.94
30
0
11
1349.22
21
2765.27
31
0
0
LINE
8
0
10
1349.22
20
2765.27
30
0
11
1346.53
21
2765.27
31
0
0
ARC
8
0
10
1346
20
2759.7
30
0
40
5.595159
50
84.564522
51
95.435478
0
LINE
8
0
10
1345.47
20
2765.27
30
0
11
1342.78
21
2765.27
31
0
0
LINE
8
0
10
1342.78
20
2765.27
30
0
11
1342.12
21
2764.12
31
0
0
LINE
8
0
10
1342.12
20
2901.32
30
0
11
1341.43
21
2900.14
31
0
0
ARC
8
0
10
1346
20
2896.9
30
0
40
5.602009
50
144.664444
51
155.403573
0
LINE
8
0
10
1340.91
20
2899.23
30
0
11
1339.56
21
2896.9
31
0
0
LINE
8
0
10
1339.56
20
2896.9
30
0
11
1340.91
21
2894.57
31
0
0
ARC
8
0
10
1346
20
2896.9
30
0
40
5.597946
50
204.596427
51
215.335556
0
LINE
8
0
10
1341.43
20
2893.66
30
0
11
1342.78
21
2891.32
31
0
0
LINE
8
0
10
1342.78
20
2891.32
30
0
11
1345.47
21
2891.32
31
0
0
ARC
8
0
10
1346
20
2896.9
30
0
40
5.605114
50
264.574205
51
275.425795
0
LINE
8
0
10
1346.53
20
2891.32
30
0
11
1349.22
21
2891.32
31
0
0
LINE
8
0
10
1349.22
20
2891.32
30
0
11
1350.57
21
2893.66
31
0
0
ARC
8
0
10
1346
20
2896.9
30
0
40
5.602009
50
324.664444
51
335.403573
0
LINE
8
0
10
1351.09
20
2894.57
30
0
11
1352.44
21
2896.9
31
0
0
LINE
8
0
10
1352.44
20
2896.9
30
0
11
1351.09
21
2899.23
31
0
0
ARC
8
0
10
1346
20
2896.9
30
0
40
5.597946
50
24.596427
51
35.335556
0
LINE
8
0
10
1350.57
20
2900.14
30
0
11
1349.22
21
2902.47
31
0
0
LINE
8
0
10
1349.22
20
2902.47
30
0
11
1346.53
21
2902.47
31
0
0
ARC
8
0
10
1346
20
2896.9
30
0
40
5.595159
50
84.564522
51
95.435478
0
LINE
8
0
10
1345.47
20
2902.47
30
0
11
1342.78
21
2902.47
31
0
0
LINE
8
0
10
1342.78
20
2902.47
30
0
11
1342.12
21
2901.32
31
0
0
LINE
8
0
10
1368.62
20
2963.52
30
0
11
1367.93
21
2962.34
31
0
0
ARC
8
0
10
1372.5
20
2959.1
30
0
40
5.602009
50
144.664444
51
155.403573
0
LINE
8
0
10
1367.41
20
2961.43
30
0
11
1366.06
21
2959.1
31
0
0
LINE
8
0
10
1366.06
20
2959.1
30
0
11
1367.41
21
2956.77
31
0
0
ARC
8
0
10
1372.5
20
2959.1
30
0
40
5.597946
50
204.596427
51
215.418906
0
LINE
8
0
10
1367.93
20
2955.85
30
0
11
1369.28
21
2953.52
31
0
0
LINE
8
0
10
1369.28
20
2953.52
30
0
11
1371.97
21
2953.52
31
0
0
ARC
8
0
10
1372.5
20
2959.1
30
0
40
5.605114
50
264.574205
51
275.425795
0
LINE
8
0
10
1373.03
20
2953.52
30
0
11
1375.72
21
2953.52
31
0
0
LINE
8
0
10
1375.72
20
2953.52
30
0
11
1377.07
21
2955.85
31
0
0
ARC
8
0
10
1372.5
20
2959.1
30
0
40
5.607798
50
324.581094
51
335.403573
0
LINE
8
0
10
1377.59
20
2956.77
30
0
11
1378.94
21
2959.1
31
0
0
LINE
8
0
10
1378.94
20
2959.1
30
0
11
1377.59
21
2961.43
31
0
0
ARC
8
0
10
1372.5
20
2959.1
30
0
40
5.597946
50
24.596427
51
35.335556
0
LINE
8
0
10
1377.07
20
2962.34
30
0
11
1375.72
21
2964.67
31
0
0
LINE
8
0
10
1375.72
20
2964.67
30
0
11
1373.03
21
2964.67
31
0
0
ARC
8
0
10
1372.5
20
2959.1
30
0
40
5.595159
50
84.564522
51
95.435478
0
LINE
8
0
10
1371.97
20
2964.67
30
0
11
1369.28
21
2964.67
31
0
0
LINE
8
0
10
1369.28
20
2964.67
30
0
11
1368.62
21
2963.52
31
0
0
LINE
8
0
10
1192.12
20
2963.52
30
0
11
1191.43
21
2962.34
31
0
0
ARC
8
0
10
1196
20
2959.1
30
0
40
5.602009
50
144.664444
51
155.403573
0
LINE
8
0
10
1190.91
20
2961.43
30
0
11
1189.56
21
2959.1
31
0
0
LINE
8
0
10
1189.56
20
2959.1
30
0
11
1190.91
21
2956.77
31
0
0
ARC
8
0
10
1196
20
2959.1
30
0
40
5.597946
50
204.596427
51
215.418906
0
LINE
8
0
10
1191.43
20
2955.85
30
0
11
1192.78
21
2953.52
31
0
0
LINE
8
0
10
1192.78
20
2953.52
30
0
11
1195.47
21
2953.52
31
0
0
ARC
8
0
10
1196
20
2959.1
30
0
40
5.605114
50
264.574205
51
275.425795
0
LINE
8
0
10
1196.53
20
2953.52
30
0
11
1199.22
21
2953.52
31
0
0
LINE
8
0
10
1199.22
20
2953.52
30
0
11
1200.57
21
2955.85
31
0
0
ARC
8
0
10
1196
20
2959.1
30
0
40
5.607798
50
324.581094
51
335.403573
0
LINE
8
0
10
1201.09
20
2956.77
30
0
11
1202.44
21
2959.1
31
0
0
LINE
8
0
10
1202.44
20
2959.1
30
0
11
1201.09
21
2961.43
31
0
0
ARC
8
0
10
1196
20
2959.1
30
0
40
5.597946
50
24.596427
51
35.335556
0
LINE
8
0
10
1200.57
20
2962.34
30
0
11
1199.22
21
2964.67
31
0
0
LINE
8
0
10
1199.22
20
2964.67
30
0
11
1196.53
21
2964.67
31
0
0
ARC
8
0
10
1196
20
2959.1
30
0
40
5.595159
50
84.564522
51
95.435478
0
LINE
8
0
10
1195.47
20
2964.67
30
0
11
1192.78
21
2964.67
31
0
0
LINE
8
0
10
1192.78
20
2964.67
30
0
11
1192.12
21
2963.52
31
0
0
LINE
8
0
10
1169.72
20
2901.32
30
0
11
1169.03
21
2900.14
31
0
0
ARC
8
0
10
1173.6
20
2896.9
30
0
40
5.602009
50
144.664444
51
155.403573
0
LINE
8
0
10
1168.51
20
2899.23
30
0
11
1167.16
21
2896.9
31
0
0
LINE
8
0
10
1167.16
20
2896.9
30
0
11
1168.51
21
2894.57
31
0
0
ARC
8
0
10
1173.6
20
2896.9
30
0
40
5.597946
50
204.596427
51
215.335556
0
LINE
8
0
10
1169.03
20
2893.66
30
0
11
1170.38
21
2891.32
31
0
0
LINE
8
0
10
1170.38
20
2891.32
30
0
11
1173.07
21
2891.32
31
0
0
ARC
8
0
10
1173.6
20
2896.9
30
0
40
5.605114
50
264.574205
51
275.425795
0
LINE
8
0
10
1174.13
20
2891.32
30
0
11
1176.82
21
2891.32
31
0
0
LINE
8
0
10
1176.82
20
2891.32
30
0
11
1178.17
21
2893.66
31
0
0
ARC
8
0
10
1173.6
20
2896.9
30
0
40
5.602009
50
324.664444
51
335.403573
0
LINE
8
0
10
1178.69
20
2894.57
30
0
11
1180.04
21
2896.9
31
0
0
LINE
8
0
10
1180.04
20
2896.9
30
0
11
1178.69
21
2899.23
31
0
0
ARC
8
0
10
1173.6
20
2896.9
30
0
40
5.597946
50
24.596427
51
35.335556
0
LINE
8
0
10
1178.17
20
2900.14
30
0
11
1176.82
21
2902.47
31
0
0
LINE
8
0
10
1176.82
20
2902.47
30
0
11
1174.13
21
2902.47
31
0
0
ARC
8
0
10
1173.6
20
2896.9
30
0
40
5.595159
50
84.564522
51
95.435478
0
LINE
8
0
10
1173.07
20
2902.47
30
0
11
1170.38
21
2902.47
31
0
0
LINE
8
0
10
1170.38
20
2902.47
30
0
11
1169.72
21
2901.32
31
0
0
LINE
8
0
10
1416.05
20
181.7
30
0
11
1416.05
21
184.7
31
0
0
LINE
8
0
10
1416.05
20
184.7
30
0
11
1416.05
21
2404.35
31
0
0
LINE
8
0
10
1416.05
20
2404.35
30
0
11
1415.05
21
2404.35
31
0
0
LINE
8
0
10
1415.05
20
2404.35
30
0
11
1415.05
21
2663.9
31
0
0
ARC
8
0
10
1423
20
2663.9
30
0
40
7.95
50
90
51
180
0
LINE
8
0
10
1423
20
2671.85
30
0
11
1467
21
2671.85
31
0
0
ARC
8
0
10
1467
20
2679.9
30
0
40
8.05
50
270
51
0
0
LINE
8
0
10
1475.05
20
2679.9
30
0
11
1475.05
21
2929.95
31
0
0
LINE
8
0
10
1475.05
20
2929.95
30
0
11
1400.05
21
2929.95
31
0
0
LINE
8
0
10
1400.05
20
2929.95
30
0
11
1400.05
21
2984.15
31
0
0
LINE
8
0
10
1400.05
20
2984.15
30
0
11
391.95
21
2984.15
31
0
0
LINE
8
0
10
391.95
20
2984.15
30
0
11
391.95
21
2929.95
31
0
0
LINE
8
0
10
391.95
20
2929.95
30
0
11
316.95
21
2929.95
31
0
0
LINE
8
0
10
316.95
20
2929.95
30
0
11
316.95
21
2679.9
31
0
0
ARC
8
0
10
325
20
2679.9
30
0
40
8.05
50
180
51
270
0
LINE
8
0
10
325
20
2671.85
30
0
11
369
21
2671.85
31
0
0
ARC
8
0
10
369
20
2663.9
30
0
40
7.95
50
0
51
90
0
LINE
8
0
10
376.95
20
2663.9
30
0
11
376.95
21
2404.35
31
0
0
LINE
8
0
10
376.95
20
2404.35
30
0
11
375.95
21
2404.35
31
0
0
LINE
8
0
10
375.95
20
2404.35
30
0
11
375.95
21
184.65
31
0
0
LINE
8
0
10
375.95
20
184.65
30
0
11
415.95
21
184.65
31
0
0
LINE
8
0
10
415.95
20
184.65
30
0
11
415.95
21
180.65
31
0
0
LINE
8
0
10
415.95
20
180.65
30
0
11
1376.05
21
180.65
31
0
0
LINE
8
0
10
1376.05
20
180.65
30
0
11
1376.05
21
184.65
31
0
0
LINE
8
0
10
1376.05
20
184.65
30
0
11
1416
21
184.65
31
0
0
ENDSEC
0
EOF
