0
SECTION
2
HEADER
9
$ACADVER
1
AC1009
0
ENDSEC
0
SECTION
2
ENTITIES
0
LINE
8
0
10
421.04
20
2705.2
30
0
11
419.43
21
2702.41
31
0
0
LINE
8
0
10
419.43
20
2702.41
30
0
11
412.97
21
2702.41
31
0
0
LINE
8
0
10
412.97
20
2702.41
30
0
11
409.75
21
2708
31
0
0
LINE
8
0
10
409.75
20
2708
30
0
11
412.97
21
2713.59
31
0
0
LINE
8
0
10
412.97
20
2713.59
30
0
11
419.43
21
2713.59
31
0
0
LINE
8
0
10
419.43
20
2713.59
30
0
11
422.65
21
2708
31
0
0
LINE
8
0
10
422.65
20
2708
30
0
11
421.04
21
2705.2
31
0
0
LINE
8
0
10
391.04
20
2705.2
30
0
11
389.43
21
2702.41
31
0
0
LINE
8
0
10
389.43
20
2702.41
30
0
11
382.97
21
2702.41
31
0
0
LINE
8
0
10
382.97
20
2702.41
30
0
11
379.75
21
2708
31
0
0
LINE
8
0
10
379.75
20
2708
30
0
11
382.97
21
2713.59
31
0
0
LINE
8
0
10
382.97
20
2713.59
30
0
11
389.43
21
2713.59
31
0
0
LINE
8
0
10
389.43
20
2713.59
30
0
11
392.65
21
2708
31
0
0
LINE
8
0
10
392.65
20
2708
30
0
11
391.04
21
2705.2
31
0
0
ARC
8
0
10
406.2
20
2750.5
30
0
40
14.94
50
270
51
0
0
LINE
8
0
10
421.14
20
2750.5
30
0
11
421.14
21
2850.5
31
0
0
ARC
8
0
10
406.2
20
2850.5
30
0
40
14.94
50
0
51
180
0
LINE
8
0
10
391.26
20
2850.5
30
0
11
391.26
21
2750.5
31
0
0
ARC
8
0
10
406.2
20
2750.5
30
0
40
14.94
50
180
51
270
0
LINE
8
0
10
421.04
20
2905.2
30
0
11
419.43
21
2902.41
31
0
0
LINE
8
0
10
419.43
20
2902.41
30
0
11
412.97
21
2902.41
31
0
0
LINE
8
0
10
412.97
20
2902.41
30
0
11
409.75
21
2908
31
0
0
LINE
8
0
10
409.75
20
2908
30
0
11
412.97
21
2913.59
31
0
0
LINE
8
0
10
412.97
20
2913.59
30
0
11
419.43
21
2913.59
31
0
0
LINE
8
0
10
419.43
20
2913.59
30
0
11
422.65
21
2908
31
0
0
LINE
8
0
10
422.65
20
2908
30
0
11
421.04
21
2905.2
31
0
0
LINE
8
0
10
391.04
20
2905.2
30
0
11
389.43
21
2902.41
31
0
0
LINE
8
0
10
389.43
20
2902.41
30
0
11
382.97
21
2902.41
31
0
0
LINE
8
0
10
382.97
20
2902.41
30
0
11
379.75
21
2908
31
0
0
LINE
8
0
10
379.75
20
2908
30
0
11
382.97
21
2913.59
31
0
0
LINE
8
0
10
382.97
20
2913.59
30
0
11
389.43
21
2913.59
31
0
0
LINE
8
0
10
389.43
20
2913.59
30
0
11
392.65
21
2908
31
0
0
LINE
8
0
10
392.65
20
2908
30
0
11
391.04
21
2905.2
31
0
0
LINE
8
0
10
337
20
2925.56
30
0
11
341
21
2925.56
31
0
0
LINE
8
0
10
341
20
2925.56
30
0
11
422.2
21
2925.56
31
0
0
ARC
8
0
10
422.2
20
2920.5
30
0
40
5.06
50
0
51
90
0
LINE
8
0
10
427.26
20
2920.5
30
0
11
427.26
21
2897.5
31
0
0
ARC
8
0
10
432.2
20
2897.5
30
0
40
4.94
50
180
51
270
0
LINE
8
0
10
432.2
20
2892.56
30
0
11
448.26
21
2892.56
31
0
0
LINE
8
0
10
448.26
20
2892.56
30
0
11
448.26
21
2888.54
31
0
0
LINE
8
0
10
448.26
20
2888.54
30
0
11
445.64
21
2888.54
31
0
0
ARC
8
0
10
445.2
20
2888.6
30
0
40
0.444072
50
352.234834
51
277.765166
0
LINE
8
0
10
445.26
20
2888.16
30
0
11
445.26
21
2694.84
31
0
0
ARC
8
0
10
445.2
20
2694.4
30
0
40
0.444072
50
82.234834
51
7.765166
0
LINE
8
0
10
445.64
20
2694.46
30
0
11
448.26
21
2694.46
31
0
0
LINE
8
0
10
448.26
20
2694.46
30
0
11
448.26
21
2690.44
31
0
0
LINE
8
0
10
448.26
20
2690.44
30
0
11
340.94
21
2690.44
31
0
0
LINE
8
0
10
340.94
20
2690.44
30
0
11
340.94
21
2925.5
31
0
0
ENDSEC
0
EOF
