0
SECTION
2
HEADER
9
$ACADVER
1
AC1009
0
ENDSEC
0
SECTION
2
ENTITIES
0
LINE
8
0
10
1814.81
20
353.5
30
0
11
1389.22
21
353.5
31
0
0
LINE
8
0
10
1389.22
20
357.5
30
0
11
1814.81
21
357.5
31
0
0
LINE
8
0
10
1408.68
20
533
30
0
11
1404.93
21
526.5
31
0
0
LINE
8
0
10
1404.93
20
526.5
30
0
11
1397.43
21
526.5
31
0
0
LINE
8
0
10
1397.43
20
526.5
30
0
11
1393.67
21
533
31
0
0
LINE
8
0
10
1393.67
20
533
30
0
11
1397.43
21
539.5
31
0
0
LINE
8
0
10
1397.43
20
539.5
30
0
11
1404.93
21
539.5
31
0
0
LINE
8
0
10
1404.93
20
539.5
30
0
11
1408.68
21
533
31
0
0
LINE
8
0
10
1404.93
20
650.5
30
0
11
1397.43
21
650.5
31
0
0
LINE
8
0
10
1397.43
20
650.5
30
0
11
1393.67
21
657
31
0
0
LINE
8
0
10
1393.67
20
657
30
0
11
1397.43
21
663.5
31
0
0
LINE
8
0
10
1397.43
20
663.5
30
0
11
1404.93
21
663.5
31
0
0
LINE
8
0
10
1404.93
20
663.5
30
0
11
1408.68
21
657
31
0
0
LINE
8
0
10
1408.68
20
657
30
0
11
1404.93
21
650.5
31
0
0
LINE
8
0
10
1347.6
20
679.1
30
0
11
1489.01
21
679.1
31
0
0
LINE
8
0
10
1505.64
20
857.3
30
0
11
1362.16
21
857.3
31
0
0
LINE
8
0
10
1397.43
20
1434.5
30
0
11
1393.67
21
1441
31
0
0
LINE
8
0
10
1393.67
20
1441
30
0
11
1397.43
21
1447.5
31
0
0
LINE
8
0
10
1397.43
20
1447.5
30
0
11
1404.93
21
1447.5
31
0
0
LINE
8
0
10
1404.93
20
1447.5
30
0
11
1408.68
21
1441
31
0
0
LINE
8
0
10
1408.68
20
1441
30
0
11
1404.93
21
1434.5
31
0
0
LINE
8
0
10
1404.93
20
1434.5
30
0
11
1397.43
21
1434.5
31
0
0
LINE
8
0
10
1355.92
20
1496.9
30
0
11
1499.41
21
1496.9
31
0
0
LINE
8
0
10
1404.93
20
1558.5
30
0
11
1397.43
21
1558.5
31
0
0
LINE
8
0
10
1397.43
20
1558.5
30
0
11
1393.67
21
1565
31
0
0
LINE
8
0
10
1393.67
20
1565
30
0
11
1397.43
21
1571.5
31
0
0
LINE
8
0
10
1397.43
20
1571.5
30
0
11
1404.93
21
1571.5
31
0
0
LINE
8
0
10
1404.93
20
1571.5
30
0
11
1408.68
21
1565
31
0
0
LINE
8
0
10
1408.68
20
1565
30
0
11
1404.93
21
1558.5
31
0
0
LINE
8
0
10
1353.84
20
1675.1
30
0
11
1505.64
21
1675.1
31
0
0
LINE
8
0
10
1307.24
20
141.5
30
0
11
1245.57
21
141.5
31
0
0
LINE
8
0
10
1291.24
20
268.8
30
0
11
1292.86
21
271.6
31
0
0
LINE
8
0
10
1292.86
20
271.6
30
0
11
1299.32
21
271.6
31
0
0
LINE
8
0
10
1299.32
20
271.6
30
0
11
1302.56
21
266
31
0
0
LINE
8
0
10
1302.56
20
266
30
0
11
1299.32
21
260.4
31
0
0
LINE
8
0
10
1299.32
20
260.4
30
0
11
1292.86
21
260.4
31
0
0
LINE
8
0
10
1292.86
20
260.4
30
0
11
1289.62
21
266
31
0
0
LINE
8
0
10
1289.62
20
266
30
0
11
1291.24
21
268.8
31
0
0
LINE
8
0
10
1565.88
20
348.82
30
0
11
1563.79
21
350.9
31
0
0
ARC
8
0
10
1566.27
20
348.5
30
0
40
3.451145
50
135.939191
51
135
0
LINE
8
0
10
1565.97
20
388.48
30
0
11
1568.27
21
389.81
31
0
0
LINE
8
0
10
1568.27
20
389.81
30
0
11
1572.87
21
387.16
31
0
0
LINE
8
0
10
1572.87
20
387.16
30
0
11
1572.87
21
381.84
31
0
0
LINE
8
0
10
1572.87
20
381.84
30
0
11
1568.27
21
379.19
31
0
0
LINE
8
0
10
1568.27
20
379.19
30
0
11
1563.67
21
381.84
31
0
0
LINE
8
0
10
1563.67
20
381.84
30
0
11
1563.67
21
387.16
31
0
0
LINE
8
0
10
1563.67
20
387.16
30
0
11
1565.97
21
388.48
31
0
0
LINE
8
0
10
1605.97
20
388.48
30
0
11
1608.27
21
389.81
31
0
0
LINE
8
0
10
1608.27
20
389.81
30
0
11
1612.87
21
387.16
31
0
0
LINE
8
0
10
1612.87
20
387.16
30
0
11
1612.87
21
381.84
31
0
0
LINE
8
0
10
1612.87
20
381.84
30
0
11
1608.27
21
379.19
31
0
0
LINE
8
0
10
1608.27
20
379.19
30
0
11
1603.67
21
381.84
31
0
0
LINE
8
0
10
1603.67
20
381.84
30
0
11
1603.67
21
387.16
31
0
0
LINE
8
0
10
1603.67
20
387.16
30
0
11
1605.97
21
388.48
31
0
0
LINE
8
0
10
1588.27
20
443.45
30
0
11
1567.27
21
443.45
31
0
0
ARC
8
0
10
1567.27
20
440.5
30
0
40
2.95
50
90
51
180
0
LINE
8
0
10
1564.32
20
440.5
30
0
11
1564.32
21
396.5
31
0
0
ARC
8
0
10
1567.27
20
396.5
30
0
40
2.95
50
180
51
270
0
LINE
8
0
10
1567.27
20
393.55
30
0
11
1609.27
21
393.55
31
0
0
ARC
8
0
10
1609.27
20
396.5
30
0
40
2.95
50
270
51
0
0
LINE
8
0
10
1612.22
20
396.5
30
0
11
1612.22
21
440.5
31
0
0
ARC
8
0
10
1609.27
20
440.5
30
0
40
2.95
50
0
51
90
0
LINE
8
0
10
1609.27
20
443.45
30
0
11
1588.27
21
443.45
31
0
0
LINE
8
0
10
1585.97
20
457.48
30
0
11
1588.27
21
458.81
31
0
0
LINE
8
0
10
1588.27
20
458.81
30
0
11
1592.87
21
456.16
31
0
0
LINE
8
0
10
1592.87
20
456.16
30
0
11
1592.87
21
450.84
31
0
0
LINE
8
0
10
1592.87
20
450.84
30
0
11
1588.27
21
448.19
31
0
0
LINE
8
0
10
1588.27
20
448.19
30
0
11
1583.67
21
450.84
31
0
0
LINE
8
0
10
1583.67
20
450.84
30
0
11
1583.67
21
456.16
31
0
0
LINE
8
0
10
1583.67
20
456.16
30
0
11
1585.97
21
457.48
31
0
0
LINE
8
0
10
1588.27
20
513.45
30
0
11
1567.27
21
513.45
31
0
0
ARC
8
0
10
1567.27
20
510.5
30
0
40
2.95
50
90
51
180
0
LINE
8
0
10
1564.32
20
510.5
30
0
11
1564.32
21
466.5
31
0
0
ARC
8
0
10
1567.27
20
466.5
30
0
40
2.95
50
180
51
270
0
LINE
8
0
10
1567.27
20
463.55
30
0
11
1609.27
21
463.55
31
0
0
ARC
8
0
10
1609.27
20
466.5
30
0
40
2.95
50
270
51
0
0
LINE
8
0
10
1612.22
20
466.5
30
0
11
1612.22
21
510.5
31
0
0
ARC
8
0
10
1609.27
20
510.5
30
0
40
2.95
50
0
51
90
0
LINE
8
0
10
1609.27
20
513.45
30
0
11
1588.27
21
513.45
31
0
0
LINE
8
0
10
1605.97
20
526.48
30
0
11
1608.27
21
527.81
31
0
0
LINE
8
0
10
1608.27
20
527.81
30
0
11
1612.87
21
525.16
31
0
0
LINE
8
0
10
1612.87
20
525.16
30
0
11
1612.87
21
519.84
31
0
0
LINE
8
0
10
1612.87
20
519.84
30
0
11
1608.27
21
517.19
31
0
0
LINE
8
0
10
1608.27
20
517.19
30
0
11
1603.67
21
519.84
31
0
0
LINE
8
0
10
1603.67
20
519.84
30
0
11
1603.67
21
525.16
31
0
0
LINE
8
0
10
1603.67
20
525.16
30
0
11
1605.97
21
526.48
31
0
0
LINE
8
0
10
1565.97
20
526.48
30
0
11
1568.27
21
527.81
31
0
0
LINE
8
0
10
1568.27
20
527.81
30
0
11
1572.87
21
525.16
31
0
0
LINE
8
0
10
1572.87
20
525.16
30
0
11
1572.87
21
519.84
31
0
0
LINE
8
0
10
1572.87
20
519.84
30
0
11
1568.27
21
517.19
31
0
0
LINE
8
0
10
1568.27
20
517.19
30
0
11
1563.67
21
519.84
31
0
0
LINE
8
0
10
1563.67
20
519.84
30
0
11
1563.67
21
525.16
31
0
0
LINE
8
0
10
1563.67
20
525.16
30
0
11
1565.97
21
526.48
31
0
0
LINE
8
0
10
1564.23
20
542.46
30
0
11
1562.85
21
543.84
31
0
0
ARC
8
0
10
1564.27
20
542.5
30
0
40
1.952434
50
136.660282
51
135
0
LINE
8
0
10
1399.55
20
534.56
30
0
11
1397.47
21
536.64
31
0
0
ARC
8
0
10
1401.18
20
533
30
0
40
5.197471
50
135.545658
51
135
0
LINE
8
0
10
1399.55
20
658.56
30
0
11
1397.47
21
660.64
31
0
0
ARC
8
0
10
1401.18
20
657
30
0
40
5.197471
50
135.545658
51
135
0
LINE
8
0
10
1579.62
20
681.2
30
0
11
1579.62
21
683.25
31
0
0
LINE
8
0
10
1579.62
20
683.25
30
0
11
1591.52
21
683.25
31
0
0
LINE
8
0
10
1591.52
20
683.25
30
0
11
1591.52
21
679.15
31
0
0
LINE
8
0
10
1591.52
20
679.15
30
0
11
1579.62
21
679.15
31
0
0
LINE
8
0
10
1579.62
20
679.15
30
0
11
1579.62
21
681.2
31
0
0
LINE
8
0
10
1579.62
20
855.2
30
0
11
1579.62
21
853.15
31
0
0
LINE
8
0
10
1579.62
20
853.15
30
0
11
1591.52
21
853.15
31
0
0
LINE
8
0
10
1591.52
20
853.15
30
0
11
1591.52
21
857.25
31
0
0
LINE
8
0
10
1591.52
20
857.25
30
0
11
1579.62
21
857.25
31
0
0
LINE
8
0
10
1579.62
20
857.25
30
0
11
1579.62
21
855.2
31
0
0
ARC
8
0
10
1593.09
20
954.26
30
0
40
27.776112
50
130.883207
51
144.925168
0
ARC
8
0
10
1593.27
20
957
30
0
40
26.450643
50
150.013309
51
209.986691
0
ARC
8
0
10
1593.09
20
959.74
30
0
40
27.77363
50
215.074832
51
243.139755
0
ARC
8
0
10
1593.27
20
957
30
0
40
25.4522
50
239.989862
51
299.990641
0
ARC
8
0
10
1593.45
20
959.74
30
0
40
27.772288
50
296.84184
51
324.925168
0
ARC
8
0
10
1593.27
20
957
30
0
40
26.450643
50
330.013309
51
29.986691
0
ARC
8
0
10
1593.45
20
954.26
30
0
40
27.77363
50
35.074832
51
63.15816
0
ARC
8
0
10
1593.27
20
957
30
0
40
25.4472
50
60.009359
51
120.010138
0
ARC
8
0
10
1593.09
20
954.26
30
0
40
27.776805
50
116.860245
51
130.883207
0
LINE
8
0
10
1599.74
20
1069.45
30
0
11
1601.79
21
1069.45
31
0
0
LINE
8
0
10
1601.79
20
1069.45
30
0
11
1601.79
21
1058.55
31
0
0
LINE
8
0
10
1601.79
20
1058.55
30
0
11
1597.69
21
1058.55
31
0
0
LINE
8
0
10
1597.69
20
1058.55
30
0
11
1597.69
21
1069.45
31
0
0
LINE
8
0
10
1597.69
20
1069.45
30
0
11
1599.74
21
1069.45
31
0
0
LINE
8
0
10
1739.11
20
791
30
0
11
1739.11
21
788.95
31
0
0
LINE
8
0
10
1739.11
20
788.95
30
0
11
1786.01
21
788.95
31
0
0
LINE
8
0
10
1786.01
20
788.95
30
0
11
1786.01
21
793.05
31
0
0
LINE
8
0
10
1786.01
20
793.05
30
0
11
1739.11
21
793.05
31
0
0
LINE
8
0
10
1739.11
20
793.05
30
0
11
1739.11
21
791
31
0
0
LINE
8
0
10
1854.36
20
695.45
30
0
11
1824.36
21
695.45
31
0
0
ARC
8
0
10
1824.36
20
685.5
30
0
40
9.95
50
90
51
180
0
LINE
8
0
10
1814.41
20
685.5
30
0
11
1814.41
21
495.55
31
0
0
LINE
8
0
10
1814.41
20
495.55
30
0
11
1874.36
21
495.55
31
0
0
ARC
8
0
10
1874.36
20
505.5
30
0
40
9.95
50
270
51
0
0
LINE
8
0
10
1884.31
20
505.5
30
0
11
1884.31
21
695.45
31
0
0
LINE
8
0
10
1884.31
20
695.45
30
0
11
1854.36
21
695.45
31
0
0
LINE
8
0
10
1952.42
20
791
30
0
11
1952.42
21
788.95
31
0
0
LINE
8
0
10
1952.42
20
788.95
30
0
11
1970.32
21
788.95
31
0
0
LINE
8
0
10
1970.32
20
788.95
30
0
11
1970.32
21
793.05
31
0
0
LINE
8
0
10
1970.32
20
793.05
30
0
11
1952.42
21
793.05
31
0
0
LINE
8
0
10
1952.42
20
793.05
30
0
11
1952.42
21
791
31
0
0
LINE
8
0
10
1956.75
20
356.42
30
0
11
1954.67
21
358.51
31
0
0
ARC
8
0
10
1962.45
20
350.8
30
0
40
10.953196
50
135.25892
51
135.036989
0
LINE
8
0
10
1952.42
20
187
30
0
11
1952.42
21
184.95
31
0
0
LINE
8
0
10
1952.42
20
184.95
30
0
11
1970.32
21
184.95
31
0
0
LINE
8
0
10
1970.32
20
184.95
30
0
11
1970.32
21
189.05
31
0
0
LINE
8
0
10
1970.32
20
189.05
30
0
11
1952.42
21
189.05
31
0
0
LINE
8
0
10
1952.42
20
189.05
30
0
11
1952.42
21
187
31
0
0
LINE
8
0
10
1887.49
20
127.79
30
0
11
1885.41
21
129.88
31
0
0
ARC
8
0
10
1890.36
20
125
30
0
40
6.951036
50
135.408
51
135.058287
0
LINE
8
0
10
1837.49
20
127.79
30
0
11
1835.41
21
129.88
31
0
0
ARC
8
0
10
1840.36
20
125
30
0
40
6.951036
50
135.408
51
135.058287
0
LINE
8
0
10
1846.99
20
76.9
30
0
11
1843.49
21
80.4
31
0
0
LINE
8
0
10
1843.49
20
80.4
30
0
11
1833.96
21
70.87
31
0
0
ARC
8
0
10
1849.84
20
55
30
0
40
22.450641
50
135.018046
51
315
0
LINE
8
0
10
1865.71
20
39.13
30
0
11
1890.23
21
63.65
31
0
0
ARC
8
0
10
1874.36
20
79.52
30
0
40
22.443569
50
315
51
135
0
LINE
8
0
10
1858.48
20
95.4
30
0
11
1843.99
21
80.9
31
0
0
LINE
8
0
10
1819.49
20
32.79
30
0
11
1817.41
21
34.88
31
0
0
ARC
8
0
10
1822.36
20
30
30
0
40
6.951036
50
135.408
51
135.058287
0
LINE
8
0
10
1739.11
20
187
30
0
11
1739.11
21
184.95
31
0
0
LINE
8
0
10
1739.11
20
184.95
30
0
11
1786.01
21
184.95
31
0
0
LINE
8
0
10
1786.01
20
184.95
30
0
11
1786.01
21
189.05
31
0
0
LINE
8
0
10
1786.01
20
189.05
30
0
11
1739.11
21
189.05
31
0
0
LINE
8
0
10
1739.11
20
189.05
30
0
11
1739.11
21
187
31
0
0
LINE
8
0
10
1782.56
20
1020.09
30
0
11
1778.46
21
1017.32
31
0
0
ARC
8
0
10
1828.36
20
1051
30
0
40
60.202595
50
214.017378
51
213.352215
0
LINE
8
0
10
1599.74
20
1219.45
30
0
11
1601.79
21
1219.45
31
0
0
LINE
8
0
10
1601.79
20
1219.45
30
0
11
1601.79
21
1208.55
31
0
0
LINE
8
0
10
1601.79
20
1208.55
30
0
11
1597.69
21
1208.55
31
0
0
LINE
8
0
10
1597.69
20
1208.55
30
0
11
1597.69
21
1219.45
31
0
0
LINE
8
0
10
1597.69
20
1219.45
30
0
11
1599.74
21
1219.45
31
0
0
LINE
8
0
10
1739.11
20
1311
30
0
11
1739.11
21
1308.95
31
0
0
LINE
8
0
10
1739.11
20
1308.95
30
0
11
1786.01
21
1308.95
31
0
0
LINE
8
0
10
1786.01
20
1308.95
30
0
11
1786.01
21
1313.05
31
0
0
LINE
8
0
10
1786.01
20
1313.05
30
0
11
1739.11
21
1313.05
31
0
0
LINE
8
0
10
1739.11
20
1313.05
30
0
11
1739.11
21
1311
31
0
0
LINE
8
0
10
1952.42
20
1311
30
0
11
1952.42
21
1308.95
31
0
0
LINE
8
0
10
1952.42
20
1308.95
30
0
11
1970.32
21
1308.95
31
0
0
LINE
8
0
10
1970.32
20
1308.95
30
0
11
1970.32
21
1313.05
31
0
0
LINE
8
0
10
1970.32
20
1313.05
30
0
11
1952.42
21
1313.05
31
0
0
LINE
8
0
10
1952.42
20
1313.05
30
0
11
1952.42
21
1311
31
0
0
LINE
8
0
10
1399.55
20
1442.56
30
0
11
1397.47
21
1444.64
31
0
0
ARC
8
0
10
1401.18
20
1441
30
0
40
5.197471
50
135.545658
51
135
0
LINE
8
0
10
1291.24
20
1463.8
30
0
11
1292.86
21
1466.6
31
0
0
LINE
8
0
10
1292.86
20
1466.6
30
0
11
1299.32
21
1466.6
31
0
0
LINE
8
0
10
1299.32
20
1466.6
30
0
11
1302.56
21
1461
31
0
0
LINE
8
0
10
1302.56
20
1461
30
0
11
1299.32
21
1455.4
31
0
0
LINE
8
0
10
1299.32
20
1455.4
30
0
11
1292.86
21
1455.4
31
0
0
LINE
8
0
10
1292.86
20
1455.4
30
0
11
1289.62
21
1461
31
0
0
LINE
8
0
10
1289.62
20
1461
30
0
11
1291.24
21
1463.8
31
0
0
LINE
8
0
10
1399.55
20
1566.56
30
0
11
1397.47
21
1568.64
31
0
0
ARC
8
0
10
1401.18
20
1565
30
0
40
5.197471
50
135.545658
51
135
0
LINE
8
0
10
1579.62
20
1499
30
0
11
1579.62
21
1501.05
31
0
0
LINE
8
0
10
1579.62
20
1501.05
30
0
11
1591.52
21
1501.05
31
0
0
LINE
8
0
10
1591.52
20
1501.05
30
0
11
1591.52
21
1496.95
31
0
0
LINE
8
0
10
1591.52
20
1496.95
30
0
11
1579.62
21
1496.95
31
0
0
LINE
8
0
10
1579.62
20
1496.95
30
0
11
1579.62
21
1499
31
0
0
LINE
8
0
10
1579.62
20
1673
30
0
11
1579.62
21
1675.05
31
0
0
LINE
8
0
10
1579.62
20
1675.05
30
0
11
1591.52
21
1675.05
31
0
0
LINE
8
0
10
1591.52
20
1675.05
30
0
11
1591.52
21
1670.95
31
0
0
LINE
8
0
10
1591.52
20
1670.95
30
0
11
1579.62
21
1670.95
31
0
0
LINE
8
0
10
1579.62
20
1670.95
30
0
11
1579.62
21
1673
31
0
0
LINE
8
0
10
1608.27
20
1829.33
30
0
11
1613.22
21
1829.33
31
0
0
LINE
8
0
10
1613.22
20
1829.33
30
0
11
1613.22
21
1887
31
0
0
ARC
8
0
10
1610.27
20
1887
30
0
40
2.95
50
0
51
90
0
LINE
8
0
10
1610.27
20
1889.95
30
0
11
1601.14
21
1889.95
31
0
0
LINE
8
0
10
1601.14
20
1889.95
30
0
11
1601.14
21
1892.78
31
0
0
LINE
8
0
10
1601.14
20
1892.78
30
0
11
1589.24
21
1892.78
31
0
0
LINE
8
0
10
1589.24
20
1892.78
30
0
11
1589.24
21
1889.95
31
0
0
LINE
8
0
10
1589.24
20
1889.95
30
0
11
1540.37
21
1889.95
31
0
0
ARC
8
0
10
1540.37
20
1887
30
0
40
2.95
50
90
51
180
0
LINE
8
0
10
1537.42
20
1887
30
0
11
1537.42
21
1767
31
0
0
ARC
8
0
10
1540.37
20
1767
30
0
40
2.95
50
180
51
270
0
LINE
8
0
10
1540.37
20
1764.05
30
0
11
1589.24
21
1764.05
31
0
0
LINE
8
0
10
1589.24
20
1764.05
30
0
11
1589.24
21
1761.22
31
0
0
LINE
8
0
10
1589.24
20
1761.22
30
0
11
1601.14
21
1761.22
31
0
0
LINE
8
0
10
1601.14
20
1761.22
30
0
11
1601.14
21
1764.05
31
0
0
LINE
8
0
10
1601.14
20
1764.05
30
0
11
1610.27
21
1764.05
31
0
0
ARC
8
0
10
1610.27
20
1767
30
0
40
2.95
50
270
51
0
0
LINE
8
0
10
1613.22
20
1767
30
0
11
1613.22
21
1828.63
31
0
0
LINE
8
0
10
1679.31
20
1768.72
30
0
11
1679.31
21
1759.95
31
0
0
LINE
8
0
10
1679.31
20
1759.95
30
0
11
1681.41
21
1759.95
31
0
0
LINE
8
0
10
1681.41
20
1759.95
30
0
11
1681.41
21
1770.05
31
0
0
LINE
8
0
10
1681.41
20
1770.05
30
0
11
1679.31
21
1770.05
31
0
0
LINE
8
0
10
1679.31
20
1770.05
30
0
11
1679.31
21
1768.72
31
0
0
LINE
8
0
10
1679.31
20
1892.72
30
0
11
1679.31
21
1883.95
31
0
0
LINE
8
0
10
1679.31
20
1883.95
30
0
11
1681.41
21
1883.95
31
0
0
LINE
8
0
10
1681.41
20
1883.95
30
0
11
1681.41
21
1894.05
31
0
0
LINE
8
0
10
1681.41
20
1894.05
30
0
11
1679.31
21
1894.05
31
0
0
LINE
8
0
10
1679.31
20
1894.05
30
0
11
1679.31
21
1892.72
31
0
0
LINE
8
0
10
1739.11
20
1915
30
0
11
1739.11
21
1912.95
31
0
0
LINE
8
0
10
1739.11
20
1912.95
30
0
11
1786.01
21
1912.95
31
0
0
LINE
8
0
10
1786.01
20
1912.95
30
0
11
1786.01
21
1917.05
31
0
0
LINE
8
0
10
1786.01
20
1917.05
30
0
11
1739.11
21
1917.05
31
0
0
LINE
8
0
10
1739.11
20
1917.05
30
0
11
1739.11
21
1915
31
0
0
LINE
8
0
10
1819.49
20
2074.79
30
0
11
1817.41
21
2076.88
31
0
0
ARC
8
0
10
1822.36
20
2072
30
0
40
6.951036
50
135.408
51
135.058287
0
LINE
8
0
10
1848.5
20
2023.59
30
0
11
1845
21
2020.09
31
0
0
LINE
8
0
10
1845
20
2020.09
30
0
11
1858.48
21
2006.6
31
0
0
ARC
8
0
10
1874.36
20
2022.48
30
0
40
22.457711
50
225
51
45
0
LINE
8
0
10
1890.23
20
2038.35
30
0
11
1865.71
21
2062.87
31
0
0
ARC
8
0
10
1849.84
20
2047
30
0
40
22.443569
50
45
51
224.981954
0
LINE
8
0
10
1833.96
20
2031.13
30
0
11
1844.5
21
2020.59
31
0
0
LINE
8
0
10
1837.49
20
1979.79
30
0
11
1835.41
21
1981.88
31
0
0
ARC
8
0
10
1840.36
20
1977
30
0
40
6.951036
50
135.408
51
135.058287
0
LINE
8
0
10
1887.49
20
1979.79
30
0
11
1885.41
21
1981.88
31
0
0
ARC
8
0
10
1890.36
20
1977
30
0
40
6.951036
50
135.408
51
135.058287
0
LINE
8
0
10
1952.42
20
1915
30
0
11
1952.42
21
1912.95
31
0
0
LINE
8
0
10
1952.42
20
1912.95
30
0
11
1970.32
21
1912.95
31
0
0
LINE
8
0
10
1970.32
20
1912.95
30
0
11
1970.32
21
1917.05
31
0
0
LINE
8
0
10
1970.32
20
1917.05
30
0
11
1952.42
21
1917.05
31
0
0
LINE
8
0
10
1952.42
20
1917.05
30
0
11
1952.42
21
1915
31
0
0
LINE
8
0
10
1956.75
20
1756.42
30
0
11
1954.67
21
1758.51
31
0
0
ARC
8
0
10
1962.45
20
1750.8
30
0
40
10.953196
50
135.25892
51
135.036989
0
LINE
8
0
10
1882.73
20
1658.06
30
0
11
1880.65
21
1660.14
31
0
0
ARC
8
0
10
1884.36
20
1656.5
30
0
40
5.197471
50
135.545658
51
135
0
LINE
8
0
10
1844.36
20
1606.45
30
0
11
1814.41
21
1606.45
31
0
0
LINE
8
0
10
1814.41
20
1606.45
30
0
11
1814.41
21
1416.5
31
0
0
ARC
8
0
10
1824.36
20
1416.5
30
0
40
9.95
50
180
51
270
0
LINE
8
0
10
1824.36
20
1406.55
30
0
11
1884.31
21
1406.55
31
0
0
LINE
8
0
10
1884.31
20
1406.55
30
0
11
1884.31
21
1596.5
31
0
0
ARC
8
0
10
1874.36
20
1596.5
30
0
40
9.95
50
0
51
90
0
LINE
8
0
10
1874.36
20
1606.45
30
0
11
1844.36
21
1606.45
31
0
0
LINE
8
0
10
1995.45
20
40.95
30
0
11
1992.45
21
40.95
31
0
0
LINE
8
0
10
1992.45
20
40.95
30
0
11
1931.18
21
40.95
31
0
0
ARC
8
0
10
1924.69
20
33.41
30
0
40
9.948452
50
49.280016
51
167.639819
0
LINE
8
0
10
1914.97
20
35.54
30
0
11
1884.38
21
4.95
31
0
0
LINE
8
0
10
1884.38
20
4.95
30
0
11
1632.12
21
4.95
31
0
0
LINE
8
0
10
1632.12
20
4.95
30
0
11
1632.12
21
44.95
31
0
0
LINE
8
0
10
1632.12
20
44.95
30
0
11
1269.54
21
44.95
31
0
0
LINE
8
0
10
1269.54
20
44.95
30
0
11
1269.54
21
49.05
31
0
0
LINE
8
0
10
1269.54
20
49.05
30
0
11
1270.04
21
49.05
31
0
0
LINE
8
0
10
1270.04
20
49.05
30
0
11
1270.04
21
83.95
31
0
0
LINE
8
0
10
1270.04
20
83.95
30
0
11
1269.54
21
83.95
31
0
0
LINE
8
0
10
1269.54
20
83.95
30
0
11
1269.54
21
90.05
31
0
0
LINE
8
0
10
1269.54
20
90.05
30
0
11
1274.04
21
90.05
31
0
0
LINE
8
0
10
1274.04
20
90.05
30
0
11
1274.04
21
91.95
31
0
0
LINE
8
0
10
1274.04
20
91.95
30
0
11
1236.95
21
91.95
31
0
0
LINE
8
0
10
1236.95
20
91.95
30
0
11
1236.95
21
2010.05
31
0
0
LINE
8
0
10
1236.95
20
2010.05
30
0
11
1274.04
21
2010.05
31
0
0
LINE
8
0
10
1274.04
20
2010.05
30
0
11
1274.04
21
2011.95
31
0
0
LINE
8
0
10
1274.04
20
2011.95
30
0
11
1269.54
21
2011.95
31
0
0
LINE
8
0
10
1269.54
20
2011.95
30
0
11
1269.54
21
2018.05
31
0
0
LINE
8
0
10
1269.54
20
2018.05
30
0
11
1270.04
21
2018.05
31
0
0
LINE
8
0
10
1270.04
20
2018.05
30
0
11
1270.04
21
2052.95
31
0
0
LINE
8
0
10
1270.04
20
2052.95
30
0
11
1269.54
21
2052.95
31
0
0
LINE
8
0
10
1269.54
20
2052.95
30
0
11
1269.54
21
2057.05
31
0
0
LINE
8
0
10
1269.54
20
2057.05
30
0
11
1632.12
21
2057.05
31
0
0
LINE
8
0
10
1632.12
20
2057.05
30
0
11
1632.12
21
2097.05
31
0
0
LINE
8
0
10
1632.12
20
2097.05
30
0
11
1884.38
21
2097.05
31
0
0
LINE
8
0
10
1884.38
20
2097.05
30
0
11
1913.82
21
2067.61
31
0
0
ARC
8
0
10
1923.67
20
2069
30
0
40
9.947593
50
188.032356
51
306.950531
0
LINE
8
0
10
1929.65
20
2061.05
30
0
11
1992.5
21
2061.05
31
0
0
LINE
8
0
10
1992.5
20
2061.05
30
0
11
1992.5
21
41
31
0
0
ENDSEC
0
EOF
