0
SECTION
2
HEADER
9
$ACADVER
1
AC1009
0
ENDSEC
0
SECTION
2
ENTITIES
0
LINE
8
0
10
230.18
20
2108.2
30
0
11
250.18
21
2108.2
31
0
0
LINE
8
0
10
250.18
20
2108.2
30
0
11
250.18
21
2148.2
31
0
0
LINE
8
0
10
250.18
20
2148.2
30
0
11
230.18
21
2148.2
31
0
0
LINE
8
0
10
120.18
20
2148.2
30
0
11
100.18
21
2148.2
31
0
0
LINE
8
0
10
100.18
20
2148.2
30
0
11
100.18
21
2108.2
31
0
0
LINE
8
0
10
100.18
20
2108.2
30
0
11
120.18
21
2108.2
31
0
0
LINE
8
0
10
47.54
20
2108.2
30
0
11
27.54
21
2108.2
31
0
0
LINE
8
0
10
27.54
20
2148.2
30
0
11
47.54
21
2148.2
31
0
0
LINE
8
0
10
112.63
20
2319.2
30
0
11
245.37
21
2319.2
31
0
0
LINE
8
0
10
178.93
20
2422.5
30
0
11
171.43
21
2422.5
31
0
0
LINE
8
0
10
171.43
20
2422.5
30
0
11
167.67
21
2429
31
0
0
LINE
8
0
10
167.67
20
2429
30
0
11
171.43
21
2435.5
31
0
0
LINE
8
0
10
171.43
20
2435.5
30
0
11
178.93
21
2435.5
31
0
0
LINE
8
0
10
178.93
20
2435.5
30
0
11
182.68
21
2429
31
0
0
LINE
8
0
10
182.68
20
2429
30
0
11
178.93
21
2422.5
31
0
0
LINE
8
0
10
135.03
20
2497.2
30
0
11
263.34
21
2497.2
31
0
0
LINE
8
0
10
230.18
20
2513.2
30
0
11
250.18
21
2513.2
31
0
0
LINE
8
0
10
250.18
20
2513.2
30
0
11
250.18
21
2553.2
31
0
0
LINE
8
0
10
250.18
20
2553.2
30
0
11
230.18
21
2553.2
31
0
0
LINE
8
0
10
182.68
20
2553
30
0
11
178.93
21
2546.5
31
0
0
LINE
8
0
10
178.93
20
2546.5
30
0
11
171.43
21
2546.5
31
0
0
LINE
8
0
10
171.43
20
2546.5
30
0
11
167.67
21
2553
31
0
0
LINE
8
0
10
167.67
20
2553
30
0
11
171.43
21
2559.5
31
0
0
LINE
8
0
10
171.43
20
2559.5
30
0
11
178.93
21
2559.5
31
0
0
LINE
8
0
10
178.93
20
2559.5
30
0
11
182.68
21
2553
31
0
0
LINE
8
0
10
120.18
20
2553.2
30
0
11
100.18
21
2553.2
31
0
0
LINE
8
0
10
100.18
20
2553.2
30
0
11
100.18
21
2513.2
31
0
0
LINE
8
0
10
100.18
20
2513.2
30
0
11
120.18
21
2513.2
31
0
0
LINE
8
0
10
47.54
20
2513.2
30
0
11
27.54
21
2513.2
31
0
0
LINE
8
0
10
27.54
20
2553.2
30
0
11
47.54
21
2553.2
31
0
0
LINE
8
0
10
127.17
20
3137.4
30
0
11
252.87
21
3137.4
31
0
0
LINE
8
0
10
247.63
20
3315.6
30
0
11
132.41
21
3315.6
31
0
0
LINE
8
0
10
167.67
20
3337
30
0
11
171.43
21
3343.5
31
0
0
LINE
8
0
10
171.43
20
3343.5
30
0
11
178.93
21
3343.5
31
0
0
LINE
8
0
10
178.93
20
3343.5
30
0
11
182.68
21
3337
31
0
0
LINE
8
0
10
182.68
20
3337
30
0
11
178.93
21
3330.5
31
0
0
LINE
8
0
10
178.93
20
3330.5
30
0
11
171.43
21
3330.5
31
0
0
LINE
8
0
10
171.43
20
3330.5
30
0
11
167.67
21
3337
31
0
0
LINE
8
0
10
171.43
20
3454.5
30
0
11
167.67
21
3461
31
0
0
LINE
8
0
10
167.67
20
3461
30
0
11
171.43
21
3467.5
31
0
0
LINE
8
0
10
171.43
20
3467.5
30
0
11
178.93
21
3467.5
31
0
0
LINE
8
0
10
178.93
20
3467.5
30
0
11
182.68
21
3461
31
0
0
LINE
8
0
10
182.68
20
3461
30
0
11
178.93
21
3454.5
31
0
0
LINE
8
0
10
178.93
20
3454.5
30
0
11
171.43
21
3454.5
31
0
0
LINE
8
0
10
162.72
20
3636.5
30
0
11
588.81
21
3636.5
31
0
0
LINE
8
0
10
588.81
20
3640.5
30
0
11
162.72
21
3640.5
31
0
0
LINE
8
0
10
78.74
20
3852.5
30
0
11
27.64
21
3852.5
31
0
0
LINE
8
0
10
70.09
20
3733.6
30
0
11
73.32
21
3733.6
31
0
0
LINE
8
0
10
73.32
20
3733.6
30
0
11
76.56
21
3728
31
0
0
LINE
8
0
10
76.56
20
3728
30
0
11
73.32
21
3722.4
31
0
0
LINE
8
0
10
73.32
20
3722.4
30
0
11
66.86
21
3722.4
31
0
0
LINE
8
0
10
66.86
20
3722.4
30
0
11
63.62
21
3728
31
0
0
LINE
8
0
10
63.62
20
3728
30
0
11
66.86
21
3733.6
31
0
0
LINE
8
0
10
66.86
20
3733.6
30
0
11
70.09
21
3733.6
31
0
0
LINE
8
0
10
175.13
20
3462.25
30
0
11
175.13
21
3466.2
31
0
0
ARC
8
0
10
175.18
20
3461
30
0
40
5.20024
50
90.550904
51
90
0
LINE
8
0
10
175.13
20
3338.25
30
0
11
175.13
21
3342.2
31
0
0
ARC
8
0
10
175.18
20
3337
30
0
40
5.20024
50
90.550904
51
90
0
LINE
8
0
10
358.8
20
3315.55
30
0
11
352.85
21
3315.55
31
0
0
LINE
8
0
10
352.85
20
3315.55
30
0
11
352.85
21
3311.45
31
0
0
LINE
8
0
10
352.85
20
3311.45
30
0
11
364.75
21
3311.45
31
0
0
LINE
8
0
10
364.75
20
3311.45
30
0
11
364.75
21
3315.55
31
0
0
LINE
8
0
10
364.75
20
3315.55
30
0
11
358.8
21
3315.55
31
0
0
LINE
8
0
10
358.8
20
3141.55
30
0
11
352.85
21
3141.55
31
0
0
LINE
8
0
10
352.85
20
3141.55
30
0
11
352.85
21
3137.45
31
0
0
LINE
8
0
10
352.85
20
3137.45
30
0
11
364.75
21
3137.45
31
0
0
LINE
8
0
10
364.75
20
3137.45
30
0
11
364.75
21
3141.55
31
0
0
LINE
8
0
10
364.75
20
3141.55
30
0
11
358.8
21
3141.55
31
0
0
LINE
8
0
10
536.56
20
3205.05
30
0
11
513.11
21
3205.05
31
0
0
LINE
8
0
10
513.11
20
3205.05
30
0
11
513.11
21
3200.95
31
0
0
LINE
8
0
10
513.11
20
3200.95
30
0
11
560.01
21
3200.95
31
0
0
LINE
8
0
10
560.01
20
3200.95
30
0
11
560.01
21
3205.05
31
0
0
LINE
8
0
10
560.01
20
3205.05
30
0
11
536.56
21
3205.05
31
0
0
LINE
8
0
10
618.36
20
3498.45
30
0
11
588.41
21
3498.45
31
0
0
LINE
8
0
10
588.41
20
3498.45
30
0
11
588.41
21
3308.5
31
0
0
ARC
8
0
10
598.36
20
3308.5
30
0
40
9.95
50
180
51
270
0
LINE
8
0
10
598.36
20
3298.55
30
0
11
658.31
21
3298.55
31
0
0
LINE
8
0
10
658.31
20
3298.55
30
0
11
658.31
21
3488.5
31
0
0
ARC
8
0
10
648.36
20
3488.5
30
0
40
9.95
50
0
51
90
0
LINE
8
0
10
648.36
20
3498.45
30
0
11
618.36
21
3498.45
31
0
0
LINE
8
0
10
736.4
20
3649.8
30
0
11
736.4
21
3653.75
31
0
0
ARC
8
0
10
736.45
20
3642.8
30
0
40
10.950114
50
90.261623
51
90
0
LINE
8
0
10
735.37
20
3809.05
30
0
11
726.42
21
3809.05
31
0
0
LINE
8
0
10
726.42
20
3809.05
30
0
11
726.42
21
3804.95
31
0
0
LINE
8
0
10
726.42
20
3804.95
30
0
11
744.32
21
3804.95
31
0
0
LINE
8
0
10
744.32
20
3804.95
30
0
11
744.32
21
3809.05
31
0
0
LINE
8
0
10
744.32
20
3809.05
30
0
11
735.37
21
3809.05
31
0
0
LINE
8
0
10
664.31
20
3872
30
0
11
664.31
21
3875.95
31
0
0
ARC
8
0
10
664.36
20
3869
30
0
40
6.95018
50
90.412193
51
90
0
ARC
8
0
10
623.84
20
3939
30
0
40
22.450641
50
135.018046
51
224.981954
0
LINE
8
0
10
607.96
20
3923.13
30
0
11
632.48
21
3898.6
31
0
0
ARC
8
0
10
648.36
20
3914.48
30
0
40
22.457711
50
225
51
45
0
LINE
8
0
10
664.23
20
3930.35
30
0
11
639.71
21
3954.87
31
0
0
ARC
8
0
10
623.84
20
3939
30
0
40
22.443569
50
45
51
135.018046
0
LINE
8
0
10
596.31
20
3967
30
0
11
596.31
21
3970.95
31
0
0
ARC
8
0
10
596.36
20
3964
30
0
40
6.95018
50
90.412193
51
90
0
LINE
8
0
10
614.31
20
3872
30
0
11
614.31
21
3875.95
31
0
0
ARC
8
0
10
614.36
20
3869
30
0
40
6.95018
50
90.412193
51
90
0
LINE
8
0
10
536.56
20
3809.05
30
0
11
513.11
21
3809.05
31
0
0
LINE
8
0
10
513.11
20
3809.05
30
0
11
513.11
21
3804.95
31
0
0
LINE
8
0
10
513.11
20
3804.95
30
0
11
560.01
21
3804.95
31
0
0
LINE
8
0
10
560.01
20
3804.95
30
0
11
560.01
21
3809.05
31
0
0
LINE
8
0
10
560.01
20
3809.05
30
0
11
536.56
21
3809.05
31
0
0
LINE
8
0
10
735.37
20
3205.05
30
0
11
726.42
21
3205.05
31
0
0
LINE
8
0
10
726.42
20
3205.05
30
0
11
726.42
21
3200.95
31
0
0
LINE
8
0
10
726.42
20
3200.95
30
0
11
744.32
21
3200.95
31
0
0
LINE
8
0
10
744.32
20
3200.95
30
0
11
744.32
21
3205.05
31
0
0
LINE
8
0
10
744.32
20
3205.05
30
0
11
735.37
21
3205.05
31
0
0
LINE
8
0
10
372.97
20
2935.45
30
0
11
370.92
21
2935.45
31
0
0
LINE
8
0
10
370.92
20
2935.45
30
0
11
370.92
21
2924.55
31
0
0
LINE
8
0
10
370.92
20
2924.55
30
0
11
375.02
21
2924.55
31
0
0
LINE
8
0
10
375.02
20
2924.55
30
0
11
375.02
21
2935.45
31
0
0
LINE
8
0
10
375.02
20
2935.45
30
0
11
372.97
21
2935.45
31
0
0
LINE
8
0
10
372.97
20
2785.45
30
0
11
370.92
21
2785.45
31
0
0
LINE
8
0
10
370.92
20
2785.45
30
0
11
370.92
21
2774.55
31
0
0
LINE
8
0
10
370.92
20
2774.55
30
0
11
375.02
21
2774.55
31
0
0
LINE
8
0
10
375.02
20
2774.55
30
0
11
375.02
21
2785.45
31
0
0
LINE
8
0
10
375.02
20
2785.45
30
0
11
372.97
21
2785.45
31
0
0
LINE
8
0
10
536.56
20
2685.05
30
0
11
513.11
21
2685.05
31
0
0
LINE
8
0
10
513.11
20
2685.05
30
0
11
513.11
21
2680.95
31
0
0
LINE
8
0
10
513.11
20
2680.95
30
0
11
560.01
21
2680.95
31
0
0
LINE
8
0
10
560.01
20
2680.95
30
0
11
560.01
21
2685.05
31
0
0
LINE
8
0
10
560.01
20
2685.05
30
0
11
536.56
21
2685.05
31
0
0
LINE
8
0
10
628.36
20
2587.45
30
0
11
598.36
21
2587.45
31
0
0
ARC
8
0
10
598.36
20
2577.5
30
0
40
9.95
50
90
51
180
0
LINE
8
0
10
588.41
20
2577.5
30
0
11
588.41
21
2387.55
31
0
0
LINE
8
0
10
588.41
20
2387.55
30
0
11
648.36
21
2387.55
31
0
0
ARC
8
0
10
648.36
20
2397.5
30
0
40
9.95
50
270
51
0
0
LINE
8
0
10
658.31
20
2397.5
30
0
11
658.31
21
2587.45
31
0
0
LINE
8
0
10
658.31
20
2587.45
30
0
11
628.36
21
2587.45
31
0
0
LINE
8
0
10
735.37
20
2685.05
30
0
11
726.42
21
2685.05
31
0
0
LINE
8
0
10
726.42
20
2685.05
30
0
11
726.42
21
2680.95
31
0
0
LINE
8
0
10
726.42
20
2680.95
30
0
11
744.32
21
2680.95
31
0
0
LINE
8
0
10
744.32
20
2680.95
30
0
11
744.32
21
2685.05
31
0
0
LINE
8
0
10
744.32
20
2685.05
30
0
11
735.37
21
2685.05
31
0
0
LINE
8
0
10
602.81
20
2378.5
30
0
11
602.81
21
2382.45
31
0
0
ARC
8
0
10
602.86
20
2377.5
30
0
40
4.950253
50
90.578726
51
90
0
LINE
8
0
10
736.4
20
2249.8
30
0
11
736.4
21
2253.75
31
0
0
ARC
8
0
10
736.45
20
2242.8
30
0
40
10.950114
50
90.261623
51
90
0
LINE
8
0
10
735.37
20
2081.05
30
0
11
726.42
21
2081.05
31
0
0
LINE
8
0
10
726.42
20
2081.05
30
0
11
726.42
21
2076.95
31
0
0
LINE
8
0
10
726.42
20
2076.95
30
0
11
744.32
21
2076.95
31
0
0
LINE
8
0
10
744.32
20
2076.95
30
0
11
744.32
21
2081.05
31
0
0
LINE
8
0
10
744.32
20
2081.05
30
0
11
735.37
21
2081.05
31
0
0
LINE
8
0
10
664.31
20
2020
30
0
11
664.31
21
2023.95
31
0
0
ARC
8
0
10
664.36
20
2017
30
0
40
6.95018
50
90.412193
51
90
0
ARC
8
0
10
648.36
20
1971.52
30
0
40
22.450641
50
45.018046
51
135
0
LINE
8
0
10
632.48
20
1987.4
30
0
11
607.96
21
1962.87
31
0
0
ARC
8
0
10
623.84
20
1947
30
0
40
22.450641
50
135.018046
51
315
0
LINE
8
0
10
639.71
20
1931.13
30
0
11
664.23
21
1955.65
31
0
0
ARC
8
0
10
648.36
20
1971.52
30
0
40
22.443569
50
315
51
45.018046
0
LINE
8
0
10
614.31
20
2020
30
0
11
614.31
21
2023.95
31
0
0
ARC
8
0
10
614.36
20
2017
30
0
40
6.95018
50
90.412193
51
90
0
LINE
8
0
10
536.56
20
2081.05
30
0
11
513.11
21
2081.05
31
0
0
LINE
8
0
10
513.11
20
2081.05
30
0
11
513.11
21
2076.95
31
0
0
LINE
8
0
10
513.11
20
2076.95
30
0
11
560.01
21
2076.95
31
0
0
LINE
8
0
10
560.01
20
2076.95
30
0
11
560.01
21
2081.05
31
0
0
LINE
8
0
10
560.01
20
2081.05
30
0
11
536.56
21
2081.05
31
0
0
LINE
8
0
10
596.31
20
1925
30
0
11
596.31
21
1928.95
31
0
0
ARC
8
0
10
596.36
20
1922
30
0
40
6.95018
50
90.412193
51
90
0
LINE
8
0
10
678.31
20
1931.14
30
0
11
678.31
21
1934.59
31
0
0
ARC
8
0
10
678.36
20
1931.14
30
0
40
3.450362
50
90.830315
51
90
0
LINE
8
0
10
358.8
20
2323.05
30
0
11
352.85
21
2323.05
31
0
0
LINE
8
0
10
352.85
20
2323.05
30
0
11
352.85
21
2318.95
31
0
0
LINE
8
0
10
352.85
20
2318.95
30
0
11
364.75
21
2318.95
31
0
0
LINE
8
0
10
364.75
20
2318.95
30
0
11
364.75
21
2323.05
31
0
0
LINE
8
0
10
364.75
20
2323.05
30
0
11
358.8
21
2323.05
31
0
0
LINE
8
0
10
358.8
20
2497.75
30
0
11
352.85
21
2497.75
31
0
0
LINE
8
0
10
352.85
20
2497.75
30
0
11
352.85
21
2493.65
31
0
0
LINE
8
0
10
352.85
20
2493.65
30
0
11
364.75
21
2493.65
31
0
0
LINE
8
0
10
364.75
20
2493.65
30
0
11
364.75
21
2497.75
31
0
0
LINE
8
0
10
364.75
20
2497.75
30
0
11
358.8
21
2497.75
31
0
0
LINE
8
0
10
175.13
20
2554.25
30
0
11
175.13
21
2558.2
31
0
0
ARC
8
0
10
175.18
20
2553
30
0
40
5.20024
50
90.550904
51
90
0
LINE
8
0
10
175.13
20
2430.25
30
0
11
175.13
21
2434.2
31
0
0
ARC
8
0
10
175.18
20
2429
30
0
40
5.20024
50
90.550904
51
90
0
LINE
8
0
10
70.09
20
2059.6
30
0
11
73.32
21
2059.6
31
0
0
LINE
8
0
10
73.32
20
2059.6
30
0
11
76.56
21
2054
31
0
0
LINE
8
0
10
76.56
20
2054
30
0
11
73.32
21
2048.4
31
0
0
LINE
8
0
10
73.32
20
2048.4
30
0
11
66.86
21
2048.4
31
0
0
LINE
8
0
10
66.86
20
2048.4
30
0
11
63.62
21
2054
31
0
0
LINE
8
0
10
63.62
20
2054
30
0
11
66.86
21
2059.6
31
0
0
LINE
8
0
10
66.86
20
2059.6
30
0
11
70.09
21
2059.6
31
0
0
LINE
8
0
10
770.45
20
1932.95
30
0
11
766.45
21
1932.95
31
0
0
LINE
8
0
10
766.45
20
1932.95
30
0
11
703.65
21
1932.95
31
0
0
ARC
8
0
10
697.67
20
1925
30
0
40
9.94801
50
53.049469
51
171.967644
0
LINE
8
0
10
687.82
20
1926.39
30
0
11
658.38
21
1896.95
31
0
0
LINE
8
0
10
658.38
20
1896.95
30
0
11
406.12
21
1896.95
31
0
0
LINE
8
0
10
406.12
20
1896.95
30
0
11
406.12
21
1936.95
31
0
0
LINE
8
0
10
406.12
20
1936.95
30
0
11
44.04
21
1936.95
31
0
0
LINE
8
0
10
44.04
20
1936.95
30
0
11
44.04
21
1941.05
31
0
0
LINE
8
0
10
44.04
20
1941.05
30
0
11
44.54
21
1941.05
31
0
0
LINE
8
0
10
44.54
20
1941.05
30
0
11
44.54
21
1975.95
31
0
0
LINE
8
0
10
44.54
20
1975.95
30
0
11
44.04
21
1975.95
31
0
0
LINE
8
0
10
44.04
20
1975.95
30
0
11
44.04
21
1980.05
31
0
0
LINE
8
0
10
44.04
20
1980.05
30
0
11
56.04
21
1980.05
31
0
0
LINE
8
0
10
56.04
20
1980.05
30
0
11
56.04
21
1983.95
31
0
0
LINE
8
0
10
56.04
20
1983.95
30
0
11
10.95
21
1983.95
31
0
0
LINE
8
0
10
10.95
20
1983.95
30
0
11
10.95
21
3902.05
31
0
0
LINE
8
0
10
10.95
20
3902.05
30
0
11
56.04
21
3902.05
31
0
0
LINE
8
0
10
56.04
20
3902.05
30
0
11
56.04
21
3905.95
31
0
0
LINE
8
0
10
56.04
20
3905.95
30
0
11
44.04
21
3905.95
31
0
0
LINE
8
0
10
44.04
20
3905.95
30
0
11
44.04
21
3910.05
31
0
0
LINE
8
0
10
44.04
20
3910.05
30
0
11
44.54
21
3910.05
31
0
0
LINE
8
0
10
44.54
20
3910.05
30
0
11
44.54
21
3944.95
31
0
0
LINE
8
0
10
44.54
20
3944.95
30
0
11
44.04
21
3944.95
31
0
0
LINE
8
0
10
44.04
20
3944.95
30
0
11
44.04
21
3949.05
31
0
0
LINE
8
0
10
44.04
20
3949.05
30
0
11
406.12
21
3949.05
31
0
0
LINE
8
0
10
406.12
20
3949.05
30
0
11
406.12
21
3989.05
31
0
0
LINE
8
0
10
406.12
20
3989.05
30
0
11
658.38
21
3989.05
31
0
0
LINE
8
0
10
658.38
20
3989.05
30
0
11
687.82
21
3959.61
31
0
0
ARC
8
0
10
697.67
20
3961
30
0
40
9.947593
50
188.032356
51
306.950531
0
LINE
8
0
10
703.65
20
3953.05
30
0
11
766.5
21
3953.05
31
0
0
LINE
8
0
10
766.5
20
3953.05
30
0
11
766.5
21
1933
31
0
0
ENDSEC
0
EOF
