0
SECTION
2
HEADER
9
$ACADVER
1
AC1009
0
ENDSEC
0
SECTION
2
ENTITIES
0
LINE
8
0
10
95.75
20
1230.16
30
0
11
94.32
21
1231.59
31
0
0
LINE
8
0
10
94.32
20
1231.59
30
0
11
94.32
21
1235.87
31
0
0
LINE
8
0
10
94.32
20
1235.87
30
0
11
95.75
21
1237.3
31
0
0
LINE
8
0
10
95.75
20
1237.3
30
0
11
98.6
21
1237.3
31
0
0
LINE
8
0
10
98.6
20
1237.3
30
0
11
100.03
21
1235.87
31
0
0
LINE
8
0
10
100.03
20
1235.87
30
0
11
100.03
21
1231.59
31
0
0
LINE
8
0
10
100.03
20
1231.59
30
0
11
101.46
21
1230.16
31
0
0
LINE
8
0
10
101.46
20
1230.16
30
0
11
104.32
21
1230.16
31
0
0
LINE
8
0
10
104.32
20
1230.16
30
0
11
104.32
21
1235.87
31
0
0
LINE
8
0
10
104.32
20
1235.87
30
0
11
102.89
21
1237.3
31
0
0
LINE
8
0
10
104.32
20
1239.62
30
0
11
94.32
21
1245.34
31
0
0
LINE
8
0
10
94.32
20
1245.34
30
0
11
94.32
21
1238.19
31
0
0
LINE
8
0
10
100.03
20
1239.62
30
0
11
100.03
21
1243.91
31
0
0
LINE
8
0
10
100.03
20
1246.23
30
0
11
100.03
21
1251.94
31
0
0
LINE
8
0
10
100.03
20
1251.94
30
0
11
101.46
21
1253.37
31
0
0
LINE
8
0
10
101.46
20
1253.37
30
0
11
102.89
21
1253.37
31
0
0
LINE
8
0
10
102.89
20
1253.37
30
0
11
104.32
21
1251.94
31
0
0
LINE
8
0
10
104.32
20
1251.94
30
0
11
104.32
21
1247.66
31
0
0
LINE
8
0
10
104.32
20
1247.66
30
0
11
102.89
21
1246.23
31
0
0
LINE
8
0
10
102.89
20
1246.23
30
0
11
95.75
21
1246.23
31
0
0
LINE
8
0
10
95.75
20
1246.23
30
0
11
94.32
21
1247.66
31
0
0
LINE
8
0
10
94.32
20
1247.66
30
0
11
94.32
21
1251.94
31
0
0
LINE
8
0
10
94.32
20
1259.98
30
0
11
104.32
21
1255.69
31
0
0
LINE
8
0
10
104.32
20
1255.69
30
0
11
102.89
21
1254.26
31
0
0
LINE
8
0
10
102.89
20
1254.26
30
0
11
95.75
21
1254.26
31
0
0
LINE
8
0
10
95.75
20
1254.26
30
0
11
94.32
21
1255.69
31
0
0
LINE
8
0
10
94.32
20
1255.69
30
0
11
94.32
21
1259.98
31
0
0
LINE
8
0
10
94.32
20
1259.98
30
0
11
95.75
21
1261.41
31
0
0
LINE
8
0
10
95.75
20
1261.41
30
0
11
102.89
21
1261.41
31
0
0
LINE
8
0
10
102.89
20
1261.41
30
0
11
104.32
21
1259.98
31
0
0
LINE
8
0
10
104.32
20
1259.98
30
0
11
104.32
21
1255.69
31
0
0
LINE
8
0
10
95.75
20
1262.3
30
0
11
94.32
21
1263.73
31
0
0
LINE
8
0
10
94.32
20
1263.73
30
0
11
94.32
21
1268.01
31
0
0
LINE
8
0
10
94.32
20
1268.01
30
0
11
95.75
21
1269.44
31
0
0
LINE
8
0
10
95.75
20
1269.44
30
0
11
98.6
21
1269.44
31
0
0
LINE
8
0
10
98.6
20
1269.44
30
0
11
100.03
21
1268.01
31
0
0
LINE
8
0
10
100.03
20
1268.01
30
0
11
100.03
21
1263.73
31
0
0
LINE
8
0
10
100.03
20
1263.73
30
0
11
101.46
21
1262.3
31
0
0
LINE
8
0
10
101.46
20
1262.3
30
0
11
104.32
21
1262.3
31
0
0
LINE
8
0
10
104.32
20
1262.3
30
0
11
104.32
21
1268.01
31
0
0
LINE
8
0
10
104.32
20
1268.01
30
0
11
102.89
21
1269.44
31
0
0
LINE
8
0
10
83.28
20
2432.87
30
0
11
83.28
21
2430.1
31
0
0
LINE
8
0
10
199.49
20
2482.84
30
0
11
197.4
21
2484.92
31
0
0
ARC
8
0
10
199.52
20
2482.87
30
0
40
2.949051
50
135.961709
51
134.8626
0
LINE
8
0
10
224.49
20
2482.84
30
0
11
222.4
21
2484.92
31
0
0
ARC
8
0
10
224.52
20
2482.87
30
0
40
2.949051
50
135.961709
51
134.8626
0
LINE
8
0
10
224.49
20
2462.84
30
0
11
222.4
21
2464.92
31
0
0
ARC
8
0
10
224.52
20
2462.87
30
0
40
2.949051
50
135.961709
51
134.8626
0
LINE
8
0
10
225.41
20
2419.66
30
0
11
223.32
21
2421.75
31
0
0
ARC
8
0
10
228.27
20
2416.87
30
0
40
6.951036
50
135.408
51
135
0
LINE
8
0
10
222.58
20
2394.99
30
0
11
220.5
21
2397.08
31
0
0
ARC
8
0
10
228.27
20
2389.37
30
0
40
10.946095
50
135.222076
51
135
0
LINE
8
0
10
223.64
20
2366.43
30
0
11
221.56
21
2368.52
31
0
0
ARC
8
0
10
228.27
20
2361.87
30
0
40
9.447042
50
135.257315
51
135
0
LINE
8
0
10
225.66
20
1303.66
30
0
11
223.57
21
1305.75
31
0
0
ARC
8
0
10
228.52
20
1300.87
30
0
40
6.951036
50
135.408
51
135
0
LINE
8
0
10
225.66
20
1203.66
30
0
11
223.57
21
1205.75
31
0
0
ARC
8
0
10
228.52
20
1200.87
30
0
40
6.951036
50
135.408
51
135
0
LINE
8
0
10
49.12
20
71.64
30
0
11
49.12
21
68.87
31
0
0
LINE
8
0
10
83.28
20
68.87
30
0
11
83.28
21
71.64
31
0
0
LINE
8
0
10
223.64
20
144.43
30
0
11
221.56
21
146.52
31
0
0
ARC
8
0
10
228.27
20
139.87
30
0
40
9.447042
50
135.257315
51
135
0
LINE
8
0
10
222.58
20
117.99
30
0
11
220.5
21
120.08
31
0
0
ARC
8
0
10
228.27
20
112.37
30
0
40
10.946095
50
135.222076
51
135
0
LINE
8
0
10
225.41
20
87.66
30
0
11
223.32
21
89.75
31
0
0
ARC
8
0
10
228.27
20
84.87
30
0
40
6.951036
50
135.408
51
135
0
LINE
8
0
10
224.49
20
38.84
30
0
11
222.4
21
40.92
31
0
0
ARC
8
0
10
224.52
20
38.87
30
0
40
2.949051
50
135.961709
51
134.8626
0
LINE
8
0
10
224.49
20
18.84
30
0
11
222.4
21
20.92
31
0
0
ARC
8
0
10
224.52
20
18.87
30
0
40
2.949051
50
135.961709
51
134.8626
0
LINE
8
0
10
199.49
20
18.84
30
0
11
197.4
21
20.92
31
0
0
ARC
8
0
10
199.52
20
18.87
30
0
40
2.949051
50
135.961709
51
134.8626
0
LINE
8
0
10
176.52
20
66.92
30
0
11
179.52
21
66.92
31
0
0
LINE
8
0
10
179.52
20
66.92
30
0
11
181.47
21
66.92
31
0
0
LINE
8
0
10
181.47
20
66.92
30
0
11
181.47
21
67.82
31
0
0
LINE
8
0
10
181.47
20
67.82
30
0
11
86.34
21
67.82
31
0
0
LINE
8
0
10
86.34
20
67.82
30
0
11
85.32
21
68.84
31
0
0
LINE
8
0
10
85.32
20
68.84
30
0
11
83.5
21
71.38
31
0
0
LINE
8
0
10
83.5
20
71.38
30
0
11
82.2
21
72.53
31
0
0
LINE
8
0
10
82.2
20
72.53
30
0
11
81.25
21
72.8
31
0
0
LINE
8
0
10
81.25
20
72.8
30
0
11
81.25
21
70.82
31
0
0
LINE
8
0
10
81.25
20
70.82
30
0
11
51.15
21
70.82
31
0
0
LINE
8
0
10
51.15
20
70.82
30
0
11
51.15
21
72.8
31
0
0
LINE
8
0
10
51.15
20
72.8
30
0
11
50.2
21
72.53
31
0
0
LINE
8
0
10
50.2
20
72.53
30
0
11
48.9
21
71.38
31
0
0
LINE
8
0
10
48.9
20
71.38
30
0
11
47.07
21
68.84
31
0
0
LINE
8
0
10
47.07
20
68.84
30
0
11
40.68
21
62.44
31
0
0
ARC
8
0
10
76.03
20
97.87
30
0
40
50.04905
50
180
51
225.064759
0
LINE
8
0
10
25.98
20
97.87
30
0
11
25.98
21
1178.6
31
0
0
ARC
8
0
10
76.03
20
1178.6
30
0
40
50.05
50
134.943328
51
180
0
LINE
8
0
10
40.68
20
1214.02
30
0
11
47.07
21
1207.62
31
0
0
LINE
8
0
10
47.07
20
1207.62
30
0
11
48.9
21
1205.09
31
0
0
LINE
8
0
10
48.9
20
1205.09
30
0
11
50.2
21
1203.94
31
0
0
LINE
8
0
10
50.2
20
1203.94
30
0
11
51.15
21
1203.66
31
0
0
LINE
8
0
10
51.15
20
1203.66
30
0
11
51.15
21
1205.65
31
0
0
LINE
8
0
10
51.15
20
1205.65
30
0
11
81.25
21
1205.65
31
0
0
LINE
8
0
10
81.25
20
1205.65
30
0
11
81.25
21
1203.66
31
0
0
LINE
8
0
10
81.25
20
1203.66
30
0
11
82.2
21
1203.94
31
0
0
LINE
8
0
10
82.2
20
1203.94
30
0
11
83.5
21
1205.09
31
0
0
LINE
8
0
10
83.5
20
1205.09
30
0
11
85.33
21
1207.63
31
0
0
LINE
8
0
10
85.33
20
1207.63
30
0
11
86.31
21
1208.62
31
0
0
LINE
8
0
10
86.31
20
1208.62
30
0
11
86.31
21
1293.12
31
0
0
LINE
8
0
10
86.31
20
1293.12
30
0
11
85.32
21
1294.12
31
0
0
LINE
8
0
10
85.32
20
1294.12
30
0
11
83.5
21
1296.65
31
0
0
LINE
8
0
10
83.5
20
1296.65
30
0
11
82.2
21
1297.8
31
0
0
LINE
8
0
10
82.2
20
1297.8
30
0
11
81.25
21
1298.08
31
0
0
LINE
8
0
10
81.25
20
1298.08
30
0
11
81.25
21
1296.1
31
0
0
LINE
8
0
10
81.25
20
1296.1
30
0
11
51.15
21
1296.1
31
0
0
LINE
8
0
10
51.15
20
1296.1
30
0
11
51.15
21
1298.08
31
0
0
LINE
8
0
10
51.15
20
1298.08
30
0
11
50.2
21
1297.8
31
0
0
LINE
8
0
10
50.2
20
1297.8
30
0
11
48.9
21
1296.65
31
0
0
LINE
8
0
10
48.9
20
1296.65
30
0
11
47.07
21
1294.11
31
0
0
LINE
8
0
10
47.07
20
1294.11
30
0
11
40.68
21
1287.72
31
0
0
ARC
8
0
10
76.03
20
1323.15
30
0
40
50.04905
50
180
51
225.064759
0
LINE
8
0
10
25.98
20
1323.15
30
0
11
25.98
21
2403.87
31
0
0
ARC
8
0
10
76.03
20
2403.87
30
0
40
50.05
50
134.935241
51
180
0
LINE
8
0
10
40.68
20
2439.3
30
0
11
47.07
21
2432.9
31
0
0
LINE
8
0
10
47.07
20
2432.9
30
0
11
48.9
21
2430.36
31
0
0
LINE
8
0
10
48.9
20
2430.36
30
0
11
50.2
21
2429.21
31
0
0
LINE
8
0
10
50.2
20
2429.21
30
0
11
51.15
21
2428.94
31
0
0
LINE
8
0
10
51.15
20
2428.94
30
0
11
51.15
21
2430.92
31
0
0
LINE
8
0
10
51.15
20
2430.92
30
0
11
81.25
21
2430.92
31
0
0
LINE
8
0
10
81.25
20
2430.92
30
0
11
81.25
21
2428.94
31
0
0
LINE
8
0
10
81.25
20
2428.94
30
0
11
82.2
21
2429.21
31
0
0
LINE
8
0
10
82.2
20
2429.21
30
0
11
83.5
21
2430.36
31
0
0
LINE
8
0
10
83.5
20
2430.36
30
0
11
85.33
21
2432.91
31
0
0
LINE
8
0
10
85.33
20
2432.91
30
0
11
86.34
21
2433.92
31
0
0
LINE
8
0
10
86.34
20
2433.92
30
0
11
181.47
21
2433.92
31
0
0
LINE
8
0
10
181.47
20
2433.92
30
0
11
181.47
21
2434.82
31
0
0
LINE
8
0
10
181.47
20
2434.82
30
0
11
179.47
21
2434.82
31
0
0
LINE
8
0
10
179.47
20
2434.82
30
0
11
179.47
21
2494.87
31
0
0
ARC
8
0
10
181.52
20
2494.87
30
0
40
2.05
50
90
51
180
0
LINE
8
0
10
181.52
20
2496.92
30
0
11
239.52
21
2496.92
31
0
0
ARC
8
0
10
239.52
20
2491.87
30
0
40
5.05
50
0
51
90
0
LINE
8
0
10
244.57
20
2491.87
30
0
11
244.57
21
9.87
31
0
0
ARC
8
0
10
239.52
20
9.87
30
0
40
5.05
50
270
51
0
0
LINE
8
0
10
239.52
20
4.82
30
0
11
181.52
21
4.82
31
0
0
ARC
8
0
10
181.52
20
6.87
30
0
40
2.05
50
180
51
270
0
LINE
8
0
10
179.47
20
6.87
30
0
11
179.47
21
66.87
31
0
0
ENDSEC
0
EOF
