0
SECTION
2
HEADER
9
$ACADVER
1
AC1009
0
ENDSEC
0
SECTION
2
ENTITIES
0
ARC
8
0
10
464
20
196.9
30
0
40
5.95
50
90
51
180
0
LINE
8
0
10
458.05
20
196.9
30
0
11
458.05
21
194.9
31
0
0
ARC
8
0
10
464
20
194.9
30
0
40
5.95
50
180
51
0
0
LINE
8
0
10
469.95
20
194.9
30
0
11
469.95
21
196.9
31
0
0
ARC
8
0
10
464
20
196.9
30
0
40
5.95
50
0
51
90
0
ARC
8
0
10
464
20
356.9
30
0
40
5.95
50
90
51
180
0
LINE
8
0
10
458.05
20
356.9
30
0
11
458.05
21
354.9
31
0
0
ARC
8
0
10
464
20
354.9
30
0
40
5.95
50
180
51
0
0
LINE
8
0
10
469.95
20
354.9
30
0
11
469.95
21
356.9
31
0
0
ARC
8
0
10
464
20
356.9
30
0
40
5.95
50
0
51
90
0
LINE
8
0
10
828.95
20
275.9
30
0
11
828.95
21
360.9
31
0
0
ARC
8
0
10
809
20
360.9
30
0
40
19.95
50
0
51
90
0
LINE
8
0
10
809
20
380.85
30
0
11
549
21
380.85
31
0
0
ARC
8
0
10
549
20
360.9
30
0
40
19.95
50
90
51
180
0
LINE
8
0
10
529.05
20
360.9
30
0
11
529.05
21
190.9
31
0
0
ARC
8
0
10
549
20
190.9
30
0
40
19.95
50
180
51
270
0
LINE
8
0
10
549
20
170.95
30
0
11
809
21
170.95
31
0
0
ARC
8
0
10
809
20
190.9
30
0
40
19.95
50
270
51
0
0
LINE
8
0
10
828.95
20
190.9
30
0
11
828.95
21
275.9
31
0
0
ARC
8
0
10
1444
20
356.9
30
0
40
5.95
50
90
51
180
0
LINE
8
0
10
1438.05
20
356.9
30
0
11
1438.05
21
354.9
31
0
0
ARC
8
0
10
1444
20
354.9
30
0
40
5.95
50
180
51
0
0
LINE
8
0
10
1449.95
20
354.9
30
0
11
1449.95
21
356.9
31
0
0
ARC
8
0
10
1444
20
356.9
30
0
40
5.95
50
0
51
90
0
LINE
8
0
10
1378.95
20
275.9
30
0
11
1378.95
21
360.9
31
0
0
ARC
8
0
10
1359
20
360.9
30
0
40
19.95
50
0
51
90
0
LINE
8
0
10
1359
20
380.85
30
0
11
1099
21
380.85
31
0
0
ARC
8
0
10
1099
20
360.9
30
0
40
19.95
50
90
51
180
0
LINE
8
0
10
1079.05
20
360.9
30
0
11
1079.05
21
190.9
31
0
0
ARC
8
0
10
1099
20
190.9
30
0
40
19.95
50
180
51
270
0
LINE
8
0
10
1099
20
170.95
30
0
11
1359
21
170.95
31
0
0
ARC
8
0
10
1359
20
190.9
30
0
40
19.95
50
270
51
0
0
LINE
8
0
10
1378.95
20
190.9
30
0
11
1378.95
21
275.9
31
0
0
ARC
8
0
10
1444
20
196.9
30
0
40
5.95
50
90
51
180
0
LINE
8
0
10
1438.05
20
196.9
30
0
11
1438.05
21
194.9
31
0
0
ARC
8
0
10
1444
20
194.9
30
0
40
5.95
50
180
51
0
0
LINE
8
0
10
1449.95
20
194.9
30
0
11
1449.95
21
196.9
31
0
0
ARC
8
0
10
1444
20
196.9
30
0
40
5.95
50
0
51
90
0
LINE
8
0
10
430.75
20
17.6
30
0
11
428.48
21
16.33
31
0
0
ARC
8
0
10
427
20
19
30
0
40
3.052753
50
180
51
298.999915
0
LINE
8
0
10
423.95
20
19
30
0
11
423.95
21
532.8
31
0
0
ARC
8
0
10
427
20
532.8
30
0
40
3.05
50
61.000085
51
180
0
LINE
8
0
10
428.48
20
535.47
30
0
11
433.01
21
532.95
31
0
0
LINE
8
0
10
433.01
20
532.95
30
0
11
1474.99
21
532.95
31
0
0
LINE
8
0
10
1474.99
20
532.95
30
0
11
1479.52
21
535.47
31
0
0
ARC
8
0
10
1481
20
532.8
30
0
40
3.052753
50
360
51
118.999915
0
LINE
8
0
10
1484.05
20
532.8
30
0
11
1484.05
21
19
31
0
0
ARC
8
0
10
1481
20
19
30
0
40
3.05
50
241.000085
51
0
0
LINE
8
0
10
1479.52
20
16.33
30
0
11
1474.99
21
18.85
31
0
0
LINE
8
0
10
1474.99
20
18.85
30
0
11
433.01
21
18.85
31
0
0
LINE
8
0
10
433.01
20
18.85
30
0
11
430.75
21
17.6
31
0
0
ENDSEC
0
EOF
