0
SECTION
2
HEADER
9
$ACADVER
1
AC1009
0
ENDSEC
0
SECTION
2
ENTITIES
0
LINE
8
0
10
123.75
20
63
30
0
11
123.75
21
65.95
31
0
0
ARC
8
0
10
123.8
20
56
30
0
40
9.950126
50
90.287916
51
90
0
LINE
8
0
10
123.75
20
140
30
0
11
123.75
21
142.95
31
0
0
ARC
8
0
10
123.8
20
133
30
0
40
9.950126
50
90.287916
51
90
0
LINE
8
0
10
145.83
20
10
30
0
11
145.83
21
14.95
31
0
0
LINE
8
0
10
145.83
20
14.95
30
0
11
143.75
21
14.95
31
0
0
LINE
8
0
10
143.75
20
14.95
30
0
11
143.75
21
19.95
31
0
0
LINE
8
0
10
143.75
20
19.95
30
0
11
140.75
21
19.95
31
0
0
LINE
8
0
10
140.75
20
19.95
30
0
11
140.75
21
20.45
31
0
0
LINE
8
0
10
140.75
20
20.45
30
0
11
103.78
21
20.45
31
0
0
LINE
8
0
10
103.78
20
20.45
30
0
11
79.78
21
44.95
31
0
0
LINE
8
0
10
79.78
20
44.95
30
0
11
76.78
21
44.95
31
0
0
LINE
8
0
10
76.78
20
44.95
30
0
11
75.75
21
45.98
31
0
0
LINE
8
0
10
75.75
20
45.98
30
0
11
75.75
21
49.02
31
0
0
LINE
8
0
10
75.75
20
49.02
30
0
11
76.78
21
50.05
31
0
0
LINE
8
0
10
76.78
20
50.05
30
0
11
79.25
21
50.05
31
0
0
LINE
8
0
10
79.25
20
50.05
30
0
11
79.25
21
53.05
31
0
0
LINE
8
0
10
79.25
20
53.05
30
0
11
79.75
21
53.05
31
0
0
LINE
8
0
10
79.75
20
53.05
30
0
11
79.75
21
79.55
31
0
0
ARC
8
0
10
79.8
20
94.5
30
0
40
14.950084
50
269.808376
51
90.191624
0
LINE
8
0
10
79.75
20
109.45
30
0
11
79.75
21
140.95
31
0
0
LINE
8
0
10
79.75
20
140.95
30
0
11
79.25
21
140.95
31
0
0
LINE
8
0
10
79.25
20
140.95
30
0
11
79.25
21
144.05
31
0
0
LINE
8
0
10
79.25
20
144.05
30
0
11
79.78
21
144.05
31
0
0
LINE
8
0
10
79.78
20
144.05
30
0
11
103.78
21
168.55
31
0
0
LINE
8
0
10
103.78
20
168.55
30
0
11
140.75
21
168.55
31
0
0
LINE
8
0
10
140.75
20
168.55
30
0
11
140.75
21
169.05
31
0
0
LINE
8
0
10
140.75
20
169.05
30
0
11
143.75
21
169.05
31
0
0
LINE
8
0
10
143.75
20
169.05
30
0
11
143.75
21
174.05
31
0
0
LINE
8
0
10
143.75
20
174.05
30
0
11
148.85
21
174.05
31
0
0
LINE
8
0
10
148.85
20
174.05
30
0
11
148.85
21
14.95
31
0
0
LINE
8
0
10
148.85
20
14.95
30
0
11
146.53
21
14.95
31
0
0
ENDSEC
0
EOF
