0
SECTION
2
HEADER
9
$ACADVER
1
AC1009
0
ENDSEC
0
SECTION
2
ENTITIES
0
LINE
8
0
10
39.66
20
26.8
30
0
11
41.27
21
29.59
31
0
0
LINE
8
0
10
41.27
20
29.59
30
0
11
47.73
21
29.59
31
0
0
LINE
8
0
10
47.73
20
29.59
30
0
11
50.95
21
24
31
0
0
LINE
8
0
10
50.95
20
24
30
0
11
47.73
21
18.41
31
0
0
LINE
8
0
10
47.73
20
18.41
30
0
11
41.27
21
18.41
31
0
0
LINE
8
0
10
41.27
20
18.41
30
0
11
38.05
21
24
31
0
0
LINE
8
0
10
38.05
20
24
30
0
11
39.66
21
26.8
31
0
0
LINE
8
0
10
69.66
20
26.8
30
0
11
71.27
21
29.59
31
0
0
LINE
8
0
10
71.27
20
29.59
30
0
11
77.73
21
29.59
31
0
0
LINE
8
0
10
77.73
20
29.59
30
0
11
80.95
21
24
31
0
0
LINE
8
0
10
80.95
20
24
30
0
11
77.73
21
18.41
31
0
0
LINE
8
0
10
77.73
20
18.41
30
0
11
71.27
21
18.41
31
0
0
LINE
8
0
10
71.27
20
18.41
30
0
11
68.05
21
24
31
0
0
LINE
8
0
10
68.05
20
24
30
0
11
69.66
21
26.8
31
0
0
ARC
8
0
10
54.5
20
181.5
30
0
40
14.94
50
90
51
180
0
LINE
8
0
10
39.56
20
181.5
30
0
11
39.56
21
81.5
31
0
0
ARC
8
0
10
54.5
20
81.5
30
0
40
14.94
50
180
51
0
0
LINE
8
0
10
69.44
20
81.5
30
0
11
69.44
21
181.5
31
0
0
ARC
8
0
10
54.5
20
181.5
30
0
40
14.94
50
0
51
90
0
LINE
8
0
10
39.66
20
226.8
30
0
11
41.27
21
229.59
31
0
0
LINE
8
0
10
41.27
20
229.59
30
0
11
47.73
21
229.59
31
0
0
LINE
8
0
10
47.73
20
229.59
30
0
11
50.95
21
224
31
0
0
LINE
8
0
10
50.95
20
224
30
0
11
47.73
21
218.41
31
0
0
LINE
8
0
10
47.73
20
218.41
30
0
11
41.27
21
218.41
31
0
0
LINE
8
0
10
41.27
20
218.41
30
0
11
38.05
21
224
31
0
0
LINE
8
0
10
38.05
20
224
30
0
11
39.66
21
226.8
31
0
0
LINE
8
0
10
69.66
20
226.8
30
0
11
71.27
21
229.59
31
0
0
LINE
8
0
10
71.27
20
229.59
30
0
11
77.73
21
229.59
31
0
0
LINE
8
0
10
77.73
20
229.59
30
0
11
80.95
21
224
31
0
0
LINE
8
0
10
80.95
20
224
30
0
11
77.73
21
218.41
31
0
0
LINE
8
0
10
77.73
20
218.41
30
0
11
71.27
21
218.41
31
0
0
LINE
8
0
10
71.27
20
218.41
30
0
11
68.05
21
224
31
0
0
LINE
8
0
10
68.05
20
224
30
0
11
69.66
21
226.8
31
0
0
LINE
8
0
10
123.7
20
6.44
30
0
11
119.7
21
6.44
31
0
0
LINE
8
0
10
119.7
20
6.44
30
0
11
38.5
21
6.44
31
0
0
ARC
8
0
10
38.5
20
11.5
30
0
40
5.06
50
180
51
270
0
LINE
8
0
10
33.44
20
11.5
30
0
11
33.44
21
34.5
31
0
0
ARC
8
0
10
28.5
20
34.5
30
0
40
4.94
50
0
51
90
0
LINE
8
0
10
28.5
20
39.44
30
0
11
12.44
21
39.44
31
0
0
LINE
8
0
10
12.44
20
39.44
30
0
11
12.44
21
43.46
31
0
0
LINE
8
0
10
12.44
20
43.46
30
0
11
15.06
21
43.46
31
0
0
ARC
8
0
10
15.5
20
43.4
30
0
40
0.444072
50
172.234834
51
97.765166
0
LINE
8
0
10
15.44
20
43.84
30
0
11
15.44
21
237.16
31
0
0
ARC
8
0
10
15.5
20
237.6
30
0
40
0.444072
50
262.234834
51
187.765166
0
LINE
8
0
10
15.06
20
237.54
30
0
11
12.44
21
237.54
31
0
0
LINE
8
0
10
12.44
20
237.54
30
0
11
12.44
21
241.56
31
0
0
LINE
8
0
10
12.44
20
241.56
30
0
11
119.76
21
241.56
31
0
0
LINE
8
0
10
119.76
20
241.56
30
0
11
119.76
21
6.5
31
0
0
ENDSEC
0
EOF
