0
SECTION
2
HEADER
9
$ACADVER
1
AC1009
0
ENDSEC
0
SECTION
2
ENTITIES
0
LINE
8
0
10
1266.97
20
130.79
30
0
11
1266.97
21
133.74
31
0
0
ARC
8
0
10
1267.02
20
128.29
30
0
40
5.450229
50
90.525635
51
90
0
LINE
8
0
10
1291.32
20
44.79
30
0
11
1291.32
21
49.74
31
0
0
LINE
8
0
10
1291.32
20
49.74
30
0
11
1288.97
21
49.74
31
0
0
LINE
8
0
10
1288.97
20
49.74
30
0
11
1288.97
21
54.74
31
0
0
LINE
8
0
10
1288.97
20
54.74
30
0
11
1280.07
21
54.74
31
0
0
LINE
8
0
10
1280.07
20
54.74
30
0
11
1280.07
21
54.24
31
0
0
LINE
8
0
10
1280.07
20
54.24
30
0
11
1277.97
21
54.24
31
0
0
LINE
8
0
10
1277.97
20
54.24
30
0
11
1277.97
21
54.77
31
0
0
LINE
8
0
10
1277.97
20
54.77
30
0
11
1251.97
21
81.27
31
0
0
LINE
8
0
10
1251.97
20
81.27
30
0
11
1251.97
21
175.31
31
0
0
LINE
8
0
10
1251.97
20
175.31
30
0
11
1277.97
21
201.81
31
0
0
LINE
8
0
10
1277.97
20
201.81
30
0
11
1277.97
21
202.34
31
0
0
LINE
8
0
10
1277.97
20
202.34
30
0
11
1280.07
21
202.34
31
0
0
LINE
8
0
10
1280.07
20
202.34
30
0
11
1280.07
21
201.84
31
0
0
LINE
8
0
10
1280.07
20
201.84
30
0
11
1288.97
21
201.84
31
0
0
LINE
8
0
10
1288.97
20
201.84
30
0
11
1288.97
21
206.84
31
0
0
LINE
8
0
10
1288.97
20
206.84
30
0
11
1294.07
21
206.84
31
0
0
LINE
8
0
10
1294.07
20
206.84
30
0
11
1294.07
21
201.84
31
0
0
LINE
8
0
10
1294.07
20
201.84
30
0
11
1302.97
21
201.84
31
0
0
LINE
8
0
10
1302.97
20
201.84
30
0
11
1302.97
21
202.34
31
0
0
LINE
8
0
10
1302.97
20
202.34
30
0
11
1305.07
21
202.34
31
0
0
LINE
8
0
10
1305.07
20
202.34
30
0
11
1305.07
21
201.81
31
0
0
LINE
8
0
10
1305.07
20
201.81
30
0
11
1331.07
21
175.31
31
0
0
LINE
8
0
10
1331.07
20
175.31
30
0
11
1331.07
21
143.24
31
0
0
ARC
8
0
10
1331.02
20
128.29
30
0
40
14.950084
50
89.808376
51
270.191624
0
LINE
8
0
10
1331.07
20
113.34
30
0
11
1331.07
21
81.27
31
0
0
LINE
8
0
10
1331.07
20
81.27
30
0
11
1305.07
21
54.77
31
0
0
LINE
8
0
10
1305.07
20
54.77
30
0
11
1305.07
21
54.24
31
0
0
LINE
8
0
10
1305.07
20
54.24
30
0
11
1302.97
21
54.24
31
0
0
LINE
8
0
10
1302.97
20
54.24
30
0
11
1302.97
21
54.74
31
0
0
LINE
8
0
10
1302.97
20
54.74
30
0
11
1294.07
21
54.74
31
0
0
LINE
8
0
10
1294.07
20
54.74
30
0
11
1294.07
21
49.74
31
0
0
LINE
8
0
10
1294.07
20
49.74
30
0
11
1292.02
21
49.74
31
0
0
ENDSEC
0
EOF
