0
SECTION
2
HEADER
9
$ACADVER
1
AC1009
0
ENDSEC
0
SECTION
2
ENTITIES
0
LINE
8
0
10
52.2
20
28.85
30
0
11
55
21
30.47
31
0
0
LINE
8
0
10
55
20
30.47
30
0
11
60.6
21
27.23
31
0
0
LINE
8
0
10
60.6
20
27.23
30
0
11
60.6
21
20.77
31
0
0
LINE
8
0
10
60.6
20
20.77
30
0
11
55
21
17.53
31
0
0
LINE
8
0
10
55
20
17.53
30
0
11
49.4
21
20.77
31
0
0
LINE
8
0
10
49.4
20
20.77
30
0
11
49.4
21
27.23
31
0
0
LINE
8
0
10
49.4
20
27.23
30
0
11
52.2
21
28.85
31
0
0
ARC
8
0
10
55
20
134
30
0
40
4.95
50
90
51
180
0
LINE
8
0
10
50.05
20
134
30
0
11
50.05
21
44
31
0
0
ARC
8
0
10
55
20
44
30
0
40
4.95
50
180
51
0
0
LINE
8
0
10
59.95
20
44
30
0
11
59.95
21
134
31
0
0
ARC
8
0
10
55
20
134
30
0
40
4.95
50
0
51
90
0
LINE
8
0
10
52.2
20
158.85
30
0
11
55
21
160.47
31
0
0
LINE
8
0
10
55
20
160.47
30
0
11
60.6
21
157.23
31
0
0
LINE
8
0
10
60.6
20
157.23
30
0
11
60.6
21
150.77
31
0
0
LINE
8
0
10
60.6
20
150.77
30
0
11
55
21
147.53
31
0
0
LINE
8
0
10
55
20
147.53
30
0
11
49.4
21
150.77
31
0
0
LINE
8
0
10
49.4
20
150.77
30
0
11
49.4
21
157.23
31
0
0
LINE
8
0
10
49.4
20
157.23
30
0
11
52.2
21
158.85
31
0
0
LINE
8
0
10
104.5
20
26.69
30
0
11
99.55
21
26.69
31
0
0
LINE
8
0
10
99.55
20
26.69
30
0
11
99.55
21
32.05
31
0
0
LINE
8
0
10
99.55
20
32.05
30
0
11
96.05
21
32.05
31
0
0
LINE
8
0
10
96.05
20
32.05
30
0
11
96.05
21
39.05
31
0
0
LINE
8
0
10
96.05
20
39.05
30
0
11
83
21
39.05
31
0
0
ARC
8
0
10
83
20
44
30
0
40
4.95
50
180
51
270
0
LINE
8
0
10
78.05
20
44
30
0
11
78.05
21
134
31
0
0
ARC
8
0
10
83
20
134
30
0
40
4.95
50
90
51
180
0
LINE
8
0
10
83
20
138.95
30
0
11
96.05
21
138.95
31
0
0
LINE
8
0
10
96.05
20
138.95
30
0
11
96.05
21
145.95
31
0
0
LINE
8
0
10
96.05
20
145.95
30
0
11
99.55
21
145.95
31
0
0
LINE
8
0
10
99.55
20
145.95
30
0
11
99.55
21
156.05
31
0
0
LINE
8
0
10
99.55
20
156.05
30
0
11
96.05
21
156.05
31
0
0
LINE
8
0
10
96.05
20
156.05
30
0
11
96.05
21
164.05
31
0
0
LINE
8
0
10
96.05
20
164.05
30
0
11
13.95
21
164.05
31
0
0
LINE
8
0
10
13.95
20
164.05
30
0
11
13.95
21
138.95
31
0
0
LINE
8
0
10
13.95
20
138.95
30
0
11
27
21
138.95
31
0
0
ARC
8
0
10
27
20
134
30
0
40
4.95
50
0
51
90
0
LINE
8
0
10
31.95
20
134
30
0
11
31.95
21
44
31
0
0
ARC
8
0
10
27
20
44
30
0
40
4.95
50
270
51
0
0
LINE
8
0
10
27
20
39.05
30
0
11
13.95
21
39.05
31
0
0
LINE
8
0
10
13.95
20
39.05
30
0
11
13.95
21
13.95
31
0
0
LINE
8
0
10
13.95
20
13.95
30
0
11
96.05
21
13.95
31
0
0
LINE
8
0
10
96.05
20
13.95
30
0
11
96.05
21
21.95
31
0
0
LINE
8
0
10
96.05
20
21.95
30
0
11
99.55
21
21.95
31
0
0
LINE
8
0
10
99.55
20
21.95
30
0
11
99.55
21
26.19
31
0
0
ENDSEC
0
EOF
