0
SECTION
2
HEADER
9
$ACADVER
1
AC1009
0
ENDSEC
0
SECTION
2
ENTITIES
0
LINE
8
0
10
487.85
20
36.58
30
0
11
485.77
21
38.66
31
0
0
ARC
8
0
10
491
20
33.5
30
0
40
7.347006
50
135.38601
51
135
0
LINE
8
0
10
487.85
20
146.58
30
0
11
485.77
21
148.66
31
0
0
ARC
8
0
10
491
20
143.5
30
0
40
7.347006
50
135.38601
51
135
0
LINE
8
0
10
564.5
20
17.59
30
0
11
559.55
21
17.59
31
0
0
LINE
8
0
10
559.55
20
17.59
30
0
11
559.55
21
14
31
0
0
ARC
8
0
10
559
20
14
30
0
40
0.55
50
270
51
0
0
LINE
8
0
10
559
20
13.45
30
0
11
489
21
13.45
31
0
0
ARC
8
0
10
489
20
21.5
30
0
40
8.05
50
180
51
270
0
LINE
8
0
10
480.95
20
21.5
30
0
11
480.95
21
60.55
31
0
0
LINE
8
0
10
480.95
20
60.55
30
0
11
485.45
21
60.55
31
0
0
LINE
8
0
10
485.45
20
60.55
30
0
11
485.45
21
63.45
31
0
0
LINE
8
0
10
485.45
20
63.45
30
0
11
445.45
21
63.45
31
0
0
LINE
8
0
10
445.45
20
63.45
30
0
11
445.45
21
113.55
31
0
0
LINE
8
0
10
445.45
20
113.55
30
0
11
485.45
21
113.55
31
0
0
LINE
8
0
10
485.45
20
113.55
30
0
11
485.45
21
116.45
31
0
0
LINE
8
0
10
485.45
20
116.45
30
0
11
480.95
21
116.45
31
0
0
LINE
8
0
10
480.95
20
116.45
30
0
11
480.95
21
155.5
31
0
0
ARC
8
0
10
489
20
155.5
30
0
40
8.05
50
90
51
180
0
LINE
8
0
10
489
20
163.55
30
0
11
559
21
163.55
31
0
0
ARC
8
0
10
559
20
163
30
0
40
0.55
50
0
51
90
0
LINE
8
0
10
559.55
20
163
30
0
11
559.55
21
154
31
0
0
ARC
8
0
10
559
20
154
30
0
40
0.55
50
270
51
0
0
LINE
8
0
10
559
20
153.45
30
0
11
556.69
21
153.45
31
0
0
ARC
8
0
10
556.5
20
153.5
30
0
40
0.196469
50
345.256437
51
284.743563
0
LINE
8
0
10
556.55
20
153.31
30
0
11
556.55
21
23.69
31
0
0
ARC
8
0
10
556.5
20
23.5
30
0
40
0.196469
50
75.256437
51
14.743563
0
LINE
8
0
10
556.69
20
23.55
30
0
11
559
21
23.55
31
0
0
ARC
8
0
10
559
20
23
30
0
40
0.55
50
0
51
90
0
LINE
8
0
10
559.55
20
23
30
0
11
559.55
21
18.29
31
0
0
ENDSEC
0
EOF
