0
SECTION
2
HEADER
9
$ACADVER
1
AC1009
0
ENDSEC
0
SECTION
2
ENTITIES
0
LINE
8
0
10
1418.75
20
95.5
30
0
11
1414.99
21
89
31
0
0
LINE
8
0
10
1414.99
20
89
30
0
11
1418.75
21
82.5
31
0
0
LINE
8
0
10
1418.75
20
82.5
30
0
11
1426.25
21
82.5
31
0
0
LINE
8
0
10
1426.25
20
82.5
30
0
11
1430.01
21
89
31
0
0
LINE
8
0
10
1430.01
20
89
30
0
11
1426.25
21
95.5
31
0
0
LINE
8
0
10
1426.25
20
95.5
30
0
11
1418.75
21
95.5
31
0
0
LINE
8
0
10
1396.25
20
35.5
30
0
11
1388.75
21
35.5
31
0
0
LINE
8
0
10
1388.75
20
35.5
30
0
11
1384.99
21
29
31
0
0
LINE
8
0
10
1384.99
20
29
30
0
11
1388.75
21
22.5
31
0
0
LINE
8
0
10
1388.75
20
22.5
30
0
11
1396.25
21
22.5
31
0
0
LINE
8
0
10
1396.25
20
22.5
30
0
11
1400.01
21
29
31
0
0
LINE
8
0
10
1400.01
20
29
30
0
11
1396.25
21
35.5
31
0
0
LINE
8
0
10
1392.72
20
28.87
30
0
11
1396.21
21
25.37
31
0
0
ARC
8
0
10
1392.5
20
29
30
0
40
5.190472
50
315.624452
51
315
0
LINE
8
0
10
1407.48
20
56.77
30
0
11
1408.08
21
55.35
31
0
0
LINE
8
0
10
1408.08
20
55.35
30
0
11
1412.67
21
57.3
31
0
0
LINE
8
0
10
1412.67
20
57.3
30
0
11
1411.47
21
60.13
31
0
0
LINE
8
0
10
1411.47
20
60.13
30
0
11
1402.19
21
56.19
31
0
0
LINE
8
0
10
1402.19
20
56.19
30
0
11
1403.39
21
53.36
31
0
0
LINE
8
0
10
1403.39
20
53.36
30
0
11
1408.03
21
55.33
31
0
0
LINE
8
0
10
1422.72
20
88.87
30
0
11
1426.21
21
85.37
31
0
0
ARC
8
0
10
1422.5
20
89
30
0
40
5.190472
50
315.624452
51
315
0
LINE
8
0
10
1400.8
20
160
30
0
11
1400.8
21
155.06
31
0
0
LINE
8
0
10
1400.8
20
155.06
30
0
11
1402.56
21
155.06
31
0
0
LINE
8
0
10
1402.56
20
155.06
30
0
11
1402.56
21
154.06
31
0
0
LINE
8
0
10
1402.56
20
154.06
30
0
11
1428
21
154.06
31
0
0
LINE
8
0
10
1428
20
154.06
30
0
11
1448.67
21
105.37
31
0
0
LINE
8
0
10
1448.67
20
105.37
30
0
11
1445.82
21
104.15
31
0
0
LINE
8
0
10
1445.82
20
104.15
30
0
11
1449.87
21
94.6
31
0
0
LINE
8
0
10
1449.87
20
94.6
30
0
11
1452.72
21
95.81
31
0
0
LINE
8
0
10
1452.72
20
95.81
30
0
11
1457.73
21
84.02
31
0
0
ARC
8
0
10
1451.23
20
81.26
30
0
40
7.0617
50
321.4416
51
23.006824
0
LINE
8
0
10
1456.75
20
76.86
30
0
11
1402.53
21
8.94
31
0
0
LINE
8
0
10
1402.53
20
8.94
30
0
11
1372.44
21
8.94
31
0
0
LINE
8
0
10
1372.44
20
8.94
30
0
11
1372.44
21
29
31
0
0
ARC
8
0
10
1367.5
20
29
30
0
40
4.94
50
0
51
90
0
LINE
8
0
10
1367.5
20
33.94
30
0
11
1357.44
21
33.94
31
0
0
LINE
8
0
10
1357.44
20
33.94
30
0
11
1357.44
21
129.06
31
0
0
LINE
8
0
10
1357.44
20
129.06
30
0
11
1377.5
21
129.06
31
0
0
ARC
8
0
10
1377.5
20
134
30
0
40
4.94
50
270
51
0
0
LINE
8
0
10
1382.44
20
134
30
0
11
1382.44
21
154.06
31
0
0
LINE
8
0
10
1382.44
20
154.06
30
0
11
1397.44
21
154.06
31
0
0
LINE
8
0
10
1397.44
20
154.06
30
0
11
1397.44
21
155.06
31
0
0
LINE
8
0
10
1397.44
20
155.06
30
0
11
1399.99
21
155.06
31
0
0
ENDSEC
0
EOF
