0
SECTION
2
HEADER
9
$ACADVER
1
AC1009
0
ENDSEC
0
SECTION
2
ENTITIES
0
LINE
8
0
10
262.69
20
110.5
30
0
11
111.56
21
110.5
31
0
0
LINE
8
0
10
111.56
20
135.5
30
0
11
262.69
21
135.5
31
0
0
LINE
8
0
10
197.24
20
191
30
0
11
197.24
21
206
31
0
0
LINE
8
0
10
197.24
20
206
30
0
11
177.24
21
206
31
0
0
LINE
8
0
10
177.24
20
206
30
0
11
177.24
21
191
31
0
0
LINE
8
0
10
177.24
20
55
30
0
11
177.24
21
40
31
0
0
LINE
8
0
10
177.24
20
40
30
0
11
197.24
21
40
31
0
0
LINE
8
0
10
197.24
20
40
30
0
11
197.24
21
55
31
0
0
LINE
8
0
10
188.69
20
1472.12
30
0
11
188.69
21
1474.98
31
0
0
LINE
8
0
10
188.69
20
1475.87
30
0
11
178.69
21
1475.87
31
0
0
LINE
8
0
10
178.69
20
1475.87
30
0
11
188.69
21
1483.02
31
0
0
LINE
8
0
10
188.69
20
1483.02
30
0
11
178.69
21
1483.02
31
0
0
LINE
8
0
10
178.69
20
1483.91
30
0
11
178.69
21
1491.05
31
0
0
LINE
8
0
10
178.69
20
1487.48
30
0
11
188.69
21
1487.48
31
0
0
LINE
8
0
10
188.69
20
1473.55
30
0
11
178.69
21
1473.55
31
0
0
LINE
8
0
10
178.69
20
1472.12
30
0
11
178.69
21
1474.98
31
0
0
LINE
8
0
10
177.24
20
2836.2
30
0
11
177.24
21
2821.2
31
0
0
LINE
8
0
10
177.24
20
2821.2
30
0
11
197.24
21
2821.2
31
0
0
LINE
8
0
10
197.24
20
2821.2
30
0
11
197.24
21
2836.2
31
0
0
LINE
8
0
10
262.69
20
2891.7
30
0
11
111.56
21
2891.7
31
0
0
LINE
8
0
10
111.56
20
2916.7
30
0
11
262.69
21
2916.7
31
0
0
LINE
8
0
10
197.24
20
2972.2
30
0
11
197.24
21
2987.2
31
0
0
LINE
8
0
10
197.24
20
2987.2
30
0
11
177.24
21
2987.2
31
0
0
LINE
8
0
10
177.24
20
2987.2
30
0
11
177.24
21
2972.2
31
0
0
LINE
8
0
10
309.98
20
2848.41
30
0
11
307.89
21
2850.49
31
0
0
ARC
8
0
10
314.26
20
2844.2
30
0
40
8.952151
50
135.362054
51
135
0
LINE
8
0
10
178.61
20
2722.65
30
0
11
176.52
21
2724.74
31
0
0
ARC
8
0
10
187.13
20
2714.2
30
0
40
14.95539
50
135.189631
51
135
0
LINE
8
0
10
57.14
20
2716.99
30
0
11
55.05
21
2719.08
31
0
0
ARC
8
0
10
60
20
2714.2
30
0
40
6.951036
50
135.408
51
135
0
LINE
8
0
10
110.63
20
2530.55
30
0
11
113.63
21
2530.55
31
0
0
LINE
8
0
10
113.63
20
2530.55
30
0
11
117.08
21
2530.55
31
0
0
LINE
8
0
10
117.08
20
2530.55
30
0
11
117.08
21
2531.95
31
0
0
LINE
8
0
10
117.08
20
2531.95
30
0
11
107.18
21
2531.95
31
0
0
LINE
8
0
10
107.18
20
2531.95
30
0
11
107.18
21
2522.05
31
0
0
LINE
8
0
10
107.18
20
2522.05
30
0
11
110.72
21
2522.05
31
0
0
LINE
8
0
10
110.72
20
2522.05
30
0
11
111.75
21
2521.02
31
0
0
LINE
8
0
10
111.75
20
2521.02
30
0
11
111.75
21
2416.98
31
0
0
LINE
8
0
10
111.75
20
2416.98
30
0
11
110.72
21
2415.95
31
0
0
LINE
8
0
10
110.72
20
2415.95
30
0
11
107.18
21
2415.95
31
0
0
LINE
8
0
10
107.18
20
2415.95
30
0
11
107.18
21
2406.05
31
0
0
LINE
8
0
10
107.18
20
2406.05
30
0
11
117.08
21
2406.05
31
0
0
LINE
8
0
10
117.08
20
2406.05
30
0
11
117.08
21
2407.45
31
0
0
LINE
8
0
10
117.08
20
2407.45
30
0
11
113.58
21
2407.45
31
0
0
LINE
8
0
10
113.58
20
2407.45
30
0
11
113.58
21
2530.5
31
0
0
LINE
8
0
10
166.88
20
2463
30
0
11
166.88
21
2465.55
31
0
0
LINE
8
0
10
166.88
20
2465.55
30
0
11
172.38
21
2465.55
31
0
0
LINE
8
0
10
172.38
20
2465.55
30
0
11
172.38
21
2460.45
31
0
0
LINE
8
0
10
172.38
20
2460.45
30
0
11
166.88
21
2460.45
31
0
0
LINE
8
0
10
166.88
20
2460.45
30
0
11
166.88
21
2463
31
0
0
LINE
8
0
10
263.63
20
2530.55
30
0
11
260.63
21
2530.55
31
0
0
LINE
8
0
10
260.63
20
2530.55
30
0
11
257.18
21
2530.55
31
0
0
LINE
8
0
10
257.18
20
2530.55
30
0
11
257.18
21
2531.95
31
0
0
LINE
8
0
10
257.18
20
2531.95
30
0
11
267.08
21
2531.95
31
0
0
LINE
8
0
10
267.08
20
2531.95
30
0
11
267.08
21
2522.05
31
0
0
LINE
8
0
10
267.08
20
2522.05
30
0
11
263.54
21
2522.05
31
0
0
LINE
8
0
10
263.54
20
2522.05
30
0
11
262.51
21
2521.02
31
0
0
LINE
8
0
10
262.51
20
2521.02
30
0
11
262.51
21
2416.98
31
0
0
LINE
8
0
10
262.51
20
2416.98
30
0
11
263.54
21
2415.95
31
0
0
LINE
8
0
10
263.54
20
2415.95
30
0
11
267.08
21
2415.95
31
0
0
LINE
8
0
10
267.08
20
2415.95
30
0
11
267.08
21
2406.05
31
0
0
LINE
8
0
10
267.08
20
2406.05
30
0
11
257.18
21
2406.05
31
0
0
LINE
8
0
10
257.18
20
2406.05
30
0
11
257.18
21
2407.45
31
0
0
LINE
8
0
10
257.18
20
2407.45
30
0
11
260.68
21
2407.45
31
0
0
LINE
8
0
10
260.68
20
2407.45
30
0
11
260.68
21
2530.5
31
0
0
LINE
8
0
10
57.14
20
2216.79
30
0
11
55.05
21
2218.88
31
0
0
ARC
8
0
10
60
20
2214
30
0
40
6.951036
50
135.408
51
135
0
LINE
8
0
10
178.61
20
2172.45
30
0
11
176.52
21
2174.54
31
0
0
ARC
8
0
10
187.13
20
2164
30
0
40
14.95539
50
135.189631
51
135
0
LINE
8
0
10
110.63
20
1980.35
30
0
11
113.63
21
1980.35
31
0
0
LINE
8
0
10
113.63
20
1980.35
30
0
11
117.08
21
1980.35
31
0
0
LINE
8
0
10
117.08
20
1980.35
30
0
11
117.08
21
1981.75
31
0
0
LINE
8
0
10
117.08
20
1981.75
30
0
11
107.18
21
1981.75
31
0
0
LINE
8
0
10
107.18
20
1981.75
30
0
11
107.18
21
1971.85
31
0
0
LINE
8
0
10
107.18
20
1971.85
30
0
11
110.72
21
1971.85
31
0
0
LINE
8
0
10
110.72
20
1971.85
30
0
11
111.75
21
1970.82
31
0
0
LINE
8
0
10
111.75
20
1970.82
30
0
11
111.75
21
1866.78
31
0
0
LINE
8
0
10
111.75
20
1866.78
30
0
11
110.72
21
1865.75
31
0
0
LINE
8
0
10
110.72
20
1865.75
30
0
11
107.18
21
1865.75
31
0
0
LINE
8
0
10
107.18
20
1865.75
30
0
11
107.18
21
1855.85
31
0
0
LINE
8
0
10
107.18
20
1855.85
30
0
11
117.08
21
1855.85
31
0
0
LINE
8
0
10
117.08
20
1855.85
30
0
11
117.08
21
1857.25
31
0
0
LINE
8
0
10
117.08
20
1857.25
30
0
11
113.58
21
1857.25
31
0
0
LINE
8
0
10
113.58
20
1857.25
30
0
11
113.58
21
1980.3
31
0
0
LINE
8
0
10
166.88
20
1913
30
0
11
166.88
21
1915.55
31
0
0
LINE
8
0
10
166.88
20
1915.55
30
0
11
172.38
21
1915.55
31
0
0
LINE
8
0
10
172.38
20
1915.55
30
0
11
172.38
21
1910.45
31
0
0
LINE
8
0
10
172.38
20
1910.45
30
0
11
166.88
21
1910.45
31
0
0
LINE
8
0
10
166.88
20
1910.45
30
0
11
166.88
21
1913
31
0
0
LINE
8
0
10
263.63
20
1980.35
30
0
11
260.63
21
1980.35
31
0
0
LINE
8
0
10
260.63
20
1980.35
30
0
11
257.18
21
1980.35
31
0
0
LINE
8
0
10
257.18
20
1980.35
30
0
11
257.18
21
1981.75
31
0
0
LINE
8
0
10
257.18
20
1981.75
30
0
11
267.08
21
1981.75
31
0
0
LINE
8
0
10
267.08
20
1981.75
30
0
11
267.08
21
1971.85
31
0
0
LINE
8
0
10
267.08
20
1971.85
30
0
11
263.54
21
1971.85
31
0
0
LINE
8
0
10
263.54
20
1971.85
30
0
11
262.51
21
1970.82
31
0
0
LINE
8
0
10
262.51
20
1970.82
30
0
11
262.51
21
1866.78
31
0
0
LINE
8
0
10
262.51
20
1866.78
30
0
11
263.54
21
1865.75
31
0
0
LINE
8
0
10
263.54
20
1865.75
30
0
11
267.08
21
1865.75
31
0
0
LINE
8
0
10
267.08
20
1865.75
30
0
11
267.08
21
1855.85
31
0
0
LINE
8
0
10
267.08
20
1855.85
30
0
11
257.18
21
1855.85
31
0
0
LINE
8
0
10
257.18
20
1855.85
30
0
11
257.18
21
1857.25
31
0
0
LINE
8
0
10
257.18
20
1857.25
30
0
11
260.68
21
1857.25
31
0
0
LINE
8
0
10
260.68
20
1857.25
30
0
11
260.68
21
1980.3
31
0
0
LINE
8
0
10
309.98
20
1988.01
30
0
11
307.89
21
1990.09
31
0
0
ARC
8
0
10
314.26
20
1983.8
30
0
40
8.952151
50
135.362054
51
135
0
LINE
8
0
10
309.98
20
1868.01
30
0
11
307.89
21
1870.09
31
0
0
ARC
8
0
10
314.26
20
1863.8
30
0
40
8.952151
50
135.362054
51
135
0
LINE
8
0
10
178.61
20
1672.25
30
0
11
176.52
21
1674.34
31
0
0
ARC
8
0
10
187.13
20
1663.8
30
0
40
14.95539
50
135.189631
51
135
0
LINE
8
0
10
57.14
20
1716.59
30
0
11
55.05
21
1718.68
31
0
0
ARC
8
0
10
60
20
1713.8
30
0
40
6.951036
50
135.408
51
135
0
LINE
8
0
10
110.63
20
1430.15
30
0
11
113.63
21
1430.15
31
0
0
LINE
8
0
10
113.63
20
1430.15
30
0
11
117.08
21
1430.15
31
0
0
LINE
8
0
10
117.08
20
1430.15
30
0
11
117.08
21
1431.55
31
0
0
LINE
8
0
10
117.08
20
1431.55
30
0
11
107.18
21
1431.55
31
0
0
LINE
8
0
10
107.18
20
1431.55
30
0
11
107.18
21
1421.65
31
0
0
LINE
8
0
10
107.18
20
1421.65
30
0
11
110.72
21
1421.65
31
0
0
LINE
8
0
10
110.72
20
1421.65
30
0
11
111.75
21
1420.62
31
0
0
LINE
8
0
10
111.75
20
1420.62
30
0
11
111.75
21
1316.58
31
0
0
LINE
8
0
10
111.75
20
1316.58
30
0
11
110.72
21
1315.55
31
0
0
LINE
8
0
10
110.72
20
1315.55
30
0
11
107.18
21
1315.55
31
0
0
LINE
8
0
10
107.18
20
1315.55
30
0
11
107.18
21
1305.65
31
0
0
LINE
8
0
10
107.18
20
1305.65
30
0
11
117.08
21
1305.65
31
0
0
LINE
8
0
10
117.08
20
1305.65
30
0
11
117.08
21
1307.05
31
0
0
LINE
8
0
10
117.08
20
1307.05
30
0
11
113.58
21
1307.05
31
0
0
LINE
8
0
10
113.58
20
1307.05
30
0
11
113.58
21
1430.1
31
0
0
LINE
8
0
10
166.88
20
1363
30
0
11
166.88
21
1360.45
31
0
0
LINE
8
0
10
166.88
20
1360.45
30
0
11
172.38
21
1360.45
31
0
0
LINE
8
0
10
172.38
20
1360.45
30
0
11
172.38
21
1365.55
31
0
0
LINE
8
0
10
172.38
20
1365.55
30
0
11
166.88
21
1365.55
31
0
0
LINE
8
0
10
166.88
20
1365.55
30
0
11
166.88
21
1363
31
0
0
LINE
8
0
10
263.63
20
1430.15
30
0
11
260.63
21
1430.15
31
0
0
LINE
8
0
10
260.63
20
1430.15
30
0
11
257.18
21
1430.15
31
0
0
LINE
8
0
10
257.18
20
1430.15
30
0
11
257.18
21
1431.55
31
0
0
LINE
8
0
10
257.18
20
1431.55
30
0
11
267.08
21
1431.55
31
0
0
LINE
8
0
10
267.08
20
1431.55
30
0
11
267.08
21
1421.65
31
0
0
LINE
8
0
10
267.08
20
1421.65
30
0
11
263.54
21
1421.65
31
0
0
LINE
8
0
10
263.54
20
1421.65
30
0
11
262.51
21
1420.62
31
0
0
LINE
8
0
10
262.51
20
1420.62
30
0
11
262.51
21
1316.58
31
0
0
LINE
8
0
10
262.51
20
1316.58
30
0
11
263.54
21
1315.55
31
0
0
LINE
8
0
10
263.54
20
1315.55
30
0
11
267.08
21
1315.55
31
0
0
LINE
8
0
10
267.08
20
1315.55
30
0
11
267.08
21
1305.65
31
0
0
LINE
8
0
10
267.08
20
1305.65
30
0
11
257.18
21
1305.65
31
0
0
LINE
8
0
10
257.18
20
1305.65
30
0
11
257.18
21
1307.05
31
0
0
LINE
8
0
10
257.18
20
1307.05
30
0
11
260.68
21
1307.05
31
0
0
LINE
8
0
10
260.68
20
1307.05
30
0
11
260.68
21
1430.1
31
0
0
LINE
8
0
10
57.14
20
1216.39
30
0
11
55.05
21
1218.48
31
0
0
ARC
8
0
10
60
20
1213.6
30
0
40
6.951036
50
135.408
51
135
0
LINE
8
0
10
178.61
20
1172.05
30
0
11
176.52
21
1174.14
31
0
0
ARC
8
0
10
187.13
20
1163.6
30
0
40
14.95539
50
135.189631
51
135
0
LINE
8
0
10
110.63
20
879.95
30
0
11
113.63
21
879.95
31
0
0
LINE
8
0
10
113.63
20
879.95
30
0
11
117.08
21
879.95
31
0
0
LINE
8
0
10
117.08
20
879.95
30
0
11
117.08
21
881.35
31
0
0
LINE
8
0
10
117.08
20
881.35
30
0
11
107.18
21
881.35
31
0
0
LINE
8
0
10
107.18
20
881.35
30
0
11
107.18
21
871.45
31
0
0
LINE
8
0
10
107.18
20
871.45
30
0
11
110.72
21
871.45
31
0
0
LINE
8
0
10
110.72
20
871.45
30
0
11
111.75
21
870.42
31
0
0
LINE
8
0
10
111.75
20
870.42
30
0
11
111.75
21
766.38
31
0
0
LINE
8
0
10
111.75
20
766.38
30
0
11
110.72
21
765.35
31
0
0
LINE
8
0
10
110.72
20
765.35
30
0
11
107.18
21
765.35
31
0
0
LINE
8
0
10
107.18
20
765.35
30
0
11
107.18
21
755.45
31
0
0
LINE
8
0
10
107.18
20
755.45
30
0
11
117.08
21
755.45
31
0
0
LINE
8
0
10
117.08
20
755.45
30
0
11
117.08
21
756.85
31
0
0
LINE
8
0
10
117.08
20
756.85
30
0
11
113.58
21
756.85
31
0
0
LINE
8
0
10
113.58
20
756.85
30
0
11
113.58
21
879.9
31
0
0
LINE
8
0
10
166.88
20
813
30
0
11
166.88
21
815.55
31
0
0
LINE
8
0
10
166.88
20
815.55
30
0
11
172.38
21
815.55
31
0
0
LINE
8
0
10
172.38
20
815.55
30
0
11
172.38
21
810.45
31
0
0
LINE
8
0
10
172.38
20
810.45
30
0
11
166.88
21
810.45
31
0
0
LINE
8
0
10
166.88
20
810.45
30
0
11
166.88
21
813
31
0
0
LINE
8
0
10
263.63
20
879.95
30
0
11
260.63
21
879.95
31
0
0
LINE
8
0
10
260.63
20
879.95
30
0
11
257.18
21
879.95
31
0
0
LINE
8
0
10
257.18
20
879.95
30
0
11
257.18
21
881.35
31
0
0
LINE
8
0
10
257.18
20
881.35
30
0
11
267.08
21
881.35
31
0
0
LINE
8
0
10
267.08
20
881.35
30
0
11
267.08
21
871.45
31
0
0
LINE
8
0
10
267.08
20
871.45
30
0
11
263.54
21
871.45
31
0
0
LINE
8
0
10
263.54
20
871.45
30
0
11
262.51
21
870.42
31
0
0
LINE
8
0
10
262.51
20
870.42
30
0
11
262.51
21
766.38
31
0
0
LINE
8
0
10
262.51
20
766.38
30
0
11
263.54
21
765.35
31
0
0
LINE
8
0
10
263.54
20
765.35
30
0
11
267.08
21
765.35
31
0
0
LINE
8
0
10
267.08
20
765.35
30
0
11
267.08
21
755.45
31
0
0
LINE
8
0
10
267.08
20
755.45
30
0
11
257.18
21
755.45
31
0
0
LINE
8
0
10
257.18
20
755.45
30
0
11
257.18
21
756.85
31
0
0
LINE
8
0
10
257.18
20
756.85
30
0
11
260.68
21
756.85
31
0
0
LINE
8
0
10
260.68
20
756.85
30
0
11
260.68
21
879.9
31
0
0
LINE
8
0
10
309.98
20
877.61
30
0
11
307.89
21
879.69
31
0
0
ARC
8
0
10
314.26
20
873.4
30
0
40
8.952151
50
135.362054
51
135
0
LINE
8
0
10
309.98
20
757.61
30
0
11
307.89
21
759.69
31
0
0
ARC
8
0
10
314.26
20
753.4
30
0
40
8.952151
50
135.362054
51
135
0
LINE
8
0
10
178.61
20
718.85
30
0
11
176.52
21
720.94
31
0
0
ARC
8
0
10
187.13
20
710.4
30
0
40
14.95539
50
135.189631
51
135
0
LINE
8
0
10
57.14
20
716.19
30
0
11
55.05
21
718.28
31
0
0
ARC
8
0
10
60
20
713.4
30
0
40
6.951036
50
135.408
51
135
0
LINE
8
0
10
178.61
20
418.65
30
0
11
176.52
21
420.74
31
0
0
ARC
8
0
10
187.13
20
410.2
30
0
40
14.95539
50
135.189631
51
135
0
LINE
8
0
10
57.14
20
315.79
30
0
11
55.05
21
317.88
31
0
0
ARC
8
0
10
60
20
313
30
0
40
6.951036
50
135.408
51
135
0
LINE
8
0
10
309.98
20
187.21
30
0
11
307.89
21
189.29
31
0
0
ARC
8
0
10
314.26
20
183
30
0
40
8.952151
50
135.362054
51
135
0
LINE
8
0
10
343.31
20
100
30
0
11
343.31
21
103
31
0
0
LINE
8
0
10
343.31
20
103
30
0
11
343.31
21
810.45
31
0
0
LINE
8
0
10
343.31
20
810.45
30
0
11
337.61
21
810.45
31
0
0
LINE
8
0
10
337.61
20
810.45
30
0
11
337.61
21
815.55
31
0
0
LINE
8
0
10
337.61
20
815.55
30
0
11
343.31
21
815.55
31
0
0
LINE
8
0
10
343.31
20
815.55
30
0
11
343.31
21
1360.45
31
0
0
LINE
8
0
10
343.31
20
1360.45
30
0
11
337.61
21
1360.45
31
0
0
LINE
8
0
10
337.61
20
1360.45
30
0
11
337.61
21
1365.55
31
0
0
LINE
8
0
10
337.61
20
1365.55
30
0
11
343.31
21
1365.55
31
0
0
LINE
8
0
10
343.31
20
1365.55
30
0
11
343.31
21
1910.45
31
0
0
LINE
8
0
10
343.31
20
1910.45
30
0
11
337.61
21
1910.45
31
0
0
LINE
8
0
10
337.61
20
1910.45
30
0
11
337.61
21
1915.55
31
0
0
LINE
8
0
10
337.61
20
1915.55
30
0
11
343.31
21
1915.55
31
0
0
LINE
8
0
10
343.31
20
1915.55
30
0
11
343.31
21
2460.45
31
0
0
LINE
8
0
10
343.31
20
2460.45
30
0
11
337.61
21
2460.45
31
0
0
LINE
8
0
10
337.61
20
2460.45
30
0
11
337.61
21
2465.55
31
0
0
LINE
8
0
10
337.61
20
2465.55
30
0
11
343.31
21
2465.55
31
0
0
LINE
8
0
10
343.31
20
2465.55
30
0
11
343.31
21
2924.25
31
0
0
LINE
8
0
10
343.31
20
2924.25
30
0
11
337.21
21
2924.25
31
0
0
LINE
8
0
10
337.21
20
2924.25
30
0
11
337.21
21
2922.75
31
0
0
LINE
8
0
10
337.21
20
2922.75
30
0
11
268.21
21
2922.75
31
0
0
LINE
8
0
10
268.21
20
2922.75
30
0
11
268.21
21
2918.25
31
0
0
LINE
8
0
10
268.21
20
2918.25
30
0
11
257.18
21
2918.25
31
0
0
LINE
8
0
10
257.18
20
2918.25
30
0
11
257.18
21
2924.15
31
0
0
LINE
8
0
10
257.18
20
2924.15
30
0
11
261.68
21
2924.15
31
0
0
LINE
8
0
10
261.68
20
2924.15
30
0
11
261.68
21
2974.22
31
0
0
LINE
8
0
10
261.68
20
2974.22
30
0
11
227.15
21
3009.25
31
0
0
LINE
8
0
10
227.15
20
3009.25
30
0
11
207.18
21
3009.25
31
0
0
LINE
8
0
10
207.18
20
3009.25
30
0
11
207.18
21
3011.7
31
0
0
ARC
8
0
10
206.63
20
3011.7
30
0
40
0.55
50
0
51
90
0
LINE
8
0
10
206.63
20
3012.25
30
0
11
167.63
21
3012.25
31
0
0
ARC
8
0
10
167.63
20
3011.7
30
0
40
0.55
50
90
51
180
0
LINE
8
0
10
167.08
20
3011.7
30
0
11
167.08
21
3009.25
31
0
0
LINE
8
0
10
167.08
20
3009.25
30
0
11
147.11
21
3009.25
31
0
0
LINE
8
0
10
147.11
20
3009.25
30
0
11
112.58
21
2974.22
31
0
0
LINE
8
0
10
112.58
20
2974.22
30
0
11
112.58
21
2924.15
31
0
0
LINE
8
0
10
112.58
20
2924.15
30
0
11
117.08
21
2924.15
31
0
0
LINE
8
0
10
117.08
20
2924.15
30
0
11
117.08
21
2918.25
31
0
0
LINE
8
0
10
117.08
20
2918.25
30
0
11
106.05
21
2918.25
31
0
0
LINE
8
0
10
106.05
20
2918.25
30
0
11
106.05
21
2922.75
31
0
0
LINE
8
0
10
106.05
20
2922.75
30
0
11
37.05
21
2922.75
31
0
0
LINE
8
0
10
37.05
20
2922.75
30
0
11
37.05
21
2924.25
31
0
0
LINE
8
0
10
37.05
20
2924.25
30
0
11
30.95
21
2924.25
31
0
0
LINE
8
0
10
30.95
20
2924.25
30
0
11
30.95
21
2465.55
31
0
0
LINE
8
0
10
30.95
20
2465.55
30
0
11
36.65
21
2465.55
31
0
0
LINE
8
0
10
36.65
20
2465.55
30
0
11
36.65
21
2460.45
31
0
0
LINE
8
0
10
36.65
20
2460.45
30
0
11
30.95
21
2460.45
31
0
0
LINE
8
0
10
30.95
20
2460.45
30
0
11
30.95
21
1915.55
31
0
0
LINE
8
0
10
30.95
20
1915.55
30
0
11
36.65
21
1915.55
31
0
0
LINE
8
0
10
36.65
20
1915.55
30
0
11
36.65
21
1910.45
31
0
0
LINE
8
0
10
36.65
20
1910.45
30
0
11
30.95
21
1910.45
31
0
0
LINE
8
0
10
30.95
20
1910.45
30
0
11
30.95
21
1365.55
31
0
0
LINE
8
0
10
30.95
20
1365.55
30
0
11
36.65
21
1365.55
31
0
0
LINE
8
0
10
36.65
20
1365.55
30
0
11
36.65
21
1360.45
31
0
0
LINE
8
0
10
36.65
20
1360.45
30
0
11
30.95
21
1360.45
31
0
0
LINE
8
0
10
30.95
20
1360.45
30
0
11
30.95
21
815.55
31
0
0
LINE
8
0
10
30.95
20
815.55
30
0
11
36.65
21
815.55
31
0
0
LINE
8
0
10
36.65
20
815.55
30
0
11
36.65
21
810.45
31
0
0
LINE
8
0
10
36.65
20
810.45
30
0
11
30.95
21
810.45
31
0
0
LINE
8
0
10
30.95
20
810.45
30
0
11
30.95
21
102.95
31
0
0
LINE
8
0
10
30.95
20
102.95
30
0
11
37.05
21
102.95
31
0
0
LINE
8
0
10
37.05
20
102.95
30
0
11
37.05
21
104.45
31
0
0
LINE
8
0
10
37.05
20
104.45
30
0
11
106.05
21
104.45
31
0
0
LINE
8
0
10
106.05
20
104.45
30
0
11
106.05
21
108.95
31
0
0
LINE
8
0
10
106.05
20
108.95
30
0
11
117.08
21
108.95
31
0
0
LINE
8
0
10
117.08
20
108.95
30
0
11
117.08
21
103.05
31
0
0
LINE
8
0
10
117.08
20
103.05
30
0
11
112.58
21
103.05
31
0
0
LINE
8
0
10
112.58
20
103.05
30
0
11
112.58
21
52.98
31
0
0
LINE
8
0
10
112.58
20
52.98
30
0
11
147.11
21
17.95
31
0
0
LINE
8
0
10
147.11
20
17.95
30
0
11
167.08
21
17.95
31
0
0
LINE
8
0
10
167.08
20
17.95
30
0
11
167.08
21
15.5
31
0
0
ARC
8
0
10
167.63
20
15.5
30
0
40
0.55
50
180
51
270
0
LINE
8
0
10
167.63
20
14.95
30
0
11
206.63
21
14.95
31
0
0
ARC
8
0
10
206.63
20
15.5
30
0
40
0.55
50
270
51
0
0
LINE
8
0
10
207.18
20
15.5
30
0
11
207.18
21
17.95
31
0
0
LINE
8
0
10
207.18
20
17.95
30
0
11
227.15
21
17.95
31
0
0
LINE
8
0
10
227.15
20
17.95
30
0
11
261.68
21
52.98
31
0
0
LINE
8
0
10
261.68
20
52.98
30
0
11
261.68
21
103.05
31
0
0
LINE
8
0
10
261.68
20
103.05
30
0
11
257.18
21
103.05
31
0
0
LINE
8
0
10
257.18
20
103.05
30
0
11
257.18
21
108.95
31
0
0
LINE
8
0
10
257.18
20
108.95
30
0
11
268.21
21
108.95
31
0
0
LINE
8
0
10
268.21
20
108.95
30
0
11
268.21
21
104.45
31
0
0
LINE
8
0
10
268.21
20
104.45
30
0
11
337.21
21
104.45
31
0
0
LINE
8
0
10
337.21
20
104.45
30
0
11
337.21
21
102.95
31
0
0
LINE
8
0
10
337.21
20
102.95
30
0
11
343.26
21
102.95
31
0
0
ENDSEC
0
EOF
