0
SECTION
2
HEADER
9
$ACADVER
1
AC1009
0
ENDSEC
0
SECTION
2
ENTITIES
0
CIRCLE
8
0
10
46
20
39
30
0
40
4.525483
0
CIRCLE
8
0
10
88
20
39
30
0
40
4.525483
0
LINE
8
0
10
66.26
20
14
30
0
11
66.26
21
18.95
31
0
0
LINE
8
0
10
66.26
20
18.95
30
0
11
51
21
18.95
31
0
0
ARC
8
0
10
51
20
14
30
0
40
4.95
50
90
51
180
0
LINE
8
0
10
46.05
20
14
30
0
11
46.05
21
10.95
31
0
0
LINE
8
0
10
46.05
20
10.95
30
0
11
32.91
21
10.95
31
0
0
LINE
8
0
10
32.91
20
10.95
30
0
11
32.91
21
9.95
31
0
0
LINE
8
0
10
32.91
20
9.95
30
0
11
29.81
21
9.95
31
0
0
LINE
8
0
10
29.81
20
9.95
30
0
11
29.81
21
22.01
31
0
0
LINE
8
0
10
29.81
20
22.01
30
0
11
31.42
21
26.42
31
0
0
LINE
8
0
10
31.42
20
26.42
30
0
11
27.01
21
24.81
31
0
0
LINE
8
0
10
27.01
20
24.81
30
0
11
14.95
21
24.81
31
0
0
LINE
8
0
10
14.95
20
24.81
30
0
11
14.95
21
48.55
31
0
0
LINE
8
0
10
14.95
20
48.55
30
0
11
41
21
48.55
31
0
0
ARC
8
0
10
41
20
53.5
30
0
40
4.95
50
270
51
0
0
LINE
8
0
10
45.95
20
53.5
30
0
11
45.95
21
68.55
31
0
0
LINE
8
0
10
45.95
20
68.55
30
0
11
88.05
21
68.55
31
0
0
LINE
8
0
10
88.05
20
68.55
30
0
11
88.05
21
53.5
31
0
0
ARC
8
0
10
93
20
53.5
30
0
40
4.95
50
180
51
270
0
LINE
8
0
10
93
20
48.55
30
0
11
119.06
21
48.55
31
0
0
LINE
8
0
10
119.06
20
48.55
30
0
11
119.06
21
24.81
31
0
0
LINE
8
0
10
119.06
20
24.81
30
0
11
107
21
24.81
31
0
0
LINE
8
0
10
107
20
24.81
30
0
11
102.59
21
26.42
31
0
0
LINE
8
0
10
102.59
20
26.42
30
0
11
104.2
21
22.01
31
0
0
LINE
8
0
10
104.2
20
22.01
30
0
11
104.2
21
9.95
31
0
0
LINE
8
0
10
104.2
20
9.95
30
0
11
101.1
21
9.95
31
0
0
LINE
8
0
10
101.1
20
9.95
30
0
11
101.1
21
10.95
31
0
0
LINE
8
0
10
101.1
20
10.95
30
0
11
87.95
21
10.95
31
0
0
LINE
8
0
10
87.95
20
10.95
30
0
11
87.95
21
14
31
0
0
ARC
8
0
10
83
20
14
30
0
40
4.95
50
0
51
90
0
LINE
8
0
10
83
20
18.95
30
0
11
67.01
21
18.95
31
0
0
ENDSEC
0
EOF
