0
SECTION
2
HEADER
9
$ACADVER
1
AC1009
0
ENDSEC
0
SECTION
2
ENTITIES
0
LINE
8
0
10
1190.06
20
134.06
30
0
11
1189.35
21
134.77
31
0
0
LINE
8
0
10
1189.35
20
134.77
30
0
11
1189.35
21
136.91
31
0
0
LINE
8
0
10
1189.35
20
136.91
30
0
11
1190.06
21
137.63
31
0
0
LINE
8
0
10
1190.06
20
137.63
30
0
11
1191.49
21
137.63
31
0
0
LINE
8
0
10
1191.49
20
137.63
30
0
11
1192.21
21
136.91
31
0
0
LINE
8
0
10
1192.21
20
136.91
30
0
11
1192.21
21
134.77
31
0
0
LINE
8
0
10
1192.21
20
134.77
30
0
11
1192.92
21
134.06
31
0
0
LINE
8
0
10
1192.92
20
134.06
30
0
11
1194.35
21
134.06
31
0
0
LINE
8
0
10
1194.35
20
134.06
30
0
11
1194.35
21
136.91
31
0
0
LINE
8
0
10
1194.35
20
136.91
30
0
11
1193.63
21
137.63
31
0
0
LINE
8
0
10
1194.35
20
138.79
30
0
11
1189.35
21
141.64
31
0
0
LINE
8
0
10
1189.35
20
141.64
30
0
11
1189.35
21
138.07
31
0
0
LINE
8
0
10
1192.21
20
138.79
30
0
11
1192.21
21
140.93
31
0
0
LINE
8
0
10
1192.21
20
142.09
30
0
11
1192.21
21
144.95
31
0
0
LINE
8
0
10
1192.21
20
144.95
30
0
11
1192.92
21
145.66
31
0
0
LINE
8
0
10
1192.92
20
145.66
30
0
11
1193.63
21
145.66
31
0
0
LINE
8
0
10
1193.63
20
145.66
30
0
11
1194.35
21
144.95
31
0
0
LINE
8
0
10
1194.35
20
144.95
30
0
11
1194.35
21
142.81
31
0
0
LINE
8
0
10
1194.35
20
142.81
30
0
11
1193.63
21
142.09
31
0
0
LINE
8
0
10
1193.63
20
142.09
30
0
11
1190.06
21
142.09
31
0
0
LINE
8
0
10
1190.06
20
142.09
30
0
11
1189.35
21
142.81
31
0
0
LINE
8
0
10
1189.35
20
142.81
30
0
11
1189.35
21
144.95
31
0
0
LINE
8
0
10
1189.86
20
146.11
30
0
11
1189.35
21
146.62
31
0
0
LINE
8
0
10
1189.35
20
146.62
30
0
11
1194.35
21
146.62
31
0
0
LINE
8
0
10
1194.35
20
147.13
30
0
11
1194.35
21
146.11
31
0
0
LINE
8
0
10
1194.35
20
147.58
30
0
11
1194.35
21
150.44
31
0
0
LINE
8
0
10
1194.35
20
150.44
30
0
11
1193.63
21
151.15
31
0
0
LINE
8
0
10
1193.63
20
151.15
30
0
11
1192.92
21
151.15
31
0
0
LINE
8
0
10
1192.92
20
151.15
30
0
11
1192.21
21
150.44
31
0
0
LINE
8
0
10
1192.21
20
150.44
30
0
11
1192.21
21
147.58
31
0
0
LINE
8
0
10
1192.21
20
147.58
30
0
11
1189.35
21
147.58
31
0
0
LINE
8
0
10
1189.35
20
147.58
30
0
11
1189.35
21
151.15
31
0
0
LINE
8
0
10
1226.56
20
161.68
30
0
11
1224.47
21
163.77
31
0
0
ARC
8
0
10
1228.01
20
160.3
30
0
40
4.957066
50
135.572121
51
135
0
LINE
8
0
10
1209.05
20
50.38
30
0
11
1206.97
21
52.47
31
0
0
ARC
8
0
10
1210.2
20
49.3
30
0
40
4.525682
50
135.537132
51
135
0
LINE
8
0
10
1191.2
20
172.55
30
0
11
1196.15
21
172.55
31
0
0
LINE
8
0
10
1196.15
20
172.55
30
0
11
1196.15
21
170.85
31
0
0
LINE
8
0
10
1196.15
20
170.85
30
0
11
1191.2
21
170.85
31
0
0
ARC
8
0
10
1191.2
20
165.8
30
0
40
5.05
50
90
51
180
0
LINE
8
0
10
1186.15
20
165.8
30
0
11
1186.15
21
121.8
31
0
0
ARC
8
0
10
1191.2
20
121.8
30
0
40
5.05
50
180
51
270
0
LINE
8
0
10
1191.2
20
116.75
30
0
11
1200.65
21
116.75
31
0
0
LINE
8
0
10
1200.65
20
116.75
30
0
11
1200.65
21
114.85
31
0
0
LINE
8
0
10
1200.65
20
114.85
30
0
11
1183.4
21
114.85
31
0
0
ARC
8
0
10
1183.4
20
109.8
30
0
40
5.05
50
90
51
180
0
LINE
8
0
10
1178.35
20
109.8
30
0
11
1178.35
21
31.3
31
0
0
ARC
8
0
10
1183.4
20
31.3
30
0
40
5.05
50
180
51
270
0
LINE
8
0
10
1183.4
20
26.25
30
0
11
1200.15
21
26.25
31
0
0
LINE
8
0
10
1200.15
20
26.25
30
0
11
1200.15
21
10
31
0
0
ARC
8
0
10
1205.2
20
10
30
0
40
5.05
50
180
51
270
0
LINE
8
0
10
1205.2
20
4.95
30
0
11
1213.2
21
4.95
31
0
0
ARC
8
0
10
1213.2
20
10
30
0
40
5.05
50
270
51
0
0
LINE
8
0
10
1218.25
20
10
30
0
11
1218.25
21
144.35
31
0
0
LINE
8
0
10
1218.25
20
144.35
30
0
11
1214.25
21
144.35
31
0
0
LINE
8
0
10
1214.25
20
144.35
30
0
11
1214.25
21
146.25
31
0
0
LINE
8
0
10
1214.25
20
146.25
30
0
11
1231.51
21
146.25
31
0
0
ARC
8
0
10
1231.51
20
151.3
30
0
40
5.05
50
270
51
0
0
LINE
8
0
10
1236.56
20
151.3
30
0
11
1236.56
21
174.85
31
0
0
LINE
8
0
10
1236.56
20
174.85
30
0
11
1220.46
21
174.85
31
0
0
LINE
8
0
10
1220.46
20
174.85
30
0
11
1220.46
21
171.85
31
0
0
LINE
8
0
10
1220.46
20
171.85
30
0
11
1216.25
21
171.85
31
0
0
LINE
8
0
10
1216.25
20
171.85
30
0
11
1216.25
21
175.06
31
0
0
LINE
8
0
10
1216.25
20
175.06
30
0
11
1218
21
175.06
31
0
0
LINE
8
0
10
1218
20
175.06
30
0
11
1218
21
191.16
31
0
0
LINE
8
0
10
1218
20
191.16
30
0
11
1194.65
21
191.16
31
0
0
LINE
8
0
10
1194.65
20
191.16
30
0
11
1194.65
21
175.06
31
0
0
LINE
8
0
10
1194.65
20
175.06
30
0
11
1196.15
21
175.06
31
0
0
LINE
8
0
10
1196.15
20
175.06
30
0
11
1196.15
21
173.25
31
0
0
ENDSEC
0
EOF
