0
SECTION
2
HEADER
9
$ACADVER
1
AC1009
0
ENDSEC
0
SECTION
2
ENTITIES
0
LINE
8
0
10
138.5
20
36.35
30
0
11
133.56
21
36.35
31
0
0
LINE
8
0
10
133.56
20
36.35
30
0
11
133.56
21
41
31
0
0
ARC
8
0
10
133
20
41
30
0
40
0.56
50
0
51
90
0
LINE
8
0
10
133
20
41.56
30
0
11
131.56
21
41.56
31
0
0
LINE
8
0
10
131.56
20
41.56
30
0
11
131.56
21
42.2
31
0
0
ARC
8
0
10
131.2
20
42.2
30
0
40
0.36
50
0
51
90
0
LINE
8
0
10
131.2
20
42.56
30
0
11
130.3
21
42.56
31
0
0
ARC
8
0
10
130.3
20
42.8
30
0
40
0.24
50
180
51
270
0
LINE
8
0
10
130.06
20
42.8
30
0
11
130.06
21
51.7
31
0
0
ARC
8
0
10
130.3
20
51.7
30
0
40
0.24
50
90
51
180
0
LINE
8
0
10
130.3
20
51.94
30
0
11
131.2
21
51.94
31
0
0
ARC
8
0
10
131.2
20
52.3
30
0
40
0.36
50
270
51
0
0
LINE
8
0
10
131.56
20
52.3
30
0
11
131.56
21
53.52
31
0
0
LINE
8
0
10
131.56
20
53.52
30
0
11
121.45
21
63.64
31
0
0
LINE
8
0
10
121.45
20
63.64
30
0
11
120.29
21
63.99
31
0
0
ARC
8
0
10
120.18
20
63.65
30
0
40
0.357351
50
72.07208
51
163.61046
0
LINE
8
0
10
119.84
20
63.75
30
0
11
119.57
21
62.89
31
0
0
ARC
8
0
10
119.35
20
62.96
30
0
40
0.230868
50
253.072487
51
342.349876
0
LINE
8
0
10
119.28
20
62.73
30
0
11
104.59
21
67.22
31
0
0
ARC
8
0
10
104.66
20
67.45
30
0
40
0.240416
50
163.072487
51
253.072487
0
LINE
8
0
10
104.43
20
67.52
30
0
11
104.69
21
68.38
31
0
0
ARC
8
0
10
104.35
20
68.49
30
0
40
0.357351
50
342.07208
51
73.61046
0
LINE
8
0
10
104.45
20
68.83
30
0
11
103.84
21
69.02
31
0
0
LINE
8
0
10
103.84
20
69.02
30
0
11
104.26
21
70.4
31
0
0
ARC
8
0
10
103.73
20
70.56
30
0
40
0.553624
50
343.201628
51
73.201628
0
LINE
8
0
10
103.89
20
71.09
30
0
11
101.49
21
71.83
31
0
0
LINE
8
0
10
101.49
20
71.83
30
0
11
94.21
21
71.96
31
0
0
LINE
8
0
10
94.21
20
71.96
30
0
11
81.94
21
75.71
31
0
0
LINE
8
0
10
81.94
20
75.71
30
0
11
81.94
21
41.83
31
0
0
ARC
8
0
10
87
20
41.83
30
0
40
5.06
50
180
51
206.919662
0
LINE
8
0
10
82.49
20
39.54
30
0
11
94.06
21
16.71
31
0
0
ARC
8
0
10
98.57
20
19
30
0
40
5.058083
50
206.919662
51
270
0
LINE
8
0
10
98.57
20
13.94
30
0
11
101.07
21
13.94
31
0
0
ARC
8
0
10
101.07
20
14.3
30
0
40
0.36
50
270
51
0
0
LINE
8
0
10
101.43
20
14.3
30
0
11
101.43
21
15.2
31
0
0
ARC
8
0
10
101.67
20
15.2
30
0
40
0.24
50
90
51
180
0
LINE
8
0
10
101.67
20
15.44
30
0
11
122.7
21
15.44
31
0
0
ARC
8
0
10
122.7
20
15.2
30
0
40
0.24
50
0
51
90
0
LINE
8
0
10
122.94
20
15.2
30
0
11
122.94
21
14.3
31
0
0
ARC
8
0
10
123.3
20
14.3
30
0
40
0.36
50
180
51
270
0
LINE
8
0
10
123.3
20
13.94
30
0
11
124.52
21
13.94
31
0
0
LINE
8
0
10
124.52
20
13.94
30
0
11
131.56
21
20.98
31
0
0
LINE
8
0
10
131.56
20
20.98
30
0
11
131.56
21
22.06
31
0
0
LINE
8
0
10
131.56
20
22.06
30
0
11
131.06
21
22.06
31
0
0
LINE
8
0
10
131.06
20
22.06
30
0
11
131.06
21
30.44
31
0
0
LINE
8
0
10
131.06
20
30.44
30
0
11
131.56
21
30.44
31
0
0
LINE
8
0
10
131.56
20
30.44
30
0
11
131.56
21
31.44
31
0
0
LINE
8
0
10
131.56
20
31.44
30
0
11
133
21
31.44
31
0
0
ARC
8
0
10
133
20
32
30
0
40
0.56
50
270
51
0
0
LINE
8
0
10
133.56
20
32
30
0
11
133.56
21
35.64
31
0
0
ENDSEC
0
EOF
