0
SECTION
2
HEADER
9
$ACADVER
1
AC1009
0
ENDSEC
0
SECTION
2
ENTITIES
0
ARC
8
0
10
453.5
20
284.4
30
0
40
5.95
50
90
51
180
0
LINE
8
0
10
447.55
20
284.4
30
0
11
447.55
21
282.4
31
0
0
ARC
8
0
10
453.5
20
282.4
30
0
40
5.95
50
180
51
0
0
LINE
8
0
10
459.45
20
282.4
30
0
11
459.45
21
284.4
31
0
0
ARC
8
0
10
453.5
20
284.4
30
0
40
5.95
50
0
51
90
0
ARC
8
0
10
453.5
20
444.4
30
0
40
5.95
50
90
51
180
0
LINE
8
0
10
447.55
20
444.4
30
0
11
447.55
21
442.4
31
0
0
ARC
8
0
10
453.5
20
442.4
30
0
40
5.95
50
180
51
0
0
LINE
8
0
10
459.45
20
442.4
30
0
11
459.45
21
444.4
31
0
0
ARC
8
0
10
453.5
20
444.4
30
0
40
5.95
50
0
51
90
0
LINE
8
0
10
818.45
20
363.4
30
0
11
818.45
21
448.4
31
0
0
ARC
8
0
10
798.5
20
448.4
30
0
40
19.95
50
0
51
90
0
LINE
8
0
10
798.5
20
468.35
30
0
11
538.5
21
468.35
31
0
0
ARC
8
0
10
538.5
20
448.4
30
0
40
19.95
50
90
51
180
0
LINE
8
0
10
518.55
20
448.4
30
0
11
518.55
21
278.4
31
0
0
ARC
8
0
10
538.5
20
278.4
30
0
40
19.95
50
180
51
270
0
LINE
8
0
10
538.5
20
258.45
30
0
11
798.5
21
258.45
31
0
0
ARC
8
0
10
798.5
20
278.4
30
0
40
19.95
50
270
51
0
0
LINE
8
0
10
818.45
20
278.4
30
0
11
818.45
21
363.4
31
0
0
ARC
8
0
10
1433.5
20
444.4
30
0
40
5.95
50
90
51
180
0
LINE
8
0
10
1427.55
20
444.4
30
0
11
1427.55
21
442.4
31
0
0
ARC
8
0
10
1433.5
20
442.4
30
0
40
5.95
50
180
51
0
0
LINE
8
0
10
1439.45
20
442.4
30
0
11
1439.45
21
444.4
31
0
0
ARC
8
0
10
1433.5
20
444.4
30
0
40
5.95
50
0
51
90
0
LINE
8
0
10
1368.45
20
363.4
30
0
11
1368.45
21
448.4
31
0
0
ARC
8
0
10
1348.5
20
448.4
30
0
40
19.95
50
0
51
90
0
LINE
8
0
10
1348.5
20
468.35
30
0
11
1088.5
21
468.35
31
0
0
ARC
8
0
10
1088.5
20
448.4
30
0
40
19.95
50
90
51
180
0
LINE
8
0
10
1068.55
20
448.4
30
0
11
1068.55
21
278.4
31
0
0
ARC
8
0
10
1088.5
20
278.4
30
0
40
19.95
50
180
51
270
0
LINE
8
0
10
1088.5
20
258.45
30
0
11
1348.5
21
258.45
31
0
0
ARC
8
0
10
1348.5
20
278.4
30
0
40
19.95
50
270
51
0
0
LINE
8
0
10
1368.45
20
278.4
30
0
11
1368.45
21
363.4
31
0
0
ARC
8
0
10
1433.5
20
284.4
30
0
40
5.95
50
90
51
180
0
LINE
8
0
10
1427.55
20
284.4
30
0
11
1427.55
21
282.4
31
0
0
ARC
8
0
10
1433.5
20
282.4
30
0
40
5.95
50
180
51
0
0
LINE
8
0
10
1439.45
20
282.4
30
0
11
1439.45
21
284.4
31
0
0
ARC
8
0
10
1433.5
20
284.4
30
0
40
5.95
50
0
51
90
0
LINE
8
0
10
420.25
20
105.1
30
0
11
417.98
21
103.83
31
0
0
ARC
8
0
10
416.5
20
106.5
30
0
40
3.052753
50
180
51
298.999915
0
LINE
8
0
10
413.45
20
106.5
30
0
11
413.45
21
620.3
31
0
0
ARC
8
0
10
416.5
20
620.3
30
0
40
3.05
50
61.000085
51
180
0
LINE
8
0
10
417.98
20
622.97
30
0
11
422.51
21
620.45
31
0
0
LINE
8
0
10
422.51
20
620.45
30
0
11
1464.49
21
620.45
31
0
0
LINE
8
0
10
1464.49
20
620.45
30
0
11
1469.02
21
622.97
31
0
0
ARC
8
0
10
1470.5
20
620.3
30
0
40
3.052753
50
360
51
118.999915
0
LINE
8
0
10
1473.55
20
620.3
30
0
11
1473.55
21
106.5
31
0
0
ARC
8
0
10
1470.5
20
106.5
30
0
40
3.05
50
241.000085
51
0
0
LINE
8
0
10
1469.02
20
103.83
30
0
11
1464.49
21
106.35
31
0
0
LINE
8
0
10
1464.49
20
106.35
30
0
11
422.51
21
106.35
31
0
0
LINE
8
0
10
422.51
20
106.35
30
0
11
420.25
21
105.1
31
0
0
ENDSEC
0
EOF
