0
SECTION
2
HEADER
9
$ACADVER
1
AC1009
0
ENDSEC
0
SECTION
2
ENTITIES
0
LINE
8
0
10
524.55
20
28.5
30
0
11
524.55
21
34
31
0
0
ARC
8
0
10
527.5
20
34
30
0
40
2.95
50
90
51
180
0
LINE
8
0
10
527.5
20
36.95
30
0
11
546.5
21
36.95
31
0
0
ARC
8
0
10
546.5
20
34
30
0
40
2.95
50
0
51
90
0
LINE
8
0
10
549.45
20
34
30
0
11
549.45
21
23
31
0
0
ARC
8
0
10
546.5
20
23
30
0
40
2.95
50
270
51
0
0
LINE
8
0
10
546.5
20
20.05
30
0
11
527.5
21
20.05
31
0
0
ARC
8
0
10
527.5
20
23
30
0
40
2.95
50
180
51
270
0
LINE
8
0
10
524.55
20
23
30
0
11
524.55
21
28.5
31
0
0
LINE
8
0
10
640
20
27.87
30
0
11
635.05
21
27.87
31
0
0
LINE
8
0
10
635.05
20
27.87
30
0
11
635.05
21
22.45
31
0
0
LINE
8
0
10
635.05
20
22.45
30
0
11
632.05
21
22.45
31
0
0
LINE
8
0
10
632.05
20
22.45
30
0
11
632.05
21
12.98
31
0
0
LINE
8
0
10
632.05
20
12.98
30
0
11
624.02
21
4.95
31
0
0
LINE
8
0
10
624.02
20
4.95
30
0
11
344.98
21
4.95
31
0
0
LINE
8
0
10
344.98
20
4.95
30
0
11
336.95
21
12.98
31
0
0
LINE
8
0
10
336.95
20
12.98
30
0
11
336.95
21
50.04
31
0
0
LINE
8
0
10
336.95
20
50.04
30
0
11
380.32
21
57.35
31
0
0
ARC
8
0
10
379.5
20
62.23
30
0
40
4.948414
50
279.538463
51
360
0
LINE
8
0
10
384.45
20
62.23
30
0
11
384.45
21
70.05
31
0
0
LINE
8
0
10
384.45
20
70.05
30
0
11
451.95
21
70.05
31
0
0
LINE
8
0
10
451.95
20
70.05
30
0
11
451.95
21
73.05
31
0
0
LINE
8
0
10
451.95
20
73.05
30
0
11
497.05
21
73.05
31
0
0
LINE
8
0
10
497.05
20
73.05
30
0
11
497.05
21
70.05
31
0
0
LINE
8
0
10
497.05
20
70.05
30
0
11
584.55
21
70.05
31
0
0
LINE
8
0
10
584.55
20
70.05
30
0
11
584.55
21
62.23
31
0
0
ARC
8
0
10
589.5
20
62.23
30
0
40
4.95
50
180
51
260.461537
0
LINE
8
0
10
588.68
20
57.35
30
0
11
632.05
21
50.04
31
0
0
LINE
8
0
10
632.05
20
50.04
30
0
11
632.05
21
37.55
31
0
0
LINE
8
0
10
632.05
20
37.55
30
0
11
635.05
21
37.55
31
0
0
LINE
8
0
10
635.05
20
37.55
30
0
11
635.05
21
28.57
31
0
0
ENDSEC
0
EOF
