0
SECTION
2
HEADER
9
$ACADVER
1
AC1009
0
ENDSEC
0
SECTION
2
ENTITIES
0
LINE
8
0
10
1364.62
20
227.64
30
0
11
1376.62
21
234.57
31
0
0
LINE
8
0
10
1376.62
20
234.57
30
0
11
1376.62
21
248.43
31
0
0
LINE
8
0
10
1376.62
20
248.43
30
0
11
1364.62
21
255.36
31
0
0
LINE
8
0
10
1364.62
20
255.36
30
0
11
1352.62
21
248.43
31
0
0
LINE
8
0
10
1352.62
20
248.43
30
0
11
1352.62
21
234.57
31
0
0
LINE
8
0
10
1352.62
20
234.57
30
0
11
1364.62
21
227.64
31
0
0
LINE
8
0
10
1316.62
20
234.57
30
0
11
1316.62
21
248.43
31
0
0
LINE
8
0
10
1316.62
20
248.43
30
0
11
1304.62
21
255.36
31
0
0
LINE
8
0
10
1304.62
20
255.36
30
0
11
1292.62
21
248.43
31
0
0
LINE
8
0
10
1292.62
20
248.43
30
0
11
1292.62
21
234.57
31
0
0
LINE
8
0
10
1292.62
20
234.57
30
0
11
1304.62
21
227.64
31
0
0
LINE
8
0
10
1304.62
20
227.64
30
0
11
1316.62
21
234.57
31
0
0
LINE
8
0
10
1186.5
20
156.41
30
0
11
1178
21
161.31
31
0
0
LINE
8
0
10
1178
20
161.31
30
0
11
1169.5
21
156.41
31
0
0
LINE
8
0
10
1169.5
20
156.41
30
0
11
1169.5
21
146.59
31
0
0
LINE
8
0
10
1169.5
20
146.59
30
0
11
1178
21
141.69
31
0
0
LINE
8
0
10
1178
20
141.69
30
0
11
1186.5
21
146.59
31
0
0
LINE
8
0
10
1186.5
20
146.59
30
0
11
1186.5
21
156.41
31
0
0
LINE
8
0
10
1304.62
20
402.64
30
0
11
1316.62
21
409.57
31
0
0
LINE
8
0
10
1316.62
20
409.57
30
0
11
1316.62
21
423.43
31
0
0
LINE
8
0
10
1316.62
20
423.43
30
0
11
1304.62
21
430.36
31
0
0
LINE
8
0
10
1304.62
20
430.36
30
0
11
1292.62
21
423.43
31
0
0
LINE
8
0
10
1292.62
20
423.43
30
0
11
1292.62
21
409.57
31
0
0
LINE
8
0
10
1292.62
20
409.57
30
0
11
1304.62
21
402.64
31
0
0
LINE
8
0
10
1352.62
20
409.57
30
0
11
1364.62
21
402.64
31
0
0
LINE
8
0
10
1364.62
20
402.64
30
0
11
1376.62
21
409.57
31
0
0
LINE
8
0
10
1376.62
20
409.57
30
0
11
1376.62
21
423.43
31
0
0
LINE
8
0
10
1376.62
20
423.43
30
0
11
1364.62
21
430.36
31
0
0
LINE
8
0
10
1364.62
20
430.36
30
0
11
1352.62
21
423.43
31
0
0
LINE
8
0
10
1352.62
20
423.43
30
0
11
1352.62
21
409.57
31
0
0
LINE
8
0
10
1186.5
20
519.59
30
0
11
1186.5
21
529.41
31
0
0
LINE
8
0
10
1186.5
20
529.41
30
0
11
1178
21
534.31
31
0
0
LINE
8
0
10
1178
20
534.31
30
0
11
1169.5
21
529.41
31
0
0
LINE
8
0
10
1169.5
20
529.41
30
0
11
1169.5
21
519.59
31
0
0
LINE
8
0
10
1169.5
20
519.59
30
0
11
1178
21
514.69
31
0
0
LINE
8
0
10
1178
20
514.69
30
0
11
1186.5
21
519.59
31
0
0
LINE
8
0
10
1317.37
20
891.38
30
0
11
1316.35
21
892.4
31
0
0
LINE
8
0
10
1316.35
20
892.4
30
0
11
1326.35
21
892.4
31
0
0
LINE
8
0
10
1326.35
20
891.38
30
0
11
1326.35
21
893.43
31
0
0
LINE
8
0
10
1326.35
20
894.32
30
0
11
1326.35
21
900.03
31
0
0
LINE
8
0
10
1326.35
20
900.03
30
0
11
1324.92
21
901.46
31
0
0
LINE
8
0
10
1324.92
20
901.46
30
0
11
1323.49
21
901.46
31
0
0
LINE
8
0
10
1323.49
20
901.46
30
0
11
1322.06
21
900.03
31
0
0
LINE
8
0
10
1322.06
20
900.03
30
0
11
1322.06
21
894.32
31
0
0
LINE
8
0
10
1322.06
20
894.32
30
0
11
1316.35
21
894.32
31
0
0
LINE
8
0
10
1316.35
20
894.32
30
0
11
1316.35
21
901.46
31
0
0
LINE
8
0
10
1316.35
20
908.07
30
0
11
1326.35
21
903.78
31
0
0
LINE
8
0
10
1326.35
20
903.78
30
0
11
1324.92
21
902.35
31
0
0
LINE
8
0
10
1324.92
20
902.35
30
0
11
1317.77
21
902.35
31
0
0
LINE
8
0
10
1317.77
20
902.35
30
0
11
1316.35
21
903.78
31
0
0
LINE
8
0
10
1316.35
20
903.78
30
0
11
1316.35
21
908.07
31
0
0
LINE
8
0
10
1316.35
20
908.07
30
0
11
1317.77
21
909.5
31
0
0
LINE
8
0
10
1317.77
20
909.5
30
0
11
1324.92
21
909.5
31
0
0
LINE
8
0
10
1324.92
20
909.5
30
0
11
1326.35
21
908.07
31
0
0
LINE
8
0
10
1326.35
20
908.07
30
0
11
1326.35
21
903.78
31
0
0
LINE
8
0
10
1324.92
20
910.39
30
0
11
1326.35
21
911.82
31
0
0
LINE
8
0
10
1326.35
20
911.82
30
0
11
1326.35
21
916.1
31
0
0
LINE
8
0
10
1326.35
20
916.1
30
0
11
1324.92
21
917.53
31
0
0
LINE
8
0
10
1324.92
20
917.53
30
0
11
1323.49
21
917.53
31
0
0
LINE
8
0
10
1323.49
20
917.53
30
0
11
1322.06
21
916.1
31
0
0
LINE
8
0
10
1322.06
20
916.1
30
0
11
1320.63
21
917.53
31
0
0
LINE
8
0
10
1320.63
20
917.53
30
0
11
1317.77
21
917.53
31
0
0
LINE
8
0
10
1317.77
20
917.53
30
0
11
1316.35
21
916.1
31
0
0
LINE
8
0
10
1316.35
20
916.1
30
0
11
1316.35
21
911.82
31
0
0
LINE
8
0
10
1316.35
20
911.82
30
0
11
1317.77
21
910.39
31
0
0
LINE
8
0
10
1322.06
20
911.82
30
0
11
1322.06
21
916.1
31
0
0
LINE
8
0
10
1186.5
20
929.59
30
0
11
1186.5
21
939.41
31
0
0
LINE
8
0
10
1186.5
20
939.41
30
0
11
1178
21
944.31
31
0
0
LINE
8
0
10
1178
20
944.31
30
0
11
1169.5
21
939.41
31
0
0
LINE
8
0
10
1169.5
20
939.41
30
0
11
1169.5
21
929.59
31
0
0
LINE
8
0
10
1169.5
20
929.59
30
0
11
1178
21
924.69
31
0
0
LINE
8
0
10
1178
20
924.69
30
0
11
1186.5
21
929.59
31
0
0
LINE
8
0
10
1178
20
1108.69
30
0
11
1186.5
21
1113.59
31
0
0
LINE
8
0
10
1186.5
20
1113.59
30
0
11
1186.5
21
1123.41
31
0
0
LINE
8
0
10
1186.5
20
1123.41
30
0
11
1178
21
1128.31
31
0
0
LINE
8
0
10
1178
20
1128.31
30
0
11
1169.5
21
1123.41
31
0
0
LINE
8
0
10
1169.5
20
1123.41
30
0
11
1169.5
21
1113.59
31
0
0
LINE
8
0
10
1169.5
20
1113.59
30
0
11
1178
21
1108.69
31
0
0
LINE
8
0
10
1304.62
20
1622.64
30
0
11
1316.62
21
1629.57
31
0
0
LINE
8
0
10
1316.62
20
1629.57
30
0
11
1316.62
21
1643.43
31
0
0
LINE
8
0
10
1316.62
20
1643.43
30
0
11
1304.62
21
1650.36
31
0
0
LINE
8
0
10
1304.62
20
1650.36
30
0
11
1292.62
21
1643.43
31
0
0
LINE
8
0
10
1292.62
20
1643.43
30
0
11
1292.62
21
1629.57
31
0
0
LINE
8
0
10
1292.62
20
1629.57
30
0
11
1304.62
21
1622.64
31
0
0
LINE
8
0
10
1352.62
20
1629.57
30
0
11
1364.62
21
1622.64
31
0
0
LINE
8
0
10
1364.62
20
1622.64
30
0
11
1376.62
21
1629.57
31
0
0
LINE
8
0
10
1376.62
20
1629.57
30
0
11
1376.62
21
1643.43
31
0
0
LINE
8
0
10
1376.62
20
1643.43
30
0
11
1364.62
21
1650.36
31
0
0
LINE
8
0
10
1364.62
20
1650.36
30
0
11
1352.62
21
1643.43
31
0
0
LINE
8
0
10
1352.62
20
1643.43
30
0
11
1352.62
21
1629.57
31
0
0
LINE
8
0
10
1304.62
20
1797.64
30
0
11
1316.62
21
1804.57
31
0
0
LINE
8
0
10
1316.62
20
1804.57
30
0
11
1316.62
21
1818.43
31
0
0
LINE
8
0
10
1316.62
20
1818.43
30
0
11
1304.62
21
1825.36
31
0
0
LINE
8
0
10
1304.62
20
1825.36
30
0
11
1292.62
21
1818.43
31
0
0
LINE
8
0
10
1292.62
20
1818.43
30
0
11
1292.62
21
1804.57
31
0
0
LINE
8
0
10
1292.62
20
1804.57
30
0
11
1304.62
21
1797.64
31
0
0
LINE
8
0
10
1352.62
20
1804.57
30
0
11
1364.62
21
1797.64
31
0
0
LINE
8
0
10
1364.62
20
1797.64
30
0
11
1376.62
21
1804.57
31
0
0
LINE
8
0
10
1376.62
20
1804.57
30
0
11
1376.62
21
1818.43
31
0
0
LINE
8
0
10
1376.62
20
1818.43
30
0
11
1364.62
21
1825.36
31
0
0
LINE
8
0
10
1364.62
20
1825.36
30
0
11
1352.62
21
1818.43
31
0
0
LINE
8
0
10
1352.62
20
1818.43
30
0
11
1352.62
21
1804.57
31
0
0
LINE
8
0
10
1186.5
20
1896.59
30
0
11
1186.5
21
1906.41
31
0
0
LINE
8
0
10
1186.5
20
1906.41
30
0
11
1178
21
1911.31
31
0
0
LINE
8
0
10
1178
20
1911.31
30
0
11
1169.5
21
1906.41
31
0
0
LINE
8
0
10
1169.5
20
1906.41
30
0
11
1169.5
21
1896.59
31
0
0
LINE
8
0
10
1169.5
20
1896.59
30
0
11
1178
21
1891.69
31
0
0
LINE
8
0
10
1178
20
1891.69
30
0
11
1186.5
21
1896.59
31
0
0
LINE
8
0
10
1175.67
20
1903.76
30
0
11
1173.58
21
1905.85
31
0
0
ARC
8
0
10
1178
20
1901.5
30
0
40
6.201524
50
135.457311
51
135
0
LINE
8
0
10
1223.14
20
1929.29
30
0
11
1221.05
21
1931.38
31
0
0
ARC
8
0
10
1226
20
1926.5
30
0
40
6.951036
50
135.408
51
135
0
LINE
8
0
10
1301.17
20
1954.5
30
0
11
1301.17
21
1957.45
31
0
0
LINE
8
0
10
1301.17
20
1957.45
30
0
11
1343.07
21
1957.45
31
0
0
LINE
8
0
10
1343.07
20
1957.45
30
0
11
1343.07
21
1951.55
31
0
0
LINE
8
0
10
1343.07
20
1951.55
30
0
11
1301.17
21
1951.55
31
0
0
LINE
8
0
10
1301.17
20
1951.55
30
0
11
1301.17
21
1954.5
31
0
0
LINE
8
0
10
1438.97
20
2012.21
30
0
11
1436.88
21
2014.29
31
0
0
ARC
8
0
10
1443.24
20
2008
30
0
40
8.945038
50
135.317049
51
134.954707
0
LINE
8
0
10
1360.03
20
1816.03
30
0
11
1357.94
21
1818.11
31
0
0
ARC
8
0
10
1364.62
20
1811.5
30
0
40
9.397579
50
135.301781
51
134.956888
0
LINE
8
0
10
1300.03
20
1816.03
30
0
11
1297.94
21
1818.11
31
0
0
ARC
8
0
10
1304.62
20
1811.5
30
0
40
9.397579
50
135.301781
51
134.956888
0
LINE
8
0
10
1300.03
20
1641.03
30
0
11
1297.94
21
1643.11
31
0
0
ARC
8
0
10
1304.62
20
1636.5
30
0
40
9.397579
50
135.301781
51
134.956888
0
LINE
8
0
10
1360.03
20
1641.03
30
0
11
1357.94
21
1643.11
31
0
0
ARC
8
0
10
1364.62
20
1636.5
30
0
40
9.397579
50
135.301781
51
134.956888
0
LINE
8
0
10
1175.49
20
1530.94
30
0
11
1173.4
21
1533.03
31
0
0
ARC
8
0
10
1178
20
1528.5
30
0
40
6.456075
50
135.43928
51
135
0
LINE
8
0
10
1223.14
20
1479.29
30
0
11
1221.05
21
1481.38
31
0
0
ARC
8
0
10
1226
20
1476.5
30
0
40
6.951036
50
135.408
51
135
0
LINE
8
0
10
1178.48
20
1287.95
30
0
11
1176.39
21
1290.04
31
0
0
ARC
8
0
10
1180
20
1286.5
30
0
40
5.056056
50
135.56092
51
135
0
LINE
8
0
10
1175.67
20
1120.76
30
0
11
1173.58
21
1122.85
31
0
0
ARC
8
0
10
1178
20
1118.5
30
0
40
6.201524
50
135.457311
51
135
0
LINE
8
0
10
1223.14
20
1029.29
30
0
11
1221.05
21
1031.38
31
0
0
ARC
8
0
10
1226
20
1026.5
30
0
40
6.951036
50
135.408
51
135
0
LINE
8
0
10
1301.17
20
1066.5
30
0
11
1301.17
21
1069.45
31
0
0
LINE
8
0
10
1301.17
20
1069.45
30
0
11
1343.07
21
1069.45
31
0
0
LINE
8
0
10
1343.07
20
1069.45
30
0
11
1343.07
21
1063.55
31
0
0
LINE
8
0
10
1343.07
20
1063.55
30
0
11
1301.17
21
1063.55
31
0
0
LINE
8
0
10
1301.17
20
1063.55
30
0
11
1301.17
21
1066.5
31
0
0
LINE
8
0
10
1175.67
20
936.76
30
0
11
1173.58
21
938.85
31
0
0
ARC
8
0
10
1178
20
934.5
30
0
40
6.201524
50
135.457311
51
135
0
LINE
8
0
10
1178.48
20
767.95
30
0
11
1176.39
21
770.04
31
0
0
ARC
8
0
10
1180
20
766.5
30
0
40
5.056056
50
135.56092
51
135
0
LINE
8
0
10
1223.14
20
579.29
30
0
11
1221.05
21
581.38
31
0
0
ARC
8
0
10
1226
20
576.5
30
0
40
6.951036
50
135.408
51
135
0
LINE
8
0
10
1175.67
20
526.76
30
0
11
1173.58
21
528.85
31
0
0
ARC
8
0
10
1178
20
524.5
30
0
40
6.201524
50
135.457311
51
135
0
LINE
8
0
10
1301.17
20
472
30
0
11
1301.17
21
474.95
31
0
0
LINE
8
0
10
1301.17
20
474.95
30
0
11
1343.07
21
474.95
31
0
0
LINE
8
0
10
1343.07
20
474.95
30
0
11
1343.07
21
469.05
31
0
0
LINE
8
0
10
1343.07
20
469.05
30
0
11
1301.17
21
469.05
31
0
0
LINE
8
0
10
1301.17
20
469.05
30
0
11
1301.17
21
472
31
0
0
LINE
8
0
10
1300.03
20
421.03
30
0
11
1297.94
21
423.11
31
0
0
ARC
8
0
10
1304.62
20
416.5
30
0
40
9.397579
50
135.301781
51
134.956888
0
LINE
8
0
10
1360.03
20
421.03
30
0
11
1357.94
21
423.11
31
0
0
ARC
8
0
10
1364.62
20
416.5
30
0
40
9.397579
50
135.301781
51
134.956888
0
LINE
8
0
10
1360.03
20
246.03
30
0
11
1357.94
21
248.11
31
0
0
ARC
8
0
10
1364.62
20
241.5
30
0
40
9.397579
50
135.301781
51
134.956888
0
LINE
8
0
10
1300.03
20
246.03
30
0
11
1297.94
21
248.11
31
0
0
ARC
8
0
10
1304.62
20
241.5
30
0
40
9.397579
50
135.301781
51
134.956888
0
LINE
8
0
10
1175.67
20
153.76
30
0
11
1173.58
21
155.85
31
0
0
ARC
8
0
10
1178
20
151.5
30
0
40
6.201524
50
135.457311
51
135
0
LINE
8
0
10
1223.14
20
129.29
30
0
11
1221.05
21
131.38
31
0
0
ARC
8
0
10
1226
20
126.5
30
0
40
6.951036
50
135.408
51
135
0
LINE
8
0
10
1301.17
20
97.5
30
0
11
1301.17
21
100.45
31
0
0
LINE
8
0
10
1301.17
20
100.45
30
0
11
1343.07
21
100.45
31
0
0
LINE
8
0
10
1343.07
20
100.45
30
0
11
1343.07
21
94.55
31
0
0
LINE
8
0
10
1343.07
20
94.55
30
0
11
1301.17
21
94.55
31
0
0
LINE
8
0
10
1301.17
20
94.55
30
0
11
1301.17
21
97.5
31
0
0
LINE
8
0
10
1438.97
20
49.21
30
0
11
1436.88
21
51.29
31
0
0
ARC
8
0
10
1443.24
20
45
30
0
40
8.945038
50
135.317049
51
134.954707
0
LINE
8
0
10
1486.24
20
14.95
30
0
11
1483.24
21
14.95
31
0
0
LINE
8
0
10
1483.24
20
14.95
30
0
11
1160.95
21
14.95
31
0
0
LINE
8
0
10
1160.95
20
14.95
30
0
11
1160.95
21
2037.05
31
0
0
LINE
8
0
10
1160.95
20
2037.05
30
0
11
1483.29
21
2037.05
31
0
0
LINE
8
0
10
1483.29
20
2037.05
30
0
11
1483.29
21
15
31
0
0
ENDSEC
0
EOF
