0
SECTION
2
HEADER
9
$ACADVER
1
AC1009
0
ENDSEC
0
SECTION
2
ENTITIES
0
LINE
8
0
10
895.27
20
120.92
30
0
11
895.27
21
128.07
31
0
0
LINE
8
0
10
895.27
20
128.07
30
0
11
896.7
21
129.49
31
0
0
LINE
8
0
10
896.7
20
129.49
30
0
11
900.99
21
129.49
31
0
0
LINE
8
0
10
900.99
20
129.49
30
0
11
902.42
21
128.07
31
0
0
LINE
8
0
10
902.42
20
128.07
30
0
11
902.42
21
120.92
31
0
0
LINE
8
0
10
902.42
20
120.92
30
0
11
900.99
21
119.49
31
0
0
LINE
8
0
10
900.99
20
119.49
30
0
11
896.7
21
119.49
31
0
0
LINE
8
0
10
896.7
20
119.49
30
0
11
895.27
21
120.92
31
0
0
LINE
8
0
10
898.85
20
122.35
30
0
11
902.42
21
119.49
31
0
0
LINE
8
0
10
903.31
20
122.35
30
0
11
910.45
21
122.35
31
0
0
LINE
8
0
10
910.45
20
122.35
30
0
11
906.88
21
129.49
31
0
0
LINE
8
0
10
906.88
20
129.49
30
0
11
903.31
21
122.35
31
0
0
LINE
8
0
10
910.45
20
122.35
30
0
11
910.45
21
119.49
31
0
0
LINE
8
0
10
911.35
20
120.92
30
0
11
912.77
21
119.49
31
0
0
LINE
8
0
10
912.77
20
119.49
30
0
11
917.06
21
119.49
31
0
0
LINE
8
0
10
917.06
20
119.49
30
0
11
918.49
21
120.92
31
0
0
LINE
8
0
10
918.49
20
120.92
30
0
11
918.49
21
122.35
31
0
0
LINE
8
0
10
918.49
20
122.35
30
0
11
917.06
21
123.78
31
0
0
LINE
8
0
10
917.06
20
123.78
30
0
11
912.77
21
123.78
31
0
0
LINE
8
0
10
912.77
20
123.78
30
0
11
911.35
21
125.21
31
0
0
LINE
8
0
10
911.35
20
125.21
30
0
11
911.35
21
128.07
31
0
0
LINE
8
0
10
911.35
20
128.07
30
0
11
912.77
21
129.49
31
0
0
LINE
8
0
10
912.77
20
129.49
30
0
11
917.06
21
129.49
31
0
0
LINE
8
0
10
917.06
20
129.49
30
0
11
918.49
21
128.07
31
0
0
LINE
8
0
10
927.42
20
129.49
30
0
11
933.13
21
129.49
31
0
0
LINE
8
0
10
933.13
20
129.49
30
0
11
934.56
21
128.07
31
0
0
LINE
8
0
10
934.56
20
128.07
30
0
11
934.56
21
120.92
31
0
0
LINE
8
0
10
934.56
20
120.92
30
0
11
933.13
21
119.49
31
0
0
LINE
8
0
10
933.13
20
119.49
30
0
11
927.42
21
119.49
31
0
0
LINE
8
0
10
927.42
20
119.49
30
0
11
927.42
21
129.49
31
0
0
ARC
8
0
10
888.5
20
78.2
30
0
40
5.45
50
90
51
180
0
LINE
8
0
10
883.05
20
78.2
30
0
11
883.05
21
69.2
31
0
0
ARC
8
0
10
888.5
20
69.2
30
0
40
5.45
50
180
51
0
0
LINE
8
0
10
893.95
20
69.2
30
0
11
893.95
21
78.2
31
0
0
ARC
8
0
10
888.5
20
78.2
30
0
40
5.45
50
0
51
90
0
ARC
8
0
10
853.5
20
78.2
30
0
40
5.45
50
90
51
180
0
LINE
8
0
10
848.05
20
78.2
30
0
11
848.05
21
69.2
31
0
0
ARC
8
0
10
853.5
20
69.2
30
0
40
5.45
50
180
51
0
0
LINE
8
0
10
858.95
20
69.2
30
0
11
858.95
21
78.2
31
0
0
ARC
8
0
10
853.5
20
78.2
30
0
40
5.45
50
0
51
90
0
LINE
8
0
10
818.5
20
141.77
30
0
11
823.45
21
141.77
31
0
0
LINE
8
0
10
823.45
20
141.77
30
0
11
823.45
21
146.7
31
0
0
ARC
8
0
10
825.5
20
146.7
30
0
40
2.05
50
90
51
180
0
LINE
8
0
10
825.5
20
148.75
30
0
11
827.45
21
148.75
31
0
0
LINE
8
0
10
827.45
20
148.75
30
0
11
827.45
21
158.72
31
0
0
LINE
8
0
10
827.45
20
158.72
30
0
11
837.48
21
168.75
31
0
0
LINE
8
0
10
837.48
20
168.75
30
0
11
1081.52
21
168.75
31
0
0
LINE
8
0
10
1081.52
20
168.75
30
0
11
1091.55
21
158.72
31
0
0
LINE
8
0
10
1091.55
20
158.72
30
0
11
1091.55
21
121.67
31
0
0
LINE
8
0
10
1091.55
20
121.67
30
0
11
911.51
21
48.65
31
0
0
LINE
8
0
10
911.51
20
48.65
30
0
11
837.48
21
48.65
31
0
0
LINE
8
0
10
837.48
20
48.65
30
0
11
827.45
21
58.68
31
0
0
LINE
8
0
10
827.45
20
58.68
30
0
11
827.45
21
133.65
31
0
0
LINE
8
0
10
827.45
20
133.65
30
0
11
825.5
21
133.65
31
0
0
ARC
8
0
10
825.5
20
135.7
30
0
40
2.05
50
180
51
270
0
LINE
8
0
10
823.45
20
135.7
30
0
11
823.45
21
141.07
31
0
0
ENDSEC
0
EOF
