0
SECTION
2
HEADER
9
$ACADVER
1
AC1009
0
ENDSEC
0
SECTION
2
ENTITIES
0
LINE
8
0
10
127.04
20
1868.5
30
0
11
135.04
21
1863.93
31
0
0
LINE
8
0
10
135.04
20
1863.93
30
0
11
135.04
21
1869.64
31
0
0
LINE
8
0
10
130.47
20
1868.5
30
0
11
130.47
21
1865.07
31
0
0
LINE
8
0
10
130.47
20
1863.21
30
0
11
130.47
21
1858.64
31
0
0
LINE
8
0
10
130.47
20
1858.64
30
0
11
129.32
21
1857.5
31
0
0
LINE
8
0
10
129.32
20
1857.5
30
0
11
128.18
21
1857.5
31
0
0
LINE
8
0
10
128.18
20
1857.5
30
0
11
127.04
21
1858.64
31
0
0
LINE
8
0
10
127.04
20
1858.64
30
0
11
127.04
21
1862.07
31
0
0
LINE
8
0
10
127.04
20
1862.07
30
0
11
128.18
21
1863.21
31
0
0
LINE
8
0
10
128.18
20
1863.21
30
0
11
133.89
21
1863.21
31
0
0
LINE
8
0
10
133.89
20
1863.21
30
0
11
135.04
21
1862.07
31
0
0
LINE
8
0
10
135.04
20
1862.07
30
0
11
135.04
21
1858.64
31
0
0
LINE
8
0
10
128.18
20
1870.36
30
0
11
127.04
21
1871.5
31
0
0
LINE
8
0
10
127.04
20
1871.5
30
0
11
127.04
21
1876.07
31
0
0
LINE
8
0
10
127.04
20
1876.07
30
0
11
129.32
21
1876.07
31
0
0
LINE
8
0
10
129.32
20
1876.07
30
0
11
130.47
21
1874.93
31
0
0
LINE
8
0
10
130.47
20
1874.93
30
0
11
130.47
21
1871.5
31
0
0
LINE
8
0
10
130.47
20
1871.5
30
0
11
131.61
21
1870.36
31
0
0
LINE
8
0
10
131.61
20
1870.36
30
0
11
133.89
21
1870.36
31
0
0
LINE
8
0
10
133.89
20
1870.36
30
0
11
135.04
21
1871.5
31
0
0
LINE
8
0
10
135.04
20
1871.5
30
0
11
135.04
21
1874.93
31
0
0
LINE
8
0
10
135.04
20
1874.93
30
0
11
133.89
21
1876.07
31
0
0
LINE
8
0
10
126.3
20
1755
30
0
11
100.3
21
1755
31
0
0
LINE
8
0
10
100.3
20
1755
30
0
11
100.3
21
1676
31
0
0
LINE
8
0
10
100.3
20
1676
30
0
11
126.3
21
1676
31
0
0
LINE
8
0
10
126.3
20
1396
30
0
11
100.3
21
1396
31
0
0
LINE
8
0
10
100.3
20
1396
30
0
11
100.3
21
1317
31
0
0
LINE
8
0
10
100.3
20
1317
30
0
11
126.3
21
1317
31
0
0
LINE
8
0
10
126.3
20
1037
30
0
11
100.3
21
1037
31
0
0
LINE
8
0
10
100.3
20
1037
30
0
11
100.3
21
958
31
0
0
LINE
8
0
10
100.3
20
958
30
0
11
126.3
21
958
31
0
0
LINE
8
0
10
126.3
20
678
30
0
11
100.3
21
678
31
0
0
LINE
8
0
10
100.3
20
678
30
0
11
100.3
21
599
31
0
0
LINE
8
0
10
100.3
20
599
30
0
11
126.3
21
599
31
0
0
LINE
8
0
10
126.3
20
319
30
0
11
100.3
21
319
31
0
0
LINE
8
0
10
100.3
20
319
30
0
11
100.3
21
240
31
0
0
LINE
8
0
10
100.3
20
240
30
0
11
126.3
21
240
31
0
0
ARC
8
0
10
48
20
249
30
0
40
6.95
50
270
51
0
0
LINE
8
0
10
54.95
20
249
30
0
11
54.95
21
259
31
0
0
ARC
8
0
10
48
20
259
30
0
40
6.95
50
0
51
180
0
LINE
8
0
10
41.05
20
259
30
0
11
41.05
21
249
31
0
0
ARC
8
0
10
48
20
249
30
0
40
6.95
50
180
51
270
0
LINE
8
0
10
28.54
20
164.04
30
0
11
30.37
21
162.2
31
0
0
ARC
8
0
10
28.5
20
164
30
0
40
2.595554
50
316.092703
51
315
0
LINE
8
0
10
35.04
20
120.04
30
0
11
36.94
21
118.13
31
0
0
ARC
8
0
10
35
20
120
30
0
40
2.694531
50
316.05256
51
315
0
LINE
8
0
10
35.04
20
100.04
30
0
11
36.94
21
98.13
31
0
0
ARC
8
0
10
35
20
100
30
0
40
2.694531
50
316.05256
51
315
0
LINE
8
0
10
60.04
20
120.04
30
0
11
61.94
21
118.13
31
0
0
ARC
8
0
10
60
20
120
30
0
40
2.694531
50
316.05256
51
315
0
ARC
8
0
10
48
20
739
30
0
40
6.95
50
180
51
270
0
LINE
8
0
10
41.05
20
739
30
0
11
41.05
21
749
31
0
0
ARC
8
0
10
48
20
749
30
0
40
6.95
50
0
51
180
0
LINE
8
0
10
54.95
20
749
30
0
11
54.95
21
739
31
0
0
ARC
8
0
10
48
20
739
30
0
40
6.95
50
270
51
0
0
LINE
8
0
10
28.54
20
987.04
30
0
11
30.37
21
985.2
31
0
0
ARC
8
0
10
28.5
20
987
30
0
40
2.595554
50
316.092703
51
315
0
ARC
8
0
10
48
20
1229
30
0
40
6.95
50
270
51
0
0
LINE
8
0
10
54.95
20
1229
30
0
11
54.95
21
1239
31
0
0
ARC
8
0
10
48
20
1239
30
0
40
6.95
50
0
51
180
0
LINE
8
0
10
41.05
20
1239
30
0
11
41.05
21
1229
31
0
0
ARC
8
0
10
48
20
1229
30
0
40
6.95
50
180
51
270
0
ARC
8
0
10
48
20
1289
30
0
40
6.95
50
270
51
0
0
LINE
8
0
10
54.95
20
1289
30
0
11
54.95
21
1299
31
0
0
ARC
8
0
10
48
20
1299
30
0
40
6.95
50
0
51
180
0
LINE
8
0
10
41.05
20
1299
30
0
11
41.05
21
1289
31
0
0
ARC
8
0
10
48
20
1289
30
0
40
6.95
50
180
51
270
0
LINE
8
0
10
54.04
20
1364.54
30
0
11
55.94
21
1362.63
31
0
0
ARC
8
0
10
54
20
1364.5
30
0
40
2.694531
50
316.05256
51
315
0
LINE
8
0
10
29.04
20
1364.54
30
0
11
30.94
21
1362.63
31
0
0
ARC
8
0
10
29
20
1364.5
30
0
40
2.694531
50
316.05256
51
315
0
LINE
8
0
10
29.04
20
1384.54
30
0
11
30.94
21
1382.63
31
0
0
ARC
8
0
10
29
20
1384.5
30
0
40
2.694531
50
316.05256
51
315
0
LINE
8
0
10
25.54
20
1576.63
30
0
11
27.44
21
1574.72
31
0
0
ARC
8
0
10
25.5
20
1576.59
30
0
40
2.694531
50
316.05256
51
315
0
LINE
8
0
10
36.04
20
1587.13
30
0
11
37.94
21
1585.22
31
0
0
ARC
8
0
10
36
20
1587.09
30
0
40
2.694531
50
316.05256
51
315
0
LINE
8
0
10
28.93
20
1648.09
30
0
11
30.83
21
1646.18
31
0
0
ARC
8
0
10
28.89
20
1648.06
30
0
40
2.701481
50
315.89986
51
315
0
LINE
8
0
10
36.93
20
1658.59
30
0
11
38.83
21
1656.68
31
0
0
ARC
8
0
10
36.89
20
1658.56
30
0
40
2.701481
50
315.89986
51
315
0
ARC
8
0
10
48
20
1719
30
0
40
6.95
50
180
51
270
0
LINE
8
0
10
41.05
20
1719
30
0
11
41.05
21
1729
31
0
0
ARC
8
0
10
48
20
1729
30
0
40
6.95
50
0
51
180
0
LINE
8
0
10
54.95
20
1729
30
0
11
54.95
21
1719
31
0
0
ARC
8
0
10
48
20
1719
30
0
40
6.95
50
270
51
0
0
LINE
8
0
10
28.54
20
1810.04
30
0
11
30.37
21
1808.2
31
0
0
ARC
8
0
10
28.5
20
1810
30
0
40
2.595554
50
316.092703
51
315
0
LINE
8
0
10
35.04
20
1854.04
30
0
11
36.94
21
1852.13
31
0
0
ARC
8
0
10
35
20
1854
30
0
40
2.694531
50
316.05256
51
315
0
LINE
8
0
10
35.04
20
1874.04
30
0
11
36.94
21
1872.13
31
0
0
ARC
8
0
10
35
20
1874
30
0
40
2.694531
50
316.05256
51
315
0
LINE
8
0
10
60.04
20
1874.04
30
0
11
61.94
21
1872.13
31
0
0
ARC
8
0
10
60
20
1874
30
0
40
2.694531
50
316.05256
51
315
0
LINE
8
0
10
146.3
20
1890.05
30
0
11
143.3
21
1890.05
31
0
0
LINE
8
0
10
143.3
20
1890.05
30
0
11
20
21
1890.05
31
0
0
ARC
8
0
10
20
20
1885
30
0
40
5.05
50
90
51
180
0
LINE
8
0
10
14.95
20
1885
30
0
11
14.95
21
89
31
0
0
ARC
8
0
10
20
20
89
30
0
40
5.05
50
180
51
270
0
LINE
8
0
10
20
20
83.95
30
0
11
143.35
21
83.95
31
0
0
LINE
8
0
10
143.35
20
83.95
30
0
11
143.35
21
176.98
31
0
0
LINE
8
0
10
143.35
20
176.98
30
0
11
148.3
21
181.92
31
0
0
LINE
8
0
10
148.3
20
181.92
30
0
11
148.6
21
181.95
31
0
0
LINE
8
0
10
148.6
20
181.95
30
0
11
178.58
21
181.95
31
0
0
LINE
8
0
10
178.58
20
181.95
30
0
11
182.66
21
178.27
31
0
0
LINE
8
0
10
182.66
20
178.27
30
0
11
182.86
21
177.96
31
0
0
LINE
8
0
10
182.86
20
177.96
30
0
11
184.3
21
176.52
31
0
0
LINE
8
0
10
184.3
20
176.52
30
0
11
184.66
21
176.88
31
0
0
LINE
8
0
10
184.66
20
176.88
30
0
11
188.12
21
173.41
31
0
0
LINE
8
0
10
188.12
20
173.41
30
0
11
187.77
21
173.06
31
0
0
LINE
8
0
10
187.77
20
173.06
30
0
11
189.25
21
171.57
31
0
0
ARC
8
0
10
153.9
20
207
30
0
40
50.04905
50
314.935241
51
0
0
LINE
8
0
10
203.95
20
207
30
0
11
203.95
21
1816
31
0
0
ARC
8
0
10
153.9
20
1816
30
0
40
50.05
50
0
51
45.064759
0
LINE
8
0
10
189.25
20
1851.43
30
0
11
187.77
21
1849.94
31
0
0
LINE
8
0
10
187.77
20
1849.94
30
0
11
188.12
21
1849.59
31
0
0
LINE
8
0
10
188.12
20
1849.59
30
0
11
184.66
21
1846.12
31
0
0
LINE
8
0
10
184.66
20
1846.12
30
0
11
184.3
21
1846.48
31
0
0
LINE
8
0
10
184.3
20
1846.48
30
0
11
178.89
21
1841.08
31
0
0
LINE
8
0
10
178.89
20
1841.08
30
0
11
178.6
21
1841.05
31
0
0
LINE
8
0
10
178.6
20
1841.05
30
0
11
148.62
21
1841.05
31
0
0
LINE
8
0
10
148.62
20
1841.05
30
0
11
144.54
21
1844.73
31
0
0
LINE
8
0
10
144.54
20
1844.73
30
0
11
144.33
21
1845.04
31
0
0
LINE
8
0
10
144.33
20
1845.04
30
0
11
143.35
21
1846.02
31
0
0
LINE
8
0
10
143.35
20
1846.02
30
0
11
143.35
21
1890
31
0
0
ENDSEC
0
EOF
