0
SECTION
2
HEADER
9
$ACADVER
1
AC1009
0
ENDSEC
0
SECTION
2
ENTITIES
0
ARC
8
0
10
865.75
20
1271.29
30
0
40
5.09
50
270
51
0
0
LINE
8
0
10
865.75
20
1266.2
30
0
11
861.05
21
1266.2
31
0
0
ARC
8
0
10
861.05
20
1271.29
30
0
40
5.09
50
90
51
270
0
LINE
8
0
10
861.05
20
1276.38
30
0
11
865.75
21
1276.38
31
0
0
ARC
8
0
10
865.75
20
1271.29
30
0
40
5.09
50
360
51
90
0
LINE
8
0
10
881.56
20
1230.15
30
0
11
881.56
21
1227.21
31
0
0
LINE
8
0
10
881.56
20
1227.21
30
0
11
883.29
21
1227.21
31
0
0
LINE
8
0
10
883.29
20
1227.21
30
0
11
883.29
21
1239.09
31
0
0
LINE
8
0
10
883.29
20
1239.09
30
0
11
879.71
21
1239.09
31
0
0
LINE
8
0
10
879.71
20
1239.09
30
0
11
879.71
21
1227.21
31
0
0
LINE
8
0
10
879.71
20
1227.21
30
0
11
881.5
21
1227.21
31
0
0
LINE
8
0
10
919.94
20
1247.48
30
0
11
921.31
21
1246.11
31
0
0
ARC
8
0
10
919.9
20
1247.44
30
0
40
1.938298
50
316.672394
51
315
0
LINE
8
0
10
927.26
20
1201.17
30
0
11
929.33
21
1199.1
31
0
0
ARC
8
0
10
926.1
20
1202.25
30
0
40
4.511696
50
315.718405
51
314.910335
0
LINE
8
0
10
965.43
20
1230.15
30
0
11
965.43
21
1227.21
31
0
0
LINE
8
0
10
965.43
20
1227.21
30
0
11
967.19
21
1227.21
31
0
0
LINE
8
0
10
967.19
20
1227.21
30
0
11
967.19
21
1239.09
31
0
0
LINE
8
0
10
967.19
20
1239.09
30
0
11
963.56
21
1239.09
31
0
0
LINE
8
0
10
963.56
20
1239.09
30
0
11
963.56
21
1227.21
31
0
0
LINE
8
0
10
963.56
20
1227.21
30
0
11
965.37
21
1227.21
31
0
0
LINE
8
0
10
984.96
20
1269.81
30
0
11
987.04
21
1267.73
31
0
0
ARC
8
0
10
983.4
20
1271.29
30
0
40
5.091483
50
315.636594
51
315
0
LINE
8
0
10
918.83
20
1066.1
30
0
11
920.91
21
1064.02
31
0
0
ARC
8
0
10
917.2
20
1067.65
30
0
40
5.190472
50
315.624452
51
315
0
LINE
8
0
10
908.7
20
1027.71
30
0
11
911.64
21
1027.71
31
0
0
LINE
8
0
10
911.64
20
1027.71
30
0
11
911.64
21
1029.29
31
0
0
LINE
8
0
10
911.64
20
1029.29
30
0
11
900.76
21
1029.29
31
0
0
LINE
8
0
10
900.76
20
1029.29
30
0
11
900.76
21
1026.01
31
0
0
LINE
8
0
10
900.76
20
1026.01
30
0
11
911.64
21
1026.01
31
0
0
LINE
8
0
10
911.64
20
1026.01
30
0
11
911.64
21
1027.65
31
0
0
LINE
8
0
10
967.8
20
1027.59
30
0
11
970.74
21
1027.59
31
0
0
LINE
8
0
10
970.74
20
1027.59
30
0
11
970.74
21
1026.01
31
0
0
LINE
8
0
10
970.74
20
1026.01
30
0
11
959.86
21
1026.01
31
0
0
LINE
8
0
10
959.86
20
1026.01
30
0
11
959.86
21
1029.29
31
0
0
LINE
8
0
10
959.86
20
1029.29
30
0
11
970.74
21
1029.29
31
0
0
LINE
8
0
10
970.74
20
1029.29
30
0
11
970.74
21
1027.65
31
0
0
LINE
8
0
10
869.28
20
1066.1
30
0
11
871.36
21
1064.02
31
0
0
ARC
8
0
10
867.65
20
1067.65
30
0
40
5.190472
50
315.624452
51
315
0
LINE
8
0
10
908.7
20
916.11
30
0
11
911.64
21
916.11
31
0
0
LINE
8
0
10
911.64
20
916.11
30
0
11
911.64
21
917.69
31
0
0
LINE
8
0
10
911.64
20
917.69
30
0
11
900.76
21
917.69
31
0
0
LINE
8
0
10
900.76
20
917.69
30
0
11
900.76
21
914.41
31
0
0
LINE
8
0
10
900.76
20
914.41
30
0
11
911.64
21
914.41
31
0
0
LINE
8
0
10
911.64
20
914.41
30
0
11
911.64
21
916.05
31
0
0
LINE
8
0
10
918.83
20
874.5
30
0
11
920.91
21
872.42
31
0
0
ARC
8
0
10
917.2
20
876.05
30
0
40
5.190472
50
315.624452
51
315
0
LINE
8
0
10
908.7
20
835.99
30
0
11
911.64
21
835.99
31
0
0
LINE
8
0
10
911.64
20
835.99
30
0
11
911.64
21
834.41
31
0
0
LINE
8
0
10
911.64
20
834.41
30
0
11
900.76
21
834.41
31
0
0
LINE
8
0
10
900.76
20
834.41
30
0
11
900.76
21
837.69
31
0
0
LINE
8
0
10
900.76
20
837.69
30
0
11
911.64
21
837.69
31
0
0
LINE
8
0
10
911.64
20
837.69
30
0
11
911.64
21
836.05
31
0
0
LINE
8
0
10
967.8
20
836.11
30
0
11
970.74
21
836.11
31
0
0
LINE
8
0
10
970.74
20
836.11
30
0
11
970.74
21
837.69
31
0
0
LINE
8
0
10
970.74
20
837.69
30
0
11
959.86
21
837.69
31
0
0
LINE
8
0
10
959.86
20
837.69
30
0
11
959.86
21
834.41
31
0
0
LINE
8
0
10
959.86
20
834.41
30
0
11
970.74
21
834.41
31
0
0
LINE
8
0
10
970.74
20
834.41
30
0
11
970.74
21
836.05
31
0
0
LINE
8
0
10
967.8
20
915.99
30
0
11
970.74
21
915.99
31
0
0
LINE
8
0
10
970.74
20
915.99
30
0
11
970.74
21
914.41
31
0
0
LINE
8
0
10
970.74
20
914.41
30
0
11
959.86
21
914.41
31
0
0
LINE
8
0
10
959.86
20
914.41
30
0
11
959.86
21
917.69
31
0
0
LINE
8
0
10
959.86
20
917.69
30
0
11
970.74
21
917.69
31
0
0
LINE
8
0
10
970.74
20
917.69
30
0
11
970.74
21
916.05
31
0
0
LINE
8
0
10
869.28
20
874.5
30
0
11
871.36
21
872.42
31
0
0
ARC
8
0
10
867.65
20
876.05
30
0
40
5.190472
50
315.624452
51
315
0
LINE
8
0
10
908.7
20
724.39
30
0
11
911.64
21
724.39
31
0
0
LINE
8
0
10
911.64
20
724.39
30
0
11
911.64
21
722.81
31
0
0
LINE
8
0
10
911.64
20
722.81
30
0
11
900.76
21
722.81
31
0
0
LINE
8
0
10
900.76
20
722.81
30
0
11
900.76
21
726.09
31
0
0
LINE
8
0
10
900.76
20
726.09
30
0
11
911.64
21
726.09
31
0
0
LINE
8
0
10
911.64
20
726.09
30
0
11
911.64
21
724.45
31
0
0
LINE
8
0
10
918.83
20
682.9
30
0
11
920.91
21
680.82
31
0
0
ARC
8
0
10
917.2
20
684.45
30
0
40
5.190472
50
315.624452
51
315
0
LINE
8
0
10
908.7
20
644.39
30
0
11
911.64
21
644.39
31
0
0
LINE
8
0
10
911.64
20
644.39
30
0
11
911.64
21
642.81
31
0
0
LINE
8
0
10
911.64
20
642.81
30
0
11
900.76
21
642.81
31
0
0
LINE
8
0
10
900.76
20
642.81
30
0
11
900.76
21
646.09
31
0
0
LINE
8
0
10
900.76
20
646.09
30
0
11
911.64
21
646.09
31
0
0
LINE
8
0
10
911.64
20
646.09
30
0
11
911.64
21
644.45
31
0
0
LINE
8
0
10
967.8
20
644.51
30
0
11
970.74
21
644.51
31
0
0
LINE
8
0
10
970.74
20
644.51
30
0
11
970.74
21
646.09
31
0
0
LINE
8
0
10
970.74
20
646.09
30
0
11
959.86
21
646.09
31
0
0
LINE
8
0
10
959.86
20
646.09
30
0
11
959.86
21
642.81
31
0
0
LINE
8
0
10
959.86
20
642.81
30
0
11
970.74
21
642.81
31
0
0
LINE
8
0
10
970.74
20
642.81
30
0
11
970.74
21
644.45
31
0
0
LINE
8
0
10
967.8
20
724.51
30
0
11
970.74
21
724.51
31
0
0
LINE
8
0
10
970.74
20
724.51
30
0
11
970.74
21
726.09
31
0
0
LINE
8
0
10
970.74
20
726.09
30
0
11
959.86
21
726.09
31
0
0
LINE
8
0
10
959.86
20
726.09
30
0
11
959.86
21
722.81
31
0
0
LINE
8
0
10
959.86
20
722.81
30
0
11
970.74
21
722.81
31
0
0
LINE
8
0
10
970.74
20
722.81
30
0
11
970.74
21
724.45
31
0
0
LINE
8
0
10
869.28
20
682.9
30
0
11
871.36
21
680.82
31
0
0
ARC
8
0
10
867.65
20
684.45
30
0
40
5.190472
50
315.624452
51
315
0
LINE
8
0
10
908.7
20
532.79
30
0
11
911.64
21
532.79
31
0
0
LINE
8
0
10
911.64
20
532.79
30
0
11
911.64
21
531.21
31
0
0
LINE
8
0
10
911.64
20
531.21
30
0
11
900.76
21
531.21
31
0
0
LINE
8
0
10
900.76
20
531.21
30
0
11
900.76
21
534.49
31
0
0
LINE
8
0
10
900.76
20
534.49
30
0
11
911.64
21
534.49
31
0
0
LINE
8
0
10
911.64
20
534.49
30
0
11
911.64
21
532.85
31
0
0
LINE
8
0
10
918.83
20
491.3
30
0
11
920.91
21
489.22
31
0
0
ARC
8
0
10
917.2
20
492.85
30
0
40
5.190472
50
315.624452
51
315
0
LINE
8
0
10
908.7
20
452.79
30
0
11
911.64
21
452.79
31
0
0
LINE
8
0
10
911.64
20
452.79
30
0
11
911.64
21
451.21
31
0
0
LINE
8
0
10
911.64
20
451.21
30
0
11
900.76
21
451.21
31
0
0
LINE
8
0
10
900.76
20
451.21
30
0
11
900.76
21
454.49
31
0
0
LINE
8
0
10
900.76
20
454.49
30
0
11
911.64
21
454.49
31
0
0
LINE
8
0
10
911.64
20
454.49
30
0
11
911.64
21
452.85
31
0
0
LINE
8
0
10
967.8
20
452.91
30
0
11
970.74
21
452.91
31
0
0
LINE
8
0
10
970.74
20
452.91
30
0
11
970.74
21
454.49
31
0
0
LINE
8
0
10
970.74
20
454.49
30
0
11
959.86
21
454.49
31
0
0
LINE
8
0
10
959.86
20
454.49
30
0
11
959.86
21
451.21
31
0
0
LINE
8
0
10
959.86
20
451.21
30
0
11
970.74
21
451.21
31
0
0
LINE
8
0
10
970.74
20
451.21
30
0
11
970.74
21
452.85
31
0
0
LINE
8
0
10
967.8
20
532.91
30
0
11
970.74
21
532.91
31
0
0
LINE
8
0
10
970.74
20
532.91
30
0
11
970.74
21
534.49
31
0
0
LINE
8
0
10
970.74
20
534.49
30
0
11
959.86
21
534.49
31
0
0
LINE
8
0
10
959.86
20
534.49
30
0
11
959.86
21
531.21
31
0
0
LINE
8
0
10
959.86
20
531.21
30
0
11
970.74
21
531.21
31
0
0
LINE
8
0
10
970.74
20
531.21
30
0
11
970.74
21
532.85
31
0
0
LINE
8
0
10
869.28
20
491.3
30
0
11
871.36
21
489.22
31
0
0
ARC
8
0
10
867.65
20
492.85
30
0
40
5.190472
50
315.624452
51
315
0
LINE
8
0
10
908.7
20
341.19
30
0
11
911.64
21
341.19
31
0
0
LINE
8
0
10
911.64
20
341.19
30
0
11
911.64
21
339.61
31
0
0
LINE
8
0
10
911.64
20
339.61
30
0
11
900.76
21
339.61
31
0
0
LINE
8
0
10
900.76
20
339.61
30
0
11
900.76
21
342.89
31
0
0
LINE
8
0
10
900.76
20
342.89
30
0
11
911.64
21
342.89
31
0
0
LINE
8
0
10
911.64
20
342.89
30
0
11
911.64
21
341.25
31
0
0
LINE
8
0
10
918.83
20
299.7
30
0
11
920.91
21
297.62
31
0
0
ARC
8
0
10
917.2
20
301.25
30
0
40
5.190472
50
315.624452
51
315
0
LINE
8
0
10
869.28
20
299.7
30
0
11
871.36
21
297.62
31
0
0
ARC
8
0
10
867.65
20
301.25
30
0
40
5.190472
50
315.624452
51
315
0
LINE
8
0
10
967.8
20
341.31
30
0
11
970.74
21
341.31
31
0
0
LINE
8
0
10
970.74
20
341.31
30
0
11
970.74
21
342.89
31
0
0
LINE
8
0
10
970.74
20
342.89
30
0
11
959.86
21
342.89
31
0
0
LINE
8
0
10
959.86
20
342.89
30
0
11
959.86
21
339.61
31
0
0
LINE
8
0
10
959.86
20
339.61
30
0
11
970.74
21
339.61
31
0
0
LINE
8
0
10
970.74
20
339.61
30
0
11
970.74
21
341.25
31
0
0
LINE
8
0
10
927.26
20
165.57
30
0
11
929.33
21
163.5
31
0
0
ARC
8
0
10
926.1
20
166.65
30
0
40
4.511696
50
315.718405
51
314.910335
0
LINE
8
0
10
919.94
20
121.49
30
0
11
921.31
21
120.12
31
0
0
ARC
8
0
10
919.9
20
121.45
30
0
40
1.938298
50
316.672394
51
315
0
LINE
8
0
10
881.44
20
132.75
30
0
11
881.44
21
129.81
31
0
0
LINE
8
0
10
881.44
20
129.81
30
0
11
879.71
21
129.81
31
0
0
LINE
8
0
10
879.71
20
129.81
30
0
11
879.71
21
141.69
31
0
0
LINE
8
0
10
879.71
20
141.69
30
0
11
883.29
21
141.69
31
0
0
LINE
8
0
10
883.29
20
141.69
30
0
11
883.29
21
129.81
31
0
0
LINE
8
0
10
883.29
20
129.81
30
0
11
881.5
21
129.81
31
0
0
ARC
8
0
10
865.75
20
97.6
30
0
40
5.09
50
270
51
0
0
LINE
8
0
10
865.75
20
92.51
30
0
11
861.05
21
92.51
31
0
0
ARC
8
0
10
861.05
20
97.6
30
0
40
5.09
50
90
51
270
0
LINE
8
0
10
861.05
20
102.69
30
0
11
865.75
21
102.69
31
0
0
ARC
8
0
10
865.75
20
97.6
30
0
40
5.09
50
0
51
90
0
LINE
8
0
10
965.31
20
132.75
30
0
11
965.31
21
129.81
31
0
0
LINE
8
0
10
965.31
20
129.81
30
0
11
963.56
21
129.81
31
0
0
LINE
8
0
10
963.56
20
129.81
30
0
11
963.56
21
141.69
31
0
0
LINE
8
0
10
963.56
20
141.69
30
0
11
967.19
21
141.69
31
0
0
LINE
8
0
10
967.19
20
141.69
30
0
11
967.19
21
129.81
31
0
0
LINE
8
0
10
967.19
20
129.81
30
0
11
965.37
21
129.81
31
0
0
LINE
8
0
10
984.96
20
96.12
30
0
11
987.04
21
94.04
31
0
0
ARC
8
0
10
983.4
20
97.6
30
0
40
5.091483
50
315.636594
51
315
0
LINE
8
0
10
879.84
20
1158.05
30
0
11
879.84
21
1161.05
31
0
0
LINE
8
0
10
879.84
20
1161.05
30
0
11
879.84
21
1197.07
31
0
0
ARC
8
0
10
874.9
20
1197.07
30
0
40
4.94
50
0
51
45.081968
0
LINE
8
0
10
878.39
20
1200.57
30
0
11
851.32
21
1227.64
31
0
0
ARC
8
0
10
854.9
20
1231.22
30
0
40
5.062885
50
180
51
225
0
LINE
8
0
10
849.84
20
1231.22
30
0
11
849.84
21
1276.69
31
0
0
ARC
8
0
10
854.9
20
1276.69
30
0
40
5.06
50
90
51
180
0
LINE
8
0
10
854.9
20
1281.75
30
0
11
991.9
21
1281.75
31
0
0
ARC
8
0
10
991.9
20
1276.69
30
0
40
5.06
50
0
51
90
0
LINE
8
0
10
996.96
20
1276.69
30
0
11
996.96
21
1231.22
31
0
0
ARC
8
0
10
991.9
20
1231.22
30
0
40
5.06
50
315
51
0
0
LINE
8
0
10
995.48
20
1227.64
30
0
11
968.41
21
1200.57
31
0
0
ARC
8
0
10
971.9
20
1197.07
30
0
40
4.942681
50
134.918032
51
180
0
LINE
8
0
10
966.96
20
1197.07
30
0
11
966.96
21
1166.49
31
0
0
LINE
8
0
10
966.96
20
1166.49
30
0
11
963.56
21
1166.49
31
0
0
LINE
8
0
10
963.56
20
1166.49
30
0
11
963.56
21
1154.61
31
0
0
LINE
8
0
10
963.56
20
1154.61
30
0
11
966.96
21
1154.61
31
0
0
LINE
8
0
10
966.96
20
1154.61
30
0
11
966.96
21
1137.49
31
0
0
LINE
8
0
10
966.96
20
1137.49
30
0
11
951.07
21
1137.49
31
0
0
ARC
8
0
10
951.07
20
1135.55
30
0
40
1.94
50
90
51
163.244251
0
LINE
8
0
10
949.21
20
1136.11
30
0
11
934.61
21
1088.34
31
0
0
ARC
8
0
10
933.59
20
1088.65
30
0
40
1.066068
50
270
51
343.094842
0
LINE
8
0
10
933.59
20
1087.59
30
0
11
930.06
21
1087.59
31
0
0
ARC
8
0
10
930.06
20
1084.65
30
0
40
2.94
50
90
51
333.958183
0
ARC
8
0
10
934.55
20
1082.45
30
0
40
2.061698
50
90.834346
51
153.807801
0
LINE
8
0
10
934.52
20
1084.51
30
0
11
945.75
21
1084.71
31
0
0
LINE
8
0
10
945.75
20
1084.71
30
0
11
1004.29
21
1084.71
31
0
0
LINE
8
0
10
1004.29
20
1084.71
30
0
11
1004.29
21
1072.64
31
0
0
LINE
8
0
10
1004.29
20
1072.64
30
0
11
1001.14
21
1072.64
31
0
0
LINE
8
0
10
1001.14
20
1072.64
30
0
11
1001.14
21
1069.66
31
0
0
LINE
8
0
10
1001.14
20
1069.66
30
0
11
1004.29
21
1069.66
31
0
0
LINE
8
0
10
1004.29
20
1069.66
30
0
11
1004.29
21
299.24
31
0
0
LINE
8
0
10
1004.29
20
299.24
30
0
11
1001.14
21
299.24
31
0
0
LINE
8
0
10
1001.14
20
299.24
30
0
11
1001.14
21
296.26
31
0
0
LINE
8
0
10
1001.14
20
296.26
30
0
11
1004.29
21
296.26
31
0
0
LINE
8
0
10
1004.29
20
296.26
30
0
11
1004.29
21
284.69
31
0
0
LINE
8
0
10
1004.29
20
284.69
30
0
11
945.75
21
284.69
31
0
0
LINE
8
0
10
945.75
20
284.69
30
0
11
934.23
21
284.88
31
0
0
ARC
8
0
10
934.27
20
286.94
30
0
40
2.060388
50
212.535067
51
268.8876
0
ARC
8
0
10
930.06
20
284.25
30
0
40
2.932115
50
32.606076
51
270
0
LINE
8
0
10
930.06
20
281.31
30
0
11
933.59
21
281.31
31
0
0
ARC
8
0
10
933.59
20
280.25
30
0
40
1.06
50
16.905158
51
90
0
LINE
8
0
10
934.61
20
280.56
30
0
11
949.21
21
232.78
31
0
0
ARC
8
0
10
951.07
20
233.35
30
0
40
1.945379
50
197.037768
51
270
0
LINE
8
0
10
951.07
20
231.41
30
0
11
966.96
21
231.41
31
0
0
LINE
8
0
10
966.96
20
231.41
30
0
11
966.96
21
214.29
31
0
0
LINE
8
0
10
966.96
20
214.29
30
0
11
963.56
21
214.29
31
0
0
LINE
8
0
10
963.56
20
214.29
30
0
11
963.56
21
202.41
31
0
0
LINE
8
0
10
963.56
20
202.41
30
0
11
966.96
21
202.41
31
0
0
LINE
8
0
10
966.96
20
202.41
30
0
11
966.96
21
171.82
31
0
0
ARC
8
0
10
971.9
20
171.82
30
0
40
4.94
50
180
51
225.081968
0
LINE
8
0
10
968.41
20
168.32
30
0
11
995.48
21
141.25
31
0
0
ARC
8
0
10
991.9
20
137.67
30
0
40
5.062885
50
0
51
45
0
LINE
8
0
10
996.96
20
137.67
30
0
11
996.96
21
92.2
31
0
0
ARC
8
0
10
991.9
20
92.2
30
0
40
5.06
50
270
51
0
0
LINE
8
0
10
991.9
20
87.14
30
0
11
854.9
21
87.14
31
0
0
ARC
8
0
10
854.9
20
92.2
30
0
40
5.06
50
180
51
270
0
LINE
8
0
10
849.84
20
92.2
30
0
11
849.84
21
137.67
31
0
0
ARC
8
0
10
854.9
20
137.67
30
0
40
5.06
50
135
51
180
0
LINE
8
0
10
851.32
20
141.25
30
0
11
878.39
21
168.32
31
0
0
ARC
8
0
10
874.9
20
171.82
30
0
40
4.942681
50
314.918032
51
0
0
LINE
8
0
10
879.84
20
171.82
30
0
11
879.84
21
207.91
31
0
0
LINE
8
0
10
879.84
20
207.91
30
0
11
883.29
21
207.91
31
0
0
LINE
8
0
10
883.29
20
207.91
30
0
11
883.29
21
219.79
31
0
0
LINE
8
0
10
883.29
20
219.79
30
0
11
879.84
21
219.79
31
0
0
LINE
8
0
10
879.84
20
219.79
30
0
11
879.84
21
280.25
31
0
0
ARC
8
0
10
880.9
20
280.25
30
0
40
1.06
50
90
51
180
0
LINE
8
0
10
880.9
20
281.31
30
0
11
883.15
21
281.31
31
0
0
ARC
8
0
10
883.15
20
284.25
30
0
40
2.94
50
270
51
147.498919
0
ARC
8
0
10
878.94
20
286.94
30
0
40
2.05548
50
270.834346
51
327.315018
0
LINE
8
0
10
878.97
20
284.88
30
0
11
867.9
21
284.69
31
0
0
LINE
8
0
10
867.9
20
284.69
30
0
11
847.44
21
284.69
31
0
0
LINE
8
0
10
847.44
20
284.69
30
0
11
847.44
21
1084.71
31
0
0
LINE
8
0
10
847.44
20
1084.71
30
0
11
867.9
21
1084.71
31
0
0
LINE
8
0
10
867.9
20
1084.71
30
0
11
878.69
21
1084.52
31
0
0
ARC
8
0
10
878.65
20
1082.46
30
0
40
2.060388
50
25.820992
51
88.8876
0
ARC
8
0
10
883.15
20
1084.65
30
0
40
2.938316
50
206.041817
51
90
0
LINE
8
0
10
883.15
20
1087.59
30
0
11
880.9
21
1087.59
31
0
0
ARC
8
0
10
880.9
20
1088.65
30
0
40
1.06
50
180
51
270
0
LINE
8
0
10
879.84
20
1088.65
30
0
11
879.84
21
1149.11
31
0
0
LINE
8
0
10
879.84
20
1149.11
30
0
11
883.29
21
1149.11
31
0
0
LINE
8
0
10
883.29
20
1149.11
30
0
11
883.29
21
1160.99
31
0
0
LINE
8
0
10
883.29
20
1160.99
30
0
11
879.9
21
1160.99
31
0
0
ENDSEC
0
EOF
