0
SECTION
2
HEADER
9
$ACADVER
1
AC1009
0
ENDSEC
0
SECTION
2
ENTITIES
0
LINE
8
0
10
109.95
20
1371
30
0
11
109.95
21
1373.95
31
0
0
ARC
8
0
10
110
20
1364
30
0
40
9.950126
50
90.287916
51
90
0
LINE
8
0
10
109.95
20
1448
30
0
11
109.95
21
1450.95
31
0
0
ARC
8
0
10
110
20
1441
30
0
40
9.950126
50
90.287916
51
90
0
LINE
8
0
10
132.03
20
1318
30
0
11
132.03
21
1322.95
31
0
0
LINE
8
0
10
132.03
20
1322.95
30
0
11
129.95
21
1322.95
31
0
0
LINE
8
0
10
129.95
20
1322.95
30
0
11
129.95
21
1327.95
31
0
0
LINE
8
0
10
129.95
20
1327.95
30
0
11
126.95
21
1327.95
31
0
0
LINE
8
0
10
126.95
20
1327.95
30
0
11
126.95
21
1328.45
31
0
0
LINE
8
0
10
126.95
20
1328.45
30
0
11
89.98
21
1328.45
31
0
0
LINE
8
0
10
89.98
20
1328.45
30
0
11
65.98
21
1352.95
31
0
0
LINE
8
0
10
65.98
20
1352.95
30
0
11
62.98
21
1352.95
31
0
0
LINE
8
0
10
62.98
20
1352.95
30
0
11
61.95
21
1353.98
31
0
0
LINE
8
0
10
61.95
20
1353.98
30
0
11
61.95
21
1357.02
31
0
0
LINE
8
0
10
61.95
20
1357.02
30
0
11
62.98
21
1358.05
31
0
0
LINE
8
0
10
62.98
20
1358.05
30
0
11
65.45
21
1358.05
31
0
0
LINE
8
0
10
65.45
20
1358.05
30
0
11
65.45
21
1361.05
31
0
0
LINE
8
0
10
65.45
20
1361.05
30
0
11
65.95
21
1361.05
31
0
0
LINE
8
0
10
65.95
20
1361.05
30
0
11
65.95
21
1387.55
31
0
0
ARC
8
0
10
66
20
1402.5
30
0
40
14.950084
50
269.808376
51
90.191624
0
LINE
8
0
10
65.95
20
1417.45
30
0
11
65.95
21
1448.95
31
0
0
LINE
8
0
10
65.95
20
1448.95
30
0
11
65.45
21
1448.95
31
0
0
LINE
8
0
10
65.45
20
1448.95
30
0
11
65.45
21
1452.05
31
0
0
LINE
8
0
10
65.45
20
1452.05
30
0
11
65.98
21
1452.05
31
0
0
LINE
8
0
10
65.98
20
1452.05
30
0
11
89.98
21
1476.55
31
0
0
LINE
8
0
10
89.98
20
1476.55
30
0
11
126.95
21
1476.55
31
0
0
LINE
8
0
10
126.95
20
1476.55
30
0
11
126.95
21
1477.05
31
0
0
LINE
8
0
10
126.95
20
1477.05
30
0
11
129.95
21
1477.05
31
0
0
LINE
8
0
10
129.95
20
1477.05
30
0
11
129.95
21
1482.05
31
0
0
LINE
8
0
10
129.95
20
1482.05
30
0
11
135.05
21
1482.05
31
0
0
LINE
8
0
10
135.05
20
1482.05
30
0
11
135.05
21
1322.95
31
0
0
LINE
8
0
10
135.05
20
1322.95
30
0
11
132.73
21
1322.95
31
0
0
ENDSEC
0
EOF
