0
SECTION
2
HEADER
9
$ACADVER
1
AC1009
0
ENDSEC
0
SECTION
2
ENTITIES
0
LINE
8
0
10
1319.24
20
1268.05
30
0
11
1317.65
21
1270.8
31
0
0
LINE
8
0
10
1317.65
20
1270.8
30
0
11
1320.82
21
1276.3
31
0
0
LINE
8
0
10
1320.82
20
1276.3
30
0
11
1327.18
21
1276.3
31
0
0
LINE
8
0
10
1327.18
20
1276.3
30
0
11
1330.35
21
1270.8
31
0
0
LINE
8
0
10
1330.35
20
1270.8
30
0
11
1327.18
21
1265.3
31
0
0
LINE
8
0
10
1327.18
20
1265.3
30
0
11
1320.82
21
1265.3
31
0
0
LINE
8
0
10
1320.82
20
1265.3
30
0
11
1319.24
21
1268.05
31
0
0
LINE
8
0
10
1304.75
20
1303.78
30
0
11
1300.9
21
1303.78
31
0
0
LINE
8
0
10
1300.9
20
1303.78
30
0
11
1300.9
21
1304.73
31
0
0
LINE
8
0
10
1300.9
20
1304.73
30
0
11
1311.1
21
1304.73
31
0
0
LINE
8
0
10
1311.1
20
1304.73
30
0
11
1311.1
21
1302.53
31
0
0
LINE
8
0
10
1311.1
20
1302.53
30
0
11
1300.9
21
1302.53
31
0
0
LINE
8
0
10
1300.9
20
1302.53
30
0
11
1300.9
21
1303.63
31
0
0
LINE
8
0
10
1214.75
20
1303.78
30
0
11
1210.9
21
1303.78
31
0
0
LINE
8
0
10
1210.9
20
1303.78
30
0
11
1210.9
21
1304.73
31
0
0
LINE
8
0
10
1210.9
20
1304.73
30
0
11
1221.1
21
1304.73
31
0
0
LINE
8
0
10
1221.1
20
1304.73
30
0
11
1221.1
21
1302.53
31
0
0
LINE
8
0
10
1221.1
20
1302.53
30
0
11
1210.9
21
1302.53
31
0
0
LINE
8
0
10
1210.9
20
1302.53
30
0
11
1210.9
21
1303.63
31
0
0
LINE
8
0
10
912.75
20
1303.48
30
0
11
908.9
21
1303.48
31
0
0
LINE
8
0
10
908.9
20
1303.48
30
0
11
908.9
21
1302.53
31
0
0
LINE
8
0
10
908.9
20
1302.53
30
0
11
919.1
21
1302.53
31
0
0
LINE
8
0
10
919.1
20
1302.53
30
0
11
919.1
21
1304.73
31
0
0
LINE
8
0
10
919.1
20
1304.73
30
0
11
908.9
21
1304.73
31
0
0
LINE
8
0
10
908.9
20
1304.73
30
0
11
908.9
21
1303.63
31
0
0
LINE
8
0
10
822.75
20
1303.78
30
0
11
818.9
21
1303.78
31
0
0
LINE
8
0
10
818.9
20
1303.78
30
0
11
818.9
21
1304.73
31
0
0
LINE
8
0
10
818.9
20
1304.73
30
0
11
829.1
21
1304.73
31
0
0
LINE
8
0
10
829.1
20
1304.73
30
0
11
829.1
21
1302.53
31
0
0
LINE
8
0
10
829.1
20
1302.53
30
0
11
818.9
21
1302.53
31
0
0
LINE
8
0
10
818.9
20
1302.53
30
0
11
818.9
21
1303.63
31
0
0
LINE
8
0
10
801.24
20
1268.05
30
0
11
799.65
21
1270.8
31
0
0
LINE
8
0
10
799.65
20
1270.8
30
0
11
802.82
21
1276.3
31
0
0
LINE
8
0
10
802.82
20
1276.3
30
0
11
809.18
21
1276.3
31
0
0
LINE
8
0
10
809.18
20
1276.3
30
0
11
812.35
21
1270.8
31
0
0
LINE
8
0
10
812.35
20
1270.8
30
0
11
809.18
21
1265.3
31
0
0
LINE
8
0
10
809.18
20
1265.3
30
0
11
802.82
21
1265.3
31
0
0
LINE
8
0
10
802.82
20
1265.3
30
0
11
801.24
21
1268.05
31
0
0
LINE
8
0
10
1421
20
1827.92
30
0
11
1417
21
1827.92
31
0
0
LINE
8
0
10
1417
20
1827.92
30
0
11
1415.65
21
1827.92
31
0
0
LINE
8
0
10
1415.65
20
1827.92
30
0
11
1415.65
21
1828.92
31
0
0
LINE
8
0
10
1415.65
20
1828.92
30
0
11
714.35
21
1828.92
31
0
0
LINE
8
0
10
714.35
20
1828.92
30
0
11
714.35
21
1827.92
31
0
0
LINE
8
0
10
714.35
20
1827.92
30
0
11
712.85
21
1827.92
31
0
0
LINE
8
0
10
712.85
20
1827.92
30
0
11
712.85
21
1826.42
31
0
0
LINE
8
0
10
712.85
20
1826.42
30
0
11
711.85
21
1826.42
31
0
0
LINE
8
0
10
711.85
20
1826.42
30
0
11
711.85
21
1570.46
31
0
0
LINE
8
0
10
711.85
20
1570.46
30
0
11
714.85
21
1570.46
31
0
0
LINE
8
0
10
714.85
20
1570.46
30
0
11
714.85
21
1558.13
31
0
0
LINE
8
0
10
714.85
20
1558.13
30
0
11
715.85
21
1558.13
31
0
0
LINE
8
0
10
715.85
20
1558.13
30
0
11
715.85
21
1557.43
31
0
0
LINE
8
0
10
715.85
20
1557.43
30
0
11
714.85
21
1557.43
31
0
0
LINE
8
0
10
714.85
20
1557.43
30
0
11
714.85
21
1476.46
31
0
0
ARC
8
0
10
709
20
1476.46
30
0
40
5.85
50
270
51
0
0
LINE
8
0
10
709
20
1470.61
30
0
11
650
21
1470.61
31
0
0
ARC
8
0
10
650
20
1464.46
30
0
40
6.15
50
90
51
180
0
LINE
8
0
10
643.85
20
1464.46
30
0
11
643.85
21
1350.31
31
0
0
LINE
8
0
10
643.85
20
1350.31
30
0
11
664
21
1350.31
31
0
0
ARC
8
0
10
664
20
1345.46
30
0
40
4.85
50
0
51
90
0
LINE
8
0
10
668.85
20
1345.46
30
0
11
668.85
21
1325.81
31
0
0
LINE
8
0
10
668.85
20
1325.81
30
0
11
685.5
21
1325.81
31
0
0
ARC
8
0
10
685.5
20
1320.96
30
0
40
4.85
50
0
51
90
0
LINE
8
0
10
690.35
20
1320.96
30
0
11
690.35
21
1300.31
31
0
0
LINE
8
0
10
690.35
20
1300.31
30
0
11
695.35
21
1300.31
31
0
0
LINE
8
0
10
695.35
20
1300.31
30
0
11
695.35
21
1275.95
31
0
0
LINE
8
0
10
695.35
20
1275.95
30
0
11
690.35
21
1275.95
31
0
0
LINE
8
0
10
690.35
20
1275.95
30
0
11
690.35
21
1260.65
31
0
0
LINE
8
0
10
690.35
20
1260.65
30
0
11
1439.65
21
1260.65
31
0
0
LINE
8
0
10
1439.65
20
1260.65
30
0
11
1439.65
21
1275.95
31
0
0
LINE
8
0
10
1439.65
20
1275.95
30
0
11
1434.65
21
1275.95
31
0
0
LINE
8
0
10
1434.65
20
1275.95
30
0
11
1434.65
21
1300.31
31
0
0
LINE
8
0
10
1434.65
20
1300.31
30
0
11
1439.65
21
1300.31
31
0
0
LINE
8
0
10
1439.65
20
1300.31
30
0
11
1439.65
21
1320.96
31
0
0
ARC
8
0
10
1444.5
20
1320.96
30
0
40
4.85
50
90
51
180
0
LINE
8
0
10
1444.5
20
1325.81
30
0
11
1476.15
21
1325.81
31
0
0
LINE
8
0
10
1476.15
20
1325.81
30
0
11
1476.15
21
1330.96
31
0
0
ARC
8
0
10
1481
20
1330.96
30
0
40
4.85
50
90
51
180
0
LINE
8
0
10
1481
20
1335.81
30
0
11
1486.15
21
1335.81
31
0
0
LINE
8
0
10
1486.15
20
1335.81
30
0
11
1486.15
21
1464.46
31
0
0
ARC
8
0
10
1480
20
1464.46
30
0
40
6.15
50
0
51
90
0
LINE
8
0
10
1480
20
1470.61
30
0
11
1421
21
1470.61
31
0
0
ARC
8
0
10
1421
20
1476.46
30
0
40
5.85
50
180
51
270
0
LINE
8
0
10
1415.15
20
1476.46
30
0
11
1415.15
21
1557.43
31
0
0
LINE
8
0
10
1415.15
20
1557.43
30
0
11
1414.15
21
1557.43
31
0
0
LINE
8
0
10
1414.15
20
1557.43
30
0
11
1414.15
21
1558.13
31
0
0
LINE
8
0
10
1414.15
20
1558.13
30
0
11
1415.15
21
1558.13
31
0
0
LINE
8
0
10
1415.15
20
1558.13
30
0
11
1415.15
21
1570.46
31
0
0
LINE
8
0
10
1415.15
20
1570.46
30
0
11
1418.15
21
1570.46
31
0
0
LINE
8
0
10
1418.15
20
1570.46
30
0
11
1418.15
21
1826.42
31
0
0
LINE
8
0
10
1418.15
20
1826.42
30
0
11
1417.15
21
1826.42
31
0
0
LINE
8
0
10
1417.15
20
1826.42
30
0
11
1417.15
21
1827.77
31
0
0
ENDSEC
0
EOF
