0
SECTION
2
HEADER
9
$ACADVER
1
AC1009
0
ENDSEC
0
SECTION
2
ENTITIES
0
LINE
8
0
10
1456.26
20
257.19
30
0
11
1464.76
21
262.09
31
0
0
LINE
8
0
10
1464.76
20
262.09
30
0
11
1464.76
21
271.91
31
0
0
LINE
8
0
10
1464.76
20
271.91
30
0
11
1456.26
21
276.81
31
0
0
LINE
8
0
10
1456.26
20
276.81
30
0
11
1447.76
21
271.91
31
0
0
LINE
8
0
10
1447.76
20
271.91
30
0
11
1447.76
21
262.09
31
0
0
LINE
8
0
10
1447.76
20
262.09
30
0
11
1456.26
21
257.19
31
0
0
LINE
8
0
10
1456.26
20
707.19
30
0
11
1464.76
21
712.09
31
0
0
LINE
8
0
10
1464.76
20
712.09
30
0
11
1464.76
21
721.91
31
0
0
LINE
8
0
10
1464.76
20
721.91
30
0
11
1456.26
21
726.81
31
0
0
LINE
8
0
10
1456.26
20
726.81
30
0
11
1447.76
21
721.91
31
0
0
LINE
8
0
10
1447.76
20
721.91
30
0
11
1447.76
21
712.09
31
0
0
LINE
8
0
10
1447.76
20
712.09
30
0
11
1456.26
21
707.19
31
0
0
LINE
8
0
10
1456.26
20
1157.19
30
0
11
1464.76
21
1162.09
31
0
0
LINE
8
0
10
1464.76
20
1162.09
30
0
11
1464.76
21
1171.91
31
0
0
LINE
8
0
10
1464.76
20
1171.91
30
0
11
1456.26
21
1176.81
31
0
0
LINE
8
0
10
1456.26
20
1176.81
30
0
11
1447.76
21
1171.91
31
0
0
LINE
8
0
10
1447.76
20
1171.91
30
0
11
1447.76
21
1162.09
31
0
0
LINE
8
0
10
1447.76
20
1162.09
30
0
11
1456.26
21
1157.19
31
0
0
LINE
8
0
10
1345.9
20
1196.83
30
0
11
1345.9
21
1199.69
31
0
0
LINE
8
0
10
1345.9
20
1200.58
30
0
11
1335.9
21
1200.58
31
0
0
LINE
8
0
10
1335.9
20
1200.58
30
0
11
1345.9
21
1207.73
31
0
0
LINE
8
0
10
1345.9
20
1207.73
30
0
11
1335.9
21
1207.73
31
0
0
LINE
8
0
10
1335.9
20
1208.62
30
0
11
1335.9
21
1215.76
31
0
0
LINE
8
0
10
1335.9
20
1212.19
30
0
11
1345.9
21
1212.19
31
0
0
LINE
8
0
10
1345.9
20
1198.26
30
0
11
1335.9
21
1198.26
31
0
0
LINE
8
0
10
1335.9
20
1196.83
30
0
11
1335.9
21
1199.69
31
0
0
LINE
8
0
10
1456.26
20
1607.19
30
0
11
1464.76
21
1612.09
31
0
0
LINE
8
0
10
1464.76
20
1612.09
30
0
11
1464.76
21
1621.91
31
0
0
LINE
8
0
10
1464.76
20
1621.91
30
0
11
1456.26
21
1626.81
31
0
0
LINE
8
0
10
1456.26
20
1626.81
30
0
11
1447.76
21
1621.91
31
0
0
LINE
8
0
10
1447.76
20
1621.91
30
0
11
1447.76
21
1612.09
31
0
0
LINE
8
0
10
1447.76
20
1612.09
30
0
11
1456.26
21
1607.19
31
0
0
LINE
8
0
10
1456.26
20
2057.19
30
0
11
1464.76
21
2062.09
31
0
0
LINE
8
0
10
1464.76
20
2062.09
30
0
11
1464.76
21
2071.91
31
0
0
LINE
8
0
10
1464.76
20
2071.91
30
0
11
1456.26
21
2076.81
31
0
0
LINE
8
0
10
1456.26
20
2076.81
30
0
11
1447.76
21
2071.91
31
0
0
LINE
8
0
10
1447.76
20
2071.91
30
0
11
1447.76
21
2062.09
31
0
0
LINE
8
0
10
1447.76
20
2062.09
30
0
11
1456.26
21
2057.19
31
0
0
LINE
8
0
10
1453.92
20
2069.26
30
0
11
1451.84
21
2071.35
31
0
0
ARC
8
0
10
1456.26
20
2067
30
0
40
6.201524
50
135.457311
51
135.065332
0
LINE
8
0
10
1318
20
2149.56
30
0
11
1315.92
21
2151.64
31
0
0
ARC
8
0
10
1337.13
20
2130.5
30
0
40
29.946013
50
135.094704
51
135
0
LINE
8
0
10
1318
20
1849.56
30
0
11
1315.92
21
1851.64
31
0
0
ARC
8
0
10
1337.13
20
1830.5
30
0
40
29.946013
50
135.094704
51
135
0
LINE
8
0
10
1260.63
20
1797.05
30
0
11
1263.63
21
1797.05
31
0
0
LINE
8
0
10
1263.63
20
1797.05
30
0
11
1267.08
21
1797.05
31
0
0
LINE
8
0
10
1267.08
20
1797.05
30
0
11
1267.08
21
1798.45
31
0
0
LINE
8
0
10
1267.08
20
1798.45
30
0
11
1257.18
21
1798.45
31
0
0
LINE
8
0
10
1257.18
20
1798.45
30
0
11
1257.18
21
1788.55
31
0
0
LINE
8
0
10
1257.18
20
1788.55
30
0
11
1260.72
21
1788.55
31
0
0
LINE
8
0
10
1260.72
20
1788.55
30
0
11
1261.75
21
1787.52
31
0
0
LINE
8
0
10
1261.75
20
1787.52
30
0
11
1261.75
21
1683.48
31
0
0
LINE
8
0
10
1261.75
20
1683.48
30
0
11
1260.72
21
1682.45
31
0
0
LINE
8
0
10
1260.72
20
1682.45
30
0
11
1257.18
21
1682.45
31
0
0
LINE
8
0
10
1257.18
20
1682.45
30
0
11
1257.18
21
1672.55
31
0
0
LINE
8
0
10
1257.18
20
1672.55
30
0
11
1267.08
21
1672.55
31
0
0
LINE
8
0
10
1267.08
20
1672.55
30
0
11
1267.08
21
1673.95
31
0
0
LINE
8
0
10
1267.08
20
1673.95
30
0
11
1263.58
21
1673.95
31
0
0
LINE
8
0
10
1263.58
20
1673.95
30
0
11
1263.58
21
1797
31
0
0
LINE
8
0
10
1287.28
20
1735.5
30
0
11
1287.28
21
1738.05
31
0
0
LINE
8
0
10
1287.28
20
1738.05
30
0
11
1292.98
21
1738.05
31
0
0
LINE
8
0
10
1292.98
20
1738.05
30
0
11
1292.98
21
1732.95
31
0
0
LINE
8
0
10
1292.98
20
1732.95
30
0
11
1287.28
21
1732.95
31
0
0
LINE
8
0
10
1287.28
20
1732.95
30
0
11
1287.28
21
1735.5
31
0
0
LINE
8
0
10
1413.63
20
1797.05
30
0
11
1410.63
21
1797.05
31
0
0
LINE
8
0
10
1410.63
20
1797.05
30
0
11
1407.18
21
1797.05
31
0
0
LINE
8
0
10
1407.18
20
1797.05
30
0
11
1407.18
21
1798.45
31
0
0
LINE
8
0
10
1407.18
20
1798.45
30
0
11
1417.08
21
1798.45
31
0
0
LINE
8
0
10
1417.08
20
1798.45
30
0
11
1417.08
21
1788.55
31
0
0
LINE
8
0
10
1417.08
20
1788.55
30
0
11
1413.54
21
1788.55
31
0
0
LINE
8
0
10
1413.54
20
1788.55
30
0
11
1412.51
21
1787.52
31
0
0
LINE
8
0
10
1412.51
20
1787.52
30
0
11
1412.51
21
1683.48
31
0
0
LINE
8
0
10
1412.51
20
1683.48
30
0
11
1413.54
21
1682.45
31
0
0
LINE
8
0
10
1413.54
20
1682.45
30
0
11
1417.08
21
1682.45
31
0
0
LINE
8
0
10
1417.08
20
1682.45
30
0
11
1417.08
21
1672.55
31
0
0
LINE
8
0
10
1417.08
20
1672.55
30
0
11
1407.18
21
1672.55
31
0
0
LINE
8
0
10
1407.18
20
1672.55
30
0
11
1407.18
21
1673.95
31
0
0
LINE
8
0
10
1407.18
20
1673.95
30
0
11
1410.68
21
1673.95
31
0
0
LINE
8
0
10
1410.68
20
1673.95
30
0
11
1410.68
21
1797
31
0
0
LINE
8
0
10
1453.92
20
1619.26
30
0
11
1451.84
21
1621.35
31
0
0
ARC
8
0
10
1456.26
20
1617
30
0
40
6.201524
50
135.457311
51
135.065332
0
LINE
8
0
10
1318
20
1499.56
30
0
11
1315.92
21
1501.64
31
0
0
ARC
8
0
10
1337.13
20
1480.5
30
0
40
29.946013
50
135.094704
51
135
0
LINE
8
0
10
1260.63
20
1247.05
30
0
11
1263.63
21
1247.05
31
0
0
LINE
8
0
10
1263.63
20
1247.05
30
0
11
1267.08
21
1247.05
31
0
0
LINE
8
0
10
1267.08
20
1247.05
30
0
11
1267.08
21
1248.45
31
0
0
LINE
8
0
10
1267.08
20
1248.45
30
0
11
1257.18
21
1248.45
31
0
0
LINE
8
0
10
1257.18
20
1248.45
30
0
11
1257.18
21
1238.55
31
0
0
LINE
8
0
10
1257.18
20
1238.55
30
0
11
1260.72
21
1238.55
31
0
0
LINE
8
0
10
1260.72
20
1238.55
30
0
11
1261.75
21
1237.52
31
0
0
LINE
8
0
10
1261.75
20
1237.52
30
0
11
1261.75
21
1133.48
31
0
0
LINE
8
0
10
1261.75
20
1133.48
30
0
11
1260.72
21
1132.45
31
0
0
LINE
8
0
10
1260.72
20
1132.45
30
0
11
1257.18
21
1132.45
31
0
0
LINE
8
0
10
1257.18
20
1132.45
30
0
11
1257.18
21
1122.55
31
0
0
LINE
8
0
10
1257.18
20
1122.55
30
0
11
1267.08
21
1122.55
31
0
0
LINE
8
0
10
1267.08
20
1122.55
30
0
11
1267.08
21
1123.95
31
0
0
LINE
8
0
10
1267.08
20
1123.95
30
0
11
1263.58
21
1123.95
31
0
0
LINE
8
0
10
1263.58
20
1123.95
30
0
11
1263.58
21
1247
31
0
0
LINE
8
0
10
1287.28
20
1185.5
30
0
11
1287.28
21
1188.05
31
0
0
LINE
8
0
10
1287.28
20
1188.05
30
0
11
1292.98
21
1188.05
31
0
0
LINE
8
0
10
1292.98
20
1188.05
30
0
11
1292.98
21
1182.95
31
0
0
LINE
8
0
10
1292.98
20
1182.95
30
0
11
1287.28
21
1182.95
31
0
0
LINE
8
0
10
1287.28
20
1182.95
30
0
11
1287.28
21
1185.5
31
0
0
LINE
8
0
10
1413.63
20
1247.05
30
0
11
1410.63
21
1247.05
31
0
0
LINE
8
0
10
1410.63
20
1247.05
30
0
11
1407.18
21
1247.05
31
0
0
LINE
8
0
10
1407.18
20
1247.05
30
0
11
1407.18
21
1248.45
31
0
0
LINE
8
0
10
1407.18
20
1248.45
30
0
11
1417.08
21
1248.45
31
0
0
LINE
8
0
10
1417.08
20
1248.45
30
0
11
1417.08
21
1238.55
31
0
0
LINE
8
0
10
1417.08
20
1238.55
30
0
11
1413.54
21
1238.55
31
0
0
LINE
8
0
10
1413.54
20
1238.55
30
0
11
1412.51
21
1237.52
31
0
0
LINE
8
0
10
1412.51
20
1237.52
30
0
11
1412.51
21
1133.48
31
0
0
LINE
8
0
10
1412.51
20
1133.48
30
0
11
1413.54
21
1132.45
31
0
0
LINE
8
0
10
1413.54
20
1132.45
30
0
11
1417.08
21
1132.45
31
0
0
LINE
8
0
10
1417.08
20
1132.45
30
0
11
1417.08
21
1122.55
31
0
0
LINE
8
0
10
1417.08
20
1122.55
30
0
11
1407.18
21
1122.55
31
0
0
LINE
8
0
10
1407.18
20
1122.55
30
0
11
1407.18
21
1123.95
31
0
0
LINE
8
0
10
1407.18
20
1123.95
30
0
11
1410.68
21
1123.95
31
0
0
LINE
8
0
10
1410.68
20
1123.95
30
0
11
1410.68
21
1247
31
0
0
LINE
8
0
10
1453.92
20
1169.26
30
0
11
1451.84
21
1171.35
31
0
0
ARC
8
0
10
1456.26
20
1167
30
0
40
6.201524
50
135.457311
51
135.065332
0
LINE
8
0
10
1318
20
832.06
30
0
11
1315.92
21
834.14
31
0
0
ARC
8
0
10
1337.13
20
813
30
0
40
29.946013
50
135.094704
51
135
0
LINE
8
0
10
1260.63
20
697.05
30
0
11
1263.63
21
697.05
31
0
0
LINE
8
0
10
1263.63
20
697.05
30
0
11
1267.08
21
697.05
31
0
0
LINE
8
0
10
1267.08
20
697.05
30
0
11
1267.08
21
698.45
31
0
0
LINE
8
0
10
1267.08
20
698.45
30
0
11
1257.18
21
698.45
31
0
0
LINE
8
0
10
1257.18
20
698.45
30
0
11
1257.18
21
688.55
31
0
0
LINE
8
0
10
1257.18
20
688.55
30
0
11
1260.72
21
688.55
31
0
0
LINE
8
0
10
1260.72
20
688.55
30
0
11
1261.75
21
687.52
31
0
0
LINE
8
0
10
1261.75
20
687.52
30
0
11
1261.75
21
583.48
31
0
0
LINE
8
0
10
1261.75
20
583.48
30
0
11
1260.72
21
582.45
31
0
0
LINE
8
0
10
1260.72
20
582.45
30
0
11
1257.18
21
582.45
31
0
0
LINE
8
0
10
1257.18
20
582.45
30
0
11
1257.18
21
572.55
31
0
0
LINE
8
0
10
1257.18
20
572.55
30
0
11
1267.08
21
572.55
31
0
0
LINE
8
0
10
1267.08
20
572.55
30
0
11
1267.08
21
573.95
31
0
0
LINE
8
0
10
1267.08
20
573.95
30
0
11
1263.58
21
573.95
31
0
0
LINE
8
0
10
1263.58
20
573.95
30
0
11
1263.58
21
697
31
0
0
LINE
8
0
10
1287.28
20
635.5
30
0
11
1287.28
21
638.05
31
0
0
LINE
8
0
10
1287.28
20
638.05
30
0
11
1292.98
21
638.05
31
0
0
LINE
8
0
10
1292.98
20
638.05
30
0
11
1292.98
21
632.95
31
0
0
LINE
8
0
10
1292.98
20
632.95
30
0
11
1287.28
21
632.95
31
0
0
LINE
8
0
10
1287.28
20
632.95
30
0
11
1287.28
21
635.5
31
0
0
LINE
8
0
10
1413.63
20
697.05
30
0
11
1410.63
21
697.05
31
0
0
LINE
8
0
10
1410.63
20
697.05
30
0
11
1407.18
21
697.05
31
0
0
LINE
8
0
10
1407.18
20
697.05
30
0
11
1407.18
21
698.45
31
0
0
LINE
8
0
10
1407.18
20
698.45
30
0
11
1417.08
21
698.45
31
0
0
LINE
8
0
10
1417.08
20
698.45
30
0
11
1417.08
21
688.55
31
0
0
LINE
8
0
10
1417.08
20
688.55
30
0
11
1413.54
21
688.55
31
0
0
LINE
8
0
10
1413.54
20
688.55
30
0
11
1412.51
21
687.52
31
0
0
LINE
8
0
10
1412.51
20
687.52
30
0
11
1412.51
21
583.48
31
0
0
LINE
8
0
10
1412.51
20
583.48
30
0
11
1413.54
21
582.45
31
0
0
LINE
8
0
10
1413.54
20
582.45
30
0
11
1417.08
21
582.45
31
0
0
LINE
8
0
10
1417.08
20
582.45
30
0
11
1417.08
21
572.55
31
0
0
LINE
8
0
10
1417.08
20
572.55
30
0
11
1407.18
21
572.55
31
0
0
LINE
8
0
10
1407.18
20
572.55
30
0
11
1407.18
21
573.95
31
0
0
LINE
8
0
10
1407.18
20
573.95
30
0
11
1410.68
21
573.95
31
0
0
LINE
8
0
10
1410.68
20
573.95
30
0
11
1410.68
21
697
31
0
0
LINE
8
0
10
1453.92
20
719.26
30
0
11
1451.84
21
721.35
31
0
0
ARC
8
0
10
1456.26
20
717
30
0
40
6.201524
50
135.457311
51
135.065332
0
LINE
8
0
10
1318
20
482.06
30
0
11
1315.92
21
484.14
31
0
0
ARC
8
0
10
1337.13
20
463
30
0
40
29.946013
50
135.094704
51
135
0
LINE
8
0
10
1453.92
20
269.26
30
0
11
1451.84
21
271.35
31
0
0
ARC
8
0
10
1456.26
20
267
30
0
40
6.201524
50
135.457311
51
135.065332
0
LINE
8
0
10
1318
20
182.06
30
0
11
1315.92
21
184.14
31
0
0
ARC
8
0
10
1337.13
20
163
30
0
40
29.946013
50
135.094704
51
135
0
LINE
8
0
10
1381.13
20
18.95
30
0
11
1378.13
21
18.95
31
0
0
LINE
8
0
10
1378.13
20
18.95
30
0
11
1356.68
21
18.95
31
0
0
LINE
8
0
10
1356.68
20
18.95
30
0
11
1356.68
21
15.5
31
0
0
ARC
8
0
10
1356.13
20
15.5
30
0
40
0.55
50
270
51
0
0
LINE
8
0
10
1356.13
20
14.95
30
0
11
1318.13
21
14.95
31
0
0
ARC
8
0
10
1318.13
20
15.5
30
0
40
0.55
50
180
51
270
0
LINE
8
0
10
1317.58
20
15.5
30
0
11
1317.58
21
18.95
31
0
0
LINE
8
0
10
1317.58
20
18.95
30
0
11
1296.11
21
18.95
31
0
0
LINE
8
0
10
1296.11
20
18.95
30
0
11
1262.58
21
52.98
31
0
0
LINE
8
0
10
1262.58
20
52.98
30
0
11
1262.58
21
148.05
31
0
0
LINE
8
0
10
1262.58
20
148.05
30
0
11
1267.08
21
148.05
31
0
0
LINE
8
0
10
1267.08
20
148.05
30
0
11
1267.08
21
153.95
31
0
0
LINE
8
0
10
1267.08
20
153.95
30
0
11
1256.05
21
153.95
31
0
0
LINE
8
0
10
1256.05
20
153.95
30
0
11
1256.05
21
149.45
31
0
0
LINE
8
0
10
1256.05
20
149.45
30
0
11
1197.05
21
149.45
31
0
0
LINE
8
0
10
1197.05
20
149.45
30
0
11
1197.05
21
147.95
31
0
0
LINE
8
0
10
1197.05
20
147.95
30
0
11
1190.95
21
147.95
31
0
0
LINE
8
0
10
1190.95
20
147.95
30
0
11
1190.95
21
632.95
31
0
0
LINE
8
0
10
1190.95
20
632.95
30
0
11
1196.65
21
632.95
31
0
0
LINE
8
0
10
1196.65
20
632.95
30
0
11
1196.65
21
638.05
31
0
0
LINE
8
0
10
1196.65
20
638.05
30
0
11
1190.95
21
638.05
31
0
0
LINE
8
0
10
1190.95
20
638.05
30
0
11
1190.95
21
1182.95
31
0
0
LINE
8
0
10
1190.95
20
1182.95
30
0
11
1196.65
21
1182.95
31
0
0
LINE
8
0
10
1196.65
20
1182.95
30
0
11
1196.65
21
1188.05
31
0
0
LINE
8
0
10
1196.65
20
1188.05
30
0
11
1190.95
21
1188.05
31
0
0
LINE
8
0
10
1190.95
20
1188.05
30
0
11
1190.95
21
1732.95
31
0
0
LINE
8
0
10
1190.95
20
1732.95
30
0
11
1196.65
21
1732.95
31
0
0
LINE
8
0
10
1196.65
20
1732.95
30
0
11
1196.65
21
1738.05
31
0
0
LINE
8
0
10
1196.65
20
1738.05
30
0
11
1190.95
21
1738.05
31
0
0
LINE
8
0
10
1190.95
20
1738.05
30
0
11
1190.95
21
2189.05
31
0
0
LINE
8
0
10
1190.95
20
2189.05
30
0
11
1197.05
21
2189.05
31
0
0
LINE
8
0
10
1197.05
20
2189.05
30
0
11
1197.05
21
2187.55
31
0
0
LINE
8
0
10
1197.05
20
2187.55
30
0
11
1256.05
21
2187.55
31
0
0
LINE
8
0
10
1256.05
20
2187.55
30
0
11
1256.05
21
2184.55
31
0
0
LINE
8
0
10
1256.05
20
2184.55
30
0
11
1267.08
21
2184.55
31
0
0
LINE
8
0
10
1267.08
20
2184.55
30
0
11
1267.08
21
2190.45
31
0
0
LINE
8
0
10
1267.08
20
2190.45
30
0
11
1262.58
21
2190.45
31
0
0
LINE
8
0
10
1262.58
20
2190.45
30
0
11
1262.58
21
2240.52
31
0
0
LINE
8
0
10
1262.58
20
2240.52
30
0
11
1296.11
21
2273.55
31
0
0
LINE
8
0
10
1296.11
20
2273.55
30
0
11
1317.58
21
2273.55
31
0
0
LINE
8
0
10
1317.58
20
2273.55
30
0
11
1317.58
21
2278
31
0
0
ARC
8
0
10
1318.13
20
2278
30
0
40
0.55
50
90
51
180
0
LINE
8
0
10
1318.13
20
2278.55
30
0
11
1356.13
21
2278.55
31
0
0
ARC
8
0
10
1356.13
20
2278
30
0
40
0.55
50
0
51
90
0
LINE
8
0
10
1356.68
20
2278
30
0
11
1356.68
21
2273.55
31
0
0
LINE
8
0
10
1356.68
20
2273.55
30
0
11
1378.15
21
2273.55
31
0
0
LINE
8
0
10
1378.15
20
2273.55
30
0
11
1411.68
21
2240.52
31
0
0
LINE
8
0
10
1411.68
20
2240.52
30
0
11
1411.68
21
2190.45
31
0
0
LINE
8
0
10
1411.68
20
2190.45
30
0
11
1407.18
21
2190.45
31
0
0
LINE
8
0
10
1407.18
20
2190.45
30
0
11
1407.18
21
2184.55
31
0
0
LINE
8
0
10
1407.18
20
2184.55
30
0
11
1418.21
21
2184.55
31
0
0
LINE
8
0
10
1418.21
20
2184.55
30
0
11
1418.21
21
2187.55
31
0
0
LINE
8
0
10
1418.21
20
2187.55
30
0
11
1477.21
21
2187.55
31
0
0
LINE
8
0
10
1477.21
20
2187.55
30
0
11
1477.21
21
2189.05
31
0
0
LINE
8
0
10
1477.21
20
2189.05
30
0
11
1483.31
21
2189.05
31
0
0
LINE
8
0
10
1483.31
20
2189.05
30
0
11
1483.31
21
1738.05
31
0
0
LINE
8
0
10
1483.31
20
1738.05
30
0
11
1477.61
21
1738.05
31
0
0
LINE
8
0
10
1477.61
20
1738.05
30
0
11
1477.61
21
1732.95
31
0
0
LINE
8
0
10
1477.61
20
1732.95
30
0
11
1483.31
21
1732.95
31
0
0
LINE
8
0
10
1483.31
20
1732.95
30
0
11
1483.31
21
1188.05
31
0
0
LINE
8
0
10
1483.31
20
1188.05
30
0
11
1477.61
21
1188.05
31
0
0
LINE
8
0
10
1477.61
20
1188.05
30
0
11
1477.61
21
1182.95
31
0
0
LINE
8
0
10
1477.61
20
1182.95
30
0
11
1483.31
21
1182.95
31
0
0
LINE
8
0
10
1483.31
20
1182.95
30
0
11
1483.31
21
638.05
31
0
0
LINE
8
0
10
1483.31
20
638.05
30
0
11
1477.61
21
638.05
31
0
0
LINE
8
0
10
1477.61
20
638.05
30
0
11
1477.61
21
632.95
31
0
0
LINE
8
0
10
1477.61
20
632.95
30
0
11
1483.31
21
632.95
31
0
0
LINE
8
0
10
1483.31
20
632.95
30
0
11
1483.31
21
147.95
31
0
0
LINE
8
0
10
1483.31
20
147.95
30
0
11
1477.21
21
147.95
31
0
0
LINE
8
0
10
1477.21
20
147.95
30
0
11
1477.21
21
149.45
31
0
0
LINE
8
0
10
1477.21
20
149.45
30
0
11
1418.21
21
149.45
31
0
0
LINE
8
0
10
1418.21
20
149.45
30
0
11
1418.21
21
153.95
31
0
0
LINE
8
0
10
1418.21
20
153.95
30
0
11
1407.18
21
153.95
31
0
0
LINE
8
0
10
1407.18
20
153.95
30
0
11
1407.18
21
148.05
31
0
0
LINE
8
0
10
1407.18
20
148.05
30
0
11
1411.68
21
148.05
31
0
0
LINE
8
0
10
1411.68
20
148.05
30
0
11
1411.68
21
52.98
31
0
0
LINE
8
0
10
1411.68
20
52.98
30
0
11
1378.16
21
18.96
31
0
0
ENDSEC
0
EOF
