0
SECTION
2
HEADER
9
$ACADVER
1
AC1009
0
ENDSEC
0
SECTION
2
ENTITIES
0
LINE
8
0
10
931.85
20
470.74
30
0
11
935.35
21
467.24
31
0
0
ARC
8
0
10
930.12
20
472.4
30
0
40
7.347006
50
315.38601
51
315
0
LINE
8
0
10
931.85
20
710.74
30
0
11
935.35
21
707.24
31
0
0
ARC
8
0
10
930.12
20
712.4
30
0
40
7.347006
50
315.38601
51
315
0
LINE
8
0
10
862.62
20
737.47
30
0
11
867.57
21
737.47
31
0
0
LINE
8
0
10
867.57
20
737.47
30
0
11
867.57
21
741.9
31
0
0
ARC
8
0
10
868.12
20
741.9
30
0
40
0.55
50
90
51
180
0
LINE
8
0
10
868.12
20
742.45
30
0
11
932.12
21
742.45
31
0
0
ARC
8
0
10
932.12
20
734.4
30
0
40
8.05
50
360
51
90
0
LINE
8
0
10
940.17
20
734.4
30
0
11
940.17
21
675.35
31
0
0
LINE
8
0
10
940.17
20
675.35
30
0
11
935.67
21
675.35
31
0
0
LINE
8
0
10
935.67
20
675.35
30
0
11
935.67
21
672.45
31
0
0
LINE
8
0
10
935.67
20
672.45
30
0
11
969.67
21
672.45
31
0
0
LINE
8
0
10
969.67
20
672.45
30
0
11
969.67
21
512.35
31
0
0
LINE
8
0
10
969.67
20
512.35
30
0
11
935.67
21
512.35
31
0
0
LINE
8
0
10
935.67
20
512.35
30
0
11
935.67
21
509.45
31
0
0
LINE
8
0
10
935.67
20
509.45
30
0
11
940.17
21
509.45
31
0
0
LINE
8
0
10
940.17
20
509.45
30
0
11
940.17
21
450.4
31
0
0
ARC
8
0
10
932.12
20
450.4
30
0
40
8.05
50
270
51
0
0
LINE
8
0
10
932.12
20
442.35
30
0
11
868.12
21
442.35
31
0
0
ARC
8
0
10
868.12
20
442.9
30
0
40
0.55
50
180
51
270
0
LINE
8
0
10
867.57
20
442.9
30
0
11
867.57
21
451.9
31
0
0
ARC
8
0
10
868.12
20
451.9
30
0
40
0.55
50
90
51
180
0
LINE
8
0
10
868.12
20
452.45
30
0
11
870.42
21
452.45
31
0
0
ARC
8
0
10
870.62
20
452.4
30
0
40
0.206155
50
165.963757
51
104.743563
0
LINE
8
0
10
870.57
20
452.59
30
0
11
870.57
21
732.21
31
0
0
ARC
8
0
10
870.62
20
732.4
30
0
40
0.196469
50
255.256437
51
194.036243
0
LINE
8
0
10
870.42
20
732.35
30
0
11
868.12
21
732.35
31
0
0
ARC
8
0
10
868.12
20
732.9
30
0
40
0.55
50
180
51
270
0
LINE
8
0
10
867.57
20
732.9
30
0
11
867.57
21
736.82
31
0
0
ENDSEC
0
EOF
