0
SECTION
2
HEADER
9
$ACADVER
1
AC1009
0
ENDSEC
0
SECTION
2
ENTITIES
0
CIRCLE
8
0
10
1114.37
20
18.92
30
0
40
5
0
CIRCLE
8
0
10
1114.37
20
38.92
30
0
40
5
0
CIRCLE
8
0
10
1089.37
20
18.92
30
0
40
5
0
LINE
8
0
10
1037.86
20
1234.55
30
0
11
1036.43
21
1235.98
31
0
0
LINE
8
0
10
1036.43
20
1235.98
30
0
11
1036.43
21
1240.27
31
0
0
LINE
8
0
10
1036.43
20
1240.27
30
0
11
1037.86
21
1241.69
31
0
0
LINE
8
0
10
1037.86
20
1241.69
30
0
11
1040.71
21
1241.69
31
0
0
LINE
8
0
10
1040.71
20
1241.69
30
0
11
1042.14
21
1240.27
31
0
0
LINE
8
0
10
1042.14
20
1240.27
30
0
11
1042.14
21
1235.98
31
0
0
LINE
8
0
10
1042.14
20
1235.98
30
0
11
1043.57
21
1234.55
31
0
0
LINE
8
0
10
1043.57
20
1234.55
30
0
11
1046.43
21
1234.55
31
0
0
LINE
8
0
10
1046.43
20
1234.55
30
0
11
1046.43
21
1240.27
31
0
0
LINE
8
0
10
1046.43
20
1240.27
30
0
11
1045
21
1241.69
31
0
0
LINE
8
0
10
1046.43
20
1244.02
30
0
11
1036.43
21
1249.73
31
0
0
LINE
8
0
10
1036.43
20
1249.73
30
0
11
1036.43
21
1242.59
31
0
0
LINE
8
0
10
1042.14
20
1244.02
30
0
11
1042.14
21
1248.3
31
0
0
LINE
8
0
10
1042.14
20
1250.62
30
0
11
1042.14
21
1256.34
31
0
0
LINE
8
0
10
1042.14
20
1256.34
30
0
11
1043.57
21
1257.77
31
0
0
LINE
8
0
10
1043.57
20
1257.77
30
0
11
1045
21
1257.77
31
0
0
LINE
8
0
10
1045
20
1257.77
30
0
11
1046.43
21
1256.34
31
0
0
LINE
8
0
10
1046.43
20
1256.34
30
0
11
1046.43
21
1252.05
31
0
0
LINE
8
0
10
1046.43
20
1252.05
30
0
11
1045
21
1250.62
31
0
0
LINE
8
0
10
1045
20
1250.62
30
0
11
1037.86
21
1250.62
31
0
0
LINE
8
0
10
1037.86
20
1250.62
30
0
11
1036.43
21
1252.05
31
0
0
LINE
8
0
10
1036.43
20
1252.05
30
0
11
1036.43
21
1256.34
31
0
0
LINE
8
0
10
1036.43
20
1264.37
30
0
11
1046.43
21
1260.09
31
0
0
LINE
8
0
10
1046.43
20
1260.09
30
0
11
1045
21
1258.66
31
0
0
LINE
8
0
10
1045
20
1258.66
30
0
11
1037.86
21
1258.66
31
0
0
LINE
8
0
10
1037.86
20
1258.66
30
0
11
1036.43
21
1260.09
31
0
0
LINE
8
0
10
1036.43
20
1260.09
30
0
11
1036.43
21
1264.37
31
0
0
LINE
8
0
10
1036.43
20
1264.37
30
0
11
1037.86
21
1265.8
31
0
0
LINE
8
0
10
1037.86
20
1265.8
30
0
11
1045
21
1265.8
31
0
0
LINE
8
0
10
1045
20
1265.8
30
0
11
1046.43
21
1264.37
31
0
0
LINE
8
0
10
1046.43
20
1264.37
30
0
11
1046.43
21
1260.09
31
0
0
LINE
8
0
10
1045
20
1266.69
30
0
11
1046.43
21
1268.12
31
0
0
LINE
8
0
10
1046.43
20
1268.12
30
0
11
1046.43
21
1272.41
31
0
0
LINE
8
0
10
1046.43
20
1272.41
30
0
11
1045
21
1273.84
31
0
0
LINE
8
0
10
1045
20
1273.84
30
0
11
1043.57
21
1273.84
31
0
0
LINE
8
0
10
1043.57
20
1273.84
30
0
11
1042.14
21
1272.41
31
0
0
LINE
8
0
10
1042.14
20
1272.41
30
0
11
1040.71
21
1273.84
31
0
0
LINE
8
0
10
1040.71
20
1273.84
30
0
11
1037.86
21
1273.84
31
0
0
LINE
8
0
10
1037.86
20
1273.84
30
0
11
1036.43
21
1272.41
31
0
0
LINE
8
0
10
1036.43
20
1272.41
30
0
11
1036.43
21
1268.12
31
0
0
LINE
8
0
10
1036.43
20
1268.12
30
0
11
1037.86
21
1266.69
31
0
0
LINE
8
0
10
1042.14
20
1268.12
30
0
11
1042.14
21
1272.41
31
0
0
CIRCLE
8
0
10
1114.37
20
2462.92
30
0
40
5
0
CIRCLE
8
0
10
1114.37
20
2482.92
30
0
40
5
0
CIRCLE
8
0
10
1089.37
20
2482.92
30
0
40
5
0
LINE
8
0
10
1089.33
20
2482.88
30
0
11
1087.53
21
2484.68
31
0
0
ARC
8
0
10
1089.37
20
2482.92
30
0
40
2.546213
50
136.27303
51
135.158714
0
LINE
8
0
10
1114.33
20
2482.88
30
0
11
1112.53
21
2484.68
31
0
0
ARC
8
0
10
1114.37
20
2482.92
30
0
40
2.546213
50
136.27303
51
135.158714
0
LINE
8
0
10
1114.33
20
2462.88
30
0
11
1112.53
21
2464.68
31
0
0
ARC
8
0
10
1114.37
20
2462.92
30
0
40
2.546213
50
136.27303
51
135.158714
0
LINE
8
0
10
1107.54
20
1967.68
30
0
11
1105.45
21
1969.76
31
0
0
ARC
8
0
10
1108.37
20
1966.92
30
0
40
4.073328
50
135.795724
51
135
0
LINE
8
0
10
1087.54
20
1952.68
30
0
11
1085.45
21
1954.76
31
0
0
ARC
8
0
10
1088.37
20
1951.92
30
0
40
4.073328
50
135.795724
51
135
0
LINE
8
0
10
1127.54
20
1952.68
30
0
11
1125.45
21
1954.76
31
0
0
ARC
8
0
10
1128.37
20
1951.92
30
0
40
4.073328
50
135.795724
51
135
0
LINE
8
0
10
1127.54
20
1850.68
30
0
11
1125.45
21
1852.76
31
0
0
ARC
8
0
10
1128.37
20
1849.92
30
0
40
4.073328
50
135.795724
51
135
0
LINE
8
0
10
1107.54
20
1835.68
30
0
11
1105.45
21
1837.76
31
0
0
ARC
8
0
10
1108.37
20
1834.92
30
0
40
4.073328
50
135.795724
51
135
0
LINE
8
0
10
1087.54
20
1850.68
30
0
11
1085.45
21
1852.76
31
0
0
ARC
8
0
10
1088.37
20
1849.92
30
0
40
4.073328
50
135.795724
51
135
0
LINE
8
0
10
1101.04
20
1773.68
30
0
11
1098.95
21
1775.76
31
0
0
ARC
8
0
10
1101.87
20
1772.92
30
0
40
4.073328
50
135.795724
51
135
0
LINE
8
0
10
1126.04
20
1773.68
30
0
11
1123.95
21
1775.76
31
0
0
ARC
8
0
10
1126.87
20
1772.92
30
0
40
4.073328
50
135.795724
51
135
0
LINE
8
0
10
1158.5
20
1741.21
30
0
11
1156.42
21
1743.3
31
0
0
ARC
8
0
10
1161.37
20
1738.42
30
0
40
6.951036
50
135.408
51
135.058287
0
LINE
8
0
10
1158.5
20
1686.21
30
0
11
1156.42
21
1688.3
31
0
0
ARC
8
0
10
1161.37
20
1683.42
30
0
40
6.951036
50
135.408
51
135.058287
0
LINE
8
0
10
1126.04
20
1558.68
30
0
11
1123.95
21
1560.76
31
0
0
ARC
8
0
10
1126.87
20
1557.92
30
0
40
4.073328
50
135.795724
51
135
0
LINE
8
0
10
1101.04
20
1558.68
30
0
11
1098.95
21
1560.76
31
0
0
ARC
8
0
10
1101.87
20
1557.92
30
0
40
4.073328
50
135.795724
51
135
0
LINE
8
0
10
1101.04
20
944.68
30
0
11
1098.95
21
946.76
31
0
0
ARC
8
0
10
1101.87
20
943.92
30
0
40
4.073328
50
135.795724
51
135
0
LINE
8
0
10
1126.04
20
944.68
30
0
11
1123.95
21
946.76
31
0
0
ARC
8
0
10
1126.87
20
943.92
30
0
40
4.073328
50
135.795724
51
135
0
LINE
8
0
10
1158.5
20
821.21
30
0
11
1156.42
21
823.3
31
0
0
ARC
8
0
10
1161.37
20
818.42
30
0
40
6.951036
50
135.408
51
135.058287
0
LINE
8
0
10
1158.5
20
766.21
30
0
11
1156.42
21
768.3
31
0
0
ARC
8
0
10
1161.37
20
763.42
30
0
40
6.951036
50
135.408
51
135.058287
0
LINE
8
0
10
1126.04
20
729.68
30
0
11
1123.95
21
731.76
31
0
0
ARC
8
0
10
1126.87
20
728.92
30
0
40
4.073328
50
135.795724
51
135
0
LINE
8
0
10
1101.04
20
729.68
30
0
11
1098.95
21
731.76
31
0
0
ARC
8
0
10
1101.87
20
728.92
30
0
40
4.073328
50
135.795724
51
135
0
LINE
8
0
10
1107.54
20
667.68
30
0
11
1105.45
21
669.76
31
0
0
ARC
8
0
10
1108.37
20
666.92
30
0
40
4.073328
50
135.795724
51
135
0
LINE
8
0
10
1087.54
20
652.68
30
0
11
1085.45
21
654.76
31
0
0
ARC
8
0
10
1088.37
20
651.92
30
0
40
4.073328
50
135.795724
51
135
0
LINE
8
0
10
1127.54
20
652.68
30
0
11
1125.45
21
654.76
31
0
0
ARC
8
0
10
1128.37
20
651.92
30
0
40
4.073328
50
135.795724
51
135
0
LINE
8
0
10
1127.54
20
550.68
30
0
11
1125.45
21
552.76
31
0
0
ARC
8
0
10
1128.37
20
549.92
30
0
40
4.073328
50
135.795724
51
135
0
LINE
8
0
10
1107.54
20
535.68
30
0
11
1105.45
21
537.76
31
0
0
ARC
8
0
10
1108.37
20
534.92
30
0
40
4.073328
50
135.795724
51
135
0
LINE
8
0
10
1087.54
20
550.68
30
0
11
1085.45
21
552.76
31
0
0
ARC
8
0
10
1088.37
20
549.92
30
0
40
4.073328
50
135.795724
51
135
0
LINE
8
0
10
1114.33
20
38.88
30
0
11
1112.53
21
40.68
31
0
0
ARC
8
0
10
1114.37
20
38.92
30
0
40
2.546213
50
136.27303
51
135.158714
0
LINE
8
0
10
1114.33
20
18.88
30
0
11
1112.53
21
20.68
31
0
0
ARC
8
0
10
1114.37
20
18.92
30
0
40
2.546213
50
136.27303
51
135.158714
0
LINE
8
0
10
1089.33
20
18.88
30
0
11
1087.53
21
20.68
31
0
0
ARC
8
0
10
1089.37
20
18.92
30
0
40
2.546213
50
136.27303
51
135.158714
0
LINE
8
0
10
1146.37
20
14.46
30
0
11
1141.42
21
14.46
31
0
0
LINE
8
0
10
1141.42
20
14.46
30
0
11
1141.42
21
716.38
31
0
0
ARC
8
0
10
1146.37
20
716.38
30
0
40
4.95
50
120.031716
51
180
0
LINE
8
0
10
1143.89
20
720.67
30
0
11
1176.39
21
739.43
31
0
0
ARC
8
0
10
1173.87
20
743.8
30
0
40
5.044532
50
299.970288
51
0
0
LINE
8
0
10
1178.92
20
743.8
30
0
11
1178.92
21
838.03
31
0
0
ARC
8
0
10
1173.87
20
838.03
30
0
40
5.05
50
0
51
60.029712
0
LINE
8
0
10
1176.39
20
842.4
30
0
11
1143.89
21
861.17
31
0
0
ARC
8
0
10
1146.37
20
865.45
30
0
40
4.946595
50
180
51
239.910314
0
LINE
8
0
10
1141.42
20
865.45
30
0
11
1141.42
21
1636.38
31
0
0
ARC
8
0
10
1146.37
20
1636.38
30
0
40
4.95
50
120.031716
51
180
0
LINE
8
0
10
1143.89
20
1640.67
30
0
11
1176.39
21
1659.43
31
0
0
ARC
8
0
10
1173.87
20
1663.8
30
0
40
5.044532
50
299.970288
51
0
0
LINE
8
0
10
1178.92
20
1663.8
30
0
11
1178.92
21
1758.03
31
0
0
ARC
8
0
10
1173.87
20
1758.03
30
0
40
5.05
50
0
51
60.029712
0
LINE
8
0
10
1176.39
20
1762.4
30
0
11
1143.89
21
1781.17
31
0
0
ARC
8
0
10
1146.37
20
1785.45
30
0
40
4.946595
50
180
51
239.910314
0
LINE
8
0
10
1141.42
20
1785.45
30
0
11
1141.42
21
2488.1
31
0
0
ENDSEC
0
EOF
