0
SECTION
2
HEADER
9
$ACADVER
1
AC1009
0
ENDSEC
0
SECTION
2
ENTITIES
0
LINE
8
0
10
370.77
20
285.16
30
0
11
367.27
21
288.66
31
0
0
ARC
8
0
10
372.5
20
283.5
30
0
40
7.347006
50
135.38601
51
135
0
LINE
8
0
10
370.77
20
45.16
30
0
11
367.27
21
48.66
31
0
0
ARC
8
0
10
372.5
20
43.5
30
0
40
7.347006
50
135.38601
51
135
0
LINE
8
0
10
440
20
18.43
30
0
11
435.05
21
18.43
31
0
0
LINE
8
0
10
435.05
20
18.43
30
0
11
435.05
21
14
31
0
0
ARC
8
0
10
434.5
20
14
30
0
40
0.55
50
270
51
0
0
LINE
8
0
10
434.5
20
13.45
30
0
11
370.5
21
13.45
31
0
0
ARC
8
0
10
370.5
20
21.5
30
0
40
8.05
50
180
51
270
0
LINE
8
0
10
362.45
20
21.5
30
0
11
362.45
21
80.55
31
0
0
LINE
8
0
10
362.45
20
80.55
30
0
11
366.95
21
80.55
31
0
0
LINE
8
0
10
366.95
20
80.55
30
0
11
366.95
21
83.45
31
0
0
LINE
8
0
10
366.95
20
83.45
30
0
11
332.95
21
83.45
31
0
0
LINE
8
0
10
332.95
20
83.45
30
0
11
332.95
21
243.55
31
0
0
LINE
8
0
10
332.95
20
243.55
30
0
11
366.95
21
243.55
31
0
0
LINE
8
0
10
366.95
20
243.55
30
0
11
366.95
21
246.45
31
0
0
LINE
8
0
10
366.95
20
246.45
30
0
11
362.45
21
246.45
31
0
0
LINE
8
0
10
362.45
20
246.45
30
0
11
362.45
21
305.5
31
0
0
ARC
8
0
10
370.5
20
305.5
30
0
40
8.05
50
90
51
180
0
LINE
8
0
10
370.5
20
313.55
30
0
11
434.5
21
313.55
31
0
0
ARC
8
0
10
434.5
20
313
30
0
40
0.55
50
0
51
90
0
LINE
8
0
10
435.05
20
313
30
0
11
435.05
21
304
31
0
0
ARC
8
0
10
434.5
20
304
30
0
40
0.55
50
270
51
0
0
LINE
8
0
10
434.5
20
303.45
30
0
11
432.19
21
303.45
31
0
0
ARC
8
0
10
432
20
303.5
30
0
40
0.196469
50
345.256437
51
284.743563
0
LINE
8
0
10
432.05
20
303.31
30
0
11
432.05
21
23.69
31
0
0
ARC
8
0
10
432
20
23.5
30
0
40
0.196469
50
75.256437
51
14.743563
0
LINE
8
0
10
432.19
20
23.55
30
0
11
434.5
21
23.55
31
0
0
ARC
8
0
10
434.5
20
23
30
0
40
0.55
50
0
51
90
0
LINE
8
0
10
435.05
20
23
30
0
11
435.05
21
19.08
31
0
0
ENDSEC
0
EOF
