0
SECTION
2
HEADER
9
$ACADVER
1
AC1009
0
ENDSEC
0
SECTION
2
ENTITIES
0
LINE
8
0
10
681.12
20
1477.05
30
0
11
679.12
21
1480.51
31
0
0
ARC
8
0
10
679.32
20
1480.63
30
0
40
0.233238
50
119.744881
51
210.963757
0
LINE
8
0
10
679.2
20
1480.84
30
0
11
682
21
1482.45
31
0
0
LINE
8
0
10
682
20
1482.45
30
0
11
687.59
21
1479.23
31
0
0
LINE
8
0
10
687.59
20
1479.23
30
0
11
687.59
21
1472.77
31
0
0
LINE
8
0
10
687.59
20
1472.77
30
0
11
682
21
1469.55
31
0
0
LINE
8
0
10
682
20
1469.55
30
0
11
676.41
21
1472.77
31
0
0
LINE
8
0
10
676.41
20
1472.77
30
0
11
676.41
21
1479.23
31
0
0
LINE
8
0
10
676.41
20
1479.23
30
0
11
679.21
21
1480.84
31
0
0
LINE
8
0
10
714.89
20
1459.25
30
0
11
714.89
21
1463.19
31
0
0
LINE
8
0
10
714.89
20
1463.19
30
0
11
716.02
21
1463.19
31
0
0
LINE
8
0
10
716.02
20
1463.19
30
0
11
716.02
21
1452.81
31
0
0
LINE
8
0
10
716.02
20
1452.81
30
0
11
713.64
21
1452.81
31
0
0
LINE
8
0
10
713.64
20
1452.81
30
0
11
713.64
21
1463.19
31
0
0
LINE
8
0
10
713.64
20
1463.19
30
0
11
714.83
21
1463.19
31
0
0
LINE
8
0
10
714.77
20
1369.25
30
0
11
714.77
21
1373.19
31
0
0
LINE
8
0
10
714.77
20
1373.19
30
0
11
713.64
21
1373.19
31
0
0
LINE
8
0
10
713.64
20
1373.19
30
0
11
713.64
21
1362.81
31
0
0
LINE
8
0
10
713.64
20
1362.81
30
0
11
716.02
21
1362.81
31
0
0
LINE
8
0
10
716.02
20
1362.81
30
0
11
716.02
21
1373.19
31
0
0
LINE
8
0
10
716.02
20
1373.19
30
0
11
714.83
21
1373.19
31
0
0
LINE
8
0
10
714.89
20
1067.25
30
0
11
714.89
21
1071.19
31
0
0
LINE
8
0
10
714.89
20
1071.19
30
0
11
716.02
21
1071.19
31
0
0
LINE
8
0
10
716.02
20
1071.19
30
0
11
716.02
21
1060.81
31
0
0
LINE
8
0
10
716.02
20
1060.81
30
0
11
713.64
21
1060.81
31
0
0
LINE
8
0
10
713.64
20
1060.81
30
0
11
713.64
21
1071.19
31
0
0
LINE
8
0
10
713.64
20
1071.19
30
0
11
714.83
21
1071.19
31
0
0
LINE
8
0
10
714.89
20
977.25
30
0
11
714.89
21
981.19
31
0
0
LINE
8
0
10
714.89
20
981.19
30
0
11
716.02
21
981.19
31
0
0
LINE
8
0
10
716.02
20
981.19
30
0
11
716.02
21
970.81
31
0
0
LINE
8
0
10
716.02
20
970.81
30
0
11
713.64
21
970.81
31
0
0
LINE
8
0
10
713.64
20
970.81
30
0
11
713.64
21
981.19
31
0
0
LINE
8
0
10
713.64
20
981.19
30
0
11
714.83
21
981.19
31
0
0
LINE
8
0
10
681.12
20
959.05
30
0
11
679.12
21
962.51
31
0
0
ARC
8
0
10
679.32
20
962.63
30
0
40
0.233238
50
119.744881
51
210.963757
0
LINE
8
0
10
679.2
20
962.84
30
0
11
682
21
964.45
31
0
0
LINE
8
0
10
682
20
964.45
30
0
11
687.59
21
961.23
31
0
0
LINE
8
0
10
687.59
20
961.23
30
0
11
687.59
21
954.77
31
0
0
LINE
8
0
10
687.59
20
954.77
30
0
11
682
21
951.55
31
0
0
LINE
8
0
10
682
20
951.55
30
0
11
676.41
21
954.77
31
0
0
LINE
8
0
10
676.41
20
954.77
30
0
11
676.41
21
961.23
31
0
0
LINE
8
0
10
676.41
20
961.23
30
0
11
679.21
21
962.84
31
0
0
LINE
8
0
10
1239.03
20
861
30
0
11
1239.03
21
865
31
0
0
LINE
8
0
10
1239.03
20
865
30
0
11
1239.03
21
866.44
31
0
0
LINE
8
0
10
1239.03
20
866.44
30
0
11
1240.03
21
866.44
31
0
0
LINE
8
0
10
1240.03
20
866.44
30
0
11
1240.03
21
1567.56
31
0
0
LINE
8
0
10
1240.03
20
1567.56
30
0
11
1239.03
21
1567.56
31
0
0
LINE
8
0
10
1239.03
20
1567.56
30
0
11
1239.03
21
1569.06
31
0
0
LINE
8
0
10
1239.03
20
1569.06
30
0
11
1237.53
21
1569.06
31
0
0
LINE
8
0
10
1237.53
20
1569.06
30
0
11
1237.53
21
1570.06
31
0
0
LINE
8
0
10
1237.53
20
1570.06
30
0
11
981.75
21
1570.06
31
0
0
LINE
8
0
10
981.75
20
1570.06
30
0
11
981.75
21
1567.06
31
0
0
LINE
8
0
10
981.75
20
1567.06
30
0
11
969.42
21
1567.06
31
0
0
LINE
8
0
10
969.42
20
1567.06
30
0
11
969.42
21
1566.06
31
0
0
LINE
8
0
10
969.42
20
1566.06
30
0
11
968.54
21
1566.06
31
0
0
LINE
8
0
10
968.54
20
1566.06
30
0
11
968.54
21
1567.06
31
0
0
LINE
8
0
10
968.54
20
1567.06
30
0
11
887.66
21
1567.06
31
0
0
ARC
8
0
10
887.66
20
1573
30
0
40
5.94
50
180
51
270
0
LINE
8
0
10
881.72
20
1573
30
0
11
881.72
21
1632
31
0
0
ARC
8
0
10
875.66
20
1632
30
0
40
6.06
50
0
51
90
0
LINE
8
0
10
875.66
20
1638.06
30
0
11
761.6
21
1638.06
31
0
0
LINE
8
0
10
761.6
20
1638.06
30
0
11
761.6
21
1618
31
0
0
ARC
8
0
10
756.66
20
1618
30
0
40
4.94
50
270
51
0
0
LINE
8
0
10
756.66
20
1613.06
30
0
11
737.1
21
1613.06
31
0
0
LINE
8
0
10
737.1
20
1613.06
30
0
11
737.1
21
1596.5
31
0
0
ARC
8
0
10
732.16
20
1596.5
30
0
40
4.94
50
270
51
0
0
LINE
8
0
10
732.16
20
1591.56
30
0
11
711.6
21
1591.56
31
0
0
LINE
8
0
10
711.6
20
1591.56
30
0
11
711.6
21
1586.56
31
0
0
LINE
8
0
10
711.6
20
1586.56
30
0
11
687.06
21
1586.56
31
0
0
LINE
8
0
10
687.06
20
1586.56
30
0
11
687.06
21
1591.56
31
0
0
LINE
8
0
10
687.06
20
1591.56
30
0
11
671.94
21
1591.56
31
0
0
LINE
8
0
10
671.94
20
1591.56
30
0
11
671.94
21
842.44
31
0
0
LINE
8
0
10
671.94
20
842.44
30
0
11
687.06
21
842.44
31
0
0
LINE
8
0
10
687.06
20
842.44
30
0
11
687.06
21
847.44
31
0
0
LINE
8
0
10
687.06
20
847.44
30
0
11
711.6
21
847.44
31
0
0
LINE
8
0
10
711.6
20
847.44
30
0
11
711.6
21
842.44
31
0
0
LINE
8
0
10
711.6
20
842.44
30
0
11
732.16
21
842.44
31
0
0
ARC
8
0
10
732.16
20
837.5
30
0
40
4.94
50
0
51
90
0
LINE
8
0
10
737.1
20
837.5
30
0
11
737.1
21
805.94
31
0
0
LINE
8
0
10
737.1
20
805.94
30
0
11
742.16
21
805.94
31
0
0
ARC
8
0
10
742.16
20
801
30
0
40
4.94
50
0
51
90
0
LINE
8
0
10
747.1
20
801
30
0
11
747.1
21
795.94
31
0
0
LINE
8
0
10
747.1
20
795.94
30
0
11
875.66
21
795.94
31
0
0
ARC
8
0
10
875.66
20
802
30
0
40
6.06
50
270
51
0
0
LINE
8
0
10
881.72
20
802
30
0
11
881.72
21
861
31
0
0
ARC
8
0
10
887.66
20
861
30
0
40
5.94
50
90
51
180
0
LINE
8
0
10
887.66
20
866.94
30
0
11
968.54
21
866.94
31
0
0
LINE
8
0
10
968.54
20
866.94
30
0
11
968.54
21
867.94
31
0
0
LINE
8
0
10
968.54
20
867.94
30
0
11
969.42
21
867.94
31
0
0
LINE
8
0
10
969.42
20
867.94
30
0
11
969.42
21
866.94
31
0
0
LINE
8
0
10
969.42
20
866.94
30
0
11
981.75
21
866.94
31
0
0
LINE
8
0
10
981.75
20
866.94
30
0
11
981.75
21
863.94
31
0
0
LINE
8
0
10
981.75
20
863.94
30
0
11
1237.53
21
863.94
31
0
0
LINE
8
0
10
1237.53
20
863.94
30
0
11
1237.53
21
864.94
31
0
0
LINE
8
0
10
1237.53
20
864.94
30
0
11
1238.97
21
864.94
31
0
0
ENDSEC
0
EOF
