0
SECTION
2
HEADER
9
$ACADVER
1
AC1009
0
ENDSEC
0
SECTION
2
ENTITIES
0
LINE
8
0
10
606.82
20
2202.49
30
0
11
604.77
21
2202.49
31
0
0
LINE
8
0
10
603.87
20
2202.49
30
0
11
598.16
21
2202.49
31
0
0
LINE
8
0
10
598.16
20
2202.49
30
0
11
596.73
21
2201.07
31
0
0
LINE
8
0
10
596.73
20
2201.07
30
0
11
596.73
21
2199.64
31
0
0
LINE
8
0
10
596.73
20
2199.64
30
0
11
598.16
21
2198.21
31
0
0
LINE
8
0
10
598.16
20
2198.21
30
0
11
603.87
21
2198.21
31
0
0
LINE
8
0
10
603.87
20
2198.21
30
0
11
603.87
21
2192.49
31
0
0
LINE
8
0
10
603.87
20
2192.49
30
0
11
596.73
21
2192.49
31
0
0
LINE
8
0
10
595.84
20
2193.92
30
0
11
595.84
21
2201.07
31
0
0
LINE
8
0
10
595.84
20
2201.07
30
0
11
594.41
21
2202.49
31
0
0
LINE
8
0
10
594.41
20
2202.49
30
0
11
590.12
21
2192.49
31
0
0
LINE
8
0
10
590.12
20
2192.49
30
0
11
594.41
21
2192.49
31
0
0
LINE
8
0
10
594.41
20
2192.49
30
0
11
595.84
21
2193.92
31
0
0
LINE
8
0
10
590.12
20
2192.49
30
0
11
588.7
21
2193.92
31
0
0
LINE
8
0
10
588.7
20
2193.92
30
0
11
588.7
21
2201.07
31
0
0
LINE
8
0
10
588.7
20
2201.07
30
0
11
590.12
21
2202.49
31
0
0
LINE
8
0
10
590.12
20
2202.49
30
0
11
594.41
21
2202.49
31
0
0
LINE
8
0
10
587.8
20
2198.21
30
0
11
582.09
21
2198.21
31
0
0
LINE
8
0
10
582.09
20
2198.21
30
0
11
580.66
21
2199.64
31
0
0
LINE
8
0
10
580.66
20
2199.64
30
0
11
580.66
21
2201.07
31
0
0
LINE
8
0
10
580.66
20
2201.07
30
0
11
582.09
21
2202.49
31
0
0
LINE
8
0
10
582.09
20
2202.49
30
0
11
586.37
21
2202.49
31
0
0
LINE
8
0
10
586.37
20
2202.49
30
0
11
587.8
21
2201.07
31
0
0
LINE
8
0
10
587.8
20
2201.07
30
0
11
587.8
21
2193.92
31
0
0
LINE
8
0
10
587.8
20
2193.92
30
0
11
586.37
21
2192.49
31
0
0
LINE
8
0
10
586.37
20
2192.49
30
0
11
582.09
21
2192.49
31
0
0
LINE
8
0
10
606.82
20
2193.52
30
0
11
605.79
21
2192.49
31
0
0
LINE
8
0
10
605.79
20
2192.49
30
0
11
605.79
21
2202.49
31
0
0
LINE
8
0
10
700.5
20
2193.08
30
0
11
697.55
21
2193.08
31
0
0
ARC
8
0
10
727.5
20
2193.13
30
0
40
29.950042
50
180.095652
51
180
0
LINE
8
0
10
450.5
20
2193.08
30
0
11
447.55
21
2193.08
31
0
0
ARC
8
0
10
477.5
20
2193.13
30
0
40
29.950042
50
180.095652
51
180
0
LINE
8
0
10
924.66
20
2231.04
30
0
11
922.54
21
2233.16
31
0
0
LINE
8
0
10
922.54
20
2233.16
30
0
11
888.52
21
2267.18
31
0
0
LINE
8
0
10
888.52
20
2267.18
30
0
11
792.45
21
2267.18
31
0
0
LINE
8
0
10
792.45
20
2267.18
30
0
11
792.45
21
2263.18
31
0
0
LINE
8
0
10
792.45
20
2263.18
30
0
11
789.05
21
2263.18
31
0
0
LINE
8
0
10
789.05
20
2263.18
30
0
11
789.05
21
2274.21
31
0
0
LINE
8
0
10
789.05
20
2274.21
30
0
11
791.55
21
2274.21
31
0
0
LINE
8
0
10
791.55
20
2274.21
30
0
11
791.55
21
2333.21
31
0
0
LINE
8
0
10
791.55
20
2333.21
30
0
11
792.55
21
2333.21
31
0
0
LINE
8
0
10
792.55
20
2333.21
30
0
11
792.55
21
2339.31
31
0
0
LINE
8
0
10
792.55
20
2339.31
30
0
11
376.95
21
2339.31
31
0
0
LINE
8
0
10
376.95
20
2339.31
30
0
11
376.95
21
2274.21
31
0
0
LINE
8
0
10
376.95
20
2274.21
30
0
11
397.95
21
2274.21
31
0
0
LINE
8
0
10
397.95
20
2274.21
30
0
11
397.95
21
2263.13
31
0
0
ARC
8
0
10
378
20
2263.13
30
0
40
19.95
50
269.856402
51
0
0
LINE
8
0
10
377.95
20
2243.18
30
0
11
377.95
21
2208.08
31
0
0
ARC
8
0
10
378
20
2193.13
30
0
40
14.950084
50
269.808376
51
90.191624
0
LINE
8
0
10
377.95
20
2178.18
30
0
11
377.95
21
2143.08
31
0
0
ARC
8
0
10
378
20
2123.13
30
0
40
19.950063
50
0
51
90.143598
0
LINE
8
0
10
397.95
20
2123.13
30
0
11
397.95
21
2112.05
31
0
0
LINE
8
0
10
397.95
20
2112.05
30
0
11
376.95
21
2112.05
31
0
0
LINE
8
0
10
376.95
20
2112.05
30
0
11
376.95
21
2046.95
31
0
0
LINE
8
0
10
376.95
20
2046.95
30
0
11
792.55
21
2046.95
31
0
0
LINE
8
0
10
792.55
20
2046.95
30
0
11
792.55
21
2053.05
31
0
0
LINE
8
0
10
792.55
20
2053.05
30
0
11
791.55
21
2053.05
31
0
0
LINE
8
0
10
791.55
20
2053.05
30
0
11
791.55
21
2112.05
31
0
0
LINE
8
0
10
791.55
20
2112.05
30
0
11
789.05
21
2112.05
31
0
0
LINE
8
0
10
789.05
20
2112.05
30
0
11
789.05
21
2123.08
31
0
0
LINE
8
0
10
789.05
20
2123.08
30
0
11
792.45
21
2123.08
31
0
0
LINE
8
0
10
792.45
20
2123.08
30
0
11
792.45
21
2119.08
31
0
0
LINE
8
0
10
792.45
20
2119.08
30
0
11
888.52
21
2119.08
31
0
0
LINE
8
0
10
888.52
20
2119.08
30
0
11
922.55
21
2153.11
31
0
0
LINE
8
0
10
922.55
20
2153.11
30
0
11
922.55
21
2173.58
31
0
0
LINE
8
0
10
922.55
20
2173.58
30
0
11
925
21
2173.58
31
0
0
ARC
8
0
10
925
20
2174.13
30
0
40
0.55
50
270
51
0
0
LINE
8
0
10
925.55
20
2174.13
30
0
11
925.55
21
2212.13
31
0
0
ARC
8
0
10
925
20
2212.13
30
0
40
0.55
50
0
51
90
0
LINE
8
0
10
925
20
2212.68
30
0
11
922.55
21
2212.68
31
0
0
LINE
8
0
10
922.55
20
2212.68
30
0
11
922.55
21
2233.13
31
0
0
ENDSEC
0
EOF
