0
SECTION
2
HEADER
9
$ACADVER
1
AC1009
0
ENDSEC
0
SECTION
2
ENTITIES
0
LINE
8
0
10
409.23
20
2357.51
30
0
11
411.21
21
2359.7
31
0
0
ARC
8
0
10
407.6
20
2355.62
30
0
40
5.447798
50
48.497472
51
48.051892
0
LINE
8
0
10
369.78
20
2277.31
30
0
11
373.1
21
2280.98
31
0
0
LINE
8
0
10
373.1
20
2280.98
30
0
11
371.35
21
2282.56
31
0
0
LINE
8
0
10
371.35
20
2282.56
30
0
11
374.69
21
2286.27
31
0
0
LINE
8
0
10
374.69
20
2286.27
30
0
11
368.08
21
2292.23
31
0
0
LINE
8
0
10
368.08
20
2292.23
30
0
11
367.75
21
2291.86
31
0
0
LINE
8
0
10
367.75
20
2291.86
30
0
11
366.18
21
2293.26
31
0
0
LINE
8
0
10
366.18
20
2293.26
30
0
11
366.54
21
2293.66
31
0
0
LINE
8
0
10
366.54
20
2293.66
30
0
11
364.95
21
2330.75
31
0
0
LINE
8
0
10
364.95
20
2330.75
30
0
11
427.87
21
2400.63
31
0
0
LINE
8
0
10
427.87
20
2400.63
30
0
11
464.93
21
2402.93
31
0
0
LINE
8
0
10
464.93
20
2402.93
30
0
11
465.28
21
2403.32
31
0
0
LINE
8
0
10
465.28
20
2403.32
30
0
11
466.84
21
2401.92
31
0
0
LINE
8
0
10
466.84
20
2401.92
30
0
11
466.51
21
2401.55
31
0
0
LINE
8
0
10
466.51
20
2401.55
30
0
11
473.12
21
2395.59
31
0
0
LINE
8
0
10
473.12
20
2395.59
30
0
11
476.47
21
2399.31
31
0
0
LINE
8
0
10
476.47
20
2399.31
30
0
11
480.26
21
2395.89
31
0
0
LINE
8
0
10
480.26
20
2395.89
30
0
11
476.91
21
2392.18
31
0
0
LINE
8
0
10
476.91
20
2392.18
30
0
11
483.53
21
2386.22
31
0
0
LINE
8
0
10
483.53
20
2386.22
30
0
11
483.86
21
2386.59
31
0
0
LINE
8
0
10
483.86
20
2386.59
30
0
11
485.42
21
2385.19
31
0
0
LINE
8
0
10
485.42
20
2385.19
30
0
11
485.07
21
2384.8
31
0
0
LINE
8
0
10
485.07
20
2384.8
30
0
11
486.66
21
2347.7
31
0
0
LINE
8
0
10
486.66
20
2347.7
30
0
11
465.2
21
2323.87
31
0
0
ARC
8
0
10
455.16
20
2312.8
30
0
40
14.944782
50
47.793363
51
228.19786
0
LINE
8
0
10
445.19
20
2301.65
30
0
11
423.73
21
2277.82
31
0
0
LINE
8
0
10
423.73
20
2277.82
30
0
11
386.68
21
2275.52
31
0
0
LINE
8
0
10
386.68
20
2275.52
30
0
11
386.32
21
2275.13
31
0
0
LINE
8
0
10
386.32
20
2275.13
30
0
11
384.76
21
2276.53
31
0
0
LINE
8
0
10
384.76
20
2276.53
30
0
11
385.1
21
2276.91
31
0
0
LINE
8
0
10
385.1
20
2276.91
30
0
11
378.48
21
2282.86
31
0
0
LINE
8
0
10
378.48
20
2282.86
30
0
11
375.14
21
2279.15
31
0
0
LINE
8
0
10
375.14
20
2279.15
30
0
11
373.62
21
2280.52
31
0
0
ENDSEC
0
EOF
