0
SECTION
2
HEADER
9
$ACADVER
1
AC1009
0
ENDSEC
0
SECTION
2
ENTITIES
0
LINE
8
0
10
105
20
693.85
30
0
11
101
21
693.85
31
0
0
LINE
8
0
10
101
20
693.85
30
0
11
96.05
21
693.85
31
0
0
LINE
8
0
10
96.05
20
693.85
30
0
11
96.05
21
691.4
31
0
0
ARC
8
0
10
95.5
20
691.4
30
0
40
0.55
50
270
51
0
0
LINE
8
0
10
95.5
20
690.85
30
0
11
86.5
21
690.85
31
0
0
ARC
8
0
10
86.5
20
691.4
30
0
40
0.55
50
180
51
270
0
LINE
8
0
10
85.95
20
691.4
30
0
11
85.95
21
693.85
31
0
0
LINE
8
0
10
85.95
20
693.85
30
0
11
75.95
21
693.85
31
0
0
ARC
8
0
10
51
20
693.9
30
0
40
24.95005
50
359.885179
51
90.114821
0
LINE
8
0
10
50.95
20
718.85
30
0
11
50.95
21
763.95
31
0
0
LINE
8
0
10
50.95
20
763.95
30
0
11
61
21
763.95
31
0
0
ARC
8
0
10
61
20
773.9
30
0
40
9.95
50
270
51
360
0
LINE
8
0
10
70.95
20
773.9
30
0
11
70.95
21
835.4
31
0
0
ARC
8
0
10
61
20
835.4
30
0
40
9.95
50
0
51
90
0
LINE
8
0
10
61
20
845.35
30
0
11
50.95
21
845.35
31
0
0
LINE
8
0
10
50.95
20
845.35
30
0
11
50.95
21
890.45
31
0
0
LINE
8
0
10
50.95
20
890.45
30
0
11
61
21
890.45
31
0
0
ARC
8
0
10
61
20
900.4
30
0
40
9.95
50
270
51
360
0
LINE
8
0
10
70.95
20
900.4
30
0
11
70.95
21
961.9
31
0
0
ARC
8
0
10
61
20
961.9
30
0
40
9.95
50
0
51
90
0
LINE
8
0
10
61
20
971.85
30
0
11
50.95
21
971.85
31
0
0
LINE
8
0
10
50.95
20
971.85
30
0
11
50.95
21
976.85
31
0
0
LINE
8
0
10
50.95
20
976.85
30
0
11
49
21
976.85
31
0
0
ARC
8
0
10
49
20
977.9
30
0
40
1.05
50
180
51
270
0
LINE
8
0
10
47.95
20
977.9
30
0
11
47.95
21
985.9
31
0
0
ARC
8
0
10
49
20
985.9
30
0
40
1.05
50
90
51
180
0
LINE
8
0
10
49
20
986.95
30
0
11
50.95
21
986.95
31
0
0
LINE
8
0
10
50.95
20
986.95
30
0
11
50.95
21
1016.95
31
0
0
ARC
8
0
10
51
20
1041.9
30
0
40
24.95005
50
269.885179
51
0.114821
0
LINE
8
0
10
75.95
20
1041.95
30
0
11
101.02
21
1041.95
31
0
0
LINE
8
0
10
101.02
20
1041.95
30
0
11
106.05
21
1036.92
31
0
0
LINE
8
0
10
106.05
20
1036.92
30
0
11
106.05
21
698.88
31
0
0
LINE
8
0
10
106.05
20
698.88
30
0
11
101.04
21
693.86
31
0
0
ENDSEC
0
EOF
