0
SECTION
2
HEADER
9
$ACADVER
1
AC1009
0
ENDSEC
0
SECTION
2
ENTITIES
0
LINE
8
0
10
915.37
20
637.08
30
0
11
913.29
21
639.16
31
0
0
ARC
8
0
10
917
20
635.52
30
0
40
5.197471
50
135.545658
51
135
0
LINE
8
0
10
965.37
20
637.08
30
0
11
963.29
21
639.16
31
0
0
ARC
8
0
10
967
20
635.52
30
0
40
5.197471
50
135.545658
51
135
0
LINE
8
0
10
965.37
20
769.08
30
0
11
963.29
21
771.16
31
0
0
ARC
8
0
10
967
20
767.52
30
0
40
5.197471
50
135.545658
51
135
0
LINE
8
0
10
915.37
20
769.08
30
0
11
913.29
21
771.16
31
0
0
ARC
8
0
10
917
20
767.52
30
0
40
5.197471
50
135.545658
51
135
0
LINE
8
0
10
943.18
20
574.92
30
0
11
943.18
21
579.87
31
0
0
LINE
8
0
10
943.18
20
579.87
30
0
11
943.9
21
579.87
31
0
0
ARC
8
0
10
943.9
20
580.92
30
0
40
1.05
50
270
51
0
0
LINE
8
0
10
944.95
20
580.92
30
0
11
944.95
21
582.97
31
0
0
LINE
8
0
10
944.95
20
582.97
30
0
11
979
21
582.97
31
0
0
ARC
8
0
10
979
20
591.02
30
0
40
8.05
50
270
51
0
0
LINE
8
0
10
987.05
20
591.02
30
0
11
987.05
21
663.55
31
0
0
ARC
8
0
10
979
20
663.55
30
0
40
8.05
50
0
51
86.441412
0
ARC
8
0
10
980
20
679.52
30
0
40
7.945747
50
180
51
266.392179
0
LINE
8
0
10
972.05
20
679.52
30
0
11
972.05
21
723.55
31
0
0
ARC
8
0
10
980
20
723.55
30
0
40
7.95
50
93.603289
51
180
0
ARC
8
0
10
979
20
739.52
30
0
40
8.045552
50
273.563008
51
0
0
LINE
8
0
10
987.05
20
739.52
30
0
11
987.05
21
812.02
31
0
0
ARC
8
0
10
979
20
812.02
30
0
40
8.05
50
0
51
90
0
LINE
8
0
10
979
20
820.07
30
0
11
944.95
21
820.07
31
0
0
LINE
8
0
10
944.95
20
820.07
30
0
11
944.95
21
822.12
31
0
0
ARC
8
0
10
943.9
20
822.12
30
0
40
1.05
50
0
51
90
0
LINE
8
0
10
943.9
20
823.17
30
0
11
940.1
21
823.17
31
0
0
ARC
8
0
10
940.1
20
822.12
30
0
40
1.05
50
90
51
180
0
LINE
8
0
10
939.05
20
822.12
30
0
11
939.05
21
820.07
31
0
0
LINE
8
0
10
939.05
20
820.07
30
0
11
905
21
820.07
31
0
0
ARC
8
0
10
905
20
812.02
30
0
40
8.05
50
90
51
180
0
LINE
8
0
10
896.95
20
812.02
30
0
11
896.95
21
739.49
31
0
0
ARC
8
0
10
905
20
739.49
30
0
40
8.05
50
180
51
266.436992
0
ARC
8
0
10
904
20
723.52
30
0
40
7.955727
50
0
51
86.396711
0
LINE
8
0
10
911.95
20
723.52
30
0
11
911.95
21
679.52
31
0
0
ARC
8
0
10
904
20
679.52
30
0
40
7.95
50
273.607821
51
0
0
ARC
8
0
10
905
20
663.55
30
0
40
8.055532
50
93.558588
51
180
0
LINE
8
0
10
896.95
20
663.55
30
0
11
896.95
21
591.02
31
0
0
ARC
8
0
10
905
20
591.02
30
0
40
8.05
50
180
51
270
0
LINE
8
0
10
905
20
582.97
30
0
11
939.05
21
582.97
31
0
0
LINE
8
0
10
939.05
20
582.97
30
0
11
939.05
21
580.92
31
0
0
ARC
8
0
10
940.1
20
580.92
30
0
40
1.05
50
180
51
270
0
LINE
8
0
10
940.1
20
579.87
30
0
11
942.48
21
579.87
31
0
0
ENDSEC
0
EOF
