0
SECTION
2
HEADER
9
$ACADVER
1
AC1009
0
ENDSEC
0
SECTION
2
ENTITIES
0
LINE
8
0
10
1310.97
20
264.7
30
0
11
1310.97
21
267.65
31
0
0
ARC
8
0
10
1311.02
20
257.7
30
0
40
9.950126
50
90.287916
51
90
0
LINE
8
0
10
1310.97
20
341.7
30
0
11
1310.97
21
344.65
31
0
0
ARC
8
0
10
1311.02
20
334.7
30
0
40
9.950126
50
90.287916
51
90
0
LINE
8
0
10
1333.05
20
211.7
30
0
11
1333.05
21
216.65
31
0
0
LINE
8
0
10
1333.05
20
216.65
30
0
11
1330.97
21
216.65
31
0
0
LINE
8
0
10
1330.97
20
216.65
30
0
11
1330.97
21
221.65
31
0
0
LINE
8
0
10
1330.97
20
221.65
30
0
11
1327.97
21
221.65
31
0
0
LINE
8
0
10
1327.97
20
221.65
30
0
11
1327.97
21
222.15
31
0
0
LINE
8
0
10
1327.97
20
222.15
30
0
11
1291
21
222.15
31
0
0
LINE
8
0
10
1291
20
222.15
30
0
11
1267
21
246.65
31
0
0
LINE
8
0
10
1267
20
246.65
30
0
11
1264
21
246.65
31
0
0
LINE
8
0
10
1264
20
246.65
30
0
11
1262.97
21
247.68
31
0
0
LINE
8
0
10
1262.97
20
247.68
30
0
11
1262.97
21
250.72
31
0
0
LINE
8
0
10
1262.97
20
250.72
30
0
11
1264
21
251.75
31
0
0
LINE
8
0
10
1264
20
251.75
30
0
11
1266.47
21
251.75
31
0
0
LINE
8
0
10
1266.47
20
251.75
30
0
11
1266.47
21
254.75
31
0
0
LINE
8
0
10
1266.47
20
254.75
30
0
11
1266.97
21
254.75
31
0
0
LINE
8
0
10
1266.97
20
254.75
30
0
11
1266.97
21
281.25
31
0
0
ARC
8
0
10
1267.02
20
296.2
30
0
40
14.950084
50
269.808376
51
90.191624
0
LINE
8
0
10
1266.97
20
311.15
30
0
11
1266.97
21
342.65
31
0
0
LINE
8
0
10
1266.97
20
342.65
30
0
11
1266.47
21
342.65
31
0
0
LINE
8
0
10
1266.47
20
342.65
30
0
11
1266.47
21
345.75
31
0
0
LINE
8
0
10
1266.47
20
345.75
30
0
11
1267
21
345.75
31
0
0
LINE
8
0
10
1267
20
345.75
30
0
11
1291
21
370.25
31
0
0
LINE
8
0
10
1291
20
370.25
30
0
11
1327.97
21
370.25
31
0
0
LINE
8
0
10
1327.97
20
370.25
30
0
11
1327.97
21
370.75
31
0
0
LINE
8
0
10
1327.97
20
370.75
30
0
11
1330.97
21
370.75
31
0
0
LINE
8
0
10
1330.97
20
370.75
30
0
11
1330.97
21
375.75
31
0
0
LINE
8
0
10
1330.97
20
375.75
30
0
11
1336.07
21
375.75
31
0
0
LINE
8
0
10
1336.07
20
375.75
30
0
11
1336.07
21
216.65
31
0
0
LINE
8
0
10
1336.07
20
216.65
30
0
11
1333.75
21
216.65
31
0
0
ENDSEC
0
EOF
