0
SECTION
2
HEADER
9
$ACADVER
1
AC1009
0
ENDSEC
0
SECTION
2
ENTITIES
0
LINE
8
0
10
767.95
20
321.42
30
0
11
767.95
21
323.47
31
0
0
LINE
8
0
10
767.95
20
324.36
30
0
11
767.95
21
330.07
31
0
0
LINE
8
0
10
767.95
20
330.07
30
0
11
766.52
21
331.5
31
0
0
LINE
8
0
10
766.52
20
331.5
30
0
11
765.09
21
331.5
31
0
0
LINE
8
0
10
765.09
20
331.5
30
0
11
763.66
21
330.07
31
0
0
LINE
8
0
10
763.66
20
330.07
30
0
11
763.66
21
324.36
31
0
0
LINE
8
0
10
763.66
20
324.36
30
0
11
757.95
21
324.36
31
0
0
LINE
8
0
10
757.95
20
324.36
30
0
11
757.95
21
331.5
31
0
0
LINE
8
0
10
757.95
20
338.11
30
0
11
767.95
21
333.82
31
0
0
LINE
8
0
10
767.95
20
333.82
30
0
11
766.52
21
332.4
31
0
0
LINE
8
0
10
766.52
20
332.4
30
0
11
759.38
21
332.4
31
0
0
LINE
8
0
10
759.38
20
332.4
30
0
11
757.95
21
333.82
31
0
0
LINE
8
0
10
757.95
20
333.82
30
0
11
757.95
21
338.11
31
0
0
LINE
8
0
10
757.95
20
338.11
30
0
11
759.38
21
339.54
31
0
0
LINE
8
0
10
759.38
20
339.54
30
0
11
766.52
21
339.54
31
0
0
LINE
8
0
10
766.52
20
339.54
30
0
11
767.95
21
338.11
31
0
0
LINE
8
0
10
767.95
20
338.11
30
0
11
767.95
21
333.82
31
0
0
LINE
8
0
10
767.95
20
340.43
30
0
11
767.95
21
346.15
31
0
0
LINE
8
0
10
767.95
20
346.15
30
0
11
766.52
21
347.57
31
0
0
LINE
8
0
10
766.52
20
347.57
30
0
11
765.09
21
347.57
31
0
0
LINE
8
0
10
765.09
20
347.57
30
0
11
763.66
21
346.15
31
0
0
LINE
8
0
10
763.66
20
346.15
30
0
11
763.66
21
340.43
31
0
0
LINE
8
0
10
763.66
20
340.43
30
0
11
757.95
21
340.43
31
0
0
LINE
8
0
10
757.95
20
340.43
30
0
11
757.95
21
347.57
31
0
0
LINE
8
0
10
758.97
20
321.42
30
0
11
757.95
21
322.44
31
0
0
LINE
8
0
10
757.95
20
322.44
30
0
11
767.95
21
322.44
31
0
0
LINE
8
0
10
765.46
20
223.75
30
0
11
765.46
21
226.7
31
0
0
ARC
8
0
10
765.51
20
196.75
30
0
40
29.950042
50
90.095652
51
90
0
LINE
8
0
10
765.46
20
473.75
30
0
11
765.46
21
476.7
31
0
0
ARC
8
0
10
765.51
20
446.75
30
0
40
29.950042
50
90.095652
51
90
0
LINE
8
0
10
842.67
20
55.09
30
0
11
840.54
21
52.96
31
0
0
LINE
8
0
10
840.54
20
52.96
30
0
11
806.53
21
18.95
31
0
0
LINE
8
0
10
806.53
20
18.95
30
0
11
785.56
21
18.95
31
0
0
LINE
8
0
10
785.56
20
18.95
30
0
11
785.56
21
15.5
31
0
0
ARC
8
0
10
785.01
20
15.5
30
0
40
0.55
50
270
51
0
0
LINE
8
0
10
785.01
20
14.95
30
0
11
746.01
21
14.95
31
0
0
ARC
8
0
10
746.01
20
15.5
30
0
40
0.55
50
180
51
270
0
LINE
8
0
10
745.46
20
15.5
30
0
11
745.46
21
18.95
31
0
0
LINE
8
0
10
745.46
20
18.95
30
0
11
724.49
21
18.95
31
0
0
LINE
8
0
10
724.49
20
18.95
30
0
11
690.46
21
52.98
31
0
0
LINE
8
0
10
690.46
20
52.98
30
0
11
690.46
21
148.05
31
0
0
LINE
8
0
10
690.46
20
148.05
30
0
11
695.46
21
148.05
31
0
0
LINE
8
0
10
695.46
20
148.05
30
0
11
695.46
21
151.45
31
0
0
LINE
8
0
10
695.46
20
151.45
30
0
11
684.45
21
151.45
31
0
0
LINE
8
0
10
684.45
20
151.45
30
0
11
684.45
21
148.95
31
0
0
LINE
8
0
10
684.45
20
148.95
30
0
11
625.45
21
148.95
31
0
0
LINE
8
0
10
625.45
20
148.95
30
0
11
625.45
21
147.95
31
0
0
LINE
8
0
10
625.45
20
147.95
30
0
11
619.35
21
147.95
31
0
0
LINE
8
0
10
619.35
20
147.95
30
0
11
619.35
21
540.55
31
0
0
LINE
8
0
10
619.35
20
540.55
30
0
11
625.45
21
540.55
31
0
0
LINE
8
0
10
625.45
20
540.55
30
0
11
625.45
21
539.55
31
0
0
LINE
8
0
10
625.45
20
539.55
30
0
11
684.45
21
539.55
31
0
0
LINE
8
0
10
684.45
20
539.55
30
0
11
684.45
21
537.05
31
0
0
LINE
8
0
10
684.45
20
537.05
30
0
11
695.46
21
537.05
31
0
0
LINE
8
0
10
695.46
20
537.05
30
0
11
695.46
21
540.45
31
0
0
LINE
8
0
10
695.46
20
540.45
30
0
11
690.46
21
540.45
31
0
0
LINE
8
0
10
690.46
20
540.45
30
0
11
690.46
21
590.52
31
0
0
LINE
8
0
10
690.46
20
590.52
30
0
11
724.49
21
624.55
31
0
0
LINE
8
0
10
724.49
20
624.55
30
0
11
745.46
21
624.55
31
0
0
LINE
8
0
10
745.46
20
624.55
30
0
11
745.46
21
628
31
0
0
ARC
8
0
10
746.01
20
628
30
0
40
0.55
50
90
51
180
0
LINE
8
0
10
746.01
20
628.55
30
0
11
785.01
21
628.55
31
0
0
ARC
8
0
10
785.01
20
628
30
0
40
0.55
50
0
51
90
0
LINE
8
0
10
785.56
20
628
30
0
11
785.56
21
624.55
31
0
0
LINE
8
0
10
785.56
20
624.55
30
0
11
806.53
21
624.55
31
0
0
LINE
8
0
10
806.53
20
624.55
30
0
11
840.56
21
590.52
31
0
0
LINE
8
0
10
840.56
20
590.52
30
0
11
840.56
21
540.45
31
0
0
LINE
8
0
10
840.56
20
540.45
30
0
11
835.56
21
540.45
31
0
0
LINE
8
0
10
835.56
20
540.45
30
0
11
835.56
21
537.05
31
0
0
LINE
8
0
10
835.56
20
537.05
30
0
11
846.57
21
537.05
31
0
0
LINE
8
0
10
846.57
20
537.05
30
0
11
846.57
21
539.55
31
0
0
LINE
8
0
10
846.57
20
539.55
30
0
11
905.57
21
539.55
31
0
0
LINE
8
0
10
905.57
20
539.55
30
0
11
905.57
21
540.55
31
0
0
LINE
8
0
10
905.57
20
540.55
30
0
11
911.67
21
540.55
31
0
0
LINE
8
0
10
911.67
20
540.55
30
0
11
911.67
21
147.95
31
0
0
LINE
8
0
10
911.67
20
147.95
30
0
11
905.57
21
147.95
31
0
0
LINE
8
0
10
905.57
20
147.95
30
0
11
905.57
21
148.95
31
0
0
LINE
8
0
10
905.57
20
148.95
30
0
11
846.57
21
148.95
31
0
0
LINE
8
0
10
846.57
20
148.95
30
0
11
846.57
21
151.45
31
0
0
LINE
8
0
10
846.57
20
151.45
30
0
11
835.56
21
151.45
31
0
0
LINE
8
0
10
835.56
20
151.45
30
0
11
835.56
21
148.05
31
0
0
LINE
8
0
10
835.56
20
148.05
30
0
11
840.56
21
148.05
31
0
0
LINE
8
0
10
840.56
20
148.05
30
0
11
840.56
21
53
31
0
0
ENDSEC
0
EOF
