0
SECTION
2
HEADER
9
$ACADVER
1
AC1009
0
ENDSEC
0
SECTION
2
ENTITIES
0
CIRCLE
8
0
10
912.04
20
250.33
30
0
40
2.05061
0
CIRCLE
8
0
10
877.2
20
230.68
30
0
40
2.05061
0
CIRCLE
8
0
10
912.04
20
529.54
30
0
40
2.043551
0
CIRCLE
8
0
10
877.2
20
549.19
30
0
40
2.05061
0
LINE
8
0
10
691.22
20
467.6
30
0
11
695.99
21
468.93
31
0
0
LINE
8
0
10
695.99
20
468.93
30
0
11
696.85
21
465.86
31
0
0
ARC
8
0
10
697.86
20
466.14
30
0
40
1.048094
50
195.494849
51
285.494849
0
LINE
8
0
10
698.14
20
465.13
30
0
11
700.02
21
465.65
31
0
0
LINE
8
0
10
700.02
20
465.65
30
0
11
704.04
21
451.26
31
0
0
LINE
8
0
10
704.04
20
451.26
30
0
11
704.04
21
328.62
31
0
0
LINE
8
0
10
704.04
20
328.62
30
0
11
700.02
21
314.23
31
0
0
LINE
8
0
10
700.02
20
314.23
30
0
11
698.14
21
314.75
31
0
0
ARC
8
0
10
697.86
20
313.74
30
0
40
1.048094
50
74.505151
51
164.505151
0
LINE
8
0
10
696.85
20
314.02
30
0
11
694.7
21
306.32
31
0
0
ARC
8
0
10
695.71
20
306.03
30
0
40
1.050809
50
163.979708
51
254.505151
0
LINE
8
0
10
695.43
20
305.02
30
0
11
697.31
21
304.5
31
0
0
LINE
8
0
10
697.31
20
304.5
30
0
11
689
21
274.69
31
0
0
ARC
8
0
10
692.9
20
273.6
30
0
40
4.049457
50
164.385004
51
254.385004
0
LINE
8
0
10
691.81
20
269.7
30
0
11
873.13
21
219.15
31
0
0
LINE
8
0
10
873.13
20
219.15
30
0
11
924.29
21
248
31
0
0
LINE
8
0
10
924.29
20
248
30
0
11
925.76
21
253.27
31
0
0
LINE
8
0
10
925.76
20
253.27
30
0
11
960.44
21
243.6
31
0
0
LINE
8
0
10
960.44
20
243.6
30
0
11
984.14
21
328.61
31
0
0
LINE
8
0
10
984.14
20
328.61
30
0
11
984.14
21
451.27
31
0
0
LINE
8
0
10
984.14
20
451.27
30
0
11
960.44
21
536.28
31
0
0
LINE
8
0
10
960.44
20
536.28
30
0
11
925.76
21
526.61
31
0
0
LINE
8
0
10
925.76
20
526.61
30
0
11
924.29
21
531.88
31
0
0
LINE
8
0
10
924.29
20
531.88
30
0
11
873.13
21
560.73
31
0
0
LINE
8
0
10
873.13
20
560.73
30
0
11
691.81
21
510.18
31
0
0
ARC
8
0
10
692.9
20
506.28
30
0
40
4.049457
50
105.614996
51
195.614996
0
LINE
8
0
10
689
20
505.19
30
0
11
697.31
21
475.38
31
0
0
LINE
8
0
10
697.31
20
475.38
30
0
11
695.43
21
474.86
31
0
0
ARC
8
0
10
695.71
20
473.84
30
0
40
1.057733
50
105.350136
51
195.494849
0
LINE
8
0
10
694.7
20
473.56
30
0
11
695.86
21
469.42
31
0
0
ENDSEC
0
EOF
