0
SECTION
2
HEADER
9
$ACADVER
1
AC1009
0
ENDSEC
0
SECTION
2
ENTITIES
0
LINE
8
0
10
93
20
1709.25
30
0
11
89
21
1709.25
31
0
0
LINE
8
0
10
89
20
1709.25
30
0
11
84.05
21
1709.25
31
0
0
LINE
8
0
10
84.05
20
1709.25
30
0
11
84.05
21
1706.8
31
0
0
ARC
8
0
10
83.5
20
1706.8
30
0
40
0.55
50
270
51
0
0
LINE
8
0
10
83.5
20
1706.25
30
0
11
74.5
21
1706.25
31
0
0
ARC
8
0
10
74.5
20
1706.8
30
0
40
0.55
50
180
51
270
0
LINE
8
0
10
73.95
20
1706.8
30
0
11
73.95
21
1709.25
31
0
0
LINE
8
0
10
73.95
20
1709.25
30
0
11
63.95
21
1709.25
31
0
0
ARC
8
0
10
39
20
1709.3
30
0
40
24.95005
50
359.885179
51
90.114821
0
LINE
8
0
10
38.95
20
1734.25
30
0
11
38.95
21
1779.35
31
0
0
LINE
8
0
10
38.95
20
1779.35
30
0
11
49
21
1779.35
31
0
0
ARC
8
0
10
49
20
1789.3
30
0
40
9.95
50
270
51
0
0
LINE
8
0
10
58.95
20
1789.3
30
0
11
58.95
21
1850.8
31
0
0
ARC
8
0
10
49
20
1850.8
30
0
40
9.95
50
0
51
90
0
LINE
8
0
10
49
20
1860.75
30
0
11
38.95
21
1860.75
31
0
0
LINE
8
0
10
38.95
20
1860.75
30
0
11
38.95
21
1905.85
31
0
0
LINE
8
0
10
38.95
20
1905.85
30
0
11
49
21
1905.85
31
0
0
ARC
8
0
10
49
20
1915.8
30
0
40
9.95
50
270
51
0
0
LINE
8
0
10
58.95
20
1915.8
30
0
11
58.95
21
1977.3
31
0
0
ARC
8
0
10
49
20
1977.3
30
0
40
9.95
50
0
51
90
0
LINE
8
0
10
49
20
1987.25
30
0
11
38.95
21
1987.25
31
0
0
LINE
8
0
10
38.95
20
1987.25
30
0
11
38.95
21
1992.25
31
0
0
LINE
8
0
10
38.95
20
1992.25
30
0
11
37
21
1992.25
31
0
0
ARC
8
0
10
37
20
1993.3
30
0
40
1.05
50
180
51
270
0
LINE
8
0
10
35.95
20
1993.3
30
0
11
35.95
21
2001.3
31
0
0
ARC
8
0
10
37
20
2001.3
30
0
40
1.05
50
90
51
180
0
LINE
8
0
10
37
20
2002.35
30
0
11
38.95
21
2002.35
31
0
0
LINE
8
0
10
38.95
20
2002.35
30
0
11
38.95
21
2032.35
31
0
0
ARC
8
0
10
39
20
2057.3
30
0
40
24.95005
50
269.885179
51
0.114821
0
LINE
8
0
10
63.95
20
2057.35
30
0
11
89.02
21
2057.35
31
0
0
LINE
8
0
10
89.02
20
2057.35
30
0
11
94.05
21
2052.32
31
0
0
LINE
8
0
10
94.05
20
2052.32
30
0
11
94.05
21
1714.28
31
0
0
LINE
8
0
10
94.05
20
1714.28
30
0
11
89.04
21
1709.26
31
0
0
ENDSEC
0
EOF
