0
SECTION
2
HEADER
9
$ACADVER
1
AC1009
0
ENDSEC
0
SECTION
2
ENTITIES
0
LINE
8
0
10
1045.62
20
356.67
30
0
11
1045.62
21
370.53
31
0
0
LINE
8
0
10
1045.62
20
370.53
30
0
11
1033.62
21
377.46
31
0
0
LINE
8
0
10
1033.62
20
377.46
30
0
11
1021.62
21
370.53
31
0
0
LINE
8
0
10
1021.62
20
370.53
30
0
11
1021.62
21
356.67
31
0
0
LINE
8
0
10
1021.62
20
356.67
30
0
11
1033.62
21
349.74
31
0
0
LINE
8
0
10
1033.62
20
349.74
30
0
11
1045.62
21
356.67
31
0
0
LINE
8
0
10
985.62
20
356.67
30
0
11
985.62
21
370.53
31
0
0
LINE
8
0
10
985.62
20
370.53
30
0
11
973.62
21
377.46
31
0
0
LINE
8
0
10
973.62
20
377.46
30
0
11
961.62
21
370.53
31
0
0
LINE
8
0
10
961.62
20
370.53
30
0
11
961.62
21
356.67
31
0
0
LINE
8
0
10
961.62
20
356.67
30
0
11
973.62
21
349.74
31
0
0
LINE
8
0
10
973.62
20
349.74
30
0
11
985.62
21
356.67
31
0
0
LINE
8
0
10
855.5
20
328.51
30
0
11
847
21
333.41
31
0
0
LINE
8
0
10
847
20
333.41
30
0
11
838.5
21
328.51
31
0
0
LINE
8
0
10
838.5
20
328.51
30
0
11
838.5
21
318.69
31
0
0
LINE
8
0
10
838.5
20
318.69
30
0
11
847
21
313.79
31
0
0
LINE
8
0
10
847
20
313.79
30
0
11
855.5
21
318.69
31
0
0
LINE
8
0
10
855.5
20
318.69
30
0
11
855.5
21
328.51
31
0
0
LINE
8
0
10
973.62
20
524.74
30
0
11
985.62
21
531.67
31
0
0
LINE
8
0
10
985.62
20
531.67
30
0
11
985.62
21
545.53
31
0
0
LINE
8
0
10
985.62
20
545.53
30
0
11
973.62
21
552.46
31
0
0
LINE
8
0
10
973.62
20
552.46
30
0
11
961.62
21
545.53
31
0
0
LINE
8
0
10
961.62
20
545.53
30
0
11
961.62
21
531.67
31
0
0
LINE
8
0
10
961.62
20
531.67
30
0
11
973.62
21
524.74
31
0
0
LINE
8
0
10
1021.62
20
531.67
30
0
11
1033.62
21
524.74
31
0
0
LINE
8
0
10
1033.62
20
524.74
30
0
11
1045.62
21
531.67
31
0
0
LINE
8
0
10
1045.62
20
531.67
30
0
11
1045.62
21
545.53
31
0
0
LINE
8
0
10
1045.62
20
545.53
30
0
11
1033.62
21
552.46
31
0
0
LINE
8
0
10
1033.62
20
552.46
30
0
11
1021.62
21
545.53
31
0
0
LINE
8
0
10
1021.62
20
545.53
30
0
11
1021.62
21
531.67
31
0
0
LINE
8
0
10
991.12
20
777.24
30
0
11
1003.12
21
784.17
31
0
0
LINE
8
0
10
1003.12
20
784.17
30
0
11
1003.12
21
798.03
31
0
0
LINE
8
0
10
1003.12
20
798.03
30
0
11
991.12
21
804.96
31
0
0
LINE
8
0
10
991.12
20
804.96
30
0
11
979.12
21
798.03
31
0
0
LINE
8
0
10
979.12
20
798.03
30
0
11
979.12
21
784.17
31
0
0
LINE
8
0
10
979.12
20
784.17
30
0
11
991.12
21
777.24
31
0
0
LINE
8
0
10
847
20
1096.79
30
0
11
855.5
21
1101.69
31
0
0
LINE
8
0
10
855.5
20
1101.69
30
0
11
855.5
21
1111.51
31
0
0
LINE
8
0
10
855.5
20
1111.51
30
0
11
847
21
1116.41
31
0
0
LINE
8
0
10
847
20
1116.41
30
0
11
838.5
21
1111.51
31
0
0
LINE
8
0
10
838.5
20
1111.51
30
0
11
838.5
21
1101.69
31
0
0
LINE
8
0
10
838.5
20
1101.69
30
0
11
847
21
1096.79
31
0
0
LINE
8
0
10
847
20
1280.79
30
0
11
855.5
21
1285.69
31
0
0
LINE
8
0
10
855.5
20
1285.69
30
0
11
855.5
21
1295.51
31
0
0
LINE
8
0
10
855.5
20
1295.51
30
0
11
847
21
1300.41
31
0
0
LINE
8
0
10
847
20
1300.41
30
0
11
838.5
21
1295.51
31
0
0
LINE
8
0
10
838.5
20
1295.51
30
0
11
838.5
21
1285.69
31
0
0
LINE
8
0
10
838.5
20
1285.69
30
0
11
847
21
1280.79
31
0
0
LINE
8
0
10
991.12
20
1592.24
30
0
11
1003.12
21
1599.17
31
0
0
LINE
8
0
10
1003.12
20
1599.17
30
0
11
1003.12
21
1613.03
31
0
0
LINE
8
0
10
1003.12
20
1613.03
30
0
11
991.12
21
1619.96
31
0
0
LINE
8
0
10
991.12
20
1619.96
30
0
11
979.12
21
1613.03
31
0
0
LINE
8
0
10
979.12
20
1613.03
30
0
11
979.12
21
1599.17
31
0
0
LINE
8
0
10
979.12
20
1599.17
30
0
11
991.12
21
1592.24
31
0
0
LINE
8
0
10
1033.62
20
1844.74
30
0
11
1045.62
21
1851.67
31
0
0
LINE
8
0
10
1045.62
20
1851.67
30
0
11
1045.62
21
1865.53
31
0
0
LINE
8
0
10
1045.62
20
1865.53
30
0
11
1033.62
21
1872.46
31
0
0
LINE
8
0
10
1033.62
20
1872.46
30
0
11
1021.62
21
1865.53
31
0
0
LINE
8
0
10
1021.62
20
1865.53
30
0
11
1021.62
21
1851.67
31
0
0
LINE
8
0
10
1021.62
20
1851.67
30
0
11
1033.62
21
1844.74
31
0
0
LINE
8
0
10
985.62
20
1851.67
30
0
11
985.62
21
1865.53
31
0
0
LINE
8
0
10
985.62
20
1865.53
30
0
11
973.62
21
1872.46
31
0
0
LINE
8
0
10
973.62
20
1872.46
30
0
11
961.62
21
1865.53
31
0
0
LINE
8
0
10
961.62
20
1865.53
30
0
11
961.62
21
1851.67
31
0
0
LINE
8
0
10
961.62
20
1851.67
30
0
11
973.62
21
1844.74
31
0
0
LINE
8
0
10
973.62
20
1844.74
30
0
11
985.62
21
1851.67
31
0
0
LINE
8
0
10
973.62
20
2019.74
30
0
11
985.62
21
2026.67
31
0
0
LINE
8
0
10
985.62
20
2026.67
30
0
11
985.62
21
2040.53
31
0
0
LINE
8
0
10
985.62
20
2040.53
30
0
11
973.62
21
2047.46
31
0
0
LINE
8
0
10
973.62
20
2047.46
30
0
11
961.62
21
2040.53
31
0
0
LINE
8
0
10
961.62
20
2040.53
30
0
11
961.62
21
2026.67
31
0
0
LINE
8
0
10
961.62
20
2026.67
30
0
11
973.62
21
2019.74
31
0
0
LINE
8
0
10
1021.62
20
2026.67
30
0
11
1033.62
21
2019.74
31
0
0
LINE
8
0
10
1033.62
20
2019.74
30
0
11
1045.62
21
2026.67
31
0
0
LINE
8
0
10
1045.62
20
2026.67
30
0
11
1045.62
21
2040.53
31
0
0
LINE
8
0
10
1045.62
20
2040.53
30
0
11
1033.62
21
2047.46
31
0
0
LINE
8
0
10
1033.62
20
2047.46
30
0
11
1021.62
21
2040.53
31
0
0
LINE
8
0
10
1021.62
20
2040.53
30
0
11
1021.62
21
2026.67
31
0
0
LINE
8
0
10
855.5
20
2068.69
30
0
11
855.5
21
2078.51
31
0
0
LINE
8
0
10
855.5
20
2078.51
30
0
11
847
21
2083.41
31
0
0
LINE
8
0
10
847
20
2083.41
30
0
11
838.5
21
2078.51
31
0
0
LINE
8
0
10
838.5
20
2078.51
30
0
11
838.5
21
2068.69
31
0
0
LINE
8
0
10
838.5
20
2068.69
30
0
11
847
21
2063.79
31
0
0
LINE
8
0
10
847
20
2063.79
30
0
11
855.5
21
2068.69
31
0
0
LINE
8
0
10
844.67
20
2075.86
30
0
11
842.58
21
2077.95
31
0
0
ARC
8
0
10
847
20
2073.6
30
0
40
6.201524
50
135.457311
51
135
0
LINE
8
0
10
892.14
20
2101.39
30
0
11
890.05
21
2103.48
31
0
0
ARC
8
0
10
895
20
2098.6
30
0
40
6.951036
50
135.408
51
135
0
LINE
8
0
10
970.17
20
2127.6
30
0
11
970.17
21
2130.55
31
0
0
LINE
8
0
10
970.17
20
2130.55
30
0
11
1012.07
21
2130.55
31
0
0
LINE
8
0
10
1012.07
20
2130.55
30
0
11
1012.07
21
2124.65
31
0
0
LINE
8
0
10
1012.07
20
2124.65
30
0
11
970.17
21
2124.65
31
0
0
LINE
8
0
10
970.17
20
2124.65
30
0
11
970.17
21
2127.6
31
0
0
LINE
8
0
10
969.03
20
2038.13
30
0
11
966.94
21
2040.21
31
0
0
ARC
8
0
10
973.62
20
2033.6
30
0
40
9.397579
50
135.301781
51
134.956888
0
LINE
8
0
10
1029.03
20
2038.13
30
0
11
1026.94
21
2040.21
31
0
0
ARC
8
0
10
1033.62
20
2033.6
30
0
40
9.397579
50
135.301781
51
134.956888
0
LINE
8
0
10
1107.97
20
2184.31
30
0
11
1105.88
21
2186.39
31
0
0
ARC
8
0
10
1112.25
20
2180.1
30
0
40
8.952151
50
135.362054
51
135
0
LINE
8
0
10
847.48
20
1975.05
30
0
11
845.39
21
1977.14
31
0
0
ARC
8
0
10
849
20
1973.6
30
0
40
5.056056
50
135.56092
51
135
0
LINE
8
0
10
969.03
20
1863.13
30
0
11
966.94
21
1865.21
31
0
0
ARC
8
0
10
973.62
20
1858.6
30
0
40
9.397579
50
135.301781
51
134.956888
0
LINE
8
0
10
1029.03
20
1863.13
30
0
11
1026.94
21
1865.21
31
0
0
ARC
8
0
10
1033.62
20
1858.6
30
0
40
9.397579
50
135.301781
51
134.956888
0
LINE
8
0
10
970.17
20
1753.1
30
0
11
970.17
21
1756.05
31
0
0
LINE
8
0
10
970.17
20
1756.05
30
0
11
1012.07
21
1756.05
31
0
0
LINE
8
0
10
1012.07
20
1756.05
30
0
11
1012.07
21
1750.15
31
0
0
LINE
8
0
10
1012.07
20
1750.15
30
0
11
970.17
21
1750.15
31
0
0
LINE
8
0
10
970.17
20
1750.15
30
0
11
970.17
21
1753.1
31
0
0
LINE
8
0
10
892.14
20
1651.39
30
0
11
890.05
21
1653.48
31
0
0
ARC
8
0
10
895
20
1648.6
30
0
40
6.951036
50
135.408
51
135
0
LINE
8
0
10
986.53
20
1610.63
30
0
11
984.44
21
1612.71
31
0
0
ARC
8
0
10
991.12
20
1606.1
30
0
40
9.397579
50
135.301781
51
134.956888
0
LINE
8
0
10
844.67
20
1292.86
30
0
11
842.58
21
1294.95
31
0
0
ARC
8
0
10
847
20
1290.6
30
0
40
6.201524
50
135.457311
51
135
0
LINE
8
0
10
892.14
20
1201.39
30
0
11
890.05
21
1203.48
31
0
0
ARC
8
0
10
895
20
1198.6
30
0
40
6.951036
50
135.408
51
135
0
LINE
8
0
10
970.17
20
1164.1
30
0
11
970.17
21
1167.05
31
0
0
LINE
8
0
10
970.17
20
1167.05
30
0
11
1012.07
21
1167.05
31
0
0
LINE
8
0
10
1012.07
20
1167.05
30
0
11
1012.07
21
1161.15
31
0
0
LINE
8
0
10
1012.07
20
1161.15
30
0
11
970.17
21
1161.15
31
0
0
LINE
8
0
10
970.17
20
1161.15
30
0
11
970.17
21
1164.1
31
0
0
LINE
8
0
10
844.67
20
1108.86
30
0
11
842.58
21
1110.95
31
0
0
ARC
8
0
10
847
20
1106.6
30
0
40
6.201524
50
135.457311
51
135
0
LINE
8
0
10
986.53
20
795.63
30
0
11
984.44
21
797.71
31
0
0
ARC
8
0
10
991.12
20
791.1
30
0
40
9.397579
50
135.301781
51
134.956888
0
LINE
8
0
10
892.14
20
751.39
30
0
11
890.05
21
753.48
31
0
0
ARC
8
0
10
895
20
748.6
30
0
40
6.951036
50
135.408
51
135
0
LINE
8
0
10
970.17
20
601.1
30
0
11
970.17
21
604.05
31
0
0
LINE
8
0
10
970.17
20
604.05
30
0
11
1012.07
21
604.05
31
0
0
LINE
8
0
10
1012.07
20
604.05
30
0
11
1012.07
21
598.15
31
0
0
LINE
8
0
10
1012.07
20
598.15
30
0
11
970.17
21
598.15
31
0
0
LINE
8
0
10
970.17
20
598.15
30
0
11
970.17
21
601.1
31
0
0
LINE
8
0
10
969.03
20
543.13
30
0
11
966.94
21
545.21
31
0
0
ARC
8
0
10
973.62
20
538.6
30
0
40
9.397579
50
135.301781
51
134.956888
0
LINE
8
0
10
1029.03
20
543.13
30
0
11
1026.94
21
545.21
31
0
0
ARC
8
0
10
1033.62
20
538.6
30
0
40
9.397579
50
135.301781
51
134.956888
0
LINE
8
0
10
847.48
20
425.05
30
0
11
845.39
21
427.14
31
0
0
ARC
8
0
10
849
20
423.6
30
0
40
5.056056
50
135.56092
51
135
0
LINE
8
0
10
844.67
20
325.86
30
0
11
842.58
21
327.95
31
0
0
ARC
8
0
10
847
20
323.6
30
0
40
6.201524
50
135.457311
51
135
0
LINE
8
0
10
892.14
20
301.39
30
0
11
890.05
21
303.48
31
0
0
ARC
8
0
10
895
20
298.6
30
0
40
6.951036
50
135.408
51
135
0
LINE
8
0
10
969.03
20
368.13
30
0
11
966.94
21
370.21
31
0
0
ARC
8
0
10
973.62
20
363.6
30
0
40
9.397579
50
135.301781
51
134.956888
0
LINE
8
0
10
1029.03
20
368.13
30
0
11
1026.94
21
370.21
31
0
0
ARC
8
0
10
1033.62
20
363.6
30
0
40
9.397579
50
135.301781
51
134.956888
0
LINE
8
0
10
970.17
20
270.6
30
0
11
970.17
21
273.55
31
0
0
LINE
8
0
10
970.17
20
273.55
30
0
11
1012.07
21
273.55
31
0
0
LINE
8
0
10
1012.07
20
273.55
30
0
11
1012.07
21
267.65
31
0
0
LINE
8
0
10
1012.07
20
267.65
30
0
11
970.17
21
267.65
31
0
0
LINE
8
0
10
970.17
20
267.65
30
0
11
970.17
21
270.6
31
0
0
LINE
8
0
10
1107.97
20
221.31
30
0
11
1105.88
21
223.39
31
0
0
ARC
8
0
10
1112.25
20
217.1
30
0
40
8.952151
50
135.362054
51
135
0
LINE
8
0
10
1155.25
20
188.05
30
0
11
1152.25
21
188.05
31
0
0
LINE
8
0
10
1152.25
20
188.05
30
0
11
829.95
21
188.05
31
0
0
LINE
8
0
10
829.95
20
188.05
30
0
11
829.95
21
311.6
31
0
0
LINE
8
0
10
829.95
20
311.6
30
0
11
835.15
21
311.6
31
0
0
LINE
8
0
10
835.15
20
311.6
30
0
11
835.15
21
316.7
31
0
0
LINE
8
0
10
835.15
20
316.7
30
0
11
829.95
21
316.7
31
0
0
LINE
8
0
10
829.95
20
316.7
30
0
11
829.95
21
2210.15
31
0
0
LINE
8
0
10
829.95
20
2210.15
30
0
11
1152.3
21
2210.15
31
0
0
LINE
8
0
10
1152.3
20
2210.15
30
0
11
1152.3
21
316.7
31
0
0
LINE
8
0
10
1152.3
20
316.7
30
0
11
1147.1
21
316.7
31
0
0
LINE
8
0
10
1147.1
20
316.7
30
0
11
1147.1
21
311.6
31
0
0
LINE
8
0
10
1147.1
20
311.6
30
0
11
1152.3
21
311.6
31
0
0
LINE
8
0
10
1152.3
20
311.6
30
0
11
1152.3
21
188.1
31
0
0
ENDSEC
0
EOF
