0
SECTION
2
HEADER
9
$ACADVER
1
AC1009
0
ENDSEC
0
SECTION
2
ENTITIES
0
LINE
8
0
10
1253.68
20
2183.76
30
0
11
1255.73
21
2183.76
31
0
0
LINE
8
0
10
1256.63
20
2183.76
30
0
11
1262.34
21
2183.76
31
0
0
LINE
8
0
10
1262.34
20
2183.76
30
0
11
1263.77
21
2185.19
31
0
0
LINE
8
0
10
1263.77
20
2185.19
30
0
11
1263.77
21
2186.62
31
0
0
LINE
8
0
10
1263.77
20
2186.62
30
0
11
1262.34
21
2188.05
31
0
0
LINE
8
0
10
1262.34
20
2188.05
30
0
11
1256.63
21
2188.05
31
0
0
LINE
8
0
10
1256.63
20
2188.05
30
0
11
1256.63
21
2193.76
31
0
0
LINE
8
0
10
1256.63
20
2193.76
30
0
11
1263.77
21
2193.76
31
0
0
LINE
8
0
10
1264.66
20
2192.33
30
0
11
1264.66
21
2185.19
31
0
0
LINE
8
0
10
1264.66
20
2185.19
30
0
11
1266.09
21
2183.76
31
0
0
LINE
8
0
10
1266.09
20
2183.76
30
0
11
1270.38
21
2193.76
31
0
0
LINE
8
0
10
1270.38
20
2193.76
30
0
11
1266.09
21
2193.76
31
0
0
LINE
8
0
10
1266.09
20
2193.76
30
0
11
1264.66
21
2192.33
31
0
0
LINE
8
0
10
1270.38
20
2193.76
30
0
11
1271.8
21
2192.33
31
0
0
LINE
8
0
10
1271.8
20
2192.33
30
0
11
1271.8
21
2185.19
31
0
0
LINE
8
0
10
1271.8
20
2185.19
30
0
11
1270.38
21
2183.76
31
0
0
LINE
8
0
10
1270.38
20
2183.76
30
0
11
1266.09
21
2183.76
31
0
0
LINE
8
0
10
1272.7
20
2188.05
30
0
11
1278.41
21
2188.05
31
0
0
LINE
8
0
10
1278.41
20
2188.05
30
0
11
1279.84
21
2186.62
31
0
0
LINE
8
0
10
1279.84
20
2186.62
30
0
11
1279.84
21
2185.19
31
0
0
LINE
8
0
10
1279.84
20
2185.19
30
0
11
1278.41
21
2183.76
31
0
0
LINE
8
0
10
1278.41
20
2183.76
30
0
11
1274.13
21
2183.76
31
0
0
LINE
8
0
10
1274.13
20
2183.76
30
0
11
1272.7
21
2185.19
31
0
0
LINE
8
0
10
1272.7
20
2185.19
30
0
11
1272.7
21
2192.33
31
0
0
LINE
8
0
10
1272.7
20
2192.33
30
0
11
1274.13
21
2193.76
31
0
0
LINE
8
0
10
1274.13
20
2193.76
30
0
11
1278.41
21
2193.76
31
0
0
LINE
8
0
10
1253.68
20
2192.74
30
0
11
1254.71
21
2193.76
31
0
0
LINE
8
0
10
1254.71
20
2193.76
30
0
11
1254.71
21
2183.76
31
0
0
LINE
8
0
10
1160
20
2193.18
30
0
11
1162.95
21
2193.18
31
0
0
ARC
8
0
10
1133
20
2193.13
30
0
40
29.950042
50
0.095652
51
0
0
LINE
8
0
10
1410
20
2193.18
30
0
11
1412.95
21
2193.18
31
0
0
ARC
8
0
10
1383
20
2193.13
30
0
40
29.950042
50
0.095652
51
0
0
LINE
8
0
10
935.84
20
2155.21
30
0
11
937.96
21
2153.09
31
0
0
LINE
8
0
10
937.96
20
2153.09
30
0
11
971.98
21
2119.08
31
0
0
LINE
8
0
10
971.98
20
2119.08
30
0
11
1068.05
21
2119.08
31
0
0
LINE
8
0
10
1068.05
20
2119.08
30
0
11
1068.05
21
2123.08
31
0
0
LINE
8
0
10
1068.05
20
2123.08
30
0
11
1071.45
21
2123.08
31
0
0
LINE
8
0
10
1071.45
20
2123.08
30
0
11
1071.45
21
2112.05
31
0
0
LINE
8
0
10
1071.45
20
2112.05
30
0
11
1068.95
21
2112.05
31
0
0
LINE
8
0
10
1068.95
20
2112.05
30
0
11
1068.95
21
2053.05
31
0
0
LINE
8
0
10
1068.95
20
2053.05
30
0
11
1067.95
21
2053.05
31
0
0
LINE
8
0
10
1067.95
20
2053.05
30
0
11
1067.95
21
2046.95
31
0
0
LINE
8
0
10
1067.95
20
2046.95
30
0
11
1483.55
21
2046.95
31
0
0
LINE
8
0
10
1483.55
20
2046.95
30
0
11
1483.55
21
2112.05
31
0
0
LINE
8
0
10
1483.55
20
2112.05
30
0
11
1462.55
21
2112.05
31
0
0
LINE
8
0
10
1462.55
20
2112.05
30
0
11
1462.55
21
2123.13
31
0
0
ARC
8
0
10
1482.5
20
2123.13
30
0
40
19.95
50
89.856402
51
180
0
LINE
8
0
10
1482.55
20
2143.08
30
0
11
1482.55
21
2178.18
31
0
0
ARC
8
0
10
1482.5
20
2193.13
30
0
40
14.950084
50
89.808376
51
270.191624
0
LINE
8
0
10
1482.55
20
2208.08
30
0
11
1482.55
21
2243.18
31
0
0
ARC
8
0
10
1482.5
20
2263.13
30
0
40
19.950063
50
180
51
270.143598
0
LINE
8
0
10
1462.55
20
2263.13
30
0
11
1462.55
21
2274.21
31
0
0
LINE
8
0
10
1462.55
20
2274.21
30
0
11
1483.55
21
2274.21
31
0
0
LINE
8
0
10
1483.55
20
2274.21
30
0
11
1483.55
21
2339.31
31
0
0
LINE
8
0
10
1483.55
20
2339.31
30
0
11
1067.95
21
2339.31
31
0
0
LINE
8
0
10
1067.95
20
2339.31
30
0
11
1067.95
21
2333.21
31
0
0
LINE
8
0
10
1067.95
20
2333.21
30
0
11
1068.95
21
2333.21
31
0
0
LINE
8
0
10
1068.95
20
2333.21
30
0
11
1068.95
21
2274.21
31
0
0
LINE
8
0
10
1068.95
20
2274.21
30
0
11
1071.45
21
2274.21
31
0
0
LINE
8
0
10
1071.45
20
2274.21
30
0
11
1071.45
21
2263.18
31
0
0
LINE
8
0
10
1071.45
20
2263.18
30
0
11
1068.05
21
2263.18
31
0
0
LINE
8
0
10
1068.05
20
2263.18
30
0
11
1068.05
21
2267.18
31
0
0
LINE
8
0
10
1068.05
20
2267.18
30
0
11
971.98
21
2267.18
31
0
0
LINE
8
0
10
971.98
20
2267.18
30
0
11
937.95
21
2233.15
31
0
0
LINE
8
0
10
937.95
20
2233.15
30
0
11
937.95
21
2212.68
31
0
0
LINE
8
0
10
937.95
20
2212.68
30
0
11
935.5
21
2212.68
31
0
0
ARC
8
0
10
935.5
20
2212.13
30
0
40
0.55
50
90
51
180
0
LINE
8
0
10
934.95
20
2212.13
30
0
11
934.95
21
2174.13
31
0
0
ARC
8
0
10
935.5
20
2174.13
30
0
40
0.55
50
180
51
270
0
LINE
8
0
10
935.5
20
2173.58
30
0
11
937.95
21
2173.58
31
0
0
LINE
8
0
10
937.95
20
2173.58
30
0
11
937.95
21
2153.13
31
0
0
ENDSEC
0
EOF
