0
SECTION
2
HEADER
9
$ACADVER
1
AC1009
0
ENDSEC
0
SECTION
2
ENTITIES
0
LINE
8
0
10
424.2
20
1019.54
30
0
11
425.39
21
1018.35
31
0
0
ARC
8
0
10
424.16
20
1019.5
30
0
40
1.683865
50
316.925184
51
314.76027
0
LINE
8
0
10
424.2
20
928.54
30
0
11
425.39
21
927.35
31
0
0
ARC
8
0
10
424.16
20
928.5
30
0
40
1.683865
50
316.925184
51
314.76027
0
LINE
8
0
10
525.2
20
928.54
30
0
11
526.39
21
927.35
31
0
0
ARC
8
0
10
525.16
20
928.5
30
0
40
1.683865
50
316.925184
51
314.76027
0
LINE
8
0
10
619.11
20
884.66
30
0
11
616.31
21
883.05
31
0
0
LINE
8
0
10
616.31
20
883.05
30
0
11
610.72
21
886.27
31
0
0
LINE
8
0
10
610.72
20
886.27
30
0
11
610.72
21
892.73
31
0
0
LINE
8
0
10
610.72
20
892.73
30
0
11
616.31
21
895.95
31
0
0
LINE
8
0
10
616.31
20
895.95
30
0
11
621.9
21
892.73
31
0
0
LINE
8
0
10
621.9
20
892.73
30
0
11
621.9
21
886.27
31
0
0
LINE
8
0
10
621.9
20
886.27
30
0
11
619.11
21
884.66
31
0
0
LINE
8
0
10
619.89
20
855.01
30
0
11
623.38
21
851.51
31
0
0
ARC
8
0
10
616.31
20
858.5
30
0
40
9.942082
50
315.326004
51
315
0
LINE
8
0
10
525.2
20
1019.54
30
0
11
526.39
21
1018.35
31
0
0
ARC
8
0
10
525.16
20
1019.5
30
0
40
1.683865
50
316.925184
51
314.76027
0
LINE
8
0
10
619.11
20
1524.66
30
0
11
616.31
21
1523.05
31
0
0
LINE
8
0
10
616.31
20
1523.05
30
0
11
610.72
21
1526.27
31
0
0
LINE
8
0
10
610.72
20
1526.27
30
0
11
610.72
21
1532.73
31
0
0
LINE
8
0
10
610.72
20
1532.73
30
0
11
616.31
21
1535.95
31
0
0
LINE
8
0
10
616.31
20
1535.95
30
0
11
621.9
21
1532.73
31
0
0
LINE
8
0
10
621.9
20
1532.73
30
0
11
621.9
21
1526.27
31
0
0
LINE
8
0
10
621.9
20
1526.27
30
0
11
619.11
21
1524.66
31
0
0
LINE
8
0
10
78.63
20
1525.71
30
0
11
81.46
21
1528.54
31
0
0
LINE
8
0
10
81.46
20
1528.54
30
0
11
111.48
21
1558.56
31
0
0
LINE
8
0
10
111.48
20
1558.56
30
0
11
441.66
21
1558.56
31
0
0
ARC
8
0
10
441.66
20
1564.5
30
0
40
5.94
50
270
51
0
0
LINE
8
0
10
447.6
20
1564.5
30
0
11
447.6
21
1624.5
31
0
0
ARC
8
0
10
453.66
20
1624.5
30
0
40
6.06
50
90
51
180
0
LINE
8
0
10
453.66
20
1630.56
30
0
11
587.16
21
1630.56
31
0
0
ARC
8
0
10
587.16
20
1624.5
30
0
40
6.06
50
0
51
90
0
LINE
8
0
10
593.22
20
1624.5
30
0
11
593.22
21
1584.44
31
0
0
LINE
8
0
10
593.22
20
1584.44
30
0
11
590.22
21
1584.44
31
0
0
LINE
8
0
10
590.22
20
1584.44
30
0
11
590.22
21
1583.56
31
0
0
LINE
8
0
10
590.22
20
1583.56
30
0
11
600.22
21
1583.56
31
0
0
LINE
8
0
10
600.22
20
1583.56
30
0
11
600.22
21
1583.06
31
0
0
LINE
8
0
10
600.22
20
1583.06
30
0
11
630.1
21
1583.06
31
0
0
LINE
8
0
10
630.1
20
1583.06
30
0
11
630.1
21
1583.56
31
0
0
LINE
8
0
10
630.1
20
1583.56
30
0
11
675.53
21
1583.56
31
0
0
LINE
8
0
10
675.53
20
1583.56
30
0
11
675.53
21
833.44
31
0
0
LINE
8
0
10
675.53
20
833.44
30
0
11
630.1
21
833.44
31
0
0
LINE
8
0
10
630.1
20
833.44
30
0
11
630.1
21
833.94
31
0
0
LINE
8
0
10
630.1
20
833.94
30
0
11
600.22
21
833.94
31
0
0
LINE
8
0
10
600.22
20
833.94
30
0
11
600.22
21
833.44
31
0
0
LINE
8
0
10
600.22
20
833.44
30
0
11
590.22
21
833.44
31
0
0
LINE
8
0
10
590.22
20
833.44
30
0
11
590.22
21
832.56
31
0
0
LINE
8
0
10
590.22
20
832.56
30
0
11
593.22
21
832.56
31
0
0
LINE
8
0
10
593.22
20
832.56
30
0
11
593.22
21
792.5
31
0
0
ARC
8
0
10
587.16
20
792.5
30
0
40
6.06
50
270
51
0
0
LINE
8
0
10
587.16
20
786.44
30
0
11
453.66
21
786.44
31
0
0
ARC
8
0
10
453.66
20
792.5
30
0
40
6.06
50
180
51
270
0
LINE
8
0
10
447.6
20
792.5
30
0
11
447.6
21
852.5
31
0
0
ARC
8
0
10
441.66
20
852.5
30
0
40
5.94
50
0
51
90
0
LINE
8
0
10
441.66
20
858.44
30
0
11
111.48
21
858.44
31
0
0
LINE
8
0
10
111.48
20
858.44
30
0
11
81.44
21
888.48
31
0
0
LINE
8
0
10
81.44
20
888.48
30
0
11
81.44
21
1528.5
31
0
0
ENDSEC
0
EOF
