0
SECTION
2
HEADER
9
$ACADVER
1
AC1009
0
ENDSEC
0
SECTION
2
ENTITIES
0
LINE
8
0
10
911.17
20
1855.25
30
0
11
921.17
21
1849.54
31
0
0
LINE
8
0
10
921.17
20
1849.54
30
0
11
921.17
21
1856.68
31
0
0
LINE
8
0
10
915.45
20
1855.25
30
0
11
915.45
21
1850.97
31
0
0
LINE
8
0
10
915.45
20
1848.64
30
0
11
915.45
21
1842.93
31
0
0
LINE
8
0
10
915.45
20
1842.93
30
0
11
914.02
21
1841.5
31
0
0
LINE
8
0
10
914.02
20
1841.5
30
0
11
912.59
21
1841.5
31
0
0
LINE
8
0
10
912.59
20
1841.5
30
0
11
911.17
21
1842.93
31
0
0
LINE
8
0
10
911.17
20
1842.93
30
0
11
911.17
21
1847.22
31
0
0
LINE
8
0
10
911.17
20
1847.22
30
0
11
912.59
21
1848.64
31
0
0
LINE
8
0
10
912.59
20
1848.64
30
0
11
919.74
21
1848.64
31
0
0
LINE
8
0
10
919.74
20
1848.64
30
0
11
921.17
21
1847.22
31
0
0
LINE
8
0
10
921.17
20
1847.22
30
0
11
921.17
21
1842.93
31
0
0
LINE
8
0
10
921.17
20
1834.89
30
0
11
911.17
21
1839.18
31
0
0
LINE
8
0
10
911.17
20
1839.18
30
0
11
912.59
21
1840.61
31
0
0
LINE
8
0
10
912.59
20
1840.61
30
0
11
919.74
21
1840.61
31
0
0
LINE
8
0
10
919.74
20
1840.61
30
0
11
921.17
21
1839.18
31
0
0
LINE
8
0
10
921.17
20
1839.18
30
0
11
921.17
21
1834.89
31
0
0
LINE
8
0
10
921.17
20
1834.89
30
0
11
919.74
21
1833.47
31
0
0
LINE
8
0
10
919.74
20
1833.47
30
0
11
912.59
21
1833.47
31
0
0
LINE
8
0
10
912.59
20
1833.47
30
0
11
911.17
21
1834.89
31
0
0
LINE
8
0
10
911.17
20
1834.89
30
0
11
911.17
21
1839.18
31
0
0
LINE
8
0
10
911.17
20
1832.57
30
0
11
911.17
21
1830.52
31
0
0
LINE
8
0
10
911.17
20
1831.55
30
0
11
921.17
21
1831.55
31
0
0
LINE
8
0
10
921.17
20
1831.55
30
0
11
920.14
21
1832.57
31
0
0
LINE
8
0
10
912.59
20
1857.57
30
0
11
911.17
21
1859
31
0
0
LINE
8
0
10
911.17
20
1859
30
0
11
911.17
21
1864.72
31
0
0
LINE
8
0
10
911.17
20
1864.72
30
0
11
914.02
21
1864.72
31
0
0
LINE
8
0
10
914.02
20
1864.72
30
0
11
915.45
21
1863.29
31
0
0
LINE
8
0
10
915.45
20
1863.29
30
0
11
915.45
21
1859
31
0
0
LINE
8
0
10
915.45
20
1859
30
0
11
916.88
21
1857.57
31
0
0
LINE
8
0
10
916.88
20
1857.57
30
0
11
919.74
21
1857.57
31
0
0
LINE
8
0
10
919.74
20
1857.57
30
0
11
921.17
21
1859
31
0
0
LINE
8
0
10
921.17
20
1859
30
0
11
921.17
21
1863.29
31
0
0
LINE
8
0
10
921.17
20
1863.29
30
0
11
919.74
21
1864.72
31
0
0
ENDSEC
0
EOF
