0
SECTION
2
HEADER
9
$ACADVER
1
AC1009
0
ENDSEC
0
SECTION
2
ENTITIES
0
LINE
8
0
10
687.67
20
1364.92
30
0
11
689.75
21
1362.84
31
0
0
ARC
8
0
10
684.52
20
1368
30
0
40
7.347006
50
315.38601
51
315
0
LINE
8
0
10
687.67
20
1254.92
30
0
11
689.75
21
1252.84
31
0
0
ARC
8
0
10
684.52
20
1258
30
0
40
7.347006
50
315.38601
51
315
0
LINE
8
0
10
611.02
20
1383.91
30
0
11
615.97
21
1383.91
31
0
0
LINE
8
0
10
615.97
20
1383.91
30
0
11
615.97
21
1387.5
31
0
0
ARC
8
0
10
616.52
20
1387.5
30
0
40
0.55
50
90
51
180
0
LINE
8
0
10
616.52
20
1388.05
30
0
11
686.52
21
1388.05
31
0
0
ARC
8
0
10
686.52
20
1380
30
0
40
8.05
50
0
51
90
0
LINE
8
0
10
694.57
20
1380
30
0
11
694.57
21
1340.95
31
0
0
LINE
8
0
10
694.57
20
1340.95
30
0
11
690.07
21
1340.95
31
0
0
LINE
8
0
10
690.07
20
1340.95
30
0
11
690.07
21
1338.05
31
0
0
LINE
8
0
10
690.07
20
1338.05
30
0
11
730.07
21
1338.05
31
0
0
LINE
8
0
10
730.07
20
1338.05
30
0
11
730.07
21
1287.95
31
0
0
LINE
8
0
10
730.07
20
1287.95
30
0
11
690.07
21
1287.95
31
0
0
LINE
8
0
10
690.07
20
1287.95
30
0
11
690.07
21
1285.05
31
0
0
LINE
8
0
10
690.07
20
1285.05
30
0
11
694.57
21
1285.05
31
0
0
LINE
8
0
10
694.57
20
1285.05
30
0
11
694.57
21
1246
31
0
0
ARC
8
0
10
686.52
20
1246
30
0
40
8.05
50
270
51
0
0
LINE
8
0
10
686.52
20
1237.95
30
0
11
616.52
21
1237.95
31
0
0
ARC
8
0
10
616.52
20
1238.5
30
0
40
0.55
50
180
51
270
0
LINE
8
0
10
615.97
20
1238.5
30
0
11
615.97
21
1247.5
31
0
0
ARC
8
0
10
616.52
20
1247.5
30
0
40
0.55
50
90
51
180
0
LINE
8
0
10
616.52
20
1248.05
30
0
11
618.83
21
1248.05
31
0
0
ARC
8
0
10
619.02
20
1248
30
0
40
0.196469
50
165.256437
51
104.743563
0
LINE
8
0
10
618.97
20
1248.19
30
0
11
618.97
21
1377.81
31
0
0
ARC
8
0
10
619.02
20
1378
30
0
40
0.196469
50
255.256437
51
194.743563
0
LINE
8
0
10
618.83
20
1377.95
30
0
11
616.52
21
1377.95
31
0
0
ARC
8
0
10
616.52
20
1378.5
30
0
40
0.55
50
180
51
270
0
LINE
8
0
10
615.97
20
1378.5
30
0
11
615.97
21
1383.21
31
0
0
ENDSEC
0
EOF
