0
SECTION
2
HEADER
9
$ACADVER
1
AC1009
0
ENDSEC
0
SECTION
2
ENTITIES
0
LINE
8
0
10
307.11
20
385.21
30
0
11
307.77
21
386.36
31
0
0
LINE
8
0
10
307.77
20
386.36
30
0
11
310.46
21
386.36
31
0
0
ARC
8
0
10
310.99
20
380.79
30
0
40
5.595159
50
84.564522
51
95.435478
0
LINE
8
0
10
311.52
20
386.36
30
0
11
314.21
21
386.36
31
0
0
LINE
8
0
10
314.21
20
386.36
30
0
11
315.55
21
384.03
31
0
0
ARC
8
0
10
310.99
20
380.79
30
0
40
5.593854
50
24.596427
51
35.394796
0
LINE
8
0
10
316.08
20
383.12
30
0
11
317.43
21
380.79
31
0
0
LINE
8
0
10
317.43
20
380.79
30
0
11
316.08
21
378.46
31
0
0
ARC
8
0
10
310.99
20
380.79
30
0
40
5.597946
50
324.605204
51
335.403573
0
LINE
8
0
10
315.55
20
377.55
30
0
11
314.21
21
375.21
31
0
0
LINE
8
0
10
314.21
20
375.21
30
0
11
311.52
21
375.21
31
0
0
ARC
8
0
10
310.99
20
380.79
30
0
40
5.605114
50
264.574205
51
275.425795
0
LINE
8
0
10
310.46
20
375.21
30
0
11
307.77
21
375.21
31
0
0
LINE
8
0
10
307.77
20
375.21
30
0
11
306.42
21
377.55
31
0
0
ARC
8
0
10
310.99
20
380.79
30
0
40
5.602009
50
204.596427
51
215.335556
0
LINE
8
0
10
305.9
20
378.46
30
0
11
304.55
21
380.79
31
0
0
LINE
8
0
10
304.55
20
380.79
30
0
11
305.9
21
383.12
31
0
0
ARC
8
0
10
310.99
20
380.79
30
0
40
5.597946
50
144.664444
51
155.403573
0
LINE
8
0
10
306.42
20
384.03
30
0
11
307.11
21
385.21
31
0
0
LINE
8
0
10
307.11
20
435.21
30
0
11
307.77
21
436.36
31
0
0
LINE
8
0
10
307.77
20
436.36
30
0
11
310.46
21
436.36
31
0
0
ARC
8
0
10
310.99
20
430.79
30
0
40
5.595159
50
84.564522
51
95.435478
0
LINE
8
0
10
311.52
20
436.36
30
0
11
314.21
21
436.36
31
0
0
LINE
8
0
10
314.21
20
436.36
30
0
11
315.55
21
434.03
31
0
0
ARC
8
0
10
310.99
20
430.79
30
0
40
5.593854
50
24.596427
51
35.394796
0
LINE
8
0
10
316.08
20
433.12
30
0
11
317.43
21
430.79
31
0
0
LINE
8
0
10
317.43
20
430.79
30
0
11
316.08
21
428.46
31
0
0
ARC
8
0
10
310.99
20
430.79
30
0
40
5.597946
50
324.605204
51
335.403573
0
LINE
8
0
10
315.55
20
427.55
30
0
11
314.21
21
425.21
31
0
0
LINE
8
0
10
314.21
20
425.21
30
0
11
311.52
21
425.21
31
0
0
ARC
8
0
10
310.99
20
430.79
30
0
40
5.605114
50
264.574205
51
275.425795
0
LINE
8
0
10
310.46
20
425.21
30
0
11
307.77
21
425.21
31
0
0
LINE
8
0
10
307.77
20
425.21
30
0
11
306.42
21
427.55
31
0
0
ARC
8
0
10
310.99
20
430.79
30
0
40
5.602009
50
204.596427
51
215.335556
0
LINE
8
0
10
305.9
20
428.46
30
0
11
304.55
21
430.79
31
0
0
LINE
8
0
10
304.55
20
430.79
30
0
11
305.9
21
433.12
31
0
0
ARC
8
0
10
310.99
20
430.79
30
0
40
5.597946
50
144.664444
51
155.403573
0
LINE
8
0
10
306.42
20
434.03
30
0
11
307.11
21
435.21
31
0
0
LINE
8
0
10
232.57
20
499.67
30
0
11
233.75
21
500.35
31
0
0
ARC
8
0
10
236.99
20
495.79
30
0
40
5.593854
50
114.596427
51
125.394796
0
LINE
8
0
10
234.66
20
500.88
30
0
11
236.99
21
502.23
31
0
0
LINE
8
0
10
236.99
20
502.23
30
0
11
239.32
21
500.88
31
0
0
ARC
8
0
10
236.99
20
495.79
30
0
40
5.597946
50
54.605204
51
65.403573
0
LINE
8
0
10
240.23
20
500.35
30
0
11
242.56
21
499.01
31
0
0
LINE
8
0
10
242.56
20
499.01
30
0
11
242.56
21
496.32
31
0
0
ARC
8
0
10
236.99
20
495.79
30
0
40
5.595159
50
354.564522
51
5.435478
0
LINE
8
0
10
242.56
20
495.26
30
0
11
242.56
21
492.57
31
0
0
LINE
8
0
10
242.56
20
492.57
30
0
11
240.23
21
491.22
31
0
0
ARC
8
0
10
236.99
20
495.79
30
0
40
5.602009
50
294.596427
51
305.335556
0
LINE
8
0
10
239.32
20
490.7
30
0
11
236.99
21
489.35
31
0
0
LINE
8
0
10
236.99
20
489.35
30
0
11
234.66
21
490.7
31
0
0
ARC
8
0
10
236.99
20
495.79
30
0
40
5.597946
50
234.664444
51
245.403573
0
LINE
8
0
10
233.75
20
491.22
30
0
11
231.41
21
492.57
31
0
0
LINE
8
0
10
231.41
20
492.57
30
0
11
231.41
21
495.26
31
0
0
ARC
8
0
10
236.99
20
495.79
30
0
40
5.605114
50
174.574205
51
185.425795
0
LINE
8
0
10
231.41
20
496.32
30
0
11
231.41
21
499.01
31
0
0
LINE
8
0
10
231.41
20
499.01
30
0
11
232.57
21
499.67
31
0
0
LINE
8
0
10
48.57
20
499.67
30
0
11
49.75
21
500.35
31
0
0
ARC
8
0
10
52.99
20
495.79
30
0
40
5.593854
50
114.596427
51
125.394796
0
LINE
8
0
10
50.66
20
500.88
30
0
11
52.99
21
502.23
31
0
0
LINE
8
0
10
52.99
20
502.23
30
0
11
55.32
21
500.88
31
0
0
ARC
8
0
10
52.99
20
495.79
30
0
40
5.597946
50
54.605204
51
65.403573
0
LINE
8
0
10
56.23
20
500.35
30
0
11
58.56
21
499.01
31
0
0
LINE
8
0
10
58.56
20
499.01
30
0
11
58.56
21
496.32
31
0
0
ARC
8
0
10
52.99
20
495.79
30
0
40
5.595159
50
354.564522
51
5.435478
0
LINE
8
0
10
58.56
20
495.26
30
0
11
58.56
21
492.57
31
0
0
LINE
8
0
10
58.56
20
492.57
30
0
11
56.23
21
491.22
31
0
0
ARC
8
0
10
52.99
20
495.79
30
0
40
5.602009
50
294.596427
51
305.335556
0
LINE
8
0
10
55.32
20
490.7
30
0
11
52.99
21
489.35
31
0
0
LINE
8
0
10
52.99
20
489.35
30
0
11
50.66
21
490.7
31
0
0
ARC
8
0
10
52.99
20
495.79
30
0
40
5.597946
50
234.664444
51
245.403573
0
LINE
8
0
10
49.75
20
491.22
30
0
11
47.41
21
492.57
31
0
0
LINE
8
0
10
47.41
20
492.57
30
0
11
47.41
21
495.26
31
0
0
ARC
8
0
10
52.99
20
495.79
30
0
40
5.605114
50
174.574205
51
185.425795
0
LINE
8
0
10
47.41
20
496.32
30
0
11
47.41
21
499.01
31
0
0
LINE
8
0
10
47.41
20
499.01
30
0
11
48.57
21
499.67
31
0
0
LINE
8
0
10
48.57
20
319.67
30
0
11
49.75
21
320.35
31
0
0
ARC
8
0
10
52.99
20
315.79
30
0
40
5.593854
50
114.596427
51
125.394796
0
LINE
8
0
10
50.66
20
320.88
30
0
11
52.99
21
322.23
31
0
0
LINE
8
0
10
52.99
20
322.23
30
0
11
55.32
21
320.88
31
0
0
ARC
8
0
10
52.99
20
315.79
30
0
40
5.597946
50
54.605204
51
65.403573
0
LINE
8
0
10
56.23
20
320.35
30
0
11
58.56
21
319.01
31
0
0
LINE
8
0
10
58.56
20
319.01
30
0
11
58.56
21
316.32
31
0
0
ARC
8
0
10
52.99
20
315.79
30
0
40
5.595159
50
354.564522
51
5.435478
0
LINE
8
0
10
58.56
20
315.26
30
0
11
58.56
21
312.57
31
0
0
LINE
8
0
10
58.56
20
312.57
30
0
11
56.23
21
311.22
31
0
0
ARC
8
0
10
52.99
20
315.79
30
0
40
5.602009
50
294.596427
51
305.335556
0
LINE
8
0
10
55.32
20
310.7
30
0
11
52.99
21
309.35
31
0
0
LINE
8
0
10
52.99
20
309.35
30
0
11
50.66
21
310.7
31
0
0
ARC
8
0
10
52.99
20
315.79
30
0
40
5.597946
50
234.664444
51
245.403573
0
LINE
8
0
10
49.75
20
311.22
30
0
11
47.41
21
312.57
31
0
0
LINE
8
0
10
47.41
20
312.57
30
0
11
47.41
21
315.26
31
0
0
ARC
8
0
10
52.99
20
315.79
30
0
40
5.605114
50
174.574205
51
185.425795
0
LINE
8
0
10
47.41
20
316.32
30
0
11
47.41
21
319.01
31
0
0
LINE
8
0
10
47.41
20
319.01
30
0
11
48.57
21
319.67
31
0
0
LINE
8
0
10
232.57
20
319.67
30
0
11
233.75
21
320.35
31
0
0
ARC
8
0
10
236.99
20
315.79
30
0
40
5.593854
50
114.596427
51
125.394796
0
LINE
8
0
10
234.66
20
320.88
30
0
11
236.99
21
322.23
31
0
0
LINE
8
0
10
236.99
20
322.23
30
0
11
239.32
21
320.88
31
0
0
ARC
8
0
10
236.99
20
315.79
30
0
40
5.597946
50
54.605204
51
65.403573
0
LINE
8
0
10
240.23
20
320.35
30
0
11
242.56
21
319.01
31
0
0
LINE
8
0
10
242.56
20
319.01
30
0
11
242.56
21
316.32
31
0
0
ARC
8
0
10
236.99
20
315.79
30
0
40
5.595159
50
354.564522
51
5.435478
0
LINE
8
0
10
242.56
20
315.26
30
0
11
242.56
21
312.57
31
0
0
LINE
8
0
10
242.56
20
312.57
30
0
11
240.23
21
311.22
31
0
0
ARC
8
0
10
236.99
20
315.79
30
0
40
5.602009
50
294.596427
51
305.335556
0
LINE
8
0
10
239.32
20
310.7
30
0
11
236.99
21
309.35
31
0
0
LINE
8
0
10
236.99
20
309.35
30
0
11
234.66
21
310.7
31
0
0
ARC
8
0
10
236.99
20
315.79
30
0
40
5.597946
50
234.664444
51
245.403573
0
LINE
8
0
10
233.75
20
311.22
30
0
11
231.41
21
312.57
31
0
0
LINE
8
0
10
231.41
20
312.57
30
0
11
231.41
21
315.26
31
0
0
ARC
8
0
10
236.99
20
315.79
30
0
40
5.605114
50
174.574205
51
185.425795
0
LINE
8
0
10
231.41
20
316.32
30
0
11
231.41
21
319.01
31
0
0
LINE
8
0
10
231.41
20
319.01
30
0
11
232.57
21
319.67
31
0
0
LINE
8
0
10
363.86
20
361.79
30
0
11
363.86
21
365.79
31
0
0
LINE
8
0
10
363.86
20
365.79
30
0
11
363.86
21
445.84
31
0
0
LINE
8
0
10
363.86
20
445.84
30
0
11
255.99
21
445.84
31
0
0
ARC
8
0
10
255.99
20
455.79
30
0
40
9.95
50
180
51
270
0
LINE
8
0
10
246.04
20
455.79
30
0
11
246.04
21
558.83
31
0
0
LINE
8
0
10
246.04
20
558.83
30
0
11
43.94
21
558.83
31
0
0
LINE
8
0
10
43.94
20
558.83
30
0
11
43.94
21
487.79
31
0
0
ARC
8
0
10
46.99
20
487.79
30
0
40
3.05
50
180
51
270
0
LINE
8
0
10
46.99
20
484.74
30
0
11
55.94
21
484.74
31
0
0
LINE
8
0
10
55.94
20
484.74
30
0
11
55.94
21
480.84
31
0
0
LINE
8
0
10
55.94
20
480.84
30
0
11
15.95
21
480.84
31
0
0
LINE
8
0
10
15.95
20
480.84
30
0
11
15.95
21
330.74
31
0
0
LINE
8
0
10
15.95
20
330.74
30
0
11
55.94
21
330.74
31
0
0
LINE
8
0
10
55.94
20
330.74
30
0
11
55.94
21
326.84
31
0
0
LINE
8
0
10
55.94
20
326.84
30
0
11
46.99
21
326.84
31
0
0
ARC
8
0
10
46.99
20
323.79
30
0
40
3.05
50
90
51
180
0
LINE
8
0
10
43.94
20
323.79
30
0
11
43.94
21
252.75
31
0
0
LINE
8
0
10
43.94
20
252.75
30
0
11
246.04
21
252.75
31
0
0
LINE
8
0
10
246.04
20
252.75
30
0
11
246.04
21
355.79
31
0
0
ARC
8
0
10
255.99
20
355.79
30
0
40
9.95
50
90
51
180
0
LINE
8
0
10
255.99
20
365.74
30
0
11
363.81
21
365.74
31
0
0
ENDSEC
0
EOF
