0
SECTION
2
HEADER
9
$ACADVER
1
AC1009
0
ENDSEC
0
SECTION
2
ENTITIES
0
CIRCLE
8
0
10
152.96
20
1563.8
30
0
40
11
0
LINE
8
0
10
180.38
20
1615.34
30
0
11
184.32
21
1615.34
31
0
0
LINE
8
0
10
184.32
20
1615.34
30
0
11
184.32
21
1613.86
31
0
0
LINE
8
0
10
184.32
20
1613.86
30
0
11
173.44
21
1613.86
31
0
0
LINE
8
0
10
173.44
20
1613.86
30
0
11
173.44
21
1616.94
31
0
0
LINE
8
0
10
173.44
20
1616.94
30
0
11
184.32
21
1616.94
31
0
0
LINE
8
0
10
184.32
20
1616.94
30
0
11
184.32
21
1615.4
31
0
0
LINE
8
0
10
164.06
20
1662.63
30
0
11
167.55
21
1659.14
31
0
0
ARC
8
0
10
162.6
20
1664
30
0
40
6.937009
50
315.525635
51
315
0
LINE
8
0
10
114.06
20
1662.63
30
0
11
117.55
21
1659.14
31
0
0
ARC
8
0
10
112.6
20
1664
30
0
40
6.937009
50
315.525635
51
315
0
LINE
8
0
10
110.09
20
1699.88
30
0
11
106.52
21
1696.47
31
0
0
ARC
8
0
10
124.6
20
1713.64
30
0
40
24.933818
50
134.983755
51
223.521203
0
LINE
8
0
10
106.97
20
1731.28
30
0
11
142.32
21
1766.64
31
0
0
ARC
8
0
10
159.96
20
1749
30
0
40
24.946727
50
314.983755
51
135
0
LINE
8
0
10
177.59
20
1731.36
30
0
11
142.24
21
1696.01
31
0
0
ARC
8
0
10
124.6
20
1713.64
30
0
40
24.939657
50
224.805007
51
315.016245
0
LINE
8
0
10
40.08
20
1615.46
30
0
11
44.02
21
1615.46
31
0
0
LINE
8
0
10
44.02
20
1615.46
30
0
11
44.02
21
1616.94
31
0
0
LINE
8
0
10
44.02
20
1616.94
30
0
11
30.14
21
1616.94
31
0
0
LINE
8
0
10
30.14
20
1616.94
30
0
11
30.14
21
1613.86
31
0
0
LINE
8
0
10
30.14
20
1613.86
30
0
11
44.02
21
1613.86
31
0
0
LINE
8
0
10
44.02
20
1613.86
30
0
11
44.02
21
1615.4
31
0
0
LINE
8
0
10
40.06
20
1490
30
0
11
40.06
21
1486.06
31
0
0
ARC
8
0
10
40
20
1497
30
0
40
10.940165
50
270.314233
51
270
0
LINE
8
0
10
118.18
20
1473.37
30
0
11
121.67
21
1469.87
31
0
0
ARC
8
0
10
117.96
20
1473.5
30
0
40
5.190472
50
315.624452
51
315
0
LINE
8
0
10
252.9
20
1454.8
30
0
11
252.9
21
1453.86
31
0
0
LINE
8
0
10
252.9
20
1453.86
30
0
11
252.02
21
1453.86
31
0
0
LINE
8
0
10
252.02
20
1453.86
30
0
11
252.02
21
1464.14
31
0
0
LINE
8
0
10
252.02
20
1464.14
30
0
11
253.9
21
1464.14
31
0
0
LINE
8
0
10
253.9
20
1464.14
30
0
11
253.9
21
1453.86
31
0
0
LINE
8
0
10
253.9
20
1453.86
30
0
11
252.96
21
1453.86
31
0
0
LINE
8
0
10
325.21
20
1464.06
30
0
11
294.91
21
1464.06
31
0
0
ARC
8
0
10
294.91
20
1469
30
0
40
4.94
50
180
51
270
0
LINE
8
0
10
289.97
20
1469
30
0
11
289.97
21
1579
31
0
0
ARC
8
0
10
294.91
20
1579
30
0
40
4.94
50
90
51
180
0
LINE
8
0
10
294.91
20
1583.94
30
0
11
355.51
21
1583.94
31
0
0
ARC
8
0
10
355.51
20
1579
30
0
40
4.94
50
0
51
90
0
LINE
8
0
10
360.45
20
1579
30
0
11
360.45
21
1469
31
0
0
ARC
8
0
10
355.51
20
1469
30
0
40
4.94
50
270
51
0
0
LINE
8
0
10
355.51
20
1464.06
30
0
11
325.21
21
1464.06
31
0
0
LINE
8
0
10
298.49
20
1364.56
30
0
11
301.93
21
1364.56
31
0
0
LINE
8
0
10
301.93
20
1364.56
30
0
11
301.93
21
1363.06
31
0
0
LINE
8
0
10
301.93
20
1363.06
30
0
11
295.05
21
1363.06
31
0
0
LINE
8
0
10
295.05
20
1363.06
30
0
11
295.05
21
1366.19
31
0
0
LINE
8
0
10
295.05
20
1366.19
30
0
11
301.93
21
1366.19
31
0
0
LINE
8
0
10
301.93
20
1366.19
30
0
11
301.93
21
1364.62
31
0
0
LINE
8
0
10
438.07
20
1394.37
30
0
11
441.56
21
1390.87
31
0
0
ARC
8
0
10
437.85
20
1394.5
30
0
40
5.190472
50
315.624452
51
315
0
LINE
8
0
10
438.07
20
1272.37
30
0
11
441.56
21
1268.87
31
0
0
ARC
8
0
10
437.85
20
1272.5
30
0
40
5.190472
50
315.624452
51
315
0
LINE
8
0
10
298.49
20
1211.31
30
0
11
301.93
21
1211.31
31
0
0
LINE
8
0
10
301.93
20
1211.31
30
0
11
301.93
21
1209.81
31
0
0
LINE
8
0
10
301.93
20
1209.81
30
0
11
295.05
21
1209.81
31
0
0
LINE
8
0
10
295.05
20
1209.81
30
0
11
295.05
21
1212.94
31
0
0
LINE
8
0
10
295.05
20
1212.94
30
0
11
301.93
21
1212.94
31
0
0
LINE
8
0
10
301.93
20
1212.94
30
0
11
301.93
21
1211.37
31
0
0
LINE
8
0
10
151.46
20
1253.56
30
0
11
120.02
21
1253.56
31
0
0
LINE
8
0
10
120.02
20
1253.56
30
0
11
120.02
21
1446.5
31
0
0
ARC
8
0
10
126.96
20
1446.5
30
0
40
6.94
50
90
51
180
0
LINE
8
0
10
126.96
20
1453.44
30
0
11
189.9
21
1453.44
31
0
0
LINE
8
0
10
189.9
20
1453.44
30
0
11
189.9
21
1260.5
31
0
0
ARC
8
0
10
182.96
20
1260.5
30
0
40
6.94
50
270
51
0
0
LINE
8
0
10
182.96
20
1253.56
30
0
11
151.46
21
1253.56
31
0
0
LINE
8
0
10
180.38
20
1095.34
30
0
11
184.32
21
1095.34
31
0
0
LINE
8
0
10
184.32
20
1095.34
30
0
11
184.32
21
1093.86
31
0
0
LINE
8
0
10
184.32
20
1093.86
30
0
11
173.44
21
1093.86
31
0
0
LINE
8
0
10
173.44
20
1093.86
30
0
11
173.44
21
1096.94
31
0
0
LINE
8
0
10
173.44
20
1096.94
30
0
11
184.32
21
1096.94
31
0
0
LINE
8
0
10
184.32
20
1096.94
30
0
11
184.32
21
1095.4
31
0
0
LINE
8
0
10
296.53
20
1051.5
30
0
11
296.53
21
1048.56
31
0
0
LINE
8
0
10
296.53
20
1048.56
30
0
11
295.05
21
1048.56
31
0
0
LINE
8
0
10
295.05
20
1048.56
30
0
11
295.05
21
1054.44
31
0
0
LINE
8
0
10
295.05
20
1054.44
30
0
11
298.13
21
1054.44
31
0
0
LINE
8
0
10
298.13
20
1054.44
30
0
11
298.13
21
1048.56
31
0
0
LINE
8
0
10
298.13
20
1048.56
30
0
11
296.59
21
1048.56
31
0
0
LINE
8
0
10
296.53
20
896.5
30
0
11
296.53
21
893.56
31
0
0
LINE
8
0
10
296.53
20
893.56
30
0
11
295.05
21
893.56
31
0
0
LINE
8
0
10
295.05
20
893.56
30
0
11
295.05
21
899.44
31
0
0
LINE
8
0
10
295.05
20
899.44
30
0
11
298.13
21
899.44
31
0
0
LINE
8
0
10
298.13
20
899.44
30
0
11
298.13
21
893.56
31
0
0
LINE
8
0
10
298.13
20
893.56
30
0
11
296.59
21
893.56
31
0
0
ARC
8
0
10
301.41
20
801.99
30
0
40
27.43
50
270
51
287.305431
0
ARC
8
0
10
301.58
20
801.46
30
0
40
26.875187
50
287.295522
51
304.831337
0
ARC
8
0
10
302.1
20
800.72
30
0
40
25.970585
50
304.822127
51
322.808021
0
ARC
8
0
10
302.81
20
800.18
30
0
40
25.080391
50
322.810273
51
341.247066
0
ARC
8
0
10
303.33
20
800
30
0
40
24.520661
50
341.254708
51
18.745292
0
ARC
8
0
10
302.81
20
799.82
30
0
40
25.070923
50
18.752934
51
37.189727
0
ARC
8
0
10
302.1
20
799.28
30
0
40
25.97241
50
37.191979
51
55.177873
0
ARC
8
0
10
301.58
20
798.54
30
0
40
26.875009
50
55.168663
51
72.704478
0
ARC
8
0
10
301.41
20
798.01
30
0
40
27.431764
50
72.694569
51
107.285488
0
ARC
8
0
10
301.25
20
798.54
30
0
40
26.875187
50
107.295522
51
124.831337
0
ARC
8
0
10
300.73
20
799.28
30
0
40
25.970585
50
124.822127
51
142.808021
0
ARC
8
0
10
300.02
20
799.82
30
0
40
25.080391
50
142.810273
51
161.25441
0
ARC
8
0
10
299.5
20
800
30
0
40
24.53013
50
161.262214
51
198.737786
0
ARC
8
0
10
300.02
20
800.18
30
0
40
25.080393
50
198.74559
51
217.189727
0
ARC
8
0
10
300.73
20
800.72
30
0
40
25.97241
50
217.191979
51
235.177873
0
ARC
8
0
10
301.25
20
801.46
30
0
40
26.875009
50
235.168663
51
252.704478
0
ARC
8
0
10
301.41
20
801.99
30
0
40
27.428791
50
252.714512
51
270
0
LINE
8
0
10
298.49
20
748.06
30
0
11
301.93
21
748.06
31
0
0
LINE
8
0
10
301.93
20
748.06
30
0
11
301.93
21
746.56
31
0
0
LINE
8
0
10
301.93
20
746.56
30
0
11
295.05
21
746.56
31
0
0
LINE
8
0
10
295.05
20
746.56
30
0
11
295.05
21
749.69
31
0
0
LINE
8
0
10
295.05
20
749.69
30
0
11
301.93
21
749.69
31
0
0
LINE
8
0
10
301.93
20
749.69
30
0
11
301.93
21
748.12
31
0
0
LINE
8
0
10
180.38
20
698.54
30
0
11
184.32
21
698.54
31
0
0
LINE
8
0
10
184.32
20
698.54
30
0
11
184.32
21
697.06
31
0
0
LINE
8
0
10
184.32
20
697.06
30
0
11
173.44
21
697.06
31
0
0
LINE
8
0
10
173.44
20
697.06
30
0
11
173.44
21
700.14
31
0
0
LINE
8
0
10
173.44
20
700.14
30
0
11
184.32
21
700.14
31
0
0
LINE
8
0
10
184.32
20
700.14
30
0
11
184.32
21
698.6
31
0
0
LINE
8
0
10
180.02
20
841.75
30
0
11
180.02
21
837.81
31
0
0
ARC
8
0
10
179.96
20
898
30
0
40
60.19003
50
270.057115
51
270
0
LINE
8
0
10
40.08
20
698.54
30
0
11
44.02
21
698.54
31
0
0
LINE
8
0
10
44.02
20
698.54
30
0
11
44.02
21
697.06
31
0
0
LINE
8
0
10
44.02
20
697.06
30
0
11
30.14
21
697.06
31
0
0
LINE
8
0
10
30.14
20
697.06
30
0
11
30.14
21
700.14
31
0
0
LINE
8
0
10
30.14
20
700.14
30
0
11
44.02
21
700.14
31
0
0
LINE
8
0
10
44.02
20
700.14
30
0
11
44.02
21
698.6
31
0
0
LINE
8
0
10
298.49
20
594.82
30
0
11
301.93
21
594.82
31
0
0
LINE
8
0
10
301.93
20
594.82
30
0
11
301.93
21
593.31
31
0
0
LINE
8
0
10
301.93
20
593.31
30
0
11
295.05
21
593.31
31
0
0
LINE
8
0
10
295.05
20
593.31
30
0
11
295.05
21
596.44
31
0
0
LINE
8
0
10
295.05
20
596.44
30
0
11
301.93
21
596.44
31
0
0
LINE
8
0
10
301.93
20
596.44
30
0
11
301.93
21
594.87
31
0
0
LINE
8
0
10
288.34
20
502.53
30
0
11
291.8
21
500.53
31
0
0
ARC
8
0
10
291.68
20
500.32
30
0
40
0.241868
50
332.354025
51
60.255119
0
LINE
8
0
10
291.89
20
500.21
30
0
11
290.56
21
497.91
31
0
0
LINE
8
0
10
290.56
20
497.91
30
0
11
285.26
21
497.91
31
0
0
LINE
8
0
10
285.26
20
497.91
30
0
11
282.61
21
502.5
31
0
0
LINE
8
0
10
282.61
20
502.5
30
0
11
285.26
21
507.09
31
0
0
LINE
8
0
10
285.26
20
507.09
30
0
11
290.56
21
507.09
31
0
0
LINE
8
0
10
290.56
20
507.09
30
0
11
293.21
21
502.5
31
0
0
LINE
8
0
10
293.21
20
502.5
30
0
11
291.89
21
500.2
31
0
0
LINE
8
0
10
328.34
20
502.53
30
0
11
331.8
21
500.53
31
0
0
ARC
8
0
10
331.68
20
500.32
30
0
40
0.241868
50
332.354025
51
60.255119
0
LINE
8
0
10
331.89
20
500.21
30
0
11
330.56
21
497.91
31
0
0
LINE
8
0
10
330.56
20
497.91
30
0
11
325.26
21
497.91
31
0
0
LINE
8
0
10
325.26
20
497.91
30
0
11
322.61
21
502.5
31
0
0
LINE
8
0
10
322.61
20
502.5
30
0
11
325.26
21
507.09
31
0
0
LINE
8
0
10
325.26
20
507.09
30
0
11
330.56
21
507.09
31
0
0
LINE
8
0
10
330.56
20
507.09
30
0
11
333.21
21
502.5
31
0
0
LINE
8
0
10
333.21
20
502.5
30
0
11
331.89
21
500.2
31
0
0
LINE
8
0
10
307.91
20
443.56
30
0
11
328.91
21
443.56
31
0
0
ARC
8
0
10
328.91
20
446.5
30
0
40
2.94
50
270
51
0
0
LINE
8
0
10
331.85
20
446.5
30
0
11
331.85
21
490.5
31
0
0
ARC
8
0
10
328.91
20
490.5
30
0
40
2.94
50
0
51
90
0
LINE
8
0
10
328.91
20
493.44
30
0
11
286.91
21
493.44
31
0
0
ARC
8
0
10
286.91
20
490.5
30
0
40
2.94
50
90
51
180
0
LINE
8
0
10
283.97
20
490.5
30
0
11
283.97
21
446.5
31
0
0
ARC
8
0
10
286.91
20
446.5
30
0
40
2.94
50
180
51
270
0
LINE
8
0
10
286.91
20
443.56
30
0
11
307.91
21
443.56
31
0
0
LINE
8
0
10
307.34
20
433.53
30
0
11
310.8
21
431.53
31
0
0
ARC
8
0
10
310.68
20
431.32
30
0
40
0.241868
50
332.354025
51
60.255119
0
LINE
8
0
10
310.89
20
431.21
30
0
11
309.56
21
428.91
31
0
0
LINE
8
0
10
309.56
20
428.91
30
0
11
304.26
21
428.91
31
0
0
LINE
8
0
10
304.26
20
428.91
30
0
11
301.61
21
433.5
31
0
0
LINE
8
0
10
301.61
20
433.5
30
0
11
304.26
21
438.09
31
0
0
LINE
8
0
10
304.26
20
438.09
30
0
11
309.56
21
438.09
31
0
0
LINE
8
0
10
309.56
20
438.09
30
0
11
312.21
21
433.5
31
0
0
LINE
8
0
10
312.21
20
433.5
30
0
11
310.89
21
431.2
31
0
0
LINE
8
0
10
307.91
20
373.56
30
0
11
328.91
21
373.56
31
0
0
ARC
8
0
10
328.91
20
376.5
30
0
40
2.94
50
270
51
0
0
LINE
8
0
10
331.85
20
376.5
30
0
11
331.85
21
420.5
31
0
0
ARC
8
0
10
328.91
20
420.5
30
0
40
2.94
50
0
51
90
0
LINE
8
0
10
328.91
20
423.44
30
0
11
286.91
21
423.44
31
0
0
ARC
8
0
10
286.91
20
420.5
30
0
40
2.94
50
90
51
180
0
LINE
8
0
10
283.97
20
420.5
30
0
11
283.97
21
376.5
31
0
0
ARC
8
0
10
286.91
20
376.5
30
0
40
2.94
50
180
51
270
0
LINE
8
0
10
286.91
20
373.56
30
0
11
307.91
21
373.56
31
0
0
LINE
8
0
10
288.34
20
364.53
30
0
11
291.8
21
362.53
31
0
0
ARC
8
0
10
291.68
20
362.32
30
0
40
0.241868
50
332.354025
51
60.255119
0
LINE
8
0
10
291.89
20
362.21
30
0
11
290.56
21
359.91
31
0
0
LINE
8
0
10
290.56
20
359.91
30
0
11
285.26
21
359.91
31
0
0
LINE
8
0
10
285.26
20
359.91
30
0
11
282.61
21
364.5
31
0
0
LINE
8
0
10
282.61
20
364.5
30
0
11
285.26
21
369.09
31
0
0
LINE
8
0
10
285.26
20
369.09
30
0
11
290.56
21
369.09
31
0
0
LINE
8
0
10
290.56
20
369.09
30
0
11
293.21
21
364.5
31
0
0
LINE
8
0
10
293.21
20
364.5
30
0
11
291.89
21
362.2
31
0
0
LINE
8
0
10
328.34
20
364.53
30
0
11
331.8
21
362.53
31
0
0
ARC
8
0
10
331.68
20
362.32
30
0
40
0.241868
50
332.354025
51
60.255119
0
LINE
8
0
10
331.89
20
362.21
30
0
11
330.56
21
359.91
31
0
0
LINE
8
0
10
330.56
20
359.91
30
0
11
325.26
21
359.91
31
0
0
LINE
8
0
10
325.26
20
359.91
30
0
11
322.61
21
364.5
31
0
0
LINE
8
0
10
322.61
20
364.5
30
0
11
325.26
21
369.09
31
0
0
LINE
8
0
10
325.26
20
369.09
30
0
11
330.56
21
369.09
31
0
0
LINE
8
0
10
330.56
20
369.09
30
0
11
333.21
21
364.5
31
0
0
LINE
8
0
10
333.21
20
364.5
30
0
11
331.89
21
362.2
31
0
0
LINE
8
0
10
438.07
20
379.37
30
0
11
441.56
21
375.87
31
0
0
ARC
8
0
10
437.85
20
379.5
30
0
40
5.190472
50
315.624452
51
315
0
LINE
8
0
10
438.07
20
501.37
30
0
11
441.56
21
497.87
31
0
0
ARC
8
0
10
437.85
20
501.5
30
0
40
5.190472
50
315.624452
51
315
0
LINE
8
0
10
516.67
20
270.2
30
0
11
515.05
21
267.41
31
0
0
LINE
8
0
10
515.05
20
267.41
30
0
11
508.6
21
267.41
31
0
0
LINE
8
0
10
508.6
20
267.41
30
0
11
505.37
21
273
31
0
0
LINE
8
0
10
505.37
20
273
30
0
11
508.6
21
278.59
31
0
0
LINE
8
0
10
508.6
20
278.59
30
0
11
515.05
21
278.59
31
0
0
LINE
8
0
10
515.05
20
278.59
30
0
11
518.28
21
273
31
0
0
LINE
8
0
10
518.28
20
273
30
0
11
516.67
21
270.2
31
0
0
LINE
8
0
10
180.38
20
178.54
30
0
11
184.32
21
178.54
31
0
0
LINE
8
0
10
184.32
20
178.54
30
0
11
184.32
21
177.06
31
0
0
LINE
8
0
10
184.32
20
177.06
30
0
11
173.44
21
177.06
31
0
0
LINE
8
0
10
173.44
20
177.06
30
0
11
173.44
21
180.14
31
0
0
LINE
8
0
10
173.44
20
180.14
30
0
11
184.32
21
180.14
31
0
0
LINE
8
0
10
184.32
20
180.14
30
0
11
184.32
21
178.6
31
0
0
LINE
8
0
10
164.06
20
128.63
30
0
11
167.55
21
125.14
31
0
0
ARC
8
0
10
162.6
20
130
30
0
40
6.937009
50
315.525635
51
315
0
LINE
8
0
10
114.06
20
128.63
30
0
11
117.55
21
125.14
31
0
0
ARC
8
0
10
112.6
20
130
30
0
40
6.937009
50
315.525635
51
315
0
LINE
8
0
10
110.56
20
94.6
30
0
11
107.08
21
98.11
31
0
0
ARC
8
0
10
124.6
20
80.36
30
0
40
24.940186
50
44.983755
51
134.626372
0
LINE
8
0
10
142.24
20
97.99
30
0
11
177.59
21
62.64
31
0
0
ARC
8
0
10
159.96
20
45
30
0
40
24.939657
50
225
51
45.016245
0
LINE
8
0
10
142.32
20
27.36
30
0
11
106.97
21
62.72
31
0
0
ARC
8
0
10
124.6
20
80.36
30
0
40
24.939657
50
135.909896
51
225.016245
0
LINE
8
0
10
40.08
20
178.54
30
0
11
44.02
21
178.54
31
0
0
LINE
8
0
10
44.02
20
178.54
30
0
11
44.02
21
177.06
31
0
0
LINE
8
0
10
44.02
20
177.06
30
0
11
30.14
21
177.06
31
0
0
LINE
8
0
10
30.14
20
177.06
30
0
11
30.14
21
180.14
31
0
0
LINE
8
0
10
30.14
20
180.14
30
0
11
44.02
21
180.14
31
0
0
LINE
8
0
10
44.02
20
180.14
30
0
11
44.02
21
178.6
31
0
0
LINE
8
0
10
40.06
20
290
30
0
11
40.06
21
286.06
31
0
0
ARC
8
0
10
40
20
297
30
0
40
10.940165
50
270.314233
51
270
0
LINE
8
0
10
158.46
20
340.56
30
0
11
126.96
21
340.56
31
0
0
ARC
8
0
10
126.96
20
347.5
30
0
40
6.94
50
180
51
270
0
LINE
8
0
10
120.02
20
347.5
30
0
11
120.02
21
540.44
31
0
0
LINE
8
0
10
120.02
20
540.44
30
0
11
182.96
21
540.44
31
0
0
ARC
8
0
10
182.96
20
533.5
30
0
40
6.94
50
0
51
90
0
LINE
8
0
10
189.9
20
533.5
30
0
11
189.9
21
340.56
31
0
0
LINE
8
0
10
189.9
20
340.56
30
0
11
158.46
21
340.56
31
0
0
LINE
8
0
10
207.64
20
33.04
30
0
11
210.96
21
29.73
31
0
0
ARC
8
0
10
207.6
20
33
30
0
40
4.68855
50
315.777723
51
315
0
LINE
8
0
10
40.08
20
1095.34
30
0
11
44.02
21
1095.34
31
0
0
LINE
8
0
10
44.02
20
1095.34
30
0
11
44.02
21
1093.86
31
0
0
LINE
8
0
10
44.02
20
1093.86
30
0
11
30.14
21
1093.86
31
0
0
LINE
8
0
10
30.14
20
1093.86
30
0
11
30.14
21
1096.94
31
0
0
LINE
8
0
10
30.14
20
1096.94
30
0
11
44.02
21
1096.94
31
0
0
LINE
8
0
10
44.02
20
1096.94
30
0
11
44.02
21
1095.4
31
0
0
LINE
8
0
10
516.67
20
1076.2
30
0
11
515.05
21
1073.41
31
0
0
LINE
8
0
10
515.05
20
1073.41
30
0
11
508.6
21
1073.41
31
0
0
LINE
8
0
10
508.6
20
1073.41
30
0
11
505.37
21
1079
31
0
0
LINE
8
0
10
505.37
20
1079
30
0
11
508.6
21
1084.59
31
0
0
LINE
8
0
10
508.6
20
1084.59
30
0
11
515.05
21
1084.59
31
0
0
LINE
8
0
10
515.05
20
1084.59
30
0
11
518.28
21
1079
31
0
0
LINE
8
0
10
518.28
20
1079
30
0
11
516.67
21
1076.2
31
0
0
LINE
8
0
10
252.9
20
1578.8
30
0
11
252.9
21
1577.86
31
0
0
LINE
8
0
10
252.9
20
1577.86
30
0
11
252.02
21
1577.86
31
0
0
LINE
8
0
10
252.02
20
1577.86
30
0
11
252.02
21
1588.14
31
0
0
LINE
8
0
10
252.02
20
1588.14
30
0
11
253.9
21
1588.14
31
0
0
LINE
8
0
10
253.9
20
1588.14
30
0
11
253.9
21
1577.86
31
0
0
LINE
8
0
10
253.9
20
1577.86
30
0
11
252.96
21
1577.86
31
0
0
LINE
8
0
10
207.64
20
1761.04
30
0
11
210.96
21
1757.73
31
0
0
ARC
8
0
10
207.6
20
1761
30
0
40
4.68855
50
315.777723
51
315
0
LINE
8
0
10
9.94
20
1740.2
30
0
11
9.94
21
1736.2
31
0
0
LINE
8
0
10
9.94
20
1736.2
30
0
11
9.94
21
57.74
31
0
0
LINE
8
0
10
9.94
20
57.74
30
0
11
77.49
21
57.74
31
0
0
LINE
8
0
10
77.49
20
57.74
30
0
11
81.83
21
58.78
31
0
0
ARC
8
0
10
82.04
20
57.87
30
0
40
0.933916
50
34.195605
51
102.994617
0
LINE
8
0
10
82.82
20
58.4
30
0
11
85.81
21
54.07
31
0
0
LINE
8
0
10
85.81
20
54.07
30
0
11
127.57
21
12.3
31
0
0
ARC
8
0
10
133.27
20
18
30
0
40
8.061017
50
225
51
270
0
LINE
8
0
10
133.27
20
9.94
30
0
11
258.96
21
9.94
31
0
0
ARC
8
0
10
258.96
20
14
30
0
40
4.06
50
270
51
0
0
LINE
8
0
10
263.02
20
14
30
0
11
263.02
21
49.94
31
0
0
LINE
8
0
10
263.02
20
49.94
30
0
11
536.09
21
49.94
31
0
0
LINE
8
0
10
536.09
20
49.94
30
0
11
536.09
21
55.06
31
0
0
LINE
8
0
10
536.09
20
55.06
30
0
11
535.59
21
55.06
31
0
0
LINE
8
0
10
535.59
20
55.06
30
0
11
535.59
21
84.94
31
0
0
LINE
8
0
10
535.59
20
84.94
30
0
11
536.09
21
84.94
31
0
0
LINE
8
0
10
536.09
20
84.94
30
0
11
536.09
21
94.06
31
0
0
LINE
8
0
10
536.09
20
94.06
30
0
11
529.39
21
94.06
31
0
0
LINE
8
0
10
529.39
20
94.06
30
0
11
529.39
21
96.94
31
0
0
LINE
8
0
10
529.39
20
96.94
30
0
11
570.64
21
96.94
31
0
0
LINE
8
0
10
570.64
20
96.94
30
0
11
570.64
21
1697.06
31
0
0
LINE
8
0
10
570.64
20
1697.06
30
0
11
531.86
21
1697.06
31
0
0
LINE
8
0
10
531.86
20
1697.06
30
0
11
531.86
21
1697.69
31
0
0
LINE
8
0
10
531.86
20
1697.69
30
0
11
536.09
21
1697.69
31
0
0
LINE
8
0
10
536.09
20
1697.69
30
0
11
536.09
21
1709.06
31
0
0
LINE
8
0
10
536.09
20
1709.06
30
0
11
535.59
21
1709.06
31
0
0
LINE
8
0
10
535.59
20
1709.06
30
0
11
535.59
21
1738.94
31
0
0
LINE
8
0
10
535.59
20
1738.94
30
0
11
536.09
21
1738.94
31
0
0
LINE
8
0
10
536.09
20
1738.94
30
0
11
536.09
21
1744.06
31
0
0
LINE
8
0
10
536.09
20
1744.06
30
0
11
263.02
21
1744.06
31
0
0
LINE
8
0
10
263.02
20
1744.06
30
0
11
263.02
21
1780
31
0
0
ARC
8
0
10
258.96
20
1780
30
0
40
4.06
50
0
51
90
0
LINE
8
0
10
258.96
20
1784.06
30
0
11
133.27
21
1784.06
31
0
0
ARC
8
0
10
133.27
20
1776
30
0
40
8.06
50
90
51
135
0
LINE
8
0
10
127.57
20
1781.7
30
0
11
85.81
21
1739.93
31
0
0
LINE
8
0
10
85.81
20
1739.93
30
0
11
82.82
21
1735.6
31
0
0
ARC
8
0
10
82.04
20
1736.13
30
0
40
0.943027
50
257.005383
51
325.804395
0
LINE
8
0
10
81.83
20
1735.22
30
0
11
77.49
21
1736.26
31
0
0
LINE
8
0
10
77.49
20
1736.26
30
0
11
10
21
1736.26
31
0
0
ENDSEC
0
EOF
