0
SECTION
2
HEADER
9
$ACADVER
1
AC1009
0
ENDSEC
0
SECTION
2
ENTITIES
0
LINE
8
0
10
1358
20
1784.09
30
0
11
1351.5
21
1787.85
31
0
0
LINE
8
0
10
1351.5
20
1787.85
30
0
11
1351.5
21
1795.35
31
0
0
LINE
8
0
10
1351.5
20
1795.35
30
0
11
1358
21
1799.11
31
0
0
LINE
8
0
10
1358
20
1799.11
30
0
11
1364.5
21
1795.35
31
0
0
LINE
8
0
10
1364.5
20
1795.35
30
0
11
1364.5
21
1787.85
31
0
0
LINE
8
0
10
1364.5
20
1787.85
30
0
11
1358
21
1784.09
31
0
0
LINE
8
0
10
1461.5
20
1787.85
30
0
11
1461.5
21
1795.35
31
0
0
LINE
8
0
10
1461.5
20
1795.35
30
0
11
1468
21
1799.11
31
0
0
LINE
8
0
10
1468
20
1799.11
30
0
11
1474.5
21
1795.35
31
0
0
LINE
8
0
10
1474.5
20
1795.35
30
0
11
1474.5
21
1787.85
31
0
0
LINE
8
0
10
1474.5
20
1787.85
30
0
11
1468
21
1784.09
31
0
0
LINE
8
0
10
1468
20
1784.09
30
0
11
1461.5
21
1787.85
31
0
0
LINE
8
0
10
1468.13
20
1791.82
30
0
11
1471.63
21
1795.31
31
0
0
ARC
8
0
10
1468
20
1791.6
30
0
40
5.190472
50
45.624452
51
45
0
LINE
8
0
10
1429
20
1791.66
30
0
11
1432.94
21
1791.66
31
0
0
ARC
8
0
10
1413
20
1791.6
30
0
40
19.94009
50
0.172404
51
360
0
LINE
8
0
10
1358.13
20
1791.82
30
0
11
1361.63
21
1795.31
31
0
0
ARC
8
0
10
1358
20
1791.6
30
0
40
5.190472
50
45.624452
51
45
0
LINE
8
0
10
1337.94
20
1702.9
30
0
11
1337.94
21
1706.9
31
0
0
LINE
8
0
10
1337.94
20
1706.9
30
0
11
1337.94
21
1721.84
31
0
0
LINE
8
0
10
1337.94
20
1721.84
30
0
11
1334.94
21
1721.84
31
0
0
LINE
8
0
10
1334.94
20
1721.84
30
0
11
1334.94
21
1731.96
31
0
0
LINE
8
0
10
1334.94
20
1731.96
30
0
11
1337.94
21
1731.96
31
0
0
LINE
8
0
10
1337.94
20
1731.96
30
0
11
1337.94
21
1736.96
31
0
0
LINE
8
0
10
1337.94
20
1736.96
30
0
11
1341
21
1736.96
31
0
0
ARC
8
0
10
1341
20
1738.9
30
0
40
1.94
50
270
51
0
0
LINE
8
0
10
1342.94
20
1738.9
30
0
11
1342.94
21
1759.1
31
0
0
ARC
8
0
10
1341
20
1759.1
30
0
40
1.94
50
0
51
90
0
LINE
8
0
10
1341
20
1761.04
30
0
11
1337.94
21
1761.04
31
0
0
LINE
8
0
10
1337.94
20
1761.04
30
0
11
1337.94
21
1798.04
31
0
0
LINE
8
0
10
1337.94
20
1798.04
30
0
11
1334.94
21
1798.04
31
0
0
LINE
8
0
10
1334.94
20
1798.04
30
0
11
1334.94
21
1808.16
31
0
0
LINE
8
0
10
1334.94
20
1808.16
30
0
11
1337.94
21
1808.16
31
0
0
LINE
8
0
10
1337.94
20
1808.16
30
0
11
1337.94
21
1846.12
31
0
0
LINE
8
0
10
1337.94
20
1846.12
30
0
11
1347.98
21
1856.16
31
0
0
LINE
8
0
10
1347.98
20
1856.16
30
0
11
1478.02
21
1856.16
31
0
0
LINE
8
0
10
1478.02
20
1856.16
30
0
11
1488.06
21
1846.12
31
0
0
LINE
8
0
10
1488.06
20
1846.12
30
0
11
1488.06
21
1808.16
31
0
0
LINE
8
0
10
1488.06
20
1808.16
30
0
11
1491.06
21
1808.16
31
0
0
LINE
8
0
10
1491.06
20
1808.16
30
0
11
1491.06
21
1798.04
31
0
0
LINE
8
0
10
1491.06
20
1798.04
30
0
11
1488.06
21
1798.04
31
0
0
LINE
8
0
10
1488.06
20
1798.04
30
0
11
1488.06
21
1761.04
31
0
0
LINE
8
0
10
1488.06
20
1761.04
30
0
11
1485
21
1761.04
31
0
0
ARC
8
0
10
1485
20
1759.1
30
0
40
1.94
50
90
51
180
0
LINE
8
0
10
1483.06
20
1759.1
30
0
11
1483.06
21
1738.9
31
0
0
ARC
8
0
10
1485
20
1738.9
30
0
40
1.94
50
180
51
270
0
LINE
8
0
10
1485
20
1736.96
30
0
11
1488.06
21
1736.96
31
0
0
LINE
8
0
10
1488.06
20
1736.96
30
0
11
1488.06
21
1731.96
31
0
0
LINE
8
0
10
1488.06
20
1731.96
30
0
11
1491.06
21
1731.96
31
0
0
LINE
8
0
10
1491.06
20
1731.96
30
0
11
1491.06
21
1721.84
31
0
0
LINE
8
0
10
1491.06
20
1721.84
30
0
11
1488.06
21
1721.84
31
0
0
LINE
8
0
10
1488.06
20
1721.84
30
0
11
1488.06
21
1706.84
31
0
0
LINE
8
0
10
1488.06
20
1706.84
30
0
11
1338
21
1706.84
31
0
0
ENDSEC
0
EOF
