0
SECTION
2
HEADER
9
$ACADVER
1
AC1009
0
ENDSEC
0
SECTION
2
ENTITIES
0
LINE
8
0
10
144.96
20
993.56
30
0
11
142.6
21
995.93
31
0
0
ARC
8
0
10
145
20
993.6
30
0
40
3.344981
50
135.847867
51
135
0
LINE
8
0
10
87.6
20
1181.69
30
0
11
87.6
21
1186.64
31
0
0
LINE
8
0
10
87.6
20
1186.64
30
0
11
67
21
1186.64
31
0
0
ARC
8
0
10
67
20
1176.69
30
0
40
9.95
50
90
51
180
0
LINE
8
0
10
57.05
20
1176.69
30
0
11
57.05
21
1046.69
31
0
0
ARC
8
0
10
67
20
1046.69
30
0
40
9.95
50
180
51
270
0
LINE
8
0
10
67
20
1036.74
30
0
11
105
21
1036.74
31
0
0
ARC
8
0
10
105
20
1046.69
30
0
40
9.95
50
270
51
0
0
LINE
8
0
10
114.95
20
1046.69
30
0
11
114.95
21
1176.69
31
0
0
ARC
8
0
10
105
20
1176.69
30
0
40
9.95
50
0
51
90
0
LINE
8
0
10
105
20
1186.64
30
0
11
88.3
21
1186.64
31
0
0
LINE
8
0
10
144.96
20
1229.75
30
0
11
142.6
21
1232.12
31
0
0
ARC
8
0
10
145
20
1229.78
30
0
40
3.351955
50
135.725224
51
135
0
LINE
8
0
10
303.77
20
908.55
30
0
11
299.77
21
908.55
31
0
0
LINE
8
0
10
299.77
20
908.55
30
0
11
287.77
21
908.55
31
0
0
ARC
8
0
10
287.77
20
900.6
30
0
40
7.95
50
90
51
180
0
LINE
8
0
10
279.82
20
900.6
30
0
11
279.82
21
888.55
31
0
0
LINE
8
0
10
279.82
20
888.55
30
0
11
45
21
888.55
31
0
0
ARC
8
0
10
45
20
896.6
30
0
40
8.05
50
180
51
270
0
LINE
8
0
10
36.95
20
896.6
30
0
11
36.95
21
957.6
31
0
0
ARC
8
0
10
29
20
957.6
30
0
40
7.95
50
0
51
90
0
LINE
8
0
10
29
20
965.55
30
0
11
15.95
21
965.55
31
0
0
LINE
8
0
10
15.95
20
965.55
30
0
11
15.95
21
970.65
31
0
0
LINE
8
0
10
15.95
20
970.65
30
0
11
18.81
21
970.65
31
0
0
ARC
8
0
10
19
20
970.6
30
0
40
0.196469
50
165.256437
51
104.743563
0
LINE
8
0
10
18.95
20
970.79
30
0
11
18.95
21
1252.59
31
0
0
ARC
8
0
10
19
20
1252.78
30
0
40
0.196469
50
255.256437
51
194.743563
0
LINE
8
0
10
18.81
20
1252.73
30
0
11
15.95
21
1252.73
31
0
0
LINE
8
0
10
15.95
20
1252.73
30
0
11
15.95
21
1257.83
31
0
0
LINE
8
0
10
15.95
20
1257.83
30
0
11
29
21
1257.83
31
0
0
ARC
8
0
10
29
20
1265.78
30
0
40
7.95
50
270
51
0
0
LINE
8
0
10
36.95
20
1265.78
30
0
11
36.95
21
1326.78
31
0
0
ARC
8
0
10
45
20
1326.78
30
0
40
8.05
50
90
51
180
0
LINE
8
0
10
45
20
1334.83
30
0
11
279.82
21
1334.83
31
0
0
LINE
8
0
10
279.82
20
1334.83
30
0
11
279.82
21
1322.78
31
0
0
ARC
8
0
10
287.77
20
1322.78
30
0
40
7.95
50
180
51
270
0
LINE
8
0
10
287.77
20
1314.83
30
0
11
299.82
21
1314.83
31
0
0
LINE
8
0
10
299.82
20
1314.83
30
0
11
299.82
21
1280.2
31
0
0
LINE
8
0
10
299.82
20
1280.2
30
0
11
173.68
21
1215.93
31
0
0
LINE
8
0
10
173.68
20
1215.93
30
0
11
159.82
21
1215.93
31
0
0
LINE
8
0
10
159.82
20
1215.93
30
0
11
159.82
21
1210.54
31
0
0
LINE
8
0
10
159.82
20
1210.54
30
0
11
317.56
21
1210.54
31
0
0
LINE
8
0
10
317.56
20
1210.54
30
0
11
317.56
21
1131.64
31
0
0
LINE
8
0
10
317.56
20
1131.64
30
0
11
307.51
21
1131.64
31
0
0
ARC
8
0
10
307.51
20
1121.69
30
0
40
9.95
50
90
51
180
0
LINE
8
0
10
297.56
20
1121.69
30
0
11
297.56
21
1101.69
31
0
0
ARC
8
0
10
307.51
20
1101.69
30
0
40
9.95
50
180
51
270
0
LINE
8
0
10
307.51
20
1091.74
30
0
11
317.56
21
1091.74
31
0
0
LINE
8
0
10
317.56
20
1091.74
30
0
11
317.56
21
1012.84
31
0
0
LINE
8
0
10
317.56
20
1012.84
30
0
11
159.82
21
1012.84
31
0
0
LINE
8
0
10
159.82
20
1012.84
30
0
11
159.82
21
1007.45
31
0
0
LINE
8
0
10
159.82
20
1007.45
30
0
11
173.68
21
1007.45
31
0
0
LINE
8
0
10
173.68
20
1007.45
30
0
11
299.82
21
943.18
31
0
0
LINE
8
0
10
299.82
20
943.18
30
0
11
299.82
21
908.6
31
0
0
ENDSEC
0
EOF
