0
SECTION
2
HEADER
9
$ACADVER
1
AC1009
0
ENDSEC
0
SECTION
2
ENTITIES
0
LINE
8
0
10
463.38
20
480
30
0
11
463.38
21
477.05
31
0
0
ARC
8
0
10
463.33
20
507
30
0
40
29.950042
50
270.095652
51
270
0
LINE
8
0
10
463.38
20
180
30
0
11
463.38
21
177.05
31
0
0
ARC
8
0
10
463.33
20
207
30
0
40
29.950042
50
270.095652
51
270
0
LINE
8
0
10
317.15
20
660
30
0
11
317.15
21
657
31
0
0
LINE
8
0
10
317.15
20
657
30
0
11
317.15
21
14.95
31
0
0
LINE
8
0
10
317.15
20
14.95
30
0
11
382.25
21
14.95
31
0
0
LINE
8
0
10
382.25
20
14.95
30
0
11
382.25
21
34.95
31
0
0
LINE
8
0
10
382.25
20
34.95
30
0
11
393.33
21
34.95
31
0
0
ARC
8
0
10
393.33
20
15
30
0
40
19.95
50
359.856402
51
90
0
LINE
8
0
10
413.28
20
14.95
30
0
11
448.38
21
14.95
31
0
0
ARC
8
0
10
463.33
20
15
30
0
40
14.950084
50
359.808376
51
180.191624
0
LINE
8
0
10
478.28
20
14.95
30
0
11
513.38
21
14.95
31
0
0
ARC
8
0
10
533.33
20
15
30
0
40
19.950063
50
90
51
180.143598
0
LINE
8
0
10
533.33
20
34.95
30
0
11
544.41
21
34.95
31
0
0
LINE
8
0
10
544.41
20
34.95
30
0
11
544.41
21
14.95
31
0
0
LINE
8
0
10
544.41
20
14.95
30
0
11
609.51
21
14.95
31
0
0
LINE
8
0
10
609.51
20
14.95
30
0
11
609.51
21
657.05
31
0
0
LINE
8
0
10
609.51
20
657.05
30
0
11
603.41
21
657.05
31
0
0
LINE
8
0
10
603.41
20
657.05
30
0
11
603.41
21
655.55
31
0
0
LINE
8
0
10
603.41
20
655.55
30
0
11
544.41
21
655.55
31
0
0
LINE
8
0
10
544.41
20
655.55
30
0
11
544.41
21
651.05
31
0
0
LINE
8
0
10
544.41
20
651.05
30
0
11
533.38
21
651.05
31
0
0
LINE
8
0
10
533.38
20
651.05
30
0
11
533.38
21
656.95
31
0
0
LINE
8
0
10
533.38
20
656.95
30
0
11
538.38
21
656.95
31
0
0
LINE
8
0
10
538.38
20
656.95
30
0
11
538.38
21
707.02
31
0
0
LINE
8
0
10
538.38
20
707.02
30
0
11
503.35
21
742.05
31
0
0
LINE
8
0
10
503.35
20
742.05
30
0
11
483.38
21
742.05
31
0
0
LINE
8
0
10
483.38
20
742.05
30
0
11
483.38
21
744.5
31
0
0
ARC
8
0
10
482.83
20
744.5
30
0
40
0.55
50
0
51
90
0
LINE
8
0
10
482.83
20
745.05
30
0
11
443.83
21
745.05
31
0
0
ARC
8
0
10
443.83
20
744.5
30
0
40
0.55
50
90
51
180
0
LINE
8
0
10
443.28
20
744.5
30
0
11
443.28
21
742.05
31
0
0
LINE
8
0
10
443.28
20
742.05
30
0
11
423.31
21
742.05
31
0
0
LINE
8
0
10
423.31
20
742.05
30
0
11
388.28
21
707.02
31
0
0
LINE
8
0
10
388.28
20
707.02
30
0
11
388.28
21
656.95
31
0
0
LINE
8
0
10
388.28
20
656.95
30
0
11
393.28
21
656.95
31
0
0
LINE
8
0
10
393.28
20
656.95
30
0
11
393.28
21
651.05
31
0
0
LINE
8
0
10
393.28
20
651.05
30
0
11
382.25
21
651.05
31
0
0
LINE
8
0
10
382.25
20
651.05
30
0
11
382.25
21
655.55
31
0
0
LINE
8
0
10
382.25
20
655.55
30
0
11
323.25
21
655.55
31
0
0
LINE
8
0
10
323.25
20
655.55
30
0
11
323.25
21
657.05
31
0
0
LINE
8
0
10
323.25
20
657.05
30
0
11
317.2
21
657.05
31
0
0
ENDSEC
0
EOF
