0
SECTION
2
HEADER
9
$ACADVER
1
AC1009
0
ENDSEC
0
SECTION
2
ENTITIES
0
LINE
8
0
10
778.5
20
971.85
30
0
11
784
21
971.85
31
0
0
ARC
8
0
10
784
20
969
30
0
40
2.85
50
0
51
90
0
LINE
8
0
10
786.85
20
969
30
0
11
786.85
21
950
31
0
0
ARC
8
0
10
784
20
950
30
0
40
2.85
50
270
51
0
0
LINE
8
0
10
784
20
947.15
30
0
11
773
21
947.15
31
0
0
ARC
8
0
10
773
20
950
30
0
40
2.85
50
180
51
270
0
LINE
8
0
10
770.15
20
950
30
0
11
770.15
21
969
31
0
0
ARC
8
0
10
773
20
969
30
0
40
2.85
50
90
51
180
0
LINE
8
0
10
773
20
971.85
30
0
11
778.5
21
971.85
31
0
0
LINE
8
0
10
772.9
20
881
30
0
11
772.9
21
885.85
31
0
0
LINE
8
0
10
772.9
20
885.85
30
0
11
769.85
21
885.85
31
0
0
LINE
8
0
10
769.85
20
885.85
30
0
11
769.85
21
888.35
31
0
0
LINE
8
0
10
769.85
20
888.35
30
0
11
762.94
21
888.35
31
0
0
LINE
8
0
10
762.94
20
888.35
30
0
11
754.85
21
896.44
31
0
0
LINE
8
0
10
754.85
20
896.44
30
0
11
754.85
21
1067.56
31
0
0
LINE
8
0
10
754.85
20
1067.56
30
0
11
762.94
21
1075.65
31
0
0
LINE
8
0
10
762.94
20
1075.65
30
0
11
800.12
21
1075.65
31
0
0
LINE
8
0
10
800.12
20
1075.65
30
0
11
807.39
21
1036.12
31
0
0
ARC
8
0
10
812.16
20
1037
30
0
40
4.850495
50
190.452761
51
270
0
LINE
8
0
10
812.16
20
1032.15
30
0
11
820.15
21
1032.15
31
0
0
LINE
8
0
10
820.15
20
1032.15
30
0
11
820.15
21
988.65
31
0
0
LINE
8
0
10
820.15
20
988.65
30
0
11
822.65
21
988.65
31
0
0
LINE
8
0
10
822.65
20
988.65
30
0
11
822.65
21
978.35
31
0
0
LINE
8
0
10
822.65
20
978.35
30
0
11
820.15
21
978.35
31
0
0
LINE
8
0
10
820.15
20
978.35
30
0
11
820.15
21
931.85
31
0
0
LINE
8
0
10
820.15
20
931.85
30
0
11
812.16
21
931.85
31
0
0
ARC
8
0
10
812.16
20
927
30
0
40
4.85
50
90
51
169.547239
0
LINE
8
0
10
807.39
20
927.88
30
0
11
800.12
21
888.35
31
0
0
LINE
8
0
10
800.12
20
888.35
30
0
11
780.15
21
888.35
31
0
0
LINE
8
0
10
780.15
20
888.35
30
0
11
780.15
21
885.85
31
0
0
LINE
8
0
10
780.15
20
885.85
30
0
11
773.8
21
885.85
31
0
0
ENDSEC
0
EOF
