0
SECTION
2
HEADER
9
$ACADVER
1
AC1009
0
ENDSEC
0
SECTION
2
ENTITIES
0
LINE
8
0
10
1456.86
20
963.69
30
0
11
1465.36
21
968.59
31
0
0
LINE
8
0
10
1465.36
20
968.59
30
0
11
1465.36
21
978.41
31
0
0
LINE
8
0
10
1465.36
20
978.41
30
0
11
1456.86
21
983.31
31
0
0
LINE
8
0
10
1456.86
20
983.31
30
0
11
1448.36
21
978.41
31
0
0
LINE
8
0
10
1448.36
20
978.41
30
0
11
1448.36
21
968.59
31
0
0
LINE
8
0
10
1448.36
20
968.59
30
0
11
1456.86
21
963.69
31
0
0
LINE
8
0
10
1456.86
20
1413.69
30
0
11
1465.36
21
1418.59
31
0
0
LINE
8
0
10
1465.36
20
1418.59
30
0
11
1465.36
21
1428.41
31
0
0
LINE
8
0
10
1465.36
20
1428.41
30
0
11
1456.86
21
1433.31
31
0
0
LINE
8
0
10
1456.86
20
1433.31
30
0
11
1448.36
21
1428.41
31
0
0
LINE
8
0
10
1448.36
20
1428.41
30
0
11
1448.36
21
1418.59
31
0
0
LINE
8
0
10
1448.36
20
1418.59
30
0
11
1456.86
21
1413.69
31
0
0
LINE
8
0
10
1456.86
20
1863.69
30
0
11
1465.36
21
1868.59
31
0
0
LINE
8
0
10
1465.36
20
1868.59
30
0
11
1465.36
21
1878.41
31
0
0
LINE
8
0
10
1465.36
20
1878.41
30
0
11
1456.86
21
1883.31
31
0
0
LINE
8
0
10
1456.86
20
1883.31
30
0
11
1448.36
21
1878.41
31
0
0
LINE
8
0
10
1448.36
20
1878.41
30
0
11
1448.36
21
1868.59
31
0
0
LINE
8
0
10
1448.36
20
1868.59
30
0
11
1456.86
21
1863.69
31
0
0
LINE
8
0
10
1346.5
20
1903.33
30
0
11
1346.5
21
1906.19
31
0
0
LINE
8
0
10
1346.5
20
1907.08
30
0
11
1336.5
21
1907.08
31
0
0
LINE
8
0
10
1336.5
20
1907.08
30
0
11
1346.5
21
1914.23
31
0
0
LINE
8
0
10
1346.5
20
1914.23
30
0
11
1336.5
21
1914.23
31
0
0
LINE
8
0
10
1336.5
20
1915.12
30
0
11
1336.5
21
1922.26
31
0
0
LINE
8
0
10
1336.5
20
1918.69
30
0
11
1346.5
21
1918.69
31
0
0
LINE
8
0
10
1346.5
20
1904.76
30
0
11
1336.5
21
1904.76
31
0
0
LINE
8
0
10
1336.5
20
1903.33
30
0
11
1336.5
21
1906.19
31
0
0
LINE
8
0
10
1456.86
20
2313.69
30
0
11
1465.36
21
2318.59
31
0
0
LINE
8
0
10
1465.36
20
2318.59
30
0
11
1465.36
21
2328.41
31
0
0
LINE
8
0
10
1465.36
20
2328.41
30
0
11
1456.86
21
2333.31
31
0
0
LINE
8
0
10
1456.86
20
2333.31
30
0
11
1448.36
21
2328.41
31
0
0
LINE
8
0
10
1448.36
20
2328.41
30
0
11
1448.36
21
2318.59
31
0
0
LINE
8
0
10
1448.36
20
2318.59
30
0
11
1456.86
21
2313.69
31
0
0
LINE
8
0
10
1456.86
20
2763.69
30
0
11
1465.36
21
2768.59
31
0
0
LINE
8
0
10
1465.36
20
2768.59
30
0
11
1465.36
21
2778.41
31
0
0
LINE
8
0
10
1465.36
20
2778.41
30
0
11
1456.86
21
2783.31
31
0
0
LINE
8
0
10
1456.86
20
2783.31
30
0
11
1448.36
21
2778.41
31
0
0
LINE
8
0
10
1448.36
20
2778.41
30
0
11
1448.36
21
2768.59
31
0
0
LINE
8
0
10
1448.36
20
2768.59
30
0
11
1456.86
21
2763.69
31
0
0
LINE
8
0
10
1454.52
20
2775.76
30
0
11
1452.44
21
2777.85
31
0
0
ARC
8
0
10
1456.86
20
2773.5
30
0
40
6.201524
50
135.457311
51
135.065332
0
LINE
8
0
10
1318.6
20
2856.06
30
0
11
1316.52
21
2858.14
31
0
0
ARC
8
0
10
1337.73
20
2837
30
0
40
29.946013
50
135.094704
51
135
0
LINE
8
0
10
1318.6
20
2556.06
30
0
11
1316.52
21
2558.14
31
0
0
ARC
8
0
10
1337.73
20
2537
30
0
40
29.946013
50
135.094704
51
135
0
LINE
8
0
10
1261.23
20
2503.55
30
0
11
1264.23
21
2503.55
31
0
0
LINE
8
0
10
1264.23
20
2503.55
30
0
11
1267.68
21
2503.55
31
0
0
LINE
8
0
10
1267.68
20
2503.55
30
0
11
1267.68
21
2504.95
31
0
0
LINE
8
0
10
1267.68
20
2504.95
30
0
11
1257.78
21
2504.95
31
0
0
LINE
8
0
10
1257.78
20
2504.95
30
0
11
1257.78
21
2495.05
31
0
0
LINE
8
0
10
1257.78
20
2495.05
30
0
11
1261.32
21
2495.05
31
0
0
LINE
8
0
10
1261.32
20
2495.05
30
0
11
1262.35
21
2494.02
31
0
0
LINE
8
0
10
1262.35
20
2494.02
30
0
11
1262.35
21
2389.98
31
0
0
LINE
8
0
10
1262.35
20
2389.98
30
0
11
1261.32
21
2388.95
31
0
0
LINE
8
0
10
1261.32
20
2388.95
30
0
11
1257.78
21
2388.95
31
0
0
LINE
8
0
10
1257.78
20
2388.95
30
0
11
1257.78
21
2379.05
31
0
0
LINE
8
0
10
1257.78
20
2379.05
30
0
11
1267.68
21
2379.05
31
0
0
LINE
8
0
10
1267.68
20
2379.05
30
0
11
1267.68
21
2380.45
31
0
0
LINE
8
0
10
1267.68
20
2380.45
30
0
11
1264.18
21
2380.45
31
0
0
LINE
8
0
10
1264.18
20
2380.45
30
0
11
1264.18
21
2503.5
31
0
0
LINE
8
0
10
1287.88
20
2442
30
0
11
1287.88
21
2444.55
31
0
0
LINE
8
0
10
1287.88
20
2444.55
30
0
11
1293.58
21
2444.55
31
0
0
LINE
8
0
10
1293.58
20
2444.55
30
0
11
1293.58
21
2439.45
31
0
0
LINE
8
0
10
1293.58
20
2439.45
30
0
11
1287.88
21
2439.45
31
0
0
LINE
8
0
10
1287.88
20
2439.45
30
0
11
1287.88
21
2442
31
0
0
LINE
8
0
10
1414.23
20
2503.55
30
0
11
1411.23
21
2503.55
31
0
0
LINE
8
0
10
1411.23
20
2503.55
30
0
11
1407.78
21
2503.55
31
0
0
LINE
8
0
10
1407.78
20
2503.55
30
0
11
1407.78
21
2504.95
31
0
0
LINE
8
0
10
1407.78
20
2504.95
30
0
11
1417.68
21
2504.95
31
0
0
LINE
8
0
10
1417.68
20
2504.95
30
0
11
1417.68
21
2495.05
31
0
0
LINE
8
0
10
1417.68
20
2495.05
30
0
11
1414.14
21
2495.05
31
0
0
LINE
8
0
10
1414.14
20
2495.05
30
0
11
1413.11
21
2494.02
31
0
0
LINE
8
0
10
1413.11
20
2494.02
30
0
11
1413.11
21
2389.98
31
0
0
LINE
8
0
10
1413.11
20
2389.98
30
0
11
1414.14
21
2388.95
31
0
0
LINE
8
0
10
1414.14
20
2388.95
30
0
11
1417.68
21
2388.95
31
0
0
LINE
8
0
10
1417.68
20
2388.95
30
0
11
1417.68
21
2379.05
31
0
0
LINE
8
0
10
1417.68
20
2379.05
30
0
11
1407.78
21
2379.05
31
0
0
LINE
8
0
10
1407.78
20
2379.05
30
0
11
1407.78
21
2380.45
31
0
0
LINE
8
0
10
1407.78
20
2380.45
30
0
11
1411.28
21
2380.45
31
0
0
LINE
8
0
10
1411.28
20
2380.45
30
0
11
1411.28
21
2503.5
31
0
0
LINE
8
0
10
1454.52
20
2325.76
30
0
11
1452.44
21
2327.85
31
0
0
ARC
8
0
10
1456.86
20
2323.5
30
0
40
6.201524
50
135.457311
51
135.065332
0
LINE
8
0
10
1318.6
20
2206.06
30
0
11
1316.52
21
2208.14
31
0
0
ARC
8
0
10
1337.73
20
2187
30
0
40
29.946013
50
135.094704
51
135
0
LINE
8
0
10
1261.23
20
1953.55
30
0
11
1264.23
21
1953.55
31
0
0
LINE
8
0
10
1264.23
20
1953.55
30
0
11
1267.68
21
1953.55
31
0
0
LINE
8
0
10
1267.68
20
1953.55
30
0
11
1267.68
21
1954.95
31
0
0
LINE
8
0
10
1267.68
20
1954.95
30
0
11
1257.78
21
1954.95
31
0
0
LINE
8
0
10
1257.78
20
1954.95
30
0
11
1257.78
21
1945.05
31
0
0
LINE
8
0
10
1257.78
20
1945.05
30
0
11
1261.32
21
1945.05
31
0
0
LINE
8
0
10
1261.32
20
1945.05
30
0
11
1262.35
21
1944.02
31
0
0
LINE
8
0
10
1262.35
20
1944.02
30
0
11
1262.35
21
1839.98
31
0
0
LINE
8
0
10
1262.35
20
1839.98
30
0
11
1261.32
21
1838.95
31
0
0
LINE
8
0
10
1261.32
20
1838.95
30
0
11
1257.78
21
1838.95
31
0
0
LINE
8
0
10
1257.78
20
1838.95
30
0
11
1257.78
21
1829.05
31
0
0
LINE
8
0
10
1257.78
20
1829.05
30
0
11
1267.68
21
1829.05
31
0
0
LINE
8
0
10
1267.68
20
1829.05
30
0
11
1267.68
21
1830.45
31
0
0
LINE
8
0
10
1267.68
20
1830.45
30
0
11
1264.18
21
1830.45
31
0
0
LINE
8
0
10
1264.18
20
1830.45
30
0
11
1264.18
21
1953.5
31
0
0
LINE
8
0
10
1287.88
20
1892
30
0
11
1287.88
21
1894.55
31
0
0
LINE
8
0
10
1287.88
20
1894.55
30
0
11
1293.58
21
1894.55
31
0
0
LINE
8
0
10
1293.58
20
1894.55
30
0
11
1293.58
21
1889.45
31
0
0
LINE
8
0
10
1293.58
20
1889.45
30
0
11
1287.88
21
1889.45
31
0
0
LINE
8
0
10
1287.88
20
1889.45
30
0
11
1287.88
21
1892
31
0
0
LINE
8
0
10
1414.23
20
1953.55
30
0
11
1411.23
21
1953.55
31
0
0
LINE
8
0
10
1411.23
20
1953.55
30
0
11
1407.78
21
1953.55
31
0
0
LINE
8
0
10
1407.78
20
1953.55
30
0
11
1407.78
21
1954.95
31
0
0
LINE
8
0
10
1407.78
20
1954.95
30
0
11
1417.68
21
1954.95
31
0
0
LINE
8
0
10
1417.68
20
1954.95
30
0
11
1417.68
21
1945.05
31
0
0
LINE
8
0
10
1417.68
20
1945.05
30
0
11
1414.14
21
1945.05
31
0
0
LINE
8
0
10
1414.14
20
1945.05
30
0
11
1413.11
21
1944.02
31
0
0
LINE
8
0
10
1413.11
20
1944.02
30
0
11
1413.11
21
1839.98
31
0
0
LINE
8
0
10
1413.11
20
1839.98
30
0
11
1414.14
21
1838.95
31
0
0
LINE
8
0
10
1414.14
20
1838.95
30
0
11
1417.68
21
1838.95
31
0
0
LINE
8
0
10
1417.68
20
1838.95
30
0
11
1417.68
21
1829.05
31
0
0
LINE
8
0
10
1417.68
20
1829.05
30
0
11
1407.78
21
1829.05
31
0
0
LINE
8
0
10
1407.78
20
1829.05
30
0
11
1407.78
21
1830.45
31
0
0
LINE
8
0
10
1407.78
20
1830.45
30
0
11
1411.28
21
1830.45
31
0
0
LINE
8
0
10
1411.28
20
1830.45
30
0
11
1411.28
21
1953.5
31
0
0
LINE
8
0
10
1454.52
20
1875.76
30
0
11
1452.44
21
1877.85
31
0
0
ARC
8
0
10
1456.86
20
1873.5
30
0
40
6.201524
50
135.457311
51
135.065332
0
LINE
8
0
10
1318.6
20
1538.56
30
0
11
1316.52
21
1540.64
31
0
0
ARC
8
0
10
1337.73
20
1519.5
30
0
40
29.946013
50
135.094704
51
135
0
LINE
8
0
10
1261.23
20
1403.55
30
0
11
1264.23
21
1403.55
31
0
0
LINE
8
0
10
1264.23
20
1403.55
30
0
11
1267.68
21
1403.55
31
0
0
LINE
8
0
10
1267.68
20
1403.55
30
0
11
1267.68
21
1404.95
31
0
0
LINE
8
0
10
1267.68
20
1404.95
30
0
11
1257.78
21
1404.95
31
0
0
LINE
8
0
10
1257.78
20
1404.95
30
0
11
1257.78
21
1395.05
31
0
0
LINE
8
0
10
1257.78
20
1395.05
30
0
11
1261.32
21
1395.05
31
0
0
LINE
8
0
10
1261.32
20
1395.05
30
0
11
1262.35
21
1394.02
31
0
0
LINE
8
0
10
1262.35
20
1394.02
30
0
11
1262.35
21
1289.98
31
0
0
LINE
8
0
10
1262.35
20
1289.98
30
0
11
1261.32
21
1288.95
31
0
0
LINE
8
0
10
1261.32
20
1288.95
30
0
11
1257.78
21
1288.95
31
0
0
LINE
8
0
10
1257.78
20
1288.95
30
0
11
1257.78
21
1279.05
31
0
0
LINE
8
0
10
1257.78
20
1279.05
30
0
11
1267.68
21
1279.05
31
0
0
LINE
8
0
10
1267.68
20
1279.05
30
0
11
1267.68
21
1280.45
31
0
0
LINE
8
0
10
1267.68
20
1280.45
30
0
11
1264.18
21
1280.45
31
0
0
LINE
8
0
10
1264.18
20
1280.45
30
0
11
1264.18
21
1403.5
31
0
0
LINE
8
0
10
1287.88
20
1342
30
0
11
1287.88
21
1344.55
31
0
0
LINE
8
0
10
1287.88
20
1344.55
30
0
11
1293.58
21
1344.55
31
0
0
LINE
8
0
10
1293.58
20
1344.55
30
0
11
1293.58
21
1339.45
31
0
0
LINE
8
0
10
1293.58
20
1339.45
30
0
11
1287.88
21
1339.45
31
0
0
LINE
8
0
10
1287.88
20
1339.45
30
0
11
1287.88
21
1342
31
0
0
LINE
8
0
10
1414.23
20
1403.55
30
0
11
1411.23
21
1403.55
31
0
0
LINE
8
0
10
1411.23
20
1403.55
30
0
11
1407.78
21
1403.55
31
0
0
LINE
8
0
10
1407.78
20
1403.55
30
0
11
1407.78
21
1404.95
31
0
0
LINE
8
0
10
1407.78
20
1404.95
30
0
11
1417.68
21
1404.95
31
0
0
LINE
8
0
10
1417.68
20
1404.95
30
0
11
1417.68
21
1395.05
31
0
0
LINE
8
0
10
1417.68
20
1395.05
30
0
11
1414.14
21
1395.05
31
0
0
LINE
8
0
10
1414.14
20
1395.05
30
0
11
1413.11
21
1394.02
31
0
0
LINE
8
0
10
1413.11
20
1394.02
30
0
11
1413.11
21
1289.98
31
0
0
LINE
8
0
10
1413.11
20
1289.98
30
0
11
1414.14
21
1288.95
31
0
0
LINE
8
0
10
1414.14
20
1288.95
30
0
11
1417.68
21
1288.95
31
0
0
LINE
8
0
10
1417.68
20
1288.95
30
0
11
1417.68
21
1279.05
31
0
0
LINE
8
0
10
1417.68
20
1279.05
30
0
11
1407.78
21
1279.05
31
0
0
LINE
8
0
10
1407.78
20
1279.05
30
0
11
1407.78
21
1280.45
31
0
0
LINE
8
0
10
1407.78
20
1280.45
30
0
11
1411.28
21
1280.45
31
0
0
LINE
8
0
10
1411.28
20
1280.45
30
0
11
1411.28
21
1403.5
31
0
0
LINE
8
0
10
1454.52
20
1425.76
30
0
11
1452.44
21
1427.85
31
0
0
ARC
8
0
10
1456.86
20
1423.5
30
0
40
6.201524
50
135.457311
51
135.065332
0
LINE
8
0
10
1318.6
20
1188.56
30
0
11
1316.52
21
1190.64
31
0
0
ARC
8
0
10
1337.73
20
1169.5
30
0
40
29.946013
50
135.094704
51
135
0
LINE
8
0
10
1454.52
20
975.76
30
0
11
1452.44
21
977.85
31
0
0
ARC
8
0
10
1456.86
20
973.5
30
0
40
6.201524
50
135.457311
51
135.065332
0
LINE
8
0
10
1318.6
20
888.56
30
0
11
1316.52
21
890.64
31
0
0
ARC
8
0
10
1337.73
20
869.5
30
0
40
29.946013
50
135.094704
51
135
0
LINE
8
0
10
1381.73
20
725.45
30
0
11
1378.73
21
725.45
31
0
0
LINE
8
0
10
1378.73
20
725.45
30
0
11
1357.28
21
725.45
31
0
0
LINE
8
0
10
1357.28
20
725.45
30
0
11
1357.28
21
722
31
0
0
ARC
8
0
10
1356.73
20
722
30
0
40
0.55
50
270
51
0
0
LINE
8
0
10
1356.73
20
721.45
30
0
11
1318.73
21
721.45
31
0
0
ARC
8
0
10
1318.73
20
722
30
0
40
0.55
50
180
51
270
0
LINE
8
0
10
1318.18
20
722
30
0
11
1318.18
21
725.45
31
0
0
LINE
8
0
10
1318.18
20
725.45
30
0
11
1296.71
21
725.45
31
0
0
LINE
8
0
10
1296.71
20
725.45
30
0
11
1263.18
21
759.48
31
0
0
LINE
8
0
10
1263.18
20
759.48
30
0
11
1263.18
21
854.55
31
0
0
LINE
8
0
10
1263.18
20
854.55
30
0
11
1267.68
21
854.55
31
0
0
LINE
8
0
10
1267.68
20
854.55
30
0
11
1267.68
21
860.45
31
0
0
LINE
8
0
10
1267.68
20
860.45
30
0
11
1256.65
21
860.45
31
0
0
LINE
8
0
10
1256.65
20
860.45
30
0
11
1256.65
21
855.95
31
0
0
LINE
8
0
10
1256.65
20
855.95
30
0
11
1197.65
21
855.95
31
0
0
LINE
8
0
10
1197.65
20
855.95
30
0
11
1197.65
21
854.45
31
0
0
LINE
8
0
10
1197.65
20
854.45
30
0
11
1191.55
21
854.45
31
0
0
LINE
8
0
10
1191.55
20
854.45
30
0
11
1191.55
21
1339.45
31
0
0
LINE
8
0
10
1191.55
20
1339.45
30
0
11
1197.25
21
1339.45
31
0
0
LINE
8
0
10
1197.25
20
1339.45
30
0
11
1197.25
21
1344.55
31
0
0
LINE
8
0
10
1197.25
20
1344.55
30
0
11
1191.55
21
1344.55
31
0
0
LINE
8
0
10
1191.55
20
1344.55
30
0
11
1191.55
21
1889.45
31
0
0
LINE
8
0
10
1191.55
20
1889.45
30
0
11
1197.25
21
1889.45
31
0
0
LINE
8
0
10
1197.25
20
1889.45
30
0
11
1197.25
21
1894.55
31
0
0
LINE
8
0
10
1197.25
20
1894.55
30
0
11
1191.55
21
1894.55
31
0
0
LINE
8
0
10
1191.55
20
1894.55
30
0
11
1191.55
21
2439.45
31
0
0
LINE
8
0
10
1191.55
20
2439.45
30
0
11
1197.25
21
2439.45
31
0
0
LINE
8
0
10
1197.25
20
2439.45
30
0
11
1197.25
21
2444.55
31
0
0
LINE
8
0
10
1197.25
20
2444.55
30
0
11
1191.55
21
2444.55
31
0
0
LINE
8
0
10
1191.55
20
2444.55
30
0
11
1191.55
21
2895.55
31
0
0
LINE
8
0
10
1191.55
20
2895.55
30
0
11
1197.65
21
2895.55
31
0
0
LINE
8
0
10
1197.65
20
2895.55
30
0
11
1197.65
21
2894.05
31
0
0
LINE
8
0
10
1197.65
20
2894.05
30
0
11
1256.65
21
2894.05
31
0
0
LINE
8
0
10
1256.65
20
2894.05
30
0
11
1256.65
21
2891.05
31
0
0
LINE
8
0
10
1256.65
20
2891.05
30
0
11
1267.68
21
2891.05
31
0
0
LINE
8
0
10
1267.68
20
2891.05
30
0
11
1267.68
21
2896.95
31
0
0
LINE
8
0
10
1267.68
20
2896.95
30
0
11
1263.18
21
2896.95
31
0
0
LINE
8
0
10
1263.18
20
2896.95
30
0
11
1263.18
21
2947.02
31
0
0
LINE
8
0
10
1263.18
20
2947.02
30
0
11
1296.71
21
2980.05
31
0
0
LINE
8
0
10
1296.71
20
2980.05
30
0
11
1318.18
21
2980.05
31
0
0
LINE
8
0
10
1318.18
20
2980.05
30
0
11
1318.18
21
2984.5
31
0
0
ARC
8
0
10
1318.73
20
2984.5
30
0
40
0.55
50
90
51
180
0
LINE
8
0
10
1318.73
20
2985.05
30
0
11
1356.73
21
2985.05
31
0
0
ARC
8
0
10
1356.73
20
2984.5
30
0
40
0.55
50
0
51
90
0
LINE
8
0
10
1357.28
20
2984.5
30
0
11
1357.28
21
2980.05
31
0
0
LINE
8
0
10
1357.28
20
2980.05
30
0
11
1378.75
21
2980.05
31
0
0
LINE
8
0
10
1378.75
20
2980.05
30
0
11
1412.28
21
2947.02
31
0
0
LINE
8
0
10
1412.28
20
2947.02
30
0
11
1412.28
21
2896.95
31
0
0
LINE
8
0
10
1412.28
20
2896.95
30
0
11
1407.78
21
2896.95
31
0
0
LINE
8
0
10
1407.78
20
2896.95
30
0
11
1407.78
21
2891.05
31
0
0
LINE
8
0
10
1407.78
20
2891.05
30
0
11
1418.81
21
2891.05
31
0
0
LINE
8
0
10
1418.81
20
2891.05
30
0
11
1418.81
21
2894.05
31
0
0
LINE
8
0
10
1418.81
20
2894.05
30
0
11
1477.81
21
2894.05
31
0
0
LINE
8
0
10
1477.81
20
2894.05
30
0
11
1477.81
21
2895.55
31
0
0
LINE
8
0
10
1477.81
20
2895.55
30
0
11
1483.91
21
2895.55
31
0
0
LINE
8
0
10
1483.91
20
2895.55
30
0
11
1483.91
21
2444.55
31
0
0
LINE
8
0
10
1483.91
20
2444.55
30
0
11
1478.21
21
2444.55
31
0
0
LINE
8
0
10
1478.21
20
2444.55
30
0
11
1478.21
21
2439.45
31
0
0
LINE
8
0
10
1478.21
20
2439.45
30
0
11
1483.91
21
2439.45
31
0
0
LINE
8
0
10
1483.91
20
2439.45
30
0
11
1483.91
21
1894.55
31
0
0
LINE
8
0
10
1483.91
20
1894.55
30
0
11
1478.21
21
1894.55
31
0
0
LINE
8
0
10
1478.21
20
1894.55
30
0
11
1478.21
21
1889.45
31
0
0
LINE
8
0
10
1478.21
20
1889.45
30
0
11
1483.91
21
1889.45
31
0
0
LINE
8
0
10
1483.91
20
1889.45
30
0
11
1483.91
21
1344.55
31
0
0
LINE
8
0
10
1483.91
20
1344.55
30
0
11
1478.21
21
1344.55
31
0
0
LINE
8
0
10
1478.21
20
1344.55
30
0
11
1478.21
21
1339.45
31
0
0
LINE
8
0
10
1478.21
20
1339.45
30
0
11
1483.91
21
1339.45
31
0
0
LINE
8
0
10
1483.91
20
1339.45
30
0
11
1483.91
21
854.45
31
0
0
LINE
8
0
10
1483.91
20
854.45
30
0
11
1477.81
21
854.45
31
0
0
LINE
8
0
10
1477.81
20
854.45
30
0
11
1477.81
21
855.95
31
0
0
LINE
8
0
10
1477.81
20
855.95
30
0
11
1418.81
21
855.95
31
0
0
LINE
8
0
10
1418.81
20
855.95
30
0
11
1418.81
21
860.45
31
0
0
LINE
8
0
10
1418.81
20
860.45
30
0
11
1407.78
21
860.45
31
0
0
LINE
8
0
10
1407.78
20
860.45
30
0
11
1407.78
21
854.55
31
0
0
LINE
8
0
10
1407.78
20
854.55
30
0
11
1412.28
21
854.55
31
0
0
LINE
8
0
10
1412.28
20
854.55
30
0
11
1412.28
21
759.48
31
0
0
LINE
8
0
10
1412.28
20
759.48
30
0
11
1378.76
21
725.46
31
0
0
ENDSEC
0
EOF
