0
SECTION
2
HEADER
9
$ACADVER
1
AC1009
0
ENDSEC
0
SECTION
2
ENTITIES
0
LINE
8
0
10
848.98
20
1599.1
30
0
11
852.74
21
1605.6
31
0
0
LINE
8
0
10
852.74
20
1605.6
30
0
11
848.98
21
1612.1
31
0
0
LINE
8
0
10
848.98
20
1612.1
30
0
11
841.48
21
1612.1
31
0
0
LINE
8
0
10
841.48
20
1612.1
30
0
11
837.72
21
1605.6
31
0
0
LINE
8
0
10
837.72
20
1605.6
30
0
11
841.48
21
1599.1
31
0
0
LINE
8
0
10
841.48
20
1599.1
30
0
11
848.98
21
1599.1
31
0
0
LINE
8
0
10
871.48
20
1659.1
30
0
11
878.98
21
1659.1
31
0
0
LINE
8
0
10
878.98
20
1659.1
30
0
11
882.74
21
1665.6
31
0
0
LINE
8
0
10
882.74
20
1665.6
30
0
11
878.98
21
1672.1
31
0
0
LINE
8
0
10
878.98
20
1672.1
30
0
11
871.48
21
1672.1
31
0
0
LINE
8
0
10
871.48
20
1672.1
30
0
11
867.72
21
1665.6
31
0
0
LINE
8
0
10
867.72
20
1665.6
30
0
11
871.48
21
1659.1
31
0
0
LINE
8
0
10
874.95
20
1665.67
30
0
11
871.52
21
1669.1
31
0
0
ARC
8
0
10
875.23
20
1665.6
30
0
40
5.100402
50
136.668337
51
135
0
LINE
8
0
10
860.16
20
1637.8
30
0
11
859.6
21
1639.13
31
0
0
LINE
8
0
10
859.6
20
1639.13
30
0
11
855.18
21
1637.25
31
0
0
LINE
8
0
10
855.18
20
1637.25
30
0
11
856.31
21
1634.58
31
0
0
LINE
8
0
10
856.31
20
1634.58
30
0
11
865.43
21
1638.45
31
0
0
LINE
8
0
10
865.43
20
1638.45
30
0
11
864.29
21
1641.12
31
0
0
LINE
8
0
10
864.29
20
1641.12
30
0
11
859.74
21
1639.19
31
0
0
LINE
8
0
10
844.95
20
1605.67
30
0
11
841.52
21
1609.1
31
0
0
ARC
8
0
10
845.23
20
1605.6
30
0
40
5.100402
50
136.668337
51
135
0
LINE
8
0
10
866.84
20
1534.6
30
0
11
866.84
21
1539.45
31
0
0
LINE
8
0
10
866.84
20
1539.45
30
0
11
865.08
21
1539.45
31
0
0
LINE
8
0
10
865.08
20
1539.45
30
0
11
865.08
21
1540.45
31
0
0
LINE
8
0
10
865.08
20
1540.45
30
0
11
839.67
21
1540.45
31
0
0
LINE
8
0
10
839.67
20
1540.45
30
0
11
818.94
21
1589.28
31
0
0
LINE
8
0
10
818.94
20
1589.28
30
0
11
821.8
21
1590.49
31
0
0
LINE
8
0
10
821.8
20
1590.49
30
0
11
817.81
21
1599.88
31
0
0
LINE
8
0
10
817.81
20
1599.88
30
0
11
814.96
21
1598.67
31
0
0
LINE
8
0
10
814.96
20
1598.67
30
0
11
809.92
21
1610.54
31
0
0
ARC
8
0
10
816.5
20
1613.34
30
0
40
7.150972
50
141.415268
51
203.051301
0
LINE
8
0
10
810.91
20
1617.8
30
0
11
865.16
21
1685.75
31
0
0
LINE
8
0
10
865.16
20
1685.75
30
0
11
895.38
21
1685.75
31
0
0
LINE
8
0
10
895.38
20
1685.75
30
0
11
895.38
21
1665.6
31
0
0
ARC
8
0
10
900.23
20
1665.6
30
0
40
4.85
50
180
51
270
0
LINE
8
0
10
900.23
20
1660.75
30
0
11
910.38
21
1660.75
31
0
0
LINE
8
0
10
910.38
20
1660.75
30
0
11
910.38
21
1565.45
31
0
0
LINE
8
0
10
910.38
20
1565.45
30
0
11
890.23
21
1565.45
31
0
0
ARC
8
0
10
890.23
20
1560.6
30
0
40
4.85
50
90
51
180
0
LINE
8
0
10
885.38
20
1560.6
30
0
11
885.38
21
1540.45
31
0
0
LINE
8
0
10
885.38
20
1540.45
30
0
11
870.38
21
1540.45
31
0
0
LINE
8
0
10
870.38
20
1540.45
30
0
11
870.38
21
1539.45
31
0
0
LINE
8
0
10
870.38
20
1539.45
30
0
11
867.74
21
1539.45
31
0
0
ENDSEC
0
EOF
