0
SECTION
2
HEADER
9
$ACADVER
1
AC1009
0
ENDSEC
0
SECTION
2
ENTITIES
0
LINE
8
0
10
1346.5
20
2421.64
30
0
11
1352
21
2421.64
31
0
0
ARC
8
0
10
1352
20
2418.7
30
0
40
2.94
50
0
51
90
0
LINE
8
0
10
1354.94
20
2418.7
30
0
11
1354.94
21
2399.7
31
0
0
ARC
8
0
10
1352
20
2399.7
30
0
40
2.94
50
270
51
0
0
LINE
8
0
10
1352
20
2396.76
30
0
11
1341
21
2396.76
31
0
0
ARC
8
0
10
1341
20
2399.7
30
0
40
2.94
50
180
51
270
0
LINE
8
0
10
1338.06
20
2399.7
30
0
11
1338.06
21
2418.7
31
0
0
ARC
8
0
10
1341
20
2418.7
30
0
40
2.94
50
90
51
180
0
LINE
8
0
10
1341
20
2421.64
30
0
11
1346.5
21
2421.64
31
0
0
LINE
8
0
10
1340.99
20
2330.7
30
0
11
1340.99
21
2335.64
31
0
0
LINE
8
0
10
1340.99
20
2335.64
30
0
11
1337.94
21
2335.64
31
0
0
LINE
8
0
10
1337.94
20
2335.64
30
0
11
1337.94
21
2338.14
31
0
0
LINE
8
0
10
1337.94
20
2338.14
30
0
11
1330.98
21
2338.14
31
0
0
LINE
8
0
10
1330.98
20
2338.14
30
0
11
1322.94
21
2346.18
31
0
0
LINE
8
0
10
1322.94
20
2346.18
30
0
11
1322.94
21
2517.22
31
0
0
LINE
8
0
10
1322.94
20
2517.22
30
0
11
1330.98
21
2525.26
31
0
0
LINE
8
0
10
1330.98
20
2525.26
30
0
11
1368.05
21
2525.26
31
0
0
LINE
8
0
10
1368.05
20
2525.26
30
0
11
1375.31
21
2485.81
31
0
0
ARC
8
0
10
1380.16
20
2486.7
30
0
40
4.930984
50
190.398382
51
270
0
LINE
8
0
10
1380.16
20
2481.76
30
0
11
1388.06
21
2481.76
31
0
0
LINE
8
0
10
1388.06
20
2481.76
30
0
11
1388.06
21
2438.26
31
0
0
LINE
8
0
10
1388.06
20
2438.26
30
0
11
1390.56
21
2438.26
31
0
0
LINE
8
0
10
1390.56
20
2438.26
30
0
11
1390.56
21
2428.14
31
0
0
LINE
8
0
10
1390.56
20
2428.14
30
0
11
1388.06
21
2428.14
31
0
0
LINE
8
0
10
1388.06
20
2428.14
30
0
11
1388.06
21
2381.64
31
0
0
LINE
8
0
10
1388.06
20
2381.64
30
0
11
1380.16
21
2381.64
31
0
0
ARC
8
0
10
1380.16
20
2376.7
30
0
40
4.94
50
90
51
169.601618
0
LINE
8
0
10
1375.31
20
2377.59
30
0
11
1368.05
21
2338.14
31
0
0
LINE
8
0
10
1368.05
20
2338.14
30
0
11
1348.06
21
2338.14
31
0
0
LINE
8
0
10
1348.06
20
2338.14
30
0
11
1348.06
21
2335.64
31
0
0
LINE
8
0
10
1348.06
20
2335.64
30
0
11
1341.8
21
2335.64
31
0
0
ENDSEC
0
EOF
