0
SECTION
2
HEADER
9
$ACADVER
1
AC1009
0
ENDSEC
0
SECTION
2
ENTITIES
0
LINE
8
0
10
144.96
20
1909.76
30
0
11
142.6
21
1912.13
31
0
0
ARC
8
0
10
145
20
1909.8
30
0
40
3.344981
50
135.847867
51
135
0
LINE
8
0
10
86.12
20
2053.89
30
0
11
86.12
21
2058.84
31
0
0
LINE
8
0
10
86.12
20
2058.84
30
0
11
67
21
2058.84
31
0
0
ARC
8
0
10
67
20
2048.89
30
0
40
9.95
50
90
51
180
0
LINE
8
0
10
57.05
20
2048.89
30
0
11
57.05
21
1962.89
31
0
0
ARC
8
0
10
67
20
1962.89
30
0
40
9.95
50
180
51
270
0
LINE
8
0
10
67
20
1952.94
30
0
11
105
21
1952.94
31
0
0
ARC
8
0
10
105
20
1962.89
30
0
40
9.95
50
270
51
0
0
LINE
8
0
10
114.95
20
1962.89
30
0
11
114.95
21
2048.89
31
0
0
ARC
8
0
10
105
20
2048.89
30
0
40
9.95
50
0
51
90
0
LINE
8
0
10
105
20
2058.84
30
0
11
86.82
21
2058.84
31
0
0
LINE
8
0
10
144.96
20
2101.95
30
0
11
142.6
21
2104.32
31
0
0
ARC
8
0
10
145
20
2101.98
30
0
40
3.351955
50
135.725224
51
135
0
LINE
8
0
10
303.77
20
1824.75
30
0
11
299.77
21
1824.75
31
0
0
LINE
8
0
10
299.77
20
1824.75
30
0
11
287.77
21
1824.75
31
0
0
ARC
8
0
10
287.77
20
1816.8
30
0
40
7.95
50
90
51
180
0
LINE
8
0
10
279.82
20
1816.8
30
0
11
279.82
21
1804.75
31
0
0
LINE
8
0
10
279.82
20
1804.75
30
0
11
45
21
1804.75
31
0
0
ARC
8
0
10
45
20
1812.8
30
0
40
8.05
50
180
51
270
0
LINE
8
0
10
36.95
20
1812.8
30
0
11
36.95
21
1873.8
31
0
0
ARC
8
0
10
29
20
1873.8
30
0
40
7.95
50
0
51
90
0
LINE
8
0
10
29
20
1881.75
30
0
11
15.95
21
1881.75
31
0
0
LINE
8
0
10
15.95
20
1881.75
30
0
11
15.95
21
1886.85
31
0
0
LINE
8
0
10
15.95
20
1886.85
30
0
11
18.81
21
1886.85
31
0
0
ARC
8
0
10
19
20
1886.8
30
0
40
0.196469
50
165.256437
51
104.743563
0
LINE
8
0
10
18.95
20
1886.99
30
0
11
18.95
21
2124.79
31
0
0
ARC
8
0
10
19
20
2124.98
30
0
40
0.196469
50
255.256437
51
194.743563
0
LINE
8
0
10
18.81
20
2124.93
30
0
11
15.95
21
2124.93
31
0
0
LINE
8
0
10
15.95
20
2124.93
30
0
11
15.95
21
2130.03
31
0
0
LINE
8
0
10
15.95
20
2130.03
30
0
11
29
21
2130.03
31
0
0
ARC
8
0
10
29
20
2137.98
30
0
40
7.95
50
270
51
0
0
LINE
8
0
10
36.95
20
2137.98
30
0
11
36.95
21
2198.98
31
0
0
ARC
8
0
10
45
20
2198.98
30
0
40
8.05
50
90
51
180
0
LINE
8
0
10
45
20
2207.03
30
0
11
279.82
21
2207.03
31
0
0
LINE
8
0
10
279.82
20
2207.03
30
0
11
279.82
21
2194.98
31
0
0
ARC
8
0
10
287.77
20
2194.98
30
0
40
7.95
50
180
51
270
0
LINE
8
0
10
287.77
20
2187.03
30
0
11
299.82
21
2187.03
31
0
0
LINE
8
0
10
299.82
20
2187.03
30
0
11
299.82
21
2152.4
31
0
0
LINE
8
0
10
299.82
20
2152.4
30
0
11
173.68
21
2088.13
31
0
0
LINE
8
0
10
173.68
20
2088.13
30
0
11
159.82
21
2088.13
31
0
0
LINE
8
0
10
159.82
20
2088.13
30
0
11
159.82
21
2082.74
31
0
0
LINE
8
0
10
159.82
20
2082.74
30
0
11
317.56
21
2082.74
31
0
0
LINE
8
0
10
317.56
20
2082.74
30
0
11
317.56
21
2025.84
31
0
0
LINE
8
0
10
317.56
20
2025.84
30
0
11
307.51
21
2025.84
31
0
0
ARC
8
0
10
307.51
20
2015.89
30
0
40
9.95
50
90
51
180
0
LINE
8
0
10
297.56
20
2015.89
30
0
11
297.56
21
1995.89
31
0
0
ARC
8
0
10
307.51
20
1995.89
30
0
40
9.95
50
180
51
270
0
LINE
8
0
10
307.51
20
1985.94
30
0
11
317.56
21
1985.94
31
0
0
LINE
8
0
10
317.56
20
1985.94
30
0
11
317.56
21
1929.04
31
0
0
LINE
8
0
10
317.56
20
1929.04
30
0
11
159.82
21
1929.04
31
0
0
LINE
8
0
10
159.82
20
1929.04
30
0
11
159.82
21
1923.65
31
0
0
LINE
8
0
10
159.82
20
1923.65
30
0
11
173.68
21
1923.65
31
0
0
LINE
8
0
10
173.68
20
1923.65
30
0
11
299.82
21
1859.38
31
0
0
LINE
8
0
10
299.82
20
1859.38
30
0
11
299.82
21
1824.8
31
0
0
ENDSEC
0
EOF
