0
SECTION
2
HEADER
9
$ACADVER
1
AC1009
0
ENDSEC
0
SECTION
2
ENTITIES
0
LINE
8
0
10
1063.02
20
1175.64
30
0
11
1075.02
21
1182.57
31
0
0
LINE
8
0
10
1075.02
20
1182.57
30
0
11
1075.02
21
1196.43
31
0
0
LINE
8
0
10
1075.02
20
1196.43
30
0
11
1063.02
21
1203.36
31
0
0
LINE
8
0
10
1063.02
20
1203.36
30
0
11
1051.02
21
1196.43
31
0
0
LINE
8
0
10
1051.02
20
1196.43
30
0
11
1051.02
21
1182.57
31
0
0
LINE
8
0
10
1051.02
20
1182.57
30
0
11
1063.02
21
1175.64
31
0
0
LINE
8
0
10
1015.02
20
1182.57
30
0
11
1015.02
21
1196.43
31
0
0
LINE
8
0
10
1015.02
20
1196.43
30
0
11
1003.02
21
1203.36
31
0
0
LINE
8
0
10
1003.02
20
1203.36
30
0
11
991.02
21
1196.43
31
0
0
LINE
8
0
10
991.02
20
1196.43
30
0
11
991.02
21
1182.57
31
0
0
LINE
8
0
10
991.02
20
1182.57
30
0
11
1003.02
21
1175.64
31
0
0
LINE
8
0
10
1003.02
20
1175.64
30
0
11
1015.02
21
1182.57
31
0
0
LINE
8
0
10
884.9
20
1104.41
30
0
11
876.4
21
1109.31
31
0
0
LINE
8
0
10
876.4
20
1109.31
30
0
11
867.9
21
1104.41
31
0
0
LINE
8
0
10
867.9
20
1104.41
30
0
11
867.9
21
1094.59
31
0
0
LINE
8
0
10
867.9
20
1094.59
30
0
11
876.4
21
1089.69
31
0
0
LINE
8
0
10
876.4
20
1089.69
30
0
11
884.9
21
1094.59
31
0
0
LINE
8
0
10
884.9
20
1094.59
30
0
11
884.9
21
1104.41
31
0
0
LINE
8
0
10
1003.02
20
1350.64
30
0
11
1015.02
21
1357.57
31
0
0
LINE
8
0
10
1015.02
20
1357.57
30
0
11
1015.02
21
1371.43
31
0
0
LINE
8
0
10
1015.02
20
1371.43
30
0
11
1003.02
21
1378.36
31
0
0
LINE
8
0
10
1003.02
20
1378.36
30
0
11
991.02
21
1371.43
31
0
0
LINE
8
0
10
991.02
20
1371.43
30
0
11
991.02
21
1357.57
31
0
0
LINE
8
0
10
991.02
20
1357.57
30
0
11
1003.02
21
1350.64
31
0
0
LINE
8
0
10
1051.02
20
1357.57
30
0
11
1063.02
21
1350.64
31
0
0
LINE
8
0
10
1063.02
20
1350.64
30
0
11
1075.02
21
1357.57
31
0
0
LINE
8
0
10
1075.02
20
1357.57
30
0
11
1075.02
21
1371.43
31
0
0
LINE
8
0
10
1075.02
20
1371.43
30
0
11
1063.02
21
1378.36
31
0
0
LINE
8
0
10
1063.02
20
1378.36
30
0
11
1051.02
21
1371.43
31
0
0
LINE
8
0
10
1051.02
20
1371.43
30
0
11
1051.02
21
1357.57
31
0
0
LINE
8
0
10
884.9
20
1467.59
30
0
11
884.9
21
1477.41
31
0
0
LINE
8
0
10
884.9
20
1477.41
30
0
11
876.4
21
1482.31
31
0
0
LINE
8
0
10
876.4
20
1482.31
30
0
11
867.9
21
1477.41
31
0
0
LINE
8
0
10
867.9
20
1477.41
30
0
11
867.9
21
1467.59
31
0
0
LINE
8
0
10
867.9
20
1467.59
30
0
11
876.4
21
1462.69
31
0
0
LINE
8
0
10
876.4
20
1462.69
30
0
11
884.9
21
1467.59
31
0
0
LINE
8
0
10
1015.77
20
1839.38
30
0
11
1014.75
21
1840.4
31
0
0
LINE
8
0
10
1014.75
20
1840.4
30
0
11
1024.75
21
1840.4
31
0
0
LINE
8
0
10
1024.75
20
1839.38
30
0
11
1024.75
21
1841.43
31
0
0
LINE
8
0
10
1024.75
20
1842.32
30
0
11
1024.75
21
1848.03
31
0
0
LINE
8
0
10
1024.75
20
1848.03
30
0
11
1023.32
21
1849.46
31
0
0
LINE
8
0
10
1023.32
20
1849.46
30
0
11
1021.89
21
1849.46
31
0
0
LINE
8
0
10
1021.89
20
1849.46
30
0
11
1020.46
21
1848.03
31
0
0
LINE
8
0
10
1020.46
20
1848.03
30
0
11
1020.46
21
1842.32
31
0
0
LINE
8
0
10
1020.46
20
1842.32
30
0
11
1014.75
21
1842.32
31
0
0
LINE
8
0
10
1014.75
20
1842.32
30
0
11
1014.75
21
1849.46
31
0
0
LINE
8
0
10
1014.75
20
1856.07
30
0
11
1024.75
21
1851.78
31
0
0
LINE
8
0
10
1024.75
20
1851.78
30
0
11
1023.32
21
1850.35
31
0
0
LINE
8
0
10
1023.32
20
1850.35
30
0
11
1016.17
21
1850.35
31
0
0
LINE
8
0
10
1016.17
20
1850.35
30
0
11
1014.75
21
1851.78
31
0
0
LINE
8
0
10
1014.75
20
1851.78
30
0
11
1014.75
21
1856.07
31
0
0
LINE
8
0
10
1014.75
20
1856.07
30
0
11
1016.17
21
1857.5
31
0
0
LINE
8
0
10
1016.17
20
1857.5
30
0
11
1023.32
21
1857.5
31
0
0
LINE
8
0
10
1023.32
20
1857.5
30
0
11
1024.75
21
1856.07
31
0
0
LINE
8
0
10
1024.75
20
1856.07
30
0
11
1024.75
21
1851.78
31
0
0
LINE
8
0
10
1023.32
20
1858.39
30
0
11
1024.75
21
1859.82
31
0
0
LINE
8
0
10
1024.75
20
1859.82
30
0
11
1024.75
21
1864.1
31
0
0
LINE
8
0
10
1024.75
20
1864.1
30
0
11
1023.32
21
1865.53
31
0
0
LINE
8
0
10
1023.32
20
1865.53
30
0
11
1021.89
21
1865.53
31
0
0
LINE
8
0
10
1021.89
20
1865.53
30
0
11
1020.46
21
1864.1
31
0
0
LINE
8
0
10
1020.46
20
1864.1
30
0
11
1019.03
21
1865.53
31
0
0
LINE
8
0
10
1019.03
20
1865.53
30
0
11
1016.17
21
1865.53
31
0
0
LINE
8
0
10
1016.17
20
1865.53
30
0
11
1014.75
21
1864.1
31
0
0
LINE
8
0
10
1014.75
20
1864.1
30
0
11
1014.75
21
1859.82
31
0
0
LINE
8
0
10
1014.75
20
1859.82
30
0
11
1016.17
21
1858.39
31
0
0
LINE
8
0
10
1020.46
20
1859.82
30
0
11
1020.46
21
1864.1
31
0
0
LINE
8
0
10
884.9
20
1877.59
30
0
11
884.9
21
1887.41
31
0
0
LINE
8
0
10
884.9
20
1887.41
30
0
11
876.4
21
1892.31
31
0
0
LINE
8
0
10
876.4
20
1892.31
30
0
11
867.9
21
1887.41
31
0
0
LINE
8
0
10
867.9
20
1887.41
30
0
11
867.9
21
1877.59
31
0
0
LINE
8
0
10
867.9
20
1877.59
30
0
11
876.4
21
1872.69
31
0
0
LINE
8
0
10
876.4
20
1872.69
30
0
11
884.9
21
1877.59
31
0
0
LINE
8
0
10
876.4
20
2056.69
30
0
11
884.9
21
2061.59
31
0
0
LINE
8
0
10
884.9
20
2061.59
30
0
11
884.9
21
2071.41
31
0
0
LINE
8
0
10
884.9
20
2071.41
30
0
11
876.4
21
2076.31
31
0
0
LINE
8
0
10
876.4
20
2076.31
30
0
11
867.9
21
2071.41
31
0
0
LINE
8
0
10
867.9
20
2071.41
30
0
11
867.9
21
2061.59
31
0
0
LINE
8
0
10
867.9
20
2061.59
30
0
11
876.4
21
2056.69
31
0
0
LINE
8
0
10
1003.02
20
2570.64
30
0
11
1015.02
21
2577.57
31
0
0
LINE
8
0
10
1015.02
20
2577.57
30
0
11
1015.02
21
2591.43
31
0
0
LINE
8
0
10
1015.02
20
2591.43
30
0
11
1003.02
21
2598.36
31
0
0
LINE
8
0
10
1003.02
20
2598.36
30
0
11
991.02
21
2591.43
31
0
0
LINE
8
0
10
991.02
20
2591.43
30
0
11
991.02
21
2577.57
31
0
0
LINE
8
0
10
991.02
20
2577.57
30
0
11
1003.02
21
2570.64
31
0
0
LINE
8
0
10
1051.02
20
2577.57
30
0
11
1063.02
21
2570.64
31
0
0
LINE
8
0
10
1063.02
20
2570.64
30
0
11
1075.02
21
2577.57
31
0
0
LINE
8
0
10
1075.02
20
2577.57
30
0
11
1075.02
21
2591.43
31
0
0
LINE
8
0
10
1075.02
20
2591.43
30
0
11
1063.02
21
2598.36
31
0
0
LINE
8
0
10
1063.02
20
2598.36
30
0
11
1051.02
21
2591.43
31
0
0
LINE
8
0
10
1051.02
20
2591.43
30
0
11
1051.02
21
2577.57
31
0
0
LINE
8
0
10
1003.02
20
2745.64
30
0
11
1015.02
21
2752.57
31
0
0
LINE
8
0
10
1015.02
20
2752.57
30
0
11
1015.02
21
2766.43
31
0
0
LINE
8
0
10
1015.02
20
2766.43
30
0
11
1003.02
21
2773.36
31
0
0
LINE
8
0
10
1003.02
20
2773.36
30
0
11
991.02
21
2766.43
31
0
0
LINE
8
0
10
991.02
20
2766.43
30
0
11
991.02
21
2752.57
31
0
0
LINE
8
0
10
991.02
20
2752.57
30
0
11
1003.02
21
2745.64
31
0
0
LINE
8
0
10
1051.02
20
2752.57
30
0
11
1063.02
21
2745.64
31
0
0
LINE
8
0
10
1063.02
20
2745.64
30
0
11
1075.02
21
2752.57
31
0
0
LINE
8
0
10
1075.02
20
2752.57
30
0
11
1075.02
21
2766.43
31
0
0
LINE
8
0
10
1075.02
20
2766.43
30
0
11
1063.02
21
2773.36
31
0
0
LINE
8
0
10
1063.02
20
2773.36
30
0
11
1051.02
21
2766.43
31
0
0
LINE
8
0
10
1051.02
20
2766.43
30
0
11
1051.02
21
2752.57
31
0
0
LINE
8
0
10
884.9
20
2844.59
30
0
11
884.9
21
2854.41
31
0
0
LINE
8
0
10
884.9
20
2854.41
30
0
11
876.4
21
2859.31
31
0
0
LINE
8
0
10
876.4
20
2859.31
30
0
11
867.9
21
2854.41
31
0
0
LINE
8
0
10
867.9
20
2854.41
30
0
11
867.9
21
2844.59
31
0
0
LINE
8
0
10
867.9
20
2844.59
30
0
11
876.4
21
2839.69
31
0
0
LINE
8
0
10
876.4
20
2839.69
30
0
11
884.9
21
2844.59
31
0
0
LINE
8
0
10
874.07
20
2851.76
30
0
11
871.98
21
2853.85
31
0
0
ARC
8
0
10
876.4
20
2849.5
30
0
40
6.201524
50
135.457311
51
135
0
LINE
8
0
10
921.54
20
2877.29
30
0
11
919.45
21
2879.38
31
0
0
ARC
8
0
10
924.4
20
2874.5
30
0
40
6.951036
50
135.408
51
135
0
LINE
8
0
10
999.57
20
2902.5
30
0
11
999.57
21
2905.45
31
0
0
LINE
8
0
10
999.57
20
2905.45
30
0
11
1041.47
21
2905.45
31
0
0
LINE
8
0
10
1041.47
20
2905.45
30
0
11
1041.47
21
2899.55
31
0
0
LINE
8
0
10
1041.47
20
2899.55
30
0
11
999.57
21
2899.55
31
0
0
LINE
8
0
10
999.57
20
2899.55
30
0
11
999.57
21
2902.5
31
0
0
LINE
8
0
10
1137.37
20
2960.21
30
0
11
1135.28
21
2962.29
31
0
0
ARC
8
0
10
1141.64
20
2956
30
0
40
8.945038
50
135.317049
51
134.954707
0
LINE
8
0
10
1058.43
20
2764.03
30
0
11
1056.34
21
2766.11
31
0
0
ARC
8
0
10
1063.02
20
2759.5
30
0
40
9.397579
50
135.301781
51
134.956888
0
LINE
8
0
10
998.43
20
2764.03
30
0
11
996.34
21
2766.11
31
0
0
ARC
8
0
10
1003.02
20
2759.5
30
0
40
9.397579
50
135.301781
51
134.956888
0
LINE
8
0
10
998.43
20
2589.03
30
0
11
996.34
21
2591.11
31
0
0
ARC
8
0
10
1003.02
20
2584.5
30
0
40
9.397579
50
135.301781
51
134.956888
0
LINE
8
0
10
1058.43
20
2589.03
30
0
11
1056.34
21
2591.11
31
0
0
ARC
8
0
10
1063.02
20
2584.5
30
0
40
9.397579
50
135.301781
51
134.956888
0
LINE
8
0
10
873.89
20
2478.94
30
0
11
871.8
21
2481.03
31
0
0
ARC
8
0
10
876.4
20
2476.5
30
0
40
6.456075
50
135.43928
51
135
0
LINE
8
0
10
921.54
20
2427.29
30
0
11
919.45
21
2429.38
31
0
0
ARC
8
0
10
924.4
20
2424.5
30
0
40
6.951036
50
135.408
51
135
0
LINE
8
0
10
876.88
20
2235.95
30
0
11
874.79
21
2238.04
31
0
0
ARC
8
0
10
878.4
20
2234.5
30
0
40
5.056056
50
135.56092
51
135
0
LINE
8
0
10
874.07
20
2068.76
30
0
11
871.98
21
2070.85
31
0
0
ARC
8
0
10
876.4
20
2066.5
30
0
40
6.201524
50
135.457311
51
135
0
LINE
8
0
10
921.54
20
1977.29
30
0
11
919.45
21
1979.38
31
0
0
ARC
8
0
10
924.4
20
1974.5
30
0
40
6.951036
50
135.408
51
135
0
LINE
8
0
10
999.57
20
2014.5
30
0
11
999.57
21
2017.45
31
0
0
LINE
8
0
10
999.57
20
2017.45
30
0
11
1041.47
21
2017.45
31
0
0
LINE
8
0
10
1041.47
20
2017.45
30
0
11
1041.47
21
2011.55
31
0
0
LINE
8
0
10
1041.47
20
2011.55
30
0
11
999.57
21
2011.55
31
0
0
LINE
8
0
10
999.57
20
2011.55
30
0
11
999.57
21
2014.5
31
0
0
LINE
8
0
10
874.07
20
1884.76
30
0
11
871.98
21
1886.85
31
0
0
ARC
8
0
10
876.4
20
1882.5
30
0
40
6.201524
50
135.457311
51
135
0
LINE
8
0
10
876.88
20
1715.95
30
0
11
874.79
21
1718.04
31
0
0
ARC
8
0
10
878.4
20
1714.5
30
0
40
5.056056
50
135.56092
51
135
0
LINE
8
0
10
921.54
20
1527.29
30
0
11
919.45
21
1529.38
31
0
0
ARC
8
0
10
924.4
20
1524.5
30
0
40
6.951036
50
135.408
51
135
0
LINE
8
0
10
874.07
20
1474.76
30
0
11
871.98
21
1476.85
31
0
0
ARC
8
0
10
876.4
20
1472.5
30
0
40
6.201524
50
135.457311
51
135
0
LINE
8
0
10
999.57
20
1420
30
0
11
999.57
21
1422.95
31
0
0
LINE
8
0
10
999.57
20
1422.95
30
0
11
1041.47
21
1422.95
31
0
0
LINE
8
0
10
1041.47
20
1422.95
30
0
11
1041.47
21
1417.05
31
0
0
LINE
8
0
10
1041.47
20
1417.05
30
0
11
999.57
21
1417.05
31
0
0
LINE
8
0
10
999.57
20
1417.05
30
0
11
999.57
21
1420
31
0
0
LINE
8
0
10
998.43
20
1369.03
30
0
11
996.34
21
1371.11
31
0
0
ARC
8
0
10
1003.02
20
1364.5
30
0
40
9.397579
50
135.301781
51
134.956888
0
LINE
8
0
10
1058.43
20
1369.03
30
0
11
1056.34
21
1371.11
31
0
0
ARC
8
0
10
1063.02
20
1364.5
30
0
40
9.397579
50
135.301781
51
134.956888
0
LINE
8
0
10
1058.43
20
1194.03
30
0
11
1056.34
21
1196.11
31
0
0
ARC
8
0
10
1063.02
20
1189.5
30
0
40
9.397579
50
135.301781
51
134.956888
0
LINE
8
0
10
998.43
20
1194.03
30
0
11
996.34
21
1196.11
31
0
0
ARC
8
0
10
1003.02
20
1189.5
30
0
40
9.397579
50
135.301781
51
134.956888
0
LINE
8
0
10
874.07
20
1101.76
30
0
11
871.98
21
1103.85
31
0
0
ARC
8
0
10
876.4
20
1099.5
30
0
40
6.201524
50
135.457311
51
135
0
LINE
8
0
10
921.54
20
1077.29
30
0
11
919.45
21
1079.38
31
0
0
ARC
8
0
10
924.4
20
1074.5
30
0
40
6.951036
50
135.408
51
135
0
LINE
8
0
10
999.57
20
1045.5
30
0
11
999.57
21
1048.45
31
0
0
LINE
8
0
10
999.57
20
1048.45
30
0
11
1041.47
21
1048.45
31
0
0
LINE
8
0
10
1041.47
20
1048.45
30
0
11
1041.47
21
1042.55
31
0
0
LINE
8
0
10
1041.47
20
1042.55
30
0
11
999.57
21
1042.55
31
0
0
LINE
8
0
10
999.57
20
1042.55
30
0
11
999.57
21
1045.5
31
0
0
LINE
8
0
10
1137.37
20
997.21
30
0
11
1135.28
21
999.29
31
0
0
ARC
8
0
10
1141.64
20
993
30
0
40
8.945038
50
135.317049
51
134.954707
0
LINE
8
0
10
1184.64
20
962.95
30
0
11
1181.64
21
962.95
31
0
0
LINE
8
0
10
1181.64
20
962.95
30
0
11
859.35
21
962.95
31
0
0
LINE
8
0
10
859.35
20
962.95
30
0
11
859.35
21
2985.05
31
0
0
LINE
8
0
10
859.35
20
2985.05
30
0
11
1181.69
21
2985.05
31
0
0
LINE
8
0
10
1181.69
20
2985.05
30
0
11
1181.69
21
963
31
0
0
ENDSEC
0
EOF
