0
SECTION
2
HEADER
9
$ACADVER
1
AC1009
0
ENDSEC
0
SECTION
2
ENTITIES
0
CIRCLE
8
0
10
1341.33
20
236.5
30
0
40
11
0
LINE
8
0
10
977.4
20
655.29
30
0
11
977.4
21
656.11
31
0
0
LINE
8
0
10
977.4
20
655.7
30
0
11
973.4
21
655.7
31
0
0
LINE
8
0
10
973.4
20
655.7
30
0
11
973.81
21
655.29
31
0
0
LINE
8
0
10
975.69
20
657.11
30
0
11
975.69
21
659.4
31
0
0
LINE
8
0
10
975.69
20
659.4
30
0
11
976.26
21
659.97
31
0
0
LINE
8
0
10
976.26
20
659.97
30
0
11
976.83
21
659.97
31
0
0
LINE
8
0
10
976.83
20
659.97
30
0
11
977.4
21
659.4
31
0
0
LINE
8
0
10
977.4
20
659.4
30
0
11
977.4
21
657.68
31
0
0
LINE
8
0
10
977.4
20
657.68
30
0
11
976.83
21
657.11
31
0
0
LINE
8
0
10
976.83
20
657.11
30
0
11
973.98
21
657.11
31
0
0
LINE
8
0
10
973.98
20
657.11
30
0
11
973.4
21
657.68
31
0
0
LINE
8
0
10
973.4
20
657.68
30
0
11
973.4
21
659.4
31
0
0
LINE
8
0
10
973.98
20
660.97
30
0
11
973.4
21
661.54
31
0
0
LINE
8
0
10
973.4
20
661.54
30
0
11
973.4
21
663.26
31
0
0
LINE
8
0
10
973.4
20
663.26
30
0
11
973.98
21
663.83
31
0
0
LINE
8
0
10
973.98
20
663.83
30
0
11
975.12
21
663.83
31
0
0
LINE
8
0
10
975.12
20
663.83
30
0
11
975.69
21
663.26
31
0
0
LINE
8
0
10
975.69
20
663.26
30
0
11
976.26
21
663.83
31
0
0
LINE
8
0
10
976.26
20
663.83
30
0
11
976.83
21
663.83
31
0
0
LINE
8
0
10
976.83
20
663.83
30
0
11
977.4
21
663.26
31
0
0
LINE
8
0
10
977.4
20
663.26
30
0
11
977.4
21
661.54
31
0
0
LINE
8
0
10
977.4
20
661.54
30
0
11
976.83
21
660.97
31
0
0
LINE
8
0
10
975.69
20
661.54
30
0
11
975.69
21
663.26
31
0
0
LINE
8
0
10
975.69
20
664.83
30
0
11
975.69
21
667.11
31
0
0
LINE
8
0
10
975.69
20
667.11
30
0
11
976.26
21
667.68
31
0
0
LINE
8
0
10
976.26
20
667.68
30
0
11
976.83
21
667.68
31
0
0
LINE
8
0
10
976.83
20
667.68
30
0
11
977.4
21
667.11
31
0
0
LINE
8
0
10
977.4
20
667.11
30
0
11
977.4
21
665.4
31
0
0
LINE
8
0
10
977.4
20
665.4
30
0
11
976.83
21
664.83
31
0
0
LINE
8
0
10
976.83
20
664.83
30
0
11
973.98
21
664.83
31
0
0
LINE
8
0
10
973.98
20
664.83
30
0
11
973.4
21
665.4
31
0
0
LINE
8
0
10
973.4
20
665.4
30
0
11
973.4
21
667.11
31
0
0
LINE
8
0
10
973.98
20
668.68
30
0
11
973.4
21
669.26
31
0
0
LINE
8
0
10
973.4
20
669.26
30
0
11
973.4
21
670.97
31
0
0
LINE
8
0
10
973.4
20
670.97
30
0
11
973.98
21
671.54
31
0
0
LINE
8
0
10
973.98
20
671.54
30
0
11
976.83
21
671.54
31
0
0
LINE
8
0
10
976.83
20
671.54
30
0
11
977.4
21
670.97
31
0
0
LINE
8
0
10
977.4
20
670.97
30
0
11
977.4
21
669.26
31
0
0
LINE
8
0
10
977.4
20
669.26
30
0
11
976.83
21
668.68
31
0
0
LINE
8
0
10
976.83
20
668.68
30
0
11
973.98
21
668.68
31
0
0
LINE
8
0
10
973.4
20
670.97
30
0
11
977.4
21
669.26
31
0
0
LINE
8
0
10
973.98
20
672.54
30
0
11
973.4
21
673.11
31
0
0
LINE
8
0
10
973.4
20
673.11
30
0
11
973.4
21
674.83
31
0
0
LINE
8
0
10
973.4
20
674.83
30
0
11
973.98
21
675.4
31
0
0
LINE
8
0
10
973.98
20
675.4
30
0
11
975.12
21
675.4
31
0
0
LINE
8
0
10
975.12
20
675.4
30
0
11
975.69
21
674.83
31
0
0
LINE
8
0
10
975.69
20
674.83
30
0
11
975.69
21
673.11
31
0
0
LINE
8
0
10
975.69
20
673.11
30
0
11
976.26
21
672.54
31
0
0
LINE
8
0
10
976.26
20
672.54
30
0
11
977.4
21
672.54
31
0
0
LINE
8
0
10
977.4
20
672.54
30
0
11
977.4
21
674.83
31
0
0
LINE
8
0
10
977.4
20
674.83
30
0
11
976.83
21
675.4
31
0
0
LINE
8
0
10
973.98
20
676.4
30
0
11
973.4
21
676.97
31
0
0
LINE
8
0
10
973.4
20
676.97
30
0
11
973.4
21
678.68
31
0
0
LINE
8
0
10
973.4
20
678.68
30
0
11
973.98
21
679.26
31
0
0
LINE
8
0
10
973.98
20
679.26
30
0
11
975.12
21
679.26
31
0
0
LINE
8
0
10
975.12
20
679.26
30
0
11
975.69
21
678.68
31
0
0
LINE
8
0
10
975.69
20
678.68
30
0
11
975.69
21
676.97
31
0
0
LINE
8
0
10
975.69
20
676.97
30
0
11
976.26
21
676.4
31
0
0
LINE
8
0
10
976.26
20
676.4
30
0
11
977.4
21
676.4
31
0
0
LINE
8
0
10
977.4
20
676.4
30
0
11
977.4
21
678.68
31
0
0
LINE
8
0
10
977.4
20
678.68
30
0
11
976.83
21
679.26
31
0
0
LINE
8
0
10
977.4
20
680.83
30
0
11
973.4
21
683.11
31
0
0
LINE
8
0
10
973.4
20
683.11
30
0
11
973.4
21
680.26
31
0
0
LINE
8
0
10
975.69
20
680.83
30
0
11
975.69
21
682.54
31
0
0
LINE
8
0
10
975.69
20
686.4
30
0
11
975.69
21
684.68
31
0
0
LINE
8
0
10
975.69
20
684.68
30
0
11
976.26
21
684.11
31
0
0
LINE
8
0
10
976.26
20
684.11
30
0
11
976.83
21
684.11
31
0
0
LINE
8
0
10
976.83
20
684.11
30
0
11
977.4
21
684.68
31
0
0
LINE
8
0
10
977.4
20
684.68
30
0
11
977.4
21
686.4
31
0
0
LINE
8
0
10
977.4
20
686.4
30
0
11
976.83
21
686.97
31
0
0
LINE
8
0
10
976.83
20
686.97
30
0
11
976.26
21
686.97
31
0
0
LINE
8
0
10
976.26
20
686.97
30
0
11
975.69
21
686.4
31
0
0
LINE
8
0
10
975.69
20
688.54
30
0
11
975.69
21
690.26
31
0
0
LINE
8
0
10
977.4
20
688.54
30
0
11
973.4
21
690.83
31
0
0
LINE
8
0
10
973.4
20
690.83
30
0
11
973.4
21
687.97
31
0
0
LINE
8
0
10
1055.95
20
507.07
30
0
11
1052.52
21
510.5
31
0
0
ARC
8
0
10
1056.23
20
507
30
0
40
5.100402
50
136.668337
51
134.920533
0
LINE
8
0
10
1055.95
20
385.07
30
0
11
1052.52
21
388.5
31
0
0
ARC
8
0
10
1056.23
20
385
30
0
40
5.100402
50
136.668337
51
134.920533
0
LINE
8
0
10
977.49
20
279.25
30
0
11
979.08
21
282
31
0
0
LINE
8
0
10
979.08
20
282
30
0
11
985.43
21
282
31
0
0
LINE
8
0
10
985.43
20
282
30
0
11
988.61
21
276.5
31
0
0
LINE
8
0
10
988.61
20
276.5
30
0
11
985.43
21
271
31
0
0
LINE
8
0
10
985.43
20
271
30
0
11
979.08
21
271
31
0
0
LINE
8
0
10
979.08
20
271
30
0
11
975.91
21
276.5
31
0
0
LINE
8
0
10
975.91
20
276.5
30
0
11
977.49
21
279.25
31
0
0
LINE
8
0
10
993.15
20
61.39
30
0
11
990.78
21
63.76
31
0
0
ARC
8
0
10
993.26
20
61.5
30
0
40
3.355294
50
137.657391
51
135
0
LINE
8
0
10
1286.38
20
38.39
30
0
11
1283.12
21
41.64
31
0
0
ARC
8
0
10
1286.48
20
38.5
30
0
40
4.598826
50
136.938502
51
135
0
LINE
8
0
10
1385.13
20
98.31
30
0
11
1388.9
21
101.36
31
0
0
ARC
8
0
10
1369.48
20
85.86
30
0
40
24.847261
50
314.9837
51
38.594986
0
LINE
8
0
10
1387.05
20
68.28
30
0
11
1351.7
21
32.93
31
0
0
ARC
8
0
10
1334.13
20
50.5
30
0
40
24.847732
50
135.0163
51
315
0
LINE
8
0
10
1316.55
20
68.07
30
0
11
1351.91
21
103.43
31
0
0
ARC
8
0
10
1369.48
20
85.86
30
0
40
24.847732
50
40.086054
51
135
0
LINE
8
0
10
1379.96
20
136.81
30
0
11
1376.53
21
140.24
31
0
0
ARC
8
0
10
1381.48
20
135.5
30
0
40
6.853474
50
136.24151
51
135
0
LINE
8
0
10
1329.96
20
136.81
30
0
11
1326.53
21
140.24
31
0
0
ARC
8
0
10
1331.48
20
135.5
30
0
40
6.853474
50
136.24151
51
135
0
LINE
8
0
10
1314.2
20
184.25
30
0
11
1310.35
21
184.25
31
0
0
LINE
8
0
10
1310.35
20
184.25
30
0
11
1310.35
21
185.55
31
0
0
LINE
8
0
10
1310.35
20
185.55
30
0
11
1320.55
21
185.55
31
0
0
LINE
8
0
10
1320.55
20
185.55
30
0
11
1320.55
21
182.65
31
0
0
LINE
8
0
10
1320.55
20
182.65
30
0
11
1310.35
21
182.65
31
0
0
LINE
8
0
10
1310.35
20
182.65
30
0
11
1310.35
21
184.1
31
0
0
LINE
8
0
10
1454
20
184.25
30
0
11
1450.15
21
184.25
31
0
0
LINE
8
0
10
1450.15
20
184.25
30
0
11
1450.15
21
185.55
31
0
0
LINE
8
0
10
1450.15
20
185.55
30
0
11
1463.85
21
185.55
31
0
0
LINE
8
0
10
1463.85
20
185.55
30
0
11
1463.85
21
182.65
31
0
0
LINE
8
0
10
1463.85
20
182.65
30
0
11
1450.15
21
182.65
31
0
0
LINE
8
0
10
1450.15
20
182.65
30
0
11
1450.15
21
184.1
31
0
0
LINE
8
0
10
1453.93
20
309.5
30
0
11
1453.93
21
313.35
31
0
0
ARC
8
0
10
1454.08
20
302.5
30
0
40
10.851037
50
90.792057
51
90
0
LINE
8
0
10
1342.63
20
545.85
30
0
11
1373.98
21
545.85
31
0
0
LINE
8
0
10
1373.98
20
545.85
30
0
11
1373.98
21
353
31
0
0
ARC
8
0
10
1367.13
20
353
30
0
40
6.85
50
270
51
0
0
LINE
8
0
10
1367.13
20
346.15
30
0
11
1304.28
21
346.15
31
0
0
LINE
8
0
10
1304.28
20
346.15
30
0
11
1304.28
21
539
31
0
0
ARC
8
0
10
1311.13
20
539
30
0
40
6.85
50
90
51
180
0
LINE
8
0
10
1311.13
20
545.85
30
0
11
1342.63
21
545.85
31
0
0
LINE
8
0
10
1195.59
20
600.22
30
0
11
1192.24
21
600.22
31
0
0
LINE
8
0
10
1192.24
20
600.22
30
0
11
1192.24
21
598.9
31
0
0
LINE
8
0
10
1192.24
20
598.9
30
0
11
1198.94
21
598.9
31
0
0
LINE
8
0
10
1198.94
20
598.9
30
0
11
1198.94
21
601.85
31
0
0
LINE
8
0
10
1198.94
20
601.85
30
0
11
1192.24
21
601.85
31
0
0
LINE
8
0
10
1192.24
20
601.85
30
0
11
1192.24
21
600.37
31
0
0
LINE
8
0
10
1195.59
20
753.47
30
0
11
1192.24
21
753.47
31
0
0
LINE
8
0
10
1192.24
20
753.47
30
0
11
1192.24
21
752.15
31
0
0
LINE
8
0
10
1192.24
20
752.15
30
0
11
1198.94
21
752.15
31
0
0
LINE
8
0
10
1198.94
20
752.15
30
0
11
1198.94
21
755.1
31
0
0
LINE
8
0
10
1198.94
20
755.1
30
0
11
1192.24
21
755.1
31
0
0
LINE
8
0
10
1192.24
20
755.1
30
0
11
1192.24
21
753.62
31
0
0
LINE
8
0
10
1314.2
20
704.25
30
0
11
1310.35
21
704.25
31
0
0
LINE
8
0
10
1310.35
20
704.25
30
0
11
1310.35
21
705.55
31
0
0
LINE
8
0
10
1310.35
20
705.55
30
0
11
1320.55
21
705.55
31
0
0
LINE
8
0
10
1320.55
20
705.55
30
0
11
1320.55
21
702.65
31
0
0
LINE
8
0
10
1320.55
20
702.65
30
0
11
1310.35
21
702.65
31
0
0
LINE
8
0
10
1310.35
20
702.65
30
0
11
1310.35
21
704.1
31
0
0
LINE
8
0
10
1454
20
704.25
30
0
11
1450.15
21
704.25
31
0
0
LINE
8
0
10
1450.15
20
704.25
30
0
11
1450.15
21
705.55
31
0
0
LINE
8
0
10
1450.15
20
705.55
30
0
11
1463.85
21
705.55
31
0
0
LINE
8
0
10
1463.85
20
705.55
30
0
11
1463.85
21
702.65
31
0
0
LINE
8
0
10
1463.85
20
702.65
30
0
11
1450.15
21
702.65
31
0
0
LINE
8
0
10
1450.15
20
702.65
30
0
11
1450.15
21
704.1
31
0
0
LINE
8
0
10
1197.64
20
902
30
0
11
1197.64
21
904.85
31
0
0
LINE
8
0
10
1197.64
20
904.85
30
0
11
1198.94
21
904.85
31
0
0
LINE
8
0
10
1198.94
20
904.85
30
0
11
1198.94
21
899.15
31
0
0
LINE
8
0
10
1198.94
20
899.15
30
0
11
1196.04
21
899.15
31
0
0
LINE
8
0
10
1196.04
20
899.15
30
0
11
1196.04
21
904.85
31
0
0
LINE
8
0
10
1196.04
20
904.85
30
0
11
1197.49
21
904.85
31
0
0
LINE
8
0
10
1197.34
20
1057
30
0
11
1197.34
21
1059.85
31
0
0
LINE
8
0
10
1197.34
20
1059.85
30
0
11
1196.04
21
1059.85
31
0
0
LINE
8
0
10
1196.04
20
1059.85
30
0
11
1196.04
21
1054.15
31
0
0
LINE
8
0
10
1196.04
20
1054.15
30
0
11
1198.94
21
1054.15
31
0
0
LINE
8
0
10
1198.94
20
1054.15
30
0
11
1198.94
21
1059.85
31
0
0
LINE
8
0
10
1198.94
20
1059.85
30
0
11
1197.49
21
1059.85
31
0
0
LINE
8
0
10
1314.2
20
1101.05
30
0
11
1310.35
21
1101.05
31
0
0
LINE
8
0
10
1310.35
20
1101.05
30
0
11
1310.35
21
1102.35
31
0
0
LINE
8
0
10
1310.35
20
1102.35
30
0
11
1320.55
21
1102.35
31
0
0
LINE
8
0
10
1320.55
20
1102.35
30
0
11
1320.55
21
1099.45
31
0
0
LINE
8
0
10
1320.55
20
1099.45
30
0
11
1310.35
21
1099.45
31
0
0
LINE
8
0
10
1310.35
20
1099.45
30
0
11
1310.35
21
1100.9
31
0
0
LINE
8
0
10
1454
20
1101.05
30
0
11
1450.15
21
1101.05
31
0
0
LINE
8
0
10
1450.15
20
1101.05
30
0
11
1450.15
21
1102.35
31
0
0
LINE
8
0
10
1450.15
20
1102.35
30
0
11
1463.85
21
1102.35
31
0
0
LINE
8
0
10
1463.85
20
1102.35
30
0
11
1463.85
21
1099.45
31
0
0
LINE
8
0
10
1463.85
20
1099.45
30
0
11
1450.15
21
1099.45
31
0
0
LINE
8
0
10
1450.15
20
1099.45
30
0
11
1450.15
21
1100.9
31
0
0
LINE
8
0
10
1335.63
20
1458.85
30
0
11
1367.13
21
1458.85
31
0
0
ARC
8
0
10
1367.13
20
1452
30
0
40
6.85
50
0
51
90
0
LINE
8
0
10
1373.98
20
1452
30
0
11
1373.98
21
1259.15
31
0
0
LINE
8
0
10
1373.98
20
1259.15
30
0
11
1309.14
21
1259.15
31
0
0
ARC
8
0
10
1310.13
20
1265
30
0
40
5.933178
50
170.394796
51
260.394796
0
LINE
8
0
10
1304.28
20
1265.99
30
0
11
1304.28
21
1458.85
31
0
0
LINE
8
0
10
1304.28
20
1458.85
30
0
11
1335.63
21
1458.85
31
0
0
LINE
8
0
10
1318.52
20
1468.89
30
0
11
1315.09
21
1472.32
31
0
0
ARC
8
0
10
1318.63
20
1469
30
0
40
4.853246
50
136.836844
51
135
0
LINE
8
0
10
1453.93
20
1509.5
30
0
11
1453.93
21
1513.35
31
0
0
ARC
8
0
10
1454.08
20
1502.5
30
0
40
10.851037
50
90.792057
51
90
0
LINE
8
0
10
1454
20
1621.05
30
0
11
1450.15
21
1621.05
31
0
0
LINE
8
0
10
1450.15
20
1621.05
30
0
11
1450.15
21
1622.35
31
0
0
LINE
8
0
10
1450.15
20
1622.35
30
0
11
1463.85
21
1622.35
31
0
0
LINE
8
0
10
1463.85
20
1622.35
30
0
11
1463.85
21
1619.45
31
0
0
LINE
8
0
10
1463.85
20
1619.45
30
0
11
1450.15
21
1619.45
31
0
0
LINE
8
0
10
1450.15
20
1619.45
30
0
11
1450.15
21
1620.9
31
0
0
LINE
8
0
10
1379.96
20
1670.81
30
0
11
1376.53
21
1674.24
31
0
0
ARC
8
0
10
1381.48
20
1669.5
30
0
40
6.853474
50
136.24151
51
135
0
LINE
8
0
10
1384.59
20
1706.03
30
0
11
1388.27
21
1702.88
31
0
0
ARC
8
0
10
1369.48
20
1719.14
30
0
40
24.848575
50
225
51
319.128598
0
LINE
8
0
10
1351.91
20
1701.57
30
0
11
1316.55
21
1736.93
31
0
0
ARC
8
0
10
1334.13
20
1754.5
30
0
40
24.854804
50
45
51
224.9837
0
LINE
8
0
10
1351.7
20
1772.07
30
0
11
1387.05
21
1736.72
31
0
0
ARC
8
0
10
1369.48
20
1719.14
30
0
40
24.854804
50
320.634339
51
45.0163
0
LINE
8
0
10
1400.02
20
1743.49
30
0
11
1397.65
21
1745.86
31
0
0
ARC
8
0
10
1400.13
20
1743.6
30
0
40
3.355294
50
137.657391
51
135
0
LINE
8
0
10
1329.96
20
1670.81
30
0
11
1326.53
21
1674.24
31
0
0
ARC
8
0
10
1331.48
20
1669.5
30
0
40
6.853474
50
136.24151
51
135
0
LINE
8
0
10
1314.2
20
1621.05
30
0
11
1310.35
21
1621.05
31
0
0
LINE
8
0
10
1310.35
20
1621.05
30
0
11
1310.35
21
1622.35
31
0
0
LINE
8
0
10
1310.35
20
1622.35
30
0
11
1320.55
21
1622.35
31
0
0
LINE
8
0
10
1320.55
20
1622.35
30
0
11
1320.55
21
1619.45
31
0
0
LINE
8
0
10
1320.55
20
1619.45
30
0
11
1310.35
21
1619.45
31
0
0
LINE
8
0
10
1310.35
20
1619.45
30
0
11
1310.35
21
1620.9
31
0
0
LINE
8
0
10
1286.38
20
1766.39
30
0
11
1283.12
21
1769.64
31
0
0
ARC
8
0
10
1286.48
20
1766.5
30
0
40
4.598826
50
136.938502
51
135
0
LINE
8
0
10
977.49
20
1633.25
30
0
11
979.08
21
1636
31
0
0
LINE
8
0
10
979.08
20
1636
30
0
11
985.43
21
1636
31
0
0
LINE
8
0
10
985.43
20
1636
30
0
11
988.61
21
1630.5
31
0
0
LINE
8
0
10
988.61
20
1630.5
30
0
11
985.43
21
1625
31
0
0
LINE
8
0
10
985.43
20
1625
30
0
11
979.08
21
1625
31
0
0
LINE
8
0
10
979.08
20
1625
30
0
11
975.91
21
1630.5
31
0
0
LINE
8
0
10
975.91
20
1630.5
30
0
11
977.49
21
1633.25
31
0
0
LINE
8
0
10
980.08
20
1616.3
30
0
11
980.08
21
1618.25
31
0
0
LINE
8
0
10
980.08
20
1618.25
30
0
11
981.38
21
1618.25
31
0
0
LINE
8
0
10
981.38
20
1618.25
30
0
11
981.38
21
1614.35
31
0
0
LINE
8
0
10
981.38
20
1614.35
30
0
11
978.48
21
1614.35
31
0
0
LINE
8
0
10
978.48
20
1614.35
30
0
11
978.48
21
1618.25
31
0
0
LINE
8
0
10
978.48
20
1618.25
30
0
11
979.93
21
1618.25
31
0
0
LINE
8
0
10
980.08
20
1418.5
30
0
11
980.08
21
1420.45
31
0
0
LINE
8
0
10
980.08
20
1420.45
30
0
11
981.38
21
1420.45
31
0
0
LINE
8
0
10
981.38
20
1420.45
30
0
11
981.38
21
1416.55
31
0
0
LINE
8
0
10
981.38
20
1416.55
30
0
11
978.48
21
1416.55
31
0
0
LINE
8
0
10
978.48
20
1416.55
30
0
11
978.48
21
1420.45
31
0
0
LINE
8
0
10
978.48
20
1420.45
30
0
11
979.93
21
1420.45
31
0
0
LINE
8
0
10
1055.95
20
1400.07
30
0
11
1052.52
21
1403.5
31
0
0
ARC
8
0
10
1056.23
20
1400
30
0
40
5.100402
50
136.668337
51
134.920533
0
LINE
8
0
10
1055.95
20
1278.07
30
0
11
1052.52
21
1281.5
31
0
0
ARC
8
0
10
1056.23
20
1278
30
0
40
5.100402
50
136.668337
51
134.920533
0
LINE
8
0
10
1195.59
20
1216.72
30
0
11
1192.24
21
1216.72
31
0
0
LINE
8
0
10
1192.24
20
1216.72
30
0
11
1192.24
21
1215.4
31
0
0
LINE
8
0
10
1192.24
20
1215.4
30
0
11
1198.94
21
1215.4
31
0
0
LINE
8
0
10
1198.94
20
1215.4
30
0
11
1198.94
21
1218.35
31
0
0
LINE
8
0
10
1198.94
20
1218.35
30
0
11
1192.24
21
1218.35
31
0
0
LINE
8
0
10
1192.24
20
1218.35
30
0
11
1192.24
21
1216.87
31
0
0
LINE
8
0
10
1195.59
20
1369.97
30
0
11
1192.24
21
1369.97
31
0
0
LINE
8
0
10
1192.24
20
1369.97
30
0
11
1192.24
21
1368.65
31
0
0
LINE
8
0
10
1192.24
20
1368.65
30
0
11
1198.94
21
1368.65
31
0
0
LINE
8
0
10
1198.94
20
1368.65
30
0
11
1198.94
21
1371.6
31
0
0
LINE
8
0
10
1198.94
20
1371.6
30
0
11
1192.24
21
1371.6
31
0
0
LINE
8
0
10
1192.24
20
1371.6
30
0
11
1192.24
21
1370.12
31
0
0
LINE
8
0
10
1484.23
20
59.3
30
0
11
1484.23
21
63.3
31
0
0
LINE
8
0
10
1484.23
20
63.3
30
0
11
1484.23
21
1741.85
31
0
0
LINE
8
0
10
1484.23
20
1741.85
30
0
11
1416.59
21
1741.85
31
0
0
LINE
8
0
10
1416.59
20
1741.85
30
0
11
1412.26
21
1740.81
31
0
0
ARC
8
0
10
1412.06
20
1741.64
30
0
40
0.853756
50
212.938691
51
283.547939
0
LINE
8
0
10
1411.35
20
1741.18
30
0
11
1408.95
21
1744.89
31
0
0
LINE
8
0
10
1408.95
20
1744.89
30
0
11
1366.58
21
1787.26
31
0
0
ARC
8
0
10
1360.81
20
1781.5
30
0
40
8.152944
50
44.950307
51
90
0
LINE
8
0
10
1360.81
20
1789.65
30
0
11
1235.13
21
1789.65
31
0
0
ARC
8
0
10
1235.13
20
1785.5
30
0
40
4.15
50
90
51
180
0
LINE
8
0
10
1230.98
20
1785.5
30
0
11
1230.98
21
1749.65
31
0
0
LINE
8
0
10
1230.98
20
1749.65
30
0
11
957.91
21
1749.65
31
0
0
LINE
8
0
10
957.91
20
1749.65
30
0
11
957.91
21
1744.35
31
0
0
LINE
8
0
10
957.91
20
1744.35
30
0
11
958.41
21
1744.35
31
0
0
LINE
8
0
10
958.41
20
1744.35
30
0
11
958.41
21
1714.65
31
0
0
LINE
8
0
10
958.41
20
1714.65
30
0
11
957.91
21
1714.65
31
0
0
LINE
8
0
10
957.91
20
1714.65
30
0
11
957.91
21
1703.1
31
0
0
LINE
8
0
10
957.91
20
1703.1
30
0
11
962.13
21
1703.1
31
0
0
LINE
8
0
10
962.13
20
1703.1
30
0
11
962.13
21
1702.65
31
0
0
LINE
8
0
10
962.13
20
1702.65
30
0
11
923.35
21
1702.65
31
0
0
LINE
8
0
10
923.35
20
1702.65
30
0
11
923.35
21
102.35
31
0
0
LINE
8
0
10
923.35
20
102.35
30
0
11
964.61
21
102.35
31
0
0
LINE
8
0
10
964.61
20
102.35
30
0
11
964.61
21
99.65
31
0
0
LINE
8
0
10
964.61
20
99.65
30
0
11
957.91
21
99.65
31
0
0
LINE
8
0
10
957.91
20
99.65
30
0
11
957.91
21
90.35
31
0
0
LINE
8
0
10
957.91
20
90.35
30
0
11
958.41
21
90.35
31
0
0
LINE
8
0
10
958.41
20
90.35
30
0
11
958.41
21
60.65
31
0
0
LINE
8
0
10
958.41
20
60.65
30
0
11
957.91
21
60.65
31
0
0
LINE
8
0
10
957.91
20
60.65
30
0
11
957.91
21
55.35
31
0
0
LINE
8
0
10
957.91
20
55.35
30
0
11
1230.98
21
55.35
31
0
0
LINE
8
0
10
1230.98
20
55.35
30
0
11
1230.98
21
19.5
31
0
0
ARC
8
0
10
1235.13
20
19.5
30
0
40
4.15
50
180
51
270
0
LINE
8
0
10
1235.13
20
15.35
30
0
11
1360.81
21
15.35
31
0
0
ARC
8
0
10
1360.81
20
23.5
30
0
40
8.15
50
270
51
315.049693
0
LINE
8
0
10
1366.58
20
17.74
30
0
11
1408.35
21
59.51
31
0
0
LINE
8
0
10
1408.35
20
59.51
30
0
11
1411.34
21
63.85
31
0
0
ARC
8
0
10
1412.04
20
63.37
30
0
40
0.848764
50
76.293039
51
145.561011
0
LINE
8
0
10
1412.24
20
64.19
30
0
11
1416.59
21
63.15
31
0
0
LINE
8
0
10
1416.59
20
63.15
30
0
11
1484.08
21
63.15
31
0
0
ENDSEC
0
EOF
