0
SECTION
2
HEADER
9
$ACADVER
1
AC1009
0
ENDSEC
0
SECTION
2
ENTITIES
0
LINE
8
0
10
817.42
20
1172.04
30
0
11
817.42
21
1181.86
31
0
0
LINE
8
0
10
817.42
20
1181.86
30
0
11
808.92
21
1186.76
31
0
0
LINE
8
0
10
808.92
20
1186.76
30
0
11
800.42
21
1181.86
31
0
0
LINE
8
0
10
800.42
20
1181.86
30
0
11
800.42
21
1172.04
31
0
0
LINE
8
0
10
800.42
20
1172.04
30
0
11
808.92
21
1167.14
31
0
0
LINE
8
0
10
808.92
20
1167.14
30
0
11
817.42
21
1172.04
31
0
0
LINE
8
0
10
763.42
20
1172.04
30
0
11
763.42
21
1181.86
31
0
0
LINE
8
0
10
763.42
20
1181.86
30
0
11
754.92
21
1186.76
31
0
0
LINE
8
0
10
754.92
20
1186.76
30
0
11
746.42
21
1181.86
31
0
0
LINE
8
0
10
746.42
20
1181.86
30
0
11
746.42
21
1172.04
31
0
0
LINE
8
0
10
746.42
20
1172.04
30
0
11
754.92
21
1167.14
31
0
0
LINE
8
0
10
754.92
20
1167.14
30
0
11
763.42
21
1172.04
31
0
0
LINE
8
0
10
808.92
20
1540.14
30
0
11
817.42
21
1545.04
31
0
0
LINE
8
0
10
817.42
20
1545.04
30
0
11
817.42
21
1554.86
31
0
0
LINE
8
0
10
817.42
20
1554.86
30
0
11
808.92
21
1559.76
31
0
0
LINE
8
0
10
808.92
20
1559.76
30
0
11
800.42
21
1554.86
31
0
0
LINE
8
0
10
800.42
20
1554.86
30
0
11
800.42
21
1545.04
31
0
0
LINE
8
0
10
800.42
20
1545.04
30
0
11
808.92
21
1540.14
31
0
0
LINE
8
0
10
808.92
20
1987.14
30
0
11
817.42
21
1992.04
31
0
0
LINE
8
0
10
817.42
20
1992.04
30
0
11
817.42
21
2001.86
31
0
0
LINE
8
0
10
817.42
20
2001.86
30
0
11
808.92
21
2006.76
31
0
0
LINE
8
0
10
808.92
20
2006.76
30
0
11
800.42
21
2001.86
31
0
0
LINE
8
0
10
800.42
20
2001.86
30
0
11
800.42
21
1992.04
31
0
0
LINE
8
0
10
800.42
20
1992.04
30
0
11
808.92
21
1987.14
31
0
0
LINE
8
0
10
808.92
20
2097.14
30
0
11
817.42
21
2102.04
31
0
0
LINE
8
0
10
817.42
20
2102.04
30
0
11
817.42
21
2111.86
31
0
0
LINE
8
0
10
817.42
20
2111.86
30
0
11
808.92
21
2116.76
31
0
0
LINE
8
0
10
808.92
20
2116.76
30
0
11
800.42
21
2111.86
31
0
0
LINE
8
0
10
800.42
20
2111.86
30
0
11
800.42
21
2102.04
31
0
0
LINE
8
0
10
800.42
20
2102.04
30
0
11
808.92
21
2097.14
31
0
0
LINE
8
0
10
808.92
20
2917.14
30
0
11
817.42
21
2922.04
31
0
0
LINE
8
0
10
817.42
20
2922.04
30
0
11
817.42
21
2931.86
31
0
0
LINE
8
0
10
817.42
20
2931.86
30
0
11
808.92
21
2936.76
31
0
0
LINE
8
0
10
808.92
20
2936.76
30
0
11
800.42
21
2931.86
31
0
0
LINE
8
0
10
800.42
20
2931.86
30
0
11
800.42
21
2922.04
31
0
0
LINE
8
0
10
800.42
20
2922.04
30
0
11
808.92
21
2917.14
31
0
0
LINE
8
0
10
763.42
20
2922.04
30
0
11
763.42
21
2931.86
31
0
0
LINE
8
0
10
763.42
20
2931.86
30
0
11
754.92
21
2936.76
31
0
0
LINE
8
0
10
754.92
20
2936.76
30
0
11
746.42
21
2931.86
31
0
0
LINE
8
0
10
746.42
20
2931.86
30
0
11
746.42
21
2922.04
31
0
0
LINE
8
0
10
746.42
20
2922.04
30
0
11
754.92
21
2917.14
31
0
0
LINE
8
0
10
754.92
20
2917.14
30
0
11
763.42
21
2922.04
31
0
0
LINE
8
0
10
752.58
20
2929.21
30
0
11
750.5
21
2931.3
31
0
0
ARC
8
0
10
754.92
20
2926.95
30
0
40
6.201524
50
135.457311
51
135.065332
0
LINE
8
0
10
806.58
20
2929.21
30
0
11
804.5
21
2931.3
31
0
0
ARC
8
0
10
808.92
20
2926.95
30
0
40
6.201524
50
135.457311
51
135.065332
0
LINE
8
0
10
624.18
20
2846.01
30
0
11
622.1
21
2848.09
31
0
0
ARC
8
0
10
643.31
20
2826.95
30
0
40
29.946013
50
135.094704
51
135
0
LINE
8
0
10
624.18
20
2536.01
30
0
11
622.1
21
2538.09
31
0
0
ARC
8
0
10
643.31
20
2516.95
30
0
40
29.946013
50
135.094704
51
135
0
LINE
8
0
10
806.41
20
2556.39
30
0
11
804.32
21
2558.48
31
0
0
ARC
8
0
10
808.92
20
2553.95
30
0
40
6.456075
50
135.43928
51
135
0
LINE
8
0
10
624.18
20
2226.01
30
0
11
622.1
21
2228.09
31
0
0
ARC
8
0
10
643.31
20
2206.95
30
0
40
29.946013
50
135.094704
51
135
0
LINE
8
0
10
622.86
20
2086.45
30
0
11
622.86
21
2089.4
31
0
0
LINE
8
0
10
622.86
20
2089.4
30
0
11
663.76
21
2089.4
31
0
0
LINE
8
0
10
663.76
20
2089.4
30
0
11
663.76
21
2083.5
31
0
0
LINE
8
0
10
663.76
20
2083.5
30
0
11
622.86
21
2083.5
31
0
0
LINE
8
0
10
622.86
20
2083.5
30
0
11
622.86
21
2086.45
31
0
0
LINE
8
0
10
806.58
20
2109.21
30
0
11
804.5
21
2111.3
31
0
0
ARC
8
0
10
808.92
20
2106.95
30
0
40
6.201524
50
135.457311
51
135.065332
0
LINE
8
0
10
806.58
20
1999.21
30
0
11
804.5
21
2001.3
31
0
0
ARC
8
0
10
808.92
20
1996.95
30
0
40
6.201524
50
135.457311
51
135.065332
0
LINE
8
0
10
624.18
20
1916.01
30
0
11
622.1
21
1918.09
31
0
0
ARC
8
0
10
643.31
20
1896.95
30
0
40
29.946013
50
135.094704
51
135
0
LINE
8
0
10
624.18
20
1606.01
30
0
11
622.1
21
1608.09
31
0
0
ARC
8
0
10
643.31
20
1586.95
30
0
40
29.946013
50
135.094704
51
135
0
LINE
8
0
10
622.36
20
1497.55
30
0
11
622.36
21
1494.3
31
0
0
LINE
8
0
10
622.36
20
1494.3
30
0
11
664.26
21
1494.3
31
0
0
LINE
8
0
10
664.26
20
1494.3
30
0
11
664.26
21
1500.8
31
0
0
LINE
8
0
10
664.26
20
1500.8
30
0
11
622.36
21
1500.8
31
0
0
LINE
8
0
10
622.36
20
1500.8
30
0
11
622.36
21
1497.55
31
0
0
LINE
8
0
10
806.58
20
1552.21
30
0
11
804.5
21
1554.3
31
0
0
ARC
8
0
10
808.92
20
1549.95
30
0
40
6.201524
50
135.457311
51
135.065332
0
LINE
8
0
10
624.18
20
1296.01
30
0
11
622.1
21
1298.09
31
0
0
ARC
8
0
10
643.31
20
1276.95
30
0
40
29.946013
50
135.094704
51
135
0
LINE
8
0
10
752.58
20
1179.21
30
0
11
750.5
21
1181.3
31
0
0
ARC
8
0
10
754.92
20
1176.95
30
0
40
6.201524
50
135.457311
51
135.065332
0
LINE
8
0
10
806.58
20
1179.21
30
0
11
804.5
21
1181.3
31
0
0
ARC
8
0
10
808.92
20
1176.95
30
0
40
6.201524
50
135.457311
51
135.065332
0
LINE
8
0
10
846.33
20
1117.24
30
0
11
848.45
21
1119.36
31
0
0
LINE
8
0
10
848.45
20
1119.36
30
0
11
849.47
21
1120.38
31
0
0
LINE
8
0
10
849.47
20
1120.38
30
0
11
849.47
21
2984.02
31
0
0
LINE
8
0
10
849.47
20
2984.02
30
0
11
848.44
21
2985.05
31
0
0
LINE
8
0
10
848.44
20
2985.05
30
0
11
841.4
21
2985.05
31
0
0
LINE
8
0
10
841.4
20
2985.05
30
0
11
840.37
21
2984.02
31
0
0
LINE
8
0
10
840.37
20
2984.02
30
0
11
840.37
21
2980.05
31
0
0
LINE
8
0
10
840.37
20
2980.05
30
0
11
733.47
21
2980.05
31
0
0
LINE
8
0
10
733.47
20
2980.05
30
0
11
733.47
21
2984.02
31
0
0
LINE
8
0
10
733.47
20
2984.02
30
0
11
732.44
21
2985.05
31
0
0
LINE
8
0
10
732.44
20
2985.05
30
0
11
725.4
21
2985.05
31
0
0
LINE
8
0
10
725.4
20
2985.05
30
0
11
724.37
21
2984.02
31
0
0
LINE
8
0
10
724.37
20
2984.02
30
0
11
724.37
21
2957
31
0
0
LINE
8
0
10
724.37
20
2957
30
0
11
713.31
21
2957
31
0
0
ARC
8
0
10
713.31
20
2976.75
30
0
40
19.75
50
179.274776
51
270
0
LINE
8
0
10
693.56
20
2977
30
0
11
658.26
21
2977
31
0
0
ARC
8
0
10
643.31
20
2976.95
30
0
40
14.950084
50
179.808376
51
0.191624
0
LINE
8
0
10
628.36
20
2977
30
0
11
593.06
21
2977
31
0
0
ARC
8
0
10
573.31
20
2976.75
30
0
40
19.751582
50
270
51
0.725224
0
LINE
8
0
10
573.31
20
2957
30
0
11
562.25
21
2957
31
0
0
LINE
8
0
10
562.25
20
2957
30
0
11
562.25
21
2984.02
31
0
0
LINE
8
0
10
562.25
20
2984.02
30
0
11
561.22
21
2985.05
31
0
0
LINE
8
0
10
561.22
20
2985.05
30
0
11
554.18
21
2985.05
31
0
0
LINE
8
0
10
554.18
20
2985.05
30
0
11
553.15
21
2984.02
31
0
0
LINE
8
0
10
553.15
20
2984.02
30
0
11
553.15
21
2980.05
31
0
0
LINE
8
0
10
553.15
20
2980.05
30
0
11
446.25
21
2980.05
31
0
0
LINE
8
0
10
446.25
20
2980.05
30
0
11
446.25
21
2984.02
31
0
0
LINE
8
0
10
446.25
20
2984.02
30
0
11
445.22
21
2985.05
31
0
0
LINE
8
0
10
445.22
20
2985.05
30
0
11
438.18
21
2985.05
31
0
0
LINE
8
0
10
438.18
20
2985.05
30
0
11
437.15
21
2984.02
31
0
0
LINE
8
0
10
437.15
20
2984.02
30
0
11
437.15
21
1120.38
31
0
0
LINE
8
0
10
437.15
20
1120.38
30
0
11
438.18
21
1119.35
31
0
0
LINE
8
0
10
438.18
20
1119.35
30
0
11
445.22
21
1119.35
31
0
0
LINE
8
0
10
445.22
20
1119.35
30
0
11
446.25
21
1120.38
31
0
0
LINE
8
0
10
446.25
20
1120.38
30
0
11
446.25
21
1124.35
31
0
0
LINE
8
0
10
446.25
20
1124.35
30
0
11
553.15
21
1124.35
31
0
0
LINE
8
0
10
553.15
20
1124.35
30
0
11
553.15
21
1120.38
31
0
0
LINE
8
0
10
553.15
20
1120.38
30
0
11
554.18
21
1119.35
31
0
0
LINE
8
0
10
554.18
20
1119.35
30
0
11
561.22
21
1119.35
31
0
0
LINE
8
0
10
561.22
20
1119.35
30
0
11
562.25
21
1120.38
31
0
0
LINE
8
0
10
562.25
20
1120.38
30
0
11
562.25
21
1147.4
31
0
0
LINE
8
0
10
562.25
20
1147.4
30
0
11
573.31
21
1147.4
31
0
0
ARC
8
0
10
573.31
20
1127.65
30
0
40
19.75
50
359.274776
51
90
0
LINE
8
0
10
593.06
20
1127.4
30
0
11
628.36
21
1127.4
31
0
0
ARC
8
0
10
643.31
20
1127.45
30
0
40
14.950084
50
359.808376
51
180.191624
0
LINE
8
0
10
658.26
20
1127.4
30
0
11
693.56
21
1127.4
31
0
0
ARC
8
0
10
713.31
20
1127.65
30
0
40
19.751582
50
90
51
180.725224
0
LINE
8
0
10
713.31
20
1147.4
30
0
11
724.37
21
1147.4
31
0
0
LINE
8
0
10
724.37
20
1147.4
30
0
11
724.37
21
1120.38
31
0
0
LINE
8
0
10
724.37
20
1120.38
30
0
11
725.4
21
1119.35
31
0
0
LINE
8
0
10
725.4
20
1119.35
30
0
11
732.44
21
1119.35
31
0
0
LINE
8
0
10
732.44
20
1119.35
30
0
11
733.47
21
1120.38
31
0
0
LINE
8
0
10
733.47
20
1120.38
30
0
11
733.47
21
1124.35
31
0
0
LINE
8
0
10
733.47
20
1124.35
30
0
11
840.37
21
1124.35
31
0
0
LINE
8
0
10
840.37
20
1124.35
30
0
11
840.37
21
1120.38
31
0
0
LINE
8
0
10
840.37
20
1120.38
30
0
11
841.4
21
1119.35
31
0
0
LINE
8
0
10
841.4
20
1119.35
30
0
11
848.42
21
1119.35
31
0
0
ENDSEC
0
EOF
