0
SECTION
2
HEADER
9
$ACADVER
1
AC1009
0
ENDSEC
0
SECTION
2
ENTITIES
0
LINE
8
0
10
42.61
20
2299.9
30
0
11
51.39
21
2299.9
31
0
0
LINE
8
0
10
51.39
20
2299.9
30
0
11
55.78
21
2307.5
31
0
0
LINE
8
0
10
55.78
20
2307.5
30
0
11
51.39
21
2315.1
31
0
0
LINE
8
0
10
51.39
20
2315.1
30
0
11
42.61
21
2315.1
31
0
0
LINE
8
0
10
42.61
20
2315.1
30
0
11
38.22
21
2307.5
31
0
0
LINE
8
0
10
38.22
20
2307.5
30
0
11
42.61
21
2299.9
31
0
0
LINE
8
0
10
143.22
20
2291
30
0
11
147.61
21
2283.4
31
0
0
LINE
8
0
10
147.61
20
2283.4
30
0
11
156.39
21
2283.4
31
0
0
LINE
8
0
10
156.39
20
2283.4
30
0
11
160.78
21
2291
31
0
0
LINE
8
0
10
160.78
20
2291
30
0
11
156.39
21
2298.6
31
0
0
LINE
8
0
10
156.39
20
2298.6
30
0
11
147.61
21
2298.6
31
0
0
LINE
8
0
10
147.61
20
2298.6
30
0
11
143.22
21
2291
31
0
0
LINE
8
0
10
152.84
20
2291.93
30
0
11
156.33
21
2295.42
31
0
0
ARC
8
0
10
152
20
2291
30
0
40
6.187512
50
45.589307
51
45
0
ARC
8
0
10
92
20
2287.5
30
0
40
19.94
50
90
51
180
0
LINE
8
0
10
72.06
20
2287.5
30
0
11
72.06
21
2227.5
31
0
0
ARC
8
0
10
92
20
2227.5
30
0
40
19.94
50
180
51
0
0
LINE
8
0
10
111.94
20
2227.5
30
0
11
111.94
21
2287.5
31
0
0
ARC
8
0
10
92
20
2287.5
30
0
40
19.94
50
0
51
90
0
LINE
8
0
10
47.84
20
2308.43
30
0
11
51.33
21
2311.92
31
0
0
ARC
8
0
10
47
20
2307.5
30
0
40
6.187512
50
45.589307
51
45
0
LINE
8
0
10
11.94
20
2177
30
0
11
11.94
21
2181
31
0
0
LINE
8
0
10
11.94
20
2181
30
0
11
11.94
21
2330.56
31
0
0
LINE
8
0
10
11.94
20
2330.56
30
0
11
172.06
21
2330.56
31
0
0
LINE
8
0
10
172.06
20
2330.56
30
0
11
172.06
21
2180.94
31
0
0
LINE
8
0
10
172.06
20
2180.94
30
0
11
167.19
21
2180.94
31
0
0
LINE
8
0
10
167.19
20
2180.94
30
0
11
167.19
21
2183.94
31
0
0
LINE
8
0
10
167.19
20
2183.94
30
0
11
16.81
21
2183.94
31
0
0
LINE
8
0
10
16.81
20
2183.94
30
0
11
16.81
21
2180.94
31
0
0
LINE
8
0
10
16.81
20
2180.94
30
0
11
12
21
2180.94
31
0
0
ENDSEC
0
EOF
