0
SECTION
2
HEADER
9
$ACADVER
1
AC1009
0
ENDSEC
0
SECTION
2
ENTITIES
0
LINE
8
0
10
1188.51
20
2101
30
0
11
1192.48
21
2106.68
31
0
0
LINE
8
0
10
1192.48
20
2106.68
30
0
11
1199.39
21
2106.07
31
0
0
LINE
8
0
10
1199.39
20
2106.07
30
0
11
1202.31
21
2099.79
31
0
0
LINE
8
0
10
1202.31
20
2099.79
30
0
11
1198.34
21
2094.12
31
0
0
LINE
8
0
10
1198.34
20
2094.12
30
0
11
1191.44
21
2094.72
31
0
0
LINE
8
0
10
1191.44
20
2094.72
30
0
11
1188.51
21
2101
31
0
0
LINE
8
0
10
1183.77
20
2007.06
30
0
11
1190.67
21
2006.45
31
0
0
LINE
8
0
10
1190.67
20
2006.45
30
0
11
1193.6
21
2000.17
31
0
0
LINE
8
0
10
1193.6
20
2000.17
30
0
11
1189.62
21
1994.5
31
0
0
LINE
8
0
10
1189.62
20
1994.5
30
0
11
1182.72
21
1995.1
31
0
0
LINE
8
0
10
1182.72
20
1995.1
30
0
11
1179.79
21
2001.38
31
0
0
LINE
8
0
10
1179.79
20
2001.38
30
0
11
1183.77
21
2007.06
31
0
0
LINE
8
0
10
1177.23
20
1932.34
30
0
11
1184.13
21
1931.74
31
0
0
LINE
8
0
10
1184.13
20
1931.74
30
0
11
1187.06
21
1925.46
31
0
0
LINE
8
0
10
1187.06
20
1925.46
30
0
11
1183.09
21
1919.78
31
0
0
LINE
8
0
10
1183.09
20
1919.78
30
0
11
1176.19
21
1920.39
31
0
0
LINE
8
0
10
1176.19
20
1920.39
30
0
11
1173.26
21
1926.67
31
0
0
LINE
8
0
10
1173.26
20
1926.67
30
0
11
1177.23
21
1932.34
31
0
0
LINE
8
0
10
1180.37
20
1925.91
30
0
11
1183.54
21
1922.13
31
0
0
ARC
8
0
10
1180.16
20
1926.06
30
0
40
5.183561
50
310.697207
51
310.074231
0
LINE
8
0
10
1137.21
20
1890.88
30
0
11
1135.36
21
1888.23
31
0
0
LINE
8
0
10
1135.36
20
1888.23
30
0
11
1128.93
21
1888.8
31
0
0
LINE
8
0
10
1128.93
20
1888.8
30
0
11
1126.2
21
1894.65
31
0
0
LINE
8
0
10
1126.2
20
1894.65
30
0
11
1129.91
21
1899.93
31
0
0
LINE
8
0
10
1129.91
20
1899.93
30
0
11
1136.34
21
1899.37
31
0
0
LINE
8
0
10
1136.34
20
1899.37
30
0
11
1139.06
21
1893.52
31
0
0
LINE
8
0
10
1139.06
20
1893.52
30
0
11
1137.21
21
1890.88
31
0
0
LINE
8
0
10
1186.9
20
2000.62
30
0
11
1190.08
21
1996.84
31
0
0
ARC
8
0
10
1186.7
20
2000.78
30
0
40
5.191146
50
310.625238
51
309.918664
0
LINE
8
0
10
1195.62
20
2100.24
30
0
11
1198.79
21
2096.46
31
0
0
ARC
8
0
10
1195.41
20
2100.4
30
0
40
5.191146
50
310.625238
51
310.003239
0
LINE
8
0
10
1153.52
20
2155.3
30
0
11
1156.7
21
2151.52
31
0
0
ARC
8
0
10
1153.48
20
2155.26
30
0
40
4.93518
50
310.727219
51
309.984016
0
LINE
8
0
10
1157.88
20
2205.11
30
0
11
1161.06
21
2201.33
31
0
0
ARC
8
0
10
1157.83
20
2205.07
30
0
40
4.94171
50
310.815084
51
310.07289
0
LINE
8
0
10
1180.01
20
2380.01
30
0
11
1178.16
21
2377.37
31
0
0
LINE
8
0
10
1178.16
20
2377.37
30
0
11
1171.73
21
2377.93
31
0
0
LINE
8
0
10
1171.73
20
2377.93
30
0
11
1169
21
2383.78
31
0
0
LINE
8
0
10
1169
20
2383.78
30
0
11
1172.7
21
2389.07
31
0
0
LINE
8
0
10
1172.7
20
2389.07
30
0
11
1179.13
21
2388.5
31
0
0
LINE
8
0
10
1179.13
20
2388.5
30
0
11
1181.86
21
2382.65
31
0
0
LINE
8
0
10
1181.86
20
2382.65
30
0
11
1180.01
21
2380.01
31
0
0
LINE
8
0
10
376.51
20
2480.21
30
0
11
376.16
21
2476.23
31
0
0
LINE
8
0
10
376.16
20
2476.23
30
0
11
376.04
21
2474.8
31
0
0
LINE
8
0
10
376.04
20
2474.8
30
0
11
375.04
21
2474.88
31
0
0
LINE
8
0
10
375.04
20
2474.88
30
0
11
313.93
21
1776.43
31
0
0
LINE
8
0
10
313.93
20
1776.43
30
0
11
314.93
21
1776.34
31
0
0
LINE
8
0
10
314.93
20
1776.34
30
0
11
314.8
21
1774.85
31
0
0
LINE
8
0
10
314.8
20
1774.85
30
0
11
316.29
21
1774.72
31
0
0
LINE
8
0
10
316.29
20
1774.72
30
0
11
316.21
21
1773.72
31
0
0
LINE
8
0
10
316.21
20
1773.72
30
0
11
571.11
21
1751.42
31
0
0
LINE
8
0
10
571.11
20
1751.42
30
0
11
571.37
21
1754.41
31
0
0
LINE
8
0
10
571.37
20
1754.41
30
0
11
942.15
21
1721.97
31
0
0
ARC
8
0
10
941.63
20
1716.05
30
0
40
5.942794
50
355.076203
51
84.980146
0
LINE
8
0
10
947.55
20
1715.54
30
0
11
942.32
21
1655.76
31
0
0
ARC
8
0
10
948.36
20
1655.24
30
0
40
6.062343
50
175.079384
51
264.985235
0
LINE
8
0
10
947.83
20
1649.2
30
0
11
1080.82
21
1637.56
31
0
0
ARC
8
0
10
1081.35
20
1643.6
30
0
40
6.063209
50
264.985235
51
354.985235
0
LINE
8
0
10
1087.39
20
1643.07
30
0
11
1090.88
21
1682.98
31
0
0
LINE
8
0
10
1090.88
20
1682.98
30
0
11
1087.89
21
1683.24
31
0
0
LINE
8
0
10
1087.89
20
1683.24
30
0
11
1087.97
21
1684.12
31
0
0
LINE
8
0
10
1087.97
20
1684.12
30
0
11
1098.03
21
1683.24
31
0
0
LINE
8
0
10
1098.03
20
1683.24
30
0
11
1098.07
21
1683.74
31
0
0
LINE
8
0
10
1098.07
20
1683.74
30
0
11
1127.84
21
1681.13
31
0
0
LINE
8
0
10
1127.84
20
1681.13
30
0
11
1127.8
21
1680.63
31
0
0
LINE
8
0
10
1127.8
20
1680.63
30
0
11
1173.45
21
1676.64
31
0
0
LINE
8
0
10
1173.45
20
1676.64
30
0
11
1238.83
21
2423.9
31
0
0
LINE
8
0
10
1238.83
20
2423.9
30
0
11
1193.17
21
2427.9
31
0
0
LINE
8
0
10
1193.17
20
2427.9
30
0
11
1193.13
21
2427.4
31
0
0
LINE
8
0
10
1193.13
20
2427.4
30
0
11
1163.36
21
2430
31
0
0
LINE
8
0
10
1163.36
20
2430
30
0
11
1163.41
21
2430.5
31
0
0
LINE
8
0
10
1163.41
20
2430.5
30
0
11
1153.35
21
2431.38
31
0
0
LINE
8
0
10
1153.35
20
2431.38
30
0
11
1153.42
21
2432.26
31
0
0
LINE
8
0
10
1153.42
20
2432.26
30
0
11
1156.41
21
2432
31
0
0
LINE
8
0
10
1156.41
20
2432
30
0
11
1159.9
21
2471.91
31
0
0
ARC
8
0
10
1153.87
20
2472.43
30
0
40
6.05238
50
355.071264
51
85.079384
0
LINE
8
0
10
1154.39
20
2478.47
30
0
11
1021.4
21
2490.11
31
0
0
ARC
8
0
10
1020.87
20
2484.07
30
0
40
6.063209
50
84.985235
51
174.976961
0
LINE
8
0
10
1014.84
20
2484.6
30
0
11
1009.09
21
2418.91
31
0
0
LINE
8
0
10
1009.09
20
2418.91
30
0
11
632.39
21
2451.87
31
0
0
LINE
8
0
10
632.39
20
2451.87
30
0
11
632.65
21
2454.85
31
0
0
LINE
8
0
10
632.65
20
2454.85
30
0
11
377.75
21
2477.15
31
0
0
LINE
8
0
10
377.75
20
2477.15
30
0
11
377.66
21
2476.16
31
0
0
LINE
8
0
10
377.66
20
2476.16
30
0
11
376.23
21
2476.28
31
0
0
ENDSEC
0
EOF
