0
SECTION
2
HEADER
9
$ACADVER
1
AC1009
0
ENDSEC
0
SECTION
2
ENTITIES
0
LINE
8
0
10
388.5
20
2962.6
30
0
11
382.5
21
2966.06
31
0
0
LINE
8
0
10
382.5
20
2966.06
30
0
11
382.5
21
2972.99
31
0
0
LINE
8
0
10
382.5
20
2972.99
30
0
11
388.5
21
2976.45
31
0
0
LINE
8
0
10
388.5
20
2976.45
30
0
11
394.5
21
2972.99
31
0
0
LINE
8
0
10
394.5
20
2972.99
30
0
11
394.5
21
2966.06
31
0
0
LINE
8
0
10
394.5
20
2966.06
30
0
11
388.5
21
2962.6
31
0
0
LINE
8
0
10
482.5
20
2966.06
30
0
11
482.5
21
2972.99
31
0
0
LINE
8
0
10
482.5
20
2972.99
30
0
11
488.5
21
2976.45
31
0
0
LINE
8
0
10
488.5
20
2976.45
30
0
11
494.5
21
2972.99
31
0
0
LINE
8
0
10
494.5
20
2972.99
30
0
11
494.5
21
2966.06
31
0
0
LINE
8
0
10
494.5
20
2966.06
30
0
11
488.5
21
2962.6
31
0
0
LINE
8
0
10
488.5
20
2962.6
30
0
11
482.5
21
2966.06
31
0
0
LINE
8
0
10
557.5
20
2966.06
30
0
11
557.5
21
2972.99
31
0
0
LINE
8
0
10
557.5
20
2972.99
30
0
11
563.5
21
2976.45
31
0
0
LINE
8
0
10
563.5
20
2976.45
30
0
11
569.5
21
2972.99
31
0
0
LINE
8
0
10
569.5
20
2972.99
30
0
11
569.5
21
2966.06
31
0
0
LINE
8
0
10
569.5
20
2966.06
30
0
11
563.5
21
2962.6
31
0
0
LINE
8
0
10
563.5
20
2962.6
30
0
11
557.5
21
2966.06
31
0
0
LINE
8
0
10
563.57
20
2969.81
30
0
11
567
21
2973.24
31
0
0
ARC
8
0
10
563.5
20
2969.53
30
0
40
5.100402
50
46.668337
51
44.920533
0
LINE
8
0
10
602.25
20
2929.73
30
0
11
605
21
2928.15
31
0
0
LINE
8
0
10
605
20
2928.15
30
0
11
605
21
2921.79
31
0
0
LINE
8
0
10
605
20
2921.79
30
0
11
599.5
21
2918.62
31
0
0
LINE
8
0
10
599.5
20
2918.62
30
0
11
594
21
2921.79
31
0
0
LINE
8
0
10
594
20
2921.79
30
0
11
594
21
2928.15
31
0
0
LINE
8
0
10
594
20
2928.15
30
0
11
599.5
21
2931.32
31
0
0
LINE
8
0
10
599.5
20
2931.32
30
0
11
602.25
21
2929.73
31
0
0
LINE
8
0
10
488.57
20
2969.81
30
0
11
492
21
2973.24
31
0
0
ARC
8
0
10
488.5
20
2969.53
30
0
40
5.100402
50
46.668337
51
44.920533
0
LINE
8
0
10
388.57
20
2969.81
30
0
11
392
21
2973.24
31
0
0
ARC
8
0
10
388.5
20
2969.53
30
0
40
5.100402
50
46.668337
51
44.920533
0
LINE
8
0
10
337.39
20
2923.08
30
0
11
340.82
21
2926.5
31
0
0
ARC
8
0
10
337.5
20
2922.97
30
0
40
4.845957
50
46.755963
51
45
0
LINE
8
0
10
287.39
20
2923.08
30
0
11
290.82
21
2926.5
31
0
0
ARC
8
0
10
287.5
20
2922.97
30
0
40
4.845957
50
46.755963
51
45
0
LINE
8
0
10
111.25
20
2929.73
30
0
11
114
21
2928.15
31
0
0
LINE
8
0
10
114
20
2928.15
30
0
11
114
21
2921.79
31
0
0
LINE
8
0
10
114
20
2921.79
30
0
11
108.5
21
2918.62
31
0
0
LINE
8
0
10
108.5
20
2918.62
30
0
11
103
21
2921.79
31
0
0
LINE
8
0
10
103
20
2921.79
30
0
11
103
21
2928.15
31
0
0
LINE
8
0
10
103
20
2928.15
30
0
11
108.5
21
2931.32
31
0
0
LINE
8
0
10
108.5
20
2931.32
30
0
11
111.25
21
2929.73
31
0
0
LINE
8
0
10
81.5
20
2120.55
30
0
11
85.5
21
2120.55
31
0
0
LINE
8
0
10
85.5
20
2120.55
30
0
11
86.85
21
2120.55
31
0
0
LINE
8
0
10
86.85
20
2120.55
30
0
11
86.85
21
2119.55
31
0
0
LINE
8
0
10
86.85
20
2119.55
30
0
11
788.15
21
2119.55
31
0
0
LINE
8
0
10
788.15
20
2119.55
30
0
11
788.15
21
2120.55
31
0
0
LINE
8
0
10
788.15
20
2120.55
30
0
11
789.65
21
2120.55
31
0
0
LINE
8
0
10
789.65
20
2120.55
30
0
11
789.65
21
2122.05
31
0
0
LINE
8
0
10
789.65
20
2122.05
30
0
11
790.65
21
2122.05
31
0
0
LINE
8
0
10
790.65
20
2122.05
30
0
11
790.65
21
2378.11
31
0
0
LINE
8
0
10
790.65
20
2378.11
30
0
11
787.65
21
2378.11
31
0
0
LINE
8
0
10
787.65
20
2378.11
30
0
11
787.65
21
2750.21
31
0
0
ARC
8
0
10
793.5
20
2750.21
30
0
40
5.85
50
90
51
180
0
LINE
8
0
10
793.5
20
2756.06
30
0
11
853.5
21
2756.06
31
0
0
ARC
8
0
10
853.5
20
2762.21
30
0
40
6.15
50
270
51
0
0
LINE
8
0
10
859.65
20
2762.21
30
0
11
859.65
21
2895.71
31
0
0
ARC
8
0
10
853.5
20
2895.71
30
0
40
6.15
50
0
51
90
0
LINE
8
0
10
853.5
20
2901.86
30
0
11
813.35
21
2901.86
31
0
0
LINE
8
0
10
813.35
20
2901.86
30
0
11
813.35
21
2898.86
31
0
0
LINE
8
0
10
813.35
20
2898.86
30
0
11
812.65
21
2898.86
31
0
0
LINE
8
0
10
812.65
20
2898.86
30
0
11
812.65
21
2908.96
31
0
0
LINE
8
0
10
812.65
20
2908.96
30
0
11
812.15
21
2908.96
31
0
0
LINE
8
0
10
812.15
20
2908.96
30
0
11
812.15
21
2938.66
31
0
0
LINE
8
0
10
812.15
20
2938.66
30
0
11
812.65
21
2938.66
31
0
0
LINE
8
0
10
812.65
20
2938.66
30
0
11
812.65
21
2984.68
31
0
0
LINE
8
0
10
812.65
20
2984.68
30
0
11
62.35
21
2984.68
31
0
0
LINE
8
0
10
62.35
20
2984.68
30
0
11
62.35
21
2938.66
31
0
0
LINE
8
0
10
62.35
20
2938.66
30
0
11
62.85
21
2938.66
31
0
0
LINE
8
0
10
62.85
20
2938.66
30
0
11
62.85
21
2908.96
31
0
0
LINE
8
0
10
62.85
20
2908.96
30
0
11
62.35
21
2908.96
31
0
0
LINE
8
0
10
62.35
20
2908.96
30
0
11
62.35
21
2898.86
31
0
0
LINE
8
0
10
62.35
20
2898.86
30
0
11
61.65
21
2898.86
31
0
0
LINE
8
0
10
61.65
20
2898.86
30
0
11
61.65
21
2901.86
31
0
0
LINE
8
0
10
61.65
20
2901.86
30
0
11
21.5
21
2901.86
31
0
0
ARC
8
0
10
21.5
20
2895.71
30
0
40
6.15
50
90
51
180
0
LINE
8
0
10
15.35
20
2895.71
30
0
11
15.35
21
2762.21
31
0
0
ARC
8
0
10
21.5
20
2762.21
30
0
40
6.15
50
180
51
270
0
LINE
8
0
10
21.5
20
2756.06
30
0
11
87.35
21
2756.06
31
0
0
LINE
8
0
10
87.35
20
2756.06
30
0
11
87.35
21
2378.11
31
0
0
LINE
8
0
10
87.35
20
2378.11
30
0
11
84.35
21
2378.11
31
0
0
LINE
8
0
10
84.35
20
2378.11
30
0
11
84.35
21
2122.05
31
0
0
LINE
8
0
10
84.35
20
2122.05
30
0
11
85.35
21
2122.05
31
0
0
LINE
8
0
10
85.35
20
2122.05
30
0
11
85.35
21
2120.7
31
0
0
ENDSEC
0
EOF
