0
SECTION
2
HEADER
9
$ACADVER
1
AC1009
0
ENDSEC
0
SECTION
2
ENTITIES
0
CIRCLE
8
0
10
427.33
20
231
30
0
40
11
0
LINE
8
0
10
63.4
20
649.79
30
0
11
63.4
21
650.61
31
0
0
LINE
8
0
10
63.4
20
650.2
30
0
11
59.4
21
650.2
31
0
0
LINE
8
0
10
59.4
20
650.2
30
0
11
59.81
21
649.79
31
0
0
LINE
8
0
10
61.69
20
651.61
30
0
11
61.69
21
653.9
31
0
0
LINE
8
0
10
61.69
20
653.9
30
0
11
62.26
21
654.47
31
0
0
LINE
8
0
10
62.26
20
654.47
30
0
11
62.83
21
654.47
31
0
0
LINE
8
0
10
62.83
20
654.47
30
0
11
63.4
21
653.9
31
0
0
LINE
8
0
10
63.4
20
653.9
30
0
11
63.4
21
652.18
31
0
0
LINE
8
0
10
63.4
20
652.18
30
0
11
62.83
21
651.61
31
0
0
LINE
8
0
10
62.83
20
651.61
30
0
11
59.98
21
651.61
31
0
0
LINE
8
0
10
59.98
20
651.61
30
0
11
59.4
21
652.18
31
0
0
LINE
8
0
10
59.4
20
652.18
30
0
11
59.4
21
653.9
31
0
0
LINE
8
0
10
59.98
20
655.47
30
0
11
59.4
21
656.04
31
0
0
LINE
8
0
10
59.4
20
656.04
30
0
11
59.4
21
657.76
31
0
0
LINE
8
0
10
59.4
20
657.76
30
0
11
59.98
21
658.33
31
0
0
LINE
8
0
10
59.98
20
658.33
30
0
11
61.12
21
658.33
31
0
0
LINE
8
0
10
61.12
20
658.33
30
0
11
61.69
21
657.76
31
0
0
LINE
8
0
10
61.69
20
657.76
30
0
11
62.26
21
658.33
31
0
0
LINE
8
0
10
62.26
20
658.33
30
0
11
62.83
21
658.33
31
0
0
LINE
8
0
10
62.83
20
658.33
30
0
11
63.4
21
657.76
31
0
0
LINE
8
0
10
63.4
20
657.76
30
0
11
63.4
21
656.04
31
0
0
LINE
8
0
10
63.4
20
656.04
30
0
11
62.83
21
655.47
31
0
0
LINE
8
0
10
61.69
20
656.04
30
0
11
61.69
21
657.76
31
0
0
LINE
8
0
10
61.69
20
659.33
30
0
11
61.69
21
661.61
31
0
0
LINE
8
0
10
61.69
20
661.61
30
0
11
62.26
21
662.18
31
0
0
LINE
8
0
10
62.26
20
662.18
30
0
11
62.83
21
662.18
31
0
0
LINE
8
0
10
62.83
20
662.18
30
0
11
63.4
21
661.61
31
0
0
LINE
8
0
10
63.4
20
661.61
30
0
11
63.4
21
659.9
31
0
0
LINE
8
0
10
63.4
20
659.9
30
0
11
62.83
21
659.33
31
0
0
LINE
8
0
10
62.83
20
659.33
30
0
11
59.98
21
659.33
31
0
0
LINE
8
0
10
59.98
20
659.33
30
0
11
59.4
21
659.9
31
0
0
LINE
8
0
10
59.4
20
659.9
30
0
11
59.4
21
661.61
31
0
0
LINE
8
0
10
59.98
20
663.18
30
0
11
59.4
21
663.76
31
0
0
LINE
8
0
10
59.4
20
663.76
30
0
11
59.4
21
665.47
31
0
0
LINE
8
0
10
59.4
20
665.47
30
0
11
59.98
21
666.04
31
0
0
LINE
8
0
10
59.98
20
666.04
30
0
11
62.83
21
666.04
31
0
0
LINE
8
0
10
62.83
20
666.04
30
0
11
63.4
21
665.47
31
0
0
LINE
8
0
10
63.4
20
665.47
30
0
11
63.4
21
663.76
31
0
0
LINE
8
0
10
63.4
20
663.76
30
0
11
62.83
21
663.18
31
0
0
LINE
8
0
10
62.83
20
663.18
30
0
11
59.98
21
663.18
31
0
0
LINE
8
0
10
59.4
20
665.47
30
0
11
63.4
21
663.76
31
0
0
LINE
8
0
10
59.98
20
667.04
30
0
11
59.4
21
667.61
31
0
0
LINE
8
0
10
59.4
20
667.61
30
0
11
59.4
21
669.33
31
0
0
LINE
8
0
10
59.4
20
669.33
30
0
11
59.98
21
669.9
31
0
0
LINE
8
0
10
59.98
20
669.9
30
0
11
61.12
21
669.9
31
0
0
LINE
8
0
10
61.12
20
669.9
30
0
11
61.69
21
669.33
31
0
0
LINE
8
0
10
61.69
20
669.33
30
0
11
61.69
21
667.61
31
0
0
LINE
8
0
10
61.69
20
667.61
30
0
11
62.26
21
667.04
31
0
0
LINE
8
0
10
62.26
20
667.04
30
0
11
63.4
21
667.04
31
0
0
LINE
8
0
10
63.4
20
667.04
30
0
11
63.4
21
669.33
31
0
0
LINE
8
0
10
63.4
20
669.33
30
0
11
62.83
21
669.9
31
0
0
LINE
8
0
10
59.98
20
670.9
30
0
11
59.4
21
671.47
31
0
0
LINE
8
0
10
59.4
20
671.47
30
0
11
59.4
21
673.18
31
0
0
LINE
8
0
10
59.4
20
673.18
30
0
11
59.98
21
673.76
31
0
0
LINE
8
0
10
59.98
20
673.76
30
0
11
61.12
21
673.76
31
0
0
LINE
8
0
10
61.12
20
673.76
30
0
11
61.69
21
673.18
31
0
0
LINE
8
0
10
61.69
20
673.18
30
0
11
61.69
21
671.47
31
0
0
LINE
8
0
10
61.69
20
671.47
30
0
11
62.26
21
670.9
31
0
0
LINE
8
0
10
62.26
20
670.9
30
0
11
63.4
21
670.9
31
0
0
LINE
8
0
10
63.4
20
670.9
30
0
11
63.4
21
673.18
31
0
0
LINE
8
0
10
63.4
20
673.18
30
0
11
62.83
21
673.76
31
0
0
LINE
8
0
10
63.4
20
675.33
30
0
11
59.4
21
677.61
31
0
0
LINE
8
0
10
59.4
20
677.61
30
0
11
59.4
21
674.76
31
0
0
LINE
8
0
10
61.69
20
675.33
30
0
11
61.69
21
677.04
31
0
0
LINE
8
0
10
61.69
20
680.9
30
0
11
61.69
21
679.18
31
0
0
LINE
8
0
10
61.69
20
679.18
30
0
11
62.26
21
678.61
31
0
0
LINE
8
0
10
62.26
20
678.61
30
0
11
62.83
21
678.61
31
0
0
LINE
8
0
10
62.83
20
678.61
30
0
11
63.4
21
679.18
31
0
0
LINE
8
0
10
63.4
20
679.18
30
0
11
63.4
21
680.9
31
0
0
LINE
8
0
10
63.4
20
680.9
30
0
11
62.83
21
681.47
31
0
0
LINE
8
0
10
62.83
20
681.47
30
0
11
62.26
21
681.47
31
0
0
LINE
8
0
10
62.26
20
681.47
30
0
11
61.69
21
680.9
31
0
0
LINE
8
0
10
61.69
20
683.04
30
0
11
61.69
21
684.76
31
0
0
LINE
8
0
10
63.4
20
683.04
30
0
11
59.4
21
685.33
31
0
0
LINE
8
0
10
59.4
20
685.33
30
0
11
59.4
21
682.47
31
0
0
LINE
8
0
10
142.02
20
501.63
30
0
11
138.52
21
505.13
31
0
0
ARC
8
0
10
142.23
20
501.5
30
0
40
5.190472
50
135.624452
51
134.921834
0
LINE
8
0
10
142.02
20
379.63
30
0
11
138.52
21
383.13
31
0
0
ARC
8
0
10
142.23
20
379.5
30
0
40
5.190472
50
135.624452
51
134.921834
0
LINE
8
0
10
63.42
20
273.8
30
0
11
65.03
21
276.59
31
0
0
LINE
8
0
10
65.03
20
276.59
30
0
11
71.48
21
276.59
31
0
0
LINE
8
0
10
71.48
20
276.59
30
0
11
74.71
21
271
31
0
0
LINE
8
0
10
74.71
20
271
30
0
11
71.48
21
265.41
31
0
0
LINE
8
0
10
71.48
20
265.41
30
0
11
65.03
21
265.41
31
0
0
LINE
8
0
10
65.03
20
265.41
30
0
11
61.8
21
271
31
0
0
LINE
8
0
10
61.8
20
271
30
0
11
63.42
21
273.8
31
0
0
LINE
8
0
10
79.21
20
55.96
30
0
11
76.78
21
58.39
31
0
0
ARC
8
0
10
79.26
20
56
30
0
40
3.444198
50
136.058734
51
135.11765
0
LINE
8
0
10
372.44
20
32.96
30
0
11
369.12
21
36.27
31
0
0
ARC
8
0
10
372.48
20
33
30
0
40
4.68855
50
135.777723
51
134.913581
0
LINE
8
0
10
471.07
20
92.88
30
0
11
474.91
21
95.99
31
0
0
ARC
8
0
10
455.48
20
80.36
30
0
40
24.936355
50
315
51
38.814109
0
LINE
8
0
10
473.12
20
62.72
30
0
11
437.76
21
27.36
31
0
0
ARC
8
0
10
420.13
20
45
30
0
40
24.939657
50
135
51
314.983755
0
LINE
8
0
10
402.49
20
62.64
30
0
11
437.85
21
97.99
31
0
0
ARC
8
0
10
455.48
20
80.36
30
0
40
24.932585
50
40.087959
51
135
0
LINE
8
0
10
466.03
20
131.37
30
0
11
462.53
21
134.86
31
0
0
ARC
8
0
10
467.48
20
130
30
0
40
6.937009
50
135.525635
51
135
0
LINE
8
0
10
416.03
20
131.37
30
0
11
412.53
21
134.86
31
0
0
ARC
8
0
10
417.48
20
130
30
0
40
6.937009
50
135.525635
51
135
0
LINE
8
0
10
400.2
20
178.66
30
0
11
396.26
21
178.66
31
0
0
LINE
8
0
10
396.26
20
178.66
30
0
11
396.26
21
180.14
31
0
0
LINE
8
0
10
396.26
20
180.14
30
0
11
406.64
21
180.14
31
0
0
LINE
8
0
10
406.64
20
180.14
30
0
11
406.64
21
177.06
31
0
0
LINE
8
0
10
406.64
20
177.06
30
0
11
396.26
21
177.06
31
0
0
LINE
8
0
10
396.26
20
177.06
30
0
11
396.26
21
178.6
31
0
0
LINE
8
0
10
540
20
178.66
30
0
11
536.06
21
178.66
31
0
0
LINE
8
0
10
536.06
20
178.66
30
0
11
536.06
21
180.14
31
0
0
LINE
8
0
10
536.06
20
180.14
30
0
11
549.94
21
180.14
31
0
0
LINE
8
0
10
549.94
20
180.14
30
0
11
549.94
21
177.06
31
0
0
LINE
8
0
10
549.94
20
177.06
30
0
11
536.06
21
177.06
31
0
0
LINE
8
0
10
536.06
20
177.06
30
0
11
536.06
21
178.6
31
0
0
LINE
8
0
10
540.02
20
304
30
0
11
540.02
21
307.94
31
0
0
ARC
8
0
10
540.08
20
297
30
0
40
10.940165
50
90.314233
51
90
0
LINE
8
0
10
428.63
20
540.44
30
0
11
460.07
21
540.44
31
0
0
LINE
8
0
10
460.07
20
540.44
30
0
11
460.07
21
347.5
31
0
0
ARC
8
0
10
453.13
20
347.5
30
0
40
6.94
50
270
51
0
0
LINE
8
0
10
453.13
20
340.56
30
0
11
390.19
21
340.56
31
0
0
LINE
8
0
10
390.19
20
340.56
30
0
11
390.19
21
533.5
31
0
0
ARC
8
0
10
397.13
20
533.5
30
0
40
6.94
50
90
51
180
0
LINE
8
0
10
397.13
20
540.44
30
0
11
428.63
21
540.44
31
0
0
LINE
8
0
10
281.59
20
594.82
30
0
11
278.15
21
594.82
31
0
0
LINE
8
0
10
278.15
20
594.82
30
0
11
278.15
21
593.31
31
0
0
LINE
8
0
10
278.15
20
593.31
30
0
11
285.03
21
593.31
31
0
0
LINE
8
0
10
285.03
20
593.31
30
0
11
285.03
21
596.44
31
0
0
LINE
8
0
10
285.03
20
596.44
30
0
11
278.15
21
596.44
31
0
0
LINE
8
0
10
278.15
20
596.44
30
0
11
278.15
21
594.87
31
0
0
LINE
8
0
10
281.59
20
748.06
30
0
11
278.15
21
748.06
31
0
0
LINE
8
0
10
278.15
20
748.06
30
0
11
278.15
21
746.56
31
0
0
LINE
8
0
10
278.15
20
746.56
30
0
11
285.03
21
746.56
31
0
0
LINE
8
0
10
285.03
20
746.56
30
0
11
285.03
21
749.69
31
0
0
LINE
8
0
10
285.03
20
749.69
30
0
11
278.15
21
749.69
31
0
0
LINE
8
0
10
278.15
20
749.69
30
0
11
278.15
21
748.12
31
0
0
LINE
8
0
10
400.2
20
698.66
30
0
11
396.26
21
698.66
31
0
0
LINE
8
0
10
396.26
20
698.66
30
0
11
396.26
21
700.14
31
0
0
LINE
8
0
10
396.26
20
700.14
30
0
11
406.64
21
700.14
31
0
0
LINE
8
0
10
406.64
20
700.14
30
0
11
406.64
21
697.06
31
0
0
LINE
8
0
10
406.64
20
697.06
30
0
11
396.26
21
697.06
31
0
0
LINE
8
0
10
396.26
20
697.06
30
0
11
396.26
21
698.6
31
0
0
LINE
8
0
10
540
20
698.66
30
0
11
536.06
21
698.66
31
0
0
LINE
8
0
10
536.06
20
698.66
30
0
11
536.06
21
700.14
31
0
0
LINE
8
0
10
536.06
20
700.14
30
0
11
549.94
21
700.14
31
0
0
LINE
8
0
10
549.94
20
700.14
30
0
11
549.94
21
697.06
31
0
0
LINE
8
0
10
549.94
20
697.06
30
0
11
536.06
21
697.06
31
0
0
LINE
8
0
10
536.06
20
697.06
30
0
11
536.06
21
698.6
31
0
0
LINE
8
0
10
283.55
20
896.5
30
0
11
283.55
21
899.44
31
0
0
LINE
8
0
10
283.55
20
899.44
30
0
11
285.03
21
899.44
31
0
0
LINE
8
0
10
285.03
20
899.44
30
0
11
285.03
21
893.56
31
0
0
LINE
8
0
10
285.03
20
893.56
30
0
11
281.95
21
893.56
31
0
0
LINE
8
0
10
281.95
20
893.56
30
0
11
281.95
21
899.44
31
0
0
LINE
8
0
10
281.95
20
899.44
30
0
11
283.49
21
899.44
31
0
0
LINE
8
0
10
283.43
20
1051.5
30
0
11
283.43
21
1054.44
31
0
0
LINE
8
0
10
283.43
20
1054.44
30
0
11
281.95
21
1054.44
31
0
0
LINE
8
0
10
281.95
20
1054.44
30
0
11
281.95
21
1048.56
31
0
0
LINE
8
0
10
281.95
20
1048.56
30
0
11
285.03
21
1048.56
31
0
0
LINE
8
0
10
285.03
20
1048.56
30
0
11
285.03
21
1054.44
31
0
0
LINE
8
0
10
285.03
20
1054.44
30
0
11
283.49
21
1054.44
31
0
0
LINE
8
0
10
400.2
20
1095.46
30
0
11
396.26
21
1095.46
31
0
0
LINE
8
0
10
396.26
20
1095.46
30
0
11
396.26
21
1096.94
31
0
0
LINE
8
0
10
396.26
20
1096.94
30
0
11
406.64
21
1096.94
31
0
0
LINE
8
0
10
406.64
20
1096.94
30
0
11
406.64
21
1093.86
31
0
0
LINE
8
0
10
406.64
20
1093.86
30
0
11
396.26
21
1093.86
31
0
0
LINE
8
0
10
396.26
20
1093.86
30
0
11
396.26
21
1095.4
31
0
0
LINE
8
0
10
540
20
1095.46
30
0
11
536.06
21
1095.46
31
0
0
LINE
8
0
10
536.06
20
1095.46
30
0
11
536.06
21
1096.94
31
0
0
LINE
8
0
10
536.06
20
1096.94
30
0
11
549.94
21
1096.94
31
0
0
LINE
8
0
10
549.94
20
1096.94
30
0
11
549.94
21
1093.86
31
0
0
LINE
8
0
10
549.94
20
1093.86
30
0
11
536.06
21
1093.86
31
0
0
LINE
8
0
10
536.06
20
1093.86
30
0
11
536.06
21
1095.4
31
0
0
LINE
8
0
10
421.63
20
1453.44
30
0
11
453.13
21
1453.44
31
0
0
ARC
8
0
10
453.13
20
1446.5
30
0
40
6.94
50
0
51
90
0
LINE
8
0
10
460.07
20
1446.5
30
0
11
460.07
21
1253.56
31
0
0
LINE
8
0
10
460.07
20
1253.56
30
0
11
395.14
21
1253.56
31
0
0
ARC
8
0
10
396.13
20
1259.5
30
0
40
6.021935
50
170.537678
51
260.537678
0
LINE
8
0
10
390.19
20
1260.49
30
0
11
390.19
21
1453.44
31
0
0
LINE
8
0
10
390.19
20
1453.44
30
0
11
421.63
21
1453.44
31
0
0
LINE
8
0
10
404.58
20
1463.46
30
0
11
401.09
21
1466.95
31
0
0
ARC
8
0
10
404.63
20
1463.5
30
0
40
4.943086
50
135.737673
51
135.081968
0
LINE
8
0
10
540.02
20
1504
30
0
11
540.02
21
1507.94
31
0
0
ARC
8
0
10
540.08
20
1497
30
0
40
10.940165
50
90.314233
51
90
0
LINE
8
0
10
540
20
1615.46
30
0
11
536.06
21
1615.46
31
0
0
LINE
8
0
10
536.06
20
1615.46
30
0
11
536.06
21
1616.94
31
0
0
LINE
8
0
10
536.06
20
1616.94
30
0
11
549.94
21
1616.94
31
0
0
LINE
8
0
10
549.94
20
1616.94
30
0
11
549.94
21
1613.86
31
0
0
LINE
8
0
10
549.94
20
1613.86
30
0
11
536.06
21
1613.86
31
0
0
LINE
8
0
10
536.06
20
1613.86
30
0
11
536.06
21
1615.4
31
0
0
LINE
8
0
10
466.03
20
1665.37
30
0
11
462.53
21
1668.86
31
0
0
ARC
8
0
10
467.48
20
1664
30
0
40
6.937009
50
135.525635
51
135
0
LINE
8
0
10
470.64
20
1700.6
30
0
11
474.4
21
1697.39
31
0
0
ARC
8
0
10
455.48
20
1713.64
30
0
40
24.940507
50
225
51
319.341395
0
LINE
8
0
10
437.85
20
1696.01
30
0
11
402.49
21
1731.36
31
0
0
ARC
8
0
10
420.13
20
1749
30
0
40
24.946727
50
45.016245
51
225
0
LINE
8
0
10
437.76
20
1766.64
30
0
11
473.12
21
1731.28
31
0
0
ARC
8
0
10
455.48
20
1713.64
30
0
40
24.946727
50
320.629772
51
45
0
LINE
8
0
10
486.08
20
1738.06
30
0
11
483.65
21
1740.49
31
0
0
ARC
8
0
10
486.13
20
1738.1
30
0
40
3.444198
50
136.058734
51
135.11765
0
LINE
8
0
10
416.03
20
1665.37
30
0
11
412.53
21
1668.86
31
0
0
ARC
8
0
10
417.48
20
1664
30
0
40
6.937009
50
135.525635
51
135
0
LINE
8
0
10
400.2
20
1615.46
30
0
11
396.26
21
1615.46
31
0
0
LINE
8
0
10
396.26
20
1615.46
30
0
11
396.26
21
1616.94
31
0
0
LINE
8
0
10
396.26
20
1616.94
30
0
11
406.64
21
1616.94
31
0
0
LINE
8
0
10
406.64
20
1616.94
30
0
11
406.64
21
1613.86
31
0
0
LINE
8
0
10
406.64
20
1613.86
30
0
11
396.26
21
1613.86
31
0
0
LINE
8
0
10
396.26
20
1613.86
30
0
11
396.26
21
1615.4
31
0
0
LINE
8
0
10
372.44
20
1760.96
30
0
11
369.12
21
1764.27
31
0
0
ARC
8
0
10
372.48
20
1761
30
0
40
4.68855
50
135.777723
51
134.913581
0
LINE
8
0
10
63.42
20
1627.8
30
0
11
65.03
21
1630.59
31
0
0
LINE
8
0
10
65.03
20
1630.59
30
0
11
71.48
21
1630.59
31
0
0
LINE
8
0
10
71.48
20
1630.59
30
0
11
74.71
21
1625
31
0
0
LINE
8
0
10
74.71
20
1625
30
0
11
71.48
21
1619.41
31
0
0
LINE
8
0
10
71.48
20
1619.41
30
0
11
65.03
21
1619.41
31
0
0
LINE
8
0
10
65.03
20
1619.41
30
0
11
61.8
21
1625
31
0
0
LINE
8
0
10
61.8
20
1625
30
0
11
63.42
21
1627.8
31
0
0
LINE
8
0
10
65.99
20
1610.8
30
0
11
65.99
21
1612.84
31
0
0
LINE
8
0
10
65.99
20
1612.84
30
0
11
67.47
21
1612.84
31
0
0
LINE
8
0
10
67.47
20
1612.84
30
0
11
67.47
21
1608.76
31
0
0
LINE
8
0
10
67.47
20
1608.76
30
0
11
64.39
21
1608.76
31
0
0
LINE
8
0
10
64.39
20
1608.76
30
0
11
64.39
21
1612.84
31
0
0
LINE
8
0
10
64.39
20
1612.84
30
0
11
65.93
21
1612.84
31
0
0
LINE
8
0
10
65.99
20
1413
30
0
11
65.99
21
1415.04
31
0
0
LINE
8
0
10
65.99
20
1415.04
30
0
11
67.47
21
1415.04
31
0
0
LINE
8
0
10
67.47
20
1415.04
30
0
11
67.47
21
1410.96
31
0
0
LINE
8
0
10
67.47
20
1410.96
30
0
11
64.39
21
1410.96
31
0
0
LINE
8
0
10
64.39
20
1410.96
30
0
11
64.39
21
1415.04
31
0
0
LINE
8
0
10
64.39
20
1415.04
30
0
11
65.93
21
1415.04
31
0
0
LINE
8
0
10
142.02
20
1394.63
30
0
11
138.52
21
1398.13
31
0
0
ARC
8
0
10
142.23
20
1394.5
30
0
40
5.190472
50
135.624452
51
134.921834
0
LINE
8
0
10
142.02
20
1272.63
30
0
11
138.52
21
1276.13
31
0
0
ARC
8
0
10
142.23
20
1272.5
30
0
40
5.190472
50
135.624452
51
134.921834
0
LINE
8
0
10
281.59
20
1211.31
30
0
11
278.15
21
1211.31
31
0
0
LINE
8
0
10
278.15
20
1211.31
30
0
11
278.15
21
1209.81
31
0
0
LINE
8
0
10
278.15
20
1209.81
30
0
11
285.03
21
1209.81
31
0
0
LINE
8
0
10
285.03
20
1209.81
30
0
11
285.03
21
1212.94
31
0
0
LINE
8
0
10
285.03
20
1212.94
30
0
11
278.15
21
1212.94
31
0
0
LINE
8
0
10
278.15
20
1212.94
30
0
11
278.15
21
1211.37
31
0
0
LINE
8
0
10
281.59
20
1364.56
30
0
11
278.15
21
1364.56
31
0
0
LINE
8
0
10
278.15
20
1364.56
30
0
11
278.15
21
1363.06
31
0
0
LINE
8
0
10
278.15
20
1363.06
30
0
11
285.03
21
1363.06
31
0
0
LINE
8
0
10
285.03
20
1363.06
30
0
11
285.03
21
1366.19
31
0
0
LINE
8
0
10
285.03
20
1366.19
30
0
11
278.15
21
1366.19
31
0
0
LINE
8
0
10
278.15
20
1366.19
30
0
11
278.15
21
1364.62
31
0
0
LINE
8
0
10
570.08
20
57.74
30
0
11
570.08
21
57.74
31
0
0
LINE
8
0
10
570.08
20
57.74
30
0
11
570.08
21
57.74
31
0
0
ENDSEC
0
EOF
