0
SECTION
2
HEADER
9
$ACADVER
1
AC1009
0
ENDSEC
0
SECTION
2
ENTITIES
0
LINE
8
0
10
437.26
20
67.89
30
0
11
437.26
21
77.71
31
0
0
LINE
8
0
10
437.26
20
77.71
30
0
11
428.76
21
82.61
31
0
0
LINE
8
0
10
428.76
20
82.61
30
0
11
420.26
21
77.71
31
0
0
LINE
8
0
10
420.26
20
77.71
30
0
11
420.26
21
67.89
31
0
0
LINE
8
0
10
420.26
20
67.89
30
0
11
428.76
21
62.99
31
0
0
LINE
8
0
10
428.76
20
62.99
30
0
11
437.26
21
67.89
31
0
0
LINE
8
0
10
383.26
20
67.89
30
0
11
383.26
21
77.71
31
0
0
LINE
8
0
10
383.26
20
77.71
30
0
11
374.76
21
82.61
31
0
0
LINE
8
0
10
374.76
20
82.61
30
0
11
366.26
21
77.71
31
0
0
LINE
8
0
10
366.26
20
77.71
30
0
11
366.26
21
67.89
31
0
0
LINE
8
0
10
366.26
20
67.89
30
0
11
374.76
21
62.99
31
0
0
LINE
8
0
10
374.76
20
62.99
30
0
11
383.26
21
67.89
31
0
0
LINE
8
0
10
374.76
20
509.99
30
0
11
383.26
21
514.89
31
0
0
LINE
8
0
10
383.26
20
514.89
30
0
11
383.26
21
524.71
31
0
0
LINE
8
0
10
383.26
20
524.71
30
0
11
374.76
21
529.61
31
0
0
LINE
8
0
10
374.76
20
529.61
30
0
11
366.26
21
524.71
31
0
0
LINE
8
0
10
366.26
20
524.71
30
0
11
366.26
21
514.89
31
0
0
LINE
8
0
10
366.26
20
514.89
30
0
11
374.76
21
509.99
31
0
0
LINE
8
0
10
420.26
20
514.89
30
0
11
428.76
21
509.99
31
0
0
LINE
8
0
10
428.76
20
509.99
30
0
11
437.26
21
514.89
31
0
0
LINE
8
0
10
437.26
20
514.89
30
0
11
437.26
21
524.71
31
0
0
LINE
8
0
10
437.26
20
524.71
30
0
11
428.76
21
529.61
31
0
0
LINE
8
0
10
428.76
20
529.61
30
0
11
420.26
21
524.71
31
0
0
LINE
8
0
10
420.26
20
524.71
30
0
11
420.26
21
514.89
31
0
0
LINE
8
0
10
428.76
20
619.99
30
0
11
437.26
21
624.89
31
0
0
LINE
8
0
10
437.26
20
624.89
30
0
11
437.26
21
634.71
31
0
0
LINE
8
0
10
437.26
20
634.71
30
0
11
428.76
21
639.61
31
0
0
LINE
8
0
10
428.76
20
639.61
30
0
11
420.26
21
634.71
31
0
0
LINE
8
0
10
420.26
20
634.71
30
0
11
420.26
21
624.89
31
0
0
LINE
8
0
10
420.26
20
624.89
30
0
11
428.76
21
619.99
31
0
0
LINE
8
0
10
383.26
20
624.89
30
0
11
383.26
21
634.71
31
0
0
LINE
8
0
10
383.26
20
634.71
30
0
11
374.76
21
639.61
31
0
0
LINE
8
0
10
374.76
20
639.61
30
0
11
366.26
21
634.71
31
0
0
LINE
8
0
10
366.26
20
634.71
30
0
11
366.26
21
624.89
31
0
0
LINE
8
0
10
366.26
20
624.89
30
0
11
374.76
21
619.99
31
0
0
LINE
8
0
10
374.76
20
619.99
30
0
11
383.26
21
624.89
31
0
0
LINE
8
0
10
374.76
20
1439.99
30
0
11
383.26
21
1444.89
31
0
0
LINE
8
0
10
383.26
20
1444.89
30
0
11
383.26
21
1454.71
31
0
0
LINE
8
0
10
383.26
20
1454.71
30
0
11
374.76
21
1459.61
31
0
0
LINE
8
0
10
374.76
20
1459.61
30
0
11
366.26
21
1454.71
31
0
0
LINE
8
0
10
366.26
20
1454.71
30
0
11
366.26
21
1444.89
31
0
0
LINE
8
0
10
366.26
20
1444.89
30
0
11
374.76
21
1439.99
31
0
0
LINE
8
0
10
420.26
20
1444.89
30
0
11
428.76
21
1439.99
31
0
0
LINE
8
0
10
428.76
20
1439.99
30
0
11
437.26
21
1444.89
31
0
0
LINE
8
0
10
437.26
20
1444.89
30
0
11
437.26
21
1454.71
31
0
0
LINE
8
0
10
437.26
20
1454.71
30
0
11
428.76
21
1459.61
31
0
0
LINE
8
0
10
428.76
20
1459.61
30
0
11
420.26
21
1454.71
31
0
0
LINE
8
0
10
420.26
20
1454.71
30
0
11
420.26
21
1444.89
31
0
0
LINE
8
0
10
426.42
20
1452.06
30
0
11
424.34
21
1454.15
31
0
0
ARC
8
0
10
428.76
20
1449.8
30
0
40
6.201524
50
135.457311
51
135.065332
0
LINE
8
0
10
372.42
20
1452.06
30
0
11
370.34
21
1454.15
31
0
0
ARC
8
0
10
374.76
20
1449.8
30
0
40
6.201524
50
135.457311
51
135.065332
0
LINE
8
0
10
244
20
1380.36
30
0
11
241.92
21
1382.44
31
0
0
ARC
8
0
10
263.13
20
1361.3
30
0
40
29.946013
50
135.094704
51
135
0
LINE
8
0
10
244
20
1080.36
30
0
11
241.92
21
1082.44
31
0
0
ARC
8
0
10
263.13
20
1061.3
30
0
40
29.946013
50
135.094704
51
135
0
LINE
8
0
10
244
20
780.36
30
0
11
241.92
21
782.44
31
0
0
ARC
8
0
10
263.13
20
761.3
30
0
40
29.946013
50
135.094704
51
135
0
LINE
8
0
10
242.68
20
609.3
30
0
11
242.68
21
612.25
31
0
0
LINE
8
0
10
242.68
20
612.25
30
0
11
283.58
21
612.25
31
0
0
LINE
8
0
10
283.58
20
612.25
30
0
11
283.58
21
606.35
31
0
0
LINE
8
0
10
283.58
20
606.35
30
0
11
242.68
21
606.35
31
0
0
LINE
8
0
10
242.68
20
606.35
30
0
11
242.68
21
609.3
31
0
0
LINE
8
0
10
372.42
20
632.06
30
0
11
370.34
21
634.15
31
0
0
ARC
8
0
10
374.76
20
629.8
30
0
40
6.201524
50
135.457311
51
135.065332
0
LINE
8
0
10
426.42
20
632.06
30
0
11
424.34
21
634.15
31
0
0
ARC
8
0
10
428.76
20
629.8
30
0
40
6.201524
50
135.457311
51
135.065332
0
LINE
8
0
10
426.42
20
522.06
30
0
11
424.34
21
524.15
31
0
0
ARC
8
0
10
428.76
20
519.8
30
0
40
6.201524
50
135.457311
51
135.065332
0
LINE
8
0
10
372.42
20
522.06
30
0
11
370.34
21
524.15
31
0
0
ARC
8
0
10
374.76
20
519.8
30
0
40
6.201524
50
135.457311
51
135.065332
0
LINE
8
0
10
244
20
480.36
30
0
11
241.92
21
482.44
31
0
0
ARC
8
0
10
263.13
20
461.3
30
0
40
29.946013
50
135.094704
51
135
0
LINE
8
0
10
244
20
180.36
30
0
11
241.92
21
182.44
31
0
0
ARC
8
0
10
263.13
20
161.3
30
0
40
29.946013
50
135.094704
51
135
0
LINE
8
0
10
372.42
20
75.06
30
0
11
370.34
21
77.15
31
0
0
ARC
8
0
10
374.76
20
72.8
30
0
40
6.201524
50
135.457311
51
135.065332
0
LINE
8
0
10
426.42
20
75.06
30
0
11
424.34
21
77.15
31
0
0
ARC
8
0
10
428.76
20
72.8
30
0
40
6.201524
50
135.457311
51
135.065332
0
LINE
8
0
10
466.17
20
12.84
30
0
11
468.29
21
14.96
31
0
0
LINE
8
0
10
468.29
20
14.96
30
0
11
469.31
21
15.98
31
0
0
LINE
8
0
10
469.31
20
15.98
30
0
11
469.31
21
1506.62
31
0
0
LINE
8
0
10
469.31
20
1506.62
30
0
11
468.28
21
1507.65
31
0
0
LINE
8
0
10
468.28
20
1507.65
30
0
11
461.24
21
1507.65
31
0
0
LINE
8
0
10
461.24
20
1507.65
30
0
11
460.21
21
1506.62
31
0
0
LINE
8
0
10
460.21
20
1506.62
30
0
11
460.21
21
1502.65
31
0
0
LINE
8
0
10
460.21
20
1502.65
30
0
11
353.31
21
1502.65
31
0
0
LINE
8
0
10
353.31
20
1502.65
30
0
11
353.31
21
1506.62
31
0
0
LINE
8
0
10
353.31
20
1506.62
30
0
11
352.28
21
1507.65
31
0
0
LINE
8
0
10
352.28
20
1507.65
30
0
11
345.24
21
1507.65
31
0
0
LINE
8
0
10
345.24
20
1507.65
30
0
11
344.21
21
1506.62
31
0
0
LINE
8
0
10
344.21
20
1506.62
30
0
11
344.21
21
1479.35
31
0
0
LINE
8
0
10
344.21
20
1479.35
30
0
11
333.13
21
1479.35
31
0
0
ARC
8
0
10
333.13
20
1499.1
30
0
40
19.75
50
179.274776
51
270
0
LINE
8
0
10
313.38
20
1499.35
30
0
11
278.08
21
1499.35
31
0
0
ARC
8
0
10
263.13
20
1499.3
30
0
40
14.950084
50
179.808376
51
0.191624
0
LINE
8
0
10
248.18
20
1499.35
30
0
11
212.88
21
1499.35
31
0
0
ARC
8
0
10
193.13
20
1499.1
30
0
40
19.751582
50
270
51
0.725224
0
LINE
8
0
10
193.13
20
1479.35
30
0
11
182.05
21
1479.35
31
0
0
LINE
8
0
10
182.05
20
1479.35
30
0
11
182.05
21
1506.62
31
0
0
LINE
8
0
10
182.05
20
1506.62
30
0
11
181.02
21
1507.65
31
0
0
LINE
8
0
10
181.02
20
1507.65
30
0
11
173.98
21
1507.65
31
0
0
LINE
8
0
10
173.98
20
1507.65
30
0
11
172.95
21
1506.62
31
0
0
LINE
8
0
10
172.95
20
1506.62
30
0
11
172.95
21
1502.65
31
0
0
LINE
8
0
10
172.95
20
1502.65
30
0
11
66.05
21
1502.65
31
0
0
LINE
8
0
10
66.05
20
1502.65
30
0
11
66.05
21
1506.62
31
0
0
LINE
8
0
10
66.05
20
1506.62
30
0
11
65.02
21
1507.65
31
0
0
LINE
8
0
10
65.02
20
1507.65
30
0
11
57.98
21
1507.65
31
0
0
LINE
8
0
10
57.98
20
1507.65
30
0
11
56.95
21
1506.62
31
0
0
LINE
8
0
10
56.95
20
1506.62
30
0
11
56.95
21
15.98
31
0
0
LINE
8
0
10
56.95
20
15.98
30
0
11
57.98
21
14.95
31
0
0
LINE
8
0
10
57.98
20
14.95
30
0
11
65.02
21
14.95
31
0
0
LINE
8
0
10
65.02
20
14.95
30
0
11
66.05
21
15.98
31
0
0
LINE
8
0
10
66.05
20
15.98
30
0
11
66.05
21
19.95
31
0
0
LINE
8
0
10
66.05
20
19.95
30
0
11
172.95
21
19.95
31
0
0
LINE
8
0
10
172.95
20
19.95
30
0
11
172.95
21
15.98
31
0
0
LINE
8
0
10
172.95
20
15.98
30
0
11
173.98
21
14.95
31
0
0
LINE
8
0
10
173.98
20
14.95
30
0
11
181.02
21
14.95
31
0
0
LINE
8
0
10
181.02
20
14.95
30
0
11
182.05
21
15.98
31
0
0
LINE
8
0
10
182.05
20
15.98
30
0
11
182.05
21
43.25
31
0
0
LINE
8
0
10
182.05
20
43.25
30
0
11
193.13
21
43.25
31
0
0
ARC
8
0
10
193.13
20
23.5
30
0
40
19.75
50
359.274776
51
90
0
LINE
8
0
10
212.88
20
23.25
30
0
11
248.18
21
23.25
31
0
0
ARC
8
0
10
263.13
20
23.3
30
0
40
14.950084
50
359.808376
51
180.191624
0
LINE
8
0
10
278.08
20
23.25
30
0
11
313.38
21
23.25
31
0
0
ARC
8
0
10
333.13
20
23.5
30
0
40
19.751582
50
90
51
180.725224
0
LINE
8
0
10
333.13
20
43.25
30
0
11
344.21
21
43.25
31
0
0
LINE
8
0
10
344.21
20
43.25
30
0
11
344.21
21
15.98
31
0
0
LINE
8
0
10
344.21
20
15.98
30
0
11
345.24
21
14.95
31
0
0
LINE
8
0
10
345.24
20
14.95
30
0
11
352.28
21
14.95
31
0
0
LINE
8
0
10
352.28
20
14.95
30
0
11
353.31
21
15.98
31
0
0
LINE
8
0
10
353.31
20
15.98
30
0
11
353.31
21
19.95
31
0
0
LINE
8
0
10
353.31
20
19.95
30
0
11
460.21
21
19.95
31
0
0
LINE
8
0
10
460.21
20
19.95
30
0
11
460.21
21
15.98
31
0
0
LINE
8
0
10
460.21
20
15.98
30
0
11
461.24
21
14.95
31
0
0
LINE
8
0
10
461.24
20
14.95
30
0
11
468.26
21
14.95
31
0
0
ENDSEC
0
EOF
