0
SECTION
2
HEADER
9
$ACADVER
1
AC1009
0
ENDSEC
0
SECTION
2
ENTITIES
0
LINE
8
0
10
475.1
20
403.7
30
0
11
475.1
21
683.5
31
0
0
LINE
8
0
10
438
20
623.6
30
0
11
435
21
623.6
31
0
0
LINE
8
0
10
435
20
623.6
30
0
11
435
21
463.6
31
0
0
LINE
8
0
10
435
20
463.6
30
0
11
438
21
463.6
31
0
0
LINE
8
0
10
745.59
20
684.25
30
0
11
748.45
21
684.25
31
0
0
LINE
8
0
10
749.34
20
684.25
30
0
11
749.34
21
694.25
31
0
0
LINE
8
0
10
749.34
20
694.25
30
0
11
756.48
21
684.25
31
0
0
LINE
8
0
10
756.48
20
684.25
30
0
11
756.48
21
694.25
31
0
0
LINE
8
0
10
757.37
20
694.25
30
0
11
764.52
21
694.25
31
0
0
LINE
8
0
10
760.95
20
694.25
30
0
11
760.95
21
684.25
31
0
0
LINE
8
0
10
765.41
20
688.53
30
0
11
771.12
21
688.53
31
0
0
LINE
8
0
10
773.45
20
688.53
30
0
11
779.16
21
688.53
31
0
0
LINE
8
0
10
779.16
20
688.53
30
0
11
780.59
21
689.96
31
0
0
LINE
8
0
10
780.59
20
689.96
30
0
11
780.59
21
692.82
31
0
0
LINE
8
0
10
780.59
20
692.82
30
0
11
779.16
21
694.25
31
0
0
LINE
8
0
10
779.16
20
694.25
30
0
11
773.45
21
694.25
31
0
0
LINE
8
0
10
773.45
20
694.25
30
0
11
773.45
21
684.25
31
0
0
LINE
8
0
10
772.55
20
684.25
30
0
11
765.41
21
684.25
31
0
0
LINE
8
0
10
765.41
20
684.25
30
0
11
765.41
21
694.25
31
0
0
LINE
8
0
10
765.41
20
694.25
30
0
11
772.55
21
694.25
31
0
0
LINE
8
0
10
776.3
20
688.53
30
0
11
780.59
21
684.25
31
0
0
LINE
8
0
10
781.48
20
684.25
30
0
11
784.34
21
684.25
31
0
0
LINE
8
0
10
782.91
20
684.25
30
0
11
782.91
21
694.25
31
0
0
LINE
8
0
10
781.48
20
694.25
30
0
11
784.34
21
694.25
31
0
0
LINE
8
0
10
785.23
20
692.82
30
0
11
786.66
21
694.25
31
0
0
LINE
8
0
10
786.66
20
694.25
30
0
11
790.95
21
694.25
31
0
0
LINE
8
0
10
790.95
20
694.25
30
0
11
792.37
21
692.82
31
0
0
LINE
8
0
10
792.37
20
692.82
30
0
11
792.37
21
685.68
31
0
0
LINE
8
0
10
792.37
20
685.68
30
0
11
790.95
21
684.25
31
0
0
LINE
8
0
10
790.95
20
684.25
30
0
11
786.66
21
684.25
31
0
0
LINE
8
0
10
786.66
20
684.25
30
0
11
785.23
21
685.68
31
0
0
LINE
8
0
10
785.23
20
685.68
30
0
11
785.23
21
692.82
31
0
0
LINE
8
0
10
793.27
20
688.53
30
0
11
798.98
21
688.53
31
0
0
LINE
8
0
10
798.98
20
688.53
30
0
11
800.41
21
689.96
31
0
0
LINE
8
0
10
800.41
20
689.96
30
0
11
800.41
21
692.82
31
0
0
LINE
8
0
10
800.41
20
692.82
30
0
11
798.98
21
694.25
31
0
0
LINE
8
0
10
798.98
20
694.25
30
0
11
793.27
21
694.25
31
0
0
LINE
8
0
10
793.27
20
694.25
30
0
11
793.27
21
684.25
31
0
0
LINE
8
0
10
796.12
20
688.53
30
0
11
800.41
21
684.25
31
0
0
LINE
8
0
10
748.45
20
694.25
30
0
11
745.59
21
694.25
31
0
0
LINE
8
0
10
747.02
20
694.25
30
0
11
747.02
21
684.25
31
0
0
LINE
8
0
10
1074.9
20
683.5
30
0
11
1074.9
21
403.7
31
0
0
LINE
8
0
10
1112
20
463.6
30
0
11
1115
21
463.6
31
0
0
LINE
8
0
10
1115
20
463.6
30
0
11
1115
21
623.6
31
0
0
LINE
8
0
10
1115
20
623.6
30
0
11
1112
21
623.6
31
0
0
LINE
8
0
10
764.9
20
103.7
30
0
11
635.1
21
103.7
31
0
0
LINE
8
0
10
675
20
66.6
30
0
11
675
21
63.6
31
0
0
LINE
8
0
10
675
20
63.6
30
0
11
725
21
63.6
31
0
0
LINE
8
0
10
725
20
63.6
30
0
11
725
21
66.6
31
0
0
LINE
8
0
10
775.05
20
102.1
30
0
11
775.05
21
103.65
31
0
0
LINE
8
0
10
775.05
20
103.65
30
0
11
764.95
21
103.65
31
0
0
LINE
8
0
10
764.95
20
103.65
30
0
11
764.95
21
100.55
31
0
0
LINE
8
0
10
764.95
20
100.55
30
0
11
775.05
21
100.55
31
0
0
LINE
8
0
10
775.05
20
100.55
30
0
11
775.05
21
102.1
31
0
0
LINE
8
0
10
635.05
20
102.1
30
0
11
635.05
21
100.55
31
0
0
LINE
8
0
10
635.05
20
100.55
30
0
11
624.95
21
100.55
31
0
0
LINE
8
0
10
624.95
20
100.55
30
0
11
624.95
21
103.65
31
0
0
LINE
8
0
10
624.95
20
103.65
30
0
11
635.05
21
103.65
31
0
0
LINE
8
0
10
635.05
20
103.65
30
0
11
635.05
21
102.1
31
0
0
LINE
8
0
10
1096.95
20
75.13
30
0
11
1099.04
21
77.21
31
0
0
ARC
8
0
10
1088.5
20
66.6
30
0
40
14.95539
50
45.189631
51
45.02709
0
LINE
8
0
10
1076.5
20
403.65
30
0
11
1078.05
21
403.65
31
0
0
LINE
8
0
10
1078.05
20
403.65
30
0
11
1078.05
21
393.55
31
0
0
LINE
8
0
10
1078.05
20
393.55
30
0
11
1074.95
21
393.55
31
0
0
LINE
8
0
10
1074.95
20
393.55
30
0
11
1074.95
21
403.65
31
0
0
LINE
8
0
10
1074.95
20
403.65
30
0
11
1076.5
21
403.65
31
0
0
LINE
8
0
10
1076.5
20
693.65
30
0
11
1078.05
21
693.65
31
0
0
LINE
8
0
10
1078.05
20
693.65
30
0
11
1078.05
21
683.55
31
0
0
LINE
8
0
10
1078.05
20
683.55
30
0
11
1074.95
21
683.55
31
0
0
LINE
8
0
10
1074.95
20
683.55
30
0
11
1074.95
21
693.65
31
0
0
LINE
8
0
10
1074.95
20
693.65
30
0
11
1076.5
21
693.65
31
0
0
ARC
8
0
10
1096.5
20
1048.08
30
0
40
5.45
50
90
51
180
0
LINE
8
0
10
1091.05
20
1048.08
30
0
11
1091.05
21
1039.08
31
0
0
ARC
8
0
10
1096.5
20
1039.08
30
0
40
5.45
50
180
51
0
0
LINE
8
0
10
1101.95
20
1039.08
30
0
11
1101.95
21
1048.08
31
0
0
ARC
8
0
10
1096.5
20
1048.08
30
0
40
5.45
50
0
51
90
0
LINE
8
0
10
676.59
20
954.29
30
0
11
676.11
21
955.12
31
0
0
LINE
8
0
10
676.11
20
955.12
30
0
11
674.17
21
955.12
31
0
0
ARC
8
0
10
673.5
20
950.59
30
0
40
4.579279
50
81.586783
51
98.413217
0
LINE
8
0
10
672.83
20
955.12
30
0
11
670.89
21
955.12
31
0
0
LINE
8
0
10
670.89
20
955.12
30
0
11
669.92
21
953.44
31
0
0
ARC
8
0
10
673.5
20
950.59
30
0
40
4.575904
50
141.477076
51
158.314903
0
LINE
8
0
10
669.25
20
952.28
30
0
11
668.27
21
950.59
31
0
0
LINE
8
0
10
668.27
20
950.59
30
0
11
669.25
21
948.91
31
0
0
ARC
8
0
10
673.5
20
950.59
30
0
40
4.57
50
201.568596
51
218.42483
0
LINE
8
0
10
669.92
20
947.75
30
0
11
670.89
21
946.07
31
0
0
LINE
8
0
10
670.89
20
946.07
30
0
11
672.83
21
946.07
31
0
0
ARC
8
0
10
673.5
20
950.59
30
0
40
4.569387
50
261.568437
51
278.431563
0
LINE
8
0
10
674.17
20
946.07
30
0
11
676.11
21
946.07
31
0
0
LINE
8
0
10
676.11
20
946.07
30
0
11
677.08
21
947.75
31
0
0
ARC
8
0
10
673.5
20
950.59
30
0
40
4.569683
50
321.57517
51
338.431404
0
LINE
8
0
10
677.75
20
948.91
30
0
11
678.73
21
950.59
31
0
0
LINE
8
0
10
678.73
20
950.59
30
0
11
677.75
21
952.28
31
0
0
ARC
8
0
10
673.5
20
950.59
30
0
40
4.573686
50
21.685097
51
38.522924
0
LINE
8
0
10
677.08
20
953.44
30
0
11
676.59
21
954.29
31
0
0
LINE
8
0
10
676.59
20
844.29
30
0
11
676.11
21
845.12
31
0
0
LINE
8
0
10
676.11
20
845.12
30
0
11
674.17
21
845.12
31
0
0
ARC
8
0
10
673.5
20
840.59
30
0
40
4.579279
50
81.586783
51
98.413217
0
LINE
8
0
10
672.83
20
845.12
30
0
11
670.89
21
845.12
31
0
0
LINE
8
0
10
670.89
20
845.12
30
0
11
669.92
21
843.44
31
0
0
ARC
8
0
10
673.5
20
840.59
30
0
40
4.575904
50
141.477076
51
158.314903
0
LINE
8
0
10
669.25
20
842.28
30
0
11
668.27
21
840.59
31
0
0
LINE
8
0
10
668.27
20
840.59
30
0
11
669.25
21
838.91
31
0
0
ARC
8
0
10
673.5
20
840.59
30
0
40
4.57
50
201.568596
51
218.42483
0
LINE
8
0
10
669.92
20
837.75
30
0
11
670.89
21
836.07
31
0
0
LINE
8
0
10
670.89
20
836.07
30
0
11
672.83
21
836.07
31
0
0
ARC
8
0
10
673.5
20
840.59
30
0
40
4.569387
50
261.568437
51
278.431563
0
LINE
8
0
10
674.17
20
836.07
30
0
11
676.11
21
836.07
31
0
0
LINE
8
0
10
676.11
20
836.07
30
0
11
677.08
21
837.75
31
0
0
ARC
8
0
10
673.5
20
840.59
30
0
40
4.569683
50
321.57517
51
338.431404
0
LINE
8
0
10
677.75
20
838.91
30
0
11
678.73
21
840.59
31
0
0
LINE
8
0
10
678.73
20
840.59
30
0
11
677.75
21
842.28
31
0
0
ARC
8
0
10
673.5
20
840.59
30
0
40
4.573686
50
21.685097
51
38.522924
0
LINE
8
0
10
677.08
20
843.44
30
0
11
676.59
21
844.29
31
0
0
LINE
8
0
10
567.35
20
845.59
30
0
11
567.35
21
840.64
31
0
0
LINE
8
0
10
567.35
20
840.64
30
0
11
618.5
21
840.64
31
0
0
ARC
8
0
10
618.5
20
850.59
30
0
40
9.95
50
270
51
0
0
LINE
8
0
10
628.45
20
850.59
30
0
11
628.45
21
975.59
31
0
0
ARC
8
0
10
618.5
20
975.59
30
0
40
9.95
50
0
51
90
0
LINE
8
0
10
618.5
20
985.54
30
0
11
518.5
21
985.54
31
0
0
ARC
8
0
10
518.5
20
975.59
30
0
40
9.95
50
90
51
180
0
LINE
8
0
10
508.55
20
975.59
30
0
11
508.55
21
850.59
31
0
0
ARC
8
0
10
518.5
20
850.59
30
0
40
9.95
50
180
51
270
0
LINE
8
0
10
518.5
20
840.64
30
0
11
566.65
21
840.64
31
0
0
LINE
8
0
10
466.59
20
954.29
30
0
11
466.11
21
955.12
31
0
0
LINE
8
0
10
466.11
20
955.12
30
0
11
464.17
21
955.12
31
0
0
ARC
8
0
10
463.5
20
950.59
30
0
40
4.579279
50
81.586783
51
98.413217
0
LINE
8
0
10
462.83
20
955.12
30
0
11
460.89
21
955.12
31
0
0
LINE
8
0
10
460.89
20
955.12
30
0
11
459.92
21
953.44
31
0
0
ARC
8
0
10
463.5
20
950.59
30
0
40
4.575904
50
141.477076
51
158.314903
0
LINE
8
0
10
459.25
20
952.28
30
0
11
458.27
21
950.59
31
0
0
LINE
8
0
10
458.27
20
950.59
30
0
11
459.25
21
948.91
31
0
0
ARC
8
0
10
463.5
20
950.59
30
0
40
4.57
50
201.568596
51
218.42483
0
LINE
8
0
10
459.92
20
947.75
30
0
11
460.89
21
946.07
31
0
0
LINE
8
0
10
460.89
20
946.07
30
0
11
462.83
21
946.07
31
0
0
ARC
8
0
10
463.5
20
950.59
30
0
40
4.569387
50
261.568437
51
278.431563
0
LINE
8
0
10
464.17
20
946.07
30
0
11
466.11
21
946.07
31
0
0
LINE
8
0
10
466.11
20
946.07
30
0
11
467.08
21
947.75
31
0
0
ARC
8
0
10
463.5
20
950.59
30
0
40
4.569683
50
321.57517
51
338.431404
0
LINE
8
0
10
467.75
20
948.91
30
0
11
468.73
21
950.59
31
0
0
LINE
8
0
10
468.73
20
950.59
30
0
11
467.75
21
952.28
31
0
0
ARC
8
0
10
463.5
20
950.59
30
0
40
4.573686
50
21.685097
51
38.522924
0
LINE
8
0
10
467.08
20
953.44
30
0
11
466.59
21
954.29
31
0
0
LINE
8
0
10
466.59
20
844.29
30
0
11
466.11
21
845.12
31
0
0
LINE
8
0
10
466.11
20
845.12
30
0
11
464.17
21
845.12
31
0
0
ARC
8
0
10
463.5
20
840.59
30
0
40
4.579279
50
81.586783
51
98.413217
0
LINE
8
0
10
462.83
20
845.12
30
0
11
460.89
21
845.12
31
0
0
LINE
8
0
10
460.89
20
845.12
30
0
11
459.92
21
843.44
31
0
0
ARC
8
0
10
463.5
20
840.59
30
0
40
4.575904
50
141.477076
51
158.314903
0
LINE
8
0
10
459.25
20
842.28
30
0
11
458.27
21
840.59
31
0
0
LINE
8
0
10
458.27
20
840.59
30
0
11
459.25
21
838.91
31
0
0
ARC
8
0
10
463.5
20
840.59
30
0
40
4.57
50
201.568596
51
218.42483
0
LINE
8
0
10
459.92
20
837.75
30
0
11
460.89
21
836.07
31
0
0
LINE
8
0
10
460.89
20
836.07
30
0
11
462.83
21
836.07
31
0
0
ARC
8
0
10
463.5
20
840.59
30
0
40
4.569387
50
261.568437
51
278.431563
0
LINE
8
0
10
464.17
20
836.07
30
0
11
466.11
21
836.07
31
0
0
LINE
8
0
10
466.11
20
836.07
30
0
11
467.08
21
837.75
31
0
0
ARC
8
0
10
463.5
20
840.59
30
0
40
4.569683
50
321.57517
51
338.431404
0
LINE
8
0
10
467.75
20
838.91
30
0
11
468.73
21
840.59
31
0
0
LINE
8
0
10
468.73
20
840.59
30
0
11
467.75
21
842.28
31
0
0
ARC
8
0
10
463.5
20
840.59
30
0
40
4.573686
50
21.685097
51
38.522924
0
LINE
8
0
10
467.08
20
843.44
30
0
11
466.59
21
844.29
31
0
0
ARC
8
0
10
200.5
20
1048.08
30
0
40
5.45
50
90
51
180
0
LINE
8
0
10
195.05
20
1048.08
30
0
11
195.05
21
1039.08
31
0
0
ARC
8
0
10
200.5
20
1039.08
30
0
40
5.45
50
180
51
0
0
LINE
8
0
10
205.95
20
1039.08
30
0
11
205.95
21
1048.08
31
0
0
ARC
8
0
10
200.5
20
1048.08
30
0
40
5.45
50
0
51
90
0
LINE
8
0
10
473.5
20
693.65
30
0
11
475.05
21
693.65
31
0
0
LINE
8
0
10
475.05
20
693.65
30
0
11
475.05
21
683.55
31
0
0
LINE
8
0
10
475.05
20
683.55
30
0
11
471.95
21
683.55
31
0
0
LINE
8
0
10
471.95
20
683.55
30
0
11
471.95
21
693.65
31
0
0
LINE
8
0
10
471.95
20
693.65
30
0
11
473.5
21
693.65
31
0
0
LINE
8
0
10
473.5
20
403.65
30
0
11
471.95
21
403.65
31
0
0
LINE
8
0
10
471.95
20
403.65
30
0
11
471.95
21
393.55
31
0
0
LINE
8
0
10
471.95
20
393.55
30
0
11
475.05
21
393.55
31
0
0
LINE
8
0
10
475.05
20
393.55
30
0
11
475.05
21
403.65
31
0
0
LINE
8
0
10
475.05
20
403.65
30
0
11
473.5
21
403.65
31
0
0
LINE
8
0
10
106.95
20
75.13
30
0
11
109.04
21
77.21
31
0
0
ARC
8
0
10
98.5
20
66.6
30
0
40
14.95539
50
45.189631
51
45.02709
0
LINE
8
0
10
18.45
20
0.62
30
0
11
18.45
21
3.62
31
0
0
LINE
8
0
10
18.45
20
3.62
30
0
11
18.45
21
756.54
31
0
0
LINE
8
0
10
18.45
20
756.54
30
0
11
13.45
21
756.54
31
0
0
LINE
8
0
10
13.45
20
756.54
30
0
11
13.45
21
1000.6
31
0
0
ARC
8
0
10
22.75
20
999.84
30
0
40
9.331002
50
85.389351
51
175.328146
0
LINE
8
0
10
23.5
20
1009.14
30
0
11
58.83
21
1009.14
31
0
0
ARC
8
0
10
60.14
20
999.84
30
0
40
9.39181
50
38.164083
51
98.017944
0
LINE
8
0
10
67.52
20
1005.64
30
0
11
69.45
21
1005.64
31
0
0
LINE
8
0
10
69.45
20
1005.64
30
0
11
69.45
21
1037.64
31
0
0
ARC
8
0
10
69.5
20
1038.08
30
0
40
0.442832
50
263.516926
51
90
0
LINE
8
0
10
69.5
20
1038.53
30
0
11
67
21
1038.53
31
0
0
ARC
8
0
10
67
20
1039.08
30
0
40
0.55
50
180
51
270
0
LINE
8
0
10
66.45
20
1039.08
30
0
11
66.45
21
1048.08
31
0
0
ARC
8
0
10
67
20
1048.08
30
0
40
0.55
50
90
51
180
0
LINE
8
0
10
67
20
1048.63
30
0
11
69.5
21
1048.63
31
0
0
ARC
8
0
10
69.5
20
1049.08
30
0
40
0.45
50
270
51
96.340192
0
LINE
8
0
10
69.45
20
1049.53
30
0
11
69.45
21
1104.84
31
0
0
LINE
8
0
10
69.45
20
1104.84
30
0
11
1117.55
21
1104.84
31
0
0
LINE
8
0
10
1117.55
20
1104.84
30
0
11
1117.55
21
1049.53
31
0
0
ARC
8
0
10
1117.5
20
1049.08
30
0
40
0.452769
50
83.659808
51
270
0
LINE
8
0
10
1117.5
20
1048.63
30
0
11
1120
21
1048.63
31
0
0
ARC
8
0
10
1120
20
1048.08
30
0
40
0.55
50
360
51
90
0
LINE
8
0
10
1120.55
20
1048.08
30
0
11
1120.55
21
1039.08
31
0
0
ARC
8
0
10
1120
20
1039.08
30
0
40
0.55
50
270
51
0
0
LINE
8
0
10
1120
20
1038.53
30
0
11
1117.5
21
1038.53
31
0
0
ARC
8
0
10
1117.5
20
1038.08
30
0
40
0.45
50
90
51
276.483074
0
LINE
8
0
10
1117.55
20
1037.64
30
0
11
1117.55
21
1005.64
31
0
0
LINE
8
0
10
1117.55
20
1005.64
30
0
11
1119.48
21
1005.64
31
0
0
ARC
8
0
10
1126.86
20
999.84
30
0
40
9.386394
50
81.982056
51
141.835917
0
LINE
8
0
10
1128.17
20
1009.14
30
0
11
1163.5
21
1009.14
31
0
0
ARC
8
0
10
1164.25
20
999.84
30
0
40
9.330193
50
4.671854
51
94.610649
0
LINE
8
0
10
1173.55
20
1000.6
30
0
11
1173.55
21
756.54
31
0
0
LINE
8
0
10
1173.55
20
756.54
30
0
11
1168.55
21
756.54
31
0
0
LINE
8
0
10
1168.55
20
756.54
30
0
11
1168.55
21
3.57
31
0
0
LINE
8
0
10
1168.55
20
3.57
30
0
11
18.5
21
3.57
31
0
0
ENDSEC
0
EOF
