0
SECTION
2
HEADER
9
$ACADVER
1
AC1009
0
ENDSEC
0
SECTION
2
ENTITIES
0
LINE
8
0
10
988.7
20
152.04
30
0
11
989.89
21
150.85
31
0
0
ARC
8
0
10
988.66
20
152
30
0
40
1.683865
50
316.925184
51
314.76027
0
LINE
8
0
10
988.7
20
243.04
30
0
11
989.89
21
241.85
31
0
0
ARC
8
0
10
988.66
20
243
30
0
40
1.683865
50
316.925184
51
314.76027
0
LINE
8
0
10
1089.7
20
243.04
30
0
11
1090.89
21
241.85
31
0
0
ARC
8
0
10
1089.66
20
243
30
0
40
1.683865
50
316.925184
51
314.76027
0
LINE
8
0
10
1089.7
20
152.04
30
0
11
1090.89
21
150.85
31
0
0
ARC
8
0
10
1089.66
20
152
30
0
40
1.683865
50
316.925184
51
314.76027
0
LINE
8
0
10
1183.61
20
108.16
30
0
11
1180.81
21
106.55
31
0
0
LINE
8
0
10
1180.81
20
106.55
30
0
11
1175.22
21
109.77
31
0
0
LINE
8
0
10
1175.22
20
109.77
30
0
11
1175.22
21
116.23
31
0
0
LINE
8
0
10
1175.22
20
116.23
30
0
11
1180.81
21
119.45
31
0
0
LINE
8
0
10
1180.81
20
119.45
30
0
11
1186.4
21
116.23
31
0
0
LINE
8
0
10
1186.4
20
116.23
30
0
11
1186.4
21
109.77
31
0
0
LINE
8
0
10
1186.4
20
109.77
30
0
11
1183.61
21
108.16
31
0
0
LINE
8
0
10
1184.39
20
78.51
30
0
11
1187.88
21
75.01
31
0
0
ARC
8
0
10
1180.81
20
82
30
0
40
9.942082
50
315.326004
51
315
0
LINE
8
0
10
1183.61
20
748.16
30
0
11
1180.81
21
746.55
31
0
0
LINE
8
0
10
1180.81
20
746.55
30
0
11
1175.22
21
749.77
31
0
0
LINE
8
0
10
1175.22
20
749.77
30
0
11
1175.22
21
756.23
31
0
0
LINE
8
0
10
1175.22
20
756.23
30
0
11
1180.81
21
759.45
31
0
0
LINE
8
0
10
1180.81
20
759.45
30
0
11
1186.4
21
756.23
31
0
0
LINE
8
0
10
1186.4
20
756.23
30
0
11
1186.4
21
749.77
31
0
0
LINE
8
0
10
1186.4
20
749.77
30
0
11
1183.61
21
748.16
31
0
0
LINE
8
0
10
643.13
20
749.21
30
0
11
645.96
21
752.04
31
0
0
LINE
8
0
10
645.96
20
752.04
30
0
11
675.98
21
782.06
31
0
0
LINE
8
0
10
675.98
20
782.06
30
0
11
1006.16
21
782.06
31
0
0
ARC
8
0
10
1006.16
20
788
30
0
40
5.94
50
270
51
0
0
LINE
8
0
10
1012.1
20
788
30
0
11
1012.1
21
848
31
0
0
ARC
8
0
10
1018.16
20
848
30
0
40
6.06
50
90
51
180
0
LINE
8
0
10
1018.16
20
854.06
30
0
11
1151.66
21
854.06
31
0
0
ARC
8
0
10
1151.66
20
848
30
0
40
6.06
50
0
51
90
0
LINE
8
0
10
1157.72
20
848
30
0
11
1157.72
21
807.94
31
0
0
LINE
8
0
10
1157.72
20
807.94
30
0
11
1154.72
21
807.94
31
0
0
LINE
8
0
10
1154.72
20
807.94
30
0
11
1154.72
21
807.06
31
0
0
LINE
8
0
10
1154.72
20
807.06
30
0
11
1164.72
21
807.06
31
0
0
LINE
8
0
10
1164.72
20
807.06
30
0
11
1164.72
21
806.56
31
0
0
LINE
8
0
10
1164.72
20
806.56
30
0
11
1194.6
21
806.56
31
0
0
LINE
8
0
10
1194.6
20
806.56
30
0
11
1194.6
21
807.06
31
0
0
LINE
8
0
10
1194.6
20
807.06
30
0
11
1240.03
21
807.06
31
0
0
LINE
8
0
10
1240.03
20
807.06
30
0
11
1240.03
21
56.94
31
0
0
LINE
8
0
10
1240.03
20
56.94
30
0
11
1194.6
21
56.94
31
0
0
LINE
8
0
10
1194.6
20
56.94
30
0
11
1194.6
21
57.44
31
0
0
LINE
8
0
10
1194.6
20
57.44
30
0
11
1164.72
21
57.44
31
0
0
LINE
8
0
10
1164.72
20
57.44
30
0
11
1164.72
21
56.94
31
0
0
LINE
8
0
10
1164.72
20
56.94
30
0
11
1154.72
21
56.94
31
0
0
LINE
8
0
10
1154.72
20
56.94
30
0
11
1154.72
21
56.06
31
0
0
LINE
8
0
10
1154.72
20
56.06
30
0
11
1157.72
21
56.06
31
0
0
LINE
8
0
10
1157.72
20
56.06
30
0
11
1157.72
21
16
31
0
0
ARC
8
0
10
1151.66
20
16
30
0
40
6.06
50
270
51
0
0
LINE
8
0
10
1151.66
20
9.94
30
0
11
1018.16
21
9.94
31
0
0
ARC
8
0
10
1018.16
20
16
30
0
40
6.06
50
180
51
270
0
LINE
8
0
10
1012.1
20
16
30
0
11
1012.1
21
76
31
0
0
ARC
8
0
10
1006.16
20
76
30
0
40
5.94
50
0
51
90
0
LINE
8
0
10
1006.16
20
81.94
30
0
11
675.98
21
81.94
31
0
0
LINE
8
0
10
675.98
20
81.94
30
0
11
645.94
21
111.98
31
0
0
LINE
8
0
10
645.94
20
111.98
30
0
11
645.94
21
752
31
0
0
ENDSEC
0
EOF
