0
SECTION
2
HEADER
9
$ACADVER
1
AC1009
0
ENDSEC
0
SECTION
2
ENTITIES
0
LINE
8
0
10
235.66
20
170.61
30
0
11
240.51
21
170.61
31
0
0
LINE
8
0
10
240.51
20
170.61
30
0
11
240.51
21
182.85
31
0
0
LINE
8
0
10
240.51
20
182.85
30
0
11
220.66
21
182.85
31
0
0
ARC
8
0
10
220.66
20
188
30
0
40
5.15
50
180
51
270
0
LINE
8
0
10
215.51
20
188
30
0
11
215.51
21
197.85
31
0
0
LINE
8
0
10
215.51
20
197.85
30
0
11
120.81
21
197.85
31
0
0
LINE
8
0
10
120.81
20
197.85
30
0
11
120.81
21
178
31
0
0
ARC
8
0
10
115.66
20
178
30
0
40
5.15
50
270
51
0
0
LINE
8
0
10
115.66
20
172.85
30
0
11
95.81
21
172.85
31
0
0
LINE
8
0
10
95.81
20
172.85
30
0
11
95.81
21
128.1
31
0
0
LINE
8
0
10
95.81
20
128.1
30
0
11
165.65
21
97.81
31
0
0
ARC
8
0
10
168.37
20
104.1
30
0
40
6.852919
50
246.614779
51
308.659808
0
LINE
8
0
10
172.65
20
98.75
30
0
11
240.51
21
153.07
31
0
0
LINE
8
0
10
240.51
20
153.07
30
0
11
240.51
21
169.71
31
0
0
LINE
8
0
10
235.66
20
328.66
30
0
11
240.51
21
328.66
31
0
0
LINE
8
0
10
240.51
20
328.66
30
0
11
240.51
21
342.85
31
0
0
LINE
8
0
10
240.51
20
342.85
30
0
11
220.66
21
342.85
31
0
0
ARC
8
0
10
220.66
20
348
30
0
40
5.15
50
180
51
270
0
LINE
8
0
10
215.51
20
348
30
0
11
215.51
21
357.85
31
0
0
LINE
8
0
10
215.51
20
357.85
30
0
11
120.81
21
357.85
31
0
0
LINE
8
0
10
120.81
20
357.85
30
0
11
120.81
21
338
31
0
0
ARC
8
0
10
115.66
20
338
30
0
40
5.15
50
270
51
0
0
LINE
8
0
10
115.66
20
332.85
30
0
11
95.81
21
332.85
31
0
0
LINE
8
0
10
95.81
20
332.85
30
0
11
95.81
21
288.1
31
0
0
LINE
8
0
10
95.81
20
288.1
30
0
11
165.65
21
257.81
31
0
0
ARC
8
0
10
168.37
20
264.1
30
0
40
6.852919
50
246.614779
51
308.659808
0
LINE
8
0
10
172.65
20
258.75
30
0
11
240.51
21
313.07
31
0
0
LINE
8
0
10
240.51
20
313.07
30
0
11
240.51
21
327.76
31
0
0
LINE
8
0
10
235.66
20
465.42
30
0
11
240.51
21
465.42
31
0
0
LINE
8
0
10
240.51
20
465.42
30
0
11
240.51
21
478.93
31
0
0
LINE
8
0
10
240.51
20
478.93
30
0
11
172.65
21
533.25
31
0
0
ARC
8
0
10
168.37
20
527.9
30
0
40
6.851343
50
51.340192
51
113.385221
0
LINE
8
0
10
165.65
20
534.19
30
0
11
95.81
21
503.9
31
0
0
LINE
8
0
10
95.81
20
503.9
30
0
11
95.81
21
459.15
31
0
0
LINE
8
0
10
95.81
20
459.15
30
0
11
115.66
21
459.15
31
0
0
ARC
8
0
10
115.66
20
454
30
0
40
5.15
50
0
51
90
0
LINE
8
0
10
120.81
20
454
30
0
11
120.81
21
434.15
31
0
0
LINE
8
0
10
120.81
20
434.15
30
0
11
215.51
21
434.15
31
0
0
LINE
8
0
10
215.51
20
434.15
30
0
11
215.51
21
444
31
0
0
ARC
8
0
10
220.66
20
444
30
0
40
5.15
50
90
51
180
0
LINE
8
0
10
220.66
20
449.15
30
0
11
240.51
21
449.15
31
0
0
LINE
8
0
10
240.51
20
449.15
30
0
11
240.51
21
464.52
31
0
0
LINE
8
0
10
235.66
20
624.81
30
0
11
240.51
21
624.81
31
0
0
LINE
8
0
10
240.51
20
624.81
30
0
11
240.51
21
609.15
31
0
0
LINE
8
0
10
240.51
20
609.15
30
0
11
220.66
21
609.15
31
0
0
ARC
8
0
10
220.66
20
604
30
0
40
5.15
50
90
51
180
0
LINE
8
0
10
215.51
20
604
30
0
11
215.51
21
594.15
31
0
0
LINE
8
0
10
215.51
20
594.15
30
0
11
120.81
21
594.15
31
0
0
LINE
8
0
10
120.81
20
594.15
30
0
11
120.81
21
614
31
0
0
ARC
8
0
10
115.66
20
614
30
0
40
5.15
50
0
51
90
0
LINE
8
0
10
115.66
20
619.15
30
0
11
95.81
21
619.15
31
0
0
LINE
8
0
10
95.81
20
619.15
30
0
11
95.81
21
663.9
31
0
0
LINE
8
0
10
95.81
20
663.9
30
0
11
165.65
21
694.19
31
0
0
ARC
8
0
10
168.37
20
687.9
30
0
40
6.852919
50
51.340192
51
113.385221
0
LINE
8
0
10
172.65
20
693.25
30
0
11
240.51
21
638.93
31
0
0
LINE
8
0
10
240.51
20
638.93
30
0
11
240.51
21
625.71
31
0
0
LINE
8
0
10
936.91
20
147.15
30
0
11
940.76
21
147.15
31
0
0
ARC
8
0
10
880.66
20
147
30
0
40
60.100187
50
0.143001
51
0
0
LINE
8
0
10
1148.66
20
152.64
30
0
11
1153.51
21
152.64
31
0
0
LINE
8
0
10
1153.51
20
152.64
30
0
11
1153.51
21
172.85
31
0
0
LINE
8
0
10
1153.51
20
172.85
30
0
11
1133.66
21
172.85
31
0
0
ARC
8
0
10
1133.66
20
178
30
0
40
5.15
50
180
51
270
0
LINE
8
0
10
1128.51
20
178
30
0
11
1128.51
21
197.85
31
0
0
LINE
8
0
10
1128.51
20
197.85
30
0
11
1033.81
21
197.85
31
0
0
LINE
8
0
10
1033.81
20
197.85
30
0
11
1033.81
21
188
31
0
0
ARC
8
0
10
1028.66
20
188
30
0
40
5.15
50
270
51
0
0
LINE
8
0
10
1028.66
20
182.85
30
0
11
1008.81
21
182.85
31
0
0
LINE
8
0
10
1008.81
20
182.85
30
0
11
1008.81
21
153.07
31
0
0
LINE
8
0
10
1008.81
20
153.07
30
0
11
1076.66
21
98.75
31
0
0
ARC
8
0
10
1080.94
20
104.1
30
0
40
6.851343
50
231.340192
51
293.461917
0
LINE
8
0
10
1083.67
20
97.81
30
0
11
1153.51
21
128.1
31
0
0
LINE
8
0
10
1153.51
20
128.1
30
0
11
1153.51
21
151.74
31
0
0
LINE
8
0
10
1148.66
20
313.61
30
0
11
1153.51
21
313.61
31
0
0
LINE
8
0
10
1153.51
20
313.61
30
0
11
1153.51
21
332.85
31
0
0
LINE
8
0
10
1153.51
20
332.85
30
0
11
1133.66
21
332.85
31
0
0
ARC
8
0
10
1133.66
20
338
30
0
40
5.15
50
180
51
270
0
LINE
8
0
10
1128.51
20
338
30
0
11
1128.51
21
357.85
31
0
0
LINE
8
0
10
1128.51
20
357.85
30
0
11
1033.81
21
357.85
31
0
0
LINE
8
0
10
1033.81
20
357.85
30
0
11
1033.81
21
348
31
0
0
ARC
8
0
10
1028.66
20
348
30
0
40
5.15
50
270
51
0
0
LINE
8
0
10
1028.66
20
342.85
30
0
11
1008.81
21
342.85
31
0
0
LINE
8
0
10
1008.81
20
342.85
30
0
11
1008.81
21
313.07
31
0
0
LINE
8
0
10
1008.81
20
313.07
30
0
11
1076.66
21
258.75
31
0
0
ARC
8
0
10
1080.94
20
264.1
30
0
40
6.851343
50
231.340192
51
293.461917
0
LINE
8
0
10
1083.67
20
257.81
30
0
11
1153.51
21
288.1
31
0
0
LINE
8
0
10
1153.51
20
288.1
30
0
11
1153.51
21
312.71
31
0
0
LINE
8
0
10
1148.66
20
478.88
30
0
11
1153.51
21
478.88
31
0
0
LINE
8
0
10
1153.51
20
478.88
30
0
11
1153.51
21
459.15
31
0
0
LINE
8
0
10
1153.51
20
459.15
30
0
11
1133.66
21
459.15
31
0
0
ARC
8
0
10
1133.66
20
454
30
0
40
5.15
50
90
51
180
0
LINE
8
0
10
1128.51
20
454
30
0
11
1128.51
21
434.15
31
0
0
LINE
8
0
10
1128.51
20
434.15
30
0
11
1033.81
21
434.15
31
0
0
LINE
8
0
10
1033.81
20
434.15
30
0
11
1033.81
21
444
31
0
0
ARC
8
0
10
1028.66
20
444
30
0
40
5.15
50
0
51
90
0
LINE
8
0
10
1028.66
20
449.15
30
0
11
1008.81
21
449.15
31
0
0
LINE
8
0
10
1008.81
20
449.15
30
0
11
1008.81
21
478.93
31
0
0
LINE
8
0
10
1008.81
20
478.93
30
0
11
1076.66
21
533.25
31
0
0
ARC
8
0
10
1080.94
20
527.9
30
0
40
6.851343
50
66.538083
51
128.659808
0
LINE
8
0
10
1083.67
20
534.19
30
0
11
1153.51
21
503.9
31
0
0
LINE
8
0
10
1153.51
20
503.9
30
0
11
1153.51
21
479.78
31
0
0
LINE
8
0
10
1148.66
20
642.38
30
0
11
1153.51
21
642.38
31
0
0
LINE
8
0
10
1153.51
20
642.38
30
0
11
1153.51
21
619.15
31
0
0
LINE
8
0
10
1153.51
20
619.15
30
0
11
1133.66
21
619.15
31
0
0
ARC
8
0
10
1133.66
20
614
30
0
40
5.15
50
90
51
180
0
LINE
8
0
10
1128.51
20
614
30
0
11
1128.51
21
594.15
31
0
0
LINE
8
0
10
1128.51
20
594.15
30
0
11
1033.81
21
594.15
31
0
0
LINE
8
0
10
1033.81
20
594.15
30
0
11
1033.81
21
604
31
0
0
ARC
8
0
10
1028.66
20
604
30
0
40
5.15
50
0
51
90
0
LINE
8
0
10
1028.66
20
609.15
30
0
11
1008.81
21
609.15
31
0
0
LINE
8
0
10
1008.81
20
609.15
30
0
11
1008.81
21
638.93
31
0
0
LINE
8
0
10
1008.81
20
638.93
30
0
11
1076.66
21
693.25
31
0
0
ARC
8
0
10
1080.94
20
687.9
30
0
40
6.851343
50
66.538083
51
128.659808
0
LINE
8
0
10
1083.67
20
694.19
30
0
11
1153.51
21
663.9
31
0
0
LINE
8
0
10
1153.51
20
663.9
30
0
11
1153.51
21
643.28
31
0
0
LINE
8
0
10
8.85
20
39
30
0
11
8.85
21
43
31
0
0
LINE
8
0
10
8.85
20
43
30
0
11
8.85
21
749.15
31
0
0
LINE
8
0
10
8.85
20
749.15
30
0
11
267.81
21
749.15
31
0
0
LINE
8
0
10
267.81
20
749.15
30
0
11
267.81
21
744.86
31
0
0
LINE
8
0
10
267.81
20
744.86
30
0
11
269.09
21
746.15
31
0
0
LINE
8
0
10
269.09
20
746.15
30
0
11
980.22
21
746.15
31
0
0
LINE
8
0
10
980.22
20
746.15
30
0
11
981.51
21
744.86
31
0
0
LINE
8
0
10
981.51
20
744.86
30
0
11
981.51
21
749.15
31
0
0
LINE
8
0
10
981.51
20
749.15
30
0
11
1240.46
21
749.15
31
0
0
LINE
8
0
10
1240.46
20
749.15
30
0
11
1240.46
21
42.85
31
0
0
LINE
8
0
10
1240.46
20
42.85
30
0
11
981.51
21
42.85
31
0
0
LINE
8
0
10
981.51
20
42.85
30
0
11
981.51
21
47.14
31
0
0
LINE
8
0
10
981.51
20
47.14
30
0
11
980.22
21
45.85
31
0
0
LINE
8
0
10
980.22
20
45.85
30
0
11
269.09
21
45.85
31
0
0
LINE
8
0
10
269.09
20
45.85
30
0
11
267.81
21
47.14
31
0
0
LINE
8
0
10
267.81
20
47.14
30
0
11
267.81
21
42.85
31
0
0
LINE
8
0
10
267.81
20
42.85
30
0
11
9
21
42.85
31
0
0
ENDSEC
0
EOF
