0
SECTION
2
HEADER
9
$ACADVER
1
AC1009
0
ENDSEC
0
SECTION
2
ENTITIES
0
LINE
8
0
10
145.78
20
1887.72
30
0
11
145.78
21
1966.72
31
0
0
LINE
8
0
10
145.78
20
1966.72
30
0
11
265.78
21
1966.72
31
0
0
LINE
8
0
10
265.78
20
1966.72
30
0
11
265.78
21
1887.72
31
0
0
LINE
8
0
10
265.78
20
1887.72
30
0
11
145.78
21
1887.72
31
0
0
LINE
8
0
10
710.28
20
1905.72
30
0
11
710.28
21
2034.72
31
0
0
LINE
8
0
10
882.28
20
2034.72
30
0
11
882.28
21
1905.72
31
0
0
LINE
8
0
10
880.81
20
1989.72
30
0
11
880.81
21
1992.67
31
0
0
LINE
8
0
10
880.81
20
1992.67
30
0
11
882.51
21
1992.67
31
0
0
LINE
8
0
10
882.51
20
1992.67
30
0
11
882.51
21
1986.77
31
0
0
LINE
8
0
10
882.51
20
1986.77
30
0
11
879.01
21
1986.77
31
0
0
LINE
8
0
10
879.01
20
1986.77
30
0
11
879.01
21
1992.67
31
0
0
LINE
8
0
10
879.01
20
1992.67
30
0
11
880.76
21
1992.67
31
0
0
LINE
8
0
10
711.71
20
1989.72
30
0
11
711.71
21
1992.67
31
0
0
LINE
8
0
10
711.71
20
1992.67
30
0
11
710.01
21
1992.67
31
0
0
LINE
8
0
10
710.01
20
1992.67
30
0
11
710.01
21
1986.77
31
0
0
LINE
8
0
10
710.01
20
1986.77
30
0
11
713.51
21
1986.77
31
0
0
LINE
8
0
10
713.51
20
1986.77
30
0
11
713.51
21
1992.67
31
0
0
LINE
8
0
10
713.51
20
1992.67
30
0
11
711.76
21
1992.67
31
0
0
LINE
8
0
10
263.28
20
1965.17
30
0
11
266.23
21
1965.17
31
0
0
LINE
8
0
10
266.23
20
1965.17
30
0
11
266.23
21
1963.47
31
0
0
LINE
8
0
10
266.23
20
1963.47
30
0
11
260.33
21
1963.47
31
0
0
LINE
8
0
10
260.33
20
1963.47
30
0
11
260.33
21
1966.97
31
0
0
LINE
8
0
10
260.33
20
1966.97
30
0
11
266.23
21
1966.97
31
0
0
LINE
8
0
10
266.23
20
1966.97
30
0
11
266.23
21
1965.22
31
0
0
LINE
8
0
10
148.28
20
1965.17
30
0
11
151.23
21
1965.17
31
0
0
LINE
8
0
10
151.23
20
1965.17
30
0
11
151.23
21
1963.47
31
0
0
LINE
8
0
10
151.23
20
1963.47
30
0
11
145.33
21
1963.47
31
0
0
LINE
8
0
10
145.33
20
1963.47
30
0
11
145.33
21
1966.97
31
0
0
LINE
8
0
10
145.33
20
1966.97
30
0
11
151.23
21
1966.97
31
0
0
LINE
8
0
10
151.23
20
1966.97
30
0
11
151.23
21
1965.22
31
0
0
LINE
8
0
10
642.78
20
1284.24
30
0
11
646.73
21
1284.24
31
0
0
ARC
8
0
10
627.28
20
1284.19
30
0
40
19.450064
50
0.14729
51
0
0
LINE
8
0
10
1027.78
20
1502.76
30
0
11
1031.73
21
1502.76
31
0
0
ARC
8
0
10
971.28
20
1502.71
30
0
40
60.450021
50
0.047391
51
0
0
LINE
8
0
10
107.23
20
1111.69
30
0
11
107.23
21
1111.69
31
0
0
LINE
8
0
10
107.23
20
1111.69
30
0
11
107.23
21
1111.69
31
0
0
ENDSEC
0
EOF
