0
SECTION
2
HEADER
9
$ACADVER
1
AC1009
0
ENDSEC
0
SECTION
2
ENTITIES
0
LINE
8
0
10
937.13
20
202.5
30
0
11
937.13
21
187.5
31
0
0
LINE
8
0
10
937.13
20
187.5
30
0
11
917.13
21
187.5
31
0
0
LINE
8
0
10
917.13
20
187.5
30
0
11
917.13
21
202.5
31
0
0
LINE
8
0
10
851.56
20
258
30
0
11
1002.69
21
258
31
0
0
LINE
8
0
10
1002.69
20
283
30
0
11
851.56
21
283
31
0
0
LINE
8
0
10
917.13
20
338.5
30
0
11
917.13
21
353.5
31
0
0
LINE
8
0
10
917.13
20
353.5
30
0
11
937.13
21
353.5
31
0
0
LINE
8
0
10
937.13
20
353.5
30
0
11
937.13
21
338.5
31
0
0
LINE
8
0
10
914.61
20
1473.69
30
0
11
914.61
21
1476.55
31
0
0
LINE
8
0
10
914.61
20
1477.44
30
0
11
904.61
21
1477.44
31
0
0
LINE
8
0
10
904.61
20
1477.44
30
0
11
914.61
21
1484.58
31
0
0
LINE
8
0
10
914.61
20
1484.58
30
0
11
904.61
21
1484.58
31
0
0
LINE
8
0
10
904.61
20
1485.48
30
0
11
904.61
21
1492.62
31
0
0
LINE
8
0
10
904.61
20
1489.05
30
0
11
914.61
21
1489.05
31
0
0
LINE
8
0
10
914.61
20
1475.12
30
0
11
904.61
21
1475.12
31
0
0
LINE
8
0
10
904.61
20
1473.69
30
0
11
904.61
21
1476.55
31
0
0
LINE
8
0
10
917.13
20
2688.7
30
0
11
917.13
21
2673.7
31
0
0
LINE
8
0
10
917.13
20
2673.7
30
0
11
937.13
21
2673.7
31
0
0
LINE
8
0
10
937.13
20
2673.7
30
0
11
937.13
21
2688.7
31
0
0
LINE
8
0
10
1002.69
20
2744.2
30
0
11
851.56
21
2744.2
31
0
0
LINE
8
0
10
851.56
20
2769.2
30
0
11
1002.69
21
2769.2
31
0
0
LINE
8
0
10
937.13
20
2824.7
30
0
11
937.13
21
2839.7
31
0
0
LINE
8
0
10
937.13
20
2839.7
30
0
11
917.13
21
2839.7
31
0
0
LINE
8
0
10
917.13
20
2839.7
30
0
11
917.13
21
2824.7
31
0
0
LINE
8
0
10
1049.98
20
2848.41
30
0
11
1047.89
21
2850.49
31
0
0
ARC
8
0
10
1054.26
20
2844.2
30
0
40
8.952151
50
135.362054
51
135
0
LINE
8
0
10
918.61
20
2625.65
30
0
11
916.52
21
2627.74
31
0
0
ARC
8
0
10
927.13
20
2617.2
30
0
40
14.95539
50
135.189631
51
135
0
LINE
8
0
10
797.14
20
2716.99
30
0
11
795.05
21
2719.08
31
0
0
ARC
8
0
10
800
20
2714.2
30
0
40
6.951036
50
135.408
51
135
0
LINE
8
0
10
797.14
20
2316.79
30
0
11
795.05
21
2318.88
31
0
0
ARC
8
0
10
800
20
2314
30
0
40
6.951036
50
135.408
51
135
0
LINE
8
0
10
850.63
20
2270.35
30
0
11
853.63
21
2270.35
31
0
0
LINE
8
0
10
853.63
20
2270.35
30
0
11
857.08
21
2270.35
31
0
0
LINE
8
0
10
857.08
20
2270.35
30
0
11
857.08
21
2271.75
31
0
0
LINE
8
0
10
857.08
20
2271.75
30
0
11
847.18
21
2271.75
31
0
0
LINE
8
0
10
847.18
20
2271.75
30
0
11
847.18
21
2261.85
31
0
0
LINE
8
0
10
847.18
20
2261.85
30
0
11
850.72
21
2261.85
31
0
0
LINE
8
0
10
850.72
20
2261.85
30
0
11
851.75
21
2260.82
31
0
0
LINE
8
0
10
851.75
20
2260.82
30
0
11
851.75
21
2156.78
31
0
0
LINE
8
0
10
851.75
20
2156.78
30
0
11
850.72
21
2155.75
31
0
0
LINE
8
0
10
850.72
20
2155.75
30
0
11
847.18
21
2155.75
31
0
0
LINE
8
0
10
847.18
20
2155.75
30
0
11
847.18
21
2145.85
31
0
0
LINE
8
0
10
847.18
20
2145.85
30
0
11
857.08
21
2145.85
31
0
0
LINE
8
0
10
857.08
20
2145.85
30
0
11
857.08
21
2147.25
31
0
0
LINE
8
0
10
857.08
20
2147.25
30
0
11
853.58
21
2147.25
31
0
0
LINE
8
0
10
853.58
20
2147.25
30
0
11
853.58
21
2270.3
31
0
0
LINE
8
0
10
918.61
20
2325.45
30
0
11
916.52
21
2327.54
31
0
0
ARC
8
0
10
927.13
20
2317
30
0
40
14.95539
50
135.189631
51
135
0
LINE
8
0
10
1003.63
20
2270.35
30
0
11
1000.63
21
2270.35
31
0
0
LINE
8
0
10
1000.63
20
2270.35
30
0
11
997.18
21
2270.35
31
0
0
LINE
8
0
10
997.18
20
2270.35
30
0
11
997.18
21
2271.75
31
0
0
LINE
8
0
10
997.18
20
2271.75
30
0
11
1007.08
21
2271.75
31
0
0
LINE
8
0
10
1007.08
20
2271.75
30
0
11
1007.08
21
2261.85
31
0
0
LINE
8
0
10
1007.08
20
2261.85
30
0
11
1003.54
21
2261.85
31
0
0
LINE
8
0
10
1003.54
20
2261.85
30
0
11
1002.51
21
2260.82
31
0
0
LINE
8
0
10
1002.51
20
2260.82
30
0
11
1002.51
21
2156.78
31
0
0
LINE
8
0
10
1002.51
20
2156.78
30
0
11
1003.54
21
2155.75
31
0
0
LINE
8
0
10
1003.54
20
2155.75
30
0
11
1007.08
21
2155.75
31
0
0
LINE
8
0
10
1007.08
20
2155.75
30
0
11
1007.08
21
2145.85
31
0
0
LINE
8
0
10
1007.08
20
2145.85
30
0
11
997.18
21
2145.85
31
0
0
LINE
8
0
10
997.18
20
2145.85
30
0
11
997.18
21
2147.25
31
0
0
LINE
8
0
10
997.18
20
2147.25
30
0
11
1000.68
21
2147.25
31
0
0
LINE
8
0
10
1000.68
20
2147.25
30
0
11
1000.68
21
2270.3
31
0
0
LINE
8
0
10
1049.98
20
2278.01
30
0
11
1047.89
21
2280.09
31
0
0
ARC
8
0
10
1054.26
20
2273.8
30
0
40
8.952151
50
135.362054
51
135
0
LINE
8
0
10
1049.98
20
2158.01
30
0
11
1047.89
21
2160.09
31
0
0
ARC
8
0
10
1054.26
20
2153.8
30
0
40
8.952151
50
135.362054
51
135
0
LINE
8
0
10
906.88
20
2214
30
0
11
906.88
21
2216.55
31
0
0
LINE
8
0
10
906.88
20
2216.55
30
0
11
912.48
21
2216.55
31
0
0
LINE
8
0
10
912.48
20
2216.55
30
0
11
912.48
21
2211.45
31
0
0
LINE
8
0
10
912.48
20
2211.45
30
0
11
906.88
21
2211.45
31
0
0
LINE
8
0
10
906.88
20
2211.45
30
0
11
906.88
21
2214
31
0
0
LINE
8
0
10
918.61
20
1872.25
30
0
11
916.52
21
1874.34
31
0
0
ARC
8
0
10
927.13
20
1863.8
30
0
40
14.95539
50
135.189631
51
135
0
LINE
8
0
10
797.14
20
1816.39
30
0
11
795.05
21
1818.48
31
0
0
ARC
8
0
10
800
20
1813.6
30
0
40
6.951036
50
135.408
51
135
0
LINE
8
0
10
906.88
20
1664
30
0
11
906.88
21
1666.55
31
0
0
LINE
8
0
10
906.88
20
1666.55
30
0
11
912.48
21
1666.55
31
0
0
LINE
8
0
10
912.48
20
1666.55
30
0
11
912.48
21
1661.45
31
0
0
LINE
8
0
10
912.48
20
1661.45
30
0
11
906.88
21
1661.45
31
0
0
LINE
8
0
10
906.88
20
1661.45
30
0
11
906.88
21
1664
31
0
0
LINE
8
0
10
918.61
20
1372.05
30
0
11
916.52
21
1374.14
31
0
0
ARC
8
0
10
927.13
20
1363.6
30
0
40
14.95539
50
135.189631
51
135
0
LINE
8
0
10
797.14
20
1316.19
30
0
11
795.05
21
1318.28
31
0
0
ARC
8
0
10
800
20
1313.4
30
0
40
6.951036
50
135.408
51
135
0
LINE
8
0
10
906.88
20
1114
30
0
11
906.88
21
1116.55
31
0
0
LINE
8
0
10
906.88
20
1116.55
30
0
11
912.48
21
1116.55
31
0
0
LINE
8
0
10
912.48
20
1116.55
30
0
11
912.48
21
1111.45
31
0
0
LINE
8
0
10
912.48
20
1111.45
30
0
11
906.88
21
1111.45
31
0
0
LINE
8
0
10
906.88
20
1111.45
30
0
11
906.88
21
1114
31
0
0
LINE
8
0
10
918.61
20
871.85
30
0
11
916.52
21
873.94
31
0
0
ARC
8
0
10
927.13
20
863.4
30
0
40
14.95539
50
135.189631
51
135
0
LINE
8
0
10
797.14
20
815.99
30
0
11
795.05
21
818.08
31
0
0
ARC
8
0
10
800
20
813.2
30
0
40
6.951036
50
135.408
51
135
0
LINE
8
0
10
906.88
20
564
30
0
11
906.88
21
566.55
31
0
0
LINE
8
0
10
906.88
20
566.55
30
0
11
912.48
21
566.55
31
0
0
LINE
8
0
10
912.48
20
566.55
30
0
11
912.48
21
561.45
31
0
0
LINE
8
0
10
912.48
20
561.45
30
0
11
906.88
21
561.45
31
0
0
LINE
8
0
10
906.88
20
561.45
30
0
11
906.88
21
564
31
0
0
LINE
8
0
10
918.61
20
471.65
30
0
11
916.52
21
473.74
31
0
0
ARC
8
0
10
927.13
20
463.2
30
0
40
14.95539
50
135.189631
51
135
0
LINE
8
0
10
797.14
20
315.79
30
0
11
795.05
21
317.88
31
0
0
ARC
8
0
10
800
20
313
30
0
40
6.951036
50
135.408
51
135
0
LINE
8
0
10
918.61
20
121.45
30
0
11
916.52
21
123.54
31
0
0
ARC
8
0
10
927.13
20
113
30
0
40
14.95539
50
135.189631
51
135
0
LINE
8
0
10
1049.98
20
187.21
30
0
11
1047.89
21
189.29
31
0
0
ARC
8
0
10
1054.26
20
183
30
0
40
8.952151
50
135.362054
51
135
0
LINE
8
0
10
1086.26
20
102.95
30
0
11
1083.26
21
102.95
31
0
0
LINE
8
0
10
1083.26
20
102.95
30
0
11
1077.21
21
102.95
31
0
0
LINE
8
0
10
1077.21
20
102.95
30
0
11
1077.21
21
104.45
31
0
0
LINE
8
0
10
1077.21
20
104.45
30
0
11
1008.21
21
104.45
31
0
0
LINE
8
0
10
1008.21
20
104.45
30
0
11
1008.21
21
108.95
31
0
0
LINE
8
0
10
1008.21
20
108.95
30
0
11
997.18
21
108.95
31
0
0
LINE
8
0
10
997.18
20
108.95
30
0
11
997.18
21
103.05
31
0
0
LINE
8
0
10
997.18
20
103.05
30
0
11
1001.68
21
103.05
31
0
0
LINE
8
0
10
1001.68
20
103.05
30
0
11
1001.68
21
52.98
31
0
0
LINE
8
0
10
1001.68
20
52.98
30
0
11
967.15
21
17.95
31
0
0
LINE
8
0
10
967.15
20
17.95
30
0
11
947.18
21
17.95
31
0
0
LINE
8
0
10
947.18
20
17.95
30
0
11
947.18
21
15.5
31
0
0
ARC
8
0
10
946.63
20
15.5
30
0
40
0.55
50
270
51
0
0
LINE
8
0
10
946.63
20
14.95
30
0
11
907.63
21
14.95
31
0
0
ARC
8
0
10
907.63
20
15.5
30
0
40
0.55
50
180
51
270
0
LINE
8
0
10
907.08
20
15.5
30
0
11
907.08
21
17.95
31
0
0
LINE
8
0
10
907.08
20
17.95
30
0
11
887.11
21
17.95
31
0
0
LINE
8
0
10
887.11
20
17.95
30
0
11
852.58
21
52.98
31
0
0
LINE
8
0
10
852.58
20
52.98
30
0
11
852.58
21
103.05
31
0
0
LINE
8
0
10
852.58
20
103.05
30
0
11
857.08
21
103.05
31
0
0
LINE
8
0
10
857.08
20
103.05
30
0
11
857.08
21
108.95
31
0
0
LINE
8
0
10
857.08
20
108.95
30
0
11
846.05
21
108.95
31
0
0
LINE
8
0
10
846.05
20
108.95
30
0
11
846.05
21
104.45
31
0
0
LINE
8
0
10
846.05
20
104.45
30
0
11
777.05
21
104.45
31
0
0
LINE
8
0
10
777.05
20
104.45
30
0
11
777.05
21
102.95
31
0
0
LINE
8
0
10
777.05
20
102.95
30
0
11
770.95
21
102.95
31
0
0
LINE
8
0
10
770.95
20
102.95
30
0
11
770.95
21
561.45
31
0
0
LINE
8
0
10
770.95
20
561.45
30
0
11
776.65
21
561.45
31
0
0
LINE
8
0
10
776.65
20
561.45
30
0
11
776.65
21
566.55
31
0
0
LINE
8
0
10
776.65
20
566.55
30
0
11
770.95
21
566.55
31
0
0
LINE
8
0
10
770.95
20
566.55
30
0
11
770.95
21
1111.45
31
0
0
LINE
8
0
10
770.95
20
1111.45
30
0
11
776.65
21
1111.45
31
0
0
LINE
8
0
10
776.65
20
1111.45
30
0
11
776.65
21
1116.55
31
0
0
LINE
8
0
10
776.65
20
1116.55
30
0
11
770.95
21
1116.55
31
0
0
LINE
8
0
10
770.95
20
1116.55
30
0
11
770.95
21
1661.45
31
0
0
LINE
8
0
10
770.95
20
1661.45
30
0
11
776.65
21
1661.45
31
0
0
LINE
8
0
10
776.65
20
1661.45
30
0
11
776.65
21
1666.55
31
0
0
LINE
8
0
10
776.65
20
1666.55
30
0
11
770.95
21
1666.55
31
0
0
LINE
8
0
10
770.95
20
1666.55
30
0
11
770.95
21
2211.45
31
0
0
LINE
8
0
10
770.95
20
2211.45
30
0
11
776.65
21
2211.45
31
0
0
LINE
8
0
10
776.65
20
2211.45
30
0
11
776.65
21
2216.55
31
0
0
LINE
8
0
10
776.65
20
2216.55
30
0
11
770.95
21
2216.55
31
0
0
LINE
8
0
10
770.95
20
2216.55
30
0
11
770.95
21
2924.25
31
0
0
LINE
8
0
10
770.95
20
2924.25
30
0
11
777.05
21
2924.25
31
0
0
LINE
8
0
10
777.05
20
2924.25
30
0
11
777.05
21
2922.75
31
0
0
LINE
8
0
10
777.05
20
2922.75
30
0
11
846.05
21
2922.75
31
0
0
LINE
8
0
10
846.05
20
2922.75
30
0
11
846.05
21
2918.25
31
0
0
LINE
8
0
10
846.05
20
2918.25
30
0
11
857.08
21
2918.25
31
0
0
LINE
8
0
10
857.08
20
2918.25
30
0
11
857.08
21
2924.15
31
0
0
LINE
8
0
10
857.08
20
2924.15
30
0
11
852.58
21
2924.15
31
0
0
LINE
8
0
10
852.58
20
2924.15
30
0
11
852.58
21
2977.22
31
0
0
LINE
8
0
10
852.58
20
2977.22
30
0
11
887.11
21
3009.25
31
0
0
LINE
8
0
10
887.11
20
3009.25
30
0
11
907.08
21
3009.25
31
0
0
LINE
8
0
10
907.08
20
3009.25
30
0
11
907.08
21
3012.25
31
0
0
LINE
8
0
10
907.08
20
3012.25
30
0
11
947.18
21
3012.25
31
0
0
LINE
8
0
10
947.18
20
3012.25
30
0
11
947.18
21
3009.25
31
0
0
LINE
8
0
10
947.18
20
3009.25
30
0
11
967.15
21
3009.25
31
0
0
LINE
8
0
10
967.15
20
3009.25
30
0
11
1001.68
21
2977.22
31
0
0
LINE
8
0
10
1001.68
20
2977.22
30
0
11
1001.68
21
2924.15
31
0
0
LINE
8
0
10
1001.68
20
2924.15
30
0
11
997.18
21
2924.15
31
0
0
LINE
8
0
10
997.18
20
2924.15
30
0
11
997.18
21
2918.25
31
0
0
LINE
8
0
10
997.18
20
2918.25
30
0
11
1008.21
21
2918.25
31
0
0
LINE
8
0
10
1008.21
20
2918.25
30
0
11
1008.21
21
2922.75
31
0
0
LINE
8
0
10
1008.21
20
2922.75
30
0
11
1077.21
21
2922.75
31
0
0
LINE
8
0
10
1077.21
20
2922.75
30
0
11
1077.21
21
2924.25
31
0
0
LINE
8
0
10
1077.21
20
2924.25
30
0
11
1083.31
21
2924.25
31
0
0
LINE
8
0
10
1083.31
20
2924.25
30
0
11
1083.31
21
2216.55
31
0
0
LINE
8
0
10
1083.31
20
2216.55
30
0
11
1077.61
21
2216.55
31
0
0
LINE
8
0
10
1077.61
20
2216.55
30
0
11
1077.61
21
2211.45
31
0
0
LINE
8
0
10
1077.61
20
2211.45
30
0
11
1083.31
21
2211.45
31
0
0
LINE
8
0
10
1083.31
20
2211.45
30
0
11
1083.31
21
1666.55
31
0
0
LINE
8
0
10
1083.31
20
1666.55
30
0
11
1077.61
21
1666.55
31
0
0
LINE
8
0
10
1077.61
20
1666.55
30
0
11
1077.61
21
1661.45
31
0
0
LINE
8
0
10
1077.61
20
1661.45
30
0
11
1083.31
21
1661.45
31
0
0
LINE
8
0
10
1083.31
20
1661.45
30
0
11
1083.31
21
1116.55
31
0
0
LINE
8
0
10
1083.31
20
1116.55
30
0
11
1077.61
21
1116.55
31
0
0
LINE
8
0
10
1077.61
20
1116.55
30
0
11
1077.61
21
1111.45
31
0
0
LINE
8
0
10
1077.61
20
1111.45
30
0
11
1083.31
21
1111.45
31
0
0
LINE
8
0
10
1083.31
20
1111.45
30
0
11
1083.31
21
566.55
31
0
0
LINE
8
0
10
1083.31
20
566.55
30
0
11
1077.61
21
566.55
31
0
0
LINE
8
0
10
1077.61
20
566.55
30
0
11
1077.61
21
561.45
31
0
0
LINE
8
0
10
1077.61
20
561.45
30
0
11
1083.31
21
561.45
31
0
0
LINE
8
0
10
1083.31
20
561.45
30
0
11
1083.31
21
103
31
0
0
ENDSEC
0
EOF
