0
SECTION
2
HEADER
9
$ACADVER
1
AC1009
0
ENDSEC
0
SECTION
2
ENTITIES
0
LINE
8
0
10
1279.46
20
351.7
30
0
11
1280.65
21
352.89
31
0
0
ARC
8
0
10
1279.5
20
351.66
30
0
40
1.683865
50
46.925184
51
44.76027
0
LINE
8
0
10
1188.46
20
351.7
30
0
11
1189.65
21
352.89
31
0
0
ARC
8
0
10
1188.5
20
351.66
30
0
40
1.683865
50
46.925184
51
44.76027
0
LINE
8
0
10
1188.46
20
452.7
30
0
11
1189.65
21
453.89
31
0
0
ARC
8
0
10
1188.5
20
452.66
30
0
40
1.683865
50
46.925184
51
44.76027
0
LINE
8
0
10
1279.46
20
452.7
30
0
11
1280.65
21
453.89
31
0
0
ARC
8
0
10
1279.5
20
452.66
30
0
40
1.683865
50
46.925184
51
44.76027
0
LINE
8
0
10
1323.34
20
546.61
30
0
11
1324.95
21
543.81
31
0
0
LINE
8
0
10
1324.95
20
543.81
30
0
11
1321.73
21
538.22
31
0
0
LINE
8
0
10
1321.73
20
538.22
30
0
11
1315.27
21
538.22
31
0
0
LINE
8
0
10
1315.27
20
538.22
30
0
11
1312.05
21
543.81
31
0
0
LINE
8
0
10
1312.05
20
543.81
30
0
11
1315.27
21
549.4
31
0
0
LINE
8
0
10
1315.27
20
549.4
30
0
11
1321.73
21
549.4
31
0
0
LINE
8
0
10
1321.73
20
549.4
30
0
11
1323.34
21
546.61
31
0
0
LINE
8
0
10
1352.99
20
547.39
30
0
11
1356.49
21
550.88
31
0
0
ARC
8
0
10
1349.5
20
543.81
30
0
40
9.942082
50
45.326004
51
45
0
LINE
8
0
10
683.34
20
546.61
30
0
11
684.95
21
543.81
31
0
0
LINE
8
0
10
684.95
20
543.81
30
0
11
681.73
21
538.22
31
0
0
LINE
8
0
10
681.73
20
538.22
30
0
11
675.27
21
538.22
31
0
0
LINE
8
0
10
675.27
20
538.22
30
0
11
672.05
21
543.81
31
0
0
LINE
8
0
10
672.05
20
543.81
30
0
11
675.27
21
549.4
31
0
0
LINE
8
0
10
675.27
20
549.4
30
0
11
681.73
21
549.4
31
0
0
LINE
8
0
10
681.73
20
549.4
30
0
11
683.34
21
546.61
31
0
0
LINE
8
0
10
682.29
20
6.13
30
0
11
679.46
21
8.96
31
0
0
LINE
8
0
10
679.46
20
8.96
30
0
11
649.44
21
38.98
31
0
0
LINE
8
0
10
649.44
20
38.98
30
0
11
649.44
21
369.16
31
0
0
ARC
8
0
10
643.5
20
369.16
30
0
40
5.94
50
0
51
90
0
LINE
8
0
10
643.5
20
375.1
30
0
11
583.5
21
375.1
31
0
0
ARC
8
0
10
583.5
20
381.16
30
0
40
6.06
50
180
51
270
0
LINE
8
0
10
577.44
20
381.16
30
0
11
577.44
21
514.66
31
0
0
ARC
8
0
10
583.5
20
514.66
30
0
40
6.06
50
90
51
180
0
LINE
8
0
10
583.5
20
520.72
30
0
11
623.56
21
520.72
31
0
0
LINE
8
0
10
623.56
20
520.72
30
0
11
623.56
21
517.72
31
0
0
LINE
8
0
10
623.56
20
517.72
30
0
11
624.44
21
517.72
31
0
0
LINE
8
0
10
624.44
20
517.72
30
0
11
624.44
21
527.72
31
0
0
LINE
8
0
10
624.44
20
527.72
30
0
11
624.94
21
527.72
31
0
0
LINE
8
0
10
624.94
20
527.72
30
0
11
624.94
21
557.6
31
0
0
LINE
8
0
10
624.94
20
557.6
30
0
11
624.44
21
557.6
31
0
0
LINE
8
0
10
624.44
20
557.6
30
0
11
624.44
21
603.03
31
0
0
LINE
8
0
10
624.44
20
603.03
30
0
11
1374.56
21
603.03
31
0
0
LINE
8
0
10
1374.56
20
603.03
30
0
11
1374.56
21
557.6
31
0
0
LINE
8
0
10
1374.56
20
557.6
30
0
11
1374.06
21
557.6
31
0
0
LINE
8
0
10
1374.06
20
557.6
30
0
11
1374.06
21
527.72
31
0
0
LINE
8
0
10
1374.06
20
527.72
30
0
11
1374.56
21
527.72
31
0
0
LINE
8
0
10
1374.56
20
527.72
30
0
11
1374.56
21
517.72
31
0
0
LINE
8
0
10
1374.56
20
517.72
30
0
11
1375.44
21
517.72
31
0
0
LINE
8
0
10
1375.44
20
517.72
30
0
11
1375.44
21
520.72
31
0
0
LINE
8
0
10
1375.44
20
520.72
30
0
11
1415.5
21
520.72
31
0
0
ARC
8
0
10
1415.5
20
514.66
30
0
40
6.06
50
360
51
90
0
LINE
8
0
10
1421.56
20
514.66
30
0
11
1421.56
21
381.16
31
0
0
ARC
8
0
10
1415.5
20
381.16
30
0
40
6.06
50
270
51
0
0
LINE
8
0
10
1415.5
20
375.1
30
0
11
1355.5
21
375.1
31
0
0
ARC
8
0
10
1355.5
20
369.16
30
0
40
5.94
50
90
51
180
0
LINE
8
0
10
1349.56
20
369.16
30
0
11
1349.56
21
38.98
31
0
0
LINE
8
0
10
1349.56
20
38.98
30
0
11
1319.52
21
8.94
31
0
0
LINE
8
0
10
1319.52
20
8.94
30
0
11
679.5
21
8.94
31
0
0
ENDSEC
0
EOF
