0
SECTION
2
HEADER
9
$ACADVER
1
AC1009
0
ENDSEC
0
SECTION
2
ENTITIES
0
LINE
8
0
10
1376.62
20
183.57
30
0
11
1376.62
21
197.43
31
0
0
LINE
8
0
10
1376.62
20
197.43
30
0
11
1364.62
21
204.36
31
0
0
LINE
8
0
10
1364.62
20
204.36
30
0
11
1352.62
21
197.43
31
0
0
LINE
8
0
10
1352.62
20
197.43
30
0
11
1352.62
21
183.57
31
0
0
LINE
8
0
10
1352.62
20
183.57
30
0
11
1364.62
21
176.64
31
0
0
LINE
8
0
10
1364.62
20
176.64
30
0
11
1376.62
21
183.57
31
0
0
LINE
8
0
10
1316.62
20
183.57
30
0
11
1316.62
21
197.43
31
0
0
LINE
8
0
10
1316.62
20
197.43
30
0
11
1304.62
21
204.36
31
0
0
LINE
8
0
10
1304.62
20
204.36
30
0
11
1292.62
21
197.43
31
0
0
LINE
8
0
10
1292.62
20
197.43
30
0
11
1292.62
21
183.57
31
0
0
LINE
8
0
10
1292.62
20
183.57
30
0
11
1304.62
21
176.64
31
0
0
LINE
8
0
10
1304.62
20
176.64
30
0
11
1316.62
21
183.57
31
0
0
LINE
8
0
10
1186.5
20
155.41
30
0
11
1178
21
160.31
31
0
0
LINE
8
0
10
1178
20
160.31
30
0
11
1169.5
21
155.41
31
0
0
LINE
8
0
10
1169.5
20
155.41
30
0
11
1169.5
21
145.59
31
0
0
LINE
8
0
10
1169.5
20
145.59
30
0
11
1178
21
140.69
31
0
0
LINE
8
0
10
1178
20
140.69
30
0
11
1186.5
21
145.59
31
0
0
LINE
8
0
10
1186.5
20
145.59
30
0
11
1186.5
21
155.41
31
0
0
LINE
8
0
10
1304.62
20
351.64
30
0
11
1316.62
21
358.57
31
0
0
LINE
8
0
10
1316.62
20
358.57
30
0
11
1316.62
21
372.43
31
0
0
LINE
8
0
10
1316.62
20
372.43
30
0
11
1304.62
21
379.36
31
0
0
LINE
8
0
10
1304.62
20
379.36
30
0
11
1292.62
21
372.43
31
0
0
LINE
8
0
10
1292.62
20
372.43
30
0
11
1292.62
21
358.57
31
0
0
LINE
8
0
10
1292.62
20
358.57
30
0
11
1304.62
21
351.64
31
0
0
LINE
8
0
10
1352.62
20
358.57
30
0
11
1364.62
21
351.64
31
0
0
LINE
8
0
10
1364.62
20
351.64
30
0
11
1376.62
21
358.57
31
0
0
LINE
8
0
10
1376.62
20
358.57
30
0
11
1376.62
21
372.43
31
0
0
LINE
8
0
10
1376.62
20
372.43
30
0
11
1364.62
21
379.36
31
0
0
LINE
8
0
10
1364.62
20
379.36
30
0
11
1352.62
21
372.43
31
0
0
LINE
8
0
10
1352.62
20
372.43
30
0
11
1352.62
21
358.57
31
0
0
LINE
8
0
10
1322.12
20
604.14
30
0
11
1334.12
21
611.07
31
0
0
LINE
8
0
10
1334.12
20
611.07
30
0
11
1334.12
21
624.93
31
0
0
LINE
8
0
10
1334.12
20
624.93
30
0
11
1322.12
21
631.86
31
0
0
LINE
8
0
10
1322.12
20
631.86
30
0
11
1310.12
21
624.93
31
0
0
LINE
8
0
10
1310.12
20
624.93
30
0
11
1310.12
21
611.07
31
0
0
LINE
8
0
10
1310.12
20
611.07
30
0
11
1322.12
21
604.14
31
0
0
LINE
8
0
10
1178
20
923.69
30
0
11
1186.5
21
928.59
31
0
0
LINE
8
0
10
1186.5
20
928.59
30
0
11
1186.5
21
938.41
31
0
0
LINE
8
0
10
1186.5
20
938.41
30
0
11
1178
21
943.31
31
0
0
LINE
8
0
10
1178
20
943.31
30
0
11
1169.5
21
938.41
31
0
0
LINE
8
0
10
1169.5
20
938.41
30
0
11
1169.5
21
928.59
31
0
0
LINE
8
0
10
1169.5
20
928.59
30
0
11
1178
21
923.69
31
0
0
LINE
8
0
10
1178
20
1107.69
30
0
11
1186.5
21
1112.59
31
0
0
LINE
8
0
10
1186.5
20
1112.59
30
0
11
1186.5
21
1122.41
31
0
0
LINE
8
0
10
1186.5
20
1122.41
30
0
11
1178
21
1127.31
31
0
0
LINE
8
0
10
1178
20
1127.31
30
0
11
1169.5
21
1122.41
31
0
0
LINE
8
0
10
1169.5
20
1122.41
30
0
11
1169.5
21
1112.59
31
0
0
LINE
8
0
10
1169.5
20
1112.59
30
0
11
1178
21
1107.69
31
0
0
LINE
8
0
10
1322.12
20
1419.14
30
0
11
1334.12
21
1426.07
31
0
0
LINE
8
0
10
1334.12
20
1426.07
30
0
11
1334.12
21
1439.93
31
0
0
LINE
8
0
10
1334.12
20
1439.93
30
0
11
1322.12
21
1446.86
31
0
0
LINE
8
0
10
1322.12
20
1446.86
30
0
11
1310.12
21
1439.93
31
0
0
LINE
8
0
10
1310.12
20
1439.93
30
0
11
1310.12
21
1426.07
31
0
0
LINE
8
0
10
1310.12
20
1426.07
30
0
11
1322.12
21
1419.14
31
0
0
LINE
8
0
10
1364.62
20
1671.64
30
0
11
1376.62
21
1678.57
31
0
0
LINE
8
0
10
1376.62
20
1678.57
30
0
11
1376.62
21
1692.43
31
0
0
LINE
8
0
10
1376.62
20
1692.43
30
0
11
1364.62
21
1699.36
31
0
0
LINE
8
0
10
1364.62
20
1699.36
30
0
11
1352.62
21
1692.43
31
0
0
LINE
8
0
10
1352.62
20
1692.43
30
0
11
1352.62
21
1678.57
31
0
0
LINE
8
0
10
1352.62
20
1678.57
30
0
11
1364.62
21
1671.64
31
0
0
LINE
8
0
10
1316.62
20
1678.57
30
0
11
1316.62
21
1692.43
31
0
0
LINE
8
0
10
1316.62
20
1692.43
30
0
11
1304.62
21
1699.36
31
0
0
LINE
8
0
10
1304.62
20
1699.36
30
0
11
1292.62
21
1692.43
31
0
0
LINE
8
0
10
1292.62
20
1692.43
30
0
11
1292.62
21
1678.57
31
0
0
LINE
8
0
10
1292.62
20
1678.57
30
0
11
1304.62
21
1671.64
31
0
0
LINE
8
0
10
1304.62
20
1671.64
30
0
11
1316.62
21
1678.57
31
0
0
LINE
8
0
10
1304.62
20
1846.64
30
0
11
1316.62
21
1853.57
31
0
0
LINE
8
0
10
1316.62
20
1853.57
30
0
11
1316.62
21
1867.43
31
0
0
LINE
8
0
10
1316.62
20
1867.43
30
0
11
1304.62
21
1874.36
31
0
0
LINE
8
0
10
1304.62
20
1874.36
30
0
11
1292.62
21
1867.43
31
0
0
LINE
8
0
10
1292.62
20
1867.43
30
0
11
1292.62
21
1853.57
31
0
0
LINE
8
0
10
1292.62
20
1853.57
30
0
11
1304.62
21
1846.64
31
0
0
LINE
8
0
10
1352.62
20
1853.57
30
0
11
1364.62
21
1846.64
31
0
0
LINE
8
0
10
1364.62
20
1846.64
30
0
11
1376.62
21
1853.57
31
0
0
LINE
8
0
10
1376.62
20
1853.57
30
0
11
1376.62
21
1867.43
31
0
0
LINE
8
0
10
1376.62
20
1867.43
30
0
11
1364.62
21
1874.36
31
0
0
LINE
8
0
10
1364.62
20
1874.36
30
0
11
1352.62
21
1867.43
31
0
0
LINE
8
0
10
1352.62
20
1867.43
30
0
11
1352.62
21
1853.57
31
0
0
LINE
8
0
10
1186.5
20
1895.59
30
0
11
1186.5
21
1905.41
31
0
0
LINE
8
0
10
1186.5
20
1905.41
30
0
11
1178
21
1910.31
31
0
0
LINE
8
0
10
1178
20
1910.31
30
0
11
1169.5
21
1905.41
31
0
0
LINE
8
0
10
1169.5
20
1905.41
30
0
11
1169.5
21
1895.59
31
0
0
LINE
8
0
10
1169.5
20
1895.59
30
0
11
1178
21
1890.69
31
0
0
LINE
8
0
10
1178
20
1890.69
30
0
11
1186.5
21
1895.59
31
0
0
LINE
8
0
10
1175.67
20
1902.76
30
0
11
1173.58
21
1904.85
31
0
0
ARC
8
0
10
1178
20
1900.5
30
0
40
6.201524
50
135.457311
51
135
0
LINE
8
0
10
1223.14
20
1928.29
30
0
11
1221.05
21
1930.38
31
0
0
ARC
8
0
10
1226
20
1925.5
30
0
40
6.951036
50
135.408
51
135
0
LINE
8
0
10
1301.17
20
1954.5
30
0
11
1301.17
21
1957.45
31
0
0
LINE
8
0
10
1301.17
20
1957.45
30
0
11
1343.07
21
1957.45
31
0
0
LINE
8
0
10
1343.07
20
1957.45
30
0
11
1343.07
21
1951.55
31
0
0
LINE
8
0
10
1343.07
20
1951.55
30
0
11
1301.17
21
1951.55
31
0
0
LINE
8
0
10
1301.17
20
1951.55
30
0
11
1301.17
21
1954.5
31
0
0
LINE
8
0
10
1300.03
20
1865.03
30
0
11
1297.94
21
1867.11
31
0
0
ARC
8
0
10
1304.62
20
1860.5
30
0
40
9.397579
50
135.301781
51
134.956888
0
LINE
8
0
10
1360.03
20
1865.03
30
0
11
1357.94
21
1867.11
31
0
0
ARC
8
0
10
1364.62
20
1860.5
30
0
40
9.397579
50
135.301781
51
134.956888
0
LINE
8
0
10
1438.97
20
2011.21
30
0
11
1436.88
21
2013.29
31
0
0
ARC
8
0
10
1443.25
20
2007
30
0
40
8.952151
50
135.362054
51
135
0
LINE
8
0
10
1178.48
20
1801.95
30
0
11
1176.39
21
1804.04
31
0
0
ARC
8
0
10
1180
20
1800.5
30
0
40
5.056056
50
135.56092
51
135
0
LINE
8
0
10
1300.03
20
1690.03
30
0
11
1297.94
21
1692.11
31
0
0
ARC
8
0
10
1304.62
20
1685.5
30
0
40
9.397579
50
135.301781
51
134.956888
0
LINE
8
0
10
1360.03
20
1690.03
30
0
11
1357.94
21
1692.11
31
0
0
ARC
8
0
10
1364.62
20
1685.5
30
0
40
9.397579
50
135.301781
51
134.956888
0
LINE
8
0
10
1301.17
20
1580
30
0
11
1301.17
21
1582.95
31
0
0
LINE
8
0
10
1301.17
20
1582.95
30
0
11
1343.07
21
1582.95
31
0
0
LINE
8
0
10
1343.07
20
1582.95
30
0
11
1343.07
21
1577.05
31
0
0
LINE
8
0
10
1343.07
20
1577.05
30
0
11
1301.17
21
1577.05
31
0
0
LINE
8
0
10
1301.17
20
1577.05
30
0
11
1301.17
21
1580
31
0
0
LINE
8
0
10
1223.14
20
1478.29
30
0
11
1221.05
21
1480.38
31
0
0
ARC
8
0
10
1226
20
1475.5
30
0
40
6.951036
50
135.408
51
135
0
LINE
8
0
10
1317.53
20
1437.53
30
0
11
1315.44
21
1439.61
31
0
0
ARC
8
0
10
1322.12
20
1433
30
0
40
9.397579
50
135.301781
51
134.956888
0
LINE
8
0
10
1175.67
20
1119.76
30
0
11
1173.58
21
1121.85
31
0
0
ARC
8
0
10
1178
20
1117.5
30
0
40
6.201524
50
135.457311
51
135
0
LINE
8
0
10
1223.14
20
1028.29
30
0
11
1221.05
21
1030.38
31
0
0
ARC
8
0
10
1226
20
1025.5
30
0
40
6.951036
50
135.408
51
135
0
LINE
8
0
10
1301.17
20
991
30
0
11
1301.17
21
993.95
31
0
0
LINE
8
0
10
1301.17
20
993.95
30
0
11
1343.07
21
993.95
31
0
0
LINE
8
0
10
1343.07
20
993.95
30
0
11
1343.07
21
988.05
31
0
0
LINE
8
0
10
1343.07
20
988.05
30
0
11
1301.17
21
988.05
31
0
0
LINE
8
0
10
1301.17
20
988.05
30
0
11
1301.17
21
991
31
0
0
LINE
8
0
10
1175.67
20
935.76
30
0
11
1173.58
21
937.85
31
0
0
ARC
8
0
10
1178
20
933.5
30
0
40
6.201524
50
135.457311
51
135
0
LINE
8
0
10
1317.53
20
622.53
30
0
11
1315.44
21
624.61
31
0
0
ARC
8
0
10
1322.12
20
618
30
0
40
9.397579
50
135.301781
51
134.956888
0
LINE
8
0
10
1223.14
20
578.29
30
0
11
1221.05
21
580.38
31
0
0
ARC
8
0
10
1226
20
575.5
30
0
40
6.951036
50
135.408
51
135
0
LINE
8
0
10
1301.17
20
428
30
0
11
1301.17
21
430.95
31
0
0
LINE
8
0
10
1301.17
20
430.95
30
0
11
1343.07
21
430.95
31
0
0
LINE
8
0
10
1343.07
20
430.95
30
0
11
1343.07
21
425.05
31
0
0
LINE
8
0
10
1343.07
20
425.05
30
0
11
1301.17
21
425.05
31
0
0
LINE
8
0
10
1301.17
20
425.05
30
0
11
1301.17
21
428
31
0
0
LINE
8
0
10
1300.03
20
370.03
30
0
11
1297.94
21
372.11
31
0
0
ARC
8
0
10
1304.62
20
365.5
30
0
40
9.397579
50
135.301781
51
134.956888
0
LINE
8
0
10
1360.03
20
370.03
30
0
11
1357.94
21
372.11
31
0
0
ARC
8
0
10
1364.62
20
365.5
30
0
40
9.397579
50
135.301781
51
134.956888
0
LINE
8
0
10
1178.48
20
251.95
30
0
11
1176.39
21
254.04
31
0
0
ARC
8
0
10
1180
20
250.5
30
0
40
5.056056
50
135.56092
51
135
0
LINE
8
0
10
1175.67
20
152.76
30
0
11
1173.58
21
154.85
31
0
0
ARC
8
0
10
1178
20
150.5
30
0
40
6.201524
50
135.457311
51
135
0
LINE
8
0
10
1223.14
20
128.29
30
0
11
1221.05
21
130.38
31
0
0
ARC
8
0
10
1226
20
125.5
30
0
40
6.951036
50
135.408
51
135
0
LINE
8
0
10
1300.03
20
195.03
30
0
11
1297.94
21
197.11
31
0
0
ARC
8
0
10
1304.62
20
190.5
30
0
40
9.397579
50
135.301781
51
134.956888
0
LINE
8
0
10
1360.03
20
195.03
30
0
11
1357.94
21
197.11
31
0
0
ARC
8
0
10
1364.62
20
190.5
30
0
40
9.397579
50
135.301781
51
134.956888
0
LINE
8
0
10
1301.17
20
97.5
30
0
11
1301.17
21
100.45
31
0
0
LINE
8
0
10
1301.17
20
100.45
30
0
11
1343.07
21
100.45
31
0
0
LINE
8
0
10
1343.07
20
100.45
30
0
11
1343.07
21
94.55
31
0
0
LINE
8
0
10
1343.07
20
94.55
30
0
11
1301.17
21
94.55
31
0
0
LINE
8
0
10
1301.17
20
94.55
30
0
11
1301.17
21
97.5
31
0
0
LINE
8
0
10
1438.97
20
48.21
30
0
11
1436.88
21
50.29
31
0
0
ARC
8
0
10
1443.25
20
44
30
0
40
8.952151
50
135.362054
51
135
0
LINE
8
0
10
1486.25
20
14.95
30
0
11
1483.25
21
14.95
31
0
0
LINE
8
0
10
1483.25
20
14.95
30
0
11
1160.95
21
14.95
31
0
0
LINE
8
0
10
1160.95
20
14.95
30
0
11
1160.95
21
138.5
31
0
0
LINE
8
0
10
1160.95
20
138.5
30
0
11
1166.15
21
138.5
31
0
0
LINE
8
0
10
1166.15
20
138.5
30
0
11
1166.15
21
143.6
31
0
0
LINE
8
0
10
1166.15
20
143.6
30
0
11
1160.95
21
143.6
31
0
0
LINE
8
0
10
1160.95
20
143.6
30
0
11
1160.95
21
2037.05
31
0
0
LINE
8
0
10
1160.95
20
2037.05
30
0
11
1483.3
21
2037.05
31
0
0
LINE
8
0
10
1483.3
20
2037.05
30
0
11
1483.3
21
143.6
31
0
0
LINE
8
0
10
1483.3
20
143.6
30
0
11
1478.1
21
143.6
31
0
0
LINE
8
0
10
1478.1
20
143.6
30
0
11
1478.1
21
138.5
31
0
0
LINE
8
0
10
1478.1
20
138.5
30
0
11
1483.3
21
138.5
31
0
0
LINE
8
0
10
1483.3
20
138.5
30
0
11
1483.3
21
15
31
0
0
ENDSEC
0
EOF
