0
SECTION
2
HEADER
9
$ACADVER
1
AC1009
0
ENDSEC
0
SECTION
2
ENTITIES
0
CIRCLE
8
0
10
426.63
20
227.2
30
0
40
11
0
LINE
8
0
10
399.2
20
175.66
30
0
11
395.26
21
175.66
31
0
0
LINE
8
0
10
395.26
20
175.66
30
0
11
395.26
21
177.14
31
0
0
LINE
8
0
10
395.26
20
177.14
30
0
11
406.14
21
177.14
31
0
0
LINE
8
0
10
406.14
20
177.14
30
0
11
406.14
21
174.06
31
0
0
LINE
8
0
10
406.14
20
174.06
30
0
11
395.26
21
174.06
31
0
0
LINE
8
0
10
395.26
20
174.06
30
0
11
395.26
21
175.6
31
0
0
LINE
8
0
10
415.53
20
128.37
30
0
11
412.03
21
131.86
31
0
0
ARC
8
0
10
416.98
20
127
30
0
40
6.937009
50
135.525635
51
135
0
LINE
8
0
10
465.53
20
128.37
30
0
11
462.03
21
131.86
31
0
0
ARC
8
0
10
466.98
20
127
30
0
40
6.937009
50
135.525635
51
135
0
LINE
8
0
10
469.49
20
91.12
30
0
11
473.06
21
94.53
31
0
0
ARC
8
0
10
454.98
20
77.36
30
0
40
24.933818
50
315
51
43.521203
0
LINE
8
0
10
472.62
20
59.72
30
0
11
437.26
21
24.36
31
0
0
ARC
8
0
10
419.63
20
42
30
0
40
24.939657
50
135
51
314.983755
0
LINE
8
0
10
401.99
20
59.64
30
0
11
437.35
21
94.99
31
0
0
ARC
8
0
10
454.98
20
77.36
30
0
40
24.932585
50
44.805007
51
135
0
LINE
8
0
10
539.5
20
175.54
30
0
11
535.56
21
175.54
31
0
0
LINE
8
0
10
535.56
20
175.54
30
0
11
535.56
21
174.06
31
0
0
LINE
8
0
10
535.56
20
174.06
30
0
11
549.44
21
174.06
31
0
0
LINE
8
0
10
549.44
20
174.06
30
0
11
549.44
21
177.14
31
0
0
LINE
8
0
10
549.44
20
177.14
30
0
11
535.56
21
177.14
31
0
0
LINE
8
0
10
535.56
20
177.14
30
0
11
535.56
21
175.6
31
0
0
LINE
8
0
10
539.52
20
301
30
0
11
539.52
21
304.94
31
0
0
ARC
8
0
10
539.58
20
294
30
0
40
10.940165
50
90.314233
51
90
0
LINE
8
0
10
461.41
20
317.63
30
0
11
457.91
21
321.13
31
0
0
ARC
8
0
10
461.63
20
317.5
30
0
40
5.197624
50
135.701546
51
135
0
LINE
8
0
10
326.69
20
336.2
30
0
11
326.69
21
337.14
31
0
0
LINE
8
0
10
326.69
20
337.14
30
0
11
327.57
21
337.14
31
0
0
LINE
8
0
10
327.57
20
337.14
30
0
11
327.57
21
326.86
31
0
0
LINE
8
0
10
327.57
20
326.86
30
0
11
325.69
21
326.86
31
0
0
LINE
8
0
10
325.69
20
326.86
30
0
11
325.69
21
337.14
31
0
0
LINE
8
0
10
325.69
20
337.14
30
0
11
326.63
21
337.14
31
0
0
LINE
8
0
10
254.37
20
326.94
30
0
11
284.67
21
326.94
31
0
0
ARC
8
0
10
284.67
20
322
30
0
40
4.94
50
0
51
90
0
LINE
8
0
10
289.61
20
322
30
0
11
289.61
21
212
31
0
0
ARC
8
0
10
284.67
20
212
30
0
40
4.94
50
270
51
0
0
LINE
8
0
10
284.67
20
207.06
30
0
11
224.07
21
207.06
31
0
0
ARC
8
0
10
224.07
20
212
30
0
40
4.94
50
180
51
270
0
LINE
8
0
10
219.13
20
212
30
0
11
219.13
21
322
31
0
0
ARC
8
0
10
224.07
20
322
30
0
40
4.94
50
90
51
180
0
LINE
8
0
10
224.07
20
326.94
30
0
11
254.37
21
326.94
31
0
0
LINE
8
0
10
281.09
20
426.43
30
0
11
277.65
21
426.43
31
0
0
LINE
8
0
10
277.65
20
426.43
30
0
11
277.65
21
427.94
31
0
0
LINE
8
0
10
277.65
20
427.94
30
0
11
284.53
21
427.94
31
0
0
LINE
8
0
10
284.53
20
427.94
30
0
11
284.53
21
424.81
31
0
0
LINE
8
0
10
284.53
20
424.81
30
0
11
277.65
21
424.81
31
0
0
LINE
8
0
10
277.65
20
424.81
30
0
11
277.65
21
426.37
31
0
0
LINE
8
0
10
141.52
20
396.63
30
0
11
138.02
21
400.13
31
0
0
ARC
8
0
10
141.73
20
396.5
30
0
40
5.190472
50
135.624452
51
134.921834
0
LINE
8
0
10
141.52
20
518.63
30
0
11
138.02
21
522.13
31
0
0
ARC
8
0
10
141.73
20
518.5
30
0
40
5.190472
50
135.624452
51
134.921834
0
LINE
8
0
10
281.09
20
579.68
30
0
11
277.65
21
579.68
31
0
0
LINE
8
0
10
277.65
20
579.68
30
0
11
277.65
21
581.19
31
0
0
LINE
8
0
10
277.65
20
581.19
30
0
11
284.53
21
581.19
31
0
0
LINE
8
0
10
284.53
20
581.19
30
0
11
284.53
21
578.06
31
0
0
LINE
8
0
10
284.53
20
578.06
30
0
11
277.65
21
578.06
31
0
0
LINE
8
0
10
277.65
20
578.06
30
0
11
277.65
21
579.62
31
0
0
LINE
8
0
10
428.13
20
537.44
30
0
11
459.57
21
537.44
31
0
0
LINE
8
0
10
459.57
20
537.44
30
0
11
459.57
21
344.5
31
0
0
ARC
8
0
10
452.63
20
344.5
30
0
40
6.94
50
270
51
0
0
LINE
8
0
10
452.63
20
337.56
30
0
11
389.69
21
337.56
31
0
0
LINE
8
0
10
389.69
20
337.56
30
0
11
389.69
21
530.5
31
0
0
ARC
8
0
10
396.63
20
530.5
30
0
40
6.94
50
90
51
180
0
LINE
8
0
10
396.63
20
537.44
30
0
11
428.13
21
537.44
31
0
0
LINE
8
0
10
399.2
20
695.66
30
0
11
395.26
21
695.66
31
0
0
LINE
8
0
10
395.26
20
695.66
30
0
11
395.26
21
697.14
31
0
0
LINE
8
0
10
395.26
20
697.14
30
0
11
406.14
21
697.14
31
0
0
LINE
8
0
10
406.14
20
697.14
30
0
11
406.14
21
694.06
31
0
0
LINE
8
0
10
406.14
20
694.06
30
0
11
395.26
21
694.06
31
0
0
LINE
8
0
10
395.26
20
694.06
30
0
11
395.26
21
695.6
31
0
0
LINE
8
0
10
283.05
20
739.5
30
0
11
283.05
21
742.44
31
0
0
LINE
8
0
10
283.05
20
742.44
30
0
11
284.53
21
742.44
31
0
0
LINE
8
0
10
284.53
20
742.44
30
0
11
284.53
21
736.56
31
0
0
LINE
8
0
10
284.53
20
736.56
30
0
11
281.45
21
736.56
31
0
0
LINE
8
0
10
281.45
20
736.56
30
0
11
281.45
21
742.44
31
0
0
LINE
8
0
10
281.45
20
742.44
30
0
11
282.99
21
742.44
31
0
0
LINE
8
0
10
283.05
20
894.5
30
0
11
283.05
21
897.44
31
0
0
LINE
8
0
10
283.05
20
897.44
30
0
11
284.53
21
897.44
31
0
0
LINE
8
0
10
284.53
20
897.44
30
0
11
284.53
21
891.56
31
0
0
LINE
8
0
10
284.53
20
891.56
30
0
11
281.45
21
891.56
31
0
0
LINE
8
0
10
281.45
20
891.56
30
0
11
281.45
21
897.44
31
0
0
LINE
8
0
10
281.45
20
897.44
30
0
11
282.99
21
897.44
31
0
0
ARC
8
0
10
278.17
20
989.01
30
0
40
27.43
50
90
51
107.285488
0
ARC
8
0
10
278
20
989.54
30
0
40
26.872216
50
107.275164
51
124.831337
0
ARC
8
0
10
277.49
20
990.28
30
0
40
25.976297
50
124.840234
51
142.808021
0
ARC
8
0
10
276.78
20
990.82
30
0
40
25.080391
50
142.810273
51
161.25441
0
ARC
8
0
10
276.26
20
991
30
0
40
24.53013
50
161.262214
51
198.737786
0
ARC
8
0
10
276.78
20
991.18
30
0
40
25.080393
50
198.74559
51
217.189727
0
ARC
8
0
10
277.49
20
991.72
30
0
40
25.97241
50
217.191979
51
235.159766
0
ARC
8
0
10
278
20
992.46
30
0
40
26.875009
50
235.168663
51
252.724836
0
ARC
8
0
10
278.17
20
992.99
30
0
40
27.428791
50
252.714512
51
287.285488
0
ARC
8
0
10
278.34
20
992.46
30
0
40
26.872216
50
287.275164
51
304.831337
0
ARC
8
0
10
278.85
20
991.72
30
0
40
25.976297
50
304.840234
51
322.808021
0
ARC
8
0
10
279.56
20
991.18
30
0
40
25.080391
50
322.810273
51
341.25441
0
ARC
8
0
10
280.08
20
991
30
0
40
24.53013
50
341.262214
51
18.737786
0
ARC
8
0
10
279.56
20
990.82
30
0
40
25.080393
50
18.74559
51
37.189727
0
ARC
8
0
10
278.85
20
990.28
30
0
40
25.97241
50
37.191979
51
55.159766
0
ARC
8
0
10
278.34
20
989.54
30
0
40
26.875009
50
55.168663
51
72.724836
0
ARC
8
0
10
278.17
20
989.01
30
0
40
27.428791
50
72.714512
51
90
0
LINE
8
0
10
281.09
20
1042.93
30
0
11
277.65
21
1042.93
31
0
0
LINE
8
0
10
277.65
20
1042.93
30
0
11
277.65
21
1044.44
31
0
0
LINE
8
0
10
277.65
20
1044.44
30
0
11
284.53
21
1044.44
31
0
0
LINE
8
0
10
284.53
20
1044.44
30
0
11
284.53
21
1041.31
31
0
0
LINE
8
0
10
284.53
20
1041.31
30
0
11
277.65
21
1041.31
31
0
0
LINE
8
0
10
277.65
20
1041.31
30
0
11
277.65
21
1042.87
31
0
0
LINE
8
0
10
399.2
20
1092.46
30
0
11
395.26
21
1092.46
31
0
0
LINE
8
0
10
395.26
20
1092.46
30
0
11
395.26
21
1093.94
31
0
0
LINE
8
0
10
395.26
20
1093.94
30
0
11
406.14
21
1093.94
31
0
0
LINE
8
0
10
406.14
20
1093.94
30
0
11
406.14
21
1090.86
31
0
0
LINE
8
0
10
406.14
20
1090.86
30
0
11
395.26
21
1090.86
31
0
0
LINE
8
0
10
395.26
20
1090.86
30
0
11
395.26
21
1092.4
31
0
0
LINE
8
0
10
399.57
20
949.25
30
0
11
399.57
21
953.19
31
0
0
ARC
8
0
10
399.63
20
893
30
0
40
60.19003
50
90.057115
51
90
0
LINE
8
0
10
539.5
20
1092.46
30
0
11
535.56
21
1092.46
31
0
0
LINE
8
0
10
535.56
20
1092.46
30
0
11
535.56
21
1093.94
31
0
0
LINE
8
0
10
535.56
20
1093.94
30
0
11
549.44
21
1093.94
31
0
0
LINE
8
0
10
549.44
20
1093.94
30
0
11
549.44
21
1090.86
31
0
0
LINE
8
0
10
549.44
20
1090.86
30
0
11
535.56
21
1090.86
31
0
0
LINE
8
0
10
535.56
20
1090.86
30
0
11
535.56
21
1092.4
31
0
0
LINE
8
0
10
281.09
20
1196.18
30
0
11
277.65
21
1196.18
31
0
0
LINE
8
0
10
277.65
20
1196.18
30
0
11
277.65
21
1197.69
31
0
0
LINE
8
0
10
277.65
20
1197.69
30
0
11
284.53
21
1197.69
31
0
0
LINE
8
0
10
284.53
20
1197.69
30
0
11
284.53
21
1194.56
31
0
0
LINE
8
0
10
284.53
20
1194.56
30
0
11
277.65
21
1194.56
31
0
0
LINE
8
0
10
277.65
20
1194.56
30
0
11
277.65
21
1196.12
31
0
0
LINE
8
0
10
291.25
20
1288.47
30
0
11
287.78
21
1290.47
31
0
0
ARC
8
0
10
287.9
20
1290.67
30
0
40
0.233238
50
150.255119
51
239.036243
0
LINE
8
0
10
287.69
20
1290.79
30
0
11
289.02
21
1293.09
31
0
0
LINE
8
0
10
289.02
20
1293.09
30
0
11
294.32
21
1293.09
31
0
0
LINE
8
0
10
294.32
20
1293.09
30
0
11
296.97
21
1288.5
31
0
0
LINE
8
0
10
296.97
20
1288.5
30
0
11
294.32
21
1283.91
31
0
0
LINE
8
0
10
294.32
20
1283.91
30
0
11
289.02
21
1283.91
31
0
0
LINE
8
0
10
289.02
20
1283.91
30
0
11
286.37
21
1288.5
31
0
0
LINE
8
0
10
286.37
20
1288.5
30
0
11
287.69
21
1290.8
31
0
0
LINE
8
0
10
251.25
20
1288.47
30
0
11
247.78
21
1290.47
31
0
0
ARC
8
0
10
247.9
20
1290.67
30
0
40
0.233238
50
150.255119
51
239.036243
0
LINE
8
0
10
247.69
20
1290.79
30
0
11
249.02
21
1293.09
31
0
0
LINE
8
0
10
249.02
20
1293.09
30
0
11
254.32
21
1293.09
31
0
0
LINE
8
0
10
254.32
20
1293.09
30
0
11
256.97
21
1288.5
31
0
0
LINE
8
0
10
256.97
20
1288.5
30
0
11
254.32
21
1283.91
31
0
0
LINE
8
0
10
254.32
20
1283.91
30
0
11
249.02
21
1283.91
31
0
0
LINE
8
0
10
249.02
20
1283.91
30
0
11
246.37
21
1288.5
31
0
0
LINE
8
0
10
246.37
20
1288.5
30
0
11
247.69
21
1290.8
31
0
0
LINE
8
0
10
271.67
20
1347.44
30
0
11
250.67
21
1347.44
31
0
0
ARC
8
0
10
250.67
20
1344.5
30
0
40
2.94
50
90
51
180
0
LINE
8
0
10
247.73
20
1344.5
30
0
11
247.73
21
1300.5
31
0
0
ARC
8
0
10
250.67
20
1300.5
30
0
40
2.94
50
180
51
270
0
LINE
8
0
10
250.67
20
1297.56
30
0
11
292.67
21
1297.56
31
0
0
ARC
8
0
10
292.67
20
1300.5
30
0
40
2.94
50
270
51
0
0
LINE
8
0
10
295.61
20
1300.5
30
0
11
295.61
21
1344.5
31
0
0
ARC
8
0
10
292.67
20
1344.5
30
0
40
2.94
50
0
51
90
0
LINE
8
0
10
292.67
20
1347.44
30
0
11
271.67
21
1347.44
31
0
0
LINE
8
0
10
272.25
20
1357.47
30
0
11
268.78
21
1359.47
31
0
0
ARC
8
0
10
268.9
20
1359.67
30
0
40
0.233238
50
150.255119
51
239.036243
0
LINE
8
0
10
268.69
20
1359.79
30
0
11
270.02
21
1362.09
31
0
0
LINE
8
0
10
270.02
20
1362.09
30
0
11
275.32
21
1362.09
31
0
0
LINE
8
0
10
275.32
20
1362.09
30
0
11
277.97
21
1357.5
31
0
0
LINE
8
0
10
277.97
20
1357.5
30
0
11
275.32
21
1352.91
31
0
0
LINE
8
0
10
275.32
20
1352.91
30
0
11
270.02
21
1352.91
31
0
0
LINE
8
0
10
270.02
20
1352.91
30
0
11
267.37
21
1357.5
31
0
0
LINE
8
0
10
267.37
20
1357.5
30
0
11
268.69
21
1359.8
31
0
0
LINE
8
0
10
271.67
20
1417.44
30
0
11
250.67
21
1417.44
31
0
0
ARC
8
0
10
250.67
20
1414.5
30
0
40
2.94
50
90
51
180
0
LINE
8
0
10
247.73
20
1414.5
30
0
11
247.73
21
1370.5
31
0
0
ARC
8
0
10
250.67
20
1370.5
30
0
40
2.94
50
180
51
270
0
LINE
8
0
10
250.67
20
1367.56
30
0
11
292.67
21
1367.56
31
0
0
ARC
8
0
10
292.67
20
1370.5
30
0
40
2.94
50
270
51
0
0
LINE
8
0
10
295.61
20
1370.5
30
0
11
295.61
21
1414.5
31
0
0
ARC
8
0
10
292.67
20
1414.5
30
0
40
2.94
50
0
51
90
0
LINE
8
0
10
292.67
20
1417.44
30
0
11
271.67
21
1417.44
31
0
0
LINE
8
0
10
291.25
20
1426.47
30
0
11
287.78
21
1428.47
31
0
0
ARC
8
0
10
287.9
20
1428.67
30
0
40
0.233238
50
150.255119
51
239.036243
0
LINE
8
0
10
287.69
20
1428.79
30
0
11
289.02
21
1431.09
31
0
0
LINE
8
0
10
289.02
20
1431.09
30
0
11
294.32
21
1431.09
31
0
0
LINE
8
0
10
294.32
20
1431.09
30
0
11
296.97
21
1426.5
31
0
0
LINE
8
0
10
296.97
20
1426.5
30
0
11
294.32
21
1421.91
31
0
0
LINE
8
0
10
294.32
20
1421.91
30
0
11
289.02
21
1421.91
31
0
0
LINE
8
0
10
289.02
20
1421.91
30
0
11
286.37
21
1426.5
31
0
0
LINE
8
0
10
286.37
20
1426.5
30
0
11
287.69
21
1428.8
31
0
0
LINE
8
0
10
251.25
20
1426.47
30
0
11
247.78
21
1428.47
31
0
0
ARC
8
0
10
247.9
20
1428.67
30
0
40
0.233238
50
150.255119
51
239.036243
0
LINE
8
0
10
247.69
20
1428.79
30
0
11
249.02
21
1431.09
31
0
0
LINE
8
0
10
249.02
20
1431.09
30
0
11
254.32
21
1431.09
31
0
0
LINE
8
0
10
254.32
20
1431.09
30
0
11
256.97
21
1426.5
31
0
0
LINE
8
0
10
256.97
20
1426.5
30
0
11
254.32
21
1421.91
31
0
0
LINE
8
0
10
254.32
20
1421.91
30
0
11
249.02
21
1421.91
31
0
0
LINE
8
0
10
249.02
20
1421.91
30
0
11
246.37
21
1426.5
31
0
0
LINE
8
0
10
246.37
20
1426.5
30
0
11
247.69
21
1428.8
31
0
0
LINE
8
0
10
141.52
20
1411.63
30
0
11
138.02
21
1415.13
31
0
0
ARC
8
0
10
141.73
20
1411.5
30
0
40
5.190472
50
135.624452
51
134.921834
0
LINE
8
0
10
141.52
20
1289.63
30
0
11
138.02
21
1293.13
31
0
0
ARC
8
0
10
141.73
20
1289.5
30
0
40
5.190472
50
135.624452
51
134.921834
0
LINE
8
0
10
62.92
20
1520.8
30
0
11
64.53
21
1523.59
31
0
0
LINE
8
0
10
64.53
20
1523.59
30
0
11
70.98
21
1523.59
31
0
0
LINE
8
0
10
70.98
20
1523.59
30
0
11
74.21
21
1518
31
0
0
LINE
8
0
10
74.21
20
1518
30
0
11
70.98
21
1512.41
31
0
0
LINE
8
0
10
70.98
20
1512.41
30
0
11
64.53
21
1512.41
31
0
0
LINE
8
0
10
64.53
20
1512.41
30
0
11
61.3
21
1518
31
0
0
LINE
8
0
10
61.3
20
1518
30
0
11
62.92
21
1520.8
31
0
0
LINE
8
0
10
399.2
20
1612.46
30
0
11
395.26
21
1612.46
31
0
0
LINE
8
0
10
395.26
20
1612.46
30
0
11
395.26
21
1613.94
31
0
0
LINE
8
0
10
395.26
20
1613.94
30
0
11
406.14
21
1613.94
31
0
0
LINE
8
0
10
406.14
20
1613.94
30
0
11
406.14
21
1610.86
31
0
0
LINE
8
0
10
406.14
20
1610.86
30
0
11
395.26
21
1610.86
31
0
0
LINE
8
0
10
395.26
20
1610.86
30
0
11
395.26
21
1612.4
31
0
0
LINE
8
0
10
415.53
20
1662.37
30
0
11
412.03
21
1665.86
31
0
0
ARC
8
0
10
416.98
20
1661
30
0
40
6.937009
50
135.525635
51
135
0
LINE
8
0
10
465.53
20
1662.37
30
0
11
462.03
21
1665.86
31
0
0
ARC
8
0
10
466.98
20
1661
30
0
40
6.937009
50
135.525635
51
135
0
LINE
8
0
10
469.02
20
1696.4
30
0
11
472.5
21
1692.89
31
0
0
ARC
8
0
10
454.98
20
1710.64
30
0
40
24.940186
50
225
51
314.626372
0
LINE
8
0
10
437.35
20
1693.01
30
0
11
401.99
21
1728.36
31
0
0
ARC
8
0
10
419.63
20
1746
30
0
40
24.946727
50
45.016245
51
225
0
LINE
8
0
10
437.26
20
1763.64
30
0
11
472.62
21
1728.28
31
0
0
ARC
8
0
10
454.98
20
1710.64
30
0
40
24.946727
50
315.909896
51
45
0
LINE
8
0
10
539.5
20
1612.46
30
0
11
535.56
21
1612.46
31
0
0
LINE
8
0
10
535.56
20
1612.46
30
0
11
535.56
21
1613.94
31
0
0
LINE
8
0
10
535.56
20
1613.94
30
0
11
549.44
21
1613.94
31
0
0
LINE
8
0
10
549.44
20
1613.94
30
0
11
549.44
21
1610.86
31
0
0
LINE
8
0
10
549.44
20
1610.86
30
0
11
535.56
21
1610.86
31
0
0
LINE
8
0
10
535.56
20
1610.86
30
0
11
535.56
21
1612.4
31
0
0
LINE
8
0
10
539.52
20
1501
30
0
11
539.52
21
1504.94
31
0
0
ARC
8
0
10
539.58
20
1494
30
0
40
10.940165
50
90.314233
51
90
0
LINE
8
0
10
421.13
20
1450.44
30
0
11
452.63
21
1450.44
31
0
0
ARC
8
0
10
452.63
20
1443.5
30
0
40
6.94
50
0
51
90
0
LINE
8
0
10
459.57
20
1443.5
30
0
11
459.57
21
1250.56
31
0
0
LINE
8
0
10
459.57
20
1250.56
30
0
11
396.63
21
1250.56
31
0
0
ARC
8
0
10
396.63
20
1257.5
30
0
40
6.94
50
180
51
270
0
LINE
8
0
10
389.69
20
1257.5
30
0
11
389.69
21
1450.44
31
0
0
LINE
8
0
10
389.69
20
1450.44
30
0
11
421.13
21
1450.44
31
0
0
LINE
8
0
10
371.94
20
1757.96
30
0
11
368.62
21
1761.27
31
0
0
ARC
8
0
10
371.98
20
1758
30
0
40
4.68855
50
135.777723
51
134.913581
0
LINE
8
0
10
539.5
20
695.66
30
0
11
535.56
21
695.66
31
0
0
LINE
8
0
10
535.56
20
695.66
30
0
11
535.56
21
697.14
31
0
0
LINE
8
0
10
535.56
20
697.14
30
0
11
549.44
21
697.14
31
0
0
LINE
8
0
10
549.44
20
697.14
30
0
11
549.44
21
694.06
31
0
0
LINE
8
0
10
549.44
20
694.06
30
0
11
535.56
21
694.06
31
0
0
LINE
8
0
10
535.56
20
694.06
30
0
11
535.56
21
695.6
31
0
0
LINE
8
0
10
62.92
20
714.8
30
0
11
64.53
21
717.59
31
0
0
LINE
8
0
10
64.53
20
717.59
30
0
11
70.98
21
717.59
31
0
0
LINE
8
0
10
70.98
20
717.59
30
0
11
74.21
21
712
31
0
0
LINE
8
0
10
74.21
20
712
30
0
11
70.98
21
706.41
31
0
0
LINE
8
0
10
70.98
20
706.41
30
0
11
64.53
21
706.41
31
0
0
LINE
8
0
10
64.53
20
706.41
30
0
11
61.3
21
712
31
0
0
LINE
8
0
10
61.3
20
712
30
0
11
62.92
21
714.8
31
0
0
LINE
8
0
10
326.69
20
212.2
30
0
11
326.69
21
213.14
31
0
0
LINE
8
0
10
326.69
20
213.14
30
0
11
327.57
21
213.14
31
0
0
LINE
8
0
10
327.57
20
213.14
30
0
11
327.57
21
202.86
31
0
0
LINE
8
0
10
327.57
20
202.86
30
0
11
325.69
21
202.86
31
0
0
LINE
8
0
10
325.69
20
202.86
30
0
11
325.69
21
213.14
31
0
0
LINE
8
0
10
325.69
20
213.14
30
0
11
326.63
21
213.14
31
0
0
LINE
8
0
10
371.94
20
29.96
30
0
11
368.62
21
33.27
31
0
0
ARC
8
0
10
371.98
20
30
30
0
40
4.68855
50
135.777723
51
134.913581
0
LINE
8
0
10
569.64
20
50.8
30
0
11
569.64
21
54.8
31
0
0
LINE
8
0
10
569.64
20
54.8
30
0
11
569.64
21
1733.26
31
0
0
LINE
8
0
10
569.64
20
1733.26
30
0
11
502.1
21
1733.26
31
0
0
LINE
8
0
10
502.1
20
1733.26
30
0
11
497.76
21
1732.22
31
0
0
ARC
8
0
10
497.54
20
1733.13
30
0
40
0.936216
50
214.195605
51
283.590948
0
LINE
8
0
10
496.76
20
1732.6
30
0
11
493.78
21
1736.93
31
0
0
LINE
8
0
10
493.78
20
1736.93
30
0
11
452.01
21
1778.7
31
0
0
ARC
8
0
10
446.31
20
1773
30
0
40
8.061017
50
45
51
90
0
LINE
8
0
10
446.31
20
1781.06
30
0
11
320.63
21
1781.06
31
0
0
ARC
8
0
10
320.63
20
1777
30
0
40
4.06
50
90
51
180
0
LINE
8
0
10
316.57
20
1777
30
0
11
316.57
21
1741.06
31
0
0
LINE
8
0
10
316.57
20
1741.06
30
0
11
43.5
21
1741.06
31
0
0
LINE
8
0
10
43.5
20
1741.06
30
0
11
43.5
21
1735.94
31
0
0
LINE
8
0
10
43.5
20
1735.94
30
0
11
44
21
1735.94
31
0
0
LINE
8
0
10
44
20
1735.94
30
0
11
44
21
1706.06
31
0
0
LINE
8
0
10
44
20
1706.06
30
0
11
43.5
21
1706.06
31
0
0
LINE
8
0
10
43.5
20
1706.06
30
0
11
43.5
21
1696.94
31
0
0
LINE
8
0
10
43.5
20
1696.94
30
0
11
50.2
21
1696.94
31
0
0
LINE
8
0
10
50.2
20
1696.94
30
0
11
50.2
21
1694.06
31
0
0
LINE
8
0
10
50.2
20
1694.06
30
0
11
8.94
21
1694.06
31
0
0
LINE
8
0
10
8.94
20
1694.06
30
0
11
8.94
21
93.94
31
0
0
LINE
8
0
10
8.94
20
93.94
30
0
11
47.72
21
93.94
31
0
0
LINE
8
0
10
47.72
20
93.94
30
0
11
47.72
21
93.31
31
0
0
LINE
8
0
10
47.72
20
93.31
30
0
11
43.5
21
93.31
31
0
0
LINE
8
0
10
43.5
20
93.31
30
0
11
43.5
21
81.94
31
0
0
LINE
8
0
10
43.5
20
81.94
30
0
11
44
21
81.94
31
0
0
LINE
8
0
10
44
20
81.94
30
0
11
44
21
52.06
31
0
0
LINE
8
0
10
44
20
52.06
30
0
11
43.5
21
52.06
31
0
0
LINE
8
0
10
43.5
20
52.06
30
0
11
43.5
21
46.94
31
0
0
LINE
8
0
10
43.5
20
46.94
30
0
11
316.57
21
46.94
31
0
0
LINE
8
0
10
316.57
20
46.94
30
0
11
316.57
21
11
31
0
0
ARC
8
0
10
320.63
20
11
30
0
40
4.06
50
180
51
270
0
LINE
8
0
10
320.63
20
6.94
30
0
11
446.31
21
6.94
31
0
0
ARC
8
0
10
446.31
20
15
30
0
40
8.06
50
270
51
315
0
LINE
8
0
10
452.01
20
9.3
30
0
11
493.78
21
51.07
31
0
0
LINE
8
0
10
493.78
20
51.07
30
0
11
496.76
21
55.4
31
0
0
ARC
8
0
10
497.54
20
54.87
30
0
40
0.943027
50
76.409052
51
145.804395
0
LINE
8
0
10
497.76
20
55.78
30
0
11
502.1
21
54.74
31
0
0
LINE
8
0
10
502.1
20
54.74
30
0
11
569.58
21
54.74
31
0
0
ENDSEC
0
EOF
