0
SECTION
2
HEADER
9
$ACADVER
1
AC1009
0
ENDSEC
0
SECTION
2
ENTITIES
0
LINE
8
0
10
1367.62
20
400.74
30
0
11
1379.62
21
407.67
31
0
0
LINE
8
0
10
1379.62
20
407.67
30
0
11
1379.62
21
421.53
31
0
0
LINE
8
0
10
1379.62
20
421.53
30
0
11
1367.62
21
428.46
31
0
0
LINE
8
0
10
1367.62
20
428.46
30
0
11
1355.62
21
421.53
31
0
0
LINE
8
0
10
1355.62
20
421.53
30
0
11
1355.62
21
407.67
31
0
0
LINE
8
0
10
1355.62
20
407.67
30
0
11
1367.62
21
400.74
31
0
0
LINE
8
0
10
1319.62
20
407.67
30
0
11
1319.62
21
421.53
31
0
0
LINE
8
0
10
1319.62
20
421.53
30
0
11
1307.62
21
428.46
31
0
0
LINE
8
0
10
1307.62
20
428.46
30
0
11
1295.62
21
421.53
31
0
0
LINE
8
0
10
1295.62
20
421.53
30
0
11
1295.62
21
407.67
31
0
0
LINE
8
0
10
1295.62
20
407.67
30
0
11
1307.62
21
400.74
31
0
0
LINE
8
0
10
1307.62
20
400.74
30
0
11
1319.62
21
407.67
31
0
0
LINE
8
0
10
1189.5
20
329.51
30
0
11
1181
21
334.41
31
0
0
LINE
8
0
10
1181
20
334.41
30
0
11
1172.5
21
329.51
31
0
0
LINE
8
0
10
1172.5
20
329.51
30
0
11
1172.5
21
319.69
31
0
0
LINE
8
0
10
1172.5
20
319.69
30
0
11
1181
21
314.79
31
0
0
LINE
8
0
10
1181
20
314.79
30
0
11
1189.5
21
319.69
31
0
0
LINE
8
0
10
1189.5
20
319.69
30
0
11
1189.5
21
329.51
31
0
0
LINE
8
0
10
1307.62
20
575.74
30
0
11
1319.62
21
582.67
31
0
0
LINE
8
0
10
1319.62
20
582.67
30
0
11
1319.62
21
596.53
31
0
0
LINE
8
0
10
1319.62
20
596.53
30
0
11
1307.62
21
603.46
31
0
0
LINE
8
0
10
1307.62
20
603.46
30
0
11
1295.62
21
596.53
31
0
0
LINE
8
0
10
1295.62
20
596.53
30
0
11
1295.62
21
582.67
31
0
0
LINE
8
0
10
1295.62
20
582.67
30
0
11
1307.62
21
575.74
31
0
0
LINE
8
0
10
1355.62
20
582.67
30
0
11
1367.62
21
575.74
31
0
0
LINE
8
0
10
1367.62
20
575.74
30
0
11
1379.62
21
582.67
31
0
0
LINE
8
0
10
1379.62
20
582.67
30
0
11
1379.62
21
596.53
31
0
0
LINE
8
0
10
1379.62
20
596.53
30
0
11
1367.62
21
603.46
31
0
0
LINE
8
0
10
1367.62
20
603.46
30
0
11
1355.62
21
596.53
31
0
0
LINE
8
0
10
1355.62
20
596.53
30
0
11
1355.62
21
582.67
31
0
0
LINE
8
0
10
1189.5
20
692.69
30
0
11
1189.5
21
702.51
31
0
0
LINE
8
0
10
1189.5
20
702.51
30
0
11
1181
21
707.41
31
0
0
LINE
8
0
10
1181
20
707.41
30
0
11
1172.5
21
702.51
31
0
0
LINE
8
0
10
1172.5
20
702.51
30
0
11
1172.5
21
692.69
31
0
0
LINE
8
0
10
1172.5
20
692.69
30
0
11
1181
21
687.79
31
0
0
LINE
8
0
10
1181
20
687.79
30
0
11
1189.5
21
692.69
31
0
0
LINE
8
0
10
1320.37
20
1064.48
30
0
11
1319.35
21
1065.5
31
0
0
LINE
8
0
10
1319.35
20
1065.5
30
0
11
1329.35
21
1065.5
31
0
0
LINE
8
0
10
1329.35
20
1064.48
30
0
11
1329.35
21
1066.53
31
0
0
LINE
8
0
10
1329.35
20
1067.42
30
0
11
1329.35
21
1073.13
31
0
0
LINE
8
0
10
1329.35
20
1073.13
30
0
11
1327.92
21
1074.56
31
0
0
LINE
8
0
10
1327.92
20
1074.56
30
0
11
1326.49
21
1074.56
31
0
0
LINE
8
0
10
1326.49
20
1074.56
30
0
11
1325.06
21
1073.13
31
0
0
LINE
8
0
10
1325.06
20
1073.13
30
0
11
1325.06
21
1067.42
31
0
0
LINE
8
0
10
1325.06
20
1067.42
30
0
11
1319.35
21
1067.42
31
0
0
LINE
8
0
10
1319.35
20
1067.42
30
0
11
1319.35
21
1074.56
31
0
0
LINE
8
0
10
1319.35
20
1081.17
30
0
11
1329.35
21
1076.88
31
0
0
LINE
8
0
10
1329.35
20
1076.88
30
0
11
1327.92
21
1075.45
31
0
0
LINE
8
0
10
1327.92
20
1075.45
30
0
11
1320.77
21
1075.45
31
0
0
LINE
8
0
10
1320.77
20
1075.45
30
0
11
1319.35
21
1076.88
31
0
0
LINE
8
0
10
1319.35
20
1076.88
30
0
11
1319.35
21
1081.17
31
0
0
LINE
8
0
10
1319.35
20
1081.17
30
0
11
1320.77
21
1082.6
31
0
0
LINE
8
0
10
1320.77
20
1082.6
30
0
11
1327.92
21
1082.6
31
0
0
LINE
8
0
10
1327.92
20
1082.6
30
0
11
1329.35
21
1081.17
31
0
0
LINE
8
0
10
1329.35
20
1081.17
30
0
11
1329.35
21
1076.88
31
0
0
LINE
8
0
10
1327.92
20
1083.49
30
0
11
1329.35
21
1084.92
31
0
0
LINE
8
0
10
1329.35
20
1084.92
30
0
11
1329.35
21
1089.2
31
0
0
LINE
8
0
10
1329.35
20
1089.2
30
0
11
1327.92
21
1090.63
31
0
0
LINE
8
0
10
1327.92
20
1090.63
30
0
11
1326.49
21
1090.63
31
0
0
LINE
8
0
10
1326.49
20
1090.63
30
0
11
1325.06
21
1089.2
31
0
0
LINE
8
0
10
1325.06
20
1089.2
30
0
11
1323.63
21
1090.63
31
0
0
LINE
8
0
10
1323.63
20
1090.63
30
0
11
1320.77
21
1090.63
31
0
0
LINE
8
0
10
1320.77
20
1090.63
30
0
11
1319.35
21
1089.2
31
0
0
LINE
8
0
10
1319.35
20
1089.2
30
0
11
1319.35
21
1084.92
31
0
0
LINE
8
0
10
1319.35
20
1084.92
30
0
11
1320.77
21
1083.49
31
0
0
LINE
8
0
10
1325.06
20
1084.92
30
0
11
1325.06
21
1089.2
31
0
0
LINE
8
0
10
1189.5
20
1102.69
30
0
11
1189.5
21
1112.51
31
0
0
LINE
8
0
10
1189.5
20
1112.51
30
0
11
1181
21
1117.41
31
0
0
LINE
8
0
10
1181
20
1117.41
30
0
11
1172.5
21
1112.51
31
0
0
LINE
8
0
10
1172.5
20
1112.51
30
0
11
1172.5
21
1102.69
31
0
0
LINE
8
0
10
1172.5
20
1102.69
30
0
11
1181
21
1097.79
31
0
0
LINE
8
0
10
1181
20
1097.79
30
0
11
1189.5
21
1102.69
31
0
0
LINE
8
0
10
1181
20
1281.79
30
0
11
1189.5
21
1286.69
31
0
0
LINE
8
0
10
1189.5
20
1286.69
30
0
11
1189.5
21
1296.51
31
0
0
LINE
8
0
10
1189.5
20
1296.51
30
0
11
1181
21
1301.41
31
0
0
LINE
8
0
10
1181
20
1301.41
30
0
11
1172.5
21
1296.51
31
0
0
LINE
8
0
10
1172.5
20
1296.51
30
0
11
1172.5
21
1286.69
31
0
0
LINE
8
0
10
1172.5
20
1286.69
30
0
11
1181
21
1281.79
31
0
0
LINE
8
0
10
1307.62
20
1795.74
30
0
11
1319.62
21
1802.67
31
0
0
LINE
8
0
10
1319.62
20
1802.67
30
0
11
1319.62
21
1816.53
31
0
0
LINE
8
0
10
1319.62
20
1816.53
30
0
11
1307.62
21
1823.46
31
0
0
LINE
8
0
10
1307.62
20
1823.46
30
0
11
1295.62
21
1816.53
31
0
0
LINE
8
0
10
1295.62
20
1816.53
30
0
11
1295.62
21
1802.67
31
0
0
LINE
8
0
10
1295.62
20
1802.67
30
0
11
1307.62
21
1795.74
31
0
0
LINE
8
0
10
1355.62
20
1802.67
30
0
11
1367.62
21
1795.74
31
0
0
LINE
8
0
10
1367.62
20
1795.74
30
0
11
1379.62
21
1802.67
31
0
0
LINE
8
0
10
1379.62
20
1802.67
30
0
11
1379.62
21
1816.53
31
0
0
LINE
8
0
10
1379.62
20
1816.53
30
0
11
1367.62
21
1823.46
31
0
0
LINE
8
0
10
1367.62
20
1823.46
30
0
11
1355.62
21
1816.53
31
0
0
LINE
8
0
10
1355.62
20
1816.53
30
0
11
1355.62
21
1802.67
31
0
0
LINE
8
0
10
1307.62
20
1970.74
30
0
11
1319.62
21
1977.67
31
0
0
LINE
8
0
10
1319.62
20
1977.67
30
0
11
1319.62
21
1991.53
31
0
0
LINE
8
0
10
1319.62
20
1991.53
30
0
11
1307.62
21
1998.46
31
0
0
LINE
8
0
10
1307.62
20
1998.46
30
0
11
1295.62
21
1991.53
31
0
0
LINE
8
0
10
1295.62
20
1991.53
30
0
11
1295.62
21
1977.67
31
0
0
LINE
8
0
10
1295.62
20
1977.67
30
0
11
1307.62
21
1970.74
31
0
0
LINE
8
0
10
1355.62
20
1977.67
30
0
11
1367.62
21
1970.74
31
0
0
LINE
8
0
10
1367.62
20
1970.74
30
0
11
1379.62
21
1977.67
31
0
0
LINE
8
0
10
1379.62
20
1977.67
30
0
11
1379.62
21
1991.53
31
0
0
LINE
8
0
10
1379.62
20
1991.53
30
0
11
1367.62
21
1998.46
31
0
0
LINE
8
0
10
1367.62
20
1998.46
30
0
11
1355.62
21
1991.53
31
0
0
LINE
8
0
10
1355.62
20
1991.53
30
0
11
1355.62
21
1977.67
31
0
0
LINE
8
0
10
1189.5
20
2069.69
30
0
11
1189.5
21
2079.51
31
0
0
LINE
8
0
10
1189.5
20
2079.51
30
0
11
1181
21
2084.41
31
0
0
LINE
8
0
10
1181
20
2084.41
30
0
11
1172.5
21
2079.51
31
0
0
LINE
8
0
10
1172.5
20
2079.51
30
0
11
1172.5
21
2069.69
31
0
0
LINE
8
0
10
1172.5
20
2069.69
30
0
11
1181
21
2064.79
31
0
0
LINE
8
0
10
1181
20
2064.79
30
0
11
1189.5
21
2069.69
31
0
0
LINE
8
0
10
1178.67
20
2076.86
30
0
11
1176.58
21
2078.95
31
0
0
ARC
8
0
10
1181
20
2074.6
30
0
40
6.201524
50
135.457311
51
135
0
LINE
8
0
10
1226.14
20
2102.39
30
0
11
1224.05
21
2104.48
31
0
0
ARC
8
0
10
1229
20
2099.6
30
0
40
6.951036
50
135.408
51
135
0
LINE
8
0
10
1304.17
20
2127.6
30
0
11
1304.17
21
2130.55
31
0
0
LINE
8
0
10
1304.17
20
2130.55
30
0
11
1346.07
21
2130.55
31
0
0
LINE
8
0
10
1346.07
20
2130.55
30
0
11
1346.07
21
2124.65
31
0
0
LINE
8
0
10
1346.07
20
2124.65
30
0
11
1304.17
21
2124.65
31
0
0
LINE
8
0
10
1304.17
20
2124.65
30
0
11
1304.17
21
2127.6
31
0
0
LINE
8
0
10
1441.97
20
2185.31
30
0
11
1439.88
21
2187.39
31
0
0
ARC
8
0
10
1446.24
20
2181.1
30
0
40
8.945038
50
135.317049
51
134.954707
0
LINE
8
0
10
1363.03
20
1989.13
30
0
11
1360.94
21
1991.21
31
0
0
ARC
8
0
10
1367.62
20
1984.6
30
0
40
9.397579
50
135.301781
51
134.956888
0
LINE
8
0
10
1303.03
20
1989.13
30
0
11
1300.94
21
1991.21
31
0
0
ARC
8
0
10
1307.62
20
1984.6
30
0
40
9.397579
50
135.301781
51
134.956888
0
LINE
8
0
10
1303.03
20
1814.13
30
0
11
1300.94
21
1816.21
31
0
0
ARC
8
0
10
1307.62
20
1809.6
30
0
40
9.397579
50
135.301781
51
134.956888
0
LINE
8
0
10
1363.03
20
1814.13
30
0
11
1360.94
21
1816.21
31
0
0
ARC
8
0
10
1367.62
20
1809.6
30
0
40
9.397579
50
135.301781
51
134.956888
0
LINE
8
0
10
1178.49
20
1704.04
30
0
11
1176.4
21
1706.13
31
0
0
ARC
8
0
10
1181
20
1701.6
30
0
40
6.456075
50
135.43928
51
135
0
LINE
8
0
10
1226.14
20
1652.39
30
0
11
1224.05
21
1654.48
31
0
0
ARC
8
0
10
1229
20
1649.6
30
0
40
6.951036
50
135.408
51
135
0
LINE
8
0
10
1181.48
20
1461.05
30
0
11
1179.39
21
1463.14
31
0
0
ARC
8
0
10
1183
20
1459.6
30
0
40
5.056056
50
135.56092
51
135
0
LINE
8
0
10
1178.67
20
1293.86
30
0
11
1176.58
21
1295.95
31
0
0
ARC
8
0
10
1181
20
1291.6
30
0
40
6.201524
50
135.457311
51
135
0
LINE
8
0
10
1226.14
20
1202.39
30
0
11
1224.05
21
1204.48
31
0
0
ARC
8
0
10
1229
20
1199.6
30
0
40
6.951036
50
135.408
51
135
0
LINE
8
0
10
1304.17
20
1239.6
30
0
11
1304.17
21
1242.55
31
0
0
LINE
8
0
10
1304.17
20
1242.55
30
0
11
1346.07
21
1242.55
31
0
0
LINE
8
0
10
1346.07
20
1242.55
30
0
11
1346.07
21
1236.65
31
0
0
LINE
8
0
10
1346.07
20
1236.65
30
0
11
1304.17
21
1236.65
31
0
0
LINE
8
0
10
1304.17
20
1236.65
30
0
11
1304.17
21
1239.6
31
0
0
LINE
8
0
10
1178.67
20
1109.86
30
0
11
1176.58
21
1111.95
31
0
0
ARC
8
0
10
1181
20
1107.6
30
0
40
6.201524
50
135.457311
51
135
0
LINE
8
0
10
1181.48
20
941.05
30
0
11
1179.39
21
943.14
31
0
0
ARC
8
0
10
1183
20
939.6
30
0
40
5.056056
50
135.56092
51
135
0
LINE
8
0
10
1226.14
20
752.39
30
0
11
1224.05
21
754.48
31
0
0
ARC
8
0
10
1229
20
749.6
30
0
40
6.951036
50
135.408
51
135
0
LINE
8
0
10
1178.67
20
699.86
30
0
11
1176.58
21
701.95
31
0
0
ARC
8
0
10
1181
20
697.6
30
0
40
6.201524
50
135.457311
51
135
0
LINE
8
0
10
1304.17
20
645.1
30
0
11
1304.17
21
648.05
31
0
0
LINE
8
0
10
1304.17
20
648.05
30
0
11
1346.07
21
648.05
31
0
0
LINE
8
0
10
1346.07
20
648.05
30
0
11
1346.07
21
642.15
31
0
0
LINE
8
0
10
1346.07
20
642.15
30
0
11
1304.17
21
642.15
31
0
0
LINE
8
0
10
1304.17
20
642.15
30
0
11
1304.17
21
645.1
31
0
0
LINE
8
0
10
1303.03
20
594.13
30
0
11
1300.94
21
596.21
31
0
0
ARC
8
0
10
1307.62
20
589.6
30
0
40
9.397579
50
135.301781
51
134.956888
0
LINE
8
0
10
1363.03
20
594.13
30
0
11
1360.94
21
596.21
31
0
0
ARC
8
0
10
1367.62
20
589.6
30
0
40
9.397579
50
135.301781
51
134.956888
0
LINE
8
0
10
1363.03
20
419.13
30
0
11
1360.94
21
421.21
31
0
0
ARC
8
0
10
1367.62
20
414.6
30
0
40
9.397579
50
135.301781
51
134.956888
0
LINE
8
0
10
1303.03
20
419.13
30
0
11
1300.94
21
421.21
31
0
0
ARC
8
0
10
1307.62
20
414.6
30
0
40
9.397579
50
135.301781
51
134.956888
0
LINE
8
0
10
1178.67
20
326.86
30
0
11
1176.58
21
328.95
31
0
0
ARC
8
0
10
1181
20
324.6
30
0
40
6.201524
50
135.457311
51
135
0
LINE
8
0
10
1226.14
20
302.39
30
0
11
1224.05
21
304.48
31
0
0
ARC
8
0
10
1229
20
299.6
30
0
40
6.951036
50
135.408
51
135
0
LINE
8
0
10
1304.17
20
270.6
30
0
11
1304.17
21
273.55
31
0
0
LINE
8
0
10
1304.17
20
273.55
30
0
11
1346.07
21
273.55
31
0
0
LINE
8
0
10
1346.07
20
273.55
30
0
11
1346.07
21
267.65
31
0
0
LINE
8
0
10
1346.07
20
267.65
30
0
11
1304.17
21
267.65
31
0
0
LINE
8
0
10
1304.17
20
267.65
30
0
11
1304.17
21
270.6
31
0
0
LINE
8
0
10
1441.97
20
222.31
30
0
11
1439.88
21
224.39
31
0
0
ARC
8
0
10
1446.24
20
218.1
30
0
40
8.945038
50
135.317049
51
134.954707
0
LINE
8
0
10
1489.24
20
188.05
30
0
11
1486.24
21
188.05
31
0
0
LINE
8
0
10
1486.24
20
188.05
30
0
11
1163.95
21
188.05
31
0
0
LINE
8
0
10
1163.95
20
188.05
30
0
11
1163.95
21
2210.15
31
0
0
LINE
8
0
10
1163.95
20
2210.15
30
0
11
1486.29
21
2210.15
31
0
0
LINE
8
0
10
1486.29
20
2210.15
30
0
11
1486.29
21
188.1
31
0
0
ENDSEC
0
EOF
