0
SECTION
2
HEADER
9
$ACADVER
1
AC1009
0
ENDSEC
0
SECTION
2
ENTITIES
0
LINE
8
0
10
1199.58
20
304.26
30
0
11
1201.66
21
306.34
31
0
0
ARC
8
0
10
1198.09
20
302.7
30
0
40
5.09848
50
45.556252
51
45
0
LINE
8
0
10
1162.95
20
284.62
30
0
11
1165.9
21
284.62
31
0
0
LINE
8
0
10
1165.9
20
284.62
30
0
11
1165.9
21
282.85
31
0
0
LINE
8
0
10
1165.9
20
282.85
30
0
11
1154
21
282.85
31
0
0
LINE
8
0
10
1154
20
282.85
30
0
11
1154
21
286.5
31
0
0
LINE
8
0
10
1154
20
286.5
30
0
11
1165.9
21
286.5
31
0
0
LINE
8
0
10
1165.9
20
286.5
30
0
11
1165.9
21
284.68
31
0
0
LINE
8
0
10
1174.2
20
239.24
30
0
11
1175.58
21
240.61
31
0
0
ARC
8
0
10
1174.24
20
239.2
30
0
40
1.945174
50
46.458123
51
45
0
LINE
8
0
10
1162.95
20
200.75
30
0
11
1165.9
21
200.75
31
0
0
LINE
8
0
10
1165.9
20
200.75
30
0
11
1165.9
21
199
31
0
0
LINE
8
0
10
1165.9
20
199
30
0
11
1154
21
199
31
0
0
LINE
8
0
10
1154
20
199
30
0
11
1154
21
202.6
31
0
0
LINE
8
0
10
1154
20
202.6
30
0
11
1165.9
21
202.6
31
0
0
LINE
8
0
10
1165.9
20
202.6
30
0
11
1165.9
21
200.8
31
0
0
ARC
8
0
10
1198.09
20
185.05
30
0
40
5.1
50
0
51
90
0
LINE
8
0
10
1203.19
20
185.05
30
0
11
1203.19
21
180.35
31
0
0
ARC
8
0
10
1198.09
20
180.35
30
0
40
5.1
50
180
51
0
0
LINE
8
0
10
1192.99
20
180.35
30
0
11
1192.99
21
185.05
31
0
0
ARC
8
0
10
1198.09
20
185.05
30
0
40
5.1
50
90
51
180
0
LINE
8
0
10
1130.12
20
246.55
30
0
11
1132.21
21
248.63
31
0
0
ARC
8
0
10
1129.05
20
245.4
30
0
40
4.518683
50
45.627628
51
45.089665
0
LINE
8
0
10
996
20
238.12
30
0
11
998.09
21
240.21
31
0
0
ARC
8
0
10
994.45
20
236.5
30
0
40
5.197471
50
45.545658
51
45
0
LINE
8
0
10
954.5
20
228
30
0
11
954.5
21
230.95
31
0
0
LINE
8
0
10
954.5
20
230.95
30
0
11
956.1
21
230.95
31
0
0
LINE
8
0
10
956.1
20
230.95
30
0
11
956.1
21
220.05
31
0
0
LINE
8
0
10
956.1
20
220.05
30
0
11
952.8
21
220.05
31
0
0
LINE
8
0
10
952.8
20
220.05
30
0
11
952.8
21
230.95
31
0
0
LINE
8
0
10
952.8
20
230.95
30
0
11
954.45
21
230.95
31
0
0
LINE
8
0
10
996
20
188.58
30
0
11
998.09
21
190.66
31
0
0
ARC
8
0
10
994.45
20
186.95
30
0
40
5.197471
50
45.545658
51
45.077953
0
LINE
8
0
10
954.4
20
287.1
30
0
11
954.4
21
290.05
31
0
0
LINE
8
0
10
954.4
20
290.05
30
0
11
952.8
21
290.05
31
0
0
LINE
8
0
10
952.8
20
290.05
30
0
11
952.8
21
279.15
31
0
0
LINE
8
0
10
952.8
20
279.15
30
0
11
956.1
21
279.15
31
0
0
LINE
8
0
10
956.1
20
279.15
30
0
11
956.1
21
290.05
31
0
0
LINE
8
0
10
956.1
20
290.05
30
0
11
954.45
21
290.05
31
0
0
LINE
8
0
10
842.8
20
287.1
30
0
11
842.8
21
290.05
31
0
0
LINE
8
0
10
842.8
20
290.05
30
0
11
841.2
21
290.05
31
0
0
LINE
8
0
10
841.2
20
290.05
30
0
11
841.2
21
279.15
31
0
0
LINE
8
0
10
841.2
20
279.15
30
0
11
844.5
21
279.15
31
0
0
LINE
8
0
10
844.5
20
279.15
30
0
11
844.5
21
290.05
31
0
0
LINE
8
0
10
844.5
20
290.05
30
0
11
842.85
21
290.05
31
0
0
LINE
8
0
10
842.9
20
228
30
0
11
842.9
21
230.95
31
0
0
LINE
8
0
10
842.9
20
230.95
30
0
11
844.5
21
230.95
31
0
0
LINE
8
0
10
844.5
20
230.95
30
0
11
844.5
21
220.05
31
0
0
LINE
8
0
10
844.5
20
220.05
30
0
11
841.2
21
220.05
31
0
0
LINE
8
0
10
841.2
20
220.05
30
0
11
841.2
21
230.95
31
0
0
LINE
8
0
10
841.2
20
230.95
30
0
11
842.85
21
230.95
31
0
0
LINE
8
0
10
804.4
20
238.12
30
0
11
806.49
21
240.21
31
0
0
ARC
8
0
10
802.85
20
236.5
30
0
40
5.197471
50
45.545658
51
45
0
LINE
8
0
10
762.9
20
228
30
0
11
762.9
21
230.95
31
0
0
LINE
8
0
10
762.9
20
230.95
30
0
11
764.5
21
230.95
31
0
0
LINE
8
0
10
764.5
20
230.95
30
0
11
764.5
21
220.05
31
0
0
LINE
8
0
10
764.5
20
220.05
30
0
11
761.2
21
220.05
31
0
0
LINE
8
0
10
761.2
20
220.05
30
0
11
761.2
21
230.95
31
0
0
LINE
8
0
10
761.2
20
230.95
30
0
11
762.85
21
230.95
31
0
0
LINE
8
0
10
804.4
20
188.58
30
0
11
806.49
21
190.66
31
0
0
ARC
8
0
10
802.85
20
186.95
30
0
40
5.197471
50
45.545658
51
45.077953
0
LINE
8
0
10
762.8
20
287.1
30
0
11
762.8
21
290.05
31
0
0
LINE
8
0
10
762.8
20
290.05
30
0
11
761.2
21
290.05
31
0
0
LINE
8
0
10
761.2
20
290.05
30
0
11
761.2
21
279.15
31
0
0
LINE
8
0
10
761.2
20
279.15
30
0
11
764.5
21
279.15
31
0
0
LINE
8
0
10
764.5
20
279.15
30
0
11
764.5
21
290.05
31
0
0
LINE
8
0
10
764.5
20
290.05
30
0
11
762.85
21
290.05
31
0
0
LINE
8
0
10
651.2
20
287.1
30
0
11
651.2
21
290.05
31
0
0
LINE
8
0
10
651.2
20
290.05
30
0
11
649.6
21
290.05
31
0
0
LINE
8
0
10
649.6
20
290.05
30
0
11
649.6
21
279.15
31
0
0
LINE
8
0
10
649.6
20
279.15
30
0
11
652.9
21
279.15
31
0
0
LINE
8
0
10
652.9
20
279.15
30
0
11
652.9
21
290.05
31
0
0
LINE
8
0
10
652.9
20
290.05
30
0
11
651.25
21
290.05
31
0
0
LINE
8
0
10
651.3
20
228
30
0
11
651.3
21
230.95
31
0
0
LINE
8
0
10
651.3
20
230.95
30
0
11
652.9
21
230.95
31
0
0
LINE
8
0
10
652.9
20
230.95
30
0
11
652.9
21
220.05
31
0
0
LINE
8
0
10
652.9
20
220.05
30
0
11
649.6
21
220.05
31
0
0
LINE
8
0
10
649.6
20
220.05
30
0
11
649.6
21
230.95
31
0
0
LINE
8
0
10
649.6
20
230.95
30
0
11
651.25
21
230.95
31
0
0
LINE
8
0
10
612.8
20
238.12
30
0
11
614.89
21
240.21
31
0
0
ARC
8
0
10
611.25
20
236.5
30
0
40
5.197471
50
45.545658
51
45
0
LINE
8
0
10
612.8
20
188.58
30
0
11
614.89
21
190.66
31
0
0
ARC
8
0
10
611.25
20
186.95
30
0
40
5.197471
50
45.545658
51
45.077953
0
LINE
8
0
10
571.3
20
228
30
0
11
571.3
21
230.95
31
0
0
LINE
8
0
10
571.3
20
230.95
30
0
11
572.9
21
230.95
31
0
0
LINE
8
0
10
572.9
20
230.95
30
0
11
572.9
21
220.05
31
0
0
LINE
8
0
10
572.9
20
220.05
30
0
11
569.6
21
220.05
31
0
0
LINE
8
0
10
569.6
20
220.05
30
0
11
569.6
21
230.95
31
0
0
LINE
8
0
10
569.6
20
230.95
30
0
11
571.25
21
230.95
31
0
0
LINE
8
0
10
571.2
20
287.1
30
0
11
571.2
21
290.05
31
0
0
LINE
8
0
10
571.2
20
290.05
30
0
11
569.6
21
290.05
31
0
0
LINE
8
0
10
569.6
20
290.05
30
0
11
569.6
21
279.15
31
0
0
LINE
8
0
10
569.6
20
279.15
30
0
11
572.9
21
279.15
31
0
0
LINE
8
0
10
572.9
20
279.15
30
0
11
572.9
21
290.05
31
0
0
LINE
8
0
10
572.9
20
290.05
30
0
11
571.25
21
290.05
31
0
0
LINE
8
0
10
459.6
20
287.1
30
0
11
459.6
21
290.05
31
0
0
LINE
8
0
10
459.6
20
290.05
30
0
11
458
21
290.05
31
0
0
LINE
8
0
10
458
20
290.05
30
0
11
458
21
279.15
31
0
0
LINE
8
0
10
458
20
279.15
30
0
11
461.3
21
279.15
31
0
0
LINE
8
0
10
461.3
20
279.15
30
0
11
461.3
21
290.05
31
0
0
LINE
8
0
10
461.3
20
290.05
30
0
11
459.65
21
290.05
31
0
0
LINE
8
0
10
459.7
20
228
30
0
11
459.7
21
230.95
31
0
0
LINE
8
0
10
459.7
20
230.95
30
0
11
461.3
21
230.95
31
0
0
LINE
8
0
10
461.3
20
230.95
30
0
11
461.3
21
220.05
31
0
0
LINE
8
0
10
461.3
20
220.05
30
0
11
458
21
220.05
31
0
0
LINE
8
0
10
458
20
220.05
30
0
11
458
21
230.95
31
0
0
LINE
8
0
10
458
20
230.95
30
0
11
459.65
21
230.95
31
0
0
LINE
8
0
10
421.2
20
238.12
30
0
11
423.29
21
240.21
31
0
0
ARC
8
0
10
419.65
20
236.5
30
0
40
5.197471
50
45.545658
51
45
0
LINE
8
0
10
421.2
20
188.58
30
0
11
423.29
21
190.66
31
0
0
ARC
8
0
10
419.65
20
186.95
30
0
40
5.197471
50
45.545658
51
45.077953
0
LINE
8
0
10
379.6
20
228
30
0
11
379.6
21
230.95
31
0
0
LINE
8
0
10
379.6
20
230.95
30
0
11
378
21
230.95
31
0
0
LINE
8
0
10
378
20
230.95
30
0
11
378
21
220.05
31
0
0
LINE
8
0
10
378
20
220.05
30
0
11
381.3
21
220.05
31
0
0
LINE
8
0
10
381.3
20
220.05
30
0
11
381.3
21
230.95
31
0
0
LINE
8
0
10
381.3
20
230.95
30
0
11
379.65
21
230.95
31
0
0
LINE
8
0
10
379.7
20
287.1
30
0
11
379.7
21
290.05
31
0
0
LINE
8
0
10
379.7
20
290.05
30
0
11
381.3
21
290.05
31
0
0
LINE
8
0
10
381.3
20
290.05
30
0
11
381.3
21
279.15
31
0
0
LINE
8
0
10
381.3
20
279.15
30
0
11
378
21
279.15
31
0
0
LINE
8
0
10
378
20
279.15
30
0
11
378
21
290.05
31
0
0
LINE
8
0
10
378
20
290.05
30
0
11
379.65
21
290.05
31
0
0
LINE
8
0
10
268.1
20
287.1
30
0
11
268.1
21
290.05
31
0
0
LINE
8
0
10
268.1
20
290.05
30
0
11
269.7
21
290.05
31
0
0
LINE
8
0
10
269.7
20
290.05
30
0
11
269.7
21
279.15
31
0
0
LINE
8
0
10
269.7
20
279.15
30
0
11
266.4
21
279.15
31
0
0
LINE
8
0
10
266.4
20
279.15
30
0
11
266.4
21
290.05
31
0
0
LINE
8
0
10
266.4
20
290.05
30
0
11
268.05
21
290.05
31
0
0
LINE
8
0
10
268
20
228
30
0
11
268
21
230.95
31
0
0
LINE
8
0
10
268
20
230.95
30
0
11
266.4
21
230.95
31
0
0
LINE
8
0
10
266.4
20
230.95
30
0
11
266.4
21
220.05
31
0
0
LINE
8
0
10
266.4
20
220.05
30
0
11
269.7
21
220.05
31
0
0
LINE
8
0
10
269.7
20
220.05
30
0
11
269.7
21
230.95
31
0
0
LINE
8
0
10
269.7
20
230.95
30
0
11
268.05
21
230.95
31
0
0
LINE
8
0
10
229.6
20
238.12
30
0
11
231.69
21
240.21
31
0
0
ARC
8
0
10
228.05
20
236.5
30
0
40
5.197471
50
45.545658
51
45
0
LINE
8
0
10
229.6
20
188.58
30
0
11
231.69
21
190.66
31
0
0
ARC
8
0
10
228.05
20
186.95
30
0
40
5.197471
50
45.545658
51
45.077953
0
ARC
8
0
10
24.4
20
185.05
30
0
40
5.1
50
0
51
90
0
LINE
8
0
10
29.5
20
185.05
30
0
11
29.5
21
180.35
31
0
0
ARC
8
0
10
24.4
20
180.35
30
0
40
5.1
50
180
51
0
0
LINE
8
0
10
19.3
20
180.35
30
0
11
19.3
21
185.05
31
0
0
ARC
8
0
10
24.4
20
185.05
30
0
40
5.1
50
90
51
180
0
LINE
8
0
10
65.55
20
200.85
30
0
11
68.5
21
200.85
31
0
0
LINE
8
0
10
68.5
20
200.85
30
0
11
68.5
21
202.6
31
0
0
LINE
8
0
10
68.5
20
202.6
30
0
11
56.6
21
202.6
31
0
0
LINE
8
0
10
56.6
20
202.6
30
0
11
56.6
21
199
31
0
0
LINE
8
0
10
56.6
20
199
30
0
11
68.5
21
199
31
0
0
LINE
8
0
10
68.5
20
199
30
0
11
68.5
21
200.8
31
0
0
LINE
8
0
10
94.52
20
246.55
30
0
11
96.61
21
248.63
31
0
0
ARC
8
0
10
93.45
20
245.4
30
0
40
4.518683
50
45.627628
51
45.089665
0
LINE
8
0
10
48.21
20
239.24
30
0
11
49.59
21
240.61
31
0
0
ARC
8
0
10
48.25
20
239.2
30
0
40
1.945174
50
46.458123
51
45
0
LINE
8
0
10
65.55
20
284.72
30
0
11
68.5
21
284.72
31
0
0
LINE
8
0
10
68.5
20
284.72
30
0
11
68.5
21
286.5
31
0
0
LINE
8
0
10
68.5
20
286.5
30
0
11
56.6
21
286.5
31
0
0
LINE
8
0
10
56.6
20
286.5
30
0
11
56.6
21
282.85
31
0
0
LINE
8
0
10
56.6
20
282.85
30
0
11
68.5
21
282.85
31
0
0
LINE
8
0
10
68.5
20
282.85
30
0
11
68.5
21
284.68
31
0
0
LINE
8
0
10
25.88
20
304.26
30
0
11
27.97
21
306.34
31
0
0
ARC
8
0
10
24.4
20
302.7
30
0
40
5.09848
50
45.556252
51
45
0
LINE
8
0
10
137.65
20
199.15
30
0
11
134.65
21
199.15
31
0
0
LINE
8
0
10
134.65
20
199.15
30
0
11
98.62
21
199.15
31
0
0
ARC
8
0
10
98.62
20
194.2
30
0
40
4.95
50
90
51
135
0
LINE
8
0
10
95.12
20
197.7
30
0
11
68.04
21
170.63
31
0
0
ARC
8
0
10
64.47
20
174.2
30
0
40
5.048742
50
270
51
315
0
LINE
8
0
10
64.47
20
169.15
30
0
11
19
21
169.15
31
0
0
ARC
8
0
10
19
20
174.2
30
0
40
5.05
50
180
51
270
0
LINE
8
0
10
13.95
20
174.2
30
0
11
13.95
21
311.2
31
0
0
ARC
8
0
10
19
20
311.2
30
0
40
5.05
50
90
51
180
0
LINE
8
0
10
19
20
316.25
30
0
11
64.47
21
316.25
31
0
0
ARC
8
0
10
64.47
20
311.2
30
0
40
5.05
50
45
51
90
0
LINE
8
0
10
68.04
20
314.77
30
0
11
95.12
21
287.7
31
0
0
ARC
8
0
10
98.62
20
291.2
30
0
40
4.949747
50
225
51
270
0
LINE
8
0
10
98.62
20
286.25
30
0
11
129.2
21
286.25
31
0
0
LINE
8
0
10
129.2
20
286.25
30
0
11
129.2
21
282.85
31
0
0
LINE
8
0
10
129.2
20
282.85
30
0
11
141.1
21
282.85
31
0
0
LINE
8
0
10
141.1
20
282.85
30
0
11
141.1
21
286.25
31
0
0
LINE
8
0
10
141.1
20
286.25
30
0
11
158.2
21
286.25
31
0
0
LINE
8
0
10
158.2
20
286.25
30
0
11
158.2
21
270.37
31
0
0
ARC
8
0
10
160.15
20
270.37
30
0
40
1.95
50
180
51
252.768178
0
LINE
8
0
10
159.57
20
268.5
30
0
11
207.35
21
253.9
31
0
0
ARC
8
0
10
207.05
20
252.89
30
0
40
1.053613
50
360
51
73.457017
0
LINE
8
0
10
208.1
20
252.89
30
0
11
208.1
21
249.36
31
0
0
ARC
8
0
10
211.05
20
249.36
30
0
40
2.95
50
180
51
64.043531
0
ARC
8
0
10
213.24
20
253.85
30
0
40
2.048316
50
180.838415
51
243.935336
0
LINE
8
0
10
211.19
20
253.82
30
0
11
211
21
265.05
31
0
0
LINE
8
0
10
211
20
265.05
30
0
11
211
21
323.58
31
0
0
LINE
8
0
10
211
20
323.58
30
0
11
223.05
21
323.58
31
0
0
LINE
8
0
10
223.05
20
323.58
30
0
11
223.05
21
320.43
31
0
0
LINE
8
0
10
223.05
20
320.43
30
0
11
226.05
21
320.43
31
0
0
LINE
8
0
10
226.05
20
320.43
30
0
11
226.05
21
323.58
31
0
0
LINE
8
0
10
226.05
20
323.58
30
0
11
996.45
21
323.58
31
0
0
LINE
8
0
10
996.45
20
323.58
30
0
11
996.45
21
320.43
31
0
0
LINE
8
0
10
996.45
20
320.43
30
0
11
999.45
21
320.43
31
0
0
LINE
8
0
10
999.45
20
320.43
30
0
11
999.45
21
323.58
31
0
0
LINE
8
0
10
999.45
20
323.58
30
0
11
1011
21
323.58
31
0
0
LINE
8
0
10
1011
20
323.58
30
0
11
1011
21
265.05
31
0
0
LINE
8
0
10
1011
20
265.05
30
0
11
1010.8
21
253.53
31
0
0
ARC
8
0
10
1008.75
20
253.57
30
0
40
2.05039
50
302.449757
51
358.882175
0
ARC
8
0
10
1011.45
20
249.36
30
0
40
2.951339
50
122.828542
51
0
0
LINE
8
0
10
1014.4
20
249.36
30
0
11
1014.4
21
252.89
31
0
0
ARC
8
0
10
1015.45
20
252.89
30
0
40
1.05
50
107.062857
51
180
0
LINE
8
0
10
1015.14
20
253.9
30
0
11
1062.92
21
268.5
31
0
0
ARC
8
0
10
1062.35
20
270.37
30
0
40
1.954942
50
286.951894
51
0
0
LINE
8
0
10
1064.3
20
270.37
30
0
11
1064.3
21
286.25
31
0
0
LINE
8
0
10
1064.3
20
286.25
30
0
11
1081.4
21
286.25
31
0
0
LINE
8
0
10
1081.4
20
286.25
30
0
11
1081.4
21
282.85
31
0
0
LINE
8
0
10
1081.4
20
282.85
30
0
11
1093.3
21
282.85
31
0
0
LINE
8
0
10
1093.3
20
282.85
30
0
11
1093.3
21
286.25
31
0
0
LINE
8
0
10
1093.3
20
286.25
30
0
11
1123.87
21
286.25
31
0
0
ARC
8
0
10
1123.87
20
291.2
30
0
40
4.95
50
270
51
315
0
LINE
8
0
10
1127.37
20
287.7
30
0
11
1154.45
21
314.77
31
0
0
ARC
8
0
10
1158.02
20
311.2
30
0
40
5.048742
50
90
51
135
0
LINE
8
0
10
1158.02
20
316.25
30
0
11
1203.49
21
316.25
31
0
0
ARC
8
0
10
1203.49
20
311.2
30
0
40
5.05
50
0
51
90
0
LINE
8
0
10
1208.54
20
311.2
30
0
11
1208.54
21
174.2
31
0
0
ARC
8
0
10
1203.49
20
174.2
30
0
40
5.05
50
270
51
0
0
LINE
8
0
10
1203.49
20
169.15
30
0
11
1158.02
21
169.15
31
0
0
ARC
8
0
10
1158.02
20
174.2
30
0
40
5.05
50
225
51
270
0
LINE
8
0
10
1154.45
20
170.63
30
0
11
1127.37
21
197.7
31
0
0
ARC
8
0
10
1123.87
20
194.2
30
0
40
4.949747
50
45
51
90
0
LINE
8
0
10
1123.87
20
199.15
30
0
11
1087.8
21
199.15
31
0
0
LINE
8
0
10
1087.8
20
199.15
30
0
11
1087.8
21
202.6
31
0
0
LINE
8
0
10
1087.8
20
202.6
30
0
11
1075.9
21
202.6
31
0
0
LINE
8
0
10
1075.9
20
202.6
30
0
11
1075.9
21
199.15
31
0
0
LINE
8
0
10
1075.9
20
199.15
30
0
11
1015.45
21
199.15
31
0
0
ARC
8
0
10
1015.45
20
200.2
30
0
40
1.05
50
180
51
270
0
LINE
8
0
10
1014.4
20
200.2
30
0
11
1014.4
21
202.45
31
0
0
ARC
8
0
10
1011.45
20
202.45
30
0
40
2.95
50
0
51
237.439562
0
ARC
8
0
10
1008.75
20
198.24
30
0
40
2.047071
50
0.838415
51
57.163871
0
LINE
8
0
10
1010.8
20
198.27
30
0
11
1011
21
187.2
31
0
0
LINE
8
0
10
1011
20
187.2
30
0
11
1011
21
166.75
31
0
0
LINE
8
0
10
1011
20
166.75
30
0
11
211
21
166.75
31
0
0
LINE
8
0
10
211
20
166.75
30
0
11
211
21
187.2
31
0
0
LINE
8
0
10
211
20
187.2
30
0
11
211.18
21
197.99
31
0
0
ARC
8
0
10
213.23
20
197.95
30
0
40
2.05039
50
115.691327
51
178.882175
0
ARC
8
0
10
211.05
20
202.45
30
0
40
2.947304
50
295.956469
51
180
0
LINE
8
0
10
208.1
20
202.45
30
0
11
208.1
21
200.2
31
0
0
ARC
8
0
10
207.05
20
200.2
30
0
40
1.05
50
270
51
0
0
LINE
8
0
10
207.05
20
199.15
30
0
11
146.6
21
199.15
31
0
0
LINE
8
0
10
146.6
20
199.15
30
0
11
146.6
21
202.6
31
0
0
LINE
8
0
10
146.6
20
202.6
30
0
11
134.7
21
202.6
31
0
0
LINE
8
0
10
134.7
20
202.6
30
0
11
134.7
21
199.2
31
0
0
ENDSEC
0
EOF
