0
SECTION
2
HEADER
9
$ACADVER
1
AC1009
0
ENDSEC
0
SECTION
2
ENTITIES
0
LINE
8
0
10
292
20
101.33
30
0
11
284
21
105.9
31
0
0
LINE
8
0
10
284
20
105.9
30
0
11
284
21
100.19
31
0
0
LINE
8
0
10
288.57
20
101.33
30
0
11
288.57
21
104.76
31
0
0
LINE
8
0
10
288.57
20
106.62
30
0
11
288.57
21
111.19
31
0
0
LINE
8
0
10
288.57
20
111.19
30
0
11
289.71
21
112.33
31
0
0
LINE
8
0
10
289.71
20
112.33
30
0
11
290.86
21
112.33
31
0
0
LINE
8
0
10
290.86
20
112.33
30
0
11
292
21
111.19
31
0
0
LINE
8
0
10
292
20
111.19
30
0
11
292
21
107.76
31
0
0
LINE
8
0
10
292
20
107.76
30
0
11
290.86
21
106.62
31
0
0
LINE
8
0
10
290.86
20
106.62
30
0
11
285.14
21
106.62
31
0
0
LINE
8
0
10
285.14
20
106.62
30
0
11
284
21
107.76
31
0
0
LINE
8
0
10
284
20
107.76
30
0
11
284
21
111.19
31
0
0
LINE
8
0
10
290.86
20
99.48
30
0
11
292
21
98.33
31
0
0
LINE
8
0
10
292
20
98.33
30
0
11
292
21
93.76
31
0
0
LINE
8
0
10
292
20
93.76
30
0
11
289.71
21
93.76
31
0
0
LINE
8
0
10
289.71
20
93.76
30
0
11
288.57
21
94.9
31
0
0
LINE
8
0
10
288.57
20
94.9
30
0
11
288.57
21
98.33
31
0
0
LINE
8
0
10
288.57
20
98.33
30
0
11
287.43
21
99.48
31
0
0
LINE
8
0
10
287.43
20
99.48
30
0
11
285.14
21
99.48
31
0
0
LINE
8
0
10
285.14
20
99.48
30
0
11
284
21
98.33
31
0
0
LINE
8
0
10
284
20
98.33
30
0
11
284
21
94.9
31
0
0
LINE
8
0
10
284
20
94.9
30
0
11
285.14
21
93.76
31
0
0
LINE
8
0
10
291.4
20
240
30
0
11
317.4
21
240
31
0
0
LINE
8
0
10
317.4
20
240
30
0
11
317.4
21
319
31
0
0
LINE
8
0
10
317.4
20
319
30
0
11
291.4
21
319
31
0
0
LINE
8
0
10
291.4
20
599
30
0
11
317.4
21
599
31
0
0
LINE
8
0
10
317.4
20
599
30
0
11
317.4
21
678
31
0
0
LINE
8
0
10
317.4
20
678
30
0
11
291.4
21
678
31
0
0
LINE
8
0
10
291.4
20
958
30
0
11
317.4
21
958
31
0
0
LINE
8
0
10
317.4
20
958
30
0
11
317.4
21
1037
31
0
0
LINE
8
0
10
317.4
20
1037
30
0
11
291.4
21
1037
31
0
0
LINE
8
0
10
291.4
20
1317
30
0
11
317.4
21
1317
31
0
0
LINE
8
0
10
317.4
20
1317
30
0
11
317.4
21
1396
31
0
0
LINE
8
0
10
317.4
20
1396
30
0
11
291.4
21
1396
31
0
0
LINE
8
0
10
291.4
20
1676
30
0
11
317.4
21
1676
31
0
0
LINE
8
0
10
317.4
20
1676
30
0
11
317.4
21
1755
31
0
0
LINE
8
0
10
317.4
20
1755
30
0
11
291.4
21
1755
31
0
0
ARC
8
0
10
369.7
20
1729
30
0
40
6.95
50
0
51
90
0
LINE
8
0
10
376.65
20
1729
30
0
11
376.65
21
1719
31
0
0
ARC
8
0
10
369.7
20
1719
30
0
40
6.95
50
180
51
0
0
LINE
8
0
10
362.75
20
1719
30
0
11
362.75
21
1729
31
0
0
ARC
8
0
10
369.7
20
1729
30
0
40
6.95
50
90
51
180
0
LINE
8
0
10
389.16
20
1809.96
30
0
11
387.32
21
1811.8
31
0
0
ARC
8
0
10
389.2
20
1810
30
0
40
2.602768
50
136.245364
51
135
0
LINE
8
0
10
382.66
20
1853.96
30
0
11
380.75
21
1855.87
31
0
0
ARC
8
0
10
382.7
20
1854
30
0
40
2.70174
50
136.199736
51
135
0
LINE
8
0
10
382.66
20
1873.96
30
0
11
380.75
21
1875.87
31
0
0
ARC
8
0
10
382.7
20
1874
30
0
40
2.70174
50
136.199736
51
135
0
LINE
8
0
10
357.66
20
1873.96
30
0
11
355.75
21
1875.87
31
0
0
ARC
8
0
10
357.7
20
1874
30
0
40
2.70174
50
136.199736
51
135
0
LINE
8
0
10
381.16
20
1658.52
30
0
11
379.25
21
1660.43
31
0
0
ARC
8
0
10
381.2
20
1658.56
30
0
40
2.70174
50
136.199736
51
135
0
LINE
8
0
10
389.16
20
1648.02
30
0
11
387.25
21
1649.93
31
0
0
ARC
8
0
10
389.2
20
1648.06
30
0
40
2.70174
50
136.199736
51
135
0
LINE
8
0
10
381.66
20
1587.06
30
0
11
379.75
21
1588.97
31
0
0
ARC
8
0
10
381.7
20
1587.09
30
0
40
2.708671
50
136.047065
51
135
0
LINE
8
0
10
392.16
20
1576.56
30
0
11
390.25
21
1578.47
31
0
0
ARC
8
0
10
392.2
20
1576.59
30
0
40
2.708671
50
136.047065
51
135
0
LINE
8
0
10
388.66
20
1384.46
30
0
11
386.75
21
1386.37
31
0
0
ARC
8
0
10
388.7
20
1384.5
30
0
40
2.70174
50
136.199736
51
135
0
LINE
8
0
10
388.66
20
1364.46
30
0
11
386.75
21
1366.37
31
0
0
ARC
8
0
10
388.7
20
1364.5
30
0
40
2.70174
50
136.199736
51
135
0
LINE
8
0
10
363.66
20
1364.46
30
0
11
361.75
21
1366.37
31
0
0
ARC
8
0
10
363.7
20
1364.5
30
0
40
2.70174
50
136.199736
51
135
0
ARC
8
0
10
369.7
20
1239
30
0
40
6.95
50
90
51
180
0
LINE
8
0
10
362.75
20
1239
30
0
11
362.75
21
1229
31
0
0
ARC
8
0
10
369.7
20
1229
30
0
40
6.95
50
180
51
0
0
LINE
8
0
10
376.65
20
1229
30
0
11
376.65
21
1239
31
0
0
ARC
8
0
10
369.7
20
1239
30
0
40
6.95
50
0
51
90
0
LINE
8
0
10
389.16
20
986.96
30
0
11
387.32
21
988.8
31
0
0
ARC
8
0
10
389.2
20
987
30
0
40
2.602768
50
136.245364
51
135
0
ARC
8
0
10
369.7
20
749
30
0
40
6.95
50
90
51
180
0
LINE
8
0
10
362.75
20
749
30
0
11
362.75
21
739
31
0
0
ARC
8
0
10
369.7
20
739
30
0
40
6.95
50
180
51
0
0
LINE
8
0
10
376.65
20
739
30
0
11
376.65
21
749
31
0
0
ARC
8
0
10
369.7
20
749
30
0
40
6.95
50
0
51
90
0
ARC
8
0
10
369.7
20
259
30
0
40
6.95
50
0
51
90
0
LINE
8
0
10
376.65
20
259
30
0
11
376.65
21
249
31
0
0
ARC
8
0
10
369.7
20
249
30
0
40
6.95
50
180
51
0
0
LINE
8
0
10
362.75
20
249
30
0
11
362.75
21
259
31
0
0
ARC
8
0
10
369.7
20
259
30
0
40
6.95
50
90
51
180
0
LINE
8
0
10
389.16
20
163.96
30
0
11
387.32
21
165.8
31
0
0
ARC
8
0
10
389.2
20
164
30
0
40
2.602768
50
136.245364
51
135
0
LINE
8
0
10
382.66
20
119.96
30
0
11
380.75
21
121.87
31
0
0
ARC
8
0
10
382.7
20
120
30
0
40
2.70174
50
136.199736
51
135
0
LINE
8
0
10
382.66
20
99.96
30
0
11
380.75
21
101.87
31
0
0
ARC
8
0
10
382.7
20
100
30
0
40
2.70174
50
136.199736
51
135
0
LINE
8
0
10
357.66
20
119.96
30
0
11
355.75
21
121.87
31
0
0
ARC
8
0
10
357.7
20
120
30
0
40
2.70174
50
136.199736
51
135
0
LINE
8
0
10
271.4
20
83.95
30
0
11
274.4
21
83.95
31
0
0
LINE
8
0
10
274.4
20
83.95
30
0
11
397.7
21
83.95
31
0
0
ARC
8
0
10
397.7
20
89
30
0
40
5.05
50
270
51
0
0
LINE
8
0
10
402.75
20
89
30
0
11
402.75
21
1885
31
0
0
ARC
8
0
10
397.7
20
1885
30
0
40
5.05
50
0
51
90
0
LINE
8
0
10
397.7
20
1890.05
30
0
11
274.35
21
1890.05
31
0
0
LINE
8
0
10
274.35
20
1890.05
30
0
11
274.35
21
1846.02
31
0
0
LINE
8
0
10
274.35
20
1846.02
30
0
11
271.21
21
1842.89
31
0
0
LINE
8
0
10
271.21
20
1842.89
30
0
11
269.39
21
1841.08
31
0
0
LINE
8
0
10
269.39
20
1841.08
30
0
11
269.1
21
1841.05
31
0
0
LINE
8
0
10
269.1
20
1841.05
30
0
11
239.12
21
1841.05
31
0
0
LINE
8
0
10
239.12
20
1841.05
30
0
11
235.04
21
1844.73
31
0
0
LINE
8
0
10
235.04
20
1844.73
30
0
11
234.84
21
1845.04
31
0
0
LINE
8
0
10
234.84
20
1845.04
30
0
11
233.39
21
1846.48
31
0
0
LINE
8
0
10
233.39
20
1846.48
30
0
11
233.04
21
1846.12
31
0
0
LINE
8
0
10
233.04
20
1846.12
30
0
11
229.58
21
1849.59
31
0
0
LINE
8
0
10
229.58
20
1849.59
30
0
11
229.93
21
1849.94
31
0
0
LINE
8
0
10
229.93
20
1849.94
30
0
11
228.44
21
1851.43
31
0
0
ARC
8
0
10
263.8
20
1816
30
0
40
50.056114
50
134.943344
51
180
0
LINE
8
0
10
213.75
20
1816
30
0
11
213.75
21
207
31
0
0
ARC
8
0
10
263.8
20
207
30
0
40
50.05
50
180
51
225.056656
0
LINE
8
0
10
228.44
20
171.57
30
0
11
229.93
21
173.06
31
0
0
LINE
8
0
10
229.93
20
173.06
30
0
11
229.58
21
173.41
31
0
0
LINE
8
0
10
229.58
20
173.41
30
0
11
233.04
21
176.88
31
0
0
LINE
8
0
10
233.04
20
176.88
30
0
11
233.39
21
176.52
31
0
0
LINE
8
0
10
233.39
20
176.52
30
0
11
236.99
21
180.11
31
0
0
LINE
8
0
10
236.99
20
180.11
30
0
11
238.8
21
181.92
31
0
0
LINE
8
0
10
238.8
20
181.92
30
0
11
239.1
21
181.95
31
0
0
LINE
8
0
10
239.1
20
181.95
30
0
11
269.08
21
181.95
31
0
0
LINE
8
0
10
269.08
20
181.95
30
0
11
273.16
21
178.27
31
0
0
LINE
8
0
10
273.16
20
178.27
30
0
11
273.36
21
177.96
31
0
0
LINE
8
0
10
273.36
20
177.96
30
0
11
274.35
21
176.98
31
0
0
LINE
8
0
10
274.35
20
176.98
30
0
11
274.35
21
84
31
0
0
ENDSEC
0
EOF
