0
SECTION
2
HEADER
9
$ACADVER
1
AC1009
0
ENDSEC
0
SECTION
2
ENTITIES
0
LINE
8
0
10
936.75
20
1891.42
30
0
11
940.69
21
1891.42
31
0
0
ARC
8
0
10
880.5
20
1891.36
30
0
40
60.19003
50
0.057115
51
360
0
LINE
8
0
10
1148.5
20
1896.91
30
0
11
1153.44
21
1896.91
31
0
0
LINE
8
0
10
1153.44
20
1896.91
30
0
11
1153.44
21
1917.3
31
0
0
LINE
8
0
10
1153.44
20
1917.3
30
0
11
1133.5
21
1917.3
31
0
0
ARC
8
0
10
1133.5
20
1922.36
30
0
40
5.06
50
180
51
270
0
LINE
8
0
10
1128.44
20
1922.36
30
0
11
1128.44
21
1942.3
31
0
0
LINE
8
0
10
1128.44
20
1942.3
30
0
11
1033.56
21
1942.3
31
0
0
LINE
8
0
10
1033.56
20
1942.3
30
0
11
1033.56
21
1932.36
31
0
0
ARC
8
0
10
1028.5
20
1932.36
30
0
40
5.06
50
270
51
0
0
LINE
8
0
10
1028.5
20
1927.3
30
0
11
1008.56
21
1927.3
31
0
0
LINE
8
0
10
1008.56
20
1927.3
30
0
11
1008.56
21
1897.39
31
0
0
LINE
8
0
10
1008.56
20
1897.39
30
0
11
1076.44
21
1843.04
31
0
0
ARC
8
0
10
1080.78
20
1848.46
30
0
40
6.943486
50
231.314418
51
293.426169
0
LINE
8
0
10
1083.54
20
1842.09
30
0
11
1153.44
21
1872.4
31
0
0
LINE
8
0
10
1153.44
20
1872.4
30
0
11
1153.44
21
1896.1
31
0
0
LINE
8
0
10
1148.5
20
2057.87
30
0
11
1153.44
21
2057.87
31
0
0
LINE
8
0
10
1153.44
20
2057.87
30
0
11
1153.44
21
2077.3
31
0
0
LINE
8
0
10
1153.44
20
2077.3
30
0
11
1133.5
21
2077.3
31
0
0
ARC
8
0
10
1133.5
20
2082.36
30
0
40
5.06
50
180
51
270
0
LINE
8
0
10
1128.44
20
2082.36
30
0
11
1128.44
21
2102.3
31
0
0
LINE
8
0
10
1128.44
20
2102.3
30
0
11
1033.56
21
2102.3
31
0
0
LINE
8
0
10
1033.56
20
2102.3
30
0
11
1033.56
21
2092.36
31
0
0
ARC
8
0
10
1028.5
20
2092.36
30
0
40
5.06
50
270
51
0
0
LINE
8
0
10
1028.5
20
2087.3
30
0
11
1008.56
21
2087.3
31
0
0
LINE
8
0
10
1008.56
20
2087.3
30
0
11
1008.56
21
2057.39
31
0
0
LINE
8
0
10
1008.56
20
2057.39
30
0
11
1076.44
21
2003.04
31
0
0
ARC
8
0
10
1080.78
20
2008.46
30
0
40
6.943486
50
231.314418
51
293.426169
0
LINE
8
0
10
1083.54
20
2002.09
30
0
11
1153.44
21
2032.4
31
0
0
LINE
8
0
10
1153.44
20
2032.4
30
0
11
1153.44
21
2057.06
31
0
0
LINE
8
0
10
1148.5
20
2223.33
30
0
11
1153.44
21
2223.33
31
0
0
LINE
8
0
10
1153.44
20
2223.33
30
0
11
1153.44
21
2203.42
31
0
0
LINE
8
0
10
1153.44
20
2203.42
30
0
11
1133.5
21
2203.42
31
0
0
ARC
8
0
10
1133.5
20
2198.36
30
0
40
5.06
50
90
51
180
0
LINE
8
0
10
1128.44
20
2198.36
30
0
11
1128.44
21
2178.42
31
0
0
LINE
8
0
10
1128.44
20
2178.42
30
0
11
1033.56
21
2178.42
31
0
0
LINE
8
0
10
1033.56
20
2178.42
30
0
11
1033.56
21
2188.36
31
0
0
ARC
8
0
10
1028.5
20
2188.36
30
0
40
5.06
50
0
51
90
0
LINE
8
0
10
1028.5
20
2193.42
30
0
11
1008.56
21
2193.42
31
0
0
LINE
8
0
10
1008.56
20
2193.42
30
0
11
1008.56
21
2223.33
31
0
0
LINE
8
0
10
1008.56
20
2223.33
30
0
11
1076.44
21
2277.67
31
0
0
ARC
8
0
10
1080.78
20
2272.26
30
0
40
6.935683
50
66.540976
51
128.737218
0
LINE
8
0
10
1083.54
20
2278.62
30
0
11
1153.44
21
2248.32
31
0
0
LINE
8
0
10
1153.44
20
2248.32
30
0
11
1153.44
21
2224.14
31
0
0
LINE
8
0
10
1148.5
20
2386.83
30
0
11
1153.44
21
2386.83
31
0
0
LINE
8
0
10
1153.44
20
2386.83
30
0
11
1153.44
21
2363.42
31
0
0
LINE
8
0
10
1153.44
20
2363.42
30
0
11
1133.5
21
2363.42
31
0
0
ARC
8
0
10
1133.5
20
2358.36
30
0
40
5.06
50
90
51
180
0
LINE
8
0
10
1128.44
20
2358.36
30
0
11
1128.44
21
2338.42
31
0
0
LINE
8
0
10
1128.44
20
2338.42
30
0
11
1033.56
21
2338.42
31
0
0
LINE
8
0
10
1033.56
20
2338.42
30
0
11
1033.56
21
2348.36
31
0
0
ARC
8
0
10
1028.5
20
2348.36
30
0
40
5.06
50
0
51
90
0
LINE
8
0
10
1028.5
20
2353.42
30
0
11
1008.56
21
2353.42
31
0
0
LINE
8
0
10
1008.56
20
2353.42
30
0
11
1008.56
21
2383.33
31
0
0
LINE
8
0
10
1008.56
20
2383.33
30
0
11
1076.44
21
2437.67
31
0
0
ARC
8
0
10
1080.78
20
2432.26
30
0
40
6.935683
50
66.540976
51
128.737218
0
LINE
8
0
10
1083.54
20
2438.62
30
0
11
1153.44
21
2408.32
31
0
0
LINE
8
0
10
1153.44
20
2408.32
30
0
11
1153.44
21
2387.64
31
0
0
LINE
8
0
10
235.5
20
2369.26
30
0
11
240.44
21
2369.26
31
0
0
LINE
8
0
10
240.44
20
2369.26
30
0
11
240.44
21
2353.42
31
0
0
LINE
8
0
10
240.44
20
2353.42
30
0
11
220.5
21
2353.42
31
0
0
ARC
8
0
10
220.5
20
2348.36
30
0
40
5.06
50
90
51
180
0
LINE
8
0
10
215.44
20
2348.36
30
0
11
215.44
21
2338.42
31
0
0
LINE
8
0
10
215.44
20
2338.42
30
0
11
120.56
21
2338.42
31
0
0
LINE
8
0
10
120.56
20
2338.42
30
0
11
120.56
21
2358.36
31
0
0
ARC
8
0
10
115.5
20
2358.36
30
0
40
5.06
50
0
51
90
0
LINE
8
0
10
115.5
20
2363.42
30
0
11
95.56
21
2363.42
31
0
0
LINE
8
0
10
95.56
20
2363.42
30
0
11
95.56
21
2408.32
31
0
0
LINE
8
0
10
95.56
20
2408.32
30
0
11
165.45
21
2438.62
31
0
0
ARC
8
0
10
168.21
20
2432.26
30
0
40
6.933051
50
51.262782
51
113.459024
0
LINE
8
0
10
172.55
20
2437.67
30
0
11
240.44
21
2383.33
31
0
0
LINE
8
0
10
240.44
20
2383.33
30
0
11
240.44
21
2370.07
31
0
0
LINE
8
0
10
235.5
20
2209.69
30
0
11
240.44
21
2209.69
31
0
0
LINE
8
0
10
240.44
20
2209.69
30
0
11
240.44
21
2223.33
31
0
0
LINE
8
0
10
240.44
20
2223.33
30
0
11
172.55
21
2277.67
31
0
0
ARC
8
0
10
168.21
20
2272.26
30
0
40
6.935683
50
51.262782
51
113.459024
0
LINE
8
0
10
165.45
20
2278.62
30
0
11
95.56
21
2248.32
31
0
0
LINE
8
0
10
95.56
20
2248.32
30
0
11
95.56
21
2203.42
31
0
0
LINE
8
0
10
95.56
20
2203.42
30
0
11
115.5
21
2203.42
31
0
0
ARC
8
0
10
115.5
20
2198.36
30
0
40
5.06
50
0
51
90
0
LINE
8
0
10
120.56
20
2198.36
30
0
11
120.56
21
2178.42
31
0
0
LINE
8
0
10
120.56
20
2178.42
30
0
11
215.44
21
2178.42
31
0
0
LINE
8
0
10
215.44
20
2178.42
30
0
11
215.44
21
2188.36
31
0
0
ARC
8
0
10
220.5
20
2188.36
30
0
40
5.06
50
90
51
180
0
LINE
8
0
10
220.5
20
2193.42
30
0
11
240.44
21
2193.42
31
0
0
LINE
8
0
10
240.44
20
2193.42
30
0
11
240.44
21
2208.88
31
0
0
LINE
8
0
10
235.5
20
2072.92
30
0
11
240.44
21
2072.92
31
0
0
LINE
8
0
10
240.44
20
2072.92
30
0
11
240.44
21
2087.3
31
0
0
LINE
8
0
10
240.44
20
2087.3
30
0
11
220.5
21
2087.3
31
0
0
ARC
8
0
10
220.5
20
2092.36
30
0
40
5.06
50
180
51
270
0
LINE
8
0
10
215.44
20
2092.36
30
0
11
215.44
21
2102.3
31
0
0
LINE
8
0
10
215.44
20
2102.3
30
0
11
120.56
21
2102.3
31
0
0
LINE
8
0
10
120.56
20
2102.3
30
0
11
120.56
21
2082.36
31
0
0
ARC
8
0
10
115.5
20
2082.36
30
0
40
5.06
50
270
51
0
0
LINE
8
0
10
115.5
20
2077.3
30
0
11
95.56
21
2077.3
31
0
0
LINE
8
0
10
95.56
20
2077.3
30
0
11
95.56
21
2032.4
31
0
0
LINE
8
0
10
95.56
20
2032.4
30
0
11
165.45
21
2002.09
31
0
0
ARC
8
0
10
168.21
20
2008.46
30
0
40
6.942226
50
246.573831
51
308.685582
0
LINE
8
0
10
172.55
20
2003.04
30
0
11
240.44
21
2057.39
31
0
0
LINE
8
0
10
240.44
20
2057.39
30
0
11
240.44
21
2072.11
31
0
0
LINE
8
0
10
235.5
20
1914.88
30
0
11
240.44
21
1914.88
31
0
0
LINE
8
0
10
240.44
20
1914.88
30
0
11
240.44
21
1927.3
31
0
0
LINE
8
0
10
240.44
20
1927.3
30
0
11
220.5
21
1927.3
31
0
0
ARC
8
0
10
220.5
20
1932.36
30
0
40
5.06
50
180
51
270
0
LINE
8
0
10
215.44
20
1932.36
30
0
11
215.44
21
1942.3
31
0
0
LINE
8
0
10
215.44
20
1942.3
30
0
11
120.56
21
1942.3
31
0
0
LINE
8
0
10
120.56
20
1942.3
30
0
11
120.56
21
1922.36
31
0
0
ARC
8
0
10
115.5
20
1922.36
30
0
40
5.06
50
270
51
0
0
LINE
8
0
10
115.5
20
1917.3
30
0
11
95.56
21
1917.3
31
0
0
LINE
8
0
10
95.56
20
1917.3
30
0
11
95.56
21
1872.4
31
0
0
LINE
8
0
10
95.56
20
1872.4
30
0
11
165.45
21
1842.09
31
0
0
ARC
8
0
10
168.21
20
1848.46
30
0
40
6.942226
50
246.573831
51
308.685582
0
LINE
8
0
10
172.55
20
1843.04
30
0
11
240.44
21
1897.39
31
0
0
LINE
8
0
10
240.44
20
1897.39
30
0
11
240.44
21
1914.07
31
0
0
LINE
8
0
10
8.78
20
1783.36
30
0
11
8.78
21
1787.36
31
0
0
LINE
8
0
10
8.78
20
1787.36
30
0
11
8.78
21
2493.42
31
0
0
LINE
8
0
10
8.78
20
2493.42
30
0
11
267.56
21
2493.42
31
0
0
LINE
8
0
10
267.56
20
2493.42
30
0
11
267.56
21
2489
31
0
0
LINE
8
0
10
267.56
20
2489
30
0
11
268.97
21
2490.42
31
0
0
LINE
8
0
10
268.97
20
2490.42
30
0
11
980.02
21
2490.42
31
0
0
LINE
8
0
10
980.02
20
2490.42
30
0
11
981.44
21
2489
31
0
0
LINE
8
0
10
981.44
20
2489
30
0
11
981.44
21
2493.42
31
0
0
LINE
8
0
10
981.44
20
2493.42
30
0
11
1240.21
21
2493.42
31
0
0
LINE
8
0
10
1240.21
20
2493.42
30
0
11
1240.21
21
1787.3
31
0
0
LINE
8
0
10
1240.21
20
1787.3
30
0
11
981.44
21
1787.3
31
0
0
LINE
8
0
10
981.44
20
1787.3
30
0
11
981.44
21
1791.71
31
0
0
LINE
8
0
10
981.44
20
1791.71
30
0
11
980.02
21
1790.3
31
0
0
LINE
8
0
10
980.02
20
1790.3
30
0
11
268.97
21
1790.3
31
0
0
LINE
8
0
10
268.97
20
1790.3
30
0
11
267.56
21
1791.71
31
0
0
LINE
8
0
10
267.56
20
1791.71
30
0
11
267.56
21
1787.3
31
0
0
LINE
8
0
10
267.56
20
1787.3
30
0
11
8.84
21
1787.3
31
0
0
ENDSEC
0
EOF
