0
SECTION
2
HEADER
9
$ACADVER
1
AC1009
0
ENDSEC
0
SECTION
2
ENTITIES
0
LINE
8
0
10
950.5
20
1453.8
30
0
11
944.5
21
1457.26
31
0
0
LINE
8
0
10
944.5
20
1457.26
30
0
11
944.5
21
1464.19
31
0
0
LINE
8
0
10
944.5
20
1464.19
30
0
11
950.5
21
1467.65
31
0
0
LINE
8
0
10
950.5
20
1467.65
30
0
11
956.5
21
1464.19
31
0
0
LINE
8
0
10
956.5
20
1464.19
30
0
11
956.5
21
1457.26
31
0
0
LINE
8
0
10
956.5
20
1457.26
30
0
11
950.5
21
1453.8
31
0
0
LINE
8
0
10
1044.5
20
1457.26
30
0
11
1044.5
21
1464.19
31
0
0
LINE
8
0
10
1044.5
20
1464.19
30
0
11
1050.5
21
1467.65
31
0
0
LINE
8
0
10
1050.5
20
1467.65
30
0
11
1056.5
21
1464.19
31
0
0
LINE
8
0
10
1056.5
20
1464.19
30
0
11
1056.5
21
1457.26
31
0
0
LINE
8
0
10
1056.5
20
1457.26
30
0
11
1050.5
21
1453.8
31
0
0
LINE
8
0
10
1050.5
20
1453.8
30
0
11
1044.5
21
1457.26
31
0
0
LINE
8
0
10
1119.5
20
1457.26
30
0
11
1119.5
21
1464.19
31
0
0
LINE
8
0
10
1119.5
20
1464.19
30
0
11
1125.5
21
1467.65
31
0
0
LINE
8
0
10
1125.5
20
1467.65
30
0
11
1131.5
21
1464.19
31
0
0
LINE
8
0
10
1131.5
20
1464.19
30
0
11
1131.5
21
1457.26
31
0
0
LINE
8
0
10
1131.5
20
1457.26
30
0
11
1125.5
21
1453.8
31
0
0
LINE
8
0
10
1125.5
20
1453.8
30
0
11
1119.5
21
1457.26
31
0
0
LINE
8
0
10
1125.63
20
1460.95
30
0
11
1129.13
21
1464.44
31
0
0
ARC
8
0
10
1125.5
20
1460.73
30
0
40
5.190472
50
45.624452
51
45
0
LINE
8
0
10
1164.3
20
1421.01
30
0
11
1167.09
21
1419.4
31
0
0
LINE
8
0
10
1167.09
20
1419.4
30
0
11
1167.09
21
1412.94
31
0
0
LINE
8
0
10
1167.09
20
1412.94
30
0
11
1161.5
21
1409.72
31
0
0
LINE
8
0
10
1161.5
20
1409.72
30
0
11
1155.91
21
1412.94
31
0
0
LINE
8
0
10
1155.91
20
1412.94
30
0
11
1155.91
21
1419.4
31
0
0
LINE
8
0
10
1155.91
20
1419.4
30
0
11
1161.5
21
1422.62
31
0
0
LINE
8
0
10
1161.5
20
1422.62
30
0
11
1164.3
21
1421.01
31
0
0
LINE
8
0
10
1050.63
20
1460.95
30
0
11
1054.13
21
1464.44
31
0
0
ARC
8
0
10
1050.5
20
1460.73
30
0
40
5.190472
50
45.624452
51
45
0
LINE
8
0
10
950.63
20
1460.95
30
0
11
954.13
21
1464.44
31
0
0
ARC
8
0
10
950.5
20
1460.73
30
0
40
5.190472
50
45.624452
51
45
0
LINE
8
0
10
899.46
20
1414.21
30
0
11
902.95
21
1417.71
31
0
0
ARC
8
0
10
899.5
20
1414.17
30
0
40
4.943086
50
45.737673
51
45
0
LINE
8
0
10
849.46
20
1414.21
30
0
11
852.95
21
1417.71
31
0
0
ARC
8
0
10
849.5
20
1414.17
30
0
40
4.943086
50
45.737673
51
45
0
LINE
8
0
10
673.3
20
1421.01
30
0
11
676.09
21
1419.4
31
0
0
LINE
8
0
10
676.09
20
1419.4
30
0
11
676.09
21
1412.94
31
0
0
LINE
8
0
10
676.09
20
1412.94
30
0
11
670.5
21
1409.72
31
0
0
LINE
8
0
10
670.5
20
1409.72
30
0
11
664.91
21
1412.94
31
0
0
LINE
8
0
10
664.91
20
1412.94
30
0
11
664.91
21
1419.4
31
0
0
LINE
8
0
10
664.91
20
1419.4
30
0
11
670.5
21
1422.62
31
0
0
LINE
8
0
10
670.5
20
1422.62
30
0
11
673.3
21
1421.01
31
0
0
LINE
8
0
10
643.5
20
611.84
30
0
11
647.5
21
611.84
31
0
0
LINE
8
0
10
647.5
20
611.84
30
0
11
648.94
21
611.84
31
0
0
LINE
8
0
10
648.94
20
611.84
30
0
11
648.94
21
610.84
31
0
0
LINE
8
0
10
648.94
20
610.84
30
0
11
1350.06
21
610.84
31
0
0
LINE
8
0
10
1350.06
20
610.84
30
0
11
1350.06
21
611.84
31
0
0
LINE
8
0
10
1350.06
20
611.84
30
0
11
1351.56
21
611.84
31
0
0
LINE
8
0
10
1351.56
20
611.84
30
0
11
1351.56
21
613.34
31
0
0
LINE
8
0
10
1351.56
20
613.34
30
0
11
1352.56
21
613.34
31
0
0
LINE
8
0
10
1352.56
20
613.34
30
0
11
1352.56
21
869.22
31
0
0
LINE
8
0
10
1352.56
20
869.22
30
0
11
1349.56
21
869.22
31
0
0
LINE
8
0
10
1349.56
20
869.22
30
0
11
1349.56
21
1241.41
31
0
0
ARC
8
0
10
1355.5
20
1241.41
30
0
40
5.94
50
90
51
180
0
LINE
8
0
10
1355.5
20
1247.35
30
0
11
1415.5
21
1247.35
31
0
0
ARC
8
0
10
1415.5
20
1253.41
30
0
40
6.06
50
270
51
0
0
LINE
8
0
10
1421.56
20
1253.41
30
0
11
1421.56
21
1386.91
31
0
0
ARC
8
0
10
1415.5
20
1386.91
30
0
40
6.06
50
0
51
90
0
LINE
8
0
10
1415.5
20
1392.97
30
0
11
1375.44
21
1392.97
31
0
0
LINE
8
0
10
1375.44
20
1392.97
30
0
11
1375.44
21
1389.97
31
0
0
LINE
8
0
10
1375.44
20
1389.97
30
0
11
1374.56
21
1389.97
31
0
0
LINE
8
0
10
1374.56
20
1389.97
30
0
11
1374.56
21
1400.07
31
0
0
LINE
8
0
10
1374.56
20
1400.07
30
0
11
1374.06
21
1400.07
31
0
0
LINE
8
0
10
1374.06
20
1400.07
30
0
11
1374.06
21
1429.95
31
0
0
LINE
8
0
10
1374.06
20
1429.95
30
0
11
1374.56
21
1429.95
31
0
0
LINE
8
0
10
1374.56
20
1429.95
30
0
11
1374.56
21
1475.79
31
0
0
LINE
8
0
10
1374.56
20
1475.79
30
0
11
624.44
21
1475.79
31
0
0
LINE
8
0
10
624.44
20
1475.79
30
0
11
624.44
21
1429.95
31
0
0
LINE
8
0
10
624.44
20
1429.95
30
0
11
624.94
21
1429.95
31
0
0
LINE
8
0
10
624.94
20
1429.95
30
0
11
624.94
21
1400.07
31
0
0
LINE
8
0
10
624.94
20
1400.07
30
0
11
624.44
21
1400.07
31
0
0
LINE
8
0
10
624.44
20
1400.07
30
0
11
624.44
21
1389.97
31
0
0
LINE
8
0
10
624.44
20
1389.97
30
0
11
623.56
21
1389.97
31
0
0
LINE
8
0
10
623.56
20
1389.97
30
0
11
623.56
21
1392.97
31
0
0
LINE
8
0
10
623.56
20
1392.97
30
0
11
583.5
21
1392.97
31
0
0
ARC
8
0
10
583.5
20
1386.91
30
0
40
6.06
50
90
51
180
0
LINE
8
0
10
577.44
20
1386.91
30
0
11
577.44
21
1253.41
31
0
0
ARC
8
0
10
583.5
20
1253.41
30
0
40
6.06
50
180
51
270
0
LINE
8
0
10
583.5
20
1247.35
30
0
11
649.44
21
1247.35
31
0
0
LINE
8
0
10
649.44
20
1247.35
30
0
11
649.44
21
869.22
31
0
0
LINE
8
0
10
649.44
20
869.22
30
0
11
646.44
21
869.22
31
0
0
LINE
8
0
10
646.44
20
869.22
30
0
11
646.44
21
613.34
31
0
0
LINE
8
0
10
646.44
20
613.34
30
0
11
647.44
21
613.34
31
0
0
LINE
8
0
10
647.44
20
613.34
30
0
11
647.44
21
611.9
31
0
0
ENDSEC
0
EOF
