0
SECTION
2
HEADER
9
$ACADVER
1
AC1009
0
ENDSEC
0
SECTION
2
ENTITIES
0
LINE
8
0
10
644.22
20
118
30
0
11
654.22
21
118
31
0
0
LINE
8
0
10
654.22
20
118
30
0
11
654.22
21
122
31
0
0
LINE
8
0
10
654.22
20
122
30
0
11
644.22
21
122
31
0
0
LINE
8
0
10
583.22
20
183
30
0
11
583.22
21
193
31
0
0
LINE
8
0
10
583.22
20
193
30
0
11
579.22
21
193
31
0
0
LINE
8
0
10
579.22
20
193
30
0
11
579.22
21
183
31
0
0
LINE
8
0
10
579.22
20
773
30
0
11
579.22
21
763
31
0
0
LINE
8
0
10
579.22
20
763
30
0
11
583.22
21
763
31
0
0
LINE
8
0
10
583.22
20
763
30
0
11
583.22
21
773
31
0
0
LINE
8
0
10
644.22
20
834
30
0
11
654.22
21
834
31
0
0
LINE
8
0
10
654.22
20
834
30
0
11
654.22
21
838
31
0
0
LINE
8
0
10
654.22
20
838
30
0
11
644.22
21
838
31
0
0
LINE
8
0
10
61.29
20
860.85
30
0
11
64.09
21
862.47
31
0
0
LINE
8
0
10
64.09
20
862.47
30
0
11
69.69
21
859.23
31
0
0
LINE
8
0
10
69.69
20
859.23
30
0
11
69.69
21
852.77
31
0
0
LINE
8
0
10
69.69
20
852.77
30
0
11
64.09
21
849.53
31
0
0
LINE
8
0
10
64.09
20
849.53
30
0
11
58.49
21
852.77
31
0
0
LINE
8
0
10
58.49
20
852.77
30
0
11
58.49
21
859.23
31
0
0
LINE
8
0
10
58.49
20
859.23
30
0
11
61.29
21
860.85
31
0
0
LINE
8
0
10
61.29
20
665.85
30
0
11
64.09
21
667.47
31
0
0
LINE
8
0
10
64.09
20
667.47
30
0
11
69.69
21
664.23
31
0
0
LINE
8
0
10
69.69
20
664.23
30
0
11
69.69
21
657.77
31
0
0
LINE
8
0
10
69.69
20
657.77
30
0
11
64.09
21
654.53
31
0
0
LINE
8
0
10
64.09
20
654.53
30
0
11
58.49
21
657.77
31
0
0
LINE
8
0
10
58.49
20
657.77
30
0
11
58.49
21
664.23
31
0
0
LINE
8
0
10
58.49
20
664.23
30
0
11
61.29
21
665.85
31
0
0
LINE
8
0
10
182.68
20
522.95
30
0
11
197.63
21
522.95
31
0
0
LINE
8
0
10
197.63
20
522.95
30
0
11
197.63
21
433.05
31
0
0
LINE
8
0
10
197.63
20
433.05
30
0
11
167.73
21
433.05
31
0
0
LINE
8
0
10
167.73
20
433.05
30
0
11
167.73
21
522.95
31
0
0
LINE
8
0
10
167.73
20
522.95
30
0
11
182.68
21
522.95
31
0
0
LINE
8
0
10
61.29
20
152.85
30
0
11
64.09
21
154.47
31
0
0
LINE
8
0
10
64.09
20
154.47
30
0
11
69.69
21
151.23
31
0
0
LINE
8
0
10
69.69
20
151.23
30
0
11
69.69
21
144.77
31
0
0
LINE
8
0
10
69.69
20
144.77
30
0
11
64.09
21
141.53
31
0
0
LINE
8
0
10
64.09
20
141.53
30
0
11
58.49
21
144.77
31
0
0
LINE
8
0
10
58.49
20
144.77
30
0
11
58.49
21
151.23
31
0
0
LINE
8
0
10
58.49
20
151.23
30
0
11
61.29
21
152.85
31
0
0
LINE
8
0
10
61.29
20
269.85
30
0
11
64.09
21
271.47
31
0
0
LINE
8
0
10
64.09
20
271.47
30
0
11
69.69
21
268.23
31
0
0
LINE
8
0
10
69.69
20
268.23
30
0
11
69.69
21
261.77
31
0
0
LINE
8
0
10
69.69
20
261.77
30
0
11
64.09
21
258.53
31
0
0
LINE
8
0
10
64.09
20
258.53
30
0
11
58.49
21
261.77
31
0
0
LINE
8
0
10
58.49
20
261.77
30
0
11
58.49
21
268.23
31
0
0
LINE
8
0
10
58.49
20
268.23
30
0
11
61.29
21
269.85
31
0
0
LINE
8
0
10
13.87
20
305.56
30
0
11
11.79
21
307.64
31
0
0
ARC
8
0
10
15.5
20
304
30
0
40
5.197471
50
135.545658
51
135
0
LINE
8
0
10
10.87
20
308.56
30
0
11
10.2
21
309.23
31
0
0
ARC
8
0
10
15.5
20
304
30
0
40
7.445999
50
135.380878
51
135
0
LINE
8
0
10
1229.36
20
73.95
30
0
11
1226.36
21
73.95
31
0
0
LINE
8
0
10
1226.36
20
73.95
30
0
11
969.72
21
73.95
31
0
0
LINE
8
0
10
969.72
20
73.95
30
0
11
969.72
21
77.95
31
0
0
LINE
8
0
10
969.72
20
77.95
30
0
11
327.18
21
77.95
31
0
0
ARC
8
0
10
327.18
20
72
30
0
40
5.95
50
90
51
180
0
LINE
8
0
10
321.23
20
72
30
0
11
321.23
21
11
31
0
0
ARC
8
0
10
315.18
20
11
30
0
40
6.05
50
270
51
0
0
LINE
8
0
10
315.18
20
4.95
30
0
11
90.68
21
4.95
31
0
0
ARC
8
0
10
90.68
20
11
30
0
40
6.05
50
180
51
270
0
LINE
8
0
10
84.63
20
11
30
0
11
84.63
21
51.55
31
0
0
LINE
8
0
10
84.63
20
51.55
30
0
11
85.13
21
51.55
31
0
0
LINE
8
0
10
85.13
20
51.55
30
0
11
85.13
21
53.45
31
0
0
LINE
8
0
10
85.13
20
53.45
30
0
11
80.58
21
53.45
31
0
0
LINE
8
0
10
80.58
20
53.45
30
0
11
80.58
21
53.95
31
0
0
LINE
8
0
10
80.58
20
53.95
30
0
11
45.59
21
53.95
31
0
0
LINE
8
0
10
45.59
20
53.95
30
0
11
45.59
21
53.45
31
0
0
LINE
8
0
10
45.59
20
53.45
30
0
11
4.95
21
53.45
31
0
0
LINE
8
0
10
4.95
20
53.45
30
0
11
4.95
21
902.55
31
0
0
LINE
8
0
10
4.95
20
902.55
30
0
11
45.59
21
902.55
31
0
0
LINE
8
0
10
45.59
20
902.55
30
0
11
45.59
21
902.05
31
0
0
LINE
8
0
10
45.59
20
902.05
30
0
11
80.58
21
902.05
31
0
0
LINE
8
0
10
80.58
20
902.05
30
0
11
80.58
21
902.55
31
0
0
LINE
8
0
10
80.58
20
902.55
30
0
11
85.13
21
902.55
31
0
0
LINE
8
0
10
85.13
20
902.55
30
0
11
85.13
21
904.45
31
0
0
LINE
8
0
10
85.13
20
904.45
30
0
11
84.63
21
904.45
31
0
0
LINE
8
0
10
84.63
20
904.45
30
0
11
84.63
21
945
31
0
0
ARC
8
0
10
90.68
20
945
30
0
40
6.05
50
90
51
180
0
LINE
8
0
10
90.68
20
951.05
30
0
11
315.18
21
951.05
31
0
0
ARC
8
0
10
315.18
20
945
30
0
40
6.05
50
0
51
90
0
LINE
8
0
10
321.23
20
945
30
0
11
321.23
21
884
31
0
0
ARC
8
0
10
327.18
20
884
30
0
40
5.95
50
180
51
270
0
LINE
8
0
10
327.18
20
878.05
30
0
11
969.72
21
878.05
31
0
0
LINE
8
0
10
969.72
20
878.05
30
0
11
969.72
21
882.05
31
0
0
LINE
8
0
10
969.72
20
882.05
30
0
11
1226.41
21
882.05
31
0
0
LINE
8
0
10
1226.41
20
882.05
30
0
11
1226.41
21
74
31
0
0
ENDSEC
0
EOF
