0
SECTION
2
HEADER
9
$ACADVER
1
AC1009
0
ENDSEC
0
SECTION
2
ENTITIES
0
LINE
8
0
10
849.22
20
793.99
30
0
11
847.17
21
793.99
31
0
0
LINE
8
0
10
846.27
20
793.99
30
0
11
840.56
21
793.99
31
0
0
LINE
8
0
10
840.56
20
793.99
30
0
11
839.13
21
792.57
31
0
0
LINE
8
0
10
839.13
20
792.57
30
0
11
839.13
21
791.14
31
0
0
LINE
8
0
10
839.13
20
791.14
30
0
11
840.56
21
789.71
31
0
0
LINE
8
0
10
840.56
20
789.71
30
0
11
846.27
21
789.71
31
0
0
LINE
8
0
10
846.27
20
789.71
30
0
11
846.27
21
783.99
31
0
0
LINE
8
0
10
846.27
20
783.99
30
0
11
839.13
21
783.99
31
0
0
LINE
8
0
10
838.24
20
785.42
30
0
11
838.24
21
792.57
31
0
0
LINE
8
0
10
838.24
20
792.57
30
0
11
836.81
21
793.99
31
0
0
LINE
8
0
10
836.81
20
793.99
30
0
11
832.52
21
783.99
31
0
0
LINE
8
0
10
832.52
20
783.99
30
0
11
836.81
21
783.99
31
0
0
LINE
8
0
10
836.81
20
783.99
30
0
11
838.24
21
785.42
31
0
0
LINE
8
0
10
832.52
20
783.99
30
0
11
831.1
21
785.42
31
0
0
LINE
8
0
10
831.1
20
785.42
30
0
11
831.1
21
792.57
31
0
0
LINE
8
0
10
831.1
20
792.57
30
0
11
832.52
21
793.99
31
0
0
LINE
8
0
10
832.52
20
793.99
30
0
11
836.81
21
793.99
31
0
0
LINE
8
0
10
830.2
20
789.71
30
0
11
824.49
21
789.71
31
0
0
LINE
8
0
10
824.49
20
789.71
30
0
11
823.06
21
791.14
31
0
0
LINE
8
0
10
823.06
20
791.14
30
0
11
823.06
21
792.57
31
0
0
LINE
8
0
10
823.06
20
792.57
30
0
11
824.49
21
793.99
31
0
0
LINE
8
0
10
824.49
20
793.99
30
0
11
828.77
21
793.99
31
0
0
LINE
8
0
10
828.77
20
793.99
30
0
11
830.2
21
792.57
31
0
0
LINE
8
0
10
830.2
20
792.57
30
0
11
830.2
21
785.42
31
0
0
LINE
8
0
10
830.2
20
785.42
30
0
11
828.77
21
783.99
31
0
0
LINE
8
0
10
828.77
20
783.99
30
0
11
824.49
21
783.99
31
0
0
LINE
8
0
10
849.22
20
785.02
30
0
11
848.19
21
783.99
31
0
0
LINE
8
0
10
848.19
20
783.99
30
0
11
848.19
21
793.99
31
0
0
LINE
8
0
10
942.9
20
784.58
30
0
11
939.95
21
784.58
31
0
0
ARC
8
0
10
969.9
20
784.63
30
0
40
29.950042
50
180.095652
51
180
0
LINE
8
0
10
692.9
20
784.58
30
0
11
689.95
21
784.58
31
0
0
ARC
8
0
10
719.9
20
784.63
30
0
40
29.950042
50
180.095652
51
180
0
LINE
8
0
10
1167.06
20
822.54
30
0
11
1164.94
21
824.66
31
0
0
LINE
8
0
10
1164.94
20
824.66
30
0
11
1130.92
21
858.68
31
0
0
LINE
8
0
10
1130.92
20
858.68
30
0
11
1034.85
21
858.68
31
0
0
LINE
8
0
10
1034.85
20
858.68
30
0
11
1034.85
21
854.68
31
0
0
LINE
8
0
10
1034.85
20
854.68
30
0
11
1031.45
21
854.68
31
0
0
LINE
8
0
10
1031.45
20
854.68
30
0
11
1031.45
21
865.71
31
0
0
LINE
8
0
10
1031.45
20
865.71
30
0
11
1033.95
21
865.71
31
0
0
LINE
8
0
10
1033.95
20
865.71
30
0
11
1033.95
21
924.71
31
0
0
LINE
8
0
10
1033.95
20
924.71
30
0
11
1034.95
21
924.71
31
0
0
LINE
8
0
10
1034.95
20
924.71
30
0
11
1034.95
21
930.81
31
0
0
LINE
8
0
10
1034.95
20
930.81
30
0
11
619.35
21
930.81
31
0
0
LINE
8
0
10
619.35
20
930.81
30
0
11
619.35
21
865.71
31
0
0
LINE
8
0
10
619.35
20
865.71
30
0
11
640.35
21
865.71
31
0
0
LINE
8
0
10
640.35
20
865.71
30
0
11
640.35
21
854.63
31
0
0
ARC
8
0
10
620.4
20
854.63
30
0
40
19.95
50
269.856402
51
0
0
LINE
8
0
10
620.35
20
834.68
30
0
11
620.35
21
799.58
31
0
0
ARC
8
0
10
620.4
20
784.63
30
0
40
14.950084
50
269.808376
51
90.191624
0
LINE
8
0
10
620.35
20
769.68
30
0
11
620.35
21
734.58
31
0
0
ARC
8
0
10
620.4
20
714.63
30
0
40
19.950063
50
0
51
90.143598
0
LINE
8
0
10
640.35
20
714.63
30
0
11
640.35
21
703.55
31
0
0
LINE
8
0
10
640.35
20
703.55
30
0
11
619.35
21
703.55
31
0
0
LINE
8
0
10
619.35
20
703.55
30
0
11
619.35
21
638.45
31
0
0
LINE
8
0
10
619.35
20
638.45
30
0
11
1034.95
21
638.45
31
0
0
LINE
8
0
10
1034.95
20
638.45
30
0
11
1034.95
21
644.55
31
0
0
LINE
8
0
10
1034.95
20
644.55
30
0
11
1033.95
21
644.55
31
0
0
LINE
8
0
10
1033.95
20
644.55
30
0
11
1033.95
21
703.55
31
0
0
LINE
8
0
10
1033.95
20
703.55
30
0
11
1031.45
21
703.55
31
0
0
LINE
8
0
10
1031.45
20
703.55
30
0
11
1031.45
21
714.58
31
0
0
LINE
8
0
10
1031.45
20
714.58
30
0
11
1034.85
21
714.58
31
0
0
LINE
8
0
10
1034.85
20
714.58
30
0
11
1034.85
21
710.58
31
0
0
LINE
8
0
10
1034.85
20
710.58
30
0
11
1130.92
21
710.58
31
0
0
LINE
8
0
10
1130.92
20
710.58
30
0
11
1164.95
21
744.61
31
0
0
LINE
8
0
10
1164.95
20
744.61
30
0
11
1164.95
21
765.08
31
0
0
LINE
8
0
10
1164.95
20
765.08
30
0
11
1167.4
21
765.08
31
0
0
ARC
8
0
10
1167.4
20
765.63
30
0
40
0.55
50
270
51
0
0
LINE
8
0
10
1167.95
20
765.63
30
0
11
1167.95
21
803.63
31
0
0
ARC
8
0
10
1167.4
20
803.63
30
0
40
0.55
50
0
51
90
0
LINE
8
0
10
1167.4
20
804.18
30
0
11
1164.95
21
804.18
31
0
0
LINE
8
0
10
1164.95
20
804.18
30
0
11
1164.95
21
824.63
31
0
0
ENDSEC
0
EOF
