0
SECTION
2
HEADER
9
$ACADVER
1
AC1009
0
ENDSEC
0
SECTION
2
ENTITIES
0
CIRCLE
8
0
10
728.26
20
1560.5
30
0
40
11
0
LINE
8
0
10
1092.18
20
1141.71
30
0
11
1092.18
21
1140.89
31
0
0
LINE
8
0
10
1092.18
20
1141.3
30
0
11
1096.18
21
1141.3
31
0
0
LINE
8
0
10
1096.18
20
1141.3
30
0
11
1095.77
21
1141.71
31
0
0
LINE
8
0
10
1093.89
20
1139.89
30
0
11
1093.89
21
1137.6
31
0
0
LINE
8
0
10
1093.89
20
1137.6
30
0
11
1093.32
21
1137.03
31
0
0
LINE
8
0
10
1093.32
20
1137.03
30
0
11
1092.75
21
1137.03
31
0
0
LINE
8
0
10
1092.75
20
1137.03
30
0
11
1092.18
21
1137.6
31
0
0
LINE
8
0
10
1092.18
20
1137.6
30
0
11
1092.18
21
1139.32
31
0
0
LINE
8
0
10
1092.18
20
1139.32
30
0
11
1092.75
21
1139.89
31
0
0
LINE
8
0
10
1092.75
20
1139.89
30
0
11
1095.61
21
1139.89
31
0
0
LINE
8
0
10
1095.61
20
1139.89
30
0
11
1096.18
21
1139.32
31
0
0
LINE
8
0
10
1096.18
20
1139.32
30
0
11
1096.18
21
1137.6
31
0
0
LINE
8
0
10
1095.61
20
1136.03
30
0
11
1096.18
21
1135.46
31
0
0
LINE
8
0
10
1096.18
20
1135.46
30
0
11
1096.18
21
1133.74
31
0
0
LINE
8
0
10
1096.18
20
1133.74
30
0
11
1095.61
21
1133.17
31
0
0
LINE
8
0
10
1095.61
20
1133.17
30
0
11
1094.46
21
1133.17
31
0
0
LINE
8
0
10
1094.46
20
1133.17
30
0
11
1093.89
21
1133.74
31
0
0
LINE
8
0
10
1093.89
20
1133.74
30
0
11
1093.32
21
1133.17
31
0
0
LINE
8
0
10
1093.32
20
1133.17
30
0
11
1092.75
21
1133.17
31
0
0
LINE
8
0
10
1092.75
20
1133.17
30
0
11
1092.18
21
1133.74
31
0
0
LINE
8
0
10
1092.18
20
1133.74
30
0
11
1092.18
21
1135.46
31
0
0
LINE
8
0
10
1092.18
20
1135.46
30
0
11
1092.75
21
1136.03
31
0
0
LINE
8
0
10
1093.89
20
1135.46
30
0
11
1093.89
21
1133.74
31
0
0
LINE
8
0
10
1093.89
20
1132.17
30
0
11
1093.89
21
1129.89
31
0
0
LINE
8
0
10
1093.89
20
1129.89
30
0
11
1093.32
21
1129.32
31
0
0
LINE
8
0
10
1093.32
20
1129.32
30
0
11
1092.75
21
1129.32
31
0
0
LINE
8
0
10
1092.75
20
1129.32
30
0
11
1092.18
21
1129.89
31
0
0
LINE
8
0
10
1092.18
20
1129.89
30
0
11
1092.18
21
1131.6
31
0
0
LINE
8
0
10
1092.18
20
1131.6
30
0
11
1092.75
21
1132.17
31
0
0
LINE
8
0
10
1092.75
20
1132.17
30
0
11
1095.61
21
1132.17
31
0
0
LINE
8
0
10
1095.61
20
1132.17
30
0
11
1096.18
21
1131.6
31
0
0
LINE
8
0
10
1096.18
20
1131.6
30
0
11
1096.18
21
1129.89
31
0
0
LINE
8
0
10
1095.61
20
1128.32
30
0
11
1096.18
21
1127.74
31
0
0
LINE
8
0
10
1096.18
20
1127.74
30
0
11
1096.18
21
1126.03
31
0
0
LINE
8
0
10
1096.18
20
1126.03
30
0
11
1095.61
21
1125.46
31
0
0
LINE
8
0
10
1095.61
20
1125.46
30
0
11
1092.75
21
1125.46
31
0
0
LINE
8
0
10
1092.75
20
1125.46
30
0
11
1092.18
21
1126.03
31
0
0
LINE
8
0
10
1092.18
20
1126.03
30
0
11
1092.18
21
1127.74
31
0
0
LINE
8
0
10
1092.18
20
1127.74
30
0
11
1092.75
21
1128.32
31
0
0
LINE
8
0
10
1092.75
20
1128.32
30
0
11
1095.61
21
1128.32
31
0
0
LINE
8
0
10
1096.18
20
1126.03
30
0
11
1092.18
21
1127.74
31
0
0
LINE
8
0
10
1095.61
20
1124.46
30
0
11
1096.18
21
1123.89
31
0
0
LINE
8
0
10
1096.18
20
1123.89
30
0
11
1096.18
21
1122.17
31
0
0
LINE
8
0
10
1096.18
20
1122.17
30
0
11
1095.61
21
1121.6
31
0
0
LINE
8
0
10
1095.61
20
1121.6
30
0
11
1094.46
21
1121.6
31
0
0
LINE
8
0
10
1094.46
20
1121.6
30
0
11
1093.89
21
1122.17
31
0
0
LINE
8
0
10
1093.89
20
1122.17
30
0
11
1093.89
21
1123.89
31
0
0
LINE
8
0
10
1093.89
20
1123.89
30
0
11
1093.32
21
1124.46
31
0
0
LINE
8
0
10
1093.32
20
1124.46
30
0
11
1092.18
21
1124.46
31
0
0
LINE
8
0
10
1092.18
20
1124.46
30
0
11
1092.18
21
1122.17
31
0
0
LINE
8
0
10
1092.18
20
1122.17
30
0
11
1092.75
21
1121.6
31
0
0
LINE
8
0
10
1095.61
20
1120.6
30
0
11
1096.18
21
1120.03
31
0
0
LINE
8
0
10
1096.18
20
1120.03
30
0
11
1096.18
21
1118.32
31
0
0
LINE
8
0
10
1096.18
20
1118.32
30
0
11
1095.61
21
1117.74
31
0
0
LINE
8
0
10
1095.61
20
1117.74
30
0
11
1094.46
21
1117.74
31
0
0
LINE
8
0
10
1094.46
20
1117.74
30
0
11
1093.89
21
1118.32
31
0
0
LINE
8
0
10
1093.89
20
1118.32
30
0
11
1093.89
21
1120.03
31
0
0
LINE
8
0
10
1093.89
20
1120.03
30
0
11
1093.32
21
1120.6
31
0
0
LINE
8
0
10
1093.32
20
1120.6
30
0
11
1092.18
21
1120.6
31
0
0
LINE
8
0
10
1092.18
20
1120.6
30
0
11
1092.18
21
1118.32
31
0
0
LINE
8
0
10
1092.18
20
1118.32
30
0
11
1092.75
21
1117.74
31
0
0
LINE
8
0
10
1092.18
20
1116.17
30
0
11
1096.18
21
1113.89
31
0
0
LINE
8
0
10
1096.18
20
1113.89
30
0
11
1096.18
21
1116.74
31
0
0
LINE
8
0
10
1093.89
20
1116.17
30
0
11
1093.89
21
1114.46
31
0
0
LINE
8
0
10
1093.89
20
1110.6
30
0
11
1093.89
21
1112.32
31
0
0
LINE
8
0
10
1093.89
20
1112.32
30
0
11
1093.32
21
1112.89
31
0
0
LINE
8
0
10
1093.32
20
1112.89
30
0
11
1092.75
21
1112.89
31
0
0
LINE
8
0
10
1092.75
20
1112.89
30
0
11
1092.18
21
1112.32
31
0
0
LINE
8
0
10
1092.18
20
1112.32
30
0
11
1092.18
21
1110.6
31
0
0
LINE
8
0
10
1092.18
20
1110.6
30
0
11
1092.75
21
1110.03
31
0
0
LINE
8
0
10
1092.75
20
1110.03
30
0
11
1093.32
21
1110.03
31
0
0
LINE
8
0
10
1093.32
20
1110.03
30
0
11
1093.89
21
1110.6
31
0
0
LINE
8
0
10
1093.89
20
1108.46
30
0
11
1093.89
21
1106.74
31
0
0
LINE
8
0
10
1092.18
20
1108.46
30
0
11
1096.18
21
1106.17
31
0
0
LINE
8
0
10
1096.18
20
1106.17
30
0
11
1096.18
21
1109.03
31
0
0
LINE
8
0
10
1013.57
20
1289.87
30
0
11
1017.06
21
1286.37
31
0
0
ARC
8
0
10
1013.35
20
1290
30
0
40
5.190472
50
315.624452
51
315
0
LINE
8
0
10
1013.57
20
1411.87
30
0
11
1017.06
21
1408.37
31
0
0
ARC
8
0
10
1013.35
20
1412
30
0
40
5.190472
50
315.624452
51
315
0
LINE
8
0
10
1092.17
20
1517.7
30
0
11
1090.55
21
1514.91
31
0
0
LINE
8
0
10
1090.55
20
1514.91
30
0
11
1084.1
21
1514.91
31
0
0
LINE
8
0
10
1084.1
20
1514.91
30
0
11
1080.87
21
1520.5
31
0
0
LINE
8
0
10
1080.87
20
1520.5
30
0
11
1084.1
21
1526.09
31
0
0
LINE
8
0
10
1084.1
20
1526.09
30
0
11
1090.55
21
1526.09
31
0
0
LINE
8
0
10
1090.55
20
1526.09
30
0
11
1093.78
21
1520.5
31
0
0
LINE
8
0
10
1093.78
20
1520.5
30
0
11
1092.17
21
1517.7
31
0
0
LINE
8
0
10
1076.37
20
1735.54
30
0
11
1078.8
21
1733.11
31
0
0
ARC
8
0
10
1076.33
20
1735.5
30
0
40
3.437005
50
315.943055
51
315
0
LINE
8
0
10
783.14
20
1758.54
30
0
11
786.46
21
1755.23
31
0
0
ARC
8
0
10
783.1
20
1758.5
30
0
40
4.68855
50
315.777723
51
315
0
LINE
8
0
10
684.51
20
1698.62
30
0
11
680.67
21
1695.51
31
0
0
ARC
8
0
10
700.1
20
1711.14
30
0
40
24.936355
50
134.983755
51
218.814109
0
LINE
8
0
10
682.47
20
1728.78
30
0
11
717.82
21
1764.14
31
0
0
ARC
8
0
10
735.46
20
1746.5
30
0
40
24.946727
50
314.983755
51
135
0
LINE
8
0
10
753.09
20
1728.86
30
0
11
717.74
21
1693.51
31
0
0
ARC
8
0
10
700.1
20
1711.14
30
0
40
24.939657
50
220.102758
51
315.016245
0
LINE
8
0
10
689.56
20
1660.13
30
0
11
693.05
21
1656.64
31
0
0
ARC
8
0
10
688.1
20
1661.5
30
0
40
6.937009
50
315.525635
51
315
0
LINE
8
0
10
739.56
20
1660.13
30
0
11
743.05
21
1656.64
31
0
0
ARC
8
0
10
738.1
20
1661.5
30
0
40
6.937009
50
315.525635
51
315
0
LINE
8
0
10
755.38
20
1612.84
30
0
11
759.32
21
1612.84
31
0
0
LINE
8
0
10
759.32
20
1612.84
30
0
11
759.32
21
1611.36
31
0
0
LINE
8
0
10
759.32
20
1611.36
30
0
11
748.94
21
1611.36
31
0
0
LINE
8
0
10
748.94
20
1611.36
30
0
11
748.94
21
1614.44
31
0
0
LINE
8
0
10
748.94
20
1614.44
30
0
11
759.32
21
1614.44
31
0
0
LINE
8
0
10
759.32
20
1614.44
30
0
11
759.32
21
1612.9
31
0
0
LINE
8
0
10
615.58
20
1612.84
30
0
11
619.52
21
1612.84
31
0
0
LINE
8
0
10
619.52
20
1612.84
30
0
11
619.52
21
1611.36
31
0
0
LINE
8
0
10
619.52
20
1611.36
30
0
11
605.64
21
1611.36
31
0
0
LINE
8
0
10
605.64
20
1611.36
30
0
11
605.64
21
1614.44
31
0
0
LINE
8
0
10
605.64
20
1614.44
30
0
11
619.52
21
1614.44
31
0
0
LINE
8
0
10
619.52
20
1614.44
30
0
11
619.52
21
1612.9
31
0
0
LINE
8
0
10
615.56
20
1487.5
30
0
11
615.56
21
1483.56
31
0
0
ARC
8
0
10
615.5
20
1494.5
30
0
40
10.940165
50
270.314233
51
270
0
LINE
8
0
10
726.96
20
1251.06
30
0
11
695.52
21
1251.06
31
0
0
LINE
8
0
10
695.52
20
1251.06
30
0
11
695.52
21
1444
31
0
0
ARC
8
0
10
702.46
20
1444
30
0
40
6.94
50
90
51
180
0
LINE
8
0
10
702.46
20
1450.94
30
0
11
765.4
21
1450.94
31
0
0
LINE
8
0
10
765.4
20
1450.94
30
0
11
765.4
21
1258
31
0
0
ARC
8
0
10
758.46
20
1258
30
0
40
6.94
50
270
51
0
0
LINE
8
0
10
758.46
20
1251.06
30
0
11
726.96
21
1251.06
31
0
0
LINE
8
0
10
873.99
20
1196.68
30
0
11
877.43
21
1196.68
31
0
0
LINE
8
0
10
877.43
20
1196.68
30
0
11
877.43
21
1198.19
31
0
0
LINE
8
0
10
877.43
20
1198.19
30
0
11
870.55
21
1198.19
31
0
0
LINE
8
0
10
870.55
20
1198.19
30
0
11
870.55
21
1195.06
31
0
0
LINE
8
0
10
870.55
20
1195.06
30
0
11
877.43
21
1195.06
31
0
0
LINE
8
0
10
877.43
20
1195.06
30
0
11
877.43
21
1196.62
31
0
0
LINE
8
0
10
873.99
20
1043.43
30
0
11
877.43
21
1043.43
31
0
0
LINE
8
0
10
877.43
20
1043.43
30
0
11
877.43
21
1044.94
31
0
0
LINE
8
0
10
877.43
20
1044.94
30
0
11
870.55
21
1044.94
31
0
0
LINE
8
0
10
870.55
20
1044.94
30
0
11
870.55
21
1041.81
31
0
0
LINE
8
0
10
870.55
20
1041.81
30
0
11
877.43
21
1041.81
31
0
0
LINE
8
0
10
877.43
20
1041.81
30
0
11
877.43
21
1043.37
31
0
0
LINE
8
0
10
755.38
20
1092.84
30
0
11
759.32
21
1092.84
31
0
0
LINE
8
0
10
759.32
20
1092.84
30
0
11
759.32
21
1091.36
31
0
0
LINE
8
0
10
759.32
20
1091.36
30
0
11
748.94
21
1091.36
31
0
0
LINE
8
0
10
748.94
20
1091.36
30
0
11
748.94
21
1094.44
31
0
0
LINE
8
0
10
748.94
20
1094.44
30
0
11
759.32
21
1094.44
31
0
0
LINE
8
0
10
759.32
20
1094.44
30
0
11
759.32
21
1092.9
31
0
0
LINE
8
0
10
615.58
20
1092.84
30
0
11
619.52
21
1092.84
31
0
0
LINE
8
0
10
619.52
20
1092.84
30
0
11
619.52
21
1091.36
31
0
0
LINE
8
0
10
619.52
20
1091.36
30
0
11
605.64
21
1091.36
31
0
0
LINE
8
0
10
605.64
20
1091.36
30
0
11
605.64
21
1094.44
31
0
0
LINE
8
0
10
605.64
20
1094.44
30
0
11
619.52
21
1094.44
31
0
0
LINE
8
0
10
619.52
20
1094.44
30
0
11
619.52
21
1092.9
31
0
0
LINE
8
0
10
872.03
20
895
30
0
11
872.03
21
892.06
31
0
0
LINE
8
0
10
872.03
20
892.06
30
0
11
870.55
21
892.06
31
0
0
LINE
8
0
10
870.55
20
892.06
30
0
11
870.55
21
897.94
31
0
0
LINE
8
0
10
870.55
20
897.94
30
0
11
873.63
21
897.94
31
0
0
LINE
8
0
10
873.63
20
897.94
30
0
11
873.63
21
892.06
31
0
0
LINE
8
0
10
873.63
20
892.06
30
0
11
872.09
21
892.06
31
0
0
LINE
8
0
10
872.15
20
740
30
0
11
872.15
21
737.06
31
0
0
LINE
8
0
10
872.15
20
737.06
30
0
11
873.63
21
737.06
31
0
0
LINE
8
0
10
873.63
20
737.06
30
0
11
873.63
21
742.94
31
0
0
LINE
8
0
10
873.63
20
742.94
30
0
11
870.55
21
742.94
31
0
0
LINE
8
0
10
870.55
20
742.94
30
0
11
870.55
21
737.06
31
0
0
LINE
8
0
10
870.55
20
737.06
30
0
11
872.09
21
737.06
31
0
0
LINE
8
0
10
755.38
20
696.04
30
0
11
759.32
21
696.04
31
0
0
LINE
8
0
10
759.32
20
696.04
30
0
11
759.32
21
694.56
31
0
0
LINE
8
0
10
759.32
20
694.56
30
0
11
748.94
21
694.56
31
0
0
LINE
8
0
10
748.94
20
694.56
30
0
11
748.94
21
697.64
31
0
0
LINE
8
0
10
748.94
20
697.64
30
0
11
759.32
21
697.64
31
0
0
LINE
8
0
10
759.32
20
697.64
30
0
11
759.32
21
696.1
31
0
0
LINE
8
0
10
615.58
20
696.04
30
0
11
619.52
21
696.04
31
0
0
LINE
8
0
10
619.52
20
696.04
30
0
11
619.52
21
694.56
31
0
0
LINE
8
0
10
619.52
20
694.56
30
0
11
605.64
21
694.56
31
0
0
LINE
8
0
10
605.64
20
694.56
30
0
11
605.64
21
697.64
31
0
0
LINE
8
0
10
605.64
20
697.64
30
0
11
619.52
21
697.64
31
0
0
LINE
8
0
10
619.52
20
697.64
30
0
11
619.52
21
696.1
31
0
0
LINE
8
0
10
733.96
20
338.06
30
0
11
702.46
21
338.06
31
0
0
ARC
8
0
10
702.46
20
345
30
0
40
6.94
50
180
51
270
0
LINE
8
0
10
695.52
20
345
30
0
11
695.52
21
537.94
31
0
0
LINE
8
0
10
695.52
20
537.94
30
0
11
760.45
21
537.94
31
0
0
ARC
8
0
10
759.46
20
532
30
0
40
6.021935
50
350.537678
51
80.537678
0
LINE
8
0
10
765.4
20
531.01
30
0
11
765.4
21
338.06
31
0
0
LINE
8
0
10
765.4
20
338.06
30
0
11
733.96
21
338.06
31
0
0
LINE
8
0
10
751
20
328.04
30
0
11
754.49
21
324.55
31
0
0
ARC
8
0
10
750.96
20
328
30
0
40
4.935929
50
315.656656
51
315
0
LINE
8
0
10
615.56
20
287.5
30
0
11
615.56
21
283.56
31
0
0
ARC
8
0
10
615.5
20
294.5
30
0
40
10.940165
50
270.314233
51
270
0
LINE
8
0
10
615.58
20
176.04
30
0
11
619.52
21
176.04
31
0
0
LINE
8
0
10
619.52
20
176.04
30
0
11
619.52
21
174.56
31
0
0
LINE
8
0
10
619.52
20
174.56
30
0
11
605.64
21
174.56
31
0
0
LINE
8
0
10
605.64
20
174.56
30
0
11
605.64
21
177.64
31
0
0
LINE
8
0
10
605.64
20
177.64
30
0
11
619.52
21
177.64
31
0
0
LINE
8
0
10
619.52
20
177.64
30
0
11
619.52
21
176.1
31
0
0
LINE
8
0
10
689.56
20
126.13
30
0
11
693.05
21
122.64
31
0
0
ARC
8
0
10
688.1
20
127.5
30
0
40
6.937009
50
315.525635
51
315
0
LINE
8
0
10
684.94
20
90.9
30
0
11
681.18
21
94.11
31
0
0
ARC
8
0
10
700.1
20
77.86
30
0
40
24.940507
50
44.983755
51
139.341395
0
LINE
8
0
10
717.74
20
95.49
30
0
11
753.09
21
60.14
31
0
0
ARC
8
0
10
735.46
20
42.5
30
0
40
24.939657
50
225
51
45.016245
0
LINE
8
0
10
717.82
20
24.86
30
0
11
682.47
21
60.22
31
0
0
ARC
8
0
10
700.1
20
77.86
30
0
40
24.939657
50
140.629772
51
225.016245
0
LINE
8
0
10
669.5
20
53.44
30
0
11
671.93
21
51.01
31
0
0
ARC
8
0
10
669.46
20
53.4
30
0
40
3.437005
50
315.943055
51
315
0
LINE
8
0
10
739.56
20
126.13
30
0
11
743.05
21
122.64
31
0
0
ARC
8
0
10
738.1
20
127.5
30
0
40
6.937009
50
315.525635
51
315
0
LINE
8
0
10
755.38
20
176.04
30
0
11
759.32
21
176.04
31
0
0
LINE
8
0
10
759.32
20
176.04
30
0
11
759.32
21
174.56
31
0
0
LINE
8
0
10
759.32
20
174.56
30
0
11
748.94
21
174.56
31
0
0
LINE
8
0
10
748.94
20
174.56
30
0
11
748.94
21
177.64
31
0
0
LINE
8
0
10
748.94
20
177.64
30
0
11
759.32
21
177.64
31
0
0
LINE
8
0
10
759.32
20
177.64
30
0
11
759.32
21
176.1
31
0
0
LINE
8
0
10
783.14
20
30.54
30
0
11
786.46
21
27.23
31
0
0
ARC
8
0
10
783.1
20
30.5
30
0
40
4.68855
50
315.777723
51
315
0
LINE
8
0
10
1092.17
20
163.7
30
0
11
1090.55
21
160.91
31
0
0
LINE
8
0
10
1090.55
20
160.91
30
0
11
1084.1
21
160.91
31
0
0
LINE
8
0
10
1084.1
20
160.91
30
0
11
1080.87
21
166.5
31
0
0
LINE
8
0
10
1080.87
20
166.5
30
0
11
1084.1
21
172.09
31
0
0
LINE
8
0
10
1084.1
20
172.09
30
0
11
1090.55
21
172.09
31
0
0
LINE
8
0
10
1090.55
20
172.09
30
0
11
1093.78
21
166.5
31
0
0
LINE
8
0
10
1093.78
20
166.5
30
0
11
1092.17
21
163.7
31
0
0
LINE
8
0
10
1089.59
20
180.7
30
0
11
1089.59
21
178.66
31
0
0
LINE
8
0
10
1089.59
20
178.66
30
0
11
1088.11
21
178.66
31
0
0
LINE
8
0
10
1088.11
20
178.66
30
0
11
1088.11
21
182.74
31
0
0
LINE
8
0
10
1088.11
20
182.74
30
0
11
1091.19
21
182.74
31
0
0
LINE
8
0
10
1091.19
20
182.74
30
0
11
1091.19
21
178.66
31
0
0
LINE
8
0
10
1091.19
20
178.66
30
0
11
1089.65
21
178.66
31
0
0
LINE
8
0
10
1089.59
20
378.5
30
0
11
1089.59
21
376.46
31
0
0
LINE
8
0
10
1089.59
20
376.46
30
0
11
1088.11
21
376.46
31
0
0
LINE
8
0
10
1088.11
20
376.46
30
0
11
1088.11
21
380.54
31
0
0
LINE
8
0
10
1088.11
20
380.54
30
0
11
1091.19
21
380.54
31
0
0
LINE
8
0
10
1091.19
20
380.54
30
0
11
1091.19
21
376.46
31
0
0
LINE
8
0
10
1091.19
20
376.46
30
0
11
1089.65
21
376.46
31
0
0
LINE
8
0
10
1013.57
20
396.87
30
0
11
1017.06
21
393.37
31
0
0
ARC
8
0
10
1013.35
20
397
30
0
40
5.190472
50
315.624452
51
315
0
LINE
8
0
10
1013.57
20
518.87
30
0
11
1017.06
21
515.37
31
0
0
ARC
8
0
10
1013.35
20
519
30
0
40
5.190472
50
315.624452
51
315
0
LINE
8
0
10
873.99
20
580.18
30
0
11
877.43
21
580.18
31
0
0
LINE
8
0
10
877.43
20
580.18
30
0
11
877.43
21
581.69
31
0
0
LINE
8
0
10
877.43
20
581.69
30
0
11
870.55
21
581.69
31
0
0
LINE
8
0
10
870.55
20
581.69
30
0
11
870.55
21
578.56
31
0
0
LINE
8
0
10
870.55
20
578.56
30
0
11
877.43
21
578.56
31
0
0
LINE
8
0
10
877.43
20
578.56
30
0
11
877.43
21
580.12
31
0
0
LINE
8
0
10
873.99
20
426.93
30
0
11
877.43
21
426.93
31
0
0
LINE
8
0
10
877.43
20
426.93
30
0
11
877.43
21
428.44
31
0
0
LINE
8
0
10
877.43
20
428.44
30
0
11
870.55
21
428.44
31
0
0
LINE
8
0
10
870.55
20
428.44
30
0
11
870.55
21
425.31
31
0
0
LINE
8
0
10
870.55
20
425.31
30
0
11
877.43
21
425.31
31
0
0
LINE
8
0
10
877.43
20
425.31
30
0
11
877.43
21
426.88
31
0
0
LINE
8
0
10
585.5
20
1733.76
30
0
11
585.5
21
1733.76
31
0
0
LINE
8
0
10
585.5
20
1733.76
30
0
11
585.5
21
1733.76
31
0
0
ENDSEC
0
EOF
