0
SECTION
2
HEADER
9
$ACADVER
1
AC1009
0
ENDSEC
0
SECTION
2
ENTITIES
0
LINE
8
0
10
457.26
20
285.89
30
0
11
465.76
21
290.79
31
0
0
LINE
8
0
10
465.76
20
290.79
30
0
11
465.76
21
300.61
31
0
0
LINE
8
0
10
465.76
20
300.61
30
0
11
457.26
21
305.51
31
0
0
LINE
8
0
10
457.26
20
305.51
30
0
11
448.76
21
300.61
31
0
0
LINE
8
0
10
448.76
20
300.61
30
0
11
448.76
21
290.79
31
0
0
LINE
8
0
10
448.76
20
290.79
30
0
11
457.26
21
285.89
31
0
0
LINE
8
0
10
457.26
20
735.89
30
0
11
465.76
21
740.79
31
0
0
LINE
8
0
10
465.76
20
740.79
30
0
11
465.76
21
750.61
31
0
0
LINE
8
0
10
465.76
20
750.61
30
0
11
457.26
21
755.51
31
0
0
LINE
8
0
10
457.26
20
755.51
30
0
11
448.76
21
750.61
31
0
0
LINE
8
0
10
448.76
20
750.61
30
0
11
448.76
21
740.79
31
0
0
LINE
8
0
10
448.76
20
740.79
30
0
11
457.26
21
735.89
31
0
0
LINE
8
0
10
457.26
20
1185.89
30
0
11
465.76
21
1190.79
31
0
0
LINE
8
0
10
465.76
20
1190.79
30
0
11
465.76
21
1200.61
31
0
0
LINE
8
0
10
465.76
20
1200.61
30
0
11
457.26
21
1205.51
31
0
0
LINE
8
0
10
457.26
20
1205.51
30
0
11
448.76
21
1200.61
31
0
0
LINE
8
0
10
448.76
20
1200.61
30
0
11
448.76
21
1190.79
31
0
0
LINE
8
0
10
448.76
20
1190.79
30
0
11
457.26
21
1185.89
31
0
0
LINE
8
0
10
346.9
20
1225.53
30
0
11
346.9
21
1228.39
31
0
0
LINE
8
0
10
346.9
20
1229.28
30
0
11
336.9
21
1229.28
31
0
0
LINE
8
0
10
336.9
20
1229.28
30
0
11
346.9
21
1236.43
31
0
0
LINE
8
0
10
346.9
20
1236.43
30
0
11
336.9
21
1236.43
31
0
0
LINE
8
0
10
336.9
20
1237.32
30
0
11
336.9
21
1244.46
31
0
0
LINE
8
0
10
336.9
20
1240.89
30
0
11
346.9
21
1240.89
31
0
0
LINE
8
0
10
346.9
20
1226.96
30
0
11
336.9
21
1226.96
31
0
0
LINE
8
0
10
336.9
20
1225.53
30
0
11
336.9
21
1228.39
31
0
0
LINE
8
0
10
457.26
20
1635.89
30
0
11
465.76
21
1640.79
31
0
0
LINE
8
0
10
465.76
20
1640.79
30
0
11
465.76
21
1650.61
31
0
0
LINE
8
0
10
465.76
20
1650.61
30
0
11
457.26
21
1655.51
31
0
0
LINE
8
0
10
457.26
20
1655.51
30
0
11
448.76
21
1650.61
31
0
0
LINE
8
0
10
448.76
20
1650.61
30
0
11
448.76
21
1640.79
31
0
0
LINE
8
0
10
448.76
20
1640.79
30
0
11
457.26
21
1635.89
31
0
0
LINE
8
0
10
457.26
20
2085.89
30
0
11
465.76
21
2090.79
31
0
0
LINE
8
0
10
465.76
20
2090.79
30
0
11
465.76
21
2100.61
31
0
0
LINE
8
0
10
465.76
20
2100.61
30
0
11
457.26
21
2105.51
31
0
0
LINE
8
0
10
457.26
20
2105.51
30
0
11
448.76
21
2100.61
31
0
0
LINE
8
0
10
448.76
20
2100.61
30
0
11
448.76
21
2090.79
31
0
0
LINE
8
0
10
448.76
20
2090.79
30
0
11
457.26
21
2085.89
31
0
0
LINE
8
0
10
454.92
20
2097.96
30
0
11
452.84
21
2100.05
31
0
0
ARC
8
0
10
457.26
20
2095.7
30
0
40
6.201524
50
135.457311
51
135.065332
0
LINE
8
0
10
319
20
2178.26
30
0
11
316.92
21
2180.34
31
0
0
ARC
8
0
10
338.13
20
2159.2
30
0
40
29.946013
50
135.094704
51
135
0
LINE
8
0
10
319
20
1878.26
30
0
11
316.92
21
1880.34
31
0
0
ARC
8
0
10
338.13
20
1859.2
30
0
40
29.946013
50
135.094704
51
135
0
LINE
8
0
10
261.63
20
1825.75
30
0
11
264.63
21
1825.75
31
0
0
LINE
8
0
10
264.63
20
1825.75
30
0
11
268.08
21
1825.75
31
0
0
LINE
8
0
10
268.08
20
1825.75
30
0
11
268.08
21
1827.15
31
0
0
LINE
8
0
10
268.08
20
1827.15
30
0
11
258.18
21
1827.15
31
0
0
LINE
8
0
10
258.18
20
1827.15
30
0
11
258.18
21
1817.25
31
0
0
LINE
8
0
10
258.18
20
1817.25
30
0
11
261.72
21
1817.25
31
0
0
LINE
8
0
10
261.72
20
1817.25
30
0
11
262.75
21
1816.22
31
0
0
LINE
8
0
10
262.75
20
1816.22
30
0
11
262.75
21
1712.18
31
0
0
LINE
8
0
10
262.75
20
1712.18
30
0
11
261.72
21
1711.15
31
0
0
LINE
8
0
10
261.72
20
1711.15
30
0
11
258.18
21
1711.15
31
0
0
LINE
8
0
10
258.18
20
1711.15
30
0
11
258.18
21
1701.25
31
0
0
LINE
8
0
10
258.18
20
1701.25
30
0
11
268.08
21
1701.25
31
0
0
LINE
8
0
10
268.08
20
1701.25
30
0
11
268.08
21
1702.65
31
0
0
LINE
8
0
10
268.08
20
1702.65
30
0
11
264.58
21
1702.65
31
0
0
LINE
8
0
10
264.58
20
1702.65
30
0
11
264.58
21
1825.7
31
0
0
LINE
8
0
10
288.28
20
1764.2
30
0
11
288.28
21
1766.75
31
0
0
LINE
8
0
10
288.28
20
1766.75
30
0
11
293.98
21
1766.75
31
0
0
LINE
8
0
10
293.98
20
1766.75
30
0
11
293.98
21
1761.65
31
0
0
LINE
8
0
10
293.98
20
1761.65
30
0
11
288.28
21
1761.65
31
0
0
LINE
8
0
10
288.28
20
1761.65
30
0
11
288.28
21
1764.2
31
0
0
LINE
8
0
10
414.63
20
1825.75
30
0
11
411.63
21
1825.75
31
0
0
LINE
8
0
10
411.63
20
1825.75
30
0
11
408.18
21
1825.75
31
0
0
LINE
8
0
10
408.18
20
1825.75
30
0
11
408.18
21
1827.15
31
0
0
LINE
8
0
10
408.18
20
1827.15
30
0
11
418.08
21
1827.15
31
0
0
LINE
8
0
10
418.08
20
1827.15
30
0
11
418.08
21
1817.25
31
0
0
LINE
8
0
10
418.08
20
1817.25
30
0
11
414.54
21
1817.25
31
0
0
LINE
8
0
10
414.54
20
1817.25
30
0
11
413.51
21
1816.22
31
0
0
LINE
8
0
10
413.51
20
1816.22
30
0
11
413.51
21
1712.18
31
0
0
LINE
8
0
10
413.51
20
1712.18
30
0
11
414.54
21
1711.15
31
0
0
LINE
8
0
10
414.54
20
1711.15
30
0
11
418.08
21
1711.15
31
0
0
LINE
8
0
10
418.08
20
1711.15
30
0
11
418.08
21
1701.25
31
0
0
LINE
8
0
10
418.08
20
1701.25
30
0
11
408.18
21
1701.25
31
0
0
LINE
8
0
10
408.18
20
1701.25
30
0
11
408.18
21
1702.65
31
0
0
LINE
8
0
10
408.18
20
1702.65
30
0
11
411.68
21
1702.65
31
0
0
LINE
8
0
10
411.68
20
1702.65
30
0
11
411.68
21
1825.7
31
0
0
LINE
8
0
10
454.92
20
1647.96
30
0
11
452.84
21
1650.05
31
0
0
ARC
8
0
10
457.26
20
1645.7
30
0
40
6.201524
50
135.457311
51
135.065332
0
LINE
8
0
10
319
20
1528.26
30
0
11
316.92
21
1530.34
31
0
0
ARC
8
0
10
338.13
20
1509.2
30
0
40
29.946013
50
135.094704
51
135
0
LINE
8
0
10
261.63
20
1275.75
30
0
11
264.63
21
1275.75
31
0
0
LINE
8
0
10
264.63
20
1275.75
30
0
11
268.08
21
1275.75
31
0
0
LINE
8
0
10
268.08
20
1275.75
30
0
11
268.08
21
1277.15
31
0
0
LINE
8
0
10
268.08
20
1277.15
30
0
11
258.18
21
1277.15
31
0
0
LINE
8
0
10
258.18
20
1277.15
30
0
11
258.18
21
1267.25
31
0
0
LINE
8
0
10
258.18
20
1267.25
30
0
11
261.72
21
1267.25
31
0
0
LINE
8
0
10
261.72
20
1267.25
30
0
11
262.75
21
1266.22
31
0
0
LINE
8
0
10
262.75
20
1266.22
30
0
11
262.75
21
1162.18
31
0
0
LINE
8
0
10
262.75
20
1162.18
30
0
11
261.72
21
1161.15
31
0
0
LINE
8
0
10
261.72
20
1161.15
30
0
11
258.18
21
1161.15
31
0
0
LINE
8
0
10
258.18
20
1161.15
30
0
11
258.18
21
1151.25
31
0
0
LINE
8
0
10
258.18
20
1151.25
30
0
11
268.08
21
1151.25
31
0
0
LINE
8
0
10
268.08
20
1151.25
30
0
11
268.08
21
1152.65
31
0
0
LINE
8
0
10
268.08
20
1152.65
30
0
11
264.58
21
1152.65
31
0
0
LINE
8
0
10
264.58
20
1152.65
30
0
11
264.58
21
1275.7
31
0
0
LINE
8
0
10
288.28
20
1214.2
30
0
11
288.28
21
1216.75
31
0
0
LINE
8
0
10
288.28
20
1216.75
30
0
11
293.98
21
1216.75
31
0
0
LINE
8
0
10
293.98
20
1216.75
30
0
11
293.98
21
1211.65
31
0
0
LINE
8
0
10
293.98
20
1211.65
30
0
11
288.28
21
1211.65
31
0
0
LINE
8
0
10
288.28
20
1211.65
30
0
11
288.28
21
1214.2
31
0
0
LINE
8
0
10
414.63
20
1275.75
30
0
11
411.63
21
1275.75
31
0
0
LINE
8
0
10
411.63
20
1275.75
30
0
11
408.18
21
1275.75
31
0
0
LINE
8
0
10
408.18
20
1275.75
30
0
11
408.18
21
1277.15
31
0
0
LINE
8
0
10
408.18
20
1277.15
30
0
11
418.08
21
1277.15
31
0
0
LINE
8
0
10
418.08
20
1277.15
30
0
11
418.08
21
1267.25
31
0
0
LINE
8
0
10
418.08
20
1267.25
30
0
11
414.54
21
1267.25
31
0
0
LINE
8
0
10
414.54
20
1267.25
30
0
11
413.51
21
1266.22
31
0
0
LINE
8
0
10
413.51
20
1266.22
30
0
11
413.51
21
1162.18
31
0
0
LINE
8
0
10
413.51
20
1162.18
30
0
11
414.54
21
1161.15
31
0
0
LINE
8
0
10
414.54
20
1161.15
30
0
11
418.08
21
1161.15
31
0
0
LINE
8
0
10
418.08
20
1161.15
30
0
11
418.08
21
1151.25
31
0
0
LINE
8
0
10
418.08
20
1151.25
30
0
11
408.18
21
1151.25
31
0
0
LINE
8
0
10
408.18
20
1151.25
30
0
11
408.18
21
1152.65
31
0
0
LINE
8
0
10
408.18
20
1152.65
30
0
11
411.68
21
1152.65
31
0
0
LINE
8
0
10
411.68
20
1152.65
30
0
11
411.68
21
1275.7
31
0
0
LINE
8
0
10
454.92
20
1197.96
30
0
11
452.84
21
1200.05
31
0
0
ARC
8
0
10
457.26
20
1195.7
30
0
40
6.201524
50
135.457311
51
135.065332
0
LINE
8
0
10
319
20
860.76
30
0
11
316.92
21
862.84
31
0
0
ARC
8
0
10
338.13
20
841.7
30
0
40
29.946013
50
135.094704
51
135
0
LINE
8
0
10
261.63
20
725.75
30
0
11
264.63
21
725.75
31
0
0
LINE
8
0
10
264.63
20
725.75
30
0
11
268.08
21
725.75
31
0
0
LINE
8
0
10
268.08
20
725.75
30
0
11
268.08
21
727.15
31
0
0
LINE
8
0
10
268.08
20
727.15
30
0
11
258.18
21
727.15
31
0
0
LINE
8
0
10
258.18
20
727.15
30
0
11
258.18
21
717.25
31
0
0
LINE
8
0
10
258.18
20
717.25
30
0
11
261.72
21
717.25
31
0
0
LINE
8
0
10
261.72
20
717.25
30
0
11
262.75
21
716.22
31
0
0
LINE
8
0
10
262.75
20
716.22
30
0
11
262.75
21
612.18
31
0
0
LINE
8
0
10
262.75
20
612.18
30
0
11
261.72
21
611.15
31
0
0
LINE
8
0
10
261.72
20
611.15
30
0
11
258.18
21
611.15
31
0
0
LINE
8
0
10
258.18
20
611.15
30
0
11
258.18
21
601.25
31
0
0
LINE
8
0
10
258.18
20
601.25
30
0
11
268.08
21
601.25
31
0
0
LINE
8
0
10
268.08
20
601.25
30
0
11
268.08
21
602.65
31
0
0
LINE
8
0
10
268.08
20
602.65
30
0
11
264.58
21
602.65
31
0
0
LINE
8
0
10
264.58
20
602.65
30
0
11
264.58
21
725.7
31
0
0
LINE
8
0
10
288.28
20
664.2
30
0
11
288.28
21
666.75
31
0
0
LINE
8
0
10
288.28
20
666.75
30
0
11
293.98
21
666.75
31
0
0
LINE
8
0
10
293.98
20
666.75
30
0
11
293.98
21
661.65
31
0
0
LINE
8
0
10
293.98
20
661.65
30
0
11
288.28
21
661.65
31
0
0
LINE
8
0
10
288.28
20
661.65
30
0
11
288.28
21
664.2
31
0
0
LINE
8
0
10
414.63
20
725.75
30
0
11
411.63
21
725.75
31
0
0
LINE
8
0
10
411.63
20
725.75
30
0
11
408.18
21
725.75
31
0
0
LINE
8
0
10
408.18
20
725.75
30
0
11
408.18
21
727.15
31
0
0
LINE
8
0
10
408.18
20
727.15
30
0
11
418.08
21
727.15
31
0
0
LINE
8
0
10
418.08
20
727.15
30
0
11
418.08
21
717.25
31
0
0
LINE
8
0
10
418.08
20
717.25
30
0
11
414.54
21
717.25
31
0
0
LINE
8
0
10
414.54
20
717.25
30
0
11
413.51
21
716.22
31
0
0
LINE
8
0
10
413.51
20
716.22
30
0
11
413.51
21
612.18
31
0
0
LINE
8
0
10
413.51
20
612.18
30
0
11
414.54
21
611.15
31
0
0
LINE
8
0
10
414.54
20
611.15
30
0
11
418.08
21
611.15
31
0
0
LINE
8
0
10
418.08
20
611.15
30
0
11
418.08
21
601.25
31
0
0
LINE
8
0
10
418.08
20
601.25
30
0
11
408.18
21
601.25
31
0
0
LINE
8
0
10
408.18
20
601.25
30
0
11
408.18
21
602.65
31
0
0
LINE
8
0
10
408.18
20
602.65
30
0
11
411.68
21
602.65
31
0
0
LINE
8
0
10
411.68
20
602.65
30
0
11
411.68
21
725.7
31
0
0
LINE
8
0
10
454.92
20
747.96
30
0
11
452.84
21
750.05
31
0
0
ARC
8
0
10
457.26
20
745.7
30
0
40
6.201524
50
135.457311
51
135.065332
0
LINE
8
0
10
319
20
510.76
30
0
11
316.92
21
512.84
31
0
0
ARC
8
0
10
338.13
20
491.7
30
0
40
29.946013
50
135.094704
51
135
0
LINE
8
0
10
454.92
20
297.96
30
0
11
452.84
21
300.05
31
0
0
ARC
8
0
10
457.26
20
295.7
30
0
40
6.201524
50
135.457311
51
135.065332
0
LINE
8
0
10
319
20
210.76
30
0
11
316.92
21
212.84
31
0
0
ARC
8
0
10
338.13
20
191.7
30
0
40
29.946013
50
135.094704
51
135
0
LINE
8
0
10
382.13
20
47.65
30
0
11
379.13
21
47.65
31
0
0
LINE
8
0
10
379.13
20
47.65
30
0
11
357.68
21
47.65
31
0
0
LINE
8
0
10
357.68
20
47.65
30
0
11
357.68
21
44.2
31
0
0
ARC
8
0
10
357.13
20
44.2
30
0
40
0.55
50
270
51
0
0
LINE
8
0
10
357.13
20
43.65
30
0
11
319.13
21
43.65
31
0
0
ARC
8
0
10
319.13
20
44.2
30
0
40
0.55
50
180
51
270
0
LINE
8
0
10
318.58
20
44.2
30
0
11
318.58
21
47.65
31
0
0
LINE
8
0
10
318.58
20
47.65
30
0
11
297.11
21
47.65
31
0
0
LINE
8
0
10
297.11
20
47.65
30
0
11
263.58
21
81.68
31
0
0
LINE
8
0
10
263.58
20
81.68
30
0
11
263.58
21
176.75
31
0
0
LINE
8
0
10
263.58
20
176.75
30
0
11
268.08
21
176.75
31
0
0
LINE
8
0
10
268.08
20
176.75
30
0
11
268.08
21
182.65
31
0
0
LINE
8
0
10
268.08
20
182.65
30
0
11
257.05
21
182.65
31
0
0
LINE
8
0
10
257.05
20
182.65
30
0
11
257.05
21
178.15
31
0
0
LINE
8
0
10
257.05
20
178.15
30
0
11
198.05
21
178.15
31
0
0
LINE
8
0
10
198.05
20
178.15
30
0
11
198.05
21
176.65
31
0
0
LINE
8
0
10
198.05
20
176.65
30
0
11
191.95
21
176.65
31
0
0
LINE
8
0
10
191.95
20
176.65
30
0
11
191.95
21
661.65
31
0
0
LINE
8
0
10
191.95
20
661.65
30
0
11
197.65
21
661.65
31
0
0
LINE
8
0
10
197.65
20
661.65
30
0
11
197.65
21
666.75
31
0
0
LINE
8
0
10
197.65
20
666.75
30
0
11
191.95
21
666.75
31
0
0
LINE
8
0
10
191.95
20
666.75
30
0
11
191.95
21
1211.65
31
0
0
LINE
8
0
10
191.95
20
1211.65
30
0
11
197.65
21
1211.65
31
0
0
LINE
8
0
10
197.65
20
1211.65
30
0
11
197.65
21
1216.75
31
0
0
LINE
8
0
10
197.65
20
1216.75
30
0
11
191.95
21
1216.75
31
0
0
LINE
8
0
10
191.95
20
1216.75
30
0
11
191.95
21
1761.65
31
0
0
LINE
8
0
10
191.95
20
1761.65
30
0
11
197.65
21
1761.65
31
0
0
LINE
8
0
10
197.65
20
1761.65
30
0
11
197.65
21
1766.75
31
0
0
LINE
8
0
10
197.65
20
1766.75
30
0
11
191.95
21
1766.75
31
0
0
LINE
8
0
10
191.95
20
1766.75
30
0
11
191.95
21
2217.75
31
0
0
LINE
8
0
10
191.95
20
2217.75
30
0
11
198.05
21
2217.75
31
0
0
LINE
8
0
10
198.05
20
2217.75
30
0
11
198.05
21
2216.25
31
0
0
LINE
8
0
10
198.05
20
2216.25
30
0
11
257.05
21
2216.25
31
0
0
LINE
8
0
10
257.05
20
2216.25
30
0
11
257.05
21
2213.25
31
0
0
LINE
8
0
10
257.05
20
2213.25
30
0
11
268.08
21
2213.25
31
0
0
LINE
8
0
10
268.08
20
2213.25
30
0
11
268.08
21
2219.15
31
0
0
LINE
8
0
10
268.08
20
2219.15
30
0
11
263.58
21
2219.15
31
0
0
LINE
8
0
10
263.58
20
2219.15
30
0
11
263.58
21
2269.22
31
0
0
LINE
8
0
10
263.58
20
2269.22
30
0
11
297.11
21
2302.25
31
0
0
LINE
8
0
10
297.11
20
2302.25
30
0
11
318.58
21
2302.25
31
0
0
LINE
8
0
10
318.58
20
2302.25
30
0
11
318.58
21
2306.7
31
0
0
ARC
8
0
10
319.13
20
2306.7
30
0
40
0.55
50
90
51
180
0
LINE
8
0
10
319.13
20
2307.25
30
0
11
357.13
21
2307.25
31
0
0
ARC
8
0
10
357.13
20
2306.7
30
0
40
0.55
50
0
51
90
0
LINE
8
0
10
357.68
20
2306.7
30
0
11
357.68
21
2302.25
31
0
0
LINE
8
0
10
357.68
20
2302.25
30
0
11
379.15
21
2302.25
31
0
0
LINE
8
0
10
379.15
20
2302.25
30
0
11
412.68
21
2269.22
31
0
0
LINE
8
0
10
412.68
20
2269.22
30
0
11
412.68
21
2219.15
31
0
0
LINE
8
0
10
412.68
20
2219.15
30
0
11
408.18
21
2219.15
31
0
0
LINE
8
0
10
408.18
20
2219.15
30
0
11
408.18
21
2213.25
31
0
0
LINE
8
0
10
408.18
20
2213.25
30
0
11
419.21
21
2213.25
31
0
0
LINE
8
0
10
419.21
20
2213.25
30
0
11
419.21
21
2216.25
31
0
0
LINE
8
0
10
419.21
20
2216.25
30
0
11
478.21
21
2216.25
31
0
0
LINE
8
0
10
478.21
20
2216.25
30
0
11
478.21
21
2217.75
31
0
0
LINE
8
0
10
478.21
20
2217.75
30
0
11
484.31
21
2217.75
31
0
0
LINE
8
0
10
484.31
20
2217.75
30
0
11
484.31
21
1766.75
31
0
0
LINE
8
0
10
484.31
20
1766.75
30
0
11
478.61
21
1766.75
31
0
0
LINE
8
0
10
478.61
20
1766.75
30
0
11
478.61
21
1761.65
31
0
0
LINE
8
0
10
478.61
20
1761.65
30
0
11
484.31
21
1761.65
31
0
0
LINE
8
0
10
484.31
20
1761.65
30
0
11
484.31
21
1216.75
31
0
0
LINE
8
0
10
484.31
20
1216.75
30
0
11
478.61
21
1216.75
31
0
0
LINE
8
0
10
478.61
20
1216.75
30
0
11
478.61
21
1211.65
31
0
0
LINE
8
0
10
478.61
20
1211.65
30
0
11
484.31
21
1211.65
31
0
0
LINE
8
0
10
484.31
20
1211.65
30
0
11
484.31
21
666.75
31
0
0
LINE
8
0
10
484.31
20
666.75
30
0
11
478.61
21
666.75
31
0
0
LINE
8
0
10
478.61
20
666.75
30
0
11
478.61
21
661.65
31
0
0
LINE
8
0
10
478.61
20
661.65
30
0
11
484.31
21
661.65
31
0
0
LINE
8
0
10
484.31
20
661.65
30
0
11
484.31
21
176.65
31
0
0
LINE
8
0
10
484.31
20
176.65
30
0
11
478.21
21
176.65
31
0
0
LINE
8
0
10
478.21
20
176.65
30
0
11
478.21
21
178.15
31
0
0
LINE
8
0
10
478.21
20
178.15
30
0
11
419.21
21
178.15
31
0
0
LINE
8
0
10
419.21
20
178.15
30
0
11
419.21
21
182.65
31
0
0
LINE
8
0
10
419.21
20
182.65
30
0
11
408.18
21
182.65
31
0
0
LINE
8
0
10
408.18
20
182.65
30
0
11
408.18
21
176.75
31
0
0
LINE
8
0
10
408.18
20
176.75
30
0
11
412.68
21
176.75
31
0
0
LINE
8
0
10
412.68
20
176.75
30
0
11
412.68
21
81.68
31
0
0
LINE
8
0
10
412.68
20
81.68
30
0
11
379.16
21
47.66
31
0
0
ENDSEC
0
EOF
