0
SECTION
2
HEADER
9
$ACADVER
1
AC1009
0
ENDSEC
0
SECTION
2
ENTITIES
0
LINE
8
0
10
150.43
20
379.5
30
0
11
146.96
21
373.5
31
0
0
LINE
8
0
10
146.96
20
373.5
30
0
11
140.04
21
373.5
31
0
0
LINE
8
0
10
140.04
20
373.5
30
0
11
136.57
21
379.5
31
0
0
LINE
8
0
10
136.57
20
379.5
30
0
11
140.04
21
385.5
31
0
0
LINE
8
0
10
140.04
20
385.5
30
0
11
146.96
21
385.5
31
0
0
LINE
8
0
10
146.96
20
385.5
30
0
11
150.43
21
379.5
31
0
0
LINE
8
0
10
146.96
20
473.5
30
0
11
140.04
21
473.5
31
0
0
LINE
8
0
10
140.04
20
473.5
30
0
11
136.57
21
479.5
31
0
0
LINE
8
0
10
136.57
20
479.5
30
0
11
140.04
21
485.5
31
0
0
LINE
8
0
10
140.04
20
485.5
30
0
11
146.96
21
485.5
31
0
0
LINE
8
0
10
146.96
20
485.5
30
0
11
150.43
21
479.5
31
0
0
LINE
8
0
10
150.43
20
479.5
30
0
11
146.96
21
473.5
31
0
0
LINE
8
0
10
146.96
20
548.5
30
0
11
140.04
21
548.5
31
0
0
LINE
8
0
10
140.04
20
548.5
30
0
11
136.57
21
554.5
31
0
0
LINE
8
0
10
136.57
20
554.5
30
0
11
140.04
21
560.5
31
0
0
LINE
8
0
10
140.04
20
560.5
30
0
11
146.96
21
560.5
31
0
0
LINE
8
0
10
146.96
20
560.5
30
0
11
150.43
21
554.5
31
0
0
LINE
8
0
10
150.43
20
554.5
30
0
11
146.96
21
548.5
31
0
0
LINE
8
0
10
143.28
20
554.63
30
0
11
139.79
21
558.13
31
0
0
ARC
8
0
10
143.5
20
554.5
30
0
40
5.190472
50
135.624452
51
135
0
LINE
8
0
10
183.22
20
593.3
30
0
11
184.83
21
596.09
31
0
0
LINE
8
0
10
184.83
20
596.09
30
0
11
191.28
21
596.09
31
0
0
LINE
8
0
10
191.28
20
596.09
30
0
11
194.51
21
590.5
31
0
0
LINE
8
0
10
194.51
20
590.5
30
0
11
191.28
21
584.91
31
0
0
LINE
8
0
10
191.28
20
584.91
30
0
11
184.83
21
584.91
31
0
0
LINE
8
0
10
184.83
20
584.91
30
0
11
181.6
21
590.5
31
0
0
LINE
8
0
10
181.6
20
590.5
30
0
11
183.22
21
593.3
31
0
0
LINE
8
0
10
143.28
20
479.63
30
0
11
139.79
21
483.13
31
0
0
ARC
8
0
10
143.5
20
479.5
30
0
40
5.190472
50
135.624452
51
135
0
LINE
8
0
10
143.28
20
379.63
30
0
11
139.79
21
383.13
31
0
0
ARC
8
0
10
143.5
20
379.5
30
0
40
5.190472
50
135.624452
51
135
0
LINE
8
0
10
190.01
20
328.46
30
0
11
186.52
21
331.95
31
0
0
ARC
8
0
10
190.06
20
328.5
30
0
40
4.943086
50
135.737673
51
135.081968
0
LINE
8
0
10
190.01
20
278.46
30
0
11
186.52
21
281.95
31
0
0
ARC
8
0
10
190.06
20
278.5
30
0
40
4.943086
50
135.737673
51
135.081968
0
LINE
8
0
10
183.22
20
102.3
30
0
11
184.83
21
105.09
31
0
0
LINE
8
0
10
184.83
20
105.09
30
0
11
191.28
21
105.09
31
0
0
LINE
8
0
10
191.28
20
105.09
30
0
11
194.51
21
99.5
31
0
0
LINE
8
0
10
194.51
20
99.5
30
0
11
191.28
21
93.91
31
0
0
LINE
8
0
10
191.28
20
93.91
30
0
11
184.83
21
93.91
31
0
0
LINE
8
0
10
184.83
20
93.91
30
0
11
181.6
21
99.5
31
0
0
LINE
8
0
10
181.6
20
99.5
30
0
11
183.22
21
102.3
31
0
0
LINE
8
0
10
992.39
20
72.5
30
0
11
992.39
21
76.5
31
0
0
LINE
8
0
10
992.39
20
76.5
30
0
11
992.39
21
77.94
31
0
0
LINE
8
0
10
992.39
20
77.94
30
0
11
993.39
21
77.94
31
0
0
LINE
8
0
10
993.39
20
77.94
30
0
11
993.39
21
779.06
31
0
0
LINE
8
0
10
993.39
20
779.06
30
0
11
992.39
21
779.06
31
0
0
LINE
8
0
10
992.39
20
779.06
30
0
11
992.39
21
780.56
31
0
0
LINE
8
0
10
992.39
20
780.56
30
0
11
990.89
21
780.56
31
0
0
LINE
8
0
10
990.89
20
780.56
30
0
11
990.89
21
781.56
31
0
0
LINE
8
0
10
990.89
20
781.56
30
0
11
735.01
21
781.56
31
0
0
LINE
8
0
10
735.01
20
781.56
30
0
11
735.01
21
778.56
31
0
0
LINE
8
0
10
735.01
20
778.56
30
0
11
362.81
21
778.56
31
0
0
ARC
8
0
10
362.81
20
784.5
30
0
40
5.94
50
180
51
270
0
LINE
8
0
10
356.87
20
784.5
30
0
11
356.87
21
844.5
31
0
0
ARC
8
0
10
350.81
20
844.5
30
0
40
6.06
50
0
51
90
0
LINE
8
0
10
350.81
20
850.56
30
0
11
217.31
21
850.56
31
0
0
ARC
8
0
10
217.31
20
844.5
30
0
40
6.06
50
90
51
180
0
LINE
8
0
10
211.25
20
844.5
30
0
11
211.25
21
804.44
31
0
0
LINE
8
0
10
211.25
20
804.44
30
0
11
214.25
21
804.44
31
0
0
LINE
8
0
10
214.25
20
804.44
30
0
11
214.25
21
803.56
31
0
0
LINE
8
0
10
214.25
20
803.56
30
0
11
204.15
21
803.56
31
0
0
LINE
8
0
10
204.15
20
803.56
30
0
11
204.15
21
803.06
31
0
0
LINE
8
0
10
204.15
20
803.06
30
0
11
174.27
21
803.06
31
0
0
LINE
8
0
10
174.27
20
803.06
30
0
11
174.27
21
803.56
31
0
0
LINE
8
0
10
174.27
20
803.56
30
0
11
128.44
21
803.56
31
0
0
LINE
8
0
10
128.44
20
803.56
30
0
11
128.44
21
53.44
31
0
0
LINE
8
0
10
128.44
20
53.44
30
0
11
174.27
21
53.44
31
0
0
LINE
8
0
10
174.27
20
53.44
30
0
11
174.27
21
53.94
31
0
0
LINE
8
0
10
174.27
20
53.94
30
0
11
204.15
21
53.94
31
0
0
LINE
8
0
10
204.15
20
53.94
30
0
11
204.15
21
53.44
31
0
0
LINE
8
0
10
204.15
20
53.44
30
0
11
214.25
21
53.44
31
0
0
LINE
8
0
10
214.25
20
53.44
30
0
11
214.25
21
52.56
31
0
0
LINE
8
0
10
214.25
20
52.56
30
0
11
211.25
21
52.56
31
0
0
LINE
8
0
10
211.25
20
52.56
30
0
11
211.25
21
12.5
31
0
0
ARC
8
0
10
217.31
20
12.5
30
0
40
6.06
50
180
51
270
0
LINE
8
0
10
217.31
20
6.44
30
0
11
350.81
21
6.44
31
0
0
ARC
8
0
10
350.81
20
12.5
30
0
40
6.06
50
270
51
0
0
LINE
8
0
10
356.87
20
12.5
30
0
11
356.87
21
78.44
31
0
0
LINE
8
0
10
356.87
20
78.44
30
0
11
735.01
21
78.44
31
0
0
LINE
8
0
10
735.01
20
78.44
30
0
11
735.01
21
75.44
31
0
0
LINE
8
0
10
735.01
20
75.44
30
0
11
990.89
21
75.44
31
0
0
LINE
8
0
10
990.89
20
75.44
30
0
11
990.89
21
76.44
31
0
0
LINE
8
0
10
990.89
20
76.44
30
0
11
992.33
21
76.44
31
0
0
ENDSEC
0
EOF
