0
SECTION
2
HEADER
9
$ACADVER
1
AC1009
0
ENDSEC
0
SECTION
2
ENTITIES
0
LINE
8
0
10
75.77
20
2324.25
30
0
11
75.77
21
2328.19
31
0
0
LINE
8
0
10
75.77
20
2328.19
30
0
11
74.64
21
2328.19
31
0
0
LINE
8
0
10
74.64
20
2328.19
30
0
11
74.64
21
2317.81
31
0
0
LINE
8
0
10
74.64
20
2317.81
30
0
11
77.02
21
2317.81
31
0
0
LINE
8
0
10
77.02
20
2317.81
30
0
11
77.02
21
2328.19
31
0
0
LINE
8
0
10
77.02
20
2328.19
30
0
11
75.83
21
2328.19
31
0
0
LINE
8
0
10
75.89
20
2414.25
30
0
11
75.89
21
2418.19
31
0
0
LINE
8
0
10
75.89
20
2418.19
30
0
11
77.02
21
2418.19
31
0
0
LINE
8
0
10
77.02
20
2418.19
30
0
11
77.02
21
2407.81
31
0
0
LINE
8
0
10
77.02
20
2407.81
30
0
11
74.64
21
2407.81
31
0
0
LINE
8
0
10
74.64
20
2407.81
30
0
11
74.64
21
2418.19
31
0
0
LINE
8
0
10
74.64
20
2418.19
30
0
11
75.83
21
2418.19
31
0
0
LINE
8
0
10
42.12
20
2432.05
30
0
11
40.12
21
2435.51
31
0
0
ARC
8
0
10
40.32
20
2435.63
30
0
40
0.233238
50
119.744881
51
210.963757
0
LINE
8
0
10
40.2
20
2435.84
30
0
11
43
21
2437.45
31
0
0
LINE
8
0
10
43
20
2437.45
30
0
11
48.59
21
2434.23
31
0
0
LINE
8
0
10
48.59
20
2434.23
30
0
11
48.59
21
2427.77
31
0
0
LINE
8
0
10
48.59
20
2427.77
30
0
11
43
21
2424.55
31
0
0
LINE
8
0
10
43
20
2424.55
30
0
11
37.41
21
2427.77
31
0
0
LINE
8
0
10
37.41
20
2427.77
30
0
11
37.41
21
2434.23
31
0
0
LINE
8
0
10
37.41
20
2434.23
30
0
11
40.21
21
2435.84
31
0
0
LINE
8
0
10
75.89
20
2022.25
30
0
11
75.89
21
2026.19
31
0
0
LINE
8
0
10
75.89
20
2026.19
30
0
11
77.02
21
2026.19
31
0
0
LINE
8
0
10
77.02
20
2026.19
30
0
11
77.02
21
2015.81
31
0
0
LINE
8
0
10
77.02
20
2015.81
30
0
11
74.64
21
2015.81
31
0
0
LINE
8
0
10
74.64
20
2015.81
30
0
11
74.64
21
2026.19
31
0
0
LINE
8
0
10
74.64
20
2026.19
30
0
11
75.83
21
2026.19
31
0
0
LINE
8
0
10
75.89
20
1932.25
30
0
11
75.89
21
1936.19
31
0
0
LINE
8
0
10
75.89
20
1936.19
30
0
11
77.02
21
1936.19
31
0
0
LINE
8
0
10
77.02
20
1936.19
30
0
11
77.02
21
1925.81
31
0
0
LINE
8
0
10
77.02
20
1925.81
30
0
11
74.64
21
1925.81
31
0
0
LINE
8
0
10
74.64
20
1925.81
30
0
11
74.64
21
1936.19
31
0
0
LINE
8
0
10
74.64
20
1936.19
30
0
11
75.83
21
1936.19
31
0
0
LINE
8
0
10
42.12
20
1914.05
30
0
11
40.12
21
1917.51
31
0
0
ARC
8
0
10
40.32
20
1917.63
30
0
40
0.233238
50
119.744881
51
210.963757
0
LINE
8
0
10
40.2
20
1917.84
30
0
11
43
21
1919.45
31
0
0
LINE
8
0
10
43
20
1919.45
30
0
11
48.59
21
1916.23
31
0
0
LINE
8
0
10
48.59
20
1916.23
30
0
11
48.59
21
1909.77
31
0
0
LINE
8
0
10
48.59
20
1909.77
30
0
11
43
21
1906.55
31
0
0
LINE
8
0
10
43
20
1906.55
30
0
11
37.41
21
1909.77
31
0
0
LINE
8
0
10
37.41
20
1909.77
30
0
11
37.41
21
1916.23
31
0
0
LINE
8
0
10
37.41
20
1916.23
30
0
11
40.21
21
1917.84
31
0
0
LINE
8
0
10
600.03
20
1816
30
0
11
600.03
21
1820
31
0
0
LINE
8
0
10
600.03
20
1820
30
0
11
600.03
21
1821.44
31
0
0
LINE
8
0
10
600.03
20
1821.44
30
0
11
601.03
21
1821.44
31
0
0
LINE
8
0
10
601.03
20
1821.44
30
0
11
601.03
21
2522.56
31
0
0
LINE
8
0
10
601.03
20
2522.56
30
0
11
600.03
21
2522.56
31
0
0
LINE
8
0
10
600.03
20
2522.56
30
0
11
600.03
21
2524.06
31
0
0
LINE
8
0
10
600.03
20
2524.06
30
0
11
598.53
21
2524.06
31
0
0
LINE
8
0
10
598.53
20
2524.06
30
0
11
598.53
21
2525.06
31
0
0
LINE
8
0
10
598.53
20
2525.06
30
0
11
342.75
21
2525.06
31
0
0
LINE
8
0
10
342.75
20
2525.06
30
0
11
342.75
21
2522.06
31
0
0
LINE
8
0
10
342.75
20
2522.06
30
0
11
330.42
21
2522.06
31
0
0
LINE
8
0
10
330.42
20
2522.06
30
0
11
330.42
21
2521.06
31
0
0
LINE
8
0
10
330.42
20
2521.06
30
0
11
329.54
21
2521.06
31
0
0
LINE
8
0
10
329.54
20
2521.06
30
0
11
329.54
21
2522.06
31
0
0
LINE
8
0
10
329.54
20
2522.06
30
0
11
248.66
21
2522.06
31
0
0
ARC
8
0
10
248.66
20
2528
30
0
40
5.94
50
180
51
270
0
LINE
8
0
10
242.72
20
2528
30
0
11
242.72
21
2587
31
0
0
ARC
8
0
10
236.66
20
2587
30
0
40
6.06
50
0
51
90
0
LINE
8
0
10
236.66
20
2593.06
30
0
11
122.6
21
2593.06
31
0
0
LINE
8
0
10
122.6
20
2593.06
30
0
11
122.6
21
2573
31
0
0
ARC
8
0
10
117.66
20
2573
30
0
40
4.94
50
270
51
0
0
LINE
8
0
10
117.66
20
2568.06
30
0
11
98.1
21
2568.06
31
0
0
LINE
8
0
10
98.1
20
2568.06
30
0
11
98.1
21
2551.5
31
0
0
ARC
8
0
10
93.16
20
2551.5
30
0
40
4.94
50
270
51
0
0
LINE
8
0
10
93.16
20
2546.56
30
0
11
72.6
21
2546.56
31
0
0
LINE
8
0
10
72.6
20
2546.56
30
0
11
72.6
21
2541.56
31
0
0
LINE
8
0
10
72.6
20
2541.56
30
0
11
48.06
21
2541.56
31
0
0
LINE
8
0
10
48.06
20
2541.56
30
0
11
48.06
21
2546.56
31
0
0
LINE
8
0
10
48.06
20
2546.56
30
0
11
32.94
21
2546.56
31
0
0
LINE
8
0
10
32.94
20
2546.56
30
0
11
32.94
21
1797.44
31
0
0
LINE
8
0
10
32.94
20
1797.44
30
0
11
48.06
21
1797.44
31
0
0
LINE
8
0
10
48.06
20
1797.44
30
0
11
48.06
21
1802.44
31
0
0
LINE
8
0
10
48.06
20
1802.44
30
0
11
72.6
21
1802.44
31
0
0
LINE
8
0
10
72.6
20
1802.44
30
0
11
72.6
21
1797.44
31
0
0
LINE
8
0
10
72.6
20
1797.44
30
0
11
93.16
21
1797.44
31
0
0
ARC
8
0
10
93.16
20
1792.5
30
0
40
4.94
50
0
51
90
0
LINE
8
0
10
98.1
20
1792.5
30
0
11
98.1
21
1760.94
31
0
0
LINE
8
0
10
98.1
20
1760.94
30
0
11
103.16
21
1760.94
31
0
0
ARC
8
0
10
103.16
20
1756
30
0
40
4.94
50
0
51
90
0
LINE
8
0
10
108.1
20
1756
30
0
11
108.1
21
1750.94
31
0
0
LINE
8
0
10
108.1
20
1750.94
30
0
11
236.66
21
1750.94
31
0
0
ARC
8
0
10
236.66
20
1757
30
0
40
6.06
50
270
51
0
0
LINE
8
0
10
242.72
20
1757
30
0
11
242.72
21
1816
31
0
0
ARC
8
0
10
248.66
20
1816
30
0
40
5.94
50
90
51
180
0
LINE
8
0
10
248.66
20
1821.94
30
0
11
329.54
21
1821.94
31
0
0
LINE
8
0
10
329.54
20
1821.94
30
0
11
329.54
21
1822.94
31
0
0
LINE
8
0
10
329.54
20
1822.94
30
0
11
330.42
21
1822.94
31
0
0
LINE
8
0
10
330.42
20
1822.94
30
0
11
330.42
21
1821.94
31
0
0
LINE
8
0
10
330.42
20
1821.94
30
0
11
342.75
21
1821.94
31
0
0
LINE
8
0
10
342.75
20
1821.94
30
0
11
342.75
21
1818.94
31
0
0
LINE
8
0
10
342.75
20
1818.94
30
0
11
598.53
21
1818.94
31
0
0
LINE
8
0
10
598.53
20
1818.94
30
0
11
598.53
21
1819.94
31
0
0
LINE
8
0
10
598.53
20
1819.94
30
0
11
599.97
21
1819.94
31
0
0
ENDSEC
0
EOF
