0
SECTION
2
HEADER
9
$ACADVER
1
AC1009
0
ENDSEC
0
SECTION
2
ENTITIES
0
CIRCLE
8
0
10
433.13
20
235.7
30
0
40
11
0
LINE
8
0
10
405.7
20
184.25
30
0
11
401.85
21
184.25
31
0
0
LINE
8
0
10
401.85
20
184.25
30
0
11
401.85
21
185.55
31
0
0
LINE
8
0
10
401.85
20
185.55
30
0
11
412.55
21
185.55
31
0
0
LINE
8
0
10
412.55
20
185.55
30
0
11
412.55
21
182.65
31
0
0
LINE
8
0
10
412.55
20
182.65
30
0
11
401.85
21
182.65
31
0
0
LINE
8
0
10
401.85
20
182.65
30
0
11
401.85
21
184.1
31
0
0
LINE
8
0
10
421.96
20
136.81
30
0
11
418.53
21
140.24
31
0
0
ARC
8
0
10
423.48
20
135.5
30
0
40
6.853474
50
136.24151
51
135
0
LINE
8
0
10
476.05
20
99.56
30
0
11
479.56
21
102.91
31
0
0
ARC
8
0
10
461.48
20
85.86
30
0
40
24.851336
50
314.9837
51
43.320588
0
LINE
8
0
10
479.05
20
68.28
30
0
11
443.7
21
32.93
31
0
0
ARC
8
0
10
426.13
20
50.5
30
0
40
24.847732
50
135.0163
51
315
0
LINE
8
0
10
408.55
20
68.07
30
0
11
443.91
21
103.43
31
0
0
ARC
8
0
10
461.48
20
85.86
30
0
40
24.847732
50
44.804341
51
135
0
LINE
8
0
10
471.96
20
136.81
30
0
11
468.53
21
140.24
31
0
0
ARC
8
0
10
473.48
20
135.5
30
0
40
6.853474
50
136.24151
51
135
0
LINE
8
0
10
546
20
183.95
30
0
11
542.15
21
183.95
31
0
0
LINE
8
0
10
542.15
20
183.95
30
0
11
542.15
21
182.65
31
0
0
LINE
8
0
10
542.15
20
182.65
30
0
11
555.85
21
182.65
31
0
0
LINE
8
0
10
555.85
20
182.65
30
0
11
555.85
21
185.55
31
0
0
LINE
8
0
10
555.85
20
185.55
30
0
11
542.15
21
185.55
31
0
0
LINE
8
0
10
542.15
20
185.55
30
0
11
542.15
21
184.1
31
0
0
LINE
8
0
10
545.93
20
309.5
30
0
11
545.93
21
313.35
31
0
0
ARC
8
0
10
546.08
20
302.5
30
0
40
10.851037
50
90.792057
51
90
0
LINE
8
0
10
467.84
20
326.07
30
0
11
464.42
21
329.5
31
0
0
ARC
8
0
10
468.13
20
326
30
0
40
5.100402
50
136.668337
51
135
0
LINE
8
0
10
434.63
20
545.85
30
0
11
465.98
21
545.85
31
0
0
LINE
8
0
10
465.98
20
545.85
30
0
11
465.98
21
353
31
0
0
ARC
8
0
10
459.13
20
353
30
0
40
6.85
50
270
51
0
0
LINE
8
0
10
459.13
20
346.15
30
0
11
396.28
21
346.15
31
0
0
LINE
8
0
10
396.28
20
346.15
30
0
11
396.28
21
539
31
0
0
ARC
8
0
10
403.13
20
539
30
0
40
6.85
50
90
51
180
0
LINE
8
0
10
403.13
20
545.85
30
0
11
434.63
21
545.85
31
0
0
LINE
8
0
10
287.59
20
588.27
30
0
11
284.24
21
588.27
31
0
0
LINE
8
0
10
284.24
20
588.27
30
0
11
284.24
21
589.6
31
0
0
LINE
8
0
10
284.24
20
589.6
30
0
11
290.94
21
589.6
31
0
0
LINE
8
0
10
290.94
20
589.6
30
0
11
290.94
21
586.65
31
0
0
LINE
8
0
10
290.94
20
586.65
30
0
11
284.24
21
586.65
31
0
0
LINE
8
0
10
284.24
20
586.65
30
0
11
284.24
21
588.12
31
0
0
LINE
8
0
10
147.95
20
527.07
30
0
11
144.52
21
530.5
31
0
0
ARC
8
0
10
148.23
20
527
30
0
40
5.100402
50
136.668337
51
134.920533
0
LINE
8
0
10
147.95
20
405.07
30
0
11
144.52
21
408.5
31
0
0
ARC
8
0
10
148.23
20
405
30
0
40
5.100402
50
136.668337
51
134.920533
0
LINE
8
0
10
260.87
20
335.35
30
0
11
291.17
21
335.35
31
0
0
ARC
8
0
10
291.17
20
330.5
30
0
40
4.85
50
0
51
90
0
LINE
8
0
10
296.02
20
330.5
30
0
11
296.02
21
220.5
31
0
0
ARC
8
0
10
291.17
20
220.5
30
0
40
4.85
50
270
51
0
0
LINE
8
0
10
291.17
20
215.65
30
0
11
230.57
21
215.65
31
0
0
ARC
8
0
10
230.57
20
220.5
30
0
40
4.85
50
180
51
270
0
LINE
8
0
10
225.72
20
220.5
30
0
11
225.72
21
330.5
31
0
0
ARC
8
0
10
230.57
20
330.5
30
0
40
4.85
50
90
51
180
0
LINE
8
0
10
230.57
20
335.35
30
0
11
260.87
21
335.35
31
0
0
LINE
8
0
10
333.28
20
344.7
30
0
11
333.28
21
345.55
31
0
0
LINE
8
0
10
333.28
20
345.55
30
0
11
333.98
21
345.55
31
0
0
LINE
8
0
10
333.98
20
345.55
30
0
11
333.98
21
335.45
31
0
0
LINE
8
0
10
333.98
20
335.45
30
0
11
332.28
21
335.45
31
0
0
LINE
8
0
10
332.28
20
335.45
30
0
11
332.28
21
345.55
31
0
0
LINE
8
0
10
332.28
20
345.55
30
0
11
333.13
21
345.55
31
0
0
LINE
8
0
10
287.59
20
435.02
30
0
11
284.24
21
435.02
31
0
0
LINE
8
0
10
284.24
20
435.02
30
0
11
284.24
21
436.35
31
0
0
LINE
8
0
10
284.24
20
436.35
30
0
11
290.94
21
436.35
31
0
0
LINE
8
0
10
290.94
20
436.35
30
0
11
290.94
21
433.4
31
0
0
LINE
8
0
10
290.94
20
433.4
30
0
11
284.24
21
433.4
31
0
0
LINE
8
0
10
284.24
20
433.4
30
0
11
284.24
21
434.87
31
0
0
LINE
8
0
10
333.28
20
220.7
30
0
11
333.28
21
221.55
31
0
0
LINE
8
0
10
333.28
20
221.55
30
0
11
333.98
21
221.55
31
0
0
LINE
8
0
10
333.98
20
221.55
30
0
11
333.98
21
211.45
31
0
0
LINE
8
0
10
333.98
20
211.45
30
0
11
332.28
21
211.45
31
0
0
LINE
8
0
10
332.28
20
211.45
30
0
11
332.28
21
221.55
31
0
0
LINE
8
0
10
332.28
20
221.55
30
0
11
333.13
21
221.55
31
0
0
LINE
8
0
10
378.38
20
38.39
30
0
11
375.12
21
41.64
31
0
0
ARC
8
0
10
378.48
20
38.5
30
0
40
4.598826
50
136.938502
51
135
0
LINE
8
0
10
405.7
20
704.25
30
0
11
401.85
21
704.25
31
0
0
LINE
8
0
10
401.85
20
704.25
30
0
11
401.85
21
705.55
31
0
0
LINE
8
0
10
401.85
20
705.55
30
0
11
412.55
21
705.55
31
0
0
LINE
8
0
10
412.55
20
705.55
30
0
11
412.55
21
702.65
31
0
0
LINE
8
0
10
412.55
20
702.65
30
0
11
401.85
21
702.65
31
0
0
LINE
8
0
10
401.85
20
702.65
30
0
11
401.85
21
704.1
31
0
0
LINE
8
0
10
289.64
20
748
30
0
11
289.64
21
750.85
31
0
0
LINE
8
0
10
289.64
20
750.85
30
0
11
290.94
21
750.85
31
0
0
LINE
8
0
10
290.94
20
750.85
30
0
11
290.94
21
745.15
31
0
0
LINE
8
0
10
290.94
20
745.15
30
0
11
288.04
21
745.15
31
0
0
LINE
8
0
10
288.04
20
745.15
30
0
11
288.04
21
750.85
31
0
0
LINE
8
0
10
288.04
20
750.85
30
0
11
289.49
21
750.85
31
0
0
LINE
8
0
10
405.98
20
957.75
30
0
11
405.98
21
961.6
31
0
0
ARC
8
0
10
406.13
20
901.5
30
0
40
60.100187
50
90.143001
51
90
0
ARC
8
0
10
284.67
20
997.51
30
0
40
27.34
50
90
51
107.301511
0
ARC
8
0
10
284.5
20
998.04
30
0
40
26.780338
50
107.291486
51
124.841288
0
ARC
8
0
10
283.99
20
998.78
30
0
40
25.882073
50
124.850563
51
142.820159
0
ARC
8
0
10
283.28
20
999.32
30
0
40
24.988359
50
142.822852
51
161.253231
0
ARC
8
0
10
282.76
20
999.5
30
0
40
24.435263
50
161.261039
51
198.738961
0
ARC
8
0
10
283.28
20
999.68
30
0
40
24.985526
50
198.746769
51
217.177148
0
ARC
8
0
10
283.99
20
1000.22
30
0
40
25.880379
50
217.179841
51
235.149437
0
ARC
8
0
10
284.5
20
1000.96
30
0
40
26.780784
50
235.158712
51
252.708514
0
ARC
8
0
10
284.67
20
1001.49
30
0
40
27.336915
50
252.698489
51
287.301511
0
ARC
8
0
10
284.84
20
1000.96
30
0
40
26.780338
50
287.291486
51
304.841288
0
ARC
8
0
10
285.35
20
1000.22
30
0
40
25.882073
50
304.850563
51
322.820159
0
ARC
8
0
10
286.06
20
999.68
30
0
40
24.988359
50
322.822852
51
341.253231
0
ARC
8
0
10
286.58
20
999.5
30
0
40
24.435263
50
341.261039
51
18.738961
0
ARC
8
0
10
286.06
20
999.32
30
0
40
24.985526
50
18.746769
51
37.177148
0
ARC
8
0
10
285.35
20
998.78
30
0
40
25.880379
50
37.179841
51
55.149437
0
ARC
8
0
10
284.84
20
998.04
30
0
40
26.780784
50
55.158712
51
72.708514
0
ARC
8
0
10
284.67
20
997.51
30
0
40
27.336915
50
72.698489
51
90
0
LINE
8
0
10
287.59
20
1051.52
30
0
11
284.24
21
1051.52
31
0
0
LINE
8
0
10
284.24
20
1051.52
30
0
11
284.24
21
1052.85
31
0
0
LINE
8
0
10
284.24
20
1052.85
30
0
11
290.94
21
1052.85
31
0
0
LINE
8
0
10
290.94
20
1052.85
30
0
11
290.94
21
1049.9
31
0
0
LINE
8
0
10
290.94
20
1049.9
30
0
11
284.24
21
1049.9
31
0
0
LINE
8
0
10
284.24
20
1049.9
30
0
11
284.24
21
1051.37
31
0
0
LINE
8
0
10
405.7
20
1101.05
30
0
11
401.85
21
1101.05
31
0
0
LINE
8
0
10
401.85
20
1101.05
30
0
11
401.85
21
1102.35
31
0
0
LINE
8
0
10
401.85
20
1102.35
30
0
11
412.55
21
1102.35
31
0
0
LINE
8
0
10
412.55
20
1102.35
30
0
11
412.55
21
1099.45
31
0
0
LINE
8
0
10
412.55
20
1099.45
30
0
11
401.85
21
1099.45
31
0
0
LINE
8
0
10
401.85
20
1099.45
30
0
11
401.85
21
1100.9
31
0
0
LINE
8
0
10
546
20
1101.05
30
0
11
542.15
21
1101.05
31
0
0
LINE
8
0
10
542.15
20
1101.05
30
0
11
542.15
21
1102.35
31
0
0
LINE
8
0
10
542.15
20
1102.35
30
0
11
555.85
21
1102.35
31
0
0
LINE
8
0
10
555.85
20
1102.35
30
0
11
555.85
21
1099.45
31
0
0
LINE
8
0
10
555.85
20
1099.45
30
0
11
542.15
21
1099.45
31
0
0
LINE
8
0
10
542.15
20
1099.45
30
0
11
542.15
21
1100.9
31
0
0
LINE
8
0
10
427.63
20
1458.85
30
0
11
459.13
21
1458.85
31
0
0
ARC
8
0
10
459.13
20
1452
30
0
40
6.85
50
0
51
90
0
LINE
8
0
10
465.98
20
1452
30
0
11
465.98
21
1259.15
31
0
0
LINE
8
0
10
465.98
20
1259.15
30
0
11
403.13
21
1259.15
31
0
0
ARC
8
0
10
403.13
20
1266
30
0
40
6.85
50
180
51
270
0
LINE
8
0
10
396.28
20
1266
30
0
11
396.28
21
1458.85
31
0
0
LINE
8
0
10
396.28
20
1458.85
30
0
11
427.63
21
1458.85
31
0
0
LINE
8
0
10
545.93
20
1509.5
30
0
11
545.93
21
1513.35
31
0
0
ARC
8
0
10
546.08
20
1502.5
30
0
40
10.851037
50
90.792057
51
90
0
LINE
8
0
10
546
20
1621.05
30
0
11
542.15
21
1621.05
31
0
0
LINE
8
0
10
542.15
20
1621.05
30
0
11
542.15
21
1622.35
31
0
0
LINE
8
0
10
542.15
20
1622.35
30
0
11
555.85
21
1622.35
31
0
0
LINE
8
0
10
555.85
20
1622.35
30
0
11
555.85
21
1619.45
31
0
0
LINE
8
0
10
555.85
20
1619.45
30
0
11
542.15
21
1619.45
31
0
0
LINE
8
0
10
542.15
20
1619.45
30
0
11
542.15
21
1620.9
31
0
0
LINE
8
0
10
471.96
20
1670.81
30
0
11
468.53
21
1674.24
31
0
0
ARC
8
0
10
473.48
20
1669.5
30
0
40
6.853474
50
136.24151
51
135
0
LINE
8
0
10
475.46
20
1704.84
30
0
11
478.87
21
1701.39
31
0
0
ARC
8
0
10
461.48
20
1719.14
30
0
40
24.849036
50
225
51
314.41304
0
LINE
8
0
10
443.91
20
1701.57
30
0
11
408.55
21
1736.93
31
0
0
ARC
8
0
10
426.13
20
1754.5
30
0
40
24.854804
50
45
51
224.9837
0
LINE
8
0
10
443.7
20
1772.07
30
0
11
479.05
21
1736.72
31
0
0
ARC
8
0
10
461.48
20
1719.14
30
0
40
24.854804
50
315.913003
51
45.0163
0
LINE
8
0
10
421.96
20
1670.81
30
0
11
418.53
21
1674.24
31
0
0
ARC
8
0
10
423.48
20
1669.5
30
0
40
6.853474
50
136.24151
51
135
0
LINE
8
0
10
405.7
20
1621.05
30
0
11
401.85
21
1621.05
31
0
0
LINE
8
0
10
401.85
20
1621.05
30
0
11
401.85
21
1622.35
31
0
0
LINE
8
0
10
401.85
20
1622.35
30
0
11
412.55
21
1622.35
31
0
0
LINE
8
0
10
412.55
20
1622.35
30
0
11
412.55
21
1619.45
31
0
0
LINE
8
0
10
412.55
20
1619.45
30
0
11
401.85
21
1619.45
31
0
0
LINE
8
0
10
401.85
20
1619.45
30
0
11
401.85
21
1620.9
31
0
0
LINE
8
0
10
378.38
20
1766.39
30
0
11
375.12
21
1769.64
31
0
0
ARC
8
0
10
378.48
20
1766.5
30
0
40
4.598826
50
136.938502
51
135
0
LINE
8
0
10
294.27
20
1437.25
30
0
11
295.57
21
1439.5
31
0
0
LINE
8
0
10
295.57
20
1439.5
30
0
11
300.77
21
1439.5
31
0
0
LINE
8
0
10
300.77
20
1439.5
30
0
11
303.37
21
1435
31
0
0
LINE
8
0
10
303.37
20
1435
30
0
11
300.77
21
1430.5
31
0
0
LINE
8
0
10
300.77
20
1430.5
30
0
11
295.57
21
1430.5
31
0
0
LINE
8
0
10
295.57
20
1430.5
30
0
11
292.97
21
1435
31
0
0
LINE
8
0
10
292.97
20
1435
30
0
11
294.27
21
1437.25
31
0
0
LINE
8
0
10
278.17
20
1425.85
30
0
11
257.17
21
1425.85
31
0
0
ARC
8
0
10
257.17
20
1423
30
0
40
2.85
50
90
51
180
0
LINE
8
0
10
254.32
20
1423
30
0
11
254.32
21
1379
31
0
0
ARC
8
0
10
257.17
20
1379
30
0
40
2.85
50
180
51
270
0
LINE
8
0
10
257.17
20
1376.15
30
0
11
299.17
21
1376.15
31
0
0
ARC
8
0
10
299.17
20
1379
30
0
40
2.85
50
270
51
0
0
LINE
8
0
10
302.02
20
1379
30
0
11
302.02
21
1423
31
0
0
ARC
8
0
10
299.17
20
1423
30
0
40
2.85
50
0
51
90
0
LINE
8
0
10
299.17
20
1425.85
30
0
11
278.17
21
1425.85
31
0
0
LINE
8
0
10
254.27
20
1437.25
30
0
11
255.57
21
1439.5
31
0
0
LINE
8
0
10
255.57
20
1439.5
30
0
11
260.77
21
1439.5
31
0
0
LINE
8
0
10
260.77
20
1439.5
30
0
11
263.37
21
1435
31
0
0
LINE
8
0
10
263.37
20
1435
30
0
11
260.77
21
1430.5
31
0
0
LINE
8
0
10
260.77
20
1430.5
30
0
11
255.57
21
1430.5
31
0
0
LINE
8
0
10
255.57
20
1430.5
30
0
11
252.97
21
1435
31
0
0
LINE
8
0
10
252.97
20
1435
30
0
11
254.27
21
1437.25
31
0
0
LINE
8
0
10
275.27
20
1368.25
30
0
11
276.57
21
1370.5
31
0
0
LINE
8
0
10
276.57
20
1370.5
30
0
11
281.77
21
1370.5
31
0
0
LINE
8
0
10
281.77
20
1370.5
30
0
11
284.37
21
1366
31
0
0
LINE
8
0
10
284.37
20
1366
30
0
11
281.77
21
1361.5
31
0
0
LINE
8
0
10
281.77
20
1361.5
30
0
11
276.57
21
1361.5
31
0
0
LINE
8
0
10
276.57
20
1361.5
30
0
11
273.97
21
1366
31
0
0
LINE
8
0
10
273.97
20
1366
30
0
11
275.27
21
1368.25
31
0
0
LINE
8
0
10
278.17
20
1355.85
30
0
11
257.17
21
1355.85
31
0
0
ARC
8
0
10
257.17
20
1353
30
0
40
2.85
50
90
51
180
0
LINE
8
0
10
254.32
20
1353
30
0
11
254.32
21
1309
31
0
0
ARC
8
0
10
257.17
20
1309
30
0
40
2.85
50
180
51
270
0
LINE
8
0
10
257.17
20
1306.15
30
0
11
299.17
21
1306.15
31
0
0
ARC
8
0
10
299.17
20
1309
30
0
40
2.85
50
270
51
0
0
LINE
8
0
10
302.02
20
1309
30
0
11
302.02
21
1353
31
0
0
ARC
8
0
10
299.17
20
1353
30
0
40
2.85
50
0
51
90
0
LINE
8
0
10
299.17
20
1355.85
30
0
11
278.17
21
1355.85
31
0
0
LINE
8
0
10
254.27
20
1299.25
30
0
11
255.57
21
1301.5
31
0
0
LINE
8
0
10
255.57
20
1301.5
30
0
11
260.77
21
1301.5
31
0
0
LINE
8
0
10
260.77
20
1301.5
30
0
11
263.37
21
1297
31
0
0
LINE
8
0
10
263.37
20
1297
30
0
11
260.77
21
1292.5
31
0
0
LINE
8
0
10
260.77
20
1292.5
30
0
11
255.57
21
1292.5
31
0
0
LINE
8
0
10
255.57
20
1292.5
30
0
11
252.97
21
1297
31
0
0
LINE
8
0
10
252.97
20
1297
30
0
11
254.27
21
1299.25
31
0
0
LINE
8
0
10
294.27
20
1299.25
30
0
11
295.57
21
1301.5
31
0
0
LINE
8
0
10
295.57
20
1301.5
30
0
11
300.77
21
1301.5
31
0
0
LINE
8
0
10
300.77
20
1301.5
30
0
11
303.37
21
1297
31
0
0
LINE
8
0
10
303.37
20
1297
30
0
11
300.77
21
1292.5
31
0
0
LINE
8
0
10
300.77
20
1292.5
30
0
11
295.57
21
1292.5
31
0
0
LINE
8
0
10
295.57
20
1292.5
30
0
11
292.97
21
1297
31
0
0
LINE
8
0
10
292.97
20
1297
30
0
11
294.27
21
1299.25
31
0
0
LINE
8
0
10
287.59
20
1204.77
30
0
11
284.24
21
1204.77
31
0
0
LINE
8
0
10
284.24
20
1204.77
30
0
11
284.24
21
1206.1
31
0
0
LINE
8
0
10
284.24
20
1206.1
30
0
11
290.94
21
1206.1
31
0
0
LINE
8
0
10
290.94
20
1206.1
30
0
11
290.94
21
1203.15
31
0
0
LINE
8
0
10
290.94
20
1203.15
30
0
11
284.24
21
1203.15
31
0
0
LINE
8
0
10
284.24
20
1203.15
30
0
11
284.24
21
1204.62
31
0
0
LINE
8
0
10
147.95
20
1298.07
30
0
11
144.52
21
1301.5
31
0
0
ARC
8
0
10
148.23
20
1298
30
0
40
5.100402
50
136.668337
51
134.920533
0
LINE
8
0
10
147.95
20
1420.07
30
0
11
144.52
21
1423.5
31
0
0
ARC
8
0
10
148.23
20
1420
30
0
40
5.100402
50
136.668337
51
134.920533
0
LINE
8
0
10
69.49
20
1529.25
30
0
11
71.08
21
1532
31
0
0
LINE
8
0
10
71.08
20
1532
30
0
11
77.43
21
1532
31
0
0
LINE
8
0
10
77.43
20
1532
30
0
11
80.61
21
1526.5
31
0
0
LINE
8
0
10
80.61
20
1526.5
30
0
11
77.43
21
1521
31
0
0
LINE
8
0
10
77.43
20
1521
30
0
11
71.08
21
1521
31
0
0
LINE
8
0
10
71.08
20
1521
30
0
11
67.91
21
1526.5
31
0
0
LINE
8
0
10
67.91
20
1526.5
30
0
11
69.49
21
1529.25
31
0
0
LINE
8
0
10
289.64
20
903
30
0
11
289.64
21
905.85
31
0
0
LINE
8
0
10
289.64
20
905.85
30
0
11
290.94
21
905.85
31
0
0
LINE
8
0
10
290.94
20
905.85
30
0
11
290.94
21
900.15
31
0
0
LINE
8
0
10
290.94
20
900.15
30
0
11
288.04
21
900.15
31
0
0
LINE
8
0
10
288.04
20
900.15
30
0
11
288.04
21
905.85
31
0
0
LINE
8
0
10
288.04
20
905.85
30
0
11
289.49
21
905.85
31
0
0
LINE
8
0
10
69.49
20
723.25
30
0
11
71.08
21
726
31
0
0
LINE
8
0
10
71.08
20
726
30
0
11
77.43
21
726
31
0
0
LINE
8
0
10
77.43
20
726
30
0
11
80.61
21
720.5
31
0
0
LINE
8
0
10
80.61
20
720.5
30
0
11
77.43
21
715
31
0
0
LINE
8
0
10
77.43
20
715
30
0
11
71.08
21
715
31
0
0
LINE
8
0
10
71.08
20
715
30
0
11
67.91
21
720.5
31
0
0
LINE
8
0
10
67.91
20
720.5
30
0
11
69.49
21
723.25
31
0
0
LINE
8
0
10
546
20
704.25
30
0
11
542.15
21
704.25
31
0
0
LINE
8
0
10
542.15
20
704.25
30
0
11
542.15
21
705.55
31
0
0
LINE
8
0
10
542.15
20
705.55
30
0
11
555.85
21
705.55
31
0
0
LINE
8
0
10
555.85
20
705.55
30
0
11
555.85
21
702.65
31
0
0
LINE
8
0
10
555.85
20
702.65
30
0
11
542.15
21
702.65
31
0
0
LINE
8
0
10
542.15
20
702.65
30
0
11
542.15
21
704.1
31
0
0
LINE
8
0
10
576.23
20
59.3
30
0
11
576.23
21
63.3
31
0
0
LINE
8
0
10
576.23
20
63.3
30
0
11
576.23
21
1741.85
31
0
0
LINE
8
0
10
576.23
20
1741.85
30
0
11
508.59
21
1741.85
31
0
0
LINE
8
0
10
508.59
20
1741.85
30
0
11
504.24
21
1740.81
31
0
0
ARC
8
0
10
504.04
20
1741.63
30
0
40
0.844038
50
214.438989
51
283.706961
0
LINE
8
0
10
503.34
20
1741.15
30
0
11
500.35
21
1745.49
31
0
0
LINE
8
0
10
500.35
20
1745.49
30
0
11
458.58
21
1787.26
31
0
0
ARC
8
0
10
452.81
20
1781.5
30
0
40
8.152944
50
44.950307
51
90
0
LINE
8
0
10
452.81
20
1789.65
30
0
11
327.13
21
1789.65
31
0
0
ARC
8
0
10
327.13
20
1785.5
30
0
40
4.15
50
90
51
180
0
LINE
8
0
10
322.98
20
1785.5
30
0
11
322.98
21
1749.65
31
0
0
LINE
8
0
10
322.98
20
1749.65
30
0
11
49.91
21
1749.65
31
0
0
LINE
8
0
10
49.91
20
1749.65
30
0
11
49.91
21
1744.35
31
0
0
LINE
8
0
10
49.91
20
1744.35
30
0
11
50.41
21
1744.35
31
0
0
LINE
8
0
10
50.41
20
1744.35
30
0
11
50.41
21
1714.65
31
0
0
LINE
8
0
10
50.41
20
1714.65
30
0
11
49.91
21
1714.65
31
0
0
LINE
8
0
10
49.91
20
1714.65
30
0
11
49.91
21
1705.35
31
0
0
LINE
8
0
10
49.91
20
1705.35
30
0
11
56.61
21
1705.35
31
0
0
LINE
8
0
10
56.61
20
1705.35
30
0
11
56.61
21
1702.65
31
0
0
LINE
8
0
10
56.61
20
1702.65
30
0
11
15.35
21
1702.65
31
0
0
LINE
8
0
10
15.35
20
1702.65
30
0
11
15.35
21
102.35
31
0
0
LINE
8
0
10
15.35
20
102.35
30
0
11
54.13
21
102.35
31
0
0
LINE
8
0
10
54.13
20
102.35
30
0
11
54.13
21
101.9
31
0
0
LINE
8
0
10
54.13
20
101.9
30
0
11
49.91
21
101.9
31
0
0
LINE
8
0
10
49.91
20
101.9
30
0
11
49.91
21
90.35
31
0
0
LINE
8
0
10
49.91
20
90.35
30
0
11
50.41
21
90.35
31
0
0
LINE
8
0
10
50.41
20
90.35
30
0
11
50.41
21
60.65
31
0
0
LINE
8
0
10
50.41
20
60.65
30
0
11
49.91
21
60.65
31
0
0
LINE
8
0
10
49.91
20
60.65
30
0
11
49.91
21
55.35
31
0
0
LINE
8
0
10
49.91
20
55.35
30
0
11
322.98
21
55.35
31
0
0
LINE
8
0
10
322.98
20
55.35
30
0
11
322.98
21
19.5
31
0
0
ARC
8
0
10
327.13
20
19.5
30
0
40
4.15
50
180
51
270
0
LINE
8
0
10
327.13
20
15.35
30
0
11
452.81
21
15.35
31
0
0
ARC
8
0
10
452.81
20
23.5
30
0
40
8.15
50
270
51
315.049693
0
LINE
8
0
10
458.58
20
17.74
30
0
11
500.35
21
59.51
31
0
0
LINE
8
0
10
500.35
20
59.51
30
0
11
503.34
21
63.85
31
0
0
ARC
8
0
10
504.04
20
63.37
30
0
40
0.848764
50
76.293039
51
145.561011
0
LINE
8
0
10
504.24
20
64.19
30
0
11
508.59
21
63.15
31
0
0
LINE
8
0
10
508.59
20
63.15
30
0
11
576.08
21
63.15
31
0
0
ENDSEC
0
EOF
