0
SECTION
2
HEADER
9
$ACADVER
1
AC1009
0
ENDSEC
0
SECTION
2
ENTITIES
0
LINE
8
0
10
1205.45
20
2623.36
30
0
11
1205.45
21
2628.3
31
0
0
LINE
8
0
10
1205.45
20
2628.3
30
0
11
1185.06
21
2628.3
31
0
0
LINE
8
0
10
1185.06
20
2628.3
30
0
11
1185.06
21
2608.36
31
0
0
ARC
8
0
10
1180
20
2608.36
30
0
40
5.06
50
270
51
0
0
LINE
8
0
10
1180
20
2603.3
30
0
11
1160.06
21
2603.3
31
0
0
LINE
8
0
10
1160.06
20
2603.3
30
0
11
1160.06
21
2508.42
31
0
0
LINE
8
0
10
1160.06
20
2508.42
30
0
11
1170
21
2508.42
31
0
0
ARC
8
0
10
1170
20
2503.36
30
0
40
5.06
50
0
51
90
0
LINE
8
0
10
1175.06
20
2503.36
30
0
11
1175.06
21
2483.42
31
0
0
LINE
8
0
10
1175.06
20
2483.42
30
0
11
1204.97
21
2483.42
31
0
0
LINE
8
0
10
1204.97
20
2483.42
30
0
11
1259.32
21
2551.3
31
0
0
ARC
8
0
10
1253.9
20
2555.64
30
0
40
6.943486
50
321.314418
51
23.426169
0
LINE
8
0
10
1260.27
20
2558.4
30
0
11
1229.96
21
2628.3
31
0
0
LINE
8
0
10
1229.96
20
2628.3
30
0
11
1206.26
21
2628.3
31
0
0
LINE
8
0
10
1044.48
20
2623.36
30
0
11
1044.48
21
2628.3
31
0
0
LINE
8
0
10
1044.48
20
2628.3
30
0
11
1025.06
21
2628.3
31
0
0
LINE
8
0
10
1025.06
20
2628.3
30
0
11
1025.06
21
2608.36
31
0
0
ARC
8
0
10
1020
20
2608.36
30
0
40
5.06
50
270
51
0
0
LINE
8
0
10
1020
20
2603.3
30
0
11
1000.06
21
2603.3
31
0
0
LINE
8
0
10
1000.06
20
2603.3
30
0
11
1000.06
21
2508.42
31
0
0
LINE
8
0
10
1000.06
20
2508.42
30
0
11
1010
21
2508.42
31
0
0
ARC
8
0
10
1010
20
2503.36
30
0
40
5.06
50
0
51
90
0
LINE
8
0
10
1015.06
20
2503.36
30
0
11
1015.06
21
2483.42
31
0
0
LINE
8
0
10
1015.06
20
2483.42
30
0
11
1044.97
21
2483.42
31
0
0
LINE
8
0
10
1044.97
20
2483.42
30
0
11
1099.32
21
2551.3
31
0
0
ARC
8
0
10
1093.9
20
2555.64
30
0
40
6.943486
50
321.314418
51
23.426169
0
LINE
8
0
10
1100.27
20
2558.4
30
0
11
1069.96
21
2628.3
31
0
0
LINE
8
0
10
1069.96
20
2628.3
30
0
11
1045.29
21
2628.3
31
0
0
LINE
8
0
10
879.03
20
2623.36
30
0
11
879.03
21
2628.3
31
0
0
LINE
8
0
10
879.03
20
2628.3
30
0
11
898.94
21
2628.3
31
0
0
LINE
8
0
10
898.94
20
2628.3
30
0
11
898.94
21
2608.36
31
0
0
ARC
8
0
10
904
20
2608.36
30
0
40
5.06
50
180
51
270
0
LINE
8
0
10
904
20
2603.3
30
0
11
923.94
21
2603.3
31
0
0
LINE
8
0
10
923.94
20
2603.3
30
0
11
923.94
21
2508.42
31
0
0
LINE
8
0
10
923.94
20
2508.42
30
0
11
914
21
2508.42
31
0
0
ARC
8
0
10
914
20
2503.36
30
0
40
5.06
50
90
51
180
0
LINE
8
0
10
908.94
20
2503.36
30
0
11
908.94
21
2483.42
31
0
0
LINE
8
0
10
908.94
20
2483.42
30
0
11
879.03
21
2483.42
31
0
0
LINE
8
0
10
879.03
20
2483.42
30
0
11
824.68
21
2551.3
31
0
0
ARC
8
0
10
830.1
20
2555.64
30
0
40
6.943486
50
156.573831
51
218.685582
0
LINE
8
0
10
823.73
20
2558.4
30
0
11
854.04
21
2628.3
31
0
0
LINE
8
0
10
854.04
20
2628.3
30
0
11
878.22
21
2628.3
31
0
0
LINE
8
0
10
715.53
20
2623.36
30
0
11
715.53
21
2628.3
31
0
0
LINE
8
0
10
715.53
20
2628.3
30
0
11
738.94
21
2628.3
31
0
0
LINE
8
0
10
738.94
20
2628.3
30
0
11
738.94
21
2608.36
31
0
0
ARC
8
0
10
744
20
2608.36
30
0
40
5.06
50
180
51
270
0
LINE
8
0
10
744
20
2603.3
30
0
11
763.94
21
2603.3
31
0
0
LINE
8
0
10
763.94
20
2603.3
30
0
11
763.94
21
2508.42
31
0
0
LINE
8
0
10
763.94
20
2508.42
30
0
11
754
21
2508.42
31
0
0
ARC
8
0
10
754
20
2503.36
30
0
40
5.06
50
90
51
180
0
LINE
8
0
10
748.94
20
2503.36
30
0
11
748.94
21
2483.42
31
0
0
LINE
8
0
10
748.94
20
2483.42
30
0
11
719.03
21
2483.42
31
0
0
LINE
8
0
10
719.03
20
2483.42
30
0
11
664.68
21
2551.3
31
0
0
ARC
8
0
10
670.1
20
2555.64
30
0
40
6.943486
50
156.573831
51
218.685582
0
LINE
8
0
10
663.73
20
2558.4
30
0
11
694.04
21
2628.3
31
0
0
LINE
8
0
10
694.04
20
2628.3
30
0
11
714.72
21
2628.3
31
0
0
LINE
8
0
10
1210.94
20
2411.61
30
0
11
1210.94
21
2415.55
31
0
0
ARC
8
0
10
1211
20
2355.36
30
0
40
60.19003
50
90.057115
51
90
0
LINE
8
0
10
1187.48
20
1710.36
30
0
11
1187.48
21
1715.3
31
0
0
LINE
8
0
10
1187.48
20
1715.3
30
0
11
1175.06
21
1715.3
31
0
0
LINE
8
0
10
1175.06
20
1715.3
30
0
11
1175.06
21
1695.36
31
0
0
ARC
8
0
10
1170
20
1695.36
30
0
40
5.06
50
270
51
0
0
LINE
8
0
10
1170
20
1690.3
30
0
11
1160.06
21
1690.3
31
0
0
LINE
8
0
10
1160.06
20
1690.3
30
0
11
1160.06
21
1595.42
31
0
0
LINE
8
0
10
1160.06
20
1595.42
30
0
11
1180
21
1595.42
31
0
0
ARC
8
0
10
1180
20
1590.36
30
0
40
5.06
50
360
51
90
0
LINE
8
0
10
1185.06
20
1590.36
30
0
11
1185.06
21
1570.42
31
0
0
LINE
8
0
10
1185.06
20
1570.42
30
0
11
1229.96
21
1570.42
31
0
0
LINE
8
0
10
1229.96
20
1570.42
30
0
11
1260.27
21
1640.31
31
0
0
ARC
8
0
10
1253.9
20
1643.07
30
0
40
6.942226
50
336.573831
51
38.685582
0
LINE
8
0
10
1259.32
20
1647.41
30
0
11
1204.97
21
1715.3
31
0
0
LINE
8
0
10
1204.97
20
1715.3
30
0
11
1188.29
21
1715.3
31
0
0
LINE
8
0
10
1029.43
20
1710.36
30
0
11
1029.43
21
1715.3
31
0
0
LINE
8
0
10
1029.43
20
1715.3
30
0
11
1015.06
21
1715.3
31
0
0
LINE
8
0
10
1015.06
20
1715.3
30
0
11
1015.06
21
1695.36
31
0
0
ARC
8
0
10
1010
20
1695.36
30
0
40
5.06
50
270
51
0
0
LINE
8
0
10
1010
20
1690.3
30
0
11
1000.06
21
1690.3
31
0
0
LINE
8
0
10
1000.06
20
1690.3
30
0
11
1000.06
21
1595.42
31
0
0
LINE
8
0
10
1000.06
20
1595.42
30
0
11
1020
21
1595.42
31
0
0
ARC
8
0
10
1020
20
1590.36
30
0
40
5.06
50
360
51
90
0
LINE
8
0
10
1025.06
20
1590.36
30
0
11
1025.06
21
1570.42
31
0
0
LINE
8
0
10
1025.06
20
1570.42
30
0
11
1069.96
21
1570.42
31
0
0
LINE
8
0
10
1069.96
20
1570.42
30
0
11
1100.27
21
1640.31
31
0
0
ARC
8
0
10
1093.9
20
1643.07
30
0
40
6.942226
50
336.573831
51
38.685582
0
LINE
8
0
10
1099.32
20
1647.41
30
0
11
1044.97
21
1715.3
31
0
0
LINE
8
0
10
1044.97
20
1715.3
30
0
11
1030.24
21
1715.3
31
0
0
LINE
8
0
10
892.67
20
1710.36
30
0
11
892.67
21
1715.3
31
0
0
LINE
8
0
10
892.67
20
1715.3
30
0
11
879.03
21
1715.3
31
0
0
LINE
8
0
10
879.03
20
1715.3
30
0
11
824.68
21
1647.41
31
0
0
ARC
8
0
10
830.1
20
1643.07
30
0
40
6.943486
50
141.314418
51
203.426169
0
LINE
8
0
10
823.73
20
1640.31
30
0
11
854.04
21
1570.42
31
0
0
LINE
8
0
10
854.04
20
1570.42
30
0
11
898.94
21
1570.42
31
0
0
LINE
8
0
10
898.94
20
1570.42
30
0
11
898.94
21
1590.36
31
0
0
ARC
8
0
10
904
20
1590.36
30
0
40
5.06
50
90
51
180
0
LINE
8
0
10
904
20
1595.42
30
0
11
923.94
21
1595.42
31
0
0
LINE
8
0
10
923.94
20
1595.42
30
0
11
923.94
21
1690.3
31
0
0
LINE
8
0
10
923.94
20
1690.3
30
0
11
914
21
1690.3
31
0
0
ARC
8
0
10
914
20
1695.36
30
0
40
5.06
50
180
51
270
0
LINE
8
0
10
908.94
20
1695.36
30
0
11
908.94
21
1715.3
31
0
0
LINE
8
0
10
908.94
20
1715.3
30
0
11
893.48
21
1715.3
31
0
0
LINE
8
0
10
733.1
20
1710.36
30
0
11
733.1
21
1715.3
31
0
0
LINE
8
0
10
733.1
20
1715.3
30
0
11
748.94
21
1715.3
31
0
0
LINE
8
0
10
748.94
20
1715.3
30
0
11
748.94
21
1695.36
31
0
0
ARC
8
0
10
754
20
1695.36
30
0
40
5.06
50
180
51
270
0
LINE
8
0
10
754
20
1690.3
30
0
11
763.94
21
1690.3
31
0
0
LINE
8
0
10
763.94
20
1690.3
30
0
11
763.94
21
1595.42
31
0
0
LINE
8
0
10
763.94
20
1595.42
30
0
11
744
21
1595.42
31
0
0
ARC
8
0
10
744
20
1590.36
30
0
40
5.06
50
90
51
180
0
LINE
8
0
10
738.94
20
1590.36
30
0
11
738.94
21
1570.42
31
0
0
LINE
8
0
10
738.94
20
1570.42
30
0
11
694.04
21
1570.42
31
0
0
LINE
8
0
10
694.04
20
1570.42
30
0
11
663.73
21
1640.31
31
0
0
ARC
8
0
10
670.1
20
1643.07
30
0
40
6.942226
50
141.314418
51
203.426169
0
LINE
8
0
10
664.68
20
1647.41
30
0
11
719.03
21
1715.3
31
0
0
LINE
8
0
10
719.03
20
1715.3
30
0
11
732.29
21
1715.3
31
0
0
LINE
8
0
10
1319
20
1483.64
30
0
11
1315
21
1483.64
31
0
0
LINE
8
0
10
1315
20
1483.64
30
0
11
608.94
21
1483.64
31
0
0
LINE
8
0
10
608.94
20
1483.64
30
0
11
608.94
21
1742.42
31
0
0
LINE
8
0
10
608.94
20
1742.42
30
0
11
613.36
21
1742.42
31
0
0
LINE
8
0
10
613.36
20
1742.42
30
0
11
611.94
21
1743.83
31
0
0
LINE
8
0
10
611.94
20
1743.83
30
0
11
611.94
21
2454.88
31
0
0
LINE
8
0
10
611.94
20
2454.88
30
0
11
613.36
21
2456.3
31
0
0
LINE
8
0
10
613.36
20
2456.3
30
0
11
608.94
21
2456.3
31
0
0
LINE
8
0
10
608.94
20
2456.3
30
0
11
608.94
21
2715.07
31
0
0
LINE
8
0
10
608.94
20
2715.07
30
0
11
1315.06
21
2715.07
31
0
0
LINE
8
0
10
1315.06
20
2715.07
30
0
11
1315.06
21
2456.3
31
0
0
LINE
8
0
10
1315.06
20
2456.3
30
0
11
1310.64
21
2456.3
31
0
0
LINE
8
0
10
1310.64
20
2456.3
30
0
11
1312.06
21
2454.88
31
0
0
LINE
8
0
10
1312.06
20
2454.88
30
0
11
1312.06
21
1743.83
31
0
0
LINE
8
0
10
1312.06
20
1743.83
30
0
11
1310.64
21
1742.42
31
0
0
LINE
8
0
10
1310.64
20
1742.42
30
0
11
1315.06
21
1742.42
31
0
0
LINE
8
0
10
1315.06
20
1742.42
30
0
11
1315.06
21
1483.7
31
0
0
ENDSEC
0
EOF
