0
SECTION
2
HEADER
0
ENDSEC
0
SECTION
2
TABLES
0
ENDSEC
0
SECTION
2
BLOCKS
0
ENDSEC
0
SECTION
2
ENTITIES
0
CIRCLE
8
0
10
-290
20
-100
30
0.0
40
16.0
0
CIRCLE
8
0
10
-240
20
-100
30
0.0
40
18.0
0
CIRCLE
8
0
10
-140
20
-100
30
0.0
40
16.0
0
CIRCLE
8
0
10
-90
20
-100
30
0.0
40
16.0
0
CIRCLE
8
0
10
-40
20
-100
30
0.0
40
18.0
0
CIRCLE
8
0
10
-290
20
-150
30
0.0
40
25.0
0
CIRCLE
8
0
10
-190
20
-150
30
0.0
40
40.0
0
CIRCLE
8
0
10
-90
20
-150
30
0.0
40
25.0
0
CIRCLE
8
0
10
10
20
-150
30
0.0
40
40.0
0
CIRCLE
8
0
10
-240
20
-200
30
0.0
40
18.0
0
CIRCLE
8
0
10
-140
20
-200
30
0.0
40
16.0
0
CIRCLE
8
0
10
-290
20
-250
30
0.0
40
40.0
0
CIRCLE
8
0
10
-190
20
-250
30
0.0
40
25.0
0
CIRCLE
8
0
10
-90
20
-250
30
0.0
40
40.0
0
CIRCLE
8
0
10
10
20
-250
30
0.0
40
25.0
0
CIRCLE
8
0
10
-240
20
-300
30
0.0
40
18.0
0
CIRCLE
8
0
10
-190
20
-300
30
0.0
40
16.0
0
CIRCLE
8
0
10
-140
20
-300
30
0.0
40
16.0
0
CIRCLE
8
0
10
-40
20
-300
30
0.0
40
18.0
0
CIRCLE
8
0
10
10
20
-300
30
0.0
40
16.0
0
CIRCLE
8
0
10
-675
20
430
30
0.0
40
16.0
0
CIRCLE
8
0
10
-605
20
430
30
0.0
40
18.0
0
CIRCLE
8
0
10
-650
20
364
30
0.0
40
40.0
0
CIRCLE
8
0
10
-612
20
305
30
0.0
40
25.0
0
CIRCLE
8
0
10
-663
20
280
30
0.0
40
18.0
0
CIRCLE
8
0
10
-625
20
200
30
0.0
40
40.0
0
CIRCLE
8
0
10
-663
20
130
30
0.0
40
18.0
0
CIRCLE
8
0
10
-612
20
87
30
0.0
40
25.0
0
CIRCLE
8
0
10
-650
20
25
30
0.0
40
40.0
0
CIRCLE
8
0
10
-612
20
-88
30
0.0
40
25.0
0
CIRCLE
8
0
10
-650
20
-150
30
0.0
40
40.0
0
CIRCLE
8
0
10
-612
20
-213
30
0.0
40
25.0
0
CIRCLE
8
0
10
-650
20
-275
30
0.0
40
40.0
0
CIRCLE
8
0
10
-612
20
-338
30
0.0
40
25.0
0
CIRCLE
8
0
10
-650
20
-404
30
0.0
40
40.0
0
CIRCLE
8
0
10
675
20
430
30
0.0
40
16.0
0
CIRCLE
8
0
10
605
20
430
30
0.0
40
18.0
0
CIRCLE
8
0
10
650
20
364
30
0.0
40
40.0
0
CIRCLE
8
0
10
612
20
305
30
0.0
40
25.0
0
CIRCLE
8
0
10
663
20
280
30
0.0
40
18.0
0
CIRCLE
8
0
10
625
20
200
30
0.0
40
40.0
0
CIRCLE
8
0
10
663
20
130
30
0.0
40
18.0
0
CIRCLE
8
0
10
612
20
87
30
0.0
40
25.0
0
CIRCLE
8
0
10
650
20
25
30
0.0
40
40.0
0
CIRCLE
8
0
10
612
20
-88
30
0.0
40
25.0
0
CIRCLE
8
0
10
650
20
-150
30
0.0
40
40.0
0
CIRCLE
8
0
10
612
20
-213
30
0.0
40
25.0
0
CIRCLE
8
0
10
650
20
-275
30
0.0
40
40.0
0
CIRCLE
8
0
10
612
20
-338
30
0.0
40
25.0
0
CIRCLE
8
0
10
650
20
-404
30
0.0
40
40.0
0
ENDSEC
0
SECTION
2
OBJECTS
0
ENDSEC
0
EOF
