0
SECTION
2
HEADER
9
$ACADVER
1
AC1009
0
ENDSEC
0
SECTION
2
ENTITIES
0
LINE
8
0
10
819.18
20
2849.54
30
0
11
823.46
21
2849.54
31
0
0
LINE
8
0
10
823.46
20
2849.54
30
0
11
821.32
21
2853.83
31
0
0
LINE
8
0
10
821.32
20
2853.83
30
0
11
819.18
21
2849.54
31
0
0
LINE
8
0
10
823.46
20
2849.54
30
0
11
823.46
21
2847.83
31
0
0
LINE
8
0
10
824
20
2849.54
30
0
11
828.28
21
2849.54
31
0
0
LINE
8
0
10
828.28
20
2849.54
30
0
11
826.14
21
2853.83
31
0
0
LINE
8
0
10
826.14
20
2853.83
30
0
11
824
21
2849.54
31
0
0
LINE
8
0
10
828.28
20
2849.54
30
0
11
828.28
21
2847.83
31
0
0
LINE
8
0
10
833.1
20
2848.68
30
0
11
832.25
21
2847.83
31
0
0
LINE
8
0
10
832.25
20
2847.83
30
0
11
828.82
21
2847.83
31
0
0
LINE
8
0
10
828.82
20
2847.83
30
0
11
828.82
21
2849.54
31
0
0
LINE
8
0
10
828.82
20
2849.54
30
0
11
829.68
21
2850.4
31
0
0
LINE
8
0
10
829.68
20
2850.4
30
0
11
832.25
21
2850.4
31
0
0
LINE
8
0
10
832.25
20
2850.4
30
0
11
833.1
21
2851.26
31
0
0
LINE
8
0
10
833.1
20
2851.26
30
0
11
833.1
21
2852.97
31
0
0
LINE
8
0
10
833.1
20
2852.97
30
0
11
832.25
21
2853.83
31
0
0
LINE
8
0
10
832.25
20
2853.83
30
0
11
829.68
21
2853.83
31
0
0
LINE
8
0
10
829.68
20
2853.83
30
0
11
828.82
21
2852.97
31
0
0
LINE
8
0
10
837.07
20
2853.83
30
0
11
833.64
21
2849.54
31
0
0
LINE
8
0
10
833.64
20
2849.54
30
0
11
837.93
21
2849.54
31
0
0
LINE
8
0
10
837.07
20
2850.4
30
0
11
837.07
21
2847.83
31
0
0
LINE
8
0
10
845.33
20
2990.51
30
0
11
843.72
21
2993.3
31
0
0
LINE
8
0
10
843.72
20
2993.3
30
0
11
837.28
21
2993.3
31
0
0
LINE
8
0
10
837.28
20
2993.3
30
0
11
834.06
21
2987.72
31
0
0
LINE
8
0
10
834.06
20
2987.72
30
0
11
837.28
21
2982.15
31
0
0
LINE
8
0
10
837.28
20
2982.15
30
0
11
843.72
21
2982.15
31
0
0
LINE
8
0
10
843.72
20
2982.15
30
0
11
846.94
21
2987.72
31
0
0
LINE
8
0
10
846.94
20
2987.72
30
0
11
845.33
21
2990.51
31
0
0
LINE
8
0
10
829.27
20
3009.44
30
0
11
830.05
21
3011.33
31
0
0
LINE
8
0
10
830.05
20
3011.33
30
0
11
834.67
21
3009.42
31
0
0
LINE
8
0
10
834.67
20
3009.42
30
0
11
833.1
21
3005.63
31
0
0
LINE
8
0
10
833.1
20
3005.63
30
0
11
823.77
21
3009.5
31
0
0
LINE
8
0
10
823.77
20
3009.5
30
0
11
825.34
21
3013.29
31
0
0
LINE
8
0
10
825.34
20
3013.29
30
0
11
830
21
3011.35
31
0
0
LINE
8
0
10
815.33
20
3050.51
30
0
11
813.72
21
3053.3
31
0
0
LINE
8
0
10
813.72
20
3053.3
30
0
11
807.28
21
3053.3
31
0
0
LINE
8
0
10
807.28
20
3053.3
30
0
11
804.06
21
3047.72
31
0
0
LINE
8
0
10
804.06
20
3047.72
30
0
11
807.28
21
3042.15
31
0
0
LINE
8
0
10
807.28
20
3042.15
30
0
11
813.72
21
3042.15
31
0
0
LINE
8
0
10
813.72
20
3042.15
30
0
11
816.94
21
3047.72
31
0
0
LINE
8
0
10
816.94
20
3047.72
30
0
11
815.33
21
3050.51
31
0
0
LINE
8
0
10
805.53
20
2825.72
30
0
11
805.53
21
2830.67
31
0
0
LINE
8
0
10
805.53
20
2830.67
30
0
11
800.45
21
2830.67
31
0
0
LINE
8
0
10
800.45
20
2830.67
30
0
11
800.45
21
2852.72
31
0
0
ARC
8
0
10
795.5
20
2852.72
30
0
40
4.95
50
0
51
90
0
LINE
8
0
10
795.5
20
2857.67
30
0
11
775.45
21
2857.67
31
0
0
LINE
8
0
10
775.45
20
2857.67
30
0
11
775.45
21
3042.77
31
0
0
LINE
8
0
10
775.45
20
3042.77
30
0
11
785.5
21
3042.77
31
0
0
ARC
8
0
10
785.5
20
3047.72
30
0
40
4.95
50
270
51
0
0
LINE
8
0
10
790.45
20
3047.72
30
0
11
790.45
21
3067.77
31
0
0
LINE
8
0
10
790.45
20
3067.77
30
0
11
816.21
21
3067.77
31
0
0
ARC
8
0
10
816.21
20
3057.72
30
0
40
10.05
50
38.820076
51
90
0
LINE
8
0
10
824.04
20
3064.02
30
0
11
886.33
21
2986.55
31
0
0
ARC
8
0
10
878.49
20
2980.25
30
0
40
10.057614
50
337.542359
51
38.784364
0
LINE
8
0
10
887.78
20
2976.41
30
0
11
882.88
21
2964.59
31
0
0
LINE
8
0
10
882.88
20
2964.59
30
0
11
879.09
21
2966.15
31
0
0
LINE
8
0
10
879.09
20
2966.15
30
0
11
875.23
21
2956.82
31
0
0
LINE
8
0
10
875.23
20
2956.82
30
0
11
879.02
21
2955.25
31
0
0
LINE
8
0
10
879.02
20
2955.25
30
0
11
852.07
21
2890.2
31
0
0
ARC
8
0
10
870.5
20
2882.56
30
0
40
19.950802
50
157.483964
51
180
0
LINE
8
0
10
850.55
20
2882.56
30
0
11
850.55
21
2852.72
31
0
0
ARC
8
0
10
830.5
20
2852.72
30
0
40
20.05
50
270
51
0
0
LINE
8
0
10
830.5
20
2832.67
30
0
11
810.55
21
2832.67
31
0
0
LINE
8
0
10
810.55
20
2832.67
30
0
11
810.55
21
2830.67
31
0
0
LINE
8
0
10
810.55
20
2830.67
30
0
11
806.23
21
2830.67
31
0
0
ENDSEC
0
EOF
