0
SECTION
2
HEADER
9
$ACADVER
1
AC1009
0
ENDSEC
0
SECTION
2
ENTITIES
0
LINE
8
0
10
523.87
20
920.82
30
0
11
519.59
21
920.82
31
0
0
LINE
8
0
10
519.59
20
920.82
30
0
11
521.73
21
916.54
31
0
0
LINE
8
0
10
521.73
20
916.54
30
0
11
523.87
21
920.82
31
0
0
LINE
8
0
10
519.59
20
920.82
30
0
11
519.59
21
922.54
31
0
0
LINE
8
0
10
519.05
20
920.82
30
0
11
514.77
21
920.82
31
0
0
LINE
8
0
10
514.77
20
920.82
30
0
11
516.91
21
916.54
31
0
0
LINE
8
0
10
516.91
20
916.54
30
0
11
519.05
21
920.82
31
0
0
LINE
8
0
10
514.77
20
920.82
30
0
11
514.77
21
922.54
31
0
0
LINE
8
0
10
509.94
20
921.68
30
0
11
510.8
21
922.54
31
0
0
LINE
8
0
10
510.8
20
922.54
30
0
11
514.23
21
922.54
31
0
0
LINE
8
0
10
514.23
20
922.54
30
0
11
514.23
21
920.82
31
0
0
LINE
8
0
10
514.23
20
920.82
30
0
11
513.37
21
919.97
31
0
0
LINE
8
0
10
513.37
20
919.97
30
0
11
510.8
21
919.97
31
0
0
LINE
8
0
10
510.8
20
919.97
30
0
11
509.94
21
919.11
31
0
0
LINE
8
0
10
509.94
20
919.11
30
0
11
509.94
21
917.39
31
0
0
LINE
8
0
10
509.94
20
917.39
30
0
11
510.8
21
916.54
31
0
0
LINE
8
0
10
510.8
20
916.54
30
0
11
513.37
21
916.54
31
0
0
LINE
8
0
10
513.37
20
916.54
30
0
11
514.23
21
917.39
31
0
0
LINE
8
0
10
505.98
20
916.54
30
0
11
509.41
21
920.82
31
0
0
LINE
8
0
10
509.41
20
920.82
30
0
11
505.12
21
920.82
31
0
0
LINE
8
0
10
505.98
20
919.97
30
0
11
505.98
21
922.54
31
0
0
LINE
8
0
10
473.27
20
891.6
30
0
11
471.65
21
894.4
31
0
0
LINE
8
0
10
471.65
20
894.4
30
0
11
474.89
21
900
31
0
0
LINE
8
0
10
474.89
20
900
30
0
11
481.35
21
900
31
0
0
LINE
8
0
10
481.35
20
900
30
0
11
484.59
21
894.4
31
0
0
LINE
8
0
10
484.59
20
894.4
30
0
11
481.35
21
888.8
31
0
0
LINE
8
0
10
481.35
20
888.8
30
0
11
474.89
21
888.8
31
0
0
LINE
8
0
10
474.89
20
888.8
30
0
11
473.27
21
891.6
31
0
0
LINE
8
0
10
373.27
20
891.6
30
0
11
371.65
21
894.4
31
0
0
LINE
8
0
10
371.65
20
894.4
30
0
11
374.89
21
900
31
0
0
LINE
8
0
10
374.89
20
900
30
0
11
381.35
21
900
31
0
0
LINE
8
0
10
381.35
20
900
30
0
11
384.59
21
894.4
31
0
0
LINE
8
0
10
384.59
20
894.4
30
0
11
381.35
21
888.8
31
0
0
LINE
8
0
10
381.35
20
888.8
30
0
11
374.89
21
888.8
31
0
0
LINE
8
0
10
374.89
20
888.8
30
0
11
373.27
21
891.6
31
0
0
LINE
8
0
10
323.12
20
932.45
30
0
11
328.12
21
932.45
31
0
0
LINE
8
0
10
328.12
20
932.45
30
0
11
353.17
21
932.45
31
0
0
LINE
8
0
10
353.17
20
932.45
30
0
11
353.17
21
923.4
31
0
0
ARC
8
0
10
356.12
20
923.4
30
0
40
2.95
50
180
51
270
0
LINE
8
0
10
356.12
20
920.45
30
0
11
500.12
21
920.45
31
0
0
ARC
8
0
10
500.12
20
923.4
30
0
40
2.95
50
270
51
360
0
LINE
8
0
10
503.07
20
923.4
30
0
11
503.07
21
932.45
31
0
0
LINE
8
0
10
503.07
20
932.45
30
0
11
528.17
21
932.45
31
0
0
LINE
8
0
10
528.17
20
932.45
30
0
11
528.17
21
892.38
31
0
0
LINE
8
0
10
528.17
20
892.38
30
0
11
518.14
21
882.35
31
0
0
LINE
8
0
10
518.14
20
882.35
30
0
11
338.1
21
882.35
31
0
0
LINE
8
0
10
338.1
20
882.35
30
0
11
328.07
21
892.38
31
0
0
LINE
8
0
10
328.07
20
892.38
30
0
11
328.07
21
931.75
31
0
0
ENDSEC
0
EOF
