0
SECTION
2
HEADER
9
$ACADVER
1
AC1009
0
ENDSEC
0
SECTION
2
ENTITIES
0
LINE
8
0
10
1076.5
20
1856.54
30
0
11
1070
21
1860.3
31
0
0
LINE
8
0
10
1070
20
1860.3
30
0
11
1070
21
1867.8
31
0
0
LINE
8
0
10
1070
20
1867.8
30
0
11
1076.5
21
1871.55
31
0
0
LINE
8
0
10
1076.5
20
1871.55
30
0
11
1083
21
1867.8
31
0
0
LINE
8
0
10
1083
20
1867.8
30
0
11
1083
21
1860.3
31
0
0
LINE
8
0
10
1083
20
1860.3
30
0
11
1076.5
21
1856.54
31
0
0
LINE
8
0
10
1194
20
1860.3
30
0
11
1194
21
1867.8
31
0
0
LINE
8
0
10
1194
20
1867.8
30
0
11
1200.5
21
1871.55
31
0
0
LINE
8
0
10
1200.5
20
1871.55
30
0
11
1207
21
1867.8
31
0
0
LINE
8
0
10
1207
20
1867.8
30
0
11
1207
21
1860.3
31
0
0
LINE
8
0
10
1207
20
1860.3
30
0
11
1200.5
21
1856.54
31
0
0
LINE
8
0
10
1200.5
20
1856.54
30
0
11
1194
21
1860.3
31
0
0
LINE
8
0
10
1209.21
20
1873.68
30
0
11
1209.8
21
1875.23
31
0
0
LINE
8
0
10
1209.8
20
1875.23
30
0
11
1209.84
21
1875.35
31
0
0
LINE
8
0
10
1209.84
20
1875.35
30
0
11
1210.43
21
1876.89
31
0
0
LINE
8
0
10
1210.43
20
1876.89
30
0
11
1210.65
21
1876.89
31
0
0
LINE
8
0
10
1210.65
20
1876.89
30
0
11
1210.67
21
1876.89
31
0
0
LINE
8
0
10
1210.67
20
1876.89
30
0
11
1210.89
21
1876.89
31
0
0
LINE
8
0
10
1210.89
20
1876.89
30
0
11
1211.52
21
1875.35
31
0
0
LINE
8
0
10
1211.52
20
1875.35
30
0
11
1211.57
21
1875.23
31
0
0
LINE
8
0
10
1211.57
20
1875.23
30
0
11
1212.21
21
1873.69
31
0
0
LINE
8
0
10
1212.21
20
1873.69
30
0
11
1211.97
21
1873.69
31
0
0
LINE
8
0
10
1211.97
20
1873.69
30
0
11
1211.96
21
1873.69
31
0
0
LINE
8
0
10
1211.96
20
1873.69
30
0
11
1211.72
21
1873.69
31
0
0
LINE
8
0
10
1211.72
20
1873.69
30
0
11
1211.54
21
1874.16
31
0
0
LINE
8
0
10
1211.54
20
1874.16
30
0
11
1211.53
21
1874.19
31
0
0
LINE
8
0
10
1211.53
20
1874.19
30
0
11
1211.35
21
1874.66
31
0
0
LINE
8
0
10
1211.35
20
1874.66
30
0
11
1210.7
21
1874.66
31
0
0
LINE
8
0
10
1210.7
20
1874.66
30
0
11
1210.65
21
1874.66
31
0
0
LINE
8
0
10
1210.65
20
1874.66
30
0
11
1210.01
21
1874.66
31
0
0
LINE
8
0
10
1210.01
20
1874.66
30
0
11
1209.84
21
1874.19
31
0
0
LINE
8
0
10
1209.84
20
1874.19
30
0
11
1209.82
21
1874.15
31
0
0
LINE
8
0
10
1209.82
20
1874.15
30
0
11
1209.66
21
1873.68
31
0
0
LINE
8
0
10
1209.66
20
1873.68
30
0
11
1209.44
21
1873.68
31
0
0
LINE
8
0
10
1209.44
20
1873.68
30
0
11
1209.42
21
1873.68
31
0
0
LINE
8
0
10
1209.42
20
1873.68
30
0
11
1209.21
21
1873.68
31
0
0
LINE
8
0
10
1210.13
20
1875
30
0
11
1210.65
21
1875
31
0
0
LINE
8
0
10
1210.65
20
1875
30
0
11
1210.69
21
1875
31
0
0
LINE
8
0
10
1210.69
20
1875
30
0
11
1211.22
21
1875
31
0
0
LINE
8
0
10
1211.22
20
1875
30
0
11
1211.05
21
1875.43
31
0
0
LINE
8
0
10
1211.05
20
1875.43
30
0
11
1211.04
21
1875.46
31
0
0
LINE
8
0
10
1211.04
20
1875.46
30
0
11
1210.88
21
1875.89
31
0
0
LINE
8
0
10
1210.88
20
1875.89
30
0
11
1210.79
21
1876.14
31
0
0
LINE
8
0
10
1210.79
20
1876.14
30
0
11
1210.71
21
1876.37
31
0
0
LINE
8
0
10
1210.71
20
1876.37
30
0
11
1210.65
21
1876.56
31
0
0
LINE
8
0
10
1210.65
20
1876.56
30
0
11
1210.61
21
1876.35
31
0
0
LINE
8
0
10
1210.61
20
1876.35
30
0
11
1210.55
21
1876.15
31
0
0
LINE
8
0
10
1210.55
20
1876.15
30
0
11
1210.48
21
1875.94
31
0
0
LINE
8
0
10
1210.48
20
1875.94
30
0
11
1210.31
21
1875.49
31
0
0
LINE
8
0
10
1210.31
20
1875.49
30
0
11
1210.3
21
1875.46
31
0
0
LINE
8
0
10
1210.3
20
1875.46
30
0
11
1210.13
21
1875
31
0
0
LINE
8
0
10
1212.19
20
1873.68
30
0
11
1212.78
21
1875.23
31
0
0
LINE
8
0
10
1212.78
20
1875.23
30
0
11
1212.83
21
1875.35
31
0
0
LINE
8
0
10
1212.83
20
1875.35
30
0
11
1213.42
21
1876.89
31
0
0
LINE
8
0
10
1213.42
20
1876.89
30
0
11
1213.64
21
1876.89
31
0
0
LINE
8
0
10
1213.64
20
1876.89
30
0
11
1213.65
21
1876.89
31
0
0
LINE
8
0
10
1213.65
20
1876.89
30
0
11
1213.87
21
1876.89
31
0
0
LINE
8
0
10
1213.87
20
1876.89
30
0
11
1214.51
21
1875.35
31
0
0
LINE
8
0
10
1214.51
20
1875.35
30
0
11
1214.56
21
1875.23
31
0
0
LINE
8
0
10
1214.56
20
1875.23
30
0
11
1215.19
21
1873.69
31
0
0
LINE
8
0
10
1215.19
20
1873.69
30
0
11
1214.96
21
1873.69
31
0
0
LINE
8
0
10
1214.96
20
1873.69
30
0
11
1214.94
21
1873.69
31
0
0
LINE
8
0
10
1214.94
20
1873.69
30
0
11
1214.71
21
1873.69
31
0
0
LINE
8
0
10
1214.71
20
1873.69
30
0
11
1214.53
21
1874.16
31
0
0
LINE
8
0
10
1214.53
20
1874.16
30
0
11
1214.51
21
1874.19
31
0
0
LINE
8
0
10
1214.51
20
1874.19
30
0
11
1214.33
21
1874.66
31
0
0
LINE
8
0
10
1214.33
20
1874.66
30
0
11
1213.69
21
1874.66
31
0
0
LINE
8
0
10
1213.69
20
1874.66
30
0
11
1213.64
21
1874.66
31
0
0
LINE
8
0
10
1213.64
20
1874.66
30
0
11
1212.99
21
1874.66
31
0
0
LINE
8
0
10
1212.99
20
1874.66
30
0
11
1212.82
21
1874.19
31
0
0
LINE
8
0
10
1212.82
20
1874.19
30
0
11
1212.81
21
1874.15
31
0
0
LINE
8
0
10
1212.81
20
1874.15
30
0
11
1212.64
21
1873.68
31
0
0
LINE
8
0
10
1212.64
20
1873.68
30
0
11
1212.42
21
1873.68
31
0
0
LINE
8
0
10
1212.42
20
1873.68
30
0
11
1212.41
21
1873.68
31
0
0
LINE
8
0
10
1212.41
20
1873.68
30
0
11
1212.19
21
1873.68
31
0
0
LINE
8
0
10
1213.11
20
1875
30
0
11
1213.64
21
1875
31
0
0
LINE
8
0
10
1213.64
20
1875
30
0
11
1213.68
21
1875
31
0
0
LINE
8
0
10
1213.68
20
1875
30
0
11
1214.2
21
1875
31
0
0
LINE
8
0
10
1214.2
20
1875
30
0
11
1214.04
21
1875.43
31
0
0
LINE
8
0
10
1214.04
20
1875.43
30
0
11
1214.03
21
1875.46
31
0
0
LINE
8
0
10
1214.03
20
1875.46
30
0
11
1213.86
21
1875.89
31
0
0
LINE
8
0
10
1213.86
20
1875.89
30
0
11
1213.77
21
1876.14
31
0
0
LINE
8
0
10
1213.77
20
1876.14
30
0
11
1213.69
21
1876.37
31
0
0
LINE
8
0
10
1213.69
20
1876.37
30
0
11
1213.63
21
1876.56
31
0
0
LINE
8
0
10
1213.63
20
1876.56
30
0
11
1213.59
21
1876.35
31
0
0
LINE
8
0
10
1213.59
20
1876.35
30
0
11
1213.53
21
1876.15
31
0
0
LINE
8
0
10
1213.53
20
1876.15
30
0
11
1213.46
21
1875.94
31
0
0
LINE
8
0
10
1213.46
20
1875.94
30
0
11
1213.29
21
1875.49
31
0
0
LINE
8
0
10
1213.29
20
1875.49
30
0
11
1213.28
21
1875.46
31
0
0
LINE
8
0
10
1213.28
20
1875.46
30
0
11
1213.11
21
1875
31
0
0
LINE
8
0
10
1215.39
20
1875.98
30
0
11
1215.44
21
1876.25
31
0
0
LINE
8
0
10
1215.44
20
1876.25
30
0
11
1215.54
21
1876.48
31
0
0
LINE
8
0
10
1215.54
20
1876.48
30
0
11
1215.7
21
1876.67
31
0
0
LINE
8
0
10
1215.7
20
1876.67
30
0
11
1215.9
21
1876.8
31
0
0
LINE
8
0
10
1215.9
20
1876.8
30
0
11
1216.14
21
1876.88
31
0
0
LINE
8
0
10
1216.14
20
1876.88
30
0
11
1216.43
21
1876.91
31
0
0
LINE
8
0
10
1216.43
20
1876.91
30
0
11
1216.71
21
1876.88
31
0
0
LINE
8
0
10
1216.71
20
1876.88
30
0
11
1216.95
21
1876.79
31
0
0
LINE
8
0
10
1216.95
20
1876.79
30
0
11
1217.16
21
1876.65
31
0
0
LINE
8
0
10
1217.16
20
1876.65
30
0
11
1217.31
21
1876.47
31
0
0
LINE
8
0
10
1217.31
20
1876.47
30
0
11
1217.4
21
1876.26
31
0
0
LINE
8
0
10
1217.4
20
1876.26
30
0
11
1217.43
21
1876.02
31
0
0
LINE
8
0
10
1217.43
20
1876.02
30
0
11
1217.42
21
1875.89
31
0
0
LINE
8
0
10
1217.42
20
1875.89
30
0
11
1217.39
21
1875.76
31
0
0
LINE
8
0
10
1217.39
20
1875.76
30
0
11
1217.35
21
1875.64
31
0
0
LINE
8
0
10
1217.35
20
1875.64
30
0
11
1217.29
21
1875.51
31
0
0
LINE
8
0
10
1217.29
20
1875.51
30
0
11
1217.2
21
1875.38
31
0
0
LINE
8
0
10
1217.2
20
1875.38
30
0
11
1217.09
21
1875.25
31
0
0
LINE
8
0
10
1217.09
20
1875.25
30
0
11
1216.94
21
1875.09
31
0
0
LINE
8
0
10
1216.94
20
1875.09
30
0
11
1216.74
21
1874.9
31
0
0
LINE
8
0
10
1216.74
20
1874.9
30
0
11
1216.48
21
1874.68
31
0
0
LINE
8
0
10
1216.48
20
1874.68
30
0
11
1216.27
21
1874.51
31
0
0
LINE
8
0
10
1216.27
20
1874.51
30
0
11
1216.12
21
1874.37
31
0
0
LINE
8
0
10
1216.12
20
1874.37
30
0
11
1216.03
21
1874.28
31
0
0
LINE
8
0
10
1216.03
20
1874.28
30
0
11
1215.97
21
1874.21
31
0
0
LINE
8
0
10
1215.97
20
1874.21
30
0
11
1215.91
21
1874.14
31
0
0
LINE
8
0
10
1215.91
20
1874.14
30
0
11
1215.86
21
1874.06
31
0
0
LINE
8
0
10
1215.86
20
1874.06
30
0
11
1216.62
21
1874.06
31
0
0
LINE
8
0
10
1216.62
20
1874.06
30
0
11
1216.68
21
1874.06
31
0
0
LINE
8
0
10
1216.68
20
1874.06
30
0
11
1217.43
21
1874.07
31
0
0
LINE
8
0
10
1217.43
20
1874.07
30
0
11
1217.43
21
1873.88
31
0
0
LINE
8
0
10
1217.43
20
1873.88
30
0
11
1217.43
21
1873.87
31
0
0
LINE
8
0
10
1217.43
20
1873.87
30
0
11
1217.43
21
1873.69
31
0
0
LINE
8
0
10
1217.43
20
1873.69
30
0
11
1216.41
21
1873.69
31
0
0
LINE
8
0
10
1216.41
20
1873.69
30
0
11
1216.34
21
1873.69
31
0
0
LINE
8
0
10
1216.34
20
1873.69
30
0
11
1215.32
21
1873.68
31
0
0
LINE
8
0
10
1215.32
20
1873.68
30
0
11
1215.32
21
1873.78
31
0
0
LINE
8
0
10
1215.32
20
1873.78
30
0
11
1215.34
21
1873.87
31
0
0
LINE
8
0
10
1215.34
20
1873.87
30
0
11
1215.36
21
1873.96
31
0
0
LINE
8
0
10
1215.36
20
1873.96
30
0
11
1215.43
21
1874.1
31
0
0
LINE
8
0
10
1215.43
20
1874.1
30
0
11
1215.51
21
1874.24
31
0
0
LINE
8
0
10
1215.51
20
1874.24
30
0
11
1215.62
21
1874.38
31
0
0
LINE
8
0
10
1215.62
20
1874.38
30
0
11
1215.76
21
1874.53
31
0
0
LINE
8
0
10
1215.76
20
1874.53
30
0
11
1215.93
21
1874.69
31
0
0
LINE
8
0
10
1215.93
20
1874.69
30
0
11
1216.13
21
1874.87
31
0
0
LINE
8
0
10
1216.13
20
1874.87
30
0
11
1216.44
21
1875.14
31
0
0
LINE
8
0
10
1216.44
20
1875.14
30
0
11
1216.68
21
1875.36
31
0
0
LINE
8
0
10
1216.68
20
1875.36
30
0
11
1216.84
21
1875.55
31
0
0
LINE
8
0
10
1216.84
20
1875.55
30
0
11
1216.94
21
1875.72
31
0
0
LINE
8
0
10
1216.94
20
1875.72
30
0
11
1217
21
1875.87
31
0
0
LINE
8
0
10
1217
20
1875.87
30
0
11
1217.02
21
1876.03
31
0
0
LINE
8
0
10
1217.02
20
1876.03
30
0
11
1217
21
1876.17
31
0
0
LINE
8
0
10
1217
20
1876.17
30
0
11
1216.95
21
1876.3
31
0
0
LINE
8
0
10
1216.95
20
1876.3
30
0
11
1216.86
21
1876.42
31
0
0
LINE
8
0
10
1216.86
20
1876.42
30
0
11
1216.73
21
1876.51
31
0
0
LINE
8
0
10
1216.73
20
1876.51
30
0
11
1216.59
21
1876.56
31
0
0
LINE
8
0
10
1216.59
20
1876.56
30
0
11
1216.42
21
1876.58
31
0
0
LINE
8
0
10
1216.42
20
1876.58
30
0
11
1216.24
21
1876.56
31
0
0
LINE
8
0
10
1216.24
20
1876.56
30
0
11
1216.09
21
1876.5
31
0
0
LINE
8
0
10
1216.09
20
1876.5
30
0
11
1215.96
21
1876.41
31
0
0
LINE
8
0
10
1215.96
20
1876.41
30
0
11
1215.87
21
1876.28
31
0
0
LINE
8
0
10
1215.87
20
1876.28
30
0
11
1215.81
21
1876.12
31
0
0
LINE
8
0
10
1215.81
20
1876.12
30
0
11
1215.79
21
1875.93
31
0
0
LINE
8
0
10
1215.79
20
1875.93
30
0
11
1215.6
21
1875.95
31
0
0
LINE
8
0
10
1215.6
20
1875.95
30
0
11
1215.58
21
1875.96
31
0
0
LINE
8
0
10
1215.58
20
1875.96
30
0
11
1215.39
21
1875.98
31
0
0
LINE
8
0
10
1218.11
20
1874.81
30
0
11
1218.6
21
1874.81
31
0
0
LINE
8
0
10
1218.6
20
1874.81
30
0
11
1218.63
21
1874.81
31
0
0
LINE
8
0
10
1218.63
20
1874.81
30
0
11
1219.12
21
1874.82
31
0
0
LINE
8
0
10
1219.12
20
1874.82
30
0
11
1219.12
21
1875.51
31
0
0
LINE
8
0
10
1219.12
20
1875.51
30
0
11
1219.12
21
1875.56
31
0
0
LINE
8
0
10
1219.12
20
1875.56
30
0
11
1219.12
21
1876.26
31
0
0
LINE
8
0
10
1219.12
20
1876.26
30
0
11
1218.63
21
1875.56
31
0
0
LINE
8
0
10
1218.63
20
1875.56
30
0
11
1218.6
21
1875.51
31
0
0
LINE
8
0
10
1218.6
20
1875.51
30
0
11
1218.11
21
1874.81
31
0
0
LINE
8
0
10
1217.73
20
1874.81
30
0
11
1218.43
21
1875.81
31
0
0
LINE
8
0
10
1218.43
20
1875.81
30
0
11
1218.48
21
1875.89
31
0
0
LINE
8
0
10
1218.48
20
1875.89
30
0
11
1219.19
21
1876.89
31
0
0
LINE
8
0
10
1219.19
20
1876.89
30
0
11
1219.34
21
1876.89
31
0
0
LINE
8
0
10
1219.34
20
1876.89
30
0
11
1219.35
21
1876.89
31
0
0
LINE
8
0
10
1219.35
20
1876.89
30
0
11
1219.51
21
1876.89
31
0
0
LINE
8
0
10
1219.51
20
1876.89
30
0
11
1219.51
21
1875.89
31
0
0
LINE
8
0
10
1219.51
20
1875.89
30
0
11
1219.51
21
1875.82
31
0
0
LINE
8
0
10
1219.51
20
1875.82
30
0
11
1219.51
21
1874.82
31
0
0
LINE
8
0
10
1219.51
20
1874.82
30
0
11
1219.72
21
1874.82
31
0
0
LINE
8
0
10
1219.72
20
1874.82
30
0
11
1219.74
21
1874.82
31
0
0
LINE
8
0
10
1219.74
20
1874.82
30
0
11
1219.94
21
1874.82
31
0
0
LINE
8
0
10
1219.94
20
1874.82
30
0
11
1219.94
21
1874.64
31
0
0
LINE
8
0
10
1219.94
20
1874.64
30
0
11
1219.94
21
1874.63
31
0
0
LINE
8
0
10
1219.94
20
1874.63
30
0
11
1219.94
21
1874.46
31
0
0
LINE
8
0
10
1219.94
20
1874.46
30
0
11
1219.74
21
1874.46
31
0
0
LINE
8
0
10
1219.74
20
1874.46
30
0
11
1219.72
21
1874.46
31
0
0
LINE
8
0
10
1219.72
20
1874.46
30
0
11
1219.51
21
1874.46
31
0
0
LINE
8
0
10
1219.51
20
1874.46
30
0
11
1219.51
21
1874.09
31
0
0
LINE
8
0
10
1219.51
20
1874.09
30
0
11
1219.51
21
1874.06
31
0
0
LINE
8
0
10
1219.51
20
1874.06
30
0
11
1219.51
21
1873.69
31
0
0
LINE
8
0
10
1219.51
20
1873.69
30
0
11
1219.32
21
1873.69
31
0
0
LINE
8
0
10
1219.32
20
1873.69
30
0
11
1219.31
21
1873.69
31
0
0
LINE
8
0
10
1219.31
20
1873.69
30
0
11
1219.12
21
1873.69
31
0
0
LINE
8
0
10
1219.12
20
1873.69
30
0
11
1219.12
21
1874.06
31
0
0
LINE
8
0
10
1219.12
20
1874.06
30
0
11
1219.12
21
1874.08
31
0
0
LINE
8
0
10
1219.12
20
1874.08
30
0
11
1219.12
21
1874.45
31
0
0
LINE
8
0
10
1219.12
20
1874.45
30
0
11
1218.45
21
1874.45
31
0
0
LINE
8
0
10
1218.45
20
1874.45
30
0
11
1218.4
21
1874.45
31
0
0
LINE
8
0
10
1218.4
20
1874.45
30
0
11
1217.73
21
1874.45
31
0
0
LINE
8
0
10
1217.73
20
1874.45
30
0
11
1217.73
21
1874.63
31
0
0
LINE
8
0
10
1217.73
20
1874.63
30
0
11
1217.73
21
1874.64
31
0
0
LINE
8
0
10
1217.73
20
1874.64
30
0
11
1217.73
21
1874.81
31
0
0
LINE
8
0
10
1200.64
20
1864.26
30
0
11
1204.14
21
1867.76
31
0
0
ARC
8
0
10
1200.5
20
1864.05
30
0
40
5.197471
50
45.545658
51
44.922047
0
LINE
8
0
10
1154.5
20
1864.1
30
0
11
1158.45
21
1864.1
31
0
0
ARC
8
0
10
1138.5
20
1864.05
30
0
40
19.950063
50
0.143598
51
0
0
LINE
8
0
10
1076.64
20
1864.26
30
0
11
1080.14
21
1867.76
31
0
0
ARC
8
0
10
1076.5
20
1864.05
30
0
40
5.197471
50
45.545658
51
44.922047
0
LINE
8
0
10
1053.45
20
1768
30
0
11
1053.45
21
1772
31
0
0
LINE
8
0
10
1053.45
20
1772
30
0
11
1053.45
21
1784.2
31
0
0
LINE
8
0
10
1053.45
20
1784.2
30
0
11
1049.45
21
1784.2
31
0
0
LINE
8
0
10
1049.45
20
1784.2
30
0
11
1049.45
21
1793.8
31
0
0
LINE
8
0
10
1049.45
20
1793.8
30
0
11
1053.45
21
1793.8
31
0
0
LINE
8
0
10
1053.45
20
1793.8
30
0
11
1053.45
21
1801.05
31
0
0
LINE
8
0
10
1053.45
20
1801.05
30
0
11
1056.5
21
1801.05
31
0
0
ARC
8
0
10
1056.5
20
1803
30
0
40
1.95
50
270
51
0
0
LINE
8
0
10
1058.45
20
1803
30
0
11
1058.45
21
1824
31
0
0
ARC
8
0
10
1056.5
20
1824
30
0
40
1.95
50
0
51
90
0
LINE
8
0
10
1056.5
20
1825.95
30
0
11
1053.45
21
1825.95
31
0
0
LINE
8
0
10
1053.45
20
1825.95
30
0
11
1053.45
21
1871.75
31
0
0
LINE
8
0
10
1053.45
20
1871.75
30
0
11
1049.45
21
1871.75
31
0
0
LINE
8
0
10
1049.45
20
1871.75
30
0
11
1049.45
21
1881.35
31
0
0
LINE
8
0
10
1049.45
20
1881.35
30
0
11
1053.45
21
1881.35
31
0
0
LINE
8
0
10
1053.45
20
1881.35
30
0
11
1053.45
21
1921.57
31
0
0
LINE
8
0
10
1053.45
20
1921.57
30
0
11
1063.48
21
1931.6
31
0
0
LINE
8
0
10
1063.48
20
1931.6
30
0
11
1213.52
21
1931.6
31
0
0
LINE
8
0
10
1213.52
20
1931.6
30
0
11
1223.55
21
1921.57
31
0
0
LINE
8
0
10
1223.55
20
1921.57
30
0
11
1223.55
21
1881.35
31
0
0
LINE
8
0
10
1223.55
20
1881.35
30
0
11
1227.55
21
1881.35
31
0
0
LINE
8
0
10
1227.55
20
1881.35
30
0
11
1227.55
21
1871.75
31
0
0
LINE
8
0
10
1227.55
20
1871.75
30
0
11
1223.55
21
1871.75
31
0
0
LINE
8
0
10
1223.55
20
1871.75
30
0
11
1223.55
21
1825.95
31
0
0
LINE
8
0
10
1223.55
20
1825.95
30
0
11
1220.5
21
1825.95
31
0
0
ARC
8
0
10
1220.5
20
1824
30
0
40
1.95
50
90
51
180
0
LINE
8
0
10
1218.55
20
1824
30
0
11
1218.55
21
1803
31
0
0
ARC
8
0
10
1220.5
20
1803
30
0
40
1.95
50
180
51
270
0
LINE
8
0
10
1220.5
20
1801.05
30
0
11
1223.55
21
1801.05
31
0
0
LINE
8
0
10
1223.55
20
1801.05
30
0
11
1223.55
21
1793.8
31
0
0
LINE
8
0
10
1223.55
20
1793.8
30
0
11
1227.55
21
1793.8
31
0
0
LINE
8
0
10
1227.55
20
1793.8
30
0
11
1227.55
21
1784.2
31
0
0
LINE
8
0
10
1227.55
20
1784.2
30
0
11
1223.55
21
1784.2
31
0
0
LINE
8
0
10
1223.55
20
1784.2
30
0
11
1223.55
21
1771.95
31
0
0
LINE
8
0
10
1223.55
20
1771.95
30
0
11
1053.5
21
1771.95
31
0
0
ENDSEC
0
EOF
