0
SECTION
2
HEADER
9
$ACADVER
1
AC1009
0
ENDSEC
0
SECTION
2
ENTITIES
0
LINE
8
0
10
1649.13
20
2237
30
0
11
1649.13
21
2247
31
0
0
LINE
8
0
10
1649.13
20
2247
30
0
11
1645.13
21
2247
31
0
0
LINE
8
0
10
1645.13
20
2247
30
0
11
1645.13
21
2237
31
0
0
LINE
8
0
10
1645.13
20
2827
30
0
11
1645.13
21
2817
31
0
0
LINE
8
0
10
1645.13
20
2817
30
0
11
1649.13
21
2817
31
0
0
LINE
8
0
10
1649.13
20
2817
30
0
11
1649.13
21
2827
31
0
0
LINE
8
0
10
1710.13
20
2888
30
0
11
1720.13
21
2888
31
0
0
LINE
8
0
10
1720.13
20
2888
30
0
11
1720.13
21
2892
31
0
0
LINE
8
0
10
1720.13
20
2892
30
0
11
1710.13
21
2892
31
0
0
LINE
8
0
10
1210.2
20
2906.85
30
0
11
1213
21
2908.47
31
0
0
LINE
8
0
10
1213
20
2908.47
30
0
11
1218.6
21
2905.23
31
0
0
LINE
8
0
10
1218.6
20
2905.23
30
0
11
1218.6
21
2898.77
31
0
0
LINE
8
0
10
1218.6
20
2898.77
30
0
11
1213
21
2895.53
31
0
0
LINE
8
0
10
1213
20
2895.53
30
0
11
1207.4
21
2898.77
31
0
0
LINE
8
0
10
1207.4
20
2898.77
30
0
11
1207.4
21
2905.23
31
0
0
LINE
8
0
10
1207.4
20
2905.23
30
0
11
1210.2
21
2906.85
31
0
0
LINE
8
0
10
1258.24
20
2559.8
30
0
11
1259.86
21
2562.6
31
0
0
LINE
8
0
10
1259.86
20
2562.6
30
0
11
1266.32
21
2562.6
31
0
0
LINE
8
0
10
1266.32
20
2562.6
30
0
11
1269.56
21
2557
31
0
0
LINE
8
0
10
1269.56
20
2557
30
0
11
1266.32
21
2551.4
31
0
0
LINE
8
0
10
1266.32
20
2551.4
30
0
11
1259.86
21
2551.4
31
0
0
LINE
8
0
10
1259.86
20
2551.4
30
0
11
1256.62
21
2557
31
0
0
LINE
8
0
10
1256.62
20
2557
30
0
11
1258.24
21
2559.8
31
0
0
LINE
8
0
10
1258.24
20
2509.8
30
0
11
1259.86
21
2512.6
31
0
0
LINE
8
0
10
1259.86
20
2512.6
30
0
11
1266.32
21
2512.6
31
0
0
LINE
8
0
10
1266.32
20
2512.6
30
0
11
1269.56
21
2507
31
0
0
LINE
8
0
10
1269.56
20
2507
30
0
11
1266.32
21
2501.4
31
0
0
LINE
8
0
10
1266.32
20
2501.4
30
0
11
1259.86
21
2501.4
31
0
0
LINE
8
0
10
1259.86
20
2501.4
30
0
11
1256.62
21
2507
31
0
0
LINE
8
0
10
1256.62
20
2507
30
0
11
1258.24
21
2509.8
31
0
0
LINE
8
0
10
1278.08
20
2244.31
30
0
11
1279.42
21
2246.62
31
0
0
LINE
8
0
10
1279.42
20
2246.62
30
0
11
1284.76
21
2246.62
31
0
0
LINE
8
0
10
1284.76
20
2246.62
30
0
11
1287.43
21
2242
31
0
0
LINE
8
0
10
1287.43
20
2242
30
0
11
1284.76
21
2237.37
31
0
0
LINE
8
0
10
1284.76
20
2237.37
30
0
11
1279.42
21
2237.37
31
0
0
LINE
8
0
10
1279.42
20
2237.37
30
0
11
1276.75
21
2242
31
0
0
LINE
8
0
10
1276.75
20
2242
30
0
11
1278.08
21
2244.31
31
0
0
LINE
8
0
10
1278.08
20
2226.31
30
0
11
1279.42
21
2228.62
31
0
0
LINE
8
0
10
1279.42
20
2228.62
30
0
11
1284.76
21
2228.62
31
0
0
LINE
8
0
10
1284.76
20
2228.62
30
0
11
1287.43
21
2224
31
0
0
LINE
8
0
10
1287.43
20
2224
30
0
11
1284.76
21
2219.37
31
0
0
LINE
8
0
10
1284.76
20
2219.37
30
0
11
1279.42
21
2219.37
31
0
0
LINE
8
0
10
1279.42
20
2219.37
30
0
11
1276.75
21
2224
31
0
0
LINE
8
0
10
1276.75
20
2224
30
0
11
1278.08
21
2226.31
31
0
0
LINE
8
0
10
1210.2
20
2166.85
30
0
11
1213
21
2168.47
31
0
0
LINE
8
0
10
1213
20
2168.47
30
0
11
1218.6
21
2165.23
31
0
0
LINE
8
0
10
1218.6
20
2165.23
30
0
11
1218.6
21
2158.77
31
0
0
LINE
8
0
10
1218.6
20
2158.77
30
0
11
1213
21
2155.53
31
0
0
LINE
8
0
10
1213
20
2155.53
30
0
11
1207.4
21
2158.77
31
0
0
LINE
8
0
10
1207.4
20
2158.77
30
0
11
1207.4
21
2165.23
31
0
0
LINE
8
0
10
1207.4
20
2165.23
30
0
11
1210.2
21
2166.85
31
0
0
LINE
8
0
10
1710.13
20
2172
30
0
11
1720.13
21
2172
31
0
0
LINE
8
0
10
1720.13
20
2172
30
0
11
1720.13
21
2176
31
0
0
LINE
8
0
10
1720.13
20
2176
30
0
11
1710.13
21
2176
31
0
0
LINE
8
0
10
1995.12
20
2125
30
0
11
1995.12
21
2128
31
0
0
LINE
8
0
10
1995.12
20
2128
30
0
11
1995.12
21
2936.05
31
0
0
LINE
8
0
10
1995.12
20
2936.05
30
0
11
1738.63
21
2936.05
31
0
0
LINE
8
0
10
1738.63
20
2936.05
30
0
11
1738.63
21
2931.05
31
0
0
LINE
8
0
10
1738.63
20
2931.05
30
0
11
1408.59
21
2931.05
31
0
0
ARC
8
0
10
1408.59
20
2937
30
0
40
5.95
50
180
51
270
0
LINE
8
0
10
1402.64
20
2937
30
0
11
1402.64
21
2997
31
0
0
ARC
8
0
10
1396.59
20
2997
30
0
40
6.05
50
0
51
90
0
LINE
8
0
10
1396.59
20
3003.05
30
0
11
1242.04
21
3003.05
31
0
0
LINE
8
0
10
1242.04
20
3003.05
30
0
11
1242.04
21
2998.05
31
0
0
LINE
8
0
10
1242.04
20
2998.05
30
0
11
1221.05
21
2998.05
31
0
0
LINE
8
0
10
1221.05
20
2998.05
30
0
11
1221.05
21
3003.05
31
0
0
LINE
8
0
10
1221.05
20
3003.05
30
0
11
1204.95
21
3003.05
31
0
0
LINE
8
0
10
1204.95
20
3003.05
30
0
11
1204.95
21
2060.95
31
0
0
LINE
8
0
10
1204.95
20
2060.95
30
0
11
1221.05
21
2060.95
31
0
0
LINE
8
0
10
1221.05
20
2060.95
30
0
11
1221.05
21
2065.95
31
0
0
LINE
8
0
10
1221.05
20
2065.95
30
0
11
1242.04
21
2065.95
31
0
0
LINE
8
0
10
1242.04
20
2065.95
30
0
11
1242.04
21
2060.95
31
0
0
LINE
8
0
10
1242.04
20
2060.95
30
0
11
1396.59
21
2060.95
31
0
0
ARC
8
0
10
1396.59
20
2067
30
0
40
6.05
50
270
51
0
0
LINE
8
0
10
1402.64
20
2067
30
0
11
1402.64
21
2127
31
0
0
ARC
8
0
10
1408.59
20
2127
30
0
40
5.95
50
90
51
180
0
LINE
8
0
10
1408.59
20
2132.95
30
0
11
1738.63
21
2132.95
31
0
0
LINE
8
0
10
1738.63
20
2132.95
30
0
11
1738.63
21
2127.95
31
0
0
LINE
8
0
10
1738.63
20
2127.95
30
0
11
1995.07
21
2127.95
31
0
0
ENDSEC
0
EOF
