0
SECTION
2
HEADER
9
$ACADVER
1
AC1009
0
ENDSEC
0
SECTION
2
ENTITIES
0
LINE
8
0
10
172.93
20
1007.03
30
0
11
173.83
21
1002.16
31
0
0
ARC
8
0
10
167.09
20
1039
30
0
40
37.451478
50
180
51
280.367791
0
LINE
8
0
10
129.64
20
1039
30
0
11
129.64
21
1114
31
0
0
ARC
8
0
10
167.09
20
1114
30
0
40
37.45
50
0
51
180
0
LINE
8
0
10
204.54
20
1114
30
0
11
204.54
21
1039
31
0
0
ARC
8
0
10
167.09
20
1039
30
0
40
37.45
50
281.441936
51
0
0
LINE
8
0
10
160.9
20
1192.09
30
0
11
159.97
21
1187.23
31
0
0
ARC
8
0
10
167.09
20
1224
30
0
40
37.453001
50
180
51
259.041092
0
LINE
8
0
10
129.64
20
1224
30
0
11
129.64
21
1299
31
0
0
ARC
8
0
10
167.09
20
1299
30
0
40
37.45
50
0
51
180
0
LINE
8
0
10
204.54
20
1299
30
0
11
204.54
21
1224
31
0
0
ARC
8
0
10
167.09
20
1224
30
0
40
37.45
50
260.112564
51
0
0
LINE
8
0
10
176.99
20
1388.05
30
0
11
178.51
21
1383.33
31
0
0
ARC
8
0
10
167.09
20
1419
30
0
40
37.453509
50
180
51
287.752831
0
LINE
8
0
10
129.64
20
1419
30
0
11
129.64
21
1494
31
0
0
ARC
8
0
10
167.09
20
1494
30
0
40
37.45
50
0
51
180
0
LINE
8
0
10
204.54
20
1494
30
0
11
204.54
21
1419
31
0
0
ARC
8
0
10
167.09
20
1419
30
0
40
37.45
50
288.817141
51
0
0
LINE
8
0
10
159.57
20
1572.38
30
0
11
158.44
21
1567.56
31
0
0
ARC
8
0
10
167.09
20
1604
30
0
40
37.452585
50
180
51
256.646479
0
LINE
8
0
10
129.64
20
1604
30
0
11
129.64
21
1679
31
0
0
ARC
8
0
10
167.09
20
1679
30
0
40
37.45
50
0
51
180
0
LINE
8
0
10
204.54
20
1679
30
0
11
204.54
21
1604
31
0
0
ARC
8
0
10
167.09
20
1604
30
0
40
37.45
50
257.711825
51
0
0
LINE
8
0
10
1077.67
20
1572.94
30
0
11
1079.13
21
1568.21
31
0
0
ARC
8
0
10
1068.09
20
1604
30
0
40
37.454048
50
180
51
287.143218
0
LINE
8
0
10
1030.64
20
1604
30
0
11
1030.64
21
1679
31
0
0
ARC
8
0
10
1068.09
20
1679
30
0
40
37.45
50
0
51
180
0
LINE
8
0
10
1105.54
20
1679
30
0
11
1105.54
21
1604
31
0
0
ARC
8
0
10
1068.09
20
1604
30
0
40
37.45
50
288.222062
51
0
0
LINE
8
0
10
1070.24
20
1386.57
30
0
11
1070.57
21
1381.63
31
0
0
ARC
8
0
10
1068.09
20
1419
30
0
40
37.4522
50
180
51
273.796775
0
LINE
8
0
10
1030.64
20
1419
30
0
11
1030.64
21
1494
31
0
0
ARC
8
0
10
1068.09
20
1494
30
0
40
37.45
50
0
51
180
0
LINE
8
0
10
1105.54
20
1494
30
0
11
1105.54
21
1419
31
0
0
ARC
8
0
10
1068.09
20
1419
30
0
40
37.45
50
274.871651
51
0
0
LINE
8
0
10
1056.24
20
1193.74
30
0
11
1054.45
21
1189.12
31
0
0
ARC
8
0
10
1068.09
20
1224
30
0
40
37.452156
50
180
51
248.641766
0
LINE
8
0
10
1030.64
20
1224
30
0
11
1030.64
21
1299
31
0
0
ARC
8
0
10
1068.09
20
1299
30
0
40
37.45
50
0
51
180
0
LINE
8
0
10
1105.54
20
1299
30
0
11
1105.54
21
1224
31
0
0
ARC
8
0
10
1068.09
20
1224
30
0
40
37.45
50
249.707147
51
0
0
LINE
8
0
10
930.84
20
1130.05
30
0
11
933.79
21
1130.05
31
0
0
ARC
8
0
10
873.59
20
1130
30
0
40
60.200021
50
0.047588
51
0
0
LINE
8
0
10
1072.22
20
1006.76
30
0
11
1072.86
21
1001.85
31
0
0
ARC
8
0
10
1068.09
20
1039
30
0
40
37.454978
50
180
51
277.316653
0
LINE
8
0
10
1030.64
20
1039
30
0
11
1030.64
21
1114
31
0
0
ARC
8
0
10
1068.09
20
1114
30
0
40
37.45
50
0
51
180
0
LINE
8
0
10
1105.54
20
1114
30
0
11
1105.54
21
1039
31
0
0
ARC
8
0
10
1068.09
20
1039
30
0
40
37.45
50
278.383248
51
0
0
LINE
8
0
10
4.95
20
952
30
0
11
4.95
21
955
31
0
0
LINE
8
0
10
4.95
20
955
30
0
11
4.95
21
1763.05
31
0
0
LINE
8
0
10
4.95
20
1763.05
30
0
11
261.64
21
1763.05
31
0
0
LINE
8
0
10
261.64
20
1763.05
30
0
11
261.64
21
1759.05
31
0
0
LINE
8
0
10
261.64
20
1759.05
30
0
11
973.54
21
1759.05
31
0
0
LINE
8
0
10
973.54
20
1759.05
30
0
11
973.54
21
1763.05
31
0
0
LINE
8
0
10
973.54
20
1763.05
30
0
11
1230.23
21
1763.05
31
0
0
LINE
8
0
10
1230.23
20
1763.05
30
0
11
1230.23
21
954.95
31
0
0
LINE
8
0
10
1230.23
20
954.95
30
0
11
973.54
21
954.95
31
0
0
LINE
8
0
10
973.54
20
954.95
30
0
11
973.54
21
958.95
31
0
0
LINE
8
0
10
973.54
20
958.95
30
0
11
261.64
21
958.95
31
0
0
LINE
8
0
10
261.64
20
958.95
30
0
11
261.64
21
954.95
31
0
0
LINE
8
0
10
261.64
20
954.95
30
0
11
5
21
954.95
31
0
0
ENDSEC
0
EOF
