0
SECTION
2
HEADER
0
ENDSEC
0
SECTION
2
TABLES
0
ENDSEC
0
SECTION
2
BLOCKS
0
ENDSEC
0
SECTION
2
ENTITIES
0
CIRCLE
8
0
10
-290
20
100
30
0.0
40
16.0
0
CIRCLE
8
0
10
-240
20
100
30
0.0
40
18.0
0
CIRCLE
8
0
10
-140
20
100
30
0.0
40
16.0
0
CIRCLE
8
0
10
-90
20
100
30
0.0
40
16.0
0
CIRCLE
8
0
10
-40
20
100
30
0.0
40
18.0
0
CIRCLE
8
0
10
-290
20
50
30
0.0
40
25.0
0
CIRCLE
8
0
10
-190
20
50
30
0.0
40
40.0
0
CIRCLE
8
0
10
-90
20
50
30
0.0
40
25.0
0
CIRCLE
8
0
10
10
20
50
30
0.0
40
40.0
0
CIRCLE
8
0
10
-240
20
0
30
0.0
40
18.0
0
CIRCLE
8
0
10
-140
20
0
30
0.0
40
16.0
0
CIRCLE
8
0
10
-290
20
-50
30
0.0
40
40.0
0
CIRCLE
8
0
10
-190
20
-50
30
0.0
40
25.0
0
CIRCLE
8
0
10
-90
20
-50
30
0.0
40
40.0
0
CIRCLE
8
0
10
10
20
-50
30
0.0
40
25.0
0
CIRCLE
8
0
10
-240
20
-100
30
0.0
40
18.0
0
CIRCLE
8
0
10
-190
20
-100
30
0.0
40
16.0
0
CIRCLE
8
0
10
-140
20
-100
30
0.0
40
16.0
0
CIRCLE
8
0
10
-40
20
-100
30
0.0
40
18.0
0
CIRCLE
8
0
10
10
20
-100
30
0.0
40
16.0
0
CIRCLE
8
0
10
650
20
360
30
0.0
40
40.0
0
CIRCLE
8
0
10
611
20
288
30
0.0
40
25.0
0
CIRCLE
8
0
10
663
20
280
30
0.0
40
18.0
0
CIRCLE
8
0
10
628
20
200
30
0.0
40
40.0
0
CIRCLE
8
0
10
663
20
130
30
0.0
40
18.0
0
CIRCLE
8
0
10
611
20
73
30
0.0
40
25.0
0
CIRCLE
8
0
10
650
20
0
30
0.0
40
40.0
0
CIRCLE
8
0
10
650
20
-150
30
0.0
40
40.0
0
CIRCLE
8
0
10
650
20
-275
30
0.0
40
40.0
0
CIRCLE
8
0
10
638
20
-360
30
0.0
40
25.0
0
CIRCLE
8
0
10
650
20
-150
30
0.0
40
40.0
0
CIRCLE
8
0
10
-650
20
360
30
0.0
40
40.0
0
CIRCLE
8
0
10
-611
20
288
30
0.0
40
25.0
0
CIRCLE
8
0
10
-663
20
280
30
0.0
40
18.0
0
CIRCLE
8
0
10
-628
20
200
30
0.0
40
40.0
0
CIRCLE
8
0
10
-663
20
130
30
0.0
40
18.0
0
CIRCLE
8
0
10
-611
20
73
30
0.0
40
25.0
0
CIRCLE
8
0
10
-650
20
0
30
0.0
40
40.0
0
CIRCLE
8
0
10
-650
20
-150
30
0.0
40
40.0
0
CIRCLE
8
0
10
-650
20
-275
30
0.0
40
40.0
0
CIRCLE
8
0
10
-638
20
-360
30
0.0
40
25.0
0
CIRCLE
8
0
10
-650
20
-150
30
0.0
40
40.0
0
ENDSEC
0
SECTION
2
OBJECTS
0
ENDSEC
0
EOF
